G04*
G04 #@! TF.GenerationSoftware,Altium Limited,Altium Designer,25.8.1 (18)*
G04*
G04 Layer_Color=8388736*
%FSLAX24Y24*%
%MOIN*%
G70*
G04*
G04 #@! TF.SameCoordinates,7FF5DB36-7A27-4332-9A6D-2CD05FB9F9F7*
G04*
G04*
G04 #@! TF.FilePolarity,Negative*
G04*
G01*
G75*
%ADD14C,0.0100*%
G04:AMPARAMS|DCode=27|XSize=47.5mil|YSize=21mil|CornerRadius=10.5mil|HoleSize=0mil|Usage=FLASHONLY|Rotation=0.000|XOffset=0mil|YOffset=0mil|HoleType=Round|Shape=RoundedRectangle|*
%AMROUNDEDRECTD27*
21,1,0.0475,0.0000,0,0,0.0*
21,1,0.0265,0.0210,0,0,0.0*
1,1,0.0210,0.0133,0.0000*
1,1,0.0210,-0.0133,0.0000*
1,1,0.0210,-0.0133,0.0000*
1,1,0.0210,0.0133,0.0000*
%
%ADD27ROUNDEDRECTD27*%
%ADD28R,0.0475X0.0210*%
G04:AMPARAMS|DCode=29|XSize=41.7mil|YSize=21.5mil|CornerRadius=10.8mil|HoleSize=0mil|Usage=FLASHONLY|Rotation=90.000|XOffset=0mil|YOffset=0mil|HoleType=Round|Shape=RoundedRectangle|*
%AMROUNDEDRECTD29*
21,1,0.0417,0.0000,0,0,90.0*
21,1,0.0202,0.0215,0,0,90.0*
1,1,0.0215,0.0000,0.0101*
1,1,0.0215,0.0000,-0.0101*
1,1,0.0215,0.0000,-0.0101*
1,1,0.0215,0.0000,0.0101*
%
%ADD29ROUNDEDRECTD29*%
%ADD30R,0.0215X0.0417*%
%ADD33C,0.0118*%
%ADD34R,0.0474X0.1064*%
G04:AMPARAMS|DCode=35|XSize=106.4mil|YSize=47.4mil|CornerRadius=8.9mil|HoleSize=0mil|Usage=FLASHONLY|Rotation=90.000|XOffset=0mil|YOffset=0mil|HoleType=Round|Shape=RoundedRectangle|*
%AMROUNDEDRECTD35*
21,1,0.1064,0.0295,0,0,90.0*
21,1,0.0886,0.0474,0,0,90.0*
1,1,0.0178,0.0148,0.0443*
1,1,0.0178,0.0148,-0.0443*
1,1,0.0178,-0.0148,-0.0443*
1,1,0.0178,-0.0148,0.0443*
%
%ADD35ROUNDEDRECTD35*%
G04:AMPARAMS|DCode=36|XSize=56.1mil|YSize=31.7mil|CornerRadius=9.9mil|HoleSize=0mil|Usage=FLASHONLY|Rotation=90.000|XOffset=0mil|YOffset=0mil|HoleType=Round|Shape=RoundedRectangle|*
%AMROUNDEDRECTD36*
21,1,0.0561,0.0118,0,0,90.0*
21,1,0.0362,0.0317,0,0,90.0*
1,1,0.0198,0.0059,0.0181*
1,1,0.0198,0.0059,-0.0181*
1,1,0.0198,-0.0059,-0.0181*
1,1,0.0198,-0.0059,0.0181*
%
%ADD36ROUNDEDRECTD36*%
%ADD37R,0.1143X0.0690*%
%ADD38R,0.0560X0.0438*%
%ADD39R,0.0236X0.0206*%
%ADD40R,0.0395X0.0395*%
%ADD41R,0.0395X0.0395*%
%ADD42R,0.0316X0.0237*%
%ADD43R,0.0300X0.0280*%
%ADD44C,0.0474*%
%ADD45C,0.0946*%
%ADD46C,0.0680*%
%ADD47O,0.1655X0.1261*%
%ADD48C,0.2461*%
%ADD49C,0.0867*%
%ADD50C,0.0197*%
G36*
X-401Y-14245D02*
X-395Y-14246D01*
X-315Y-14267D01*
X-310Y-14269D01*
X-306Y-14271D01*
X-234Y-14312D01*
X-229Y-14315D01*
X-226Y-14319D01*
X-167Y-14377D01*
X-163Y-14381D01*
X-160Y-14386D01*
X-119Y-14458D01*
X-117Y-14462D01*
X-115Y-14467D01*
X-94Y-14547D01*
X-93Y-14553D01*
X-92Y-14558D01*
Y-14599D01*
Y-15544D01*
X-93Y-15549D01*
X-94Y-15554D01*
X-95Y-15559D01*
X-98Y-15564D01*
X-100Y-15568D01*
X-104Y-15572D01*
X-108Y-15576D01*
X-112Y-15579D01*
X-117Y-15581D01*
X-122Y-15583D01*
X-127Y-15584D01*
X-132Y-15584D01*
X-762D01*
X-767Y-15584D01*
X-773Y-15583D01*
X-778Y-15581D01*
X-782Y-15579D01*
X-787Y-15576D01*
X-791Y-15572D01*
X-794Y-15568D01*
X-797Y-15564D01*
X-799Y-15559D01*
X-801Y-15554D01*
X-802Y-15549D01*
X-802Y-15544D01*
Y-14599D01*
X-802Y-14558D01*
D01*
Y-14558D01*
X-802Y-14553D01*
X-801Y-14547D01*
X-779Y-14467D01*
X-778Y-14462D01*
X-777Y-14460D01*
X-775Y-14458D01*
X-734Y-14386D01*
X-731Y-14381D01*
X-728Y-14377D01*
X-669Y-14319D01*
X-665Y-14315D01*
X-661Y-14312D01*
X-589Y-14271D01*
X-584Y-14269D01*
X-579Y-14267D01*
X-499Y-14246D01*
X-494Y-14245D01*
X-489Y-14244D01*
X-406D01*
X-401Y-14245D01*
D02*
G37*
G36*
X599D02*
X605Y-14246D01*
X685Y-14267D01*
X690Y-14269D01*
X694Y-14271D01*
X766Y-14312D01*
X771Y-14315D01*
X774Y-14319D01*
X833Y-14377D01*
X837Y-14381D01*
X839Y-14386D01*
X881Y-14458D01*
X883Y-14462D01*
X885Y-14467D01*
X906Y-14547D01*
X907Y-14553D01*
X908Y-14558D01*
Y-14599D01*
Y-15544D01*
X907Y-15549D01*
X906Y-15554D01*
X905Y-15559D01*
X902Y-15564D01*
X900Y-15568D01*
X896Y-15572D01*
X892Y-15576D01*
X888Y-15579D01*
X883Y-15581D01*
X878Y-15583D01*
X873Y-15584D01*
X868Y-15584D01*
X238D01*
X233Y-15584D01*
X227Y-15583D01*
X222Y-15581D01*
X218Y-15579D01*
X213Y-15576D01*
X209Y-15572D01*
X206Y-15568D01*
X203Y-15564D01*
X201Y-15559D01*
X199Y-15554D01*
X198Y-15549D01*
X198Y-15544D01*
Y-14599D01*
X198Y-14558D01*
D01*
Y-14558D01*
X198Y-14553D01*
X199Y-14547D01*
X221Y-14467D01*
X222Y-14462D01*
X223Y-14460D01*
X225Y-14458D01*
X266Y-14386D01*
X269Y-14381D01*
X272Y-14377D01*
X331Y-14319D01*
X335Y-14315D01*
X339Y-14312D01*
X411Y-14271D01*
X416Y-14269D01*
X421Y-14267D01*
X501Y-14246D01*
X506Y-14245D01*
X511Y-14244D01*
X594D01*
X599Y-14245D01*
D02*
G37*
G36*
X1599D02*
X1605Y-14246D01*
X1685Y-14267D01*
X1690Y-14269D01*
X1694Y-14271D01*
X1766Y-14312D01*
X1771Y-14315D01*
X1774Y-14319D01*
X1833Y-14377D01*
X1837Y-14381D01*
X1840Y-14386D01*
X1881Y-14458D01*
X1883Y-14462D01*
X1885Y-14467D01*
X1906Y-14547D01*
X1907Y-14553D01*
X1908Y-14558D01*
Y-14599D01*
Y-15544D01*
X1907Y-15549D01*
X1906Y-15554D01*
X1905Y-15559D01*
X1902Y-15564D01*
X1900Y-15568D01*
X1896Y-15572D01*
X1892Y-15576D01*
X1888Y-15579D01*
X1883Y-15581D01*
X1878Y-15583D01*
X1873Y-15584D01*
X1868Y-15584D01*
X1238D01*
X1233Y-15584D01*
X1227Y-15583D01*
X1222Y-15581D01*
X1218Y-15579D01*
X1213Y-15576D01*
X1209Y-15572D01*
X1206Y-15568D01*
X1203Y-15564D01*
X1201Y-15559D01*
X1199Y-15554D01*
X1198Y-15549D01*
X1198Y-15544D01*
Y-14599D01*
X1198Y-14558D01*
D01*
Y-14558D01*
X1198Y-14553D01*
X1199Y-14547D01*
X1221Y-14467D01*
X1222Y-14462D01*
X1223Y-14460D01*
X1225Y-14458D01*
X1266Y-14386D01*
X1269Y-14381D01*
X1272Y-14377D01*
X1331Y-14319D01*
X1335Y-14315D01*
X1339Y-14312D01*
X1411Y-14271D01*
X1416Y-14269D01*
X1421Y-14267D01*
X1501Y-14246D01*
X1506Y-14245D01*
X1511Y-14244D01*
X1594D01*
X1599Y-14245D01*
D02*
G37*
G36*
X2599D02*
X2605Y-14246D01*
X2685Y-14267D01*
X2690Y-14269D01*
X2694Y-14271D01*
X2766Y-14312D01*
X2771Y-14315D01*
X2774Y-14319D01*
X2833Y-14377D01*
X2837Y-14381D01*
X2840Y-14386D01*
X2881Y-14458D01*
X2883Y-14462D01*
X2885Y-14467D01*
X2906Y-14547D01*
X2907Y-14553D01*
X2908Y-14558D01*
Y-14599D01*
Y-15544D01*
X2907Y-15549D01*
X2906Y-15554D01*
X2905Y-15559D01*
X2902Y-15564D01*
X2900Y-15568D01*
X2896Y-15572D01*
X2892Y-15576D01*
X2888Y-15579D01*
X2883Y-15581D01*
X2878Y-15583D01*
X2873Y-15584D01*
X2868Y-15584D01*
X2238D01*
X2233Y-15584D01*
X2227Y-15583D01*
X2222Y-15581D01*
X2218Y-15579D01*
X2213Y-15576D01*
X2209Y-15572D01*
X2206Y-15568D01*
X2203Y-15564D01*
X2201Y-15559D01*
X2199Y-15554D01*
X2198Y-15549D01*
X2198Y-15544D01*
Y-14599D01*
X2198Y-14558D01*
D01*
Y-14558D01*
X2198Y-14553D01*
X2199Y-14547D01*
X2221Y-14467D01*
X2222Y-14462D01*
X2223Y-14460D01*
X2225Y-14458D01*
X2266Y-14386D01*
X2269Y-14381D01*
X2272Y-14377D01*
X2331Y-14319D01*
X2335Y-14315D01*
X2339Y-14312D01*
X2411Y-14271D01*
X2416Y-14269D01*
X2421Y-14267D01*
X2501Y-14246D01*
X2506Y-14245D01*
X2511Y-14244D01*
X2594D01*
X2599Y-14245D01*
D02*
G37*
G36*
X3599D02*
X3605Y-14246D01*
X3685Y-14267D01*
X3690Y-14269D01*
X3694Y-14271D01*
X3766Y-14312D01*
X3771Y-14315D01*
X3774Y-14319D01*
X3833Y-14377D01*
X3837Y-14381D01*
X3839Y-14386D01*
X3881Y-14458D01*
X3883Y-14462D01*
X3885Y-14467D01*
X3906Y-14547D01*
X3907Y-14553D01*
X3908Y-14558D01*
Y-14599D01*
Y-15544D01*
X3907Y-15549D01*
X3906Y-15554D01*
X3905Y-15559D01*
X3902Y-15564D01*
X3900Y-15568D01*
X3896Y-15572D01*
X3892Y-15576D01*
X3888Y-15579D01*
X3883Y-15581D01*
X3878Y-15583D01*
X3873Y-15584D01*
X3868Y-15584D01*
X3238D01*
X3233Y-15584D01*
X3227Y-15583D01*
X3222Y-15581D01*
X3218Y-15579D01*
X3213Y-15576D01*
X3209Y-15572D01*
X3206Y-15568D01*
X3203Y-15564D01*
X3201Y-15559D01*
X3199Y-15554D01*
X3198Y-15549D01*
X3198Y-15544D01*
Y-14599D01*
X3198Y-14558D01*
D01*
Y-14558D01*
X3198Y-14553D01*
X3199Y-14547D01*
X3221Y-14467D01*
X3222Y-14462D01*
X3223Y-14460D01*
X3225Y-14458D01*
X3266Y-14386D01*
X3269Y-14381D01*
X3272Y-14377D01*
X3331Y-14319D01*
X3335Y-14315D01*
X3339Y-14312D01*
X3411Y-14271D01*
X3416Y-14269D01*
X3421Y-14267D01*
X3501Y-14246D01*
X3506Y-14245D01*
X3511Y-14244D01*
X3594D01*
X3599Y-14245D01*
D02*
G37*
G36*
X-127Y-6613D02*
X-122Y-6614D01*
X-117Y-6616D01*
X-112Y-6618D01*
X-108Y-6621D01*
X-104Y-6624D01*
X-100Y-6628D01*
X-98Y-6633D01*
X-95Y-6637D01*
X-94Y-6642D01*
X-93Y-6648D01*
X-92Y-6653D01*
Y-7598D01*
Y-7639D01*
X-93Y-7644D01*
X-94Y-7649D01*
X-115Y-7730D01*
X-117Y-7735D01*
X-119Y-7739D01*
X-160Y-7811D01*
X-163Y-7815D01*
X-167Y-7819D01*
X-226Y-7878D01*
X-229Y-7881D01*
X-234Y-7884D01*
X-306Y-7926D01*
X-308Y-7927D01*
X-310Y-7928D01*
X-315Y-7930D01*
X-395Y-7951D01*
X-401Y-7952D01*
X-406Y-7953D01*
X-489D01*
X-494Y-7952D01*
X-499Y-7951D01*
X-579Y-7930D01*
X-584Y-7928D01*
X-589Y-7926D01*
X-661Y-7884D01*
X-665Y-7881D01*
X-669Y-7878D01*
X-728Y-7819D01*
X-731Y-7815D01*
X-734Y-7811D01*
X-775Y-7739D01*
X-777Y-7737D01*
X-778Y-7735D01*
X-779Y-7730D01*
X-801Y-7649D01*
X-802Y-7644D01*
X-802Y-7639D01*
D01*
Y-7639D01*
X-802Y-7598D01*
Y-6653D01*
X-802Y-6648D01*
X-801Y-6642D01*
X-799Y-6637D01*
X-797Y-6633D01*
X-794Y-6628D01*
X-791Y-6624D01*
X-787Y-6621D01*
X-782Y-6618D01*
X-778Y-6616D01*
X-773Y-6614D01*
X-767Y-6613D01*
X-762Y-6613D01*
X-132D01*
X-127Y-6613D01*
D02*
G37*
G36*
X873D02*
X878Y-6614D01*
X883Y-6616D01*
X888Y-6618D01*
X892Y-6621D01*
X896Y-6624D01*
X900Y-6628D01*
X902Y-6633D01*
X905Y-6637D01*
X906Y-6642D01*
X907Y-6648D01*
X908Y-6653D01*
Y-7598D01*
Y-7639D01*
X907Y-7644D01*
X906Y-7649D01*
X885Y-7730D01*
X883Y-7735D01*
X881Y-7739D01*
X839Y-7811D01*
X837Y-7815D01*
X833Y-7819D01*
X774Y-7878D01*
X771Y-7881D01*
X766Y-7884D01*
X694Y-7926D01*
X692Y-7927D01*
X690Y-7928D01*
X685Y-7930D01*
X605Y-7951D01*
X599Y-7952D01*
X594Y-7953D01*
X511D01*
X506Y-7952D01*
X501Y-7951D01*
X421Y-7930D01*
X416Y-7928D01*
X411Y-7926D01*
X339Y-7884D01*
X335Y-7881D01*
X331Y-7878D01*
X272Y-7819D01*
X269Y-7815D01*
X266Y-7811D01*
X225Y-7739D01*
X223Y-7737D01*
X222Y-7735D01*
X221Y-7730D01*
X199Y-7649D01*
X198Y-7644D01*
X198Y-7639D01*
D01*
Y-7639D01*
X198Y-7598D01*
Y-6653D01*
X198Y-6648D01*
X199Y-6642D01*
X201Y-6637D01*
X203Y-6633D01*
X206Y-6628D01*
X209Y-6624D01*
X213Y-6621D01*
X218Y-6618D01*
X222Y-6616D01*
X227Y-6614D01*
X233Y-6613D01*
X238Y-6613D01*
X868D01*
X873Y-6613D01*
D02*
G37*
G36*
X1873D02*
X1878Y-6614D01*
X1883Y-6616D01*
X1888Y-6618D01*
X1892Y-6621D01*
X1896Y-6624D01*
X1900Y-6628D01*
X1902Y-6633D01*
X1905Y-6637D01*
X1906Y-6642D01*
X1907Y-6648D01*
X1908Y-6653D01*
Y-7598D01*
Y-7639D01*
X1907Y-7644D01*
X1906Y-7649D01*
X1885Y-7730D01*
X1883Y-7735D01*
X1881Y-7739D01*
X1840Y-7811D01*
X1837Y-7815D01*
X1833Y-7819D01*
X1774Y-7878D01*
X1771Y-7881D01*
X1766Y-7884D01*
X1694Y-7926D01*
X1692Y-7927D01*
X1690Y-7928D01*
X1685Y-7930D01*
X1605Y-7951D01*
X1599Y-7952D01*
X1594Y-7953D01*
X1511D01*
X1506Y-7952D01*
X1501Y-7951D01*
X1421Y-7930D01*
X1416Y-7928D01*
X1411Y-7926D01*
X1339Y-7884D01*
X1335Y-7881D01*
X1331Y-7878D01*
X1272Y-7819D01*
X1269Y-7815D01*
X1266Y-7811D01*
X1225Y-7739D01*
X1223Y-7737D01*
X1222Y-7735D01*
X1221Y-7730D01*
X1199Y-7649D01*
X1198Y-7644D01*
X1198Y-7639D01*
D01*
Y-7639D01*
X1198Y-7598D01*
Y-6653D01*
X1198Y-6648D01*
X1199Y-6642D01*
X1201Y-6637D01*
X1203Y-6633D01*
X1206Y-6628D01*
X1209Y-6624D01*
X1213Y-6621D01*
X1218Y-6618D01*
X1222Y-6616D01*
X1227Y-6614D01*
X1233Y-6613D01*
X1238Y-6613D01*
X1868D01*
X1873Y-6613D01*
D02*
G37*
G36*
X2873D02*
X2878Y-6614D01*
X2883Y-6616D01*
X2888Y-6618D01*
X2892Y-6621D01*
X2896Y-6624D01*
X2900Y-6628D01*
X2902Y-6633D01*
X2905Y-6637D01*
X2906Y-6642D01*
X2907Y-6648D01*
X2908Y-6653D01*
Y-7598D01*
Y-7639D01*
X2907Y-7644D01*
X2906Y-7649D01*
X2885Y-7730D01*
X2883Y-7735D01*
X2881Y-7739D01*
X2840Y-7811D01*
X2837Y-7815D01*
X2833Y-7819D01*
X2774Y-7878D01*
X2771Y-7881D01*
X2766Y-7884D01*
X2694Y-7926D01*
X2692Y-7927D01*
X2690Y-7928D01*
X2685Y-7930D01*
X2605Y-7951D01*
X2599Y-7952D01*
X2594Y-7953D01*
X2511D01*
X2506Y-7952D01*
X2501Y-7951D01*
X2421Y-7930D01*
X2416Y-7928D01*
X2411Y-7926D01*
X2339Y-7884D01*
X2335Y-7881D01*
X2331Y-7878D01*
X2272Y-7819D01*
X2269Y-7815D01*
X2266Y-7811D01*
X2225Y-7739D01*
X2223Y-7737D01*
X2222Y-7735D01*
X2221Y-7730D01*
X2199Y-7649D01*
X2198Y-7644D01*
X2198Y-7639D01*
D01*
Y-7639D01*
X2198Y-7598D01*
Y-6653D01*
X2198Y-6648D01*
X2199Y-6642D01*
X2201Y-6637D01*
X2203Y-6633D01*
X2206Y-6628D01*
X2209Y-6624D01*
X2213Y-6621D01*
X2218Y-6618D01*
X2222Y-6616D01*
X2227Y-6614D01*
X2233Y-6613D01*
X2238Y-6613D01*
X2868D01*
X2873Y-6613D01*
D02*
G37*
G36*
X3873D02*
X3878Y-6614D01*
X3883Y-6616D01*
X3888Y-6618D01*
X3892Y-6621D01*
X3896Y-6624D01*
X3900Y-6628D01*
X3902Y-6633D01*
X3905Y-6637D01*
X3906Y-6642D01*
X3907Y-6648D01*
X3908Y-6653D01*
Y-7598D01*
Y-7639D01*
X3907Y-7644D01*
X3906Y-7649D01*
X3885Y-7730D01*
X3883Y-7735D01*
X3881Y-7739D01*
X3839Y-7811D01*
X3837Y-7815D01*
X3833Y-7819D01*
X3774Y-7878D01*
X3771Y-7881D01*
X3766Y-7884D01*
X3694Y-7926D01*
X3692Y-7927D01*
X3690Y-7928D01*
X3685Y-7930D01*
X3605Y-7951D01*
X3599Y-7952D01*
X3594Y-7953D01*
X3511D01*
X3506Y-7952D01*
X3501Y-7951D01*
X3421Y-7930D01*
X3416Y-7928D01*
X3411Y-7926D01*
X3339Y-7884D01*
X3335Y-7881D01*
X3331Y-7878D01*
X3272Y-7819D01*
X3269Y-7815D01*
X3266Y-7811D01*
X3225Y-7739D01*
X3223Y-7737D01*
X3222Y-7735D01*
X3221Y-7730D01*
X3199Y-7649D01*
X3198Y-7644D01*
X3198Y-7639D01*
D01*
Y-7639D01*
X3198Y-7598D01*
Y-6653D01*
X3198Y-6648D01*
X3199Y-6642D01*
X3201Y-6637D01*
X3203Y-6633D01*
X3206Y-6628D01*
X3209Y-6624D01*
X3213Y-6621D01*
X3218Y-6618D01*
X3222Y-6616D01*
X3227Y-6614D01*
X3233Y-6613D01*
X3238Y-6613D01*
X3868D01*
X3873Y-6613D01*
D02*
G37*
G36*
X4599Y-14245D02*
X4605Y-14246D01*
X4685Y-14267D01*
X4690Y-14269D01*
X4694Y-14271D01*
X4766Y-14312D01*
X4771Y-14315D01*
X4774Y-14319D01*
X4833Y-14377D01*
X4837Y-14381D01*
X4839Y-14386D01*
X4881Y-14458D01*
X4883Y-14462D01*
X4885Y-14467D01*
X4906Y-14547D01*
X4907Y-14553D01*
X4908Y-14558D01*
Y-14599D01*
Y-15544D01*
X4907Y-15549D01*
X4906Y-15554D01*
X4905Y-15559D01*
X4902Y-15564D01*
X4900Y-15568D01*
X4896Y-15572D01*
X4892Y-15576D01*
X4888Y-15579D01*
X4883Y-15581D01*
X4878Y-15583D01*
X4873Y-15584D01*
X4868Y-15584D01*
X4238D01*
X4233Y-15584D01*
X4227Y-15583D01*
X4222Y-15581D01*
X4218Y-15579D01*
X4213Y-15576D01*
X4209Y-15572D01*
X4206Y-15568D01*
X4203Y-15564D01*
X4201Y-15559D01*
X4199Y-15554D01*
X4198Y-15549D01*
X4198Y-15544D01*
Y-14599D01*
X4198Y-14558D01*
D01*
Y-14558D01*
X4198Y-14553D01*
X4199Y-14547D01*
X4221Y-14467D01*
X4222Y-14462D01*
X4223Y-14460D01*
X4225Y-14458D01*
X4266Y-14386D01*
X4269Y-14381D01*
X4272Y-14377D01*
X4331Y-14319D01*
X4335Y-14315D01*
X4339Y-14312D01*
X4411Y-14271D01*
X4416Y-14269D01*
X4421Y-14267D01*
X4501Y-14246D01*
X4506Y-14245D01*
X4511Y-14244D01*
X4594D01*
X4599Y-14245D01*
D02*
G37*
G36*
X5599D02*
X5605Y-14246D01*
X5685Y-14267D01*
X5690Y-14269D01*
X5694Y-14271D01*
X5766Y-14312D01*
X5771Y-14315D01*
X5774Y-14319D01*
X5833Y-14377D01*
X5837Y-14381D01*
X5839Y-14386D01*
X5881Y-14458D01*
X5883Y-14462D01*
X5885Y-14467D01*
X5906Y-14547D01*
X5907Y-14553D01*
X5908Y-14558D01*
Y-14599D01*
Y-15544D01*
X5907Y-15549D01*
X5906Y-15554D01*
X5905Y-15559D01*
X5902Y-15564D01*
X5900Y-15568D01*
X5896Y-15572D01*
X5892Y-15576D01*
X5888Y-15579D01*
X5883Y-15581D01*
X5878Y-15583D01*
X5873Y-15584D01*
X5868Y-15584D01*
X5238D01*
X5233Y-15584D01*
X5227Y-15583D01*
X5222Y-15581D01*
X5218Y-15579D01*
X5213Y-15576D01*
X5209Y-15572D01*
X5206Y-15568D01*
X5203Y-15564D01*
X5201Y-15559D01*
X5199Y-15554D01*
X5198Y-15549D01*
X5198Y-15544D01*
Y-14599D01*
X5198Y-14558D01*
D01*
Y-14558D01*
X5198Y-14553D01*
X5199Y-14547D01*
X5221Y-14467D01*
X5222Y-14462D01*
X5223Y-14460D01*
X5225Y-14458D01*
X5266Y-14386D01*
X5269Y-14381D01*
X5272Y-14377D01*
X5331Y-14319D01*
X5335Y-14315D01*
X5339Y-14312D01*
X5411Y-14271D01*
X5416Y-14269D01*
X5421Y-14267D01*
X5501Y-14246D01*
X5506Y-14245D01*
X5511Y-14244D01*
X5594D01*
X5599Y-14245D01*
D02*
G37*
G36*
X6599D02*
X6605Y-14246D01*
X6685Y-14267D01*
X6690Y-14269D01*
X6694Y-14271D01*
X6766Y-14312D01*
X6771Y-14315D01*
X6774Y-14319D01*
X6833Y-14377D01*
X6837Y-14381D01*
X6840Y-14386D01*
X6881Y-14458D01*
X6883Y-14462D01*
X6885Y-14467D01*
X6906Y-14547D01*
X6907Y-14553D01*
X6908Y-14558D01*
Y-14599D01*
Y-15544D01*
X6907Y-15549D01*
X6906Y-15554D01*
X6905Y-15559D01*
X6902Y-15564D01*
X6900Y-15568D01*
X6896Y-15572D01*
X6892Y-15576D01*
X6888Y-15579D01*
X6883Y-15581D01*
X6878Y-15583D01*
X6873Y-15584D01*
X6868Y-15584D01*
X6238D01*
X6233Y-15584D01*
X6227Y-15583D01*
X6222Y-15581D01*
X6218Y-15579D01*
X6213Y-15576D01*
X6209Y-15572D01*
X6206Y-15568D01*
X6203Y-15564D01*
X6201Y-15559D01*
X6199Y-15554D01*
X6198Y-15549D01*
X6198Y-15544D01*
Y-14599D01*
X6198Y-14558D01*
D01*
Y-14558D01*
X6198Y-14553D01*
X6199Y-14547D01*
X6221Y-14467D01*
X6222Y-14462D01*
X6223Y-14460D01*
X6225Y-14458D01*
X6266Y-14386D01*
X6269Y-14381D01*
X6272Y-14377D01*
X6331Y-14319D01*
X6335Y-14315D01*
X6339Y-14312D01*
X6411Y-14271D01*
X6416Y-14269D01*
X6421Y-14267D01*
X6501Y-14246D01*
X6506Y-14245D01*
X6511Y-14244D01*
X6594D01*
X6599Y-14245D01*
D02*
G37*
G36*
X7599D02*
X7605Y-14246D01*
X7685Y-14267D01*
X7690Y-14269D01*
X7694Y-14271D01*
X7766Y-14312D01*
X7771Y-14315D01*
X7774Y-14319D01*
X7833Y-14377D01*
X7837Y-14381D01*
X7839Y-14386D01*
X7881Y-14458D01*
X7883Y-14462D01*
X7885Y-14467D01*
X7906Y-14547D01*
X7907Y-14553D01*
X7908Y-14558D01*
Y-14599D01*
Y-15544D01*
X7907Y-15549D01*
X7906Y-15554D01*
X7905Y-15559D01*
X7902Y-15564D01*
X7900Y-15568D01*
X7896Y-15572D01*
X7892Y-15576D01*
X7888Y-15579D01*
X7883Y-15581D01*
X7878Y-15583D01*
X7873Y-15584D01*
X7868Y-15584D01*
X7238D01*
X7233Y-15584D01*
X7227Y-15583D01*
X7222Y-15581D01*
X7218Y-15579D01*
X7213Y-15576D01*
X7209Y-15572D01*
X7206Y-15568D01*
X7203Y-15564D01*
X7201Y-15559D01*
X7199Y-15554D01*
X7198Y-15549D01*
X7198Y-15544D01*
Y-14599D01*
X7198Y-14558D01*
D01*
Y-14558D01*
X7198Y-14553D01*
X7199Y-14547D01*
X7221Y-14467D01*
X7222Y-14462D01*
X7223Y-14460D01*
X7225Y-14458D01*
X7266Y-14386D01*
X7269Y-14381D01*
X7272Y-14377D01*
X7331Y-14319D01*
X7335Y-14315D01*
X7339Y-14312D01*
X7411Y-14271D01*
X7416Y-14269D01*
X7421Y-14267D01*
X7501Y-14246D01*
X7506Y-14245D01*
X7511Y-14244D01*
X7594D01*
X7599Y-14245D01*
D02*
G37*
G36*
X8599D02*
X8605Y-14246D01*
X8685Y-14267D01*
X8690Y-14269D01*
X8694Y-14271D01*
X8766Y-14312D01*
X8771Y-14315D01*
X8774Y-14319D01*
X8833Y-14377D01*
X8837Y-14381D01*
X8839Y-14386D01*
X8881Y-14458D01*
X8883Y-14462D01*
X8885Y-14467D01*
X8906Y-14547D01*
X8907Y-14553D01*
X8908Y-14558D01*
Y-14599D01*
Y-15544D01*
X8907Y-15549D01*
X8906Y-15554D01*
X8905Y-15559D01*
X8902Y-15564D01*
X8900Y-15568D01*
X8896Y-15572D01*
X8892Y-15576D01*
X8888Y-15579D01*
X8883Y-15581D01*
X8878Y-15583D01*
X8873Y-15584D01*
X8868Y-15584D01*
X8238D01*
X8233Y-15584D01*
X8227Y-15583D01*
X8222Y-15581D01*
X8218Y-15579D01*
X8213Y-15576D01*
X8209Y-15572D01*
X8206Y-15568D01*
X8203Y-15564D01*
X8201Y-15559D01*
X8199Y-15554D01*
X8198Y-15549D01*
X8198Y-15544D01*
Y-14599D01*
X8198Y-14558D01*
D01*
Y-14558D01*
X8198Y-14553D01*
X8199Y-14547D01*
X8221Y-14467D01*
X8222Y-14462D01*
X8223Y-14460D01*
X8225Y-14458D01*
X8266Y-14386D01*
X8269Y-14381D01*
X8272Y-14377D01*
X8331Y-14319D01*
X8335Y-14315D01*
X8339Y-14312D01*
X8411Y-14271D01*
X8416Y-14269D01*
X8421Y-14267D01*
X8501Y-14246D01*
X8506Y-14245D01*
X8511Y-14244D01*
X8594D01*
X8599Y-14245D01*
D02*
G37*
G36*
X4873Y-6613D02*
X4878Y-6614D01*
X4883Y-6616D01*
X4888Y-6618D01*
X4892Y-6621D01*
X4896Y-6624D01*
X4900Y-6628D01*
X4902Y-6633D01*
X4905Y-6637D01*
X4906Y-6642D01*
X4907Y-6648D01*
X4908Y-6653D01*
Y-7598D01*
Y-7639D01*
X4907Y-7644D01*
X4906Y-7649D01*
X4885Y-7730D01*
X4883Y-7735D01*
X4881Y-7739D01*
X4839Y-7811D01*
X4837Y-7815D01*
X4833Y-7819D01*
X4774Y-7878D01*
X4771Y-7881D01*
X4766Y-7884D01*
X4694Y-7926D01*
X4692Y-7927D01*
X4690Y-7928D01*
X4685Y-7930D01*
X4605Y-7951D01*
X4599Y-7952D01*
X4594Y-7953D01*
X4511D01*
X4506Y-7952D01*
X4501Y-7951D01*
X4421Y-7930D01*
X4416Y-7928D01*
X4411Y-7926D01*
X4339Y-7884D01*
X4335Y-7881D01*
X4331Y-7878D01*
X4272Y-7819D01*
X4269Y-7815D01*
X4266Y-7811D01*
X4225Y-7739D01*
X4223Y-7737D01*
X4222Y-7735D01*
X4221Y-7730D01*
X4199Y-7649D01*
X4198Y-7644D01*
X4198Y-7639D01*
D01*
Y-7639D01*
X4198Y-7598D01*
Y-6653D01*
X4198Y-6648D01*
X4199Y-6642D01*
X4201Y-6637D01*
X4203Y-6633D01*
X4206Y-6628D01*
X4209Y-6624D01*
X4213Y-6621D01*
X4218Y-6618D01*
X4222Y-6616D01*
X4227Y-6614D01*
X4233Y-6613D01*
X4238Y-6613D01*
X4868D01*
X4873Y-6613D01*
D02*
G37*
G36*
X5873D02*
X5878Y-6614D01*
X5883Y-6616D01*
X5888Y-6618D01*
X5892Y-6621D01*
X5896Y-6624D01*
X5900Y-6628D01*
X5902Y-6633D01*
X5905Y-6637D01*
X5906Y-6642D01*
X5907Y-6648D01*
X5908Y-6653D01*
Y-7598D01*
Y-7639D01*
X5907Y-7644D01*
X5906Y-7649D01*
X5885Y-7730D01*
X5883Y-7735D01*
X5881Y-7739D01*
X5839Y-7811D01*
X5837Y-7815D01*
X5833Y-7819D01*
X5774Y-7878D01*
X5771Y-7881D01*
X5766Y-7884D01*
X5694Y-7926D01*
X5692Y-7927D01*
X5690Y-7928D01*
X5685Y-7930D01*
X5605Y-7951D01*
X5599Y-7952D01*
X5594Y-7953D01*
X5511D01*
X5506Y-7952D01*
X5501Y-7951D01*
X5421Y-7930D01*
X5416Y-7928D01*
X5411Y-7926D01*
X5339Y-7884D01*
X5335Y-7881D01*
X5331Y-7878D01*
X5272Y-7819D01*
X5269Y-7815D01*
X5266Y-7811D01*
X5225Y-7739D01*
X5223Y-7737D01*
X5222Y-7735D01*
X5221Y-7730D01*
X5199Y-7649D01*
X5198Y-7644D01*
X5198Y-7639D01*
D01*
Y-7639D01*
X5198Y-7598D01*
Y-6653D01*
X5198Y-6648D01*
X5199Y-6642D01*
X5201Y-6637D01*
X5203Y-6633D01*
X5206Y-6628D01*
X5209Y-6624D01*
X5213Y-6621D01*
X5218Y-6618D01*
X5222Y-6616D01*
X5227Y-6614D01*
X5233Y-6613D01*
X5238Y-6613D01*
X5868D01*
X5873Y-6613D01*
D02*
G37*
G36*
X6873D02*
X6878Y-6614D01*
X6883Y-6616D01*
X6888Y-6618D01*
X6892Y-6621D01*
X6896Y-6624D01*
X6900Y-6628D01*
X6902Y-6633D01*
X6905Y-6637D01*
X6906Y-6642D01*
X6907Y-6648D01*
X6908Y-6653D01*
Y-7598D01*
Y-7639D01*
X6907Y-7644D01*
X6906Y-7649D01*
X6885Y-7730D01*
X6883Y-7735D01*
X6881Y-7739D01*
X6840Y-7811D01*
X6837Y-7815D01*
X6833Y-7819D01*
X6774Y-7878D01*
X6771Y-7881D01*
X6766Y-7884D01*
X6694Y-7926D01*
X6692Y-7927D01*
X6690Y-7928D01*
X6685Y-7930D01*
X6605Y-7951D01*
X6599Y-7952D01*
X6594Y-7953D01*
X6511D01*
X6506Y-7952D01*
X6501Y-7951D01*
X6421Y-7930D01*
X6416Y-7928D01*
X6411Y-7926D01*
X6339Y-7884D01*
X6335Y-7881D01*
X6331Y-7878D01*
X6272Y-7819D01*
X6269Y-7815D01*
X6266Y-7811D01*
X6225Y-7739D01*
X6223Y-7737D01*
X6222Y-7735D01*
X6221Y-7730D01*
X6199Y-7649D01*
X6198Y-7644D01*
X6198Y-7639D01*
D01*
Y-7639D01*
X6198Y-7598D01*
Y-6653D01*
X6198Y-6648D01*
X6199Y-6642D01*
X6201Y-6637D01*
X6203Y-6633D01*
X6206Y-6628D01*
X6209Y-6624D01*
X6213Y-6621D01*
X6218Y-6618D01*
X6222Y-6616D01*
X6227Y-6614D01*
X6233Y-6613D01*
X6238Y-6613D01*
X6868D01*
X6873Y-6613D01*
D02*
G37*
G36*
X7873D02*
X7878Y-6614D01*
X7883Y-6616D01*
X7888Y-6618D01*
X7892Y-6621D01*
X7896Y-6624D01*
X7900Y-6628D01*
X7902Y-6633D01*
X7905Y-6637D01*
X7906Y-6642D01*
X7907Y-6648D01*
X7908Y-6653D01*
Y-7598D01*
Y-7639D01*
X7907Y-7644D01*
X7906Y-7649D01*
X7885Y-7730D01*
X7883Y-7735D01*
X7881Y-7739D01*
X7839Y-7811D01*
X7837Y-7815D01*
X7833Y-7819D01*
X7774Y-7878D01*
X7771Y-7881D01*
X7766Y-7884D01*
X7694Y-7926D01*
X7692Y-7927D01*
X7690Y-7928D01*
X7685Y-7930D01*
X7605Y-7951D01*
X7599Y-7952D01*
X7594Y-7953D01*
X7511D01*
X7506Y-7952D01*
X7501Y-7951D01*
X7421Y-7930D01*
X7416Y-7928D01*
X7411Y-7926D01*
X7339Y-7884D01*
X7335Y-7881D01*
X7331Y-7878D01*
X7272Y-7819D01*
X7269Y-7815D01*
X7266Y-7811D01*
X7225Y-7739D01*
X7223Y-7737D01*
X7222Y-7735D01*
X7221Y-7730D01*
X7199Y-7649D01*
X7198Y-7644D01*
X7198Y-7639D01*
D01*
Y-7639D01*
X7198Y-7598D01*
Y-6653D01*
X7198Y-6648D01*
X7199Y-6642D01*
X7201Y-6637D01*
X7203Y-6633D01*
X7206Y-6628D01*
X7209Y-6624D01*
X7213Y-6621D01*
X7218Y-6618D01*
X7222Y-6616D01*
X7227Y-6614D01*
X7233Y-6613D01*
X7238Y-6613D01*
X7868D01*
X7873Y-6613D01*
D02*
G37*
G36*
X8873D02*
X8878Y-6614D01*
X8883Y-6616D01*
X8888Y-6618D01*
X8892Y-6621D01*
X8896Y-6624D01*
X8900Y-6628D01*
X8902Y-6633D01*
X8905Y-6637D01*
X8906Y-6642D01*
X8907Y-6648D01*
X8908Y-6653D01*
Y-7598D01*
Y-7639D01*
X8907Y-7644D01*
X8906Y-7649D01*
X8885Y-7730D01*
X8883Y-7735D01*
X8881Y-7739D01*
X8839Y-7811D01*
X8837Y-7815D01*
X8833Y-7819D01*
X8774Y-7878D01*
X8771Y-7881D01*
X8766Y-7884D01*
X8694Y-7926D01*
X8692Y-7927D01*
X8690Y-7928D01*
X8685Y-7930D01*
X8605Y-7951D01*
X8599Y-7952D01*
X8594Y-7953D01*
X8511D01*
X8506Y-7952D01*
X8501Y-7951D01*
X8421Y-7930D01*
X8416Y-7928D01*
X8411Y-7926D01*
X8339Y-7884D01*
X8335Y-7881D01*
X8331Y-7878D01*
X8272Y-7819D01*
X8269Y-7815D01*
X8266Y-7811D01*
X8225Y-7739D01*
X8223Y-7737D01*
X8222Y-7735D01*
X8221Y-7730D01*
X8199Y-7649D01*
X8198Y-7644D01*
X8198Y-7639D01*
D01*
Y-7639D01*
X8198Y-7598D01*
Y-6653D01*
X8198Y-6648D01*
X8199Y-6642D01*
X8201Y-6637D01*
X8203Y-6633D01*
X8206Y-6628D01*
X8209Y-6624D01*
X8213Y-6621D01*
X8218Y-6618D01*
X8222Y-6616D01*
X8227Y-6614D01*
X8233Y-6613D01*
X8238Y-6613D01*
X8868D01*
X8873Y-6613D01*
D02*
G37*
G36*
X9599Y-14245D02*
X9605Y-14246D01*
X9685Y-14267D01*
X9690Y-14269D01*
X9694Y-14271D01*
X9766Y-14312D01*
X9771Y-14315D01*
X9774Y-14319D01*
X9833Y-14377D01*
X9837Y-14381D01*
X9840Y-14386D01*
X9881Y-14458D01*
X9883Y-14462D01*
X9885Y-14467D01*
X9906Y-14547D01*
X9907Y-14553D01*
X9908Y-14558D01*
Y-14599D01*
Y-15544D01*
X9907Y-15549D01*
X9906Y-15554D01*
X9905Y-15559D01*
X9902Y-15564D01*
X9900Y-15568D01*
X9896Y-15572D01*
X9892Y-15576D01*
X9888Y-15579D01*
X9883Y-15581D01*
X9878Y-15583D01*
X9873Y-15584D01*
X9868Y-15584D01*
X9238D01*
X9233Y-15584D01*
X9227Y-15583D01*
X9222Y-15581D01*
X9218Y-15579D01*
X9213Y-15576D01*
X9209Y-15572D01*
X9206Y-15568D01*
X9203Y-15564D01*
X9201Y-15559D01*
X9199Y-15554D01*
X9198Y-15549D01*
X9198Y-15544D01*
Y-14599D01*
X9198Y-14558D01*
D01*
Y-14558D01*
X9198Y-14553D01*
X9199Y-14547D01*
X9221Y-14467D01*
X9222Y-14462D01*
X9223Y-14460D01*
X9225Y-14458D01*
X9266Y-14386D01*
X9269Y-14381D01*
X9272Y-14377D01*
X9331Y-14319D01*
X9335Y-14315D01*
X9339Y-14312D01*
X9411Y-14271D01*
X9416Y-14269D01*
X9421Y-14267D01*
X9501Y-14246D01*
X9506Y-14245D01*
X9511Y-14244D01*
X9594D01*
X9599Y-14245D01*
D02*
G37*
G36*
X10599D02*
X10605Y-14246D01*
X10685Y-14267D01*
X10690Y-14269D01*
X10694Y-14271D01*
X10766Y-14312D01*
X10771Y-14315D01*
X10774Y-14319D01*
X10833Y-14377D01*
X10837Y-14381D01*
X10840Y-14386D01*
X10881Y-14458D01*
X10883Y-14462D01*
X10885Y-14467D01*
X10906Y-14547D01*
X10907Y-14553D01*
X10908Y-14558D01*
Y-14599D01*
Y-15544D01*
X10907Y-15549D01*
X10906Y-15554D01*
X10905Y-15559D01*
X10902Y-15564D01*
X10900Y-15568D01*
X10896Y-15572D01*
X10892Y-15576D01*
X10888Y-15579D01*
X10883Y-15581D01*
X10878Y-15583D01*
X10873Y-15584D01*
X10868Y-15584D01*
X10238D01*
X10233Y-15584D01*
X10227Y-15583D01*
X10222Y-15581D01*
X10218Y-15579D01*
X10213Y-15576D01*
X10209Y-15572D01*
X10206Y-15568D01*
X10203Y-15564D01*
X10201Y-15559D01*
X10199Y-15554D01*
X10198Y-15549D01*
X10198Y-15544D01*
Y-14599D01*
X10198Y-14558D01*
D01*
Y-14558D01*
X10198Y-14553D01*
X10199Y-14547D01*
X10221Y-14467D01*
X10222Y-14462D01*
X10223Y-14460D01*
X10225Y-14458D01*
X10266Y-14386D01*
X10269Y-14381D01*
X10272Y-14377D01*
X10331Y-14319D01*
X10335Y-14315D01*
X10339Y-14312D01*
X10411Y-14271D01*
X10416Y-14269D01*
X10421Y-14267D01*
X10501Y-14246D01*
X10506Y-14245D01*
X10511Y-14244D01*
X10594D01*
X10599Y-14245D01*
D02*
G37*
G36*
X11599D02*
X11605Y-14246D01*
X11685Y-14267D01*
X11690Y-14269D01*
X11694Y-14271D01*
X11766Y-14312D01*
X11771Y-14315D01*
X11774Y-14319D01*
X11833Y-14377D01*
X11837Y-14381D01*
X11839Y-14386D01*
X11881Y-14458D01*
X11883Y-14462D01*
X11885Y-14467D01*
X11906Y-14547D01*
X11907Y-14553D01*
X11908Y-14558D01*
Y-14599D01*
Y-15544D01*
X11907Y-15549D01*
X11906Y-15554D01*
X11905Y-15559D01*
X11902Y-15564D01*
X11900Y-15568D01*
X11896Y-15572D01*
X11892Y-15576D01*
X11888Y-15579D01*
X11883Y-15581D01*
X11878Y-15583D01*
X11873Y-15584D01*
X11868Y-15584D01*
X11238D01*
X11233Y-15584D01*
X11227Y-15583D01*
X11222Y-15581D01*
X11218Y-15579D01*
X11213Y-15576D01*
X11209Y-15572D01*
X11206Y-15568D01*
X11203Y-15564D01*
X11201Y-15559D01*
X11199Y-15554D01*
X11198Y-15549D01*
X11198Y-15544D01*
Y-14599D01*
X11198Y-14558D01*
D01*
Y-14558D01*
X11198Y-14553D01*
X11199Y-14547D01*
X11221Y-14467D01*
X11222Y-14462D01*
X11223Y-14460D01*
X11225Y-14458D01*
X11266Y-14386D01*
X11269Y-14381D01*
X11272Y-14377D01*
X11331Y-14319D01*
X11335Y-14315D01*
X11339Y-14312D01*
X11411Y-14271D01*
X11416Y-14269D01*
X11421Y-14267D01*
X11501Y-14246D01*
X11506Y-14245D01*
X11511Y-14244D01*
X11594D01*
X11599Y-14245D01*
D02*
G37*
G36*
X12599D02*
X12605Y-14246D01*
X12685Y-14267D01*
X12690Y-14269D01*
X12694Y-14271D01*
X12766Y-14312D01*
X12771Y-14315D01*
X12774Y-14319D01*
X12833Y-14377D01*
X12837Y-14381D01*
X12839Y-14386D01*
X12881Y-14458D01*
X12883Y-14462D01*
X12885Y-14467D01*
X12906Y-14547D01*
X12907Y-14553D01*
X12908Y-14558D01*
Y-14599D01*
Y-15544D01*
X12907Y-15549D01*
X12906Y-15554D01*
X12905Y-15559D01*
X12902Y-15564D01*
X12900Y-15568D01*
X12896Y-15572D01*
X12892Y-15576D01*
X12888Y-15579D01*
X12883Y-15581D01*
X12878Y-15583D01*
X12873Y-15584D01*
X12868Y-15584D01*
X12238D01*
X12233Y-15584D01*
X12227Y-15583D01*
X12222Y-15581D01*
X12218Y-15579D01*
X12213Y-15576D01*
X12209Y-15572D01*
X12206Y-15568D01*
X12203Y-15564D01*
X12201Y-15559D01*
X12199Y-15554D01*
X12198Y-15549D01*
X12198Y-15544D01*
Y-14599D01*
X12198Y-14558D01*
D01*
Y-14558D01*
X12198Y-14553D01*
X12199Y-14547D01*
X12221Y-14467D01*
X12222Y-14462D01*
X12223Y-14460D01*
X12225Y-14458D01*
X12266Y-14386D01*
X12269Y-14381D01*
X12272Y-14377D01*
X12331Y-14319D01*
X12335Y-14315D01*
X12339Y-14312D01*
X12411Y-14271D01*
X12416Y-14269D01*
X12421Y-14267D01*
X12501Y-14246D01*
X12506Y-14245D01*
X12511Y-14244D01*
X12594D01*
X12599Y-14245D01*
D02*
G37*
G36*
X13599D02*
X13605Y-14246D01*
X13685Y-14267D01*
X13690Y-14269D01*
X13694Y-14271D01*
X13766Y-14312D01*
X13771Y-14315D01*
X13774Y-14319D01*
X13833Y-14377D01*
X13837Y-14381D01*
X13839Y-14386D01*
X13881Y-14458D01*
X13883Y-14462D01*
X13885Y-14467D01*
X13906Y-14547D01*
X13907Y-14553D01*
X13908Y-14558D01*
Y-14599D01*
Y-15544D01*
X13907Y-15549D01*
X13906Y-15554D01*
X13905Y-15559D01*
X13902Y-15564D01*
X13900Y-15568D01*
X13896Y-15572D01*
X13892Y-15576D01*
X13888Y-15579D01*
X13883Y-15581D01*
X13878Y-15583D01*
X13873Y-15584D01*
X13868Y-15584D01*
X13238D01*
X13233Y-15584D01*
X13227Y-15583D01*
X13222Y-15581D01*
X13218Y-15579D01*
X13213Y-15576D01*
X13209Y-15572D01*
X13206Y-15568D01*
X13203Y-15564D01*
X13201Y-15559D01*
X13199Y-15554D01*
X13198Y-15549D01*
X13198Y-15544D01*
Y-14599D01*
X13198Y-14558D01*
D01*
Y-14558D01*
X13198Y-14553D01*
X13199Y-14547D01*
X13221Y-14467D01*
X13222Y-14462D01*
X13223Y-14460D01*
X13225Y-14458D01*
X13266Y-14386D01*
X13269Y-14381D01*
X13272Y-14377D01*
X13331Y-14319D01*
X13335Y-14315D01*
X13339Y-14312D01*
X13411Y-14271D01*
X13416Y-14269D01*
X13421Y-14267D01*
X13501Y-14246D01*
X13506Y-14245D01*
X13511Y-14244D01*
X13594D01*
X13599Y-14245D01*
D02*
G37*
G36*
X9873Y-6613D02*
X9878Y-6614D01*
X9883Y-6616D01*
X9888Y-6618D01*
X9892Y-6621D01*
X9896Y-6624D01*
X9900Y-6628D01*
X9902Y-6633D01*
X9905Y-6637D01*
X9906Y-6642D01*
X9907Y-6648D01*
X9908Y-6653D01*
Y-7598D01*
Y-7639D01*
X9907Y-7644D01*
X9906Y-7649D01*
X9885Y-7730D01*
X9883Y-7735D01*
X9881Y-7739D01*
X9840Y-7811D01*
X9837Y-7815D01*
X9833Y-7819D01*
X9774Y-7878D01*
X9771Y-7881D01*
X9766Y-7884D01*
X9694Y-7926D01*
X9692Y-7927D01*
X9690Y-7928D01*
X9685Y-7930D01*
X9605Y-7951D01*
X9599Y-7952D01*
X9594Y-7953D01*
X9511D01*
X9506Y-7952D01*
X9501Y-7951D01*
X9421Y-7930D01*
X9416Y-7928D01*
X9411Y-7926D01*
X9339Y-7884D01*
X9335Y-7881D01*
X9331Y-7878D01*
X9272Y-7819D01*
X9269Y-7815D01*
X9266Y-7811D01*
X9225Y-7739D01*
X9223Y-7737D01*
X9222Y-7735D01*
X9221Y-7730D01*
X9199Y-7649D01*
X9198Y-7644D01*
X9198Y-7639D01*
D01*
Y-7639D01*
X9198Y-7598D01*
Y-6653D01*
X9198Y-6648D01*
X9199Y-6642D01*
X9201Y-6637D01*
X9203Y-6633D01*
X9206Y-6628D01*
X9209Y-6624D01*
X9213Y-6621D01*
X9218Y-6618D01*
X9222Y-6616D01*
X9227Y-6614D01*
X9233Y-6613D01*
X9238Y-6613D01*
X9868D01*
X9873Y-6613D01*
D02*
G37*
G36*
X10873D02*
X10878Y-6614D01*
X10883Y-6616D01*
X10888Y-6618D01*
X10892Y-6621D01*
X10896Y-6624D01*
X10900Y-6628D01*
X10902Y-6633D01*
X10905Y-6637D01*
X10906Y-6642D01*
X10907Y-6648D01*
X10908Y-6653D01*
Y-7598D01*
Y-7639D01*
X10907Y-7644D01*
X10906Y-7649D01*
X10885Y-7730D01*
X10883Y-7735D01*
X10881Y-7739D01*
X10840Y-7811D01*
X10837Y-7815D01*
X10833Y-7819D01*
X10774Y-7878D01*
X10771Y-7881D01*
X10766Y-7884D01*
X10694Y-7926D01*
X10692Y-7927D01*
X10690Y-7928D01*
X10685Y-7930D01*
X10605Y-7951D01*
X10599Y-7952D01*
X10594Y-7953D01*
X10511D01*
X10506Y-7952D01*
X10501Y-7951D01*
X10421Y-7930D01*
X10416Y-7928D01*
X10411Y-7926D01*
X10339Y-7884D01*
X10335Y-7881D01*
X10331Y-7878D01*
X10272Y-7819D01*
X10269Y-7815D01*
X10266Y-7811D01*
X10225Y-7739D01*
X10223Y-7737D01*
X10222Y-7735D01*
X10221Y-7730D01*
X10199Y-7649D01*
X10198Y-7644D01*
X10198Y-7639D01*
D01*
Y-7639D01*
X10198Y-7598D01*
Y-6653D01*
X10198Y-6648D01*
X10199Y-6642D01*
X10201Y-6637D01*
X10203Y-6633D01*
X10206Y-6628D01*
X10209Y-6624D01*
X10213Y-6621D01*
X10218Y-6618D01*
X10222Y-6616D01*
X10227Y-6614D01*
X10233Y-6613D01*
X10238Y-6613D01*
X10868D01*
X10873Y-6613D01*
D02*
G37*
G36*
X11873D02*
X11878Y-6614D01*
X11883Y-6616D01*
X11888Y-6618D01*
X11892Y-6621D01*
X11896Y-6624D01*
X11900Y-6628D01*
X11902Y-6633D01*
X11905Y-6637D01*
X11906Y-6642D01*
X11907Y-6648D01*
X11908Y-6653D01*
Y-7598D01*
Y-7639D01*
X11907Y-7644D01*
X11906Y-7649D01*
X11885Y-7730D01*
X11883Y-7735D01*
X11881Y-7739D01*
X11839Y-7811D01*
X11837Y-7815D01*
X11833Y-7819D01*
X11774Y-7878D01*
X11771Y-7881D01*
X11766Y-7884D01*
X11694Y-7926D01*
X11692Y-7927D01*
X11690Y-7928D01*
X11685Y-7930D01*
X11605Y-7951D01*
X11599Y-7952D01*
X11594Y-7953D01*
X11511D01*
X11506Y-7952D01*
X11501Y-7951D01*
X11421Y-7930D01*
X11416Y-7928D01*
X11411Y-7926D01*
X11339Y-7884D01*
X11335Y-7881D01*
X11331Y-7878D01*
X11272Y-7819D01*
X11269Y-7815D01*
X11266Y-7811D01*
X11225Y-7739D01*
X11223Y-7737D01*
X11222Y-7735D01*
X11221Y-7730D01*
X11199Y-7649D01*
X11198Y-7644D01*
X11198Y-7639D01*
D01*
Y-7639D01*
X11198Y-7598D01*
Y-6653D01*
X11198Y-6648D01*
X11199Y-6642D01*
X11201Y-6637D01*
X11203Y-6633D01*
X11206Y-6628D01*
X11209Y-6624D01*
X11213Y-6621D01*
X11218Y-6618D01*
X11222Y-6616D01*
X11227Y-6614D01*
X11233Y-6613D01*
X11238Y-6613D01*
X11868D01*
X11873Y-6613D01*
D02*
G37*
G36*
X12873D02*
X12878Y-6614D01*
X12883Y-6616D01*
X12888Y-6618D01*
X12892Y-6621D01*
X12896Y-6624D01*
X12900Y-6628D01*
X12902Y-6633D01*
X12905Y-6637D01*
X12906Y-6642D01*
X12907Y-6648D01*
X12908Y-6653D01*
Y-7598D01*
Y-7639D01*
X12907Y-7644D01*
X12906Y-7649D01*
X12885Y-7730D01*
X12883Y-7735D01*
X12881Y-7739D01*
X12839Y-7811D01*
X12837Y-7815D01*
X12833Y-7819D01*
X12774Y-7878D01*
X12771Y-7881D01*
X12766Y-7884D01*
X12694Y-7926D01*
X12692Y-7927D01*
X12690Y-7928D01*
X12685Y-7930D01*
X12605Y-7951D01*
X12599Y-7952D01*
X12594Y-7953D01*
X12511D01*
X12506Y-7952D01*
X12501Y-7951D01*
X12421Y-7930D01*
X12416Y-7928D01*
X12411Y-7926D01*
X12339Y-7884D01*
X12335Y-7881D01*
X12331Y-7878D01*
X12272Y-7819D01*
X12269Y-7815D01*
X12266Y-7811D01*
X12225Y-7739D01*
X12223Y-7737D01*
X12222Y-7735D01*
X12221Y-7730D01*
X12199Y-7649D01*
X12198Y-7644D01*
X12198Y-7639D01*
D01*
Y-7639D01*
X12198Y-7598D01*
Y-6653D01*
X12198Y-6648D01*
X12199Y-6642D01*
X12201Y-6637D01*
X12203Y-6633D01*
X12206Y-6628D01*
X12209Y-6624D01*
X12213Y-6621D01*
X12218Y-6618D01*
X12222Y-6616D01*
X12227Y-6614D01*
X12233Y-6613D01*
X12238Y-6613D01*
X12868D01*
X12873Y-6613D01*
D02*
G37*
G36*
X13873D02*
X13878Y-6614D01*
X13883Y-6616D01*
X13888Y-6618D01*
X13892Y-6621D01*
X13896Y-6624D01*
X13900Y-6628D01*
X13902Y-6633D01*
X13905Y-6637D01*
X13906Y-6642D01*
X13907Y-6648D01*
X13908Y-6653D01*
Y-7598D01*
Y-7639D01*
X13907Y-7644D01*
X13906Y-7649D01*
X13885Y-7730D01*
X13883Y-7735D01*
X13881Y-7739D01*
X13839Y-7811D01*
X13837Y-7815D01*
X13833Y-7819D01*
X13774Y-7878D01*
X13771Y-7881D01*
X13766Y-7884D01*
X13694Y-7926D01*
X13692Y-7927D01*
X13690Y-7928D01*
X13685Y-7930D01*
X13605Y-7951D01*
X13599Y-7952D01*
X13594Y-7953D01*
X13511D01*
X13506Y-7952D01*
X13501Y-7951D01*
X13421Y-7930D01*
X13416Y-7928D01*
X13411Y-7926D01*
X13339Y-7884D01*
X13335Y-7881D01*
X13331Y-7878D01*
X13272Y-7819D01*
X13269Y-7815D01*
X13266Y-7811D01*
X13225Y-7739D01*
X13223Y-7737D01*
X13222Y-7735D01*
X13221Y-7730D01*
X13199Y-7649D01*
X13198Y-7644D01*
X13198Y-7639D01*
D01*
Y-7639D01*
X13198Y-7598D01*
Y-6653D01*
X13198Y-6648D01*
X13199Y-6642D01*
X13201Y-6637D01*
X13203Y-6633D01*
X13206Y-6628D01*
X13209Y-6624D01*
X13213Y-6621D01*
X13218Y-6618D01*
X13222Y-6616D01*
X13227Y-6614D01*
X13233Y-6613D01*
X13238Y-6613D01*
X13868D01*
X13873Y-6613D01*
D02*
G37*
G36*
X14599Y-14245D02*
X14605Y-14246D01*
X14685Y-14267D01*
X14690Y-14269D01*
X14694Y-14271D01*
X14766Y-14312D01*
X14771Y-14315D01*
X14774Y-14319D01*
X14833Y-14377D01*
X14837Y-14381D01*
X14840Y-14386D01*
X14881Y-14458D01*
X14883Y-14462D01*
X14885Y-14467D01*
X14906Y-14547D01*
X14907Y-14553D01*
X14908Y-14558D01*
Y-14599D01*
Y-15544D01*
X14907Y-15549D01*
X14906Y-15554D01*
X14905Y-15559D01*
X14902Y-15564D01*
X14900Y-15568D01*
X14896Y-15572D01*
X14892Y-15576D01*
X14888Y-15579D01*
X14883Y-15581D01*
X14878Y-15583D01*
X14873Y-15584D01*
X14868Y-15584D01*
X14238D01*
X14233Y-15584D01*
X14227Y-15583D01*
X14222Y-15581D01*
X14218Y-15579D01*
X14213Y-15576D01*
X14209Y-15572D01*
X14206Y-15568D01*
X14203Y-15564D01*
X14201Y-15559D01*
X14199Y-15554D01*
X14198Y-15549D01*
X14198Y-15544D01*
Y-14599D01*
X14198Y-14558D01*
D01*
Y-14558D01*
X14198Y-14553D01*
X14199Y-14547D01*
X14221Y-14467D01*
X14222Y-14462D01*
X14223Y-14460D01*
X14225Y-14458D01*
X14266Y-14386D01*
X14269Y-14381D01*
X14272Y-14377D01*
X14331Y-14319D01*
X14335Y-14315D01*
X14339Y-14312D01*
X14411Y-14271D01*
X14416Y-14269D01*
X14421Y-14267D01*
X14501Y-14246D01*
X14506Y-14245D01*
X14511Y-14244D01*
X14594D01*
X14599Y-14245D01*
D02*
G37*
G36*
X15599D02*
X15605Y-14246D01*
X15685Y-14267D01*
X15690Y-14269D01*
X15694Y-14271D01*
X15766Y-14312D01*
X15771Y-14315D01*
X15774Y-14319D01*
X15833Y-14377D01*
X15837Y-14381D01*
X15840Y-14386D01*
X15881Y-14458D01*
X15883Y-14462D01*
X15885Y-14467D01*
X15906Y-14547D01*
X15907Y-14553D01*
X15908Y-14558D01*
Y-14599D01*
Y-15544D01*
X15907Y-15549D01*
X15906Y-15554D01*
X15905Y-15559D01*
X15902Y-15564D01*
X15900Y-15568D01*
X15896Y-15572D01*
X15892Y-15576D01*
X15888Y-15579D01*
X15883Y-15581D01*
X15878Y-15583D01*
X15873Y-15584D01*
X15868Y-15584D01*
X15238D01*
X15233Y-15584D01*
X15227Y-15583D01*
X15222Y-15581D01*
X15218Y-15579D01*
X15213Y-15576D01*
X15209Y-15572D01*
X15206Y-15568D01*
X15203Y-15564D01*
X15201Y-15559D01*
X15199Y-15554D01*
X15198Y-15549D01*
X15198Y-15544D01*
Y-14599D01*
X15198Y-14558D01*
D01*
Y-14558D01*
X15198Y-14553D01*
X15199Y-14547D01*
X15221Y-14467D01*
X15222Y-14462D01*
X15223Y-14460D01*
X15225Y-14458D01*
X15266Y-14386D01*
X15269Y-14381D01*
X15272Y-14377D01*
X15331Y-14319D01*
X15335Y-14315D01*
X15339Y-14312D01*
X15411Y-14271D01*
X15416Y-14269D01*
X15421Y-14267D01*
X15501Y-14246D01*
X15506Y-14245D01*
X15511Y-14244D01*
X15594D01*
X15599Y-14245D01*
D02*
G37*
G36*
X16599D02*
X16605Y-14246D01*
X16685Y-14267D01*
X16690Y-14269D01*
X16694Y-14271D01*
X16766Y-14312D01*
X16771Y-14315D01*
X16774Y-14319D01*
X16833Y-14377D01*
X16837Y-14381D01*
X16839Y-14386D01*
X16881Y-14458D01*
X16883Y-14462D01*
X16885Y-14467D01*
X16906Y-14547D01*
X16907Y-14553D01*
X16908Y-14558D01*
Y-14599D01*
Y-15544D01*
X16907Y-15549D01*
X16906Y-15554D01*
X16905Y-15559D01*
X16902Y-15564D01*
X16900Y-15568D01*
X16896Y-15572D01*
X16892Y-15576D01*
X16888Y-15579D01*
X16883Y-15581D01*
X16878Y-15583D01*
X16873Y-15584D01*
X16868Y-15584D01*
X16238D01*
X16233Y-15584D01*
X16227Y-15583D01*
X16222Y-15581D01*
X16218Y-15579D01*
X16213Y-15576D01*
X16209Y-15572D01*
X16206Y-15568D01*
X16203Y-15564D01*
X16201Y-15559D01*
X16199Y-15554D01*
X16198Y-15549D01*
X16198Y-15544D01*
Y-14599D01*
X16198Y-14558D01*
D01*
Y-14558D01*
X16198Y-14553D01*
X16199Y-14547D01*
X16221Y-14467D01*
X16222Y-14462D01*
X16223Y-14460D01*
X16225Y-14458D01*
X16266Y-14386D01*
X16269Y-14381D01*
X16272Y-14377D01*
X16331Y-14319D01*
X16335Y-14315D01*
X16339Y-14312D01*
X16411Y-14271D01*
X16416Y-14269D01*
X16421Y-14267D01*
X16501Y-14246D01*
X16506Y-14245D01*
X16511Y-14244D01*
X16594D01*
X16599Y-14245D01*
D02*
G37*
G36*
X17599D02*
X17605Y-14246D01*
X17685Y-14267D01*
X17690Y-14269D01*
X17694Y-14271D01*
X17766Y-14312D01*
X17771Y-14315D01*
X17774Y-14319D01*
X17833Y-14377D01*
X17837Y-14381D01*
X17839Y-14386D01*
X17881Y-14458D01*
X17883Y-14462D01*
X17885Y-14467D01*
X17906Y-14547D01*
X17907Y-14553D01*
X17908Y-14558D01*
Y-14599D01*
Y-15544D01*
X17907Y-15549D01*
X17906Y-15554D01*
X17905Y-15559D01*
X17902Y-15564D01*
X17900Y-15568D01*
X17896Y-15572D01*
X17892Y-15576D01*
X17888Y-15579D01*
X17883Y-15581D01*
X17878Y-15583D01*
X17873Y-15584D01*
X17868Y-15584D01*
X17238D01*
X17233Y-15584D01*
X17227Y-15583D01*
X17222Y-15581D01*
X17218Y-15579D01*
X17213Y-15576D01*
X17209Y-15572D01*
X17206Y-15568D01*
X17203Y-15564D01*
X17201Y-15559D01*
X17199Y-15554D01*
X17198Y-15549D01*
X17198Y-15544D01*
Y-14599D01*
X17198Y-14558D01*
D01*
Y-14558D01*
X17198Y-14553D01*
X17199Y-14547D01*
X17221Y-14467D01*
X17222Y-14462D01*
X17223Y-14460D01*
X17225Y-14458D01*
X17266Y-14386D01*
X17269Y-14381D01*
X17272Y-14377D01*
X17331Y-14319D01*
X17335Y-14315D01*
X17339Y-14312D01*
X17411Y-14271D01*
X17416Y-14269D01*
X17421Y-14267D01*
X17501Y-14246D01*
X17506Y-14245D01*
X17511Y-14244D01*
X17594D01*
X17599Y-14245D01*
D02*
G37*
G36*
X18599D02*
X18605Y-14246D01*
X18685Y-14267D01*
X18690Y-14269D01*
X18694Y-14271D01*
X18766Y-14312D01*
X18771Y-14315D01*
X18774Y-14319D01*
X18833Y-14377D01*
X18837Y-14381D01*
X18839Y-14386D01*
X18881Y-14458D01*
X18883Y-14462D01*
X18885Y-14467D01*
X18906Y-14547D01*
X18907Y-14553D01*
X18908Y-14558D01*
Y-14599D01*
Y-15544D01*
X18907Y-15549D01*
X18906Y-15554D01*
X18905Y-15559D01*
X18902Y-15564D01*
X18900Y-15568D01*
X18896Y-15572D01*
X18892Y-15576D01*
X18888Y-15579D01*
X18883Y-15581D01*
X18878Y-15583D01*
X18873Y-15584D01*
X18868Y-15584D01*
X18238D01*
X18233Y-15584D01*
X18227Y-15583D01*
X18222Y-15581D01*
X18218Y-15579D01*
X18213Y-15576D01*
X18209Y-15572D01*
X18206Y-15568D01*
X18203Y-15564D01*
X18201Y-15559D01*
X18199Y-15554D01*
X18198Y-15549D01*
X18198Y-15544D01*
Y-14599D01*
X18198Y-14558D01*
D01*
Y-14558D01*
X18198Y-14553D01*
X18199Y-14547D01*
X18221Y-14467D01*
X18222Y-14462D01*
X18223Y-14460D01*
X18225Y-14458D01*
X18266Y-14386D01*
X18269Y-14381D01*
X18272Y-14377D01*
X18331Y-14319D01*
X18335Y-14315D01*
X18339Y-14312D01*
X18411Y-14271D01*
X18416Y-14269D01*
X18421Y-14267D01*
X18501Y-14246D01*
X18506Y-14245D01*
X18511Y-14244D01*
X18594D01*
X18599Y-14245D01*
D02*
G37*
G36*
X14873Y-6613D02*
X14878Y-6614D01*
X14883Y-6616D01*
X14888Y-6618D01*
X14892Y-6621D01*
X14896Y-6624D01*
X14900Y-6628D01*
X14902Y-6633D01*
X14905Y-6637D01*
X14906Y-6642D01*
X14907Y-6648D01*
X14908Y-6653D01*
Y-7598D01*
Y-7639D01*
X14907Y-7644D01*
X14906Y-7649D01*
X14885Y-7730D01*
X14883Y-7735D01*
X14881Y-7739D01*
X14840Y-7811D01*
X14837Y-7815D01*
X14833Y-7819D01*
X14774Y-7878D01*
X14771Y-7881D01*
X14766Y-7884D01*
X14694Y-7926D01*
X14692Y-7927D01*
X14690Y-7928D01*
X14685Y-7930D01*
X14605Y-7951D01*
X14599Y-7952D01*
X14594Y-7953D01*
X14511D01*
X14506Y-7952D01*
X14501Y-7951D01*
X14421Y-7930D01*
X14416Y-7928D01*
X14411Y-7926D01*
X14339Y-7884D01*
X14335Y-7881D01*
X14331Y-7878D01*
X14272Y-7819D01*
X14269Y-7815D01*
X14266Y-7811D01*
X14225Y-7739D01*
X14223Y-7737D01*
X14222Y-7735D01*
X14221Y-7730D01*
X14199Y-7649D01*
X14198Y-7644D01*
X14198Y-7639D01*
D01*
Y-7639D01*
X14198Y-7598D01*
Y-6653D01*
X14198Y-6648D01*
X14199Y-6642D01*
X14201Y-6637D01*
X14203Y-6633D01*
X14206Y-6628D01*
X14209Y-6624D01*
X14213Y-6621D01*
X14218Y-6618D01*
X14222Y-6616D01*
X14227Y-6614D01*
X14233Y-6613D01*
X14238Y-6613D01*
X14868D01*
X14873Y-6613D01*
D02*
G37*
G36*
X15873D02*
X15878Y-6614D01*
X15883Y-6616D01*
X15888Y-6618D01*
X15892Y-6621D01*
X15896Y-6624D01*
X15900Y-6628D01*
X15902Y-6633D01*
X15905Y-6637D01*
X15906Y-6642D01*
X15907Y-6648D01*
X15908Y-6653D01*
Y-7598D01*
Y-7639D01*
X15907Y-7644D01*
X15906Y-7649D01*
X15885Y-7730D01*
X15883Y-7735D01*
X15881Y-7739D01*
X15840Y-7811D01*
X15837Y-7815D01*
X15833Y-7819D01*
X15774Y-7878D01*
X15771Y-7881D01*
X15766Y-7884D01*
X15694Y-7926D01*
X15692Y-7927D01*
X15690Y-7928D01*
X15685Y-7930D01*
X15605Y-7951D01*
X15599Y-7952D01*
X15594Y-7953D01*
X15511D01*
X15506Y-7952D01*
X15501Y-7951D01*
X15421Y-7930D01*
X15416Y-7928D01*
X15411Y-7926D01*
X15339Y-7884D01*
X15335Y-7881D01*
X15331Y-7878D01*
X15272Y-7819D01*
X15269Y-7815D01*
X15266Y-7811D01*
X15225Y-7739D01*
X15223Y-7737D01*
X15222Y-7735D01*
X15221Y-7730D01*
X15199Y-7649D01*
X15198Y-7644D01*
X15198Y-7639D01*
D01*
Y-7639D01*
X15198Y-7598D01*
Y-6653D01*
X15198Y-6648D01*
X15199Y-6642D01*
X15201Y-6637D01*
X15203Y-6633D01*
X15206Y-6628D01*
X15209Y-6624D01*
X15213Y-6621D01*
X15218Y-6618D01*
X15222Y-6616D01*
X15227Y-6614D01*
X15233Y-6613D01*
X15238Y-6613D01*
X15868D01*
X15873Y-6613D01*
D02*
G37*
G36*
X16873D02*
X16878Y-6614D01*
X16883Y-6616D01*
X16888Y-6618D01*
X16892Y-6621D01*
X16896Y-6624D01*
X16900Y-6628D01*
X16902Y-6633D01*
X16905Y-6637D01*
X16906Y-6642D01*
X16907Y-6648D01*
X16908Y-6653D01*
Y-7598D01*
Y-7639D01*
X16907Y-7644D01*
X16906Y-7649D01*
X16885Y-7730D01*
X16883Y-7735D01*
X16881Y-7739D01*
X16839Y-7811D01*
X16837Y-7815D01*
X16833Y-7819D01*
X16774Y-7878D01*
X16771Y-7881D01*
X16766Y-7884D01*
X16694Y-7926D01*
X16692Y-7927D01*
X16690Y-7928D01*
X16685Y-7930D01*
X16605Y-7951D01*
X16599Y-7952D01*
X16594Y-7953D01*
X16511D01*
X16506Y-7952D01*
X16501Y-7951D01*
X16421Y-7930D01*
X16416Y-7928D01*
X16411Y-7926D01*
X16339Y-7884D01*
X16335Y-7881D01*
X16331Y-7878D01*
X16272Y-7819D01*
X16269Y-7815D01*
X16266Y-7811D01*
X16225Y-7739D01*
X16223Y-7737D01*
X16222Y-7735D01*
X16221Y-7730D01*
X16199Y-7649D01*
X16198Y-7644D01*
X16198Y-7639D01*
D01*
Y-7639D01*
X16198Y-7598D01*
Y-6653D01*
X16198Y-6648D01*
X16199Y-6642D01*
X16201Y-6637D01*
X16203Y-6633D01*
X16206Y-6628D01*
X16209Y-6624D01*
X16213Y-6621D01*
X16218Y-6618D01*
X16222Y-6616D01*
X16227Y-6614D01*
X16233Y-6613D01*
X16238Y-6613D01*
X16868D01*
X16873Y-6613D01*
D02*
G37*
G36*
X17873D02*
X17878Y-6614D01*
X17883Y-6616D01*
X17888Y-6618D01*
X17892Y-6621D01*
X17896Y-6624D01*
X17900Y-6628D01*
X17902Y-6633D01*
X17905Y-6637D01*
X17906Y-6642D01*
X17907Y-6648D01*
X17908Y-6653D01*
Y-7598D01*
Y-7639D01*
X17907Y-7644D01*
X17906Y-7649D01*
X17885Y-7730D01*
X17883Y-7735D01*
X17881Y-7739D01*
X17839Y-7811D01*
X17837Y-7815D01*
X17833Y-7819D01*
X17774Y-7878D01*
X17771Y-7881D01*
X17766Y-7884D01*
X17694Y-7926D01*
X17692Y-7927D01*
X17690Y-7928D01*
X17685Y-7930D01*
X17605Y-7951D01*
X17599Y-7952D01*
X17594Y-7953D01*
X17511D01*
X17506Y-7952D01*
X17501Y-7951D01*
X17421Y-7930D01*
X17416Y-7928D01*
X17411Y-7926D01*
X17339Y-7884D01*
X17335Y-7881D01*
X17331Y-7878D01*
X17272Y-7819D01*
X17269Y-7815D01*
X17266Y-7811D01*
X17225Y-7739D01*
X17223Y-7737D01*
X17222Y-7735D01*
X17221Y-7730D01*
X17199Y-7649D01*
X17198Y-7644D01*
X17198Y-7639D01*
D01*
Y-7639D01*
X17198Y-7598D01*
Y-6653D01*
X17198Y-6648D01*
X17199Y-6642D01*
X17201Y-6637D01*
X17203Y-6633D01*
X17206Y-6628D01*
X17209Y-6624D01*
X17213Y-6621D01*
X17218Y-6618D01*
X17222Y-6616D01*
X17227Y-6614D01*
X17233Y-6613D01*
X17238Y-6613D01*
X17868D01*
X17873Y-6613D01*
D02*
G37*
G36*
X18873D02*
X18878Y-6614D01*
X18883Y-6616D01*
X18888Y-6618D01*
X18892Y-6621D01*
X18896Y-6624D01*
X18900Y-6628D01*
X18902Y-6633D01*
X18905Y-6637D01*
X18906Y-6642D01*
X18907Y-6648D01*
X18908Y-6653D01*
Y-7598D01*
Y-7639D01*
X18907Y-7644D01*
X18906Y-7649D01*
X18885Y-7730D01*
X18883Y-7735D01*
X18881Y-7739D01*
X18839Y-7811D01*
X18837Y-7815D01*
X18833Y-7819D01*
X18774Y-7878D01*
X18771Y-7881D01*
X18766Y-7884D01*
X18694Y-7926D01*
X18692Y-7927D01*
X18690Y-7928D01*
X18685Y-7930D01*
X18605Y-7951D01*
X18599Y-7952D01*
X18594Y-7953D01*
X18511D01*
X18506Y-7952D01*
X18501Y-7951D01*
X18421Y-7930D01*
X18416Y-7928D01*
X18411Y-7926D01*
X18339Y-7884D01*
X18335Y-7881D01*
X18331Y-7878D01*
X18272Y-7819D01*
X18269Y-7815D01*
X18266Y-7811D01*
X18225Y-7739D01*
X18223Y-7737D01*
X18222Y-7735D01*
X18221Y-7730D01*
X18199Y-7649D01*
X18198Y-7644D01*
X18198Y-7639D01*
D01*
Y-7639D01*
X18198Y-7598D01*
Y-6653D01*
X18198Y-6648D01*
X18199Y-6642D01*
X18201Y-6637D01*
X18203Y-6633D01*
X18206Y-6628D01*
X18209Y-6624D01*
X18213Y-6621D01*
X18218Y-6618D01*
X18222Y-6616D01*
X18227Y-6614D01*
X18233Y-6613D01*
X18238Y-6613D01*
X18868D01*
X18873Y-6613D01*
D02*
G37*
D14*
X20665Y-27162D02*
G03*
X21237Y-26590I0J572D01*
G01*
X21237Y1276D02*
G03*
X20853Y1660I-384J0D01*
G01*
X-1112Y1663D02*
G03*
X-1575Y1200I0J-463D01*
G01*
X-1575Y-26702D02*
G03*
X-1112Y-27165I463J0D01*
G01*
X21237Y-26590D02*
X21237Y1276D01*
X20299Y1693D02*
X20345Y1739D01*
X-1112Y1663D02*
X20853D01*
X-1113Y-27165D02*
X20665Y-27165D01*
X-1575Y1200D02*
X-1575Y-26702D01*
D27*
X9902Y-21417D02*
D03*
X9075Y-21791D02*
D03*
D28*
Y-21043D02*
D03*
D29*
X6260Y-21112D02*
D03*
X6620Y-21802D02*
D03*
D30*
X5900D02*
D03*
D33*
X9977Y544D02*
G03*
X9977Y544I-261J0D01*
G01*
D34*
X18559Y-7185D02*
D03*
X17559D02*
D03*
X16559D02*
D03*
X15559D02*
D03*
X11559D02*
D03*
X9559D02*
D03*
X6559D02*
D03*
X3559D02*
D03*
X2559D02*
D03*
X1559D02*
D03*
X-441D02*
D03*
X5559Y-15012D02*
D03*
X6559D02*
D03*
X7559D02*
D03*
X8559D02*
D03*
X9559D02*
D03*
X10559D02*
D03*
X11559D02*
D03*
X12559D02*
D03*
X13559D02*
D03*
X14559D02*
D03*
X15559D02*
D03*
X16559D02*
D03*
X17559D02*
D03*
X18559D02*
D03*
X8559Y-7185D02*
D03*
X12559D02*
D03*
X2559Y-15012D02*
D03*
X4559Y-7185D02*
D03*
X10559D02*
D03*
X13559D02*
D03*
X14559D02*
D03*
X559Y-15012D02*
D03*
X4559D02*
D03*
X7559Y-7185D02*
D03*
X3559Y-15012D02*
D03*
X5559Y-7185D02*
D03*
X559D02*
D03*
X-441Y-15012D02*
D03*
D35*
X1559Y-14913D02*
D03*
D36*
X7500Y-21947D02*
D03*
X8248D02*
D03*
Y-20967D02*
D03*
X7874D02*
D03*
X7500D02*
D03*
X7874Y-21947D02*
D03*
D37*
X16378Y-21467D02*
D03*
Y-20423D02*
D03*
X14961D02*
D03*
Y-21467D02*
D03*
D38*
X9094Y-23677D02*
D03*
Y-22386D02*
D03*
D39*
X9362Y51D02*
D03*
Y-273D02*
D03*
X9717D02*
D03*
X10071D02*
D03*
Y51D02*
D03*
D40*
X8575Y-248D02*
D03*
X2673Y-4051D02*
D03*
X8575Y382D02*
D03*
X2673Y-3421D02*
D03*
D41*
X3293Y-5512D02*
D03*
X9835Y-1114D02*
D03*
X2663Y-4767D02*
D03*
Y-5512D02*
D03*
X10465Y-1114D02*
D03*
X3293Y-4767D02*
D03*
D42*
X6149Y-23720D02*
D03*
X6504D02*
D03*
D43*
X7717D02*
D03*
X7377D02*
D03*
D44*
X8268Y-22520D02*
D03*
D45*
X19055Y-19488D02*
D03*
Y-21457D02*
D03*
D46*
X-787Y-4724D02*
D03*
Y-2953D02*
D03*
D47*
X1772Y-20079D02*
D03*
X4134D02*
D03*
X2953Y-21929D02*
D03*
D48*
X19685Y-25591D02*
D03*
Y0D02*
D03*
X0D02*
D03*
Y-25591D02*
D03*
D49*
X138Y-5217D02*
D03*
Y-2461D02*
D03*
D50*
X9717Y544D02*
D03*
M02*
