G04*
G04 #@! TF.GenerationSoftware,Altium Limited,Altium Designer,25.8.1 (18)*
G04*
G04 Layer_Color=128*
%FSLAX24Y24*%
%MOIN*%
G70*
G04*
G04 #@! TF.SameCoordinates,E7C4B6EF-679D-40F3-B346-0123BADFF20E*
G04*
G04*
G04 #@! TF.FilePolarity,Positive*
G04*
G01*
G75*
%ADD13C,0.0100*%
%ADD17C,0.0039*%
%ADD58C,0.0020*%
D13*
X30787Y-1571D02*
G03*
X31359Y-999I0J572D01*
G01*
X31359Y26866D02*
G03*
X30975Y27250I-384J0D01*
G01*
X-1112Y27254D02*
G03*
X-1575Y26791I0J-463D01*
G01*
X-1575Y-1112D02*
G03*
X-1112Y-1575I463J0D01*
G01*
X31359Y-999D02*
X31359Y26866D01*
X30906Y27254D02*
X30975Y27250D01*
X-1112Y27254D02*
X30906Y27254D01*
X-1113Y-1575D02*
X30787Y-1575D01*
X-1575Y26791D02*
X-1575Y-1112D01*
D17*
X20669Y8858D02*
X26083D01*
X20669D02*
Y17717D01*
X26083Y8858D02*
Y17717D01*
X20669D02*
X26083D01*
D58*
X29350Y1189D02*
X29744D01*
X29547Y992D02*
Y1386D01*
X29350Y2189D02*
X29744D01*
X29547Y1992D02*
Y2386D01*
X29350Y3189D02*
X29744D01*
X29547Y2992D02*
Y3386D01*
X29350Y4189D02*
X29744D01*
X29547Y3992D02*
Y4386D01*
X29350Y5189D02*
X29744D01*
X29547Y4992D02*
Y5386D01*
X29350Y6189D02*
X29744D01*
X29547Y5992D02*
Y6386D01*
X29350Y7189D02*
X29744D01*
X29547Y6992D02*
Y7386D01*
X29350Y8189D02*
X29744D01*
X29547Y7992D02*
Y8386D01*
X28350Y1189D02*
X28744D01*
X28547Y992D02*
Y1386D01*
X28350Y2189D02*
X28744D01*
X28547Y1992D02*
Y2386D01*
X28350Y3189D02*
X28744D01*
X28547Y2992D02*
Y3386D01*
X28350Y4189D02*
X28744D01*
X28547Y3992D02*
Y4386D01*
X28350Y5189D02*
X28744D01*
X28547Y4992D02*
Y5386D01*
X28350Y6189D02*
X28744D01*
X28547Y5992D02*
Y6386D01*
X28350Y7189D02*
X28744D01*
X28547Y6992D02*
Y7386D01*
X28350Y8189D02*
X28744D01*
X28547Y7992D02*
Y8386D01*
X29114Y20118D02*
X29705D01*
X29409Y19823D02*
Y20413D01*
X29114Y15472D02*
X29705D01*
X29409Y15177D02*
Y15768D01*
X3740Y5512D02*
X4528D01*
X4134Y5118D02*
Y5906D01*
X29114Y22087D02*
X29705D01*
X29409Y21791D02*
Y22382D01*
X19055Y0D02*
X20315D01*
X19685Y-630D02*
Y630D01*
X28898Y25591D02*
X30157D01*
X29528Y24961D02*
Y26220D01*
X-630Y25591D02*
X630D01*
X0Y24961D02*
Y26220D01*
X-630Y0D02*
X630D01*
X0Y-630D02*
Y630D01*
X29114Y17441D02*
X29705D01*
X29409Y17146D02*
Y17736D01*
X2559Y3661D02*
X3346D01*
X2953Y3268D02*
Y4055D01*
X1378Y5512D02*
X2165D01*
X1772Y5118D02*
Y5906D01*
X-984Y22638D02*
X-591D01*
X-787Y22441D02*
Y22835D01*
X-984Y20866D02*
X-591D01*
X-787Y20669D02*
Y21063D01*
X-118Y20374D02*
X394D01*
X138Y20118D02*
Y20630D01*
X-118Y23130D02*
X394D01*
X138Y22874D02*
Y23386D01*
X15256Y26343D02*
X15453D01*
X15354Y26244D02*
Y26441D01*
X28627Y23725D02*
X28725D01*
X28676Y23676D02*
Y23775D01*
X29877Y21225D02*
X29975D01*
X29926Y21176D02*
Y21275D01*
X28627Y18725D02*
X28725D01*
X28676Y18676D02*
Y18775D01*
X29877Y16225D02*
X29975D01*
X29926Y16176D02*
Y16275D01*
X28627Y13725D02*
X28725D01*
X28676Y13676D02*
Y13775D01*
X29877Y11225D02*
X29975D01*
X29926Y11176D02*
Y11275D01*
X28627Y8725D02*
X28725D01*
X28676Y8676D02*
Y8775D01*
X28627Y-1275D02*
X28725D01*
X28676Y-1324D02*
Y-1225D01*
X26127Y23725D02*
X26225D01*
X26176Y23676D02*
Y23775D01*
X27377Y21225D02*
X27475D01*
X27426Y21176D02*
Y21275D01*
X27377Y16225D02*
X27475D01*
X27426Y16176D02*
Y16275D01*
X27377Y11225D02*
X27475D01*
X27426Y11176D02*
Y11275D01*
X26127Y8725D02*
X26225D01*
X26176Y8676D02*
Y8775D01*
X26127Y3725D02*
X26225D01*
X26176Y3676D02*
Y3775D01*
X26127Y-1275D02*
X26225D01*
X26176Y-1324D02*
Y-1225D01*
X23627Y23725D02*
X23725D01*
X23676Y23676D02*
Y23775D01*
X24877Y21225D02*
X24975D01*
X24926Y21176D02*
Y21275D01*
X23627Y-1275D02*
X23725D01*
X23676Y-1324D02*
Y-1225D01*
X21127Y23725D02*
X21225D01*
X21176Y23676D02*
Y23775D01*
X22377Y21225D02*
X22475D01*
X22426Y21176D02*
Y21275D01*
X21127Y-1275D02*
X21225D01*
X21176Y-1324D02*
Y-1225D01*
X18627Y23725D02*
X18725D01*
X18676Y23676D02*
Y23775D01*
X19877Y21225D02*
X19975D01*
X19926Y21176D02*
Y21275D01*
X18627Y13725D02*
X18725D01*
X18676Y13676D02*
Y13775D01*
X18627Y8725D02*
X18725D01*
X18676Y8676D02*
Y8775D01*
X18627Y-1275D02*
X18725D01*
X18676Y-1324D02*
Y-1225D01*
X16127Y23725D02*
X16225D01*
X16176Y23676D02*
Y23775D01*
X17377Y21225D02*
X17475D01*
X17426Y21176D02*
Y21275D01*
X16127Y18725D02*
X16225D01*
X16176Y18676D02*
Y18775D01*
X17377Y16225D02*
X17475D01*
X17426Y16176D02*
Y16275D01*
X16127Y13725D02*
X16225D01*
X16176Y13676D02*
Y13775D01*
X16127Y3725D02*
X16225D01*
X16176Y3676D02*
Y3775D01*
X16127Y-1275D02*
X16225D01*
X16176Y-1324D02*
Y-1225D01*
X14877Y21225D02*
X14975D01*
X14926Y21176D02*
Y21275D01*
X13627Y3725D02*
X13725D01*
X13676Y3676D02*
Y3775D01*
X14877Y1225D02*
X14975D01*
X14926Y1176D02*
Y1275D01*
X13627Y-1275D02*
X13725D01*
X13676Y-1324D02*
Y-1225D01*
X11127Y23725D02*
X11225D01*
X11176Y23676D02*
Y23775D01*
X11127Y18725D02*
X11225D01*
X11176Y18676D02*
Y18775D01*
X11127Y13725D02*
X11225D01*
X11176Y13676D02*
Y13775D01*
X12377Y6225D02*
X12475D01*
X12426Y6176D02*
Y6275D01*
X11127Y3725D02*
X11225D01*
X11176Y3676D02*
Y3775D01*
X12377Y1225D02*
X12475D01*
X12426Y1176D02*
Y1275D01*
X11127Y-1275D02*
X11225D01*
X11176Y-1324D02*
Y-1225D01*
X8627Y23725D02*
X8725D01*
X8676Y23676D02*
Y23775D01*
X9877Y16225D02*
X9975D01*
X9926Y16176D02*
Y16275D01*
X8627Y3725D02*
X8725D01*
X8676Y3676D02*
Y3775D01*
X9877Y1225D02*
X9975D01*
X9926Y1176D02*
Y1275D01*
X8627Y-1275D02*
X8725D01*
X8676Y-1324D02*
Y-1225D01*
X6127Y23725D02*
X6225D01*
X6176Y23676D02*
Y23775D01*
X7377Y21225D02*
X7475D01*
X7426Y21176D02*
Y21275D01*
X6127Y18725D02*
X6225D01*
X6176Y18676D02*
Y18775D01*
X6127Y13725D02*
X6225D01*
X6176Y13676D02*
Y13775D01*
X6127Y3725D02*
X6225D01*
X6176Y3676D02*
Y3775D01*
X7377Y1225D02*
X7475D01*
X7426Y1176D02*
Y1275D01*
X6127Y-1275D02*
X6225D01*
X6176Y-1324D02*
Y-1225D01*
X3627Y23725D02*
X3725D01*
X3676Y23676D02*
Y23775D01*
X4877Y21225D02*
X4975D01*
X4926Y21176D02*
Y21275D01*
X4877Y16225D02*
X4975D01*
X4926Y16176D02*
Y16275D01*
X3627Y13725D02*
X3725D01*
X3676Y13676D02*
Y13775D01*
X3627Y8725D02*
X3725D01*
X3676Y8676D02*
Y8775D01*
X4877Y6225D02*
X4975D01*
X4926Y6176D02*
Y6275D01*
X4877Y1225D02*
X4975D01*
X4926Y1176D02*
Y1275D01*
X3627Y-1275D02*
X3725D01*
X3676Y-1324D02*
Y-1225D01*
X1127Y23725D02*
X1225D01*
X1176Y23676D02*
Y23775D01*
X2377Y21225D02*
X2475D01*
X2426Y21176D02*
Y21275D01*
X1127Y18725D02*
X1225D01*
X1176Y18676D02*
Y18775D01*
X2377Y16225D02*
X2475D01*
X2426Y16176D02*
Y16275D01*
X1127Y13725D02*
X1225D01*
X1176Y13676D02*
Y13775D01*
X2377Y6225D02*
X2475D01*
X2426Y6176D02*
Y6275D01*
X1127Y3725D02*
X1225D01*
X1176Y3676D02*
Y3775D01*
X2377Y1225D02*
X2475D01*
X2426Y1176D02*
Y1275D01*
X1127Y-1275D02*
X1225D01*
X1176Y-1324D02*
Y-1225D01*
X-1373Y23725D02*
X-1275D01*
X-1324Y23676D02*
Y23775D01*
X-123Y21225D02*
X-25D01*
X-74Y21176D02*
Y21275D01*
X-1373Y18725D02*
X-1275D01*
X-1324Y18676D02*
Y18775D01*
X-123Y16225D02*
X-25D01*
X-74Y16176D02*
Y16275D01*
X-1373Y13725D02*
X-1275D01*
X-1324Y13676D02*
Y13775D01*
X-1373Y8725D02*
X-1275D01*
X-1324Y8676D02*
Y8775D01*
X-123Y6225D02*
X-25D01*
X-74Y6176D02*
Y6275D01*
X-1373Y3725D02*
X-1275D01*
X-1324Y3676D02*
Y3775D01*
X-1373Y-1275D02*
X-1275D01*
X-1324Y-1324D02*
Y-1225D01*
X17746Y7913D02*
X17844D01*
X17795Y7864D02*
Y7963D01*
X17156Y8307D02*
X17254D01*
X17205Y8258D02*
Y8356D01*
X16093Y9094D02*
X16191D01*
X16142Y9045D02*
Y9144D01*
X18612Y9528D02*
X18711D01*
X18661Y9478D02*
Y9577D01*
X18533Y8465D02*
X18632D01*
X18583Y8415D02*
Y8514D01*
X18337Y7441D02*
X18435D01*
X18386Y7392D02*
Y7490D01*
X19596Y6063D02*
X19695D01*
X19646Y6014D02*
Y6112D01*
X20305Y5394D02*
X20404D01*
X20354Y5344D02*
Y5443D01*
X21407Y5236D02*
X21506D01*
X21457Y5187D02*
Y5285D01*
X20935Y7559D02*
X21033D01*
X20984Y7510D02*
Y7608D01*
X23573Y7047D02*
X23671D01*
X23622Y6998D02*
Y7096D01*
X24242Y6339D02*
X24341D01*
X24291Y6289D02*
Y6388D01*
X24321Y7165D02*
X24419D01*
X24370Y7116D02*
Y7215D01*
X25602Y6793D02*
X25700D01*
X25651Y6744D02*
Y6843D01*
X25602Y7055D02*
X25700D01*
X25651Y7005D02*
Y7104D01*
X25602Y7302D02*
X25700D01*
X25651Y7253D02*
Y7351D01*
X25602Y2916D02*
X25700D01*
X25651Y2867D02*
Y2965D01*
X25463Y8465D02*
X25561D01*
X25512Y8415D02*
Y8514D01*
X23140Y8425D02*
X23238D01*
X23189Y8376D02*
Y8474D01*
X21171Y8386D02*
X21270D01*
X21220Y8337D02*
Y8435D01*
X26407Y10512D02*
X26506D01*
X26457Y10463D02*
Y10561D01*
X26368Y12677D02*
X26467D01*
X26417Y12628D02*
Y12726D01*
X26407Y14331D02*
X26506D01*
X26457Y14282D02*
Y14380D01*
X26407Y15827D02*
X26506D01*
X26457Y15778D02*
Y15876D01*
X26486Y17165D02*
X26585D01*
X26535Y17116D02*
Y17215D01*
X25187Y17953D02*
X25285D01*
X25236Y17904D02*
Y18002D01*
X23179Y17953D02*
X23278D01*
X23228Y17904D02*
Y18002D01*
X21368Y17953D02*
X21467D01*
X21417Y17904D02*
Y18002D01*
X20226Y17008D02*
X20325D01*
X20276Y16959D02*
Y17057D01*
X20187Y15630D02*
X20285D01*
X20236Y15581D02*
Y15679D01*
X20266Y14449D02*
X20364D01*
X20315Y14400D02*
Y14498D01*
X20187Y12992D02*
X20285D01*
X20236Y12943D02*
Y13041D01*
X3927Y9331D02*
X4026D01*
X3976Y9281D02*
Y9380D01*
X3770Y8071D02*
X3868D01*
X3819Y8022D02*
Y8120D01*
X4793Y6535D02*
X4892D01*
X4843Y6486D02*
Y6585D01*
X9990Y6142D02*
X10089D01*
X10039Y6093D02*
Y6191D01*
X8533Y6142D02*
X8632D01*
X8583Y6093D02*
Y6191D01*
X6801Y6142D02*
X6900D01*
X6850Y6093D02*
Y6191D01*
X10935Y6496D02*
X11033D01*
X10984Y6447D02*
Y6545D01*
X9163Y6772D02*
X9262D01*
X9213Y6722D02*
Y6821D01*
X7825Y6732D02*
X7923D01*
X7874Y6683D02*
Y6781D01*
X6329Y6850D02*
X6427D01*
X6378Y6801D02*
Y6900D01*
X5620Y7441D02*
X5719D01*
X5669Y7392D02*
Y7490D01*
X21644Y1024D02*
X21742D01*
X21693Y974D02*
Y1073D01*
X20935Y1063D02*
X21033D01*
X20984Y1014D02*
Y1112D01*
X18494Y1024D02*
X18593D01*
X18543Y974D02*
Y1073D01*
X17746Y787D02*
X17844D01*
X17795Y738D02*
Y837D01*
X16635Y801D02*
X16733D01*
X16684Y752D02*
Y850D01*
X15384Y906D02*
X15482D01*
X15433Y856D02*
Y955D01*
X14439Y1575D02*
X14537D01*
X14488Y1526D02*
Y1624D01*
X13967Y2087D02*
X14065D01*
X14016Y2037D02*
Y2136D01*
X13533Y2520D02*
X13632D01*
X13583Y2470D02*
Y2569D01*
X12904Y3189D02*
X13002D01*
X12953Y3140D02*
Y3238D01*
X12116Y3858D02*
X12215D01*
X12165Y3809D02*
Y3907D01*
X11447Y4567D02*
X11545D01*
X11496Y4518D02*
Y4616D01*
X12628Y4528D02*
X12726D01*
X12677Y4478D02*
Y4577D01*
X13337Y3780D02*
X13435D01*
X13386Y3730D02*
Y3829D01*
X14124Y3110D02*
X14222D01*
X14173Y3061D02*
Y3159D01*
X14833Y2362D02*
X14931D01*
X14882Y2313D02*
Y2411D01*
X15659Y1732D02*
X15758D01*
X15709Y1683D02*
Y1781D01*
X16801Y1732D02*
X16900D01*
X16850Y1683D02*
Y1781D01*
X17982Y1693D02*
X18081D01*
X18032Y1644D02*
Y1742D01*
X18376Y2205D02*
X18474D01*
X18425Y2156D02*
Y2254D01*
X17589Y2874D02*
X17687D01*
X17638Y2825D02*
Y2923D01*
X16762Y3661D02*
X16860D01*
X16811Y3612D02*
Y3711D01*
X15896Y4567D02*
X15994D01*
X15945Y4518D02*
Y4616D01*
X15187Y6299D02*
X15285D01*
X15236Y6250D02*
Y6348D01*
X16762Y4724D02*
X16860D01*
X16811Y4675D02*
Y4774D01*
X17313Y4213D02*
X17411D01*
X17362Y4163D02*
Y4262D01*
X17943Y3583D02*
X18041D01*
X17992Y3533D02*
Y3632D01*
X18061Y4252D02*
X18159D01*
X18110Y4203D02*
Y4301D01*
X18573Y2953D02*
X18671D01*
X18622Y2904D02*
Y3002D01*
X19282Y2244D02*
X19380D01*
X19331Y2195D02*
Y2293D01*
X20108Y2244D02*
X20207D01*
X20157Y2195D02*
Y2293D01*
X20738Y2441D02*
X20837D01*
X20787Y2392D02*
Y2490D01*
X19400Y3780D02*
X19498D01*
X19449Y3730D02*
Y3829D01*
X18100Y5079D02*
X18199D01*
X18150Y5030D02*
Y5128D01*
X18730Y4449D02*
X18829D01*
X18780Y4400D02*
Y4498D01*
X19990Y3189D02*
X20089D01*
X20039Y3140D02*
Y3238D01*
X17510Y4843D02*
X17608D01*
X17559Y4793D02*
Y4892D01*
X18730Y3701D02*
X18829D01*
X18780Y3652D02*
Y3750D01*
X19439Y3031D02*
X19537D01*
X19488Y2982D02*
Y3081D01*
X21250Y2638D02*
X21348D01*
X21299Y2589D02*
Y2687D01*
X20778Y3150D02*
X20876D01*
X20827Y3100D02*
Y3199D01*
X20069Y3819D02*
X20167D01*
X20118Y3770D02*
Y3868D01*
X19439Y4488D02*
X19537D01*
X19488Y4439D02*
Y4537D01*
X18848Y5039D02*
X18947D01*
X18898Y4990D02*
Y5089D01*
X21329Y3307D02*
X21427D01*
X21378Y3258D02*
Y3356D01*
X20699Y3937D02*
X20797D01*
X20748Y3888D02*
Y3986D01*
X20069Y4567D02*
X20167D01*
X20118Y4518D02*
Y4616D01*
X19439Y5197D02*
X19537D01*
X19488Y5148D02*
Y5246D01*
X18888Y5748D02*
X18986D01*
X18937Y5699D02*
Y5797D01*
X16880Y6299D02*
X16978D01*
X16929Y6250D02*
Y6348D01*
X22746Y3622D02*
X22844D01*
X22795Y3573D02*
Y3671D01*
X25069Y3701D02*
X25167D01*
X25118Y3652D02*
Y3750D01*
X24951Y7913D02*
X25049D01*
X25000Y7864D02*
Y7963D01*
X24045Y7913D02*
X24144D01*
X24094Y7864D02*
Y7963D01*
X27313Y3622D02*
X27411D01*
X27362Y3573D02*
Y3671D01*
X26841Y3150D02*
X26939D01*
X26890Y3100D02*
Y3199D01*
X26447Y2756D02*
X26545D01*
X26496Y2707D02*
Y2805D01*
X27827Y3991D02*
X27926D01*
X27877Y3942D02*
Y4041D01*
X27825Y5512D02*
X27923D01*
X27874Y5463D02*
Y5561D01*
X27825Y5984D02*
X27923D01*
X27874Y5935D02*
Y6033D01*
X27352Y5787D02*
X27451D01*
X27402Y5738D02*
Y5837D01*
X27982Y6417D02*
X28081D01*
X28031Y6368D02*
Y6467D01*
X27549Y6417D02*
X27648D01*
X27598Y6368D02*
Y6467D01*
X27904Y7441D02*
X28002D01*
X27953Y7392D02*
Y7490D01*
X27707Y6890D02*
X27805D01*
X27756Y6841D02*
Y6939D01*
X21604Y4370D02*
X21703D01*
X21654Y4321D02*
Y4419D01*
X21799Y155D02*
X21897D01*
X21848Y106D02*
Y204D01*
X22174Y4978D02*
X22272D01*
X22223Y4928D02*
Y5027D01*
X23297Y4567D02*
X23396D01*
X23346Y4518D02*
Y4616D01*
X22234Y5276D02*
X22333D01*
X22283Y5226D02*
Y5325D01*
X23338Y5239D02*
X23436D01*
X23387Y5190D02*
Y5288D01*
X24518Y4567D02*
X24616D01*
X24567Y4518D02*
Y4616D01*
X25502Y4606D02*
X25600D01*
X25551Y4557D02*
Y4656D01*
X23494Y5945D02*
X23593D01*
X23543Y5896D02*
Y5994D01*
X24163Y5472D02*
X24262D01*
X24213Y5423D02*
Y5522D01*
X26683Y4528D02*
X26781D01*
X26732Y4478D02*
Y4577D01*
X26230Y3445D02*
X26329D01*
X26280Y3396D02*
Y3494D01*
X16998Y7638D02*
X17096D01*
X17047Y7589D02*
Y7687D01*
X17667Y6969D02*
X17766D01*
X17717Y6919D02*
Y7018D01*
X14518Y6260D02*
X14616D01*
X14567Y6211D02*
Y6309D01*
X26880Y2520D02*
X26978D01*
X26929Y2470D02*
Y2569D01*
X27963Y3504D02*
X28061D01*
X28012Y3455D02*
Y3553D01*
X27825Y2165D02*
X27923D01*
X27874Y2116D02*
Y2215D01*
X27431Y1890D02*
X27530D01*
X27480Y1841D02*
Y1939D01*
X28066Y1362D02*
X28165D01*
X28115Y1313D02*
Y1411D01*
X25602Y7608D02*
X25700D01*
X25651Y7559D02*
Y7657D01*
X27746Y12520D02*
X27844D01*
X27795Y12470D02*
Y12569D01*
X22510Y7992D02*
X22608D01*
X22559Y7943D02*
Y8041D01*
X27352Y2992D02*
X27451D01*
X27402Y2943D02*
Y3041D01*
X28081Y2953D02*
X28179D01*
X28130Y2904D02*
Y3002D01*
X27746Y4921D02*
X27844D01*
X27795Y4872D02*
Y4970D01*
X26526Y4921D02*
X26624D01*
X26575Y4872D02*
Y4970D01*
X29892Y6693D02*
X29990D01*
X29941Y6644D02*
Y6742D01*
X29813Y7638D02*
X29911D01*
X29862Y7589D02*
Y7687D01*
X28986Y7480D02*
X29085D01*
X29035Y7431D02*
Y7530D01*
X28986Y7008D02*
X29085D01*
X29035Y6959D02*
Y7057D01*
X29026Y6457D02*
X29124D01*
X29075Y6407D02*
Y6506D01*
X24281Y2835D02*
X24380D01*
X24331Y2785D02*
Y2884D01*
X28939Y4739D02*
X29037D01*
X28988Y4690D02*
Y4788D01*
X29222Y5669D02*
X29321D01*
X29272Y5620D02*
Y5719D01*
X23415Y2953D02*
X23514D01*
X23465Y2904D02*
Y3002D01*
X30010Y3740D02*
X30108D01*
X30059Y3691D02*
Y3789D01*
X29970Y2638D02*
X30069D01*
X30020Y2589D02*
Y2687D01*
X28986Y3465D02*
X29085D01*
X29035Y3415D02*
Y3514D01*
X29892Y5709D02*
X29990D01*
X29941Y5659D02*
Y5758D01*
X29752Y629D02*
X29851D01*
X29801Y580D02*
Y678D01*
X30193Y934D02*
X30291D01*
X30242Y885D02*
Y983D01*
X22116Y1102D02*
X22215D01*
X22165Y1053D02*
Y1152D01*
X23455Y1654D02*
X23553D01*
X23504Y1604D02*
Y1703D01*
X24242Y1654D02*
X24341D01*
X24291Y1604D02*
Y1703D01*
X23825Y728D02*
X23923D01*
X23874Y679D02*
Y778D01*
X29380Y2677D02*
X29478D01*
X29429Y2628D02*
Y2726D01*
X29341Y1693D02*
X29439D01*
X29390Y1644D02*
Y1742D01*
X28986Y2992D02*
X29085D01*
X29035Y2943D02*
Y3041D01*
X29026Y2047D02*
X29124D01*
X29075Y1998D02*
Y2096D01*
X29026Y2441D02*
X29124D01*
X29075Y2392D02*
Y2490D01*
X27215Y787D02*
X27313D01*
X27264Y738D02*
Y837D01*
X24281Y2283D02*
X24380D01*
X24331Y2234D02*
Y2333D01*
X23415Y2283D02*
X23514D01*
X23465Y2234D02*
Y2333D01*
X25602Y3180D02*
X25700D01*
X25651Y3131D02*
Y3229D01*
X24911Y472D02*
X25010D01*
X24961Y423D02*
Y522D01*
X28947Y748D02*
X29045D01*
X28996Y699D02*
Y797D01*
X30049Y4685D02*
X30148D01*
X30098Y4636D02*
Y4734D01*
X28120Y787D02*
X28219D01*
X28169Y738D02*
Y837D01*
X30128Y1850D02*
X30226D01*
X30177Y1801D02*
Y1900D01*
X7234Y5630D02*
X7333D01*
X7283Y5581D02*
Y5679D01*
X7470Y5630D02*
X7569D01*
X7520Y5581D02*
Y5679D01*
X6998Y5630D02*
X7096D01*
X7047Y5581D02*
Y5679D01*
X502Y16811D02*
X600D01*
X551Y16762D02*
Y16860D01*
X502Y16557D02*
X600D01*
X551Y16508D02*
Y16606D01*
X7470Y5394D02*
X7569D01*
X7520Y5344D02*
Y5443D01*
X6998Y5394D02*
X7096D01*
X7047Y5344D02*
Y5443D01*
X7234Y5394D02*
X7333D01*
X7283Y5344D02*
Y5443D01*
X5502Y17441D02*
X5600D01*
X5551Y17392D02*
Y17490D01*
X5541Y8622D02*
X5640D01*
X5591Y8573D02*
Y8671D01*
X3533Y13346D02*
X3632D01*
X3583Y13297D02*
Y13396D01*
X3533Y11614D02*
X3632D01*
X3583Y11565D02*
Y11663D01*
X7510Y12126D02*
X7608D01*
X7559Y12077D02*
Y12175D01*
X7510Y17362D02*
X7608D01*
X7559Y17313D02*
Y17411D01*
X4510Y9654D02*
X4608D01*
X4559Y9604D02*
Y9703D01*
X5738Y6378D02*
X5837D01*
X5787Y6329D02*
Y6427D01*
X1526Y12874D02*
X1624D01*
X1575Y12825D02*
Y12923D01*
X1526Y12047D02*
X1624D01*
X1575Y11998D02*
Y12096D01*
X14518Y17362D02*
X14616D01*
X14567Y17313D02*
Y17411D01*
X13494Y17362D02*
X13593D01*
X13543Y17313D02*
Y17411D01*
X13494Y6614D02*
X13593D01*
X13543Y6565D02*
Y6663D01*
X10463Y7559D02*
X10561D01*
X10512Y7510D02*
Y7608D01*
X10502Y17441D02*
X10600D01*
X10551Y17392D02*
Y17490D01*
X4518Y12402D02*
X4616D01*
X4567Y12352D02*
Y12451D01*
X4518Y17362D02*
X4616D01*
X4567Y17313D02*
Y17411D01*
X2549Y13110D02*
X2648D01*
X2598Y13061D02*
Y13159D01*
X2510Y11693D02*
X2608D01*
X2559Y11644D02*
Y11742D01*
X12510Y17362D02*
X12608D01*
X12559Y17313D02*
Y17411D01*
X12510Y7047D02*
X12608D01*
X12559Y6998D02*
Y7096D01*
X8533Y8031D02*
X8632D01*
X8583Y7982D02*
Y8081D01*
X8533Y17362D02*
X8632D01*
X8583Y17313D02*
Y17411D01*
X1211Y12362D02*
X1309D01*
X1260Y12313D02*
Y12411D01*
X15423Y23268D02*
X15522D01*
X15472Y23219D02*
Y23317D01*
X14203Y21969D02*
X14301D01*
X14252Y21919D02*
Y22018D01*
X12274Y20079D02*
X12372D01*
X12323Y20030D02*
Y20128D01*
X12392Y24843D02*
X12490D01*
X12441Y24793D02*
Y24892D01*
X11093Y23150D02*
X11191D01*
X11142Y23100D02*
Y23199D01*
X9242Y21496D02*
X9341D01*
X9291Y21447D02*
Y21545D01*
X7785Y20000D02*
X7884D01*
X7835Y19951D02*
Y20049D01*
X10581Y19921D02*
X10679D01*
X10630Y19872D02*
Y19970D01*
X12392Y21614D02*
X12490D01*
X12441Y21565D02*
Y21663D01*
X13809Y23150D02*
X13907D01*
X13858Y23100D02*
Y23199D01*
X14911Y24213D02*
X15010D01*
X14961Y24163D02*
Y24262D01*
X13730Y24331D02*
X13829D01*
X13780Y24281D02*
Y24380D01*
X12510Y23110D02*
X12608D01*
X12559Y23061D02*
Y23159D01*
X10935Y21575D02*
X11033D01*
X10984Y21526D02*
Y21624D01*
X9203Y19843D02*
X9301D01*
X9252Y19793D02*
Y19892D01*
X13258Y6142D02*
X13356D01*
X13307Y6093D02*
Y6191D01*
X12904Y6575D02*
X13002D01*
X12953Y6526D02*
Y6624D01*
X13927Y6220D02*
X14026D01*
X13976Y6171D02*
Y6270D01*
X14058Y6831D02*
X14157D01*
X14107Y6782D02*
Y6880D01*
X15581Y6772D02*
X15679D01*
X15630Y6722D02*
Y6821D01*
X16093Y6260D02*
X16191D01*
X16142Y6211D02*
Y6309D01*
X16407Y6772D02*
X16506D01*
X16457Y6722D02*
Y6821D01*
X15817Y7283D02*
X15915D01*
X15866Y7234D02*
Y7333D01*
X14977Y7321D02*
X15076D01*
X15027Y7272D02*
Y7370D01*
X16998Y6850D02*
X17096D01*
X17047Y6801D02*
Y6900D01*
X16368Y7480D02*
X16467D01*
X16417Y7431D02*
Y7530D01*
X15581Y7795D02*
X15679D01*
X15630Y7746D02*
Y7844D01*
X16250Y8268D02*
X16348D01*
X16299Y8219D02*
Y8317D01*
X15069Y8346D02*
X15167D01*
X15118Y8297D02*
Y8396D01*
X9360Y8346D02*
X9459D01*
X9409Y8297D02*
Y8396D01*
X11801Y8386D02*
X11900D01*
X11850Y8337D02*
Y8435D01*
X11014Y8307D02*
X11112D01*
X11063Y8258D02*
Y8356D01*
X11801Y7795D02*
X11900D01*
X11850Y7746D02*
Y7844D01*
X11053Y7795D02*
X11152D01*
X11102Y7746D02*
Y7844D01*
X13967Y7244D02*
X14065D01*
X14016Y7195D02*
Y7293D01*
X12943Y7283D02*
X13041D01*
X12992Y7234D02*
Y7333D01*
X13967Y7795D02*
X14065D01*
X14016Y7746D02*
Y7844D01*
X13018Y7797D02*
X13117D01*
X13068Y7748D02*
Y7846D01*
X14006Y8307D02*
X14104D01*
X14055Y8258D02*
Y8356D01*
X13061Y8307D02*
X13159D01*
X13110Y8258D02*
Y8356D01*
X14990Y9449D02*
X15089D01*
X15039Y9400D02*
Y9498D01*
X13967Y9409D02*
X14065D01*
X14016Y9360D02*
Y9459D01*
X12982Y9488D02*
X13081D01*
X13032Y9439D02*
Y9537D01*
X12021Y9085D02*
X12120D01*
X12071Y9036D02*
Y9134D01*
X11053Y9252D02*
X11152D01*
X11102Y9203D02*
Y9301D01*
X9478Y9331D02*
X9577D01*
X9528Y9281D02*
Y9380D01*
X7470Y9252D02*
X7569D01*
X7520Y9203D02*
Y9301D01*
X6289Y9213D02*
X6388D01*
X6339Y9163D02*
Y9262D01*
X4990Y8150D02*
X5089D01*
X5039Y8100D02*
Y8199D01*
X5030Y9409D02*
X5128D01*
X5079Y9360D02*
Y9459D01*
X3160Y8820D02*
X3258D01*
X3209Y8771D02*
Y8869D01*
X-1230Y9843D02*
X-1132D01*
X-1181Y9793D02*
Y9892D01*
X-843Y11945D02*
X-745D01*
X-794Y11896D02*
Y11994D01*
X9833Y11654D02*
X9931D01*
X9882Y11604D02*
Y11703D01*
X6919Y11929D02*
X7018D01*
X6969Y11880D02*
Y11978D01*
X4990Y11772D02*
X5089D01*
X5039Y11722D02*
Y11821D01*
X4006Y12165D02*
X4104D01*
X4055Y12116D02*
Y12215D01*
X2982Y12165D02*
X3081D01*
X3031Y12116D02*
Y12215D01*
X1998Y12047D02*
X2096D01*
X2047Y11998D02*
Y12096D01*
X4045Y16575D02*
X4144D01*
X4094Y16526D02*
Y16624D01*
X4006Y14921D02*
X4104D01*
X4055Y14872D02*
Y14970D01*
X15069Y14606D02*
X15167D01*
X15118Y14557D02*
Y14656D01*
X15030Y16063D02*
X15128D01*
X15079Y16014D02*
Y16112D01*
X15030Y16929D02*
X15128D01*
X15079Y16880D02*
Y16978D01*
X14006Y13858D02*
X14104D01*
X14055Y13809D02*
Y13907D01*
X14006Y15433D02*
X14104D01*
X14055Y15384D02*
Y15482D01*
X14006Y16535D02*
X14104D01*
X14055Y16486D02*
Y16585D01*
X12943Y16732D02*
X13041D01*
X12992Y16683D02*
Y16781D01*
X12943Y15315D02*
X13041D01*
X12992Y15266D02*
Y15364D01*
X12982Y14055D02*
X13081D01*
X13032Y14006D02*
Y14104D01*
X11171Y14055D02*
X11270D01*
X11220Y14006D02*
Y14104D01*
X11880Y14685D02*
X11978D01*
X11929Y14636D02*
Y14734D01*
X11250Y15236D02*
X11348D01*
X11299Y15187D02*
Y15285D01*
X11919Y16102D02*
X12018D01*
X11968Y16053D02*
Y16152D01*
X11093Y16772D02*
X11191D01*
X11142Y16722D02*
Y16821D01*
X9990Y16890D02*
X10089D01*
X10039Y16841D02*
Y16939D01*
X9951Y15748D02*
X10049D01*
X10000Y15699D02*
Y15797D01*
X10030Y14409D02*
X10128D01*
X10079Y14360D02*
Y14459D01*
X9085Y14016D02*
X9183D01*
X9134Y13967D02*
Y14065D01*
X9085Y14982D02*
X9183D01*
X9134Y14933D02*
Y15032D01*
X9085Y16378D02*
X9183D01*
X9134Y16329D02*
Y16427D01*
X9085Y17205D02*
X9183D01*
X9134Y17156D02*
Y17254D01*
X8297Y16890D02*
X8396D01*
X8346Y16841D02*
Y16939D01*
X8297Y15827D02*
X8396D01*
X8346Y15778D02*
Y15876D01*
X8297Y14449D02*
X8396D01*
X8346Y14400D02*
Y14498D01*
X7746Y13858D02*
X7844D01*
X7795Y13809D02*
Y13907D01*
X7785Y15157D02*
X7884D01*
X7835Y15108D02*
Y15207D01*
X7785Y16260D02*
X7884D01*
X7835Y16211D02*
Y16309D01*
X8022Y11772D02*
X8120D01*
X8071Y11722D02*
Y11821D01*
X7274Y14449D02*
X7372D01*
X7323Y14400D02*
Y14498D01*
X7274Y15748D02*
X7372D01*
X7323Y15699D02*
Y15797D01*
X7274Y16850D02*
X7372D01*
X7323Y16801D02*
Y16900D01*
X6329Y16339D02*
X6427D01*
X6378Y16289D02*
Y16388D01*
X6380Y15142D02*
X6478D01*
X6429Y15093D02*
Y15192D01*
X6368Y14134D02*
X6467D01*
X6417Y14085D02*
Y14183D01*
X4990Y14252D02*
X5089D01*
X5039Y14203D02*
Y14301D01*
X5030Y15827D02*
X5128D01*
X5079Y15778D02*
Y15876D01*
X5030Y16929D02*
X5128D01*
X5079Y16880D02*
Y16978D01*
X15974Y25866D02*
X16073D01*
X16024Y25817D02*
Y25915D01*
X16447Y24685D02*
X16545D01*
X16496Y24636D02*
Y24734D01*
X15423Y24291D02*
X15522D01*
X15472Y24242D02*
Y24341D01*
X14163Y26575D02*
X14262D01*
X14213Y26526D02*
Y26624D01*
X14587Y25857D02*
X14685D01*
X14636Y25807D02*
Y25906D01*
X15614Y25177D02*
X15713D01*
X15664Y25128D02*
Y25226D01*
X6526Y17362D02*
X6624D01*
X6575Y17313D02*
Y17411D01*
X8963Y11698D02*
X9062D01*
X9012Y11649D02*
Y11748D01*
X5850Y11736D02*
X5949D01*
X5899Y11687D02*
Y11785D01*
X6447Y4331D02*
X6545D01*
X6496Y4281D02*
Y4380D01*
X5620Y4646D02*
X5719D01*
X5669Y4596D02*
Y4695D01*
X-679Y8386D02*
X-581D01*
X-630Y8337D02*
Y8435D01*
X1526Y9811D02*
X1624D01*
X1575Y9762D02*
Y9860D01*
X6526Y11543D02*
X6624D01*
X6575Y11494D02*
Y11593D01*
X16526Y11543D02*
X16624D01*
X16575Y11494D02*
Y11593D01*
X16526Y9811D02*
X16624D01*
X16575Y9762D02*
Y9860D01*
X11526Y11543D02*
X11624D01*
X11575Y11494D02*
Y11593D01*
X11526Y9811D02*
X11624D01*
X11575Y9762D02*
Y9860D01*
X6526Y9811D02*
X6624D01*
X6575Y9762D02*
Y9860D01*
X1526Y11543D02*
X1624D01*
X1575Y11494D02*
Y11593D01*
X16526Y19173D02*
X16624D01*
X16575Y19124D02*
Y19222D01*
X16526Y17441D02*
X16624D01*
X16575Y17392D02*
Y17490D01*
X11526Y19173D02*
X11624D01*
X11575Y19124D02*
Y19222D01*
X11526Y17441D02*
X11624D01*
X11575Y17392D02*
Y17490D01*
X6526Y19173D02*
X6624D01*
X6575Y19124D02*
Y19222D01*
X1526Y17441D02*
X1624D01*
X1575Y17392D02*
Y17490D01*
X1526Y19173D02*
X1624D01*
X1575Y19124D02*
Y19222D01*
X3652Y20827D02*
X3750D01*
X3701Y20778D02*
Y20876D01*
M02*
