G04*
G04 #@! TF.GenerationSoftware,Altium Limited,Altium Designer,25.8.1 (18)*
G04*
G04 Layer_Color=65280*
%FSLAX24Y24*%
%MOIN*%
G70*
G04*
G04 #@! TF.SameCoordinates,E7C4B6EF-679D-40F3-B346-0123BADFF20E*
G04*
G04*
G04 #@! TF.FilePolarity,Positive*
G04*
G01*
G75*
%ADD13C,0.0100*%
%ADD17C,0.0039*%
G36*
X14584Y15247D02*
X14600Y15246D01*
X14612Y15245D01*
X14628Y15243D01*
X14645Y15240D01*
X14661Y15236D01*
X14681Y15230D01*
X14688Y15227D01*
X14695Y15223D01*
X14697Y15223D01*
X14702Y15219D01*
X14703Y15219D01*
X14713Y15212D01*
X14715Y15211D01*
X14717Y15209D01*
X14718Y15209D01*
X14720Y15207D01*
X14721Y15206D01*
X14724Y15204D01*
X14725Y15203D01*
X14728Y15201D01*
X14729Y15200D01*
X14732Y15197D01*
X14734Y15196D01*
X14741Y15189D01*
X14742Y15188D01*
X14754Y15177D01*
X14755Y15175D01*
X14762Y15168D01*
X14762Y15167D01*
X14766Y15163D01*
X14767Y15161D01*
X14769Y15159D01*
X14770Y15157D01*
X14771Y15156D01*
X14783Y15141D01*
X14785Y15137D01*
X14789Y15131D01*
X14792Y15126D01*
X14796Y15120D01*
X14803Y15106D01*
X14808Y15095D01*
X14811Y15089D01*
X14814Y15081D01*
X14816Y15076D01*
X14817Y15073D01*
X14819Y15061D01*
X14820Y15057D01*
X14821Y15047D01*
X14823Y15035D01*
X14823Y15033D01*
X14824Y15014D01*
X14825Y15012D01*
X14825Y14968D01*
X14824Y14957D01*
X14823Y14949D01*
X14822Y14942D01*
X14821Y14935D01*
X14820Y14927D01*
X14819Y14924D01*
X14816Y14907D01*
X14812Y14891D01*
X14810Y14883D01*
X14807Y14872D01*
X14805Y14868D01*
X14805Y14879D01*
X14804Y14887D01*
X14801Y14898D01*
X14800Y14901D01*
X14799Y14905D01*
X14797Y14903D01*
X14796Y14901D01*
X14794Y14899D01*
X14793Y14897D01*
X14792Y14896D01*
X14789Y14892D01*
X14783Y14884D01*
X14777Y14872D01*
X14774Y14866D01*
X14771Y14857D01*
X14771Y14854D01*
X14769Y14849D01*
X14769Y14846D01*
X14762Y14826D01*
X14761Y14822D01*
X14774Y14822D01*
X14762Y14816D01*
X14753Y14806D01*
X14751Y14805D01*
X14744Y14798D01*
X14742Y14798D01*
X14739Y14795D01*
X14738Y14794D01*
X14735Y14791D01*
X14734Y14791D01*
X14733Y14789D01*
X14723Y14782D01*
X14721Y14781D01*
X14716Y14777D01*
X14714Y14777D01*
X14708Y14773D01*
X14701Y14769D01*
X14687Y14762D01*
X14683Y14760D01*
X14677Y14758D01*
X14665Y14754D01*
X14661Y14753D01*
X14648Y14750D01*
X14640Y14748D01*
X14631Y14746D01*
X14625Y14746D01*
X14609Y14744D01*
X14607Y14744D01*
X14550Y14744D01*
X14537Y14745D01*
X14522Y14746D01*
X14519Y14747D01*
X14506Y14748D01*
X14503Y14749D01*
X14494Y14751D01*
X14481Y14754D01*
X14476Y14755D01*
X14465Y14759D01*
X14461Y14760D01*
X14455Y14763D01*
X14443Y14768D01*
X14438Y14769D01*
X14423Y14755D01*
X14423Y14753D01*
X14402Y14733D01*
X14400Y14732D01*
X14386Y14718D01*
X14385Y14717D01*
X14378Y14711D01*
X14377Y14710D01*
X14371Y14705D01*
X14370Y14704D01*
X14365Y14699D01*
X14364Y14698D01*
X14358Y14693D01*
X14357Y14692D01*
X14352Y14687D01*
X14350Y14687D01*
X14345Y14681D01*
X14343Y14680D01*
X14335Y14672D01*
X14334Y14672D01*
X14326Y14664D01*
X14324Y14663D01*
X14315Y14654D01*
X14314Y14653D01*
X14297Y14636D01*
X14296Y14636D01*
X14205Y14545D01*
X14204Y14544D01*
X14182Y14521D01*
X14181Y14519D01*
X14170Y14508D01*
X14169Y14507D01*
X14159Y14497D01*
X14158Y14495D01*
X14150Y14487D01*
X14150Y14486D01*
X14144Y14480D01*
X14143Y14479D01*
X14138Y14473D01*
X14137Y14472D01*
X14134Y14468D01*
X14130Y14464D01*
X14125Y14457D01*
X14121Y14450D01*
X14119Y14446D01*
X14116Y14438D01*
X14114Y14434D01*
X14107Y14415D01*
X14106Y14410D01*
X14104Y14401D01*
X14101Y14389D01*
X14099Y14374D01*
X14098Y14368D01*
X14098Y14361D01*
X14097Y14351D01*
X14096Y14334D01*
X14096Y13505D01*
Y13504D01*
X14097Y13437D01*
X14098Y13429D01*
X14099Y13426D01*
X14100Y13421D01*
X14105Y13411D01*
X14107Y13409D01*
X14107Y13407D01*
X14109Y13406D01*
X14110Y13404D01*
X14111Y13404D01*
X14113Y13402D01*
X14115Y13401D01*
X14118Y13398D01*
X14119Y13397D01*
X14152Y13364D01*
X14154Y13363D01*
X14321Y13196D01*
X14322Y13195D01*
X14324Y13193D01*
X14325Y13192D01*
X14343Y13174D01*
X14344Y13173D01*
X14359Y13158D01*
X14359Y13156D01*
X14383Y13133D01*
X14384Y13131D01*
X14402Y13112D01*
X14403Y13111D01*
X14406Y13108D01*
X14407Y13106D01*
X14409Y13104D01*
X14410Y13102D01*
X14414Y13097D01*
X14420Y13086D01*
X14424Y13075D01*
X14425Y13069D01*
X14426Y13067D01*
X14424Y13058D01*
X14423Y13055D01*
X14422Y13050D01*
X14419Y13043D01*
X14417Y13041D01*
X14416Y13040D01*
X14409Y13032D01*
X14407Y13031D01*
X14404Y13027D01*
X14402Y13027D01*
X14400Y13024D01*
X14398Y13024D01*
X14396Y13021D01*
X14393Y13019D01*
X14389Y13016D01*
X14383Y13012D01*
X14376Y13008D01*
X14367Y13005D01*
X14364Y13004D01*
X14357Y13003D01*
X14354Y13002D01*
X14333Y13003D01*
X14319Y13004D01*
X14312Y13018D01*
X14310Y13020D01*
X14309Y13022D01*
X14112Y13219D01*
X14110Y13220D01*
X14001Y13329D01*
X14000Y13330D01*
X13995Y13334D01*
X13993Y13335D01*
X13978Y13350D01*
X13973Y13357D01*
X13969Y13364D01*
X13965Y13365D01*
X13965Y13371D01*
X13963Y13377D01*
X13961Y13387D01*
X13961Y13421D01*
X13960Y13424D01*
X13961Y13445D01*
X13961Y13670D01*
X13963Y14094D01*
X13963Y14203D01*
X13964Y14465D01*
X13965Y14480D01*
X13966Y14490D01*
X13968Y14497D01*
X13970Y14502D01*
X13975Y14514D01*
X13976Y14516D01*
X13979Y14520D01*
X13980Y14522D01*
X13981Y14523D01*
X13982Y14525D01*
X13984Y14526D01*
X13984Y14528D01*
X13995Y14539D01*
X13997Y14539D01*
X14005Y14548D01*
X14007Y14549D01*
X14019Y14561D01*
X14021Y14562D01*
X14033Y14574D01*
X14034Y14575D01*
X14045Y14586D01*
X14047Y14586D01*
X14057Y14597D01*
X14058Y14597D01*
X14073Y14612D01*
X14075Y14613D01*
X14093Y14631D01*
X14094Y14632D01*
X14112Y14650D01*
X14114Y14651D01*
X14127Y14664D01*
X14129Y14665D01*
X14141Y14676D01*
X14142Y14677D01*
X14155Y14690D01*
X14156Y14690D01*
X14168Y14702D01*
X14170Y14703D01*
X14180Y14714D01*
X14182Y14715D01*
X14192Y14725D01*
X14194Y14726D01*
X14207Y14739D01*
X14209Y14740D01*
X14224Y14755D01*
X14225Y14755D01*
X14249Y14779D01*
X14250Y14780D01*
X14261Y14791D01*
X14263Y14791D01*
X14273Y14802D01*
X14274Y14802D01*
X14300Y14828D01*
X14301Y14829D01*
X14306Y14835D01*
X14307Y14836D01*
X14309Y14838D01*
X14315Y14846D01*
X14319Y14850D01*
X14327Y14867D01*
X14330Y14875D01*
X14332Y14881D01*
X14334Y14888D01*
X14335Y14892D01*
X14336Y14898D01*
X14337Y14901D01*
X14337Y14913D01*
X14338Y14915D01*
X14338Y14950D01*
X14337Y14964D01*
X14336Y14974D01*
X14335Y14982D01*
X14335Y14989D01*
X14333Y15002D01*
X14341Y15002D01*
X14340Y15005D01*
X14339Y15011D01*
X14339Y15016D01*
X14337Y15023D01*
X14337Y15026D01*
X14336Y15047D01*
X14337Y15050D01*
X14337Y15056D01*
X14338Y15059D01*
X14339Y15063D01*
X14340Y15066D01*
X14342Y15071D01*
X14344Y15077D01*
X14372Y15132D01*
X14377Y15144D01*
X14381Y15155D01*
X14387Y15167D01*
X14393Y15179D01*
X14394Y15178D01*
X14400Y15160D01*
X14401Y15160D01*
X14412Y15171D01*
X14413Y15172D01*
X14441Y15201D01*
X14446Y15205D01*
X14456Y15210D01*
X14460Y15212D01*
X14461Y15213D01*
X14468Y15226D01*
X14468Y15228D01*
X14465Y15227D01*
X14457Y15227D01*
X14450Y15225D01*
X14443Y15223D01*
X14426Y15215D01*
X14425Y15213D01*
X14423Y15212D01*
X14422Y15211D01*
X14420Y15210D01*
X14416Y15206D01*
X14416Y15207D01*
X14421Y15212D01*
X14422Y15212D01*
X14425Y15216D01*
X14427Y15216D01*
X14429Y15218D01*
X14434Y15221D01*
X14441Y15224D01*
X14447Y15226D01*
X14464Y15232D01*
X14469Y15234D01*
X14474Y15235D01*
X14486Y15238D01*
X14490Y15239D01*
X14493Y15239D01*
X14497Y15240D01*
X14502Y15241D01*
X14506Y15242D01*
X14510Y15243D01*
X14519Y15244D01*
X14522Y15245D01*
X14533Y15245D01*
X14536Y15246D01*
X14558Y15247D01*
X14560Y15248D01*
X14584Y15247D01*
D02*
G37*
G36*
X13723Y15746D02*
X13726Y15745D01*
X13736Y15744D01*
X13740Y15743D01*
X13745Y15743D01*
X13749Y15742D01*
X13752Y15741D01*
X13757Y15740D01*
X13768Y15737D01*
X13784Y15732D01*
X13789Y15730D01*
X13793Y15728D01*
X13799Y15726D01*
X13817Y15717D01*
X13830Y15710D01*
X13835Y15707D01*
X13837Y15708D01*
X13840Y15705D01*
X13849Y15698D01*
X13851Y15697D01*
X13862Y15689D01*
X13864Y15688D01*
X13865Y15687D01*
X13867Y15686D01*
X13871Y15682D01*
X13872Y15680D01*
X13878Y15674D01*
X13879Y15672D01*
X13882Y15669D01*
X13884Y15666D01*
X13887Y15662D01*
X13893Y15655D01*
X13894Y15653D01*
X13895Y15652D01*
X13896Y15650D01*
X13900Y15645D01*
X13901Y15643D01*
X13904Y15639D01*
X13907Y15633D01*
X13916Y15617D01*
X13918Y15612D01*
X13922Y15601D01*
X13928Y15584D01*
X13929Y15579D01*
X13931Y15573D01*
X13932Y15569D01*
X13932Y15566D01*
X13934Y15558D01*
X13935Y15554D01*
X13936Y15544D01*
X13937Y15542D01*
X13937Y15520D01*
X13938Y15518D01*
X13938Y15510D01*
X13937Y15471D01*
X13936Y15457D01*
X13935Y15441D01*
X13934Y15438D01*
X13933Y15428D01*
X13932Y15418D01*
X13931Y15414D01*
X13930Y15409D01*
X13928Y15403D01*
X13927Y15399D01*
X13926Y15396D01*
X13925Y15391D01*
X13919Y15380D01*
X13916Y15373D01*
X13915Y15372D01*
X13912Y15367D01*
X13911Y15365D01*
X13907Y15360D01*
X13906Y15358D01*
X13905Y15357D01*
X13904Y15355D01*
X13902Y15354D01*
X13901Y15352D01*
X13900Y15351D01*
X13899Y15349D01*
X13897Y15347D01*
X13896Y15345D01*
X13892Y15341D01*
X13891Y15340D01*
X13870Y15318D01*
X13868Y15317D01*
X13864Y15313D01*
X13863Y15313D01*
X13860Y15310D01*
X13859Y15309D01*
X13857Y15308D01*
X13855Y15306D01*
X13854Y15306D01*
X13851Y15303D01*
X13848Y15301D01*
X13832Y15291D01*
X13806Y15277D01*
X13795Y15273D01*
X13788Y15270D01*
X13783Y15267D01*
X13776Y15264D01*
X13770Y15262D01*
X13762Y15258D01*
X13761Y14874D01*
X13760Y14373D01*
X13759Y13508D01*
X13758Y13476D01*
X13760Y13451D01*
X13761Y13448D01*
X13761Y13443D01*
X13763Y13436D01*
X13766Y13426D01*
X13768Y13422D01*
X13772Y13414D01*
X13775Y13410D01*
X13777Y13409D01*
X13790Y13396D01*
X13791Y13394D01*
X13872Y13313D01*
X13874Y13312D01*
X14095Y13091D01*
X14097Y13090D01*
X14288Y12898D01*
X14290Y12898D01*
X14443Y12745D01*
X14444Y12743D01*
X14449Y12737D01*
X14450Y12736D01*
X14451Y12735D01*
X14455Y12730D01*
X14460Y12723D01*
X14468Y12712D01*
X14469Y12710D01*
X14470Y12709D01*
X14473Y12701D01*
X14475Y12696D01*
X14490Y12696D01*
X14495Y12687D01*
X14496Y12683D01*
X14497Y12666D01*
X14496Y12658D01*
X14495Y12652D01*
X14492Y12644D01*
X14489Y12637D01*
X14486Y12634D01*
X14479Y12628D01*
X14477Y12628D01*
X14476Y12626D01*
X14464Y12622D01*
X14461Y12621D01*
X14460Y12606D01*
X14459Y12606D01*
X14454Y12604D01*
X14446Y12602D01*
X14424Y12595D01*
X14421Y12595D01*
X14415Y12593D01*
X14413Y12592D01*
X14407Y12592D01*
X14342Y12657D01*
X14340Y12658D01*
X14285Y12713D01*
X14284Y12715D01*
X14280Y12719D01*
X14279Y12720D01*
X14278Y12722D01*
X14274Y12727D01*
X14268Y12737D01*
X14263Y12745D01*
X14260Y12752D01*
X14258Y12756D01*
X14243Y12757D01*
X14237Y12769D01*
X14236Y12770D01*
X14233Y12774D01*
X14228Y12778D01*
X14225Y12780D01*
X14216Y12787D01*
X14214Y12788D01*
X14213Y12790D01*
X14211Y12790D01*
X14209Y12792D01*
X14208Y12793D01*
X14206Y12794D01*
X14205Y12795D01*
X14203Y12797D01*
X14202Y12797D01*
X14199Y12800D01*
X14198Y12800D01*
X14196Y12802D01*
X14195Y12803D01*
X14193Y12804D01*
X14191Y12805D01*
X14190Y12807D01*
X14188Y12808D01*
X14187Y12809D01*
X14185Y12810D01*
X14184Y12811D01*
X14182Y12812D01*
X14180Y12814D01*
X14179Y12815D01*
X14177Y12817D01*
X14175Y12818D01*
X14173Y12819D01*
X14172Y12820D01*
X14170Y12822D01*
X14169Y12822D01*
X14167Y12824D01*
X14166Y12825D01*
X14164Y12826D01*
X14162Y12827D01*
X14160Y12829D01*
X14159Y12830D01*
X14157Y12832D01*
X14155Y12833D01*
X14154Y12834D01*
X14152Y12835D01*
X14151Y12836D01*
X14149Y12837D01*
X14148Y12839D01*
X14146Y12840D01*
X14144Y12841D01*
X14143Y12842D01*
X14141Y12844D01*
X14139Y12845D01*
X14137Y12847D01*
X14135Y12848D01*
X14134Y12850D01*
X14132Y12851D01*
X14130Y12853D01*
X14128Y12854D01*
X14126Y12856D01*
X14124Y12857D01*
X14123Y12858D01*
X14121Y12859D01*
X14119Y12862D01*
X14117Y12862D01*
X14115Y12865D01*
X14113Y12865D01*
X14112Y12867D01*
X14110Y12868D01*
X14108Y12870D01*
X14106Y12871D01*
X14104Y12873D01*
X14102Y12874D01*
X14100Y12876D01*
X14098Y12877D01*
X14097Y12879D01*
X14095Y12880D01*
X14093Y12882D01*
X14091Y12883D01*
X14089Y12885D01*
X14087Y12886D01*
X14085Y12888D01*
X14083Y12889D01*
X14081Y12891D01*
X14080Y12892D01*
X14076Y12895D01*
X14075Y12896D01*
X14072Y12898D01*
X14071Y12899D01*
X14068Y12902D01*
X14066Y12903D01*
X14064Y12905D01*
X14062Y12906D01*
X14060Y12908D01*
X14058Y12909D01*
X14055Y12912D01*
X14054Y12913D01*
X14051Y12916D01*
X14050Y12916D01*
X14047Y12919D01*
X14045Y12920D01*
X14043Y12923D01*
X14041Y12923D01*
X14039Y12926D01*
X14037Y12926D01*
X14034Y12930D01*
X14033Y12930D01*
X14029Y12934D01*
X14027Y12935D01*
X14024Y12938D01*
X14022Y12939D01*
X14018Y12943D01*
X14017Y12944D01*
X14014Y12947D01*
X14012Y12948D01*
X14008Y12952D01*
X14007Y12952D01*
X14003Y12956D01*
X14001Y12957D01*
X13998Y12960D01*
X13997Y12961D01*
X13993Y12965D01*
X13991Y12966D01*
X13988Y12969D01*
X13986Y12970D01*
X13982Y12973D01*
X13981Y12974D01*
X13975Y12980D01*
X13974Y12980D01*
X13968Y12986D01*
X13967Y12987D01*
X13962Y12991D01*
X13961Y12992D01*
X13955Y12998D01*
X13954Y12998D01*
X13948Y13004D01*
X13946Y13005D01*
X13941Y13010D01*
X13939Y13011D01*
X13934Y13016D01*
X13932Y13017D01*
X13926Y13024D01*
X13925Y13024D01*
X13917Y13032D01*
X13915Y13033D01*
X13907Y13041D01*
X13906Y13042D01*
X13895Y13052D01*
X13893Y13053D01*
X13882Y13065D01*
X13880Y13066D01*
X13861Y13085D01*
X13860Y13085D01*
X13805Y13140D01*
X13804Y13141D01*
X13788Y13158D01*
X13787Y13159D01*
X13779Y13167D01*
X13779Y13169D01*
X13773Y13174D01*
X13772Y13176D01*
X13767Y13181D01*
X13766Y13183D01*
X13763Y13186D01*
X13762Y13187D01*
X13759Y13191D01*
X13758Y13192D01*
X13755Y13195D01*
X13754Y13197D01*
X13751Y13200D01*
X13750Y13202D01*
X13748Y13204D01*
X13747Y13205D01*
X13745Y13208D01*
X13744Y13209D01*
X13743Y13211D01*
X13742Y13213D01*
X13739Y13215D01*
X13739Y13216D01*
X13736Y13219D01*
X13736Y13220D01*
X13733Y13224D01*
X13718Y13245D01*
X13717Y13246D01*
X13716Y13247D01*
X13709Y13257D01*
X13703Y13267D01*
X13702Y13268D01*
X13698Y13274D01*
X13697Y13275D01*
X13692Y13284D01*
X13691Y13285D01*
X13687Y13292D01*
X13686Y13293D01*
X13682Y13299D01*
X13679Y13305D01*
X13662Y13337D01*
X13653Y13356D01*
X13642Y13381D01*
X13640Y13385D01*
X13638Y13391D01*
X13635Y13399D01*
X13629Y13416D01*
X13624Y13429D01*
X13620Y13443D01*
X13617Y13451D01*
X13614Y13462D01*
X13613Y13466D01*
X13608Y13488D01*
X13607Y13492D01*
X13605Y13499D01*
X13604Y13502D01*
X13604Y13506D01*
X13600Y13525D01*
X13598Y13535D01*
X13597Y13538D01*
X13597Y13543D01*
X13595Y13553D01*
X13593Y13569D01*
X13590Y13594D01*
X13589Y13602D01*
X13588Y13609D01*
X13587Y13618D01*
X13586Y13636D01*
X13585Y13661D01*
X13584Y13663D01*
X13583Y13706D01*
X13582Y13708D01*
X13583Y13780D01*
X13583Y13812D01*
X13584Y13835D01*
X13585Y13855D01*
X13586Y13890D01*
X13588Y13922D01*
X13589Y13935D01*
X13590Y13961D01*
X13591Y13964D01*
X13594Y14010D01*
X13594Y14021D01*
X13597Y14062D01*
X13599Y14081D01*
X13600Y14089D01*
X13601Y14099D01*
X13602Y14116D01*
X13604Y14132D01*
X13604Y14140D01*
X13607Y14164D01*
X13609Y14185D01*
X13610Y14193D01*
X13612Y14214D01*
X13614Y14226D01*
X13615Y14233D01*
X13617Y14252D01*
X13618Y14259D01*
X13619Y14269D01*
X13620Y14271D01*
X13619Y14274D01*
X13615Y14273D01*
X13593Y14267D01*
X13590Y14266D01*
X13580Y14267D01*
X13572Y14268D01*
X13563Y14269D01*
X13558Y14271D01*
X13554Y14272D01*
X13543Y14277D01*
X13541Y14278D01*
X13536Y14281D01*
X13535Y14282D01*
X13533Y14283D01*
X13532Y14284D01*
X13530Y14286D01*
X13529Y14287D01*
X13523Y14292D01*
X13523Y14293D01*
X13517Y14299D01*
X13516Y14300D01*
X13511Y14306D01*
X13510Y14307D01*
X13505Y14313D01*
X13504Y14314D01*
X13498Y14321D01*
X13497Y14322D01*
X13490Y14329D01*
X13489Y14331D01*
X13483Y14337D01*
X13482Y14339D01*
X13475Y14346D01*
X13474Y14347D01*
X13468Y14354D01*
X13467Y14355D01*
X13460Y14362D01*
X13459Y14364D01*
X13451Y14372D01*
X13450Y14374D01*
X13441Y14383D01*
X13440Y14385D01*
X13430Y14394D01*
X13430Y14396D01*
X13419Y14406D01*
X13419Y14408D01*
X13408Y14418D01*
X13408Y14419D01*
X13397Y14430D01*
X13396Y14432D01*
X13389Y14439D01*
X13388Y14440D01*
X13381Y14447D01*
X13380Y14449D01*
X13373Y14456D01*
X13372Y14458D01*
X13365Y14465D01*
X13365Y14466D01*
X13358Y14472D01*
X13358Y14474D01*
X13352Y14480D01*
X13351Y14481D01*
X13346Y14487D01*
X13345Y14488D01*
X13340Y14494D01*
X13339Y14495D01*
X13334Y14500D01*
X13333Y14501D01*
X13328Y14507D01*
X13327Y14508D01*
X13320Y14516D01*
X13319Y14517D01*
X13312Y14524D01*
X13311Y14526D01*
X13300Y14537D01*
X13300Y14538D01*
X13279Y14559D01*
X13279Y14560D01*
X13270Y14568D01*
X13269Y14569D01*
X13252Y14586D01*
X13250Y14587D01*
X13243Y14594D01*
X13241Y14595D01*
X13235Y14601D01*
X13234Y14602D01*
X13230Y14605D01*
X13229Y14606D01*
X13225Y14610D01*
X13223Y14611D01*
X13222Y14612D01*
X13218Y14615D01*
X13211Y14621D01*
X13209Y14622D01*
X13204Y14625D01*
X13184Y14636D01*
X13180Y14638D01*
X13174Y14640D01*
X13162Y14644D01*
X13157Y14645D01*
X13151Y14647D01*
X13147Y14648D01*
X13144Y14649D01*
X13136Y14650D01*
X13134Y14651D01*
X13125Y14651D01*
X13122Y14652D01*
X13105Y14653D01*
X13100Y14654D01*
X13075Y14653D01*
X13052Y14652D01*
X13035Y14650D01*
X13007Y14647D01*
X13001Y14646D01*
X12994Y14645D01*
X12987Y14645D01*
X12980Y14644D01*
X12964Y14643D01*
X12961Y14642D01*
X12956Y14642D01*
X12940Y14645D01*
X12937Y14645D01*
X12924Y14648D01*
X12918Y14650D01*
X12915Y14651D01*
X12910Y14652D01*
X12893Y14657D01*
X12888Y14659D01*
X12883Y14661D01*
X12862Y14672D01*
X12856Y14676D01*
X12854Y14676D01*
X12844Y14683D01*
X12842Y14684D01*
X12841Y14686D01*
X12839Y14687D01*
X12837Y14689D01*
X12835Y14690D01*
X12833Y14692D01*
X12831Y14693D01*
X12818Y14706D01*
X12817Y14708D01*
X12809Y14716D01*
X12808Y14717D01*
X12800Y14725D01*
X12800Y14727D01*
X12798Y14728D01*
X12795Y14732D01*
X12789Y14739D01*
X12789Y14741D01*
X12785Y14746D01*
X12784Y14748D01*
X12780Y14754D01*
X12772Y14769D01*
X12770Y14773D01*
X12767Y14781D01*
X12765Y14786D01*
X12762Y14794D01*
X12757Y14809D01*
X12756Y14814D01*
X12755Y14819D01*
X12753Y14825D01*
X12752Y14829D01*
X12749Y14842D01*
X12748Y14844D01*
X12747Y14872D01*
X12746Y14874D01*
X12747Y14886D01*
X12748Y14903D01*
X12749Y14918D01*
X12750Y14921D01*
X12751Y14931D01*
X12751Y14936D01*
X12752Y14940D01*
X12753Y14947D01*
X12757Y14962D01*
X12759Y14968D01*
X12764Y14985D01*
X12767Y14994D01*
X12770Y15000D01*
X12771Y15004D01*
X12789Y15039D01*
X12793Y15045D01*
X12793Y15047D01*
X12797Y15053D01*
X12798Y15055D01*
X12801Y15059D01*
X12802Y15061D01*
X12814Y15077D01*
X12814Y15079D01*
X12816Y15081D01*
X12817Y15082D01*
X12818Y15084D01*
X12819Y15085D01*
X12821Y15088D01*
X12822Y15089D01*
X12824Y15091D01*
X12825Y15092D01*
X12827Y15095D01*
X12828Y15096D01*
X12831Y15099D01*
X12850Y15106D01*
X12857Y15109D01*
X12875Y15118D01*
X12887Y15123D01*
X12904Y15129D01*
X12910Y15130D01*
X12914Y15131D01*
X12917Y15132D01*
X12925Y15134D01*
X12928Y15135D01*
X12932Y15135D01*
X12942Y15137D01*
X12953Y15138D01*
X12955Y15139D01*
X12976Y15140D01*
X12978Y15140D01*
X13048Y15140D01*
X13055Y15139D01*
X13066Y15138D01*
X13069Y15137D01*
X13074Y15136D01*
X13082Y15133D01*
X13086Y15132D01*
X13091Y15130D01*
X13095Y15129D01*
X13115Y15119D01*
X13123Y15114D01*
X13125Y15113D01*
X13130Y15109D01*
X13132Y15108D01*
X13133Y15107D01*
X13135Y15106D01*
X13136Y15104D01*
X13138Y15104D01*
X13140Y15101D01*
X13142Y15101D01*
X13144Y15098D01*
X13146Y15097D01*
X13150Y15093D01*
X13151Y15093D01*
X13157Y15087D01*
X13158Y15086D01*
X13185Y15060D01*
X13185Y15059D01*
X13189Y15056D01*
X13190Y15053D01*
X13194Y15048D01*
X13203Y15036D01*
X13204Y15034D01*
X13208Y15029D01*
X13209Y15027D01*
X13213Y15021D01*
X13225Y14998D01*
X13226Y14994D01*
X13229Y14988D01*
X13231Y14983D01*
X13232Y14979D01*
X13235Y14971D01*
X13236Y14967D01*
X13239Y14954D01*
X13240Y14949D01*
X13241Y14946D01*
X13241Y14941D01*
X13243Y14931D01*
X13243Y14929D01*
X13244Y14915D01*
X13245Y14912D01*
X13244Y14859D01*
X13244Y14845D01*
X13243Y14836D01*
X13241Y14827D01*
X13239Y14818D01*
X13238Y14815D01*
X13237Y14806D01*
X13236Y14804D01*
X13235Y14788D01*
X13237Y14784D01*
X13239Y14778D01*
X13243Y14770D01*
X13250Y14755D01*
X13253Y14752D01*
X13254Y14750D01*
X13490Y14514D01*
X13492Y14514D01*
X13511Y14495D01*
X13512Y14494D01*
X13525Y14481D01*
X13526Y14481D01*
X13535Y14472D01*
X13536Y14471D01*
X13543Y14465D01*
X13544Y14464D01*
X13550Y14459D01*
X13551Y14458D01*
X13558Y14452D01*
X13559Y14451D01*
X13564Y14446D01*
X13565Y14445D01*
X13571Y14440D01*
X13572Y14439D01*
X13592Y14420D01*
X13592Y14418D01*
X13595Y14416D01*
X13595Y14415D01*
X13597Y14413D01*
X13598Y14411D01*
X13602Y14406D01*
X13608Y14394D01*
X13612Y14386D01*
X13627Y14386D01*
X13626Y14469D01*
X13621Y15098D01*
X13620Y15250D01*
X13617Y15252D01*
X13603Y15258D01*
X13561Y15278D01*
X13555Y15282D01*
X13545Y15288D01*
X13540Y15291D01*
X13539Y15291D01*
X13533Y15295D01*
X13532Y15296D01*
X13515Y15308D01*
X13514Y15309D01*
X13511Y15311D01*
X13510Y15312D01*
X13508Y15313D01*
X13507Y15314D01*
X13504Y15317D01*
X13503Y15317D01*
X13500Y15320D01*
X13499Y15320D01*
X13495Y15324D01*
X13493Y15325D01*
X13489Y15330D01*
X13487Y15331D01*
X13473Y15344D01*
X13473Y15346D01*
X13469Y15351D01*
X13469Y15352D01*
X13465Y15358D01*
X13462Y15364D01*
X13458Y15369D01*
X13453Y15378D01*
X13450Y15384D01*
X13448Y15388D01*
X13444Y15396D01*
X13442Y15403D01*
X13438Y15412D01*
X13437Y15417D01*
X13436Y15420D01*
X13435Y15424D01*
X13435Y15427D01*
X13433Y15435D01*
X13432Y15444D01*
X13431Y15446D01*
X13430Y15459D01*
X13430Y15462D01*
X13429Y15516D01*
X13430Y15540D01*
X13431Y15556D01*
X13432Y15559D01*
X13433Y15564D01*
X13434Y15570D01*
X13437Y15579D01*
X13449Y15599D01*
X13450Y15601D01*
X13454Y15607D01*
X13455Y15609D01*
X13459Y15615D01*
X13459Y15617D01*
X13462Y15621D01*
X13463Y15623D01*
X13467Y15629D01*
X13468Y15631D01*
X13471Y15635D01*
X13472Y15637D01*
X13483Y15654D01*
X13486Y15660D01*
X13490Y15665D01*
X13491Y15667D01*
X13494Y15671D01*
X13495Y15673D01*
X13514Y15700D01*
X13537Y15701D01*
X13544Y15723D01*
X13554Y15728D01*
X13559Y15730D01*
X13563Y15732D01*
X13570Y15734D01*
X13574Y15736D01*
X13581Y15738D01*
X13590Y15740D01*
X13598Y15742D01*
X13604Y15743D01*
X13608Y15744D01*
X13618Y15745D01*
X13633Y15746D01*
X13636Y15747D01*
X13698Y15748D01*
X13723Y15746D01*
D02*
G37*
G36*
X15364Y14067D02*
X15391Y14066D01*
X15400Y14065D01*
X15408Y14064D01*
X15422Y14063D01*
X15425Y14062D01*
X15453Y14059D01*
X15457Y14058D01*
X15461Y14057D01*
X15466Y14056D01*
X15470Y14055D01*
X15474Y14055D01*
X15478Y14054D01*
X15483Y14053D01*
X15487Y14052D01*
X15490Y14051D01*
X15494Y14051D01*
X15497Y14050D01*
X15501Y14049D01*
X15506Y14048D01*
X15525Y14043D01*
X15530Y14042D01*
X15540Y14039D01*
X15569Y14030D01*
X15572Y14030D01*
X15598Y14021D01*
X15625Y14010D01*
X15639Y14003D01*
X15685Y13981D01*
X15692Y13977D01*
X15698Y13974D01*
X15708Y13968D01*
X15717Y13963D01*
X15718Y13962D01*
X15727Y13956D01*
X15732Y13953D01*
X15738Y13949D01*
X15739Y13949D01*
X15750Y13941D01*
X15752Y13940D01*
X15757Y13936D01*
X15759Y13935D01*
X15761Y13934D01*
X15762Y13933D01*
X15764Y13931D01*
X15765Y13931D01*
X15767Y13929D01*
X15768Y13928D01*
X15770Y13927D01*
X15771Y13926D01*
X15773Y13924D01*
X15775Y13923D01*
X15776Y13922D01*
X15778Y13921D01*
X15780Y13919D01*
X15782Y13918D01*
X15783Y13916D01*
X15785Y13916D01*
X15790Y13910D01*
X15792Y13909D01*
X15798Y13903D01*
X15800Y13902D01*
X15804Y13898D01*
X15805Y13898D01*
X15842Y13860D01*
X15842Y13860D01*
X15842Y13859D01*
X15843Y13857D01*
X15849Y13852D01*
X15849Y13850D01*
X15854Y13846D01*
X15855Y13844D01*
X15858Y13841D01*
X15859Y13839D01*
X15862Y13836D01*
X15863Y13835D01*
X15865Y13832D01*
X15867Y13830D01*
X15870Y13825D01*
X15872Y13823D01*
X15876Y13818D01*
X15881Y13811D01*
X15883Y13808D01*
X15895Y13793D01*
X15896Y13792D01*
X15897Y13790D01*
X15898Y13788D01*
X15902Y13783D01*
X15903Y13781D01*
X15910Y13771D01*
X15911Y13769D01*
X15914Y13764D01*
X15917Y13759D01*
X15921Y13753D01*
X15922Y13752D01*
X15926Y13745D01*
X15927Y13744D01*
X15931Y13738D01*
X15937Y13727D01*
X15941Y13720D01*
X15964Y13675D01*
X15969Y13662D01*
X15978Y13643D01*
X15987Y13619D01*
X15990Y13613D01*
X15993Y13604D01*
X15997Y13593D01*
X16004Y13572D01*
X16008Y13559D01*
X16013Y13544D01*
X16014Y13539D01*
X16015Y13536D01*
X16018Y13527D01*
X16020Y13521D01*
X16025Y13509D01*
X16029Y13493D01*
X16031Y13488D01*
X16031Y13485D01*
X16032Y13481D01*
X16034Y13472D01*
X16035Y13468D01*
X16036Y13465D01*
X16037Y13461D01*
X16038Y13456D01*
X16039Y13448D01*
X16040Y13444D01*
X16044Y13417D01*
X16045Y13403D01*
X16046Y13401D01*
X16047Y13385D01*
X16047Y13382D01*
X16048Y13350D01*
X16049Y13348D01*
X16049Y13284D01*
X16048Y13254D01*
X16047Y13239D01*
X16046Y13226D01*
X16045Y13207D01*
X16042Y13180D01*
X16041Y13177D01*
X16038Y13150D01*
X16034Y13132D01*
X16034Y13128D01*
X16033Y13123D01*
X16029Y13103D01*
X16028Y13100D01*
X16027Y13092D01*
X16026Y13089D01*
X16025Y13084D01*
X16019Y13062D01*
X16018Y13057D01*
X16017Y13054D01*
X16012Y13037D01*
X16009Y13027D01*
X15998Y12995D01*
X15993Y12979D01*
X15985Y12959D01*
X15978Y12943D01*
X15975Y12935D01*
X15952Y12889D01*
X15947Y12881D01*
X15942Y12871D01*
X15938Y12864D01*
X15937Y12863D01*
X15933Y12856D01*
X15932Y12855D01*
X15928Y12849D01*
X15925Y12843D01*
X15921Y12838D01*
X15921Y12836D01*
X15914Y12826D01*
X15913Y12824D01*
X15897Y12802D01*
X15896Y12801D01*
X15894Y12799D01*
X15893Y12797D01*
X15892Y12795D01*
X15891Y12794D01*
X15889Y12792D01*
X15888Y12791D01*
X15887Y12789D01*
X15886Y12788D01*
X15884Y12785D01*
X15883Y12784D01*
X15881Y12781D01*
X15880Y12780D01*
X15878Y12777D01*
X15877Y12776D01*
X15874Y12773D01*
X15874Y12772D01*
X15857Y12755D01*
X15856Y12754D01*
X15849Y12746D01*
X15847Y12746D01*
X15836Y12734D01*
X15834Y12733D01*
X15826Y12725D01*
X15825Y12725D01*
X15821Y12721D01*
X15819Y12720D01*
X15816Y12717D01*
X15815Y12716D01*
X15811Y12712D01*
X15809Y12711D01*
X15805Y12707D01*
X15804Y12707D01*
X15801Y12704D01*
X15800Y12703D01*
X15798Y12702D01*
X15795Y12700D01*
X15791Y12696D01*
X15788Y12694D01*
X15779Y12687D01*
X15777Y12686D01*
X15775Y12685D01*
X15774Y12684D01*
X15772Y12682D01*
X15771Y12682D01*
X15760Y12674D01*
X15758Y12673D01*
X15753Y12669D01*
X15751Y12668D01*
X15746Y12664D01*
X15744Y12664D01*
X15739Y12660D01*
X15738Y12660D01*
X15729Y12654D01*
X15722Y12650D01*
X15716Y12646D01*
X15702Y12638D01*
X15681Y12628D01*
X15663Y12619D01*
X15654Y12615D01*
X15643Y12610D01*
X15636Y12608D01*
X15629Y12604D01*
X15622Y12602D01*
X15618Y12601D01*
X15610Y12597D01*
X15581Y12588D01*
X15571Y12584D01*
X15566Y12583D01*
X15563Y12582D01*
X15557Y12581D01*
X15548Y12578D01*
X15543Y12577D01*
X15539Y12576D01*
X15533Y12575D01*
X15529Y12574D01*
X15526Y12573D01*
X15522Y12572D01*
X15519Y12572D01*
X15511Y12570D01*
X15507Y12569D01*
X15503Y12568D01*
X15479Y12565D01*
X15460Y12562D01*
X15447Y12561D01*
X15444Y12560D01*
X15411Y12559D01*
X15408Y12559D01*
X15370Y12559D01*
X15351Y12560D01*
X15335Y12561D01*
X15317Y12562D01*
X15314Y12563D01*
X15303Y12563D01*
X15298Y12564D01*
X15276Y12567D01*
X15266Y12568D01*
X15262Y12569D01*
X15258Y12570D01*
X15238Y12574D01*
X15235Y12575D01*
X15230Y12576D01*
X15221Y12578D01*
X15215Y12580D01*
X15212Y12581D01*
X15201Y12584D01*
X15179Y12590D01*
X15168Y12594D01*
X15165Y12596D01*
X15159Y12598D01*
X15152Y12601D01*
X15141Y12606D01*
X15095Y12628D01*
X15088Y12632D01*
X15083Y12635D01*
X15081Y12636D01*
X15075Y12640D01*
X15070Y12643D01*
X15064Y12647D01*
X15062Y12648D01*
X15057Y12652D01*
X15055Y12653D01*
X15037Y12666D01*
X15035Y12667D01*
X15034Y12668D01*
X15032Y12669D01*
X15030Y12671D01*
X15029Y12671D01*
X15027Y12673D01*
X15026Y12674D01*
X15024Y12675D01*
X15023Y12676D01*
X15020Y12678D01*
X15019Y12679D01*
X15017Y12681D01*
X15015Y12682D01*
X15013Y12684D01*
X15012Y12685D01*
X15009Y12687D01*
X15008Y12688D01*
X15005Y12691D01*
X15003Y12692D01*
X15000Y12695D01*
X14998Y12696D01*
X14994Y12700D01*
X14993Y12700D01*
X14989Y12704D01*
X14987Y12705D01*
X14980Y12712D01*
X14979Y12713D01*
X14972Y12719D01*
X14971Y12720D01*
X14965Y12726D01*
X14964Y12584D01*
X14694Y12584D01*
X14693Y13357D01*
X15317Y13357D01*
X15317Y13122D01*
X15316Y13102D01*
X15001Y13101D01*
X15001Y13100D01*
X15002Y13096D01*
X15004Y13085D01*
X15005Y13076D01*
X15007Y13066D01*
X15008Y13061D01*
X15008Y13057D01*
X15010Y13048D01*
X15012Y13040D01*
X15012Y13037D01*
X15013Y13033D01*
X15014Y13028D01*
X15017Y13018D01*
X15018Y13013D01*
X15020Y13006D01*
X15021Y13003D01*
X15024Y12996D01*
X15027Y12988D01*
X15037Y12967D01*
X15043Y12957D01*
X15046Y12951D01*
X15047Y12950D01*
X15049Y12948D01*
X15050Y12946D01*
X15051Y12945D01*
X15052Y12943D01*
X15053Y12942D01*
X15054Y12940D01*
X15056Y12939D01*
X15057Y12937D01*
X15060Y12934D01*
X15060Y12932D01*
X15063Y12930D01*
X15064Y12928D01*
X15069Y12923D01*
X15070Y12921D01*
X15093Y12898D01*
X15095Y12898D01*
X15098Y12894D01*
X15100Y12893D01*
X15103Y12890D01*
X15105Y12889D01*
X15106Y12887D01*
X15108Y12887D01*
X15110Y12884D01*
X15112Y12883D01*
X15113Y12882D01*
X15115Y12881D01*
X15116Y12880D01*
X15118Y12879D01*
X15123Y12875D01*
X15125Y12874D01*
X15131Y12870D01*
X15132Y12869D01*
X15138Y12865D01*
X15166Y12851D01*
X15172Y12849D01*
X15176Y12847D01*
X15195Y12840D01*
X15204Y12838D01*
X15219Y12834D01*
X15227Y12832D01*
X15235Y12831D01*
X15237Y12830D01*
X15266Y12829D01*
X15268Y12829D01*
X15331Y12829D01*
X15344Y12830D01*
X15355Y12831D01*
X15363Y12831D01*
X15377Y12833D01*
X15386Y12834D01*
X15389Y12835D01*
X15394Y12836D01*
X15419Y12840D01*
X15425Y12842D01*
X15440Y12846D01*
X15446Y12847D01*
X15471Y12856D01*
X15475Y12857D01*
X15480Y12859D01*
X15486Y12862D01*
X15490Y12863D01*
X15497Y12866D01*
X15515Y12875D01*
X15534Y12885D01*
X15542Y12890D01*
X15556Y12899D01*
X15566Y12907D01*
X15567Y12908D01*
X15570Y12911D01*
X15572Y12912D01*
X15575Y12915D01*
X15577Y12916D01*
X15579Y12918D01*
X15581Y12919D01*
X15588Y12926D01*
X15589Y12926D01*
X15604Y12942D01*
X15605Y12943D01*
X15611Y12949D01*
X15611Y12950D01*
X15615Y12953D01*
X15617Y12956D01*
X15620Y12961D01*
X15633Y12979D01*
X15636Y12982D01*
X15640Y12988D01*
X15640Y12989D01*
X15644Y12996D01*
X15647Y13001D01*
X15659Y13023D01*
X15667Y13042D01*
X15670Y13049D01*
X15675Y13063D01*
X15676Y13067D01*
X15681Y13077D01*
X15685Y13083D01*
X15688Y13091D01*
X15690Y13099D01*
X15692Y13105D01*
X15693Y13108D01*
X15694Y13112D01*
X15698Y13128D01*
X15699Y13132D01*
X15699Y13135D01*
X15700Y13139D01*
X15701Y13142D01*
X15703Y13153D01*
X15704Y13158D01*
X15706Y13166D01*
X15709Y13186D01*
X15710Y13191D01*
X15713Y13216D01*
X15714Y13231D01*
X15715Y13233D01*
X15716Y13249D01*
X15716Y13251D01*
X15717Y13287D01*
X15718Y13289D01*
X15717Y13340D01*
X15716Y13346D01*
X15715Y13369D01*
X15714Y13378D01*
X15712Y13398D01*
X15712Y13401D01*
X15710Y13412D01*
X15708Y13427D01*
X15707Y13432D01*
X15707Y13436D01*
X15706Y13441D01*
X15703Y13456D01*
X15701Y13461D01*
X15696Y13483D01*
X15693Y13494D01*
X15690Y13502D01*
X15683Y13525D01*
X15681Y13530D01*
X15673Y13550D01*
X15670Y13557D01*
X15654Y13589D01*
X15649Y13599D01*
X15645Y13606D01*
X15640Y13615D01*
X15636Y13620D01*
X15633Y13626D01*
X15632Y13627D01*
X15620Y13644D01*
X15619Y13645D01*
X15618Y13647D01*
X15617Y13648D01*
X15615Y13651D01*
X15614Y13652D01*
X15612Y13654D01*
X15611Y13655D01*
X15609Y13658D01*
X15608Y13659D01*
X15606Y13662D01*
X15605Y13663D01*
X15603Y13666D01*
X15602Y13667D01*
X15598Y13671D01*
X15597Y13673D01*
X15594Y13676D01*
X15592Y13679D01*
X15591Y13679D01*
X15586Y13684D01*
X15584Y13685D01*
X15580Y13690D01*
X15578Y13690D01*
X15573Y13695D01*
X15572Y13696D01*
X15568Y13700D01*
X15566Y13700D01*
X15563Y13704D01*
X15562Y13704D01*
X15560Y13706D01*
X15553Y13711D01*
X15535Y13725D01*
X15534Y13726D01*
X15528Y13729D01*
X15527Y13730D01*
X15522Y13733D01*
X15520Y13734D01*
X15514Y13738D01*
X15492Y13749D01*
X15489Y13751D01*
X15480Y13755D01*
X15472Y13758D01*
X15464Y13761D01*
X15451Y13765D01*
X15442Y13768D01*
X15433Y13771D01*
X15429Y13771D01*
X15423Y13773D01*
X15419Y13774D01*
X15414Y13774D01*
X15410Y13775D01*
X15406Y13776D01*
X15397Y13777D01*
X15394Y13778D01*
X15382Y13779D01*
X15379Y13779D01*
X15329Y13780D01*
X15314Y13779D01*
X15311Y13779D01*
X15300Y13778D01*
X15297Y13777D01*
X15292Y13776D01*
X15271Y13772D01*
X15255Y13769D01*
X15250Y13767D01*
X15230Y13761D01*
X15221Y13758D01*
X15213Y13754D01*
X15207Y13752D01*
X15203Y13751D01*
X15171Y13735D01*
X15165Y13731D01*
X15159Y13728D01*
X15158Y13727D01*
X15153Y13724D01*
X15152Y13723D01*
X15146Y13719D01*
X15145Y13718D01*
X15139Y13715D01*
X15138Y13714D01*
X15136Y13712D01*
X15134Y13711D01*
X15133Y13710D01*
X15131Y13709D01*
X15130Y13707D01*
X15128Y13707D01*
X15127Y13705D01*
X15125Y13704D01*
X15123Y13702D01*
X15121Y13701D01*
X15119Y13699D01*
X15117Y13698D01*
X15114Y13695D01*
X15113Y13694D01*
X15106Y13688D01*
X15105Y13687D01*
X15084Y13666D01*
X15083Y13665D01*
X15078Y13659D01*
X15075Y13655D01*
X15073Y13650D01*
X15071Y13646D01*
X15067Y13635D01*
X15060Y13621D01*
X15052Y13603D01*
X15048Y13597D01*
X15045Y13591D01*
X15044Y13590D01*
X15040Y13584D01*
X15039Y13583D01*
X15038Y13581D01*
X15037Y13580D01*
X15035Y13578D01*
X15035Y13576D01*
X15032Y13574D01*
X15032Y13572D01*
X15029Y13570D01*
X15019Y13563D01*
X15017Y13561D01*
X15009Y13556D01*
X15005Y13555D01*
X14999Y13552D01*
X14993Y13551D01*
X14990Y13550D01*
X14973Y13549D01*
X14971Y13549D01*
X14956Y13549D01*
X14933Y13550D01*
X14901Y13551D01*
X14887Y13552D01*
X14871Y13553D01*
X14835Y13555D01*
X14813Y13555D01*
X14765Y13557D01*
X14747Y13558D01*
X14731Y13558D01*
X14699Y13560D01*
X14694Y13561D01*
X14695Y13608D01*
X14695Y13611D01*
X14697Y13619D01*
X14698Y13624D01*
X14700Y13630D01*
X14701Y13636D01*
X14703Y13642D01*
X14704Y13648D01*
X14707Y13655D01*
X14713Y13676D01*
X14717Y13685D01*
X14719Y13690D01*
X14722Y13698D01*
X14724Y13703D01*
X14726Y13707D01*
X14728Y13713D01*
X14746Y13749D01*
X14755Y13767D01*
X14759Y13773D01*
X14760Y13774D01*
X14764Y13781D01*
X14765Y13782D01*
X14769Y13788D01*
X14769Y13789D01*
X14773Y13794D01*
X14773Y13796D01*
X14785Y13812D01*
X14786Y13814D01*
X14787Y13815D01*
X14788Y13817D01*
X14790Y13818D01*
X14791Y13820D01*
X14792Y13821D01*
X14793Y13823D01*
X14794Y13824D01*
X14795Y13826D01*
X14798Y13828D01*
X14798Y13830D01*
X14800Y13832D01*
X14801Y13833D01*
X14803Y13835D01*
X14804Y13837D01*
X14807Y13840D01*
X14808Y13842D01*
X14811Y13845D01*
X14812Y13846D01*
X14815Y13850D01*
X14816Y13851D01*
X14822Y13857D01*
X14823Y13859D01*
X14829Y13865D01*
X14830Y13867D01*
X14858Y13895D01*
X14860Y13896D01*
X14868Y13904D01*
X14869Y13905D01*
X14873Y13909D01*
X14875Y13909D01*
X14879Y13914D01*
X14881Y13915D01*
X14883Y13917D01*
X14885Y13918D01*
X14886Y13920D01*
X14888Y13920D01*
X14890Y13922D01*
X14891Y13923D01*
X14895Y13925D01*
X14910Y13937D01*
X14911Y13938D01*
X14917Y13942D01*
X14918Y13942D01*
X14924Y13946D01*
X14936Y13954D01*
X14937Y13955D01*
X14942Y13958D01*
X14943Y13959D01*
X14952Y13964D01*
X14954Y13965D01*
X14960Y13969D01*
X14974Y13977D01*
X15015Y13998D01*
X15037Y14008D01*
X15064Y14019D01*
X15075Y14022D01*
X15089Y14027D01*
X15098Y14031D01*
X15119Y14037D01*
X15127Y14039D01*
X15136Y14042D01*
X15140Y14043D01*
X15159Y14048D01*
X15163Y14048D01*
X15166Y14049D01*
X15170Y14050D01*
X15173Y14051D01*
X15177Y14051D01*
X15180Y14052D01*
X15184Y14053D01*
X15189Y14054D01*
X15193Y14055D01*
X15202Y14056D01*
X15206Y14057D01*
X15215Y14059D01*
X15224Y14060D01*
X15228Y14060D01*
X15244Y14062D01*
X15267Y14065D01*
X15283Y14066D01*
X15293Y14067D01*
X15308Y14067D01*
X15309D01*
X15364Y14067D01*
D02*
G37*
G36*
X12996Y14297D02*
X12999Y14296D01*
X13007Y14295D01*
X13010Y14294D01*
X13019Y14293D01*
X13028Y14291D01*
X13034Y14289D01*
X13049Y14284D01*
X13061Y14280D01*
X13075Y14273D01*
X13084Y14268D01*
X13090Y14265D01*
X13091Y14264D01*
X13096Y14261D01*
X13097Y14260D01*
X13108Y14253D01*
X13109Y14252D01*
X13111Y14251D01*
X13112Y14250D01*
X13114Y14248D01*
X13115Y14247D01*
X13117Y14246D01*
X13118Y14245D01*
X13121Y14243D01*
X13122Y14242D01*
X13126Y14239D01*
X13127Y14238D01*
X13130Y14235D01*
X13132Y14234D01*
X13139Y14227D01*
X13140Y14226D01*
X13158Y14209D01*
X13159Y14207D01*
X13165Y14201D01*
X13166Y14199D01*
X13171Y14195D01*
X13171Y14193D01*
X13174Y14190D01*
X13175Y14188D01*
X13178Y14186D01*
X13178Y14184D01*
X13181Y14182D01*
X13181Y14181D01*
X13183Y14179D01*
X13185Y14176D01*
X13200Y14156D01*
X13201Y14154D01*
X13202Y14153D01*
X13212Y14139D01*
X13222Y14123D01*
X13223Y14121D01*
X13226Y14116D01*
X13235Y14099D01*
X13241Y14083D01*
X13241Y14080D01*
X13243Y14073D01*
X13243Y14070D01*
X13244Y14056D01*
X13243Y14041D01*
X13228Y14040D01*
X13228Y14028D01*
X13227Y14026D01*
X13226Y13983D01*
X13227Y13971D01*
X13228Y13968D01*
X13228Y13962D01*
X13230Y13956D01*
X13233Y13946D01*
X13241Y13929D01*
X13250Y13920D01*
X13252Y13920D01*
X13255Y13916D01*
X13259Y13911D01*
X13266Y13898D01*
X13270Y13892D01*
X13271Y13890D01*
X13274Y13886D01*
X13275Y13884D01*
X13278Y13879D01*
X13279Y13878D01*
X13280Y13876D01*
X13281Y13875D01*
X13285Y13869D01*
X13286Y13868D01*
X13287Y13866D01*
X13288Y13864D01*
X13290Y13862D01*
X13291Y13860D01*
X13293Y13859D01*
X13293Y13857D01*
X13295Y13856D01*
X13296Y13854D01*
X13299Y13851D01*
X13300Y13850D01*
X13304Y13846D01*
X13304Y13844D01*
X13308Y13840D01*
X13309Y13839D01*
X13315Y13832D01*
X13316Y13831D01*
X13329Y13817D01*
X13330Y13816D01*
X13343Y13803D01*
X13345Y13802D01*
X13378Y13769D01*
X13379Y13769D01*
X13420Y13728D01*
X13421Y13727D01*
X13439Y13709D01*
X13441Y13708D01*
X13443Y13706D01*
X13445Y13705D01*
X13447Y13703D01*
X13449Y13702D01*
X13451Y13700D01*
X13453Y13699D01*
X13455Y13697D01*
X13457Y13696D01*
X13460Y13693D01*
X13463Y13688D01*
X13464Y13687D01*
X13466Y13685D01*
X13466Y13684D01*
X13470Y13677D01*
X13473Y13671D01*
X13475Y13665D01*
X13477Y13658D01*
X13477Y13655D01*
X13477Y13635D01*
X13476Y13625D01*
X13475Y13618D01*
X13475Y13610D01*
X13473Y13595D01*
X13472Y13579D01*
X13471Y13576D01*
X13470Y13555D01*
X13469Y13552D01*
X13469Y13516D01*
X13468Y13514D01*
X13469Y13454D01*
X13469Y13451D01*
X13471Y13428D01*
X13471Y13420D01*
X13472Y13412D01*
X13473Y13399D01*
X13484Y13376D01*
X13500Y13346D01*
X13508Y13331D01*
X13513Y13322D01*
X13518Y13312D01*
X13522Y13306D01*
X13526Y13299D01*
X13530Y13293D01*
X13531Y13292D01*
X13538Y13281D01*
X13539Y13279D01*
X13541Y13277D01*
X13541Y13276D01*
X13543Y13274D01*
X13544Y13273D01*
X13546Y13270D01*
X13547Y13269D01*
X13550Y13266D01*
X13551Y13264D01*
X13556Y13259D01*
X13557Y13257D01*
X13572Y13242D01*
X13574Y13241D01*
X13580Y13235D01*
X13582Y13234D01*
X13586Y13230D01*
X13587Y13229D01*
X13591Y13225D01*
X13593Y13225D01*
X13595Y13222D01*
X13597Y13222D01*
X13599Y13219D01*
X13601Y13218D01*
X13604Y13215D01*
X13605Y13214D01*
X13608Y13212D01*
X13609Y13211D01*
X13611Y13210D01*
X13612Y13209D01*
X13615Y13207D01*
X13616Y13206D01*
X13618Y13204D01*
X13619Y13204D01*
X13621Y13202D01*
X13622Y13201D01*
X13625Y13199D01*
X13626Y13198D01*
X13628Y13196D01*
X13630Y13196D01*
X13631Y13194D01*
X13633Y13193D01*
X13634Y13192D01*
X13636Y13191D01*
X13637Y13189D01*
X13639Y13189D01*
X13640Y13187D01*
X13642Y13186D01*
X13644Y13185D01*
X13645Y13184D01*
X13647Y13182D01*
X13648Y13182D01*
X13650Y13180D01*
X13651Y13179D01*
X13653Y13178D01*
X13655Y13177D01*
X13656Y13175D01*
X13658Y13175D01*
X13660Y13172D01*
X13662Y13171D01*
X13663Y13170D01*
X13665Y13169D01*
X13666Y13168D01*
X13668Y13167D01*
X13669Y13165D01*
X13671Y13164D01*
X13673Y13163D01*
X13674Y13162D01*
X13676Y13160D01*
X13678Y13159D01*
X13680Y13157D01*
X13681Y13157D01*
X13684Y13154D01*
X13685Y13153D01*
X13687Y13151D01*
X13689Y13150D01*
X13691Y13149D01*
X13692Y13148D01*
X13694Y13146D01*
X13696Y13145D01*
X13699Y13142D01*
X13701Y13141D01*
X13703Y13139D01*
X13705Y13138D01*
X13707Y13135D01*
X13709Y13135D01*
X13711Y13132D01*
X13712Y13132D01*
X13716Y13128D01*
X13717Y13128D01*
X13721Y13124D01*
X13723Y13123D01*
X13727Y13118D01*
X13729Y13117D01*
X13733Y13114D01*
X13734Y13113D01*
X13738Y13110D01*
X13739Y13109D01*
X13754Y13094D01*
X13754Y13079D01*
X13770Y13078D01*
X13772Y13076D01*
X13774Y13075D01*
X13790Y13059D01*
X13790Y13058D01*
X13796Y13052D01*
X13797Y13051D01*
X13798Y13049D01*
X13799Y13047D01*
X13803Y13042D01*
X13804Y13040D01*
X13805Y13039D01*
X13806Y13037D01*
X13809Y13034D01*
X13810Y13033D01*
X13813Y13029D01*
X13814Y13028D01*
X13817Y13025D01*
X13818Y13023D01*
X13822Y13019D01*
X13828Y13017D01*
X13834Y13015D01*
X13835Y13013D01*
X13837Y13013D01*
X13841Y13009D01*
X13842Y13008D01*
X13869Y12981D01*
X13871Y12980D01*
X13943Y12908D01*
X13944Y12908D01*
X13991Y12860D01*
X13992Y12859D01*
X13995Y12856D01*
X13996Y12854D01*
X13998Y12853D01*
X14000Y12850D01*
X14005Y12842D01*
X14013Y12826D01*
X14016Y12820D01*
X14017Y12809D01*
X14017Y12802D01*
X14016Y12800D01*
X14015Y12799D01*
X14009Y12785D01*
X14006Y12782D01*
X14005Y12781D01*
X13999Y12775D01*
X13999Y12773D01*
X13994Y12769D01*
X13993Y12767D01*
X13988Y12763D01*
X13988Y12761D01*
X13979Y12753D01*
X13978Y12752D01*
X13976Y12750D01*
X13975Y12750D01*
X13973Y12748D01*
X13968Y12745D01*
X13965Y12744D01*
X13956Y12741D01*
X13947Y12739D01*
X13945Y12738D01*
X13942Y12739D01*
X13932Y12740D01*
X13920Y12744D01*
X13913Y12747D01*
X13907Y12751D01*
X13906Y12752D01*
X13904Y12754D01*
X13903Y12754D01*
X13900Y12757D01*
X13898Y12758D01*
X13854Y12802D01*
X13853Y12804D01*
X13804Y12853D01*
X13803Y12855D01*
X13743Y12915D01*
X13742Y12917D01*
X13691Y12968D01*
X13690Y12969D01*
X13642Y13018D01*
X13641Y13019D01*
X13583Y13077D01*
X13582Y13079D01*
X13538Y13123D01*
X13537Y13125D01*
X13501Y13160D01*
X13500Y13161D01*
X13482Y13179D01*
X13480Y13180D01*
X13471Y13189D01*
X13469Y13190D01*
X13465Y13194D01*
X13464Y13195D01*
X13460Y13199D01*
X13458Y13200D01*
X13454Y13204D01*
X13453Y13204D01*
X13449Y13208D01*
X13447Y13209D01*
X13444Y13212D01*
X13442Y13213D01*
X13439Y13217D01*
X13437Y13218D01*
X13432Y13222D01*
X13431Y13223D01*
X13420Y13234D01*
X13418Y13235D01*
X13417Y13237D01*
X13411Y13254D01*
X13408Y13259D01*
X13395Y13260D01*
X13390Y13261D01*
X13385Y13265D01*
X13384Y13265D01*
X13382Y13267D01*
X13381Y13268D01*
X13377Y13272D01*
X13375Y13272D01*
X13370Y13278D01*
X13368Y13279D01*
X13367Y13280D01*
X13366Y13281D01*
X13363Y13285D01*
X13362Y13286D01*
X13359Y13289D01*
X13358Y13291D01*
X13356Y13293D01*
X13355Y13295D01*
X13350Y13301D01*
X13345Y13309D01*
X13343Y13314D01*
X13340Y13322D01*
X13338Y13329D01*
X13337Y13336D01*
X13336Y13339D01*
X13336Y13353D01*
X13335Y13356D01*
X13334Y13538D01*
Y13539D01*
Y13620D01*
X13319Y13621D01*
X13318Y13624D01*
X13316Y13628D01*
X13309Y13643D01*
X13305Y13648D01*
X13304Y13650D01*
X13303Y13652D01*
X13302Y13653D01*
X13300Y13655D01*
X13299Y13657D01*
X13294Y13662D01*
X13293Y13663D01*
X13252Y13705D01*
X13251Y13706D01*
X13160Y13798D01*
X13158Y13798D01*
X13153Y13804D01*
X13151Y13805D01*
X13147Y13808D01*
X13146Y13809D01*
X13143Y13812D01*
X13141Y13813D01*
X13139Y13815D01*
X13132Y13818D01*
X13127Y13819D01*
X13122Y13820D01*
X13120Y13821D01*
X13105Y13822D01*
X13097Y13821D01*
X13088Y13819D01*
X13069Y13810D01*
X13057Y13805D01*
X13041Y13799D01*
X13026Y13796D01*
X13022Y13795D01*
X13017Y13794D01*
X13013Y13793D01*
X13003Y13792D01*
X13000Y13791D01*
X12978Y13790D01*
X12959Y13791D01*
X12951Y13792D01*
X12935Y13794D01*
X12930Y13795D01*
X12926Y13796D01*
X12922Y13796D01*
X12918Y13797D01*
X12915Y13798D01*
X12910Y13799D01*
X12903Y13801D01*
X12892Y13804D01*
X12884Y13806D01*
X12866Y13812D01*
X12861Y13814D01*
X12857Y13815D01*
X12850Y13819D01*
X12848Y13819D01*
X12843Y13823D01*
X12841Y13824D01*
X12839Y13826D01*
X12838Y13827D01*
X12836Y13829D01*
X12834Y13830D01*
X12832Y13832D01*
X12830Y13833D01*
X12825Y13838D01*
X12823Y13839D01*
X12814Y13849D01*
X12813Y13850D01*
X12807Y13857D01*
X12806Y13858D01*
X12803Y13861D01*
X12802Y13863D01*
X12800Y13865D01*
X12799Y13867D01*
X12797Y13868D01*
X12796Y13870D01*
X12795Y13871D01*
X12794Y13873D01*
X12793Y13875D01*
X12792Y13876D01*
X12791Y13877D01*
X12780Y13893D01*
X12779Y13895D01*
X12775Y13901D01*
X12765Y13921D01*
X12760Y13931D01*
X12754Y13945D01*
X12751Y13952D01*
X12748Y13959D01*
X12745Y13967D01*
X12740Y13981D01*
X12739Y13990D01*
X12739Y13993D01*
X12738Y14004D01*
X12737Y14007D01*
X12736Y14033D01*
X12737Y14056D01*
X12738Y14062D01*
X12739Y14069D01*
X12740Y14077D01*
X12741Y14080D01*
X12742Y14086D01*
X12742Y14089D01*
X12743Y14094D01*
X12746Y14104D01*
X12749Y14115D01*
X12752Y14125D01*
X12757Y14137D01*
X12768Y14161D01*
X12771Y14166D01*
X12775Y14172D01*
X12778Y14177D01*
X12782Y14183D01*
X12783Y14184D01*
X12786Y14189D01*
X12787Y14191D01*
X12790Y14195D01*
X12791Y14197D01*
X12807Y14219D01*
X12807Y14220D01*
X12809Y14221D01*
X12809Y14222D01*
X12812Y14227D01*
X12813Y14228D01*
X12818Y14236D01*
X12819Y14238D01*
X12821Y14239D01*
X12821Y14241D01*
X12825Y14244D01*
X12825Y14246D01*
X12844Y14264D01*
X12853Y14269D01*
X12857Y14271D01*
X12865Y14274D01*
X12873Y14278D01*
X12882Y14281D01*
X12899Y14287D01*
X12903Y14288D01*
X12919Y14292D01*
X12930Y14294D01*
X12935Y14295D01*
X12945Y14296D01*
X12947Y14297D01*
X12981Y14298D01*
X12996Y14297D01*
D02*
G37*
G36*
X16535Y13856D02*
X16535Y13676D01*
X16538Y13171D01*
X16538Y13061D01*
X16539Y13039D01*
X16540Y13026D01*
X16541Y13016D01*
X16542Y13008D01*
X16542Y12999D01*
X16544Y12987D01*
X16545Y12977D01*
X16546Y12973D01*
X16547Y12968D01*
X16549Y12956D01*
X16551Y12951D01*
X16554Y12939D01*
X16557Y12928D01*
X16563Y12908D01*
X16572Y12890D01*
X16578Y12878D01*
X16582Y12873D01*
X16583Y12871D01*
X16587Y12866D01*
X16587Y12864D01*
X16590Y12862D01*
X16590Y12860D01*
X16593Y12858D01*
X16594Y12856D01*
X16605Y12845D01*
X16610Y12841D01*
X16617Y12836D01*
X16618Y12835D01*
X16624Y12831D01*
X16636Y12824D01*
X16644Y12820D01*
X16654Y12818D01*
X16658Y12817D01*
X16661Y12817D01*
X16669Y12815D01*
X16678Y12814D01*
X16680Y12813D01*
X16713Y12812D01*
X16723Y12813D01*
X16729Y12814D01*
X16738Y12815D01*
X16744Y12817D01*
X16750Y12818D01*
X16754Y12820D01*
X16759Y12822D01*
X16771Y12827D01*
X16774Y12828D01*
X16776Y12829D01*
X16777Y12830D01*
X16779Y12833D01*
X16781Y12833D01*
X16784Y12836D01*
X16786Y12837D01*
X16790Y12841D01*
X16791Y12842D01*
X16804Y12855D01*
X16805Y12856D01*
X16808Y12860D01*
X16810Y12862D01*
X16817Y12872D01*
X16818Y12874D01*
X16822Y12879D01*
X16832Y12899D01*
X16834Y12903D01*
X16839Y12916D01*
X16844Y12930D01*
X16846Y12938D01*
X16848Y12943D01*
X16849Y12948D01*
X16850Y12951D01*
X16861Y13027D01*
X16862Y13033D01*
X16863Y13042D01*
X16864Y13044D01*
X16864Y13055D01*
X16866Y13056D01*
X17142Y13056D01*
X17143Y13011D01*
X17144Y12946D01*
X17143Y12917D01*
X17142Y12900D01*
X17141Y12895D01*
X17141Y12887D01*
X17140Y12884D01*
X17138Y12874D01*
X17137Y12869D01*
X17136Y12866D01*
X17134Y12859D01*
X17132Y12853D01*
X17128Y12844D01*
X17127Y12841D01*
X17126Y12836D01*
X17123Y12824D01*
X17121Y12818D01*
X17120Y12815D01*
X17119Y12809D01*
X17116Y12802D01*
X17111Y12783D01*
X17107Y12775D01*
X17106Y12771D01*
X17104Y12766D01*
X17102Y12760D01*
X17100Y12756D01*
X17097Y12749D01*
X17085Y12725D01*
X17080Y12715D01*
X17073Y12704D01*
X17073Y12702D01*
X17062Y12685D01*
X17061Y12683D01*
X17059Y12682D01*
X17058Y12680D01*
X17055Y12675D01*
X17054Y12673D01*
X17052Y12672D01*
X17051Y12670D01*
X17050Y12669D01*
X17049Y12667D01*
X17048Y12665D01*
X17047Y12664D01*
X17045Y12662D01*
X17044Y12661D01*
X17027Y12643D01*
X17025Y12642D01*
X17020Y12637D01*
X17018Y12636D01*
X17013Y12631D01*
X17012Y12631D01*
X17010Y12629D01*
X17009Y12628D01*
X17006Y12626D01*
X17005Y12625D01*
X17003Y12623D01*
X17001Y12622D01*
X16999Y12620D01*
X16997Y12619D01*
X16989Y12613D01*
X16973Y12602D01*
X16971Y12602D01*
X16963Y12596D01*
X16931Y12580D01*
X16922Y12576D01*
X16915Y12573D01*
X16907Y12570D01*
X16901Y12568D01*
X16883Y12561D01*
X16870Y12557D01*
X16859Y12554D01*
X16853Y12552D01*
X16849Y12551D01*
X16845Y12550D01*
X16839Y12549D01*
X16835Y12548D01*
X16832Y12547D01*
X16820Y12545D01*
X16815Y12544D01*
X16811Y12543D01*
X16806Y12543D01*
X16785Y12539D01*
X16764Y12537D01*
X16746Y12536D01*
X16743Y12535D01*
X16680Y12536D01*
X16662Y12536D01*
X16642Y12538D01*
X16639Y12538D01*
X16621Y12540D01*
X16616Y12541D01*
X16600Y12543D01*
X16590Y12544D01*
X16585Y12545D01*
X16581Y12546D01*
X16576Y12547D01*
X16561Y12550D01*
X16556Y12551D01*
X16537Y12556D01*
X16520Y12560D01*
X16497Y12568D01*
X16491Y12570D01*
X16486Y12572D01*
X16478Y12575D01*
X16467Y12580D01*
X16437Y12595D01*
X16427Y12600D01*
X16420Y12604D01*
X16413Y12608D01*
X16408Y12612D01*
X16406Y12613D01*
X16385Y12628D01*
X16383Y12628D01*
X16381Y12631D01*
X16380Y12631D01*
X16378Y12633D01*
X16376Y12634D01*
X16374Y12636D01*
X16373Y12637D01*
X16370Y12639D01*
X16369Y12640D01*
X16365Y12643D01*
X16364Y12644D01*
X16360Y12648D01*
X16358Y12649D01*
X16354Y12653D01*
X16351Y12655D01*
X16350Y12657D01*
X16346Y12662D01*
X16345Y12663D01*
X16339Y12669D01*
X16338Y12670D01*
X16336Y12673D01*
X16335Y12674D01*
X16332Y12677D01*
X16331Y12679D01*
X16329Y12681D01*
X16328Y12683D01*
X16327Y12684D01*
X16326Y12686D01*
X16324Y12687D01*
X16324Y12689D01*
X16322Y12691D01*
X16321Y12692D01*
X16320Y12694D01*
X16319Y12695D01*
X16318Y12696D01*
X16311Y12706D01*
X16301Y12722D01*
X16300Y12723D01*
X16296Y12730D01*
X16293Y12735D01*
X16288Y12744D01*
X16282Y12755D01*
Y12756D01*
X16278Y12764D01*
X16276Y12768D01*
X16270Y12782D01*
X16265Y12794D01*
X16262Y12803D01*
X16253Y12829D01*
X16252Y12835D01*
X16249Y12842D01*
X16248Y12849D01*
X16247Y12853D01*
X16245Y12859D01*
X16244Y12863D01*
X16243Y12869D01*
X16242Y12873D01*
X16241Y12876D01*
X16238Y12892D01*
X16237Y12897D01*
X16236Y12901D01*
X16235Y12910D01*
X16231Y12937D01*
X16230Y12944D01*
X16229Y12950D01*
X16229Y12958D01*
X16227Y12975D01*
X16226Y12984D01*
X16225Y13007D01*
X16224Y13010D01*
X16223Y13046D01*
X16223Y13048D01*
X16223Y13266D01*
X16224Y13455D01*
X16225Y13751D01*
X16226Y13862D01*
X16227Y14025D01*
X16534Y14025D01*
X16535Y13856D01*
D02*
G37*
G36*
X13933Y12345D02*
X13948Y12344D01*
X13966Y12343D01*
X13969Y12342D01*
X13979Y12341D01*
X13982Y12340D01*
X13993Y12339D01*
X13998Y12338D01*
X14002Y12338D01*
X14011Y12336D01*
X14014Y12335D01*
X14018Y12334D01*
X14023Y12333D01*
X14033Y12331D01*
X14044Y12328D01*
X14047Y12327D01*
X14065Y12321D01*
X14069Y12320D01*
X14074Y12318D01*
X14082Y12314D01*
X14096Y12308D01*
X14120Y12296D01*
X14133Y12288D01*
X14152Y12276D01*
X14162Y12268D01*
X14163Y12268D01*
X14165Y12266D01*
X14166Y12265D01*
X14170Y12262D01*
X14171Y12261D01*
X14174Y12258D01*
X14176Y12257D01*
X14178Y12255D01*
X14180Y12254D01*
X14185Y12249D01*
X14187Y12248D01*
X14194Y12241D01*
X14195Y12240D01*
X14209Y12226D01*
X14210Y12225D01*
X14232Y12203D01*
X14233Y12201D01*
X14238Y12196D01*
X14239Y12194D01*
X14243Y12190D01*
X14243Y12189D01*
X14246Y12187D01*
X14247Y12185D01*
X14248Y12183D01*
X14250Y12181D01*
X14254Y12176D01*
X14256Y12174D01*
X14267Y12158D01*
X14268Y12157D01*
X14272Y12151D01*
X14275Y12146D01*
X14279Y12140D01*
X14283Y12133D01*
X14286Y12129D01*
X14301Y12098D01*
X14307Y12085D01*
X14312Y12073D01*
X14314Y12067D01*
X14319Y12054D01*
X14323Y12044D01*
X14326Y12033D01*
X14328Y12026D01*
X14328Y12023D01*
X14329Y12019D01*
X14332Y12007D01*
X14335Y11991D01*
X14336Y11987D01*
X14339Y11966D01*
X14340Y11960D01*
X14341Y11946D01*
X14342Y11944D01*
X14343Y11920D01*
X14344Y11917D01*
X14342Y11814D01*
X14342Y11791D01*
X14341Y11777D01*
X14340Y11764D01*
X14339Y11756D01*
X14338Y11751D01*
X14336Y11743D01*
X14335Y11740D01*
X14335Y11736D01*
X14334Y11733D01*
X14333Y11728D01*
X14331Y11722D01*
X14330Y11719D01*
X14327Y11708D01*
X14323Y11693D01*
X14321Y11689D01*
X14315Y11673D01*
X14314Y11669D01*
X14312Y11664D01*
X14310Y11660D01*
X14308Y11654D01*
X14290Y11618D01*
X14287Y11612D01*
X14282Y11603D01*
X14279Y11599D01*
X14278Y11597D01*
X14275Y11593D01*
X14272Y11587D01*
X14260Y11571D01*
X14259Y11569D01*
X14258Y11567D01*
X14257Y11566D01*
X14254Y11564D01*
X14254Y11562D01*
X14252Y11560D01*
X14251Y11559D01*
X14250Y11557D01*
X14249Y11556D01*
X14246Y11553D01*
X14245Y11551D01*
X14241Y11547D01*
X14240Y11546D01*
X14237Y11542D01*
X14236Y11541D01*
X14228Y11532D01*
X14227Y11531D01*
X14211Y11515D01*
X14209Y11514D01*
X14204Y11508D01*
X14202Y11508D01*
X14198Y11503D01*
X14196Y11502D01*
X14194Y11500D01*
X14192Y11499D01*
X14191Y11497D01*
X14189Y11497D01*
X14184Y11493D01*
X14182Y11492D01*
X14177Y11488D01*
X14175Y11487D01*
X14166Y11482D01*
X14165Y11481D01*
X14159Y11477D01*
X14153Y11474D01*
X14119Y11457D01*
X14112Y11454D01*
X14108Y11452D01*
X14102Y11449D01*
X14094Y11446D01*
X14085Y11443D01*
X14064Y11436D01*
X14058Y11434D01*
X14052Y11432D01*
X14036Y11428D01*
X14032Y11427D01*
X14026Y11426D01*
X14018Y11424D01*
X14013Y11423D01*
X14009Y11423D01*
X14005Y11422D01*
X13997Y11421D01*
X13993Y11420D01*
X13976Y11418D01*
X13960Y11417D01*
X13957Y11416D01*
X13914Y11415D01*
X13904Y11416D01*
X13881Y11417D01*
X13873Y11418D01*
X13865Y11419D01*
X13855Y11420D01*
X13852Y11421D01*
X13838Y11422D01*
X13835Y11423D01*
X13830Y11425D01*
X13817Y11428D01*
X13812Y11429D01*
X13809Y11430D01*
X13801Y11432D01*
X13784Y11438D01*
X13780Y11440D01*
X13774Y11442D01*
X13770Y11443D01*
X13757Y11450D01*
X13748Y11454D01*
X13747Y11455D01*
X13741Y11459D01*
X13739Y11460D01*
X13717Y11476D01*
X13710Y11481D01*
X13698Y11490D01*
X13696Y11491D01*
X13695Y11492D01*
X13685Y11499D01*
X13669Y11509D01*
X13664Y11512D01*
X13657Y11516D01*
X13657Y11434D01*
X13492Y11434D01*
X13491Y11797D01*
X13491Y11821D01*
X13491Y11906D01*
X13496Y11911D01*
X13500Y11913D01*
X13503Y11914D01*
X13511Y11915D01*
X13889Y11915D01*
X13890Y11758D01*
X13679Y11757D01*
X13680Y11751D01*
X13681Y11748D01*
X13684Y11731D01*
X13688Y11715D01*
X13690Y11708D01*
X13692Y11701D01*
X13694Y11695D01*
X13696Y11690D01*
X13709Y11664D01*
X13713Y11657D01*
X13714Y11656D01*
X13715Y11654D01*
Y11654D01*
X13716Y11653D01*
X13717Y11651D01*
X13722Y11646D01*
X13723Y11644D01*
X13732Y11635D01*
X13734Y11634D01*
X13739Y11629D01*
X13741Y11628D01*
X13743Y11626D01*
X13746Y11624D01*
X13756Y11616D01*
X13757Y11616D01*
X13763Y11612D01*
X13781Y11602D01*
X13790Y11598D01*
X13806Y11592D01*
X13811Y11591D01*
X13815Y11589D01*
X13822Y11588D01*
X13833Y11585D01*
X13838Y11585D01*
X13848Y11584D01*
X13850Y11583D01*
X13866Y11582D01*
X13868Y11581D01*
X13891Y11582D01*
X13912Y11582D01*
X13921Y11583D01*
X13930Y11584D01*
X13942Y11585D01*
X13950Y11587D01*
X13953Y11587D01*
X13966Y11590D01*
X13969Y11591D01*
X13975Y11592D01*
X13981Y11594D01*
X13991Y11597D01*
X13995Y11598D01*
X14002Y11600D01*
X14007Y11602D01*
X14012Y11605D01*
X14033Y11615D01*
X14039Y11618D01*
X14046Y11622D01*
X14051Y11625D01*
X14052Y11626D01*
X14058Y11630D01*
X14059Y11630D01*
X14061Y11632D01*
X14062Y11633D01*
X14064Y11634D01*
X14065Y11635D01*
X14067Y11637D01*
X14069Y11638D01*
X14070Y11639D01*
X14072Y11640D01*
X14074Y11642D01*
X14076Y11643D01*
X14080Y11647D01*
X14081Y11648D01*
X14088Y11654D01*
X14089Y11656D01*
X14090Y11657D01*
X14101Y11672D01*
X14102Y11674D01*
X14106Y11679D01*
X14107Y11681D01*
X14110Y11687D01*
X14124Y11713D01*
X14126Y11717D01*
X14129Y11725D01*
X14131Y11731D01*
X14139Y11755D01*
X14141Y11762D01*
X14142Y11766D01*
X14144Y11772D01*
X14144Y11776D01*
X14145Y11779D01*
X14147Y11787D01*
X14148Y11796D01*
X14151Y11810D01*
X14152Y11817D01*
X14152Y11823D01*
X14153Y11830D01*
X14155Y11852D01*
X14155Y11877D01*
X14155Y11912D01*
X14154Y11920D01*
X14153Y11937D01*
X14152Y11947D01*
X14150Y11959D01*
X14149Y11964D01*
X14146Y11974D01*
X14143Y11985D01*
X14138Y12001D01*
X14136Y12007D01*
X14134Y12012D01*
X14132Y12017D01*
X14118Y12045D01*
X14114Y12052D01*
X14114Y12053D01*
X14108Y12062D01*
X14107Y12064D01*
X14096Y12080D01*
X14095Y12082D01*
X14093Y12083D01*
X14092Y12085D01*
X14089Y12088D01*
X14089Y12089D01*
X14086Y12092D01*
X14085Y12093D01*
X14081Y12097D01*
X14081Y12099D01*
X14072Y12107D01*
X14071Y12109D01*
X14062Y12118D01*
X14061Y12119D01*
X14053Y12127D01*
X14051Y12127D01*
X14047Y12132D01*
X14045Y12133D01*
X14044Y12134D01*
X14042Y12135D01*
X14040Y12137D01*
X14039Y12138D01*
X14033Y12142D01*
X14032Y12142D01*
X14023Y12148D01*
X14003Y12158D01*
X13995Y12162D01*
X13987Y12165D01*
X13970Y12171D01*
X13966Y12172D01*
X13959Y12174D01*
X13955Y12175D01*
X13952Y12176D01*
X13948Y12176D01*
X13940Y12178D01*
X13938Y12178D01*
X13924Y12179D01*
X13921Y12180D01*
X13895Y12179D01*
X13884Y12179D01*
X13876Y12178D01*
X13872Y12177D01*
X13864Y12176D01*
X13859Y12174D01*
X13849Y12172D01*
X13838Y12169D01*
X13822Y12164D01*
X13819Y12162D01*
X13813Y12160D01*
X13786Y12147D01*
X13781Y12144D01*
X13780Y12143D01*
X13770Y12136D01*
X13768Y12135D01*
X13766Y12134D01*
X13765Y12133D01*
X13763Y12131D01*
X13761Y12130D01*
X13758Y12127D01*
X13756Y12126D01*
X13741Y12111D01*
X13740Y12109D01*
X13736Y12105D01*
X13736Y12104D01*
X13733Y12100D01*
X13721Y12085D01*
X13721Y12083D01*
X13719Y12082D01*
X13718Y12080D01*
X13716Y12078D01*
X13715Y12076D01*
X13713Y12074D01*
X13712Y12072D01*
X13708Y12068D01*
X13707Y12067D01*
X13702Y12062D01*
X13701Y12061D01*
X13699Y12059D01*
X13698Y12059D01*
X13696Y12057D01*
X13694Y12056D01*
X13689Y12052D01*
X13682Y12049D01*
X13677Y12047D01*
X13675Y12046D01*
X13669Y12045D01*
X13666Y12044D01*
X13613Y12045D01*
X13600Y12046D01*
X13584Y12046D01*
X13561Y12047D01*
X13540Y12048D01*
X13524Y12049D01*
X13505Y12050D01*
X13499Y12050D01*
X13500Y12058D01*
X13500Y12067D01*
X13501Y12073D01*
X13502Y12078D01*
X13504Y12087D01*
X13505Y12093D01*
X13506Y12096D01*
X13511Y12111D01*
X13516Y12122D01*
X13526Y12143D01*
X13535Y12161D01*
X13539Y12166D01*
X13540Y12168D01*
X13543Y12172D01*
X13544Y12174D01*
X13552Y12185D01*
X13552Y12187D01*
X13554Y12188D01*
X13555Y12190D01*
X13556Y12191D01*
X13557Y12193D01*
X13559Y12194D01*
X13559Y12196D01*
X13561Y12197D01*
X13562Y12199D01*
X13563Y12201D01*
X13564Y12202D01*
X13567Y12205D01*
X13567Y12206D01*
X13570Y12209D01*
X13571Y12211D01*
X13574Y12214D01*
X13575Y12215D01*
X13579Y12219D01*
X13580Y12221D01*
X13585Y12226D01*
X13585Y12227D01*
X13596Y12238D01*
X13597Y12239D01*
X13602Y12243D01*
X13604Y12244D01*
X13608Y12248D01*
X13609Y12249D01*
X13612Y12251D01*
X13613Y12252D01*
X13615Y12254D01*
X13617Y12255D01*
X13619Y12257D01*
X13621Y12258D01*
X13622Y12260D01*
X13625Y12262D01*
X13640Y12273D01*
X13642Y12274D01*
X13643Y12275D01*
X13662Y12287D01*
X13670Y12292D01*
X13685Y12301D01*
X13698Y12307D01*
X13710Y12312D01*
X13722Y12316D01*
X13726Y12318D01*
X13734Y12320D01*
X13746Y12324D01*
X13757Y12327D01*
X13760Y12328D01*
X13765Y12329D01*
X13771Y12331D01*
X13775Y12331D01*
X13781Y12333D01*
X13797Y12336D01*
X13801Y12337D01*
X13805Y12338D01*
X13814Y12339D01*
X13817Y12340D01*
X13828Y12341D01*
X13836Y12341D01*
X13851Y12343D01*
X13853Y12343D01*
X13884Y12344D01*
X13886Y12345D01*
X13933Y12345D01*
D02*
G37*
G36*
X16301Y11434D02*
X15716Y11434D01*
X15716Y11598D01*
X16121Y11598D01*
X16121Y11699D01*
Y11700D01*
Y11787D01*
X15753Y11787D01*
X15753Y11952D01*
X16121Y11952D01*
X16121Y12147D01*
X15723Y12148D01*
X15723Y12313D01*
X16301Y12313D01*
X16301Y11434D01*
D02*
G37*
G36*
X14708Y12025D02*
Y12024D01*
Y11434D01*
X14529Y11434D01*
X14528Y12313D01*
X14708Y12313D01*
X14708Y12025D01*
D02*
G37*
G36*
X12718Y12294D02*
X12719Y12108D01*
X12720Y11800D01*
X12721Y11776D01*
X12720Y11756D01*
X12719Y11748D01*
X12718Y11745D01*
X12717Y11743D01*
X12718Y11720D01*
X12719Y11720D01*
X12778Y11810D01*
X12782Y11816D01*
X12804Y11849D01*
X12809Y11857D01*
X12816Y11867D01*
X12826Y11883D01*
X12827Y11884D01*
X12831Y11890D01*
X12832Y11891D01*
X12836Y11897D01*
X12836Y11899D01*
X12840Y11904D01*
X12841Y11906D01*
X12845Y11911D01*
X12846Y11913D01*
X12850Y11918D01*
X12850Y11920D01*
X12854Y11925D01*
X12857Y11931D01*
X12861Y11936D01*
X12862Y11938D01*
X12868Y11946D01*
X12912Y12012D01*
X12916Y12018D01*
X12926Y12034D01*
X12927Y12035D01*
X12931Y12041D01*
X12932Y12043D01*
X12937Y12051D01*
X12938Y12053D01*
X12941Y12057D01*
X12942Y12059D01*
X12945Y12064D01*
X12946Y12065D01*
X12950Y12071D01*
X12951Y12073D01*
X12955Y12079D01*
X12955Y12081D01*
X12959Y12087D01*
X12972Y12109D01*
X12976Y12116D01*
X12980Y12125D01*
X12992Y12146D01*
X12998Y12157D01*
X13002Y12164D01*
X13024Y12202D01*
X13052Y12258D01*
X13059Y12268D01*
X13060Y12269D01*
X13061Y12271D01*
X13063Y12271D01*
X13068Y12277D01*
X13070Y12278D01*
X13073Y12281D01*
X13076Y12283D01*
X13080Y12286D01*
X13087Y12292D01*
X13099Y12298D01*
X13110Y12303D01*
X13123Y12306D01*
X13132Y12308D01*
X13144Y12309D01*
X13146Y12310D01*
X13166Y12311D01*
X13169Y12311D01*
X13311Y12312D01*
X13311Y11434D01*
X13132Y11434D01*
X13131Y11445D01*
X13130Y11506D01*
X13129Y11564D01*
X13124Y11983D01*
X13123Y12005D01*
X13114Y11992D01*
X13112Y11990D01*
X13105Y11980D01*
X13104Y11978D01*
X13102Y11977D01*
X13102Y11975D01*
X13098Y11970D01*
X13093Y11961D01*
X13092Y11960D01*
X13088Y11954D01*
X13088Y11953D01*
X13084Y11947D01*
X13083Y11945D01*
X13079Y11940D01*
X13078Y11938D01*
X13074Y11933D01*
X13073Y11931D01*
X13070Y11926D01*
X13069Y11924D01*
X13067Y11923D01*
X13066Y11921D01*
X13063Y11916D01*
X13062Y11914D01*
X13054Y11903D01*
X13053Y11902D01*
X13045Y11891D01*
X13045Y11889D01*
X13041Y11884D01*
X13040Y11882D01*
X13036Y11877D01*
X13035Y11875D01*
X13034Y11873D01*
X13033Y11872D01*
X13029Y11866D01*
X13028Y11865D01*
X13024Y11859D01*
X13023Y11858D01*
X13022Y11856D01*
X13021Y11855D01*
X13017Y11849D01*
X13016Y11848D01*
X13009Y11837D01*
X13008Y11835D01*
X12996Y11819D01*
X12995Y11817D01*
X12991Y11812D01*
X12991Y11810D01*
X12989Y11809D01*
X12988Y11807D01*
X12976Y11791D01*
X12976Y11789D01*
X12964Y11773D01*
X12963Y11771D01*
X12951Y11755D01*
X12951Y11754D01*
X12951Y11753D01*
X12949Y11751D01*
X12948Y11750D01*
X12940Y11739D01*
X12940Y11737D01*
X12938Y11736D01*
X12937Y11734D01*
X12929Y11723D01*
X12929Y11722D01*
X12927Y11720D01*
X12926Y11719D01*
X12915Y11702D01*
X12914Y11701D01*
X12910Y11695D01*
X12909Y11693D01*
X12908Y11692D01*
X12907Y11690D01*
X12899Y11679D01*
X12898Y11678D01*
X12894Y11672D01*
X12893Y11671D01*
X12892Y11669D01*
X12891Y11668D01*
X12883Y11657D01*
X12883Y11655D01*
X12879Y11650D01*
X12878Y11648D01*
X12876Y11647D01*
X12875Y11645D01*
X12872Y11639D01*
X12871Y11638D01*
X12867Y11632D01*
X12866Y11631D01*
X12858Y11620D01*
X12857Y11618D01*
X12854Y11613D01*
X12853Y11611D01*
X12851Y11610D01*
X12850Y11608D01*
X12843Y11597D01*
X12842Y11596D01*
X12840Y11594D01*
X12839Y11593D01*
X12836Y11587D01*
X12835Y11585D01*
X12831Y11580D01*
X12830Y11578D01*
X12826Y11573D01*
X12825Y11571D01*
X12821Y11566D01*
X12821Y11564D01*
X12817Y11559D01*
X12816Y11557D01*
X12811Y11549D01*
X12810Y11547D01*
X12807Y11542D01*
X12797Y11526D01*
X12782Y11495D01*
X12778Y11490D01*
X12777Y11488D01*
X12775Y11487D01*
X12775Y11485D01*
X12771Y11482D01*
X12771Y11481D01*
X12767Y11477D01*
X12766Y11475D01*
X12750Y11459D01*
X12750Y11458D01*
X12726Y11435D01*
X12538Y11434D01*
X12537Y12313D01*
X12717Y12313D01*
X12718Y12294D01*
D02*
G37*
G36*
X15282Y12331D02*
X15291Y12330D01*
X15303Y12329D01*
X15307Y12328D01*
X15323Y12326D01*
X15327Y12325D01*
X15331Y12324D01*
X15336Y12323D01*
X15352Y12320D01*
X15357Y12319D01*
X15375Y12314D01*
X15383Y12312D01*
X15389Y12311D01*
X15414Y12302D01*
X15420Y12300D01*
X15424Y12298D01*
X15429Y12296D01*
X15435Y12294D01*
X15450Y12287D01*
X15455Y12284D01*
X15457Y12283D01*
X15462Y12280D01*
X15463Y12279D01*
X15471Y12274D01*
X15473Y12273D01*
X15474Y12271D01*
X15476Y12271D01*
X15477Y12269D01*
X15479Y12268D01*
X15481Y12266D01*
X15483Y12265D01*
X15485Y12263D01*
X15487Y12262D01*
X15491Y12257D01*
X15493Y12257D01*
X15508Y12241D01*
X15509Y12240D01*
X15514Y12234D01*
X15515Y12233D01*
X15517Y12231D01*
X15518Y12230D01*
X15519Y12228D01*
X15530Y12213D01*
X15531Y12212D01*
X15534Y12208D01*
X15549Y12179D01*
X15553Y12170D01*
X15559Y12155D01*
X15560Y12152D01*
X15561Y12148D01*
X15562Y12145D01*
X15563Y12141D01*
X15563Y12136D01*
X15564Y12132D01*
X15567Y12111D01*
X15568Y12097D01*
X15569Y12094D01*
X15570Y12052D01*
X15569Y12046D01*
X15568Y12032D01*
X15568Y12028D01*
X15566Y12018D01*
X15566Y12013D01*
X15564Y12005D01*
X15563Y12000D01*
X15560Y11989D01*
X15557Y11980D01*
X15555Y11975D01*
X15553Y11971D01*
X15551Y11966D01*
X15547Y11960D01*
X15546Y11959D01*
X15543Y11953D01*
X15542Y11952D01*
X15540Y11950D01*
X15539Y11949D01*
X15538Y11947D01*
X15537Y11945D01*
X15536Y11944D01*
X15535Y11942D01*
X15532Y11940D01*
X15532Y11938D01*
X15529Y11936D01*
X15528Y11935D01*
X15525Y11931D01*
X15525Y11930D01*
X15517Y11922D01*
X15516Y11920D01*
X15505Y11909D01*
X15503Y11908D01*
X15496Y11901D01*
X15494Y11900D01*
X15491Y11897D01*
X15490Y11897D01*
X15489Y11895D01*
X15484Y11892D01*
X15482Y11890D01*
X15477Y11886D01*
X15476Y11886D01*
X15474Y11884D01*
X15473Y11883D01*
X15467Y11879D01*
X15455Y11872D01*
X15454Y11871D01*
X15445Y11865D01*
X15438Y11861D01*
X15429Y11857D01*
X15411Y11848D01*
X15392Y11839D01*
X15384Y11836D01*
X15377Y11834D01*
X15374Y11832D01*
X15367Y11830D01*
X15356Y11826D01*
X15328Y11816D01*
X15315Y11812D01*
X15300Y11807D01*
X15294Y11806D01*
X15286Y11803D01*
X15275Y11800D01*
X15267Y11798D01*
X15262Y11796D01*
X15254Y11794D01*
X15249Y11792D01*
X15241Y11790D01*
X15231Y11787D01*
X15216Y11782D01*
X15167Y11766D01*
X15158Y11763D01*
X15147Y11759D01*
X15139Y11756D01*
X15132Y11754D01*
X15129Y11752D01*
X15123Y11750D01*
X15120Y11749D01*
X15105Y11744D01*
X15101Y11742D01*
X15084Y11735D01*
X15084Y11733D01*
X15081Y11727D01*
X15078Y11717D01*
X15077Y11715D01*
X15076Y11708D01*
X15075Y11706D01*
X15075Y11660D01*
X15076Y11647D01*
X15078Y11641D01*
X15079Y11638D01*
X15080Y11634D01*
X15084Y11625D01*
X15088Y11620D01*
X15089Y11618D01*
X15091Y11616D01*
X15092Y11614D01*
X15095Y11611D01*
X15096Y11610D01*
X15099Y11606D01*
X15101Y11605D01*
X15102Y11604D01*
X15104Y11603D01*
X15106Y11602D01*
X15107Y11601D01*
X15113Y11597D01*
X15126Y11589D01*
X15135Y11585D01*
X15147Y11581D01*
X15151Y11580D01*
X15158Y11578D01*
X15165Y11577D01*
X15174Y11576D01*
X15177Y11575D01*
X15193Y11574D01*
X15195Y11573D01*
X15230Y11574D01*
X15239Y11575D01*
X15250Y11576D01*
X15253Y11576D01*
X15258Y11577D01*
X15261Y11578D01*
X15271Y11580D01*
X15283Y11583D01*
X15291Y11585D01*
X15295Y11586D01*
X15303Y11589D01*
X15307Y11591D01*
X15326Y11600D01*
X15331Y11603D01*
X15332Y11604D01*
X15340Y11609D01*
X15342Y11610D01*
X15344Y11612D01*
X15346Y11613D01*
X15348Y11616D01*
X15350Y11616D01*
X15361Y11628D01*
X15392Y11690D01*
X15393Y11690D01*
X15399Y11704D01*
X15580Y11704D01*
X15579Y11676D01*
X15579Y11673D01*
X15578Y11668D01*
X15576Y11663D01*
X15574Y11659D01*
X15573Y11655D01*
X15573Y11650D01*
X15570Y11638D01*
X15569Y11633D01*
X15567Y11624D01*
X15565Y11618D01*
X15561Y11603D01*
X15557Y11590D01*
X15554Y11585D01*
X15549Y11573D01*
X15545Y11567D01*
X15542Y11561D01*
X15538Y11556D01*
X15537Y11554D01*
X15533Y11549D01*
X15532Y11547D01*
X15528Y11542D01*
X15528Y11540D01*
X15526Y11539D01*
X15525Y11537D01*
X15524Y11535D01*
X15523Y11534D01*
X15521Y11532D01*
X15521Y11531D01*
X15519Y11529D01*
X15518Y11528D01*
X15505Y11515D01*
X15504Y11514D01*
X15497Y11507D01*
X15495Y11506D01*
X15492Y11503D01*
X15491Y11502D01*
X15488Y11500D01*
X15487Y11499D01*
X15485Y11497D01*
X15482Y11495D01*
X15467Y11484D01*
X15453Y11475D01*
X15451Y11474D01*
X15445Y11470D01*
X15415Y11454D01*
X15408Y11451D01*
X15403Y11449D01*
X15388Y11443D01*
X15374Y11438D01*
X15369Y11436D01*
X15359Y11433D01*
X15354Y11432D01*
X15347Y11430D01*
X15343Y11429D01*
X15340Y11428D01*
X15336Y11427D01*
X15333Y11427D01*
X15329Y11426D01*
X15326Y11425D01*
X15316Y11423D01*
X15302Y11421D01*
X15295Y11420D01*
X15271Y11419D01*
X15269Y11418D01*
X15207Y11418D01*
X15199Y11418D01*
X15182Y11419D01*
X15177Y11420D01*
X15167Y11421D01*
X15161Y11422D01*
X15140Y11424D01*
X15130Y11426D01*
X15126Y11427D01*
X15122Y11427D01*
X15110Y11430D01*
X15107Y11431D01*
X15103Y11431D01*
X15098Y11432D01*
X15082Y11436D01*
X15077Y11438D01*
X15073Y11439D01*
X15062Y11442D01*
X15055Y11444D01*
X15037Y11450D01*
X15032Y11452D01*
X15008Y11464D01*
X15002Y11467D01*
X14995Y11471D01*
X14990Y11475D01*
X14988Y11476D01*
X14983Y11479D01*
X14981Y11480D01*
X14979Y11482D01*
X14978Y11483D01*
X14976Y11484D01*
X14975Y11485D01*
X14973Y11486D01*
X14972Y11487D01*
X14969Y11490D01*
X14967Y11491D01*
X14963Y11495D01*
X14962Y11496D01*
X14939Y11518D01*
X14938Y11520D01*
X14934Y11524D01*
X14933Y11526D01*
X14931Y11528D01*
X14930Y11530D01*
X14927Y11532D01*
X14927Y11534D01*
X14925Y11535D01*
X14924Y11537D01*
X14923Y11539D01*
X14922Y11540D01*
X14920Y11542D01*
X14920Y11543D01*
X14916Y11549D01*
X14915Y11550D01*
X14911Y11556D01*
X14910Y11557D01*
X14907Y11562D01*
X14904Y11567D01*
X14892Y11590D01*
X14888Y11603D01*
X14887Y11607D01*
X14884Y11620D01*
X14882Y11631D01*
X14880Y11641D01*
X14879Y11650D01*
X14878Y11653D01*
X14877Y11672D01*
X14877Y11674D01*
X14877Y11699D01*
X14878Y11711D01*
X14879Y11723D01*
X14880Y11726D01*
X14880Y11732D01*
X14884Y11749D01*
X14885Y11755D01*
X14887Y11761D01*
X14890Y11771D01*
X14892Y11778D01*
X14894Y11783D01*
X14895Y11787D01*
X14898Y11792D01*
X14901Y11799D01*
X14903Y11803D01*
X14904Y11805D01*
X14911Y11815D01*
X14912Y11816D01*
X14913Y11818D01*
X14914Y11819D01*
X14916Y11822D01*
X14917Y11823D01*
X14919Y11825D01*
X14920Y11827D01*
X14923Y11830D01*
X14924Y11831D01*
X14929Y11837D01*
X14930Y11838D01*
X14945Y11854D01*
X14947Y11854D01*
X14952Y11860D01*
X14954Y11861D01*
X14956Y11863D01*
X14958Y11864D01*
X14959Y11865D01*
X14974Y11876D01*
X14986Y11884D01*
X14987Y11885D01*
X14996Y11890D01*
X15017Y11902D01*
X15026Y11906D01*
X15040Y11912D01*
X15048Y11915D01*
X15060Y11920D01*
X15071Y11924D01*
X15088Y11929D01*
X15103Y11934D01*
X15111Y11936D01*
X15133Y11943D01*
X15136Y11944D01*
X15147Y11947D01*
X15151Y11948D01*
X15176Y11954D01*
X15180Y11955D01*
X15187Y11956D01*
X15190Y11957D01*
X15194Y11958D01*
X15197Y11959D01*
X15201Y11960D01*
X15204Y11960D01*
X15211Y11962D01*
X15215Y11963D01*
X15221Y11964D01*
X15226Y11965D01*
X15242Y11969D01*
X15253Y11972D01*
X15256Y11973D01*
X15266Y11976D01*
X15282Y11981D01*
X15289Y11984D01*
X15293Y11986D01*
X15299Y11988D01*
X15321Y11999D01*
X15327Y12002D01*
X15329Y12003D01*
X15339Y12010D01*
X15340Y12011D01*
X15342Y12012D01*
X15343Y12013D01*
X15346Y12016D01*
X15347Y12016D01*
X15361Y12030D01*
X15362Y12032D01*
X15364Y12034D01*
X15365Y12035D01*
X15366Y12037D01*
X15370Y12044D01*
X15372Y12055D01*
X15372Y12063D01*
X15373Y12077D01*
X15373Y12090D01*
X15371Y12101D01*
X15370Y12107D01*
X15366Y12118D01*
X15359Y12133D01*
X15359Y12134D01*
X15356Y12139D01*
X15355Y12140D01*
X15354Y12141D01*
X15351Y12143D01*
X15350Y12144D01*
X15347Y12147D01*
X15345Y12148D01*
X15343Y12149D01*
X15342Y12150D01*
X15340Y12152D01*
X15339Y12152D01*
X15337Y12154D01*
X15336Y12155D01*
X15330Y12159D01*
X15329Y12160D01*
X15324Y12163D01*
X15314Y12168D01*
X15308Y12171D01*
X15304Y12172D01*
X15291Y12177D01*
X15287Y12178D01*
X15280Y12179D01*
X15271Y12181D01*
X15268Y12181D01*
X15249Y12181D01*
X15246Y12180D01*
X15230Y12178D01*
X15225Y12177D01*
X15221Y12176D01*
X15216Y12175D01*
X15206Y12173D01*
X15201Y12171D01*
X15188Y12167D01*
X15181Y12164D01*
X15158Y12153D01*
X15156Y12152D01*
X15152Y12149D01*
X15150Y12149D01*
X15145Y12145D01*
X15143Y12144D01*
X15142Y12142D01*
X15140Y12142D01*
X15138Y12139D01*
X15136Y12138D01*
X15133Y12135D01*
X15131Y12134D01*
X15122Y12125D01*
X15121Y12123D01*
X15116Y12111D01*
X15102Y12082D01*
X15096Y12072D01*
X15090Y12067D01*
X15088Y12066D01*
X15087Y12065D01*
X15085Y12064D01*
X15080Y12060D01*
X15078Y12059D01*
X15077Y12058D01*
X15075Y12057D01*
X15065Y12052D01*
X15055Y12048D01*
X15053Y12048D01*
X15046Y12047D01*
X15044Y12046D01*
X15014Y12046D01*
X15003Y12047D01*
X14988Y12049D01*
X14975Y12050D01*
X14968Y12051D01*
X14946Y12054D01*
X14943Y12055D01*
X14922Y12057D01*
X14918Y12058D01*
X14912Y12064D01*
X14911Y12117D01*
X14912Y12132D01*
X14915Y12143D01*
X14917Y12147D01*
X14919Y12155D01*
X14920Y12158D01*
X14921Y12164D01*
X14927Y12176D01*
X14930Y12181D01*
X14931Y12183D01*
X14942Y12199D01*
X14943Y12201D01*
X14945Y12202D01*
X14945Y12204D01*
X14947Y12205D01*
X14948Y12207D01*
X14949Y12208D01*
X14950Y12210D01*
X14952Y12212D01*
X14952Y12213D01*
X14954Y12215D01*
X14955Y12216D01*
X14956Y12218D01*
X14957Y12219D01*
X14959Y12221D01*
X14960Y12223D01*
X14962Y12225D01*
X14963Y12226D01*
X14964Y12228D01*
X14966Y12231D01*
X14970Y12235D01*
X14972Y12238D01*
X14973Y12239D01*
X14987Y12252D01*
X14988Y12253D01*
X14991Y12255D01*
X14995Y12259D01*
X15002Y12264D01*
X15004Y12265D01*
X15009Y12269D01*
X15011Y12270D01*
X15017Y12274D01*
X15023Y12277D01*
X15031Y12282D01*
X15049Y12291D01*
X15053Y12292D01*
X15061Y12296D01*
X15077Y12302D01*
X15083Y12305D01*
X15105Y12312D01*
X15116Y12315D01*
X15120Y12316D01*
X15132Y12320D01*
X15136Y12320D01*
X15140Y12321D01*
X15155Y12324D01*
X15160Y12325D01*
X15170Y12327D01*
X15175Y12327D01*
X15187Y12329D01*
X15202Y12330D01*
X15204Y12331D01*
X15259Y12332D01*
X15282Y12331D01*
D02*
G37*
G36*
X17255Y12313D02*
X17256Y11434D01*
X17240Y11434D01*
X17217Y11433D01*
X17203Y11432D01*
X17192Y11431D01*
X17172Y11430D01*
X17155Y11428D01*
X17147Y11427D01*
X17138Y11427D01*
X17084Y11421D01*
X17066Y11420D01*
X17049Y11418D01*
X17046Y11418D01*
X17024Y11417D01*
X17022Y11416D01*
X16969Y11415D01*
X16947Y11416D01*
X16927Y11418D01*
X16921Y11418D01*
X16902Y11421D01*
X16899Y11422D01*
X16882Y11425D01*
X16866Y11429D01*
X16861Y11430D01*
X16840Y11437D01*
X16837Y11438D01*
X16818Y11441D01*
X16818Y11441D01*
X16814Y11441D01*
X16794Y11445D01*
X16791Y11446D01*
X16787Y11447D01*
X16784Y11448D01*
X16779Y11449D01*
X16772Y11451D01*
X16767Y11452D01*
X16764Y11453D01*
X16753Y11456D01*
X16743Y11459D01*
X16727Y11464D01*
X16718Y11467D01*
X16713Y11469D01*
X16697Y11476D01*
X16692Y11478D01*
X16653Y11497D01*
X16648Y11500D01*
X16639Y11504D01*
X16625Y11514D01*
X16623Y11515D01*
X16617Y11519D01*
X16616Y11519D01*
X16599Y11531D01*
X16598Y11532D01*
X16596Y11533D01*
X16595Y11534D01*
X16593Y11536D01*
X16592Y11537D01*
X16590Y11538D01*
X16589Y11539D01*
X16586Y11541D01*
X16585Y11542D01*
X16582Y11544D01*
X16581Y11545D01*
X16563Y11563D01*
X16562Y11564D01*
X16557Y11570D01*
X16556Y11571D01*
X16555Y11573D01*
X16551Y11577D01*
X16549Y11580D01*
X16546Y11584D01*
X16540Y11591D01*
X16540Y11593D01*
X16532Y11603D01*
X16531Y11605D01*
X16528Y11610D01*
X16527Y11611D01*
X16523Y11618D01*
X16519Y11625D01*
X16511Y11639D01*
X16507Y11648D01*
X16501Y11663D01*
X16498Y11670D01*
X16493Y11683D01*
X16488Y11697D01*
X16485Y11708D01*
X16483Y11713D01*
X16482Y11717D01*
X16477Y11739D01*
X16476Y11743D01*
X16475Y11746D01*
X16473Y11758D01*
X16472Y11763D01*
X16471Y11767D01*
X16470Y11771D01*
X16468Y11787D01*
X16467Y11793D01*
X16466Y11805D01*
X16465Y11807D01*
X16464Y11848D01*
X16464Y11850D01*
X16464Y11873D01*
X16466Y11897D01*
X16466Y11907D01*
X16467Y11915D01*
X16468Y11927D01*
X16469Y11930D01*
X16470Y11940D01*
X16473Y11959D01*
X16476Y11971D01*
X16478Y11980D01*
X16482Y11996D01*
X16483Y12001D01*
X16485Y12007D01*
X16486Y12013D01*
X16491Y12028D01*
X16492Y12032D01*
X16496Y12043D01*
X16498Y12048D01*
X16503Y12060D01*
X16508Y12071D01*
X16523Y12103D01*
X16527Y12110D01*
X16533Y12121D01*
X16534Y12122D01*
X16537Y12127D01*
X16538Y12129D01*
X16541Y12133D01*
X16542Y12135D01*
X16546Y12140D01*
X16547Y12142D01*
X16558Y12158D01*
X16559Y12160D01*
X16561Y12161D01*
X16562Y12163D01*
X16563Y12165D01*
X16564Y12166D01*
X16566Y12169D01*
X16567Y12170D01*
X16569Y12172D01*
X16570Y12174D01*
X16572Y12176D01*
X16573Y12178D01*
X16577Y12182D01*
X16578Y12183D01*
X16588Y12193D01*
X16589Y12194D01*
X16603Y12208D01*
X16605Y12209D01*
X16614Y12218D01*
X16616Y12219D01*
X16622Y12225D01*
X16624Y12226D01*
X16628Y12231D01*
X16630Y12232D01*
X16634Y12235D01*
X16635Y12236D01*
X16637Y12237D01*
X16641Y12241D01*
X16648Y12246D01*
X16661Y12256D01*
X16662Y12257D01*
X16668Y12260D01*
X16669Y12261D01*
X16674Y12264D01*
X16692Y12274D01*
X16701Y12278D01*
X16709Y12281D01*
X16717Y12284D01*
X16722Y12286D01*
X16731Y12289D01*
X16750Y12294D01*
X16754Y12295D01*
X16757Y12295D01*
X16761Y12296D01*
X16766Y12297D01*
X16770Y12298D01*
X16774Y12298D01*
X16790Y12301D01*
X16803Y12302D01*
X16817Y12304D01*
X16823Y12305D01*
X16844Y12307D01*
X16853Y12308D01*
X16876Y12309D01*
X16878Y12310D01*
X16921Y12311D01*
X16923Y12311D01*
X17074Y12312D01*
X17076Y12313D01*
X17255Y12313D01*
D02*
G37*
%LPC*%
G36*
X14590Y15120D02*
X14577Y15120D01*
X14564Y15119D01*
X14557Y15118D01*
X14549Y15117D01*
X14537Y15115D01*
X14526Y15111D01*
X14520Y15107D01*
X14519Y15106D01*
X14514Y15103D01*
X14512Y15102D01*
X14507Y15098D01*
X14505Y15097D01*
X14504Y15096D01*
X14502Y15095D01*
X14500Y15093D01*
X14498Y15092D01*
X14492Y15086D01*
X14489Y15084D01*
X14488Y15082D01*
X14482Y15076D01*
X14482Y15075D01*
X14481Y15074D01*
X14477Y15070D01*
X14477Y15068D01*
X14476Y15067D01*
X14472Y15062D01*
X14468Y15054D01*
X14465Y15042D01*
X14463Y15035D01*
X14463Y15033D01*
X14462Y15025D01*
X14461Y15023D01*
X14460Y14998D01*
X14461Y14985D01*
X14462Y14982D01*
X14463Y14976D01*
X14464Y14970D01*
X14467Y14959D01*
X14469Y14955D01*
X14474Y14944D01*
X14475Y14942D01*
X14486Y14926D01*
X14487Y14925D01*
X14492Y14920D01*
X14492Y14919D01*
X14502Y14909D01*
X14504Y14908D01*
X14505Y14907D01*
X14509Y14903D01*
X14512Y14901D01*
X14522Y14895D01*
X14532Y14889D01*
X14536Y14887D01*
X14544Y14884D01*
X14550Y14882D01*
X14560Y14881D01*
X14562Y14880D01*
X14587Y14879D01*
X14599Y14880D01*
X14602Y14881D01*
X14608Y14881D01*
X14611Y14882D01*
X14615Y14883D01*
X14618Y14884D01*
X14623Y14886D01*
X14627Y14888D01*
X14638Y14892D01*
X14644Y14896D01*
X14645Y14897D01*
X14651Y14901D01*
X14652Y14902D01*
X14658Y14907D01*
X14659Y14908D01*
X14671Y14919D01*
X14672Y14921D01*
X14675Y14924D01*
X14675Y14926D01*
X14677Y14927D01*
X14678Y14929D01*
X14679Y14930D01*
X14687Y14944D01*
X14688Y14948D01*
X14691Y14954D01*
X14692Y14960D01*
X14693Y14964D01*
X14694Y14971D01*
X14695Y14973D01*
X14696Y14993D01*
X14695Y15008D01*
X14693Y15024D01*
X14692Y15029D01*
X14691Y15032D01*
X14688Y15043D01*
X14686Y15047D01*
X14678Y15065D01*
X14674Y15072D01*
X14666Y15083D01*
X14665Y15084D01*
X14663Y15087D01*
X14662Y15088D01*
X14661Y15090D01*
X14660Y15092D01*
X14657Y15095D01*
X14656Y15096D01*
X14654Y15098D01*
X14647Y15104D01*
X14635Y15110D01*
X14629Y15113D01*
X14623Y15115D01*
X14619Y15116D01*
X14609Y15118D01*
X14607Y15119D01*
X14592Y15119D01*
X14590Y15120D01*
D02*
G37*
G36*
X13684Y15626D02*
X13674Y15626D01*
X13671Y15625D01*
X13666Y15624D01*
X13656Y15622D01*
X13645Y15618D01*
X13642Y15617D01*
X13635Y15615D01*
X13630Y15613D01*
X13626Y15612D01*
X13621Y15609D01*
X13612Y15605D01*
X13611Y15605D01*
X13601Y15597D01*
X13599Y15597D01*
X13596Y15594D01*
X13594Y15593D01*
X13585Y15583D01*
X13584Y15581D01*
X13581Y15578D01*
X13571Y15564D01*
X13568Y15558D01*
X13564Y15549D01*
X13562Y15545D01*
X13560Y15540D01*
X13559Y15536D01*
X13558Y15528D01*
X13557Y15526D01*
X13556Y15493D01*
X13557Y15485D01*
X13558Y15480D01*
X13559Y15470D01*
X13561Y15464D01*
X13563Y15459D01*
X13565Y15452D01*
X13567Y15447D01*
X13568Y15443D01*
X13577Y15425D01*
X13581Y15418D01*
X13581Y15416D01*
X13585Y15410D01*
X13586Y15408D01*
X13589Y15404D01*
X13590Y15402D01*
X13594Y15397D01*
X13595Y15395D01*
X13606Y15384D01*
X13608Y15383D01*
X13609Y15382D01*
X13613Y15378D01*
X13615Y15378D01*
X13616Y15376D01*
X13627Y15370D01*
X13631Y15369D01*
X13637Y15366D01*
X13640Y15365D01*
X13645Y15364D01*
X13648Y15363D01*
X13657Y15363D01*
X13659Y15362D01*
X13717Y15362D01*
X13725Y15363D01*
X13732Y15385D01*
X13755Y15385D01*
X13755Y15400D01*
X13777Y15407D01*
X13779Y15409D01*
X13779Y15410D01*
X13782Y15414D01*
X13783Y15416D01*
X13786Y15420D01*
X13793Y15434D01*
X13797Y15443D01*
X13802Y15458D01*
X13804Y15464D01*
X13806Y15472D01*
X13807Y15481D01*
X13808Y15484D01*
X13808Y15504D01*
X13808Y15528D01*
X13804Y15536D01*
X13797Y15552D01*
X13793Y15558D01*
X13793Y15560D01*
X13789Y15565D01*
X13788Y15567D01*
X13786Y15568D01*
X13786Y15570D01*
X13783Y15572D01*
X13783Y15574D01*
X13779Y15578D01*
X13778Y15579D01*
X13770Y15587D01*
X13769Y15587D01*
X13763Y15594D01*
X13761Y15594D01*
X13759Y15597D01*
X13757Y15597D01*
X13756Y15599D01*
X13743Y15608D01*
X13741Y15609D01*
X13740Y15610D01*
X13736Y15614D01*
X13729Y15617D01*
X13725Y15621D01*
X13718Y15623D01*
X13715Y15624D01*
X13710Y15625D01*
X13708Y15626D01*
X13684Y15626D01*
D02*
G37*
G36*
X13138Y15092D02*
X13122Y15087D01*
X13118Y15086D01*
X13117Y15084D01*
X13162Y15039D01*
X13163Y15039D01*
X13177Y15025D01*
X13178Y15023D01*
X13183Y15018D01*
X13184Y15016D01*
X13186Y15014D01*
X13187Y15012D01*
X13189Y15011D01*
X13189Y15009D01*
X13191Y15008D01*
X13192Y15006D01*
X13196Y15001D01*
X13199Y14995D01*
X13206Y14980D01*
X13212Y14998D01*
X13214Y15002D01*
X13210Y15009D01*
X13206Y15016D01*
X13205Y15017D01*
X13203Y15019D01*
X13203Y15020D01*
X13201Y15022D01*
X13200Y15023D01*
X13198Y15026D01*
X13197Y15027D01*
X13196Y15029D01*
X13195Y15030D01*
X13192Y15033D01*
X13192Y15034D01*
X13189Y15037D01*
X13189Y15037D01*
X13189Y15038D01*
X13186Y15041D01*
X13185Y15042D01*
X13184Y15044D01*
X13183Y15045D01*
X13180Y15048D01*
X13179Y15050D01*
X13175Y15054D01*
X13174Y15056D01*
X13169Y15061D01*
X13168Y15063D01*
X13157Y15074D01*
X13156Y15075D01*
X13146Y15086D01*
X13144Y15086D01*
X13140Y15091D01*
X13138Y15092D01*
D02*
G37*
G36*
X13003Y15018D02*
X12989Y15018D01*
X12988Y15003D01*
X12974Y15002D01*
X12956Y15002D01*
X12951Y15001D01*
X12946Y15000D01*
X12935Y14996D01*
X12925Y14992D01*
X12917Y14986D01*
X12916Y14985D01*
X12911Y14981D01*
X12910Y14980D01*
X12904Y14975D01*
X12895Y14962D01*
X12894Y14961D01*
X12890Y14955D01*
X12884Y14943D01*
X12883Y14939D01*
X12879Y14927D01*
X12878Y14924D01*
X12877Y14922D01*
X12876Y14915D01*
X12875Y14913D01*
X12875Y14888D01*
X12875Y14880D01*
X12878Y14871D01*
X12879Y14865D01*
X12880Y14862D01*
X12882Y14857D01*
X12883Y14858D01*
X12890Y14848D01*
X12891Y14847D01*
X12907Y14825D01*
X12908Y14823D01*
X12909Y14822D01*
X12910Y14820D01*
X12911Y14818D01*
X12912Y14817D01*
X12914Y14815D01*
X12915Y14814D01*
X12916Y14812D01*
X12917Y14811D01*
X12919Y14809D01*
X12919Y14807D01*
X12921Y14806D01*
X12922Y14804D01*
X12923Y14803D01*
X12924Y14801D01*
X12926Y14800D01*
X12926Y14798D01*
X12928Y14796D01*
X12929Y14795D01*
X12930Y14793D01*
X12931Y14792D01*
X12933Y14790D01*
X12933Y14789D01*
X12935Y14787D01*
X12936Y14786D01*
X12938Y14784D01*
X12943Y14782D01*
X12952Y14779D01*
X12957Y14778D01*
X12960Y14777D01*
X12971Y14776D01*
X12972D01*
X12992Y14775D01*
X13002Y14776D01*
X13007Y14777D01*
X13016Y14778D01*
X13019Y14779D01*
X13025Y14780D01*
X13028Y14780D01*
X13033Y14782D01*
X13045Y14786D01*
X13050Y14787D01*
X13054Y14789D01*
X13061Y14792D01*
X13072Y14798D01*
X13078Y14802D01*
X13079Y14802D01*
X13081Y14804D01*
X13082Y14805D01*
X13084Y14806D01*
X13086Y14807D01*
X13090Y14812D01*
X13092Y14813D01*
X13094Y14814D01*
X13095Y14816D01*
X13099Y14820D01*
X13100Y14823D01*
X13106Y14830D01*
X13113Y14843D01*
X13115Y14848D01*
X13116Y14852D01*
X13118Y14862D01*
X13118Y14867D01*
X13119Y14874D01*
X13120Y14890D01*
X13120Y14908D01*
X13119Y14913D01*
X13117Y14922D01*
X13117Y14926D01*
X13113Y14937D01*
X13112Y14940D01*
X13104Y14957D01*
X13103Y14958D01*
X13098Y14967D01*
X13097Y14969D01*
X13089Y14976D01*
X13088Y14978D01*
X13083Y14983D01*
X13082Y14984D01*
X13078Y14987D01*
X13073Y14991D01*
X13069Y14995D01*
X13066Y14997D01*
X13057Y15003D01*
X13045Y15009D01*
X13039Y15012D01*
X13034Y15014D01*
X13030Y15015D01*
X13022Y15016D01*
X13003Y15018D01*
D02*
G37*
G36*
X12992Y14162D02*
X12979Y14161D01*
X12976Y14161D01*
X12967Y14159D01*
X12954Y14156D01*
X12946Y14154D01*
X12941Y14152D01*
X12923Y14143D01*
X12917Y14139D01*
X12916Y14139D01*
X12914Y14137D01*
X12913Y14136D01*
X12910Y14134D01*
X12909Y14133D01*
X12899Y14123D01*
X12898Y14122D01*
X12895Y14119D01*
X12894Y14117D01*
X12893Y14116D01*
X12892Y14114D01*
X12890Y14112D01*
X12890Y14111D01*
X12886Y14105D01*
X12885Y14104D01*
X12881Y14098D01*
X12880Y14097D01*
X12876Y14091D01*
X12875Y14090D01*
X12874Y14088D01*
Y14087D01*
X12874Y14087D01*
X12871Y14081D01*
X12870Y14078D01*
X12868Y14069D01*
X12868Y14067D01*
X12867Y14059D01*
X12866Y14057D01*
X12866Y14036D01*
X12867Y14028D01*
X12868Y14022D01*
X12870Y14015D01*
X12872Y14010D01*
X12875Y13997D01*
X12877Y13994D01*
X12878Y13992D01*
X12882Y13987D01*
X12883Y13985D01*
X12886Y13979D01*
X12887Y13978D01*
X12889Y13976D01*
X12890Y13975D01*
X12891Y13973D01*
X12892Y13972D01*
X12893Y13970D01*
X12894Y13968D01*
X12897Y13966D01*
X12897Y13965D01*
X12901Y13961D01*
X12902Y13959D01*
X12914Y13947D01*
X12916Y13946D01*
X12918Y13944D01*
X12928Y13937D01*
X12929Y13936D01*
X12931Y13934D01*
X12936Y13931D01*
X12943Y13928D01*
X12947Y13927D01*
X12953Y13926D01*
X12964Y13925D01*
X12967Y13924D01*
X12990Y13923D01*
X12998Y13924D01*
X13011Y13926D01*
X13018Y13927D01*
X13023Y13929D01*
X13026Y13930D01*
X13030Y13931D01*
X13045Y13938D01*
X13050Y13943D01*
X13051Y13944D01*
X13057Y13950D01*
X13059Y13951D01*
X13075Y13967D01*
X13076Y13968D01*
X13078Y13971D01*
X13080Y13974D01*
X13088Y13983D01*
X13095Y13997D01*
X13097Y14001D01*
X13099Y14008D01*
X13100Y14013D01*
X13102Y14019D01*
X13102Y14022D01*
X13102Y14068D01*
X13101Y14071D01*
X13084Y14076D01*
X13080Y14078D01*
X13079Y14079D01*
X13078Y14098D01*
X13077Y14108D01*
X13075Y14114D01*
X13073Y14120D01*
X13073Y14123D01*
X13070Y14128D01*
X13068Y14132D01*
X13067Y14134D01*
X13065Y14136D01*
X13064Y14138D01*
X13058Y14143D01*
X13057Y14144D01*
X13055Y14146D01*
X13050Y14150D01*
X13042Y14153D01*
X13029Y14158D01*
X13026Y14159D01*
X13017Y14161D01*
X13014Y14161D01*
X12992Y14162D01*
D02*
G37*
G36*
X13216Y13981D02*
X13213Y13980D01*
X13212Y13977D01*
X13210Y13965D01*
X13208Y13956D01*
X13208Y13949D01*
X13206Y13929D01*
X13208Y13925D01*
X13209Y13923D01*
X13211Y13921D01*
X13212Y13919D01*
X13214Y13917D01*
X13216Y13914D01*
X13218Y13913D01*
X13219Y13912D01*
X13223Y13909D01*
X13229Y13906D01*
X13244Y13913D01*
X13243Y13916D01*
X13240Y13923D01*
X13238Y13927D01*
X13238Y13927D01*
X13237Y13931D01*
X13234Y13939D01*
X13228Y13954D01*
X13225Y13965D01*
X13224Y13969D01*
X13223Y13974D01*
X13221Y13980D01*
X13216Y13981D01*
D02*
G37*
G36*
X17075Y12148D02*
X16965Y12147D01*
X16922Y12147D01*
X16900Y12146D01*
X16885Y12145D01*
X16874Y12144D01*
X16865Y12143D01*
X16853Y12142D01*
X16850Y12142D01*
X16844Y12141D01*
X16831Y12138D01*
X16825Y12137D01*
X16819Y12135D01*
X16812Y12133D01*
X16808Y12131D01*
X16791Y12124D01*
X16790Y12123D01*
X16785Y12120D01*
X16783Y12119D01*
X16778Y12115D01*
X16776Y12114D01*
X16775Y12113D01*
X16773Y12112D01*
X16771Y12109D01*
X16769Y12109D01*
X16767Y12106D01*
X16765Y12106D01*
X16762Y12102D01*
X16761Y12102D01*
X16757Y12098D01*
X16755Y12097D01*
X16750Y12091D01*
X16748Y12091D01*
X16742Y12084D01*
X16740Y12084D01*
X16733Y12077D01*
X16732Y12076D01*
X16717Y12061D01*
X16716Y12060D01*
X16713Y12057D01*
X16711Y12054D01*
X16708Y12050D01*
X16702Y12043D01*
X16702Y12041D01*
X16700Y12039D01*
X16699Y12038D01*
X16695Y12032D01*
X16695Y12031D01*
X16689Y12022D01*
X16679Y12004D01*
X16673Y11990D01*
X16668Y11977D01*
X16666Y11972D01*
X16663Y11961D01*
X16659Y11945D01*
X16658Y11941D01*
X16657Y11938D01*
X16657Y11934D01*
X16656Y11929D01*
X16655Y11926D01*
X16653Y11915D01*
X16652Y11904D01*
X16652Y11902D01*
X16651Y11884D01*
X16650Y11881D01*
X16650Y11850D01*
X16651Y11838D01*
X16652Y11823D01*
X16653Y11820D01*
X16655Y11804D01*
X16656Y11800D01*
X16657Y11796D01*
X16658Y11788D01*
X16659Y11783D01*
X16662Y11773D01*
X16663Y11768D01*
X16669Y11749D01*
X16671Y11744D01*
X16673Y11740D01*
X16686Y11713D01*
X16691Y11704D01*
X16695Y11699D01*
X16695Y11697D01*
X16699Y11692D01*
X16700Y11690D01*
X16702Y11689D01*
X16702Y11687D01*
X16704Y11686D01*
X16705Y11684D01*
X16706Y11683D01*
X16707Y11681D01*
X16709Y11679D01*
X16710Y11677D01*
X16713Y11674D01*
X16714Y11672D01*
X16719Y11668D01*
X16720Y11666D01*
X16729Y11656D01*
X16731Y11656D01*
X16733Y11653D01*
X16735Y11652D01*
X16736Y11651D01*
X16738Y11650D01*
X16740Y11648D01*
X16741Y11648D01*
X16742Y11647D01*
X16756Y11637D01*
X16777Y11625D01*
X16794Y11618D01*
X16800Y11615D01*
X16822Y11608D01*
X16826Y11607D01*
X16829Y11606D01*
X16833Y11605D01*
X16839Y11603D01*
X16847Y11602D01*
X16852Y11601D01*
X16867Y11599D01*
X16879Y11598D01*
X16881Y11597D01*
X16904Y11596D01*
X16906Y11595D01*
X16965Y11596D01*
X17008Y11597D01*
X17010Y11598D01*
X17063Y11598D01*
X17064D01*
X17075Y11599D01*
X17076Y12147D01*
X17075Y12148D01*
D02*
G37*
%LPD*%
D13*
X30787Y-1571D02*
G03*
X31359Y-999I0J572D01*
G01*
X31359Y26866D02*
G03*
X30975Y27250I-384J0D01*
G01*
X-1112Y27254D02*
G03*
X-1575Y26791I0J-463D01*
G01*
X-1575Y-1112D02*
G03*
X-1112Y-1575I463J0D01*
G01*
X31359Y-999D02*
X31359Y26866D01*
X30906Y27254D02*
X30975Y27250D01*
X-1112Y27254D02*
X30906Y27254D01*
X-1113Y-1575D02*
X30787Y-1575D01*
X-1575Y26791D02*
X-1575Y-1112D01*
D17*
X20669Y8858D02*
X26083D01*
X20669D02*
Y17717D01*
X26083Y8858D02*
Y17717D01*
X20669D02*
X26083D01*
M02*
