G04*
G04 #@! TF.GenerationSoftware,Altium Limited,Altium Designer,25.8.1 (18)*
G04*
G04 Layer_Color=65535*
%FSLAX24Y24*%
%MOIN*%
G70*
G04*
G04 #@! TF.SameCoordinates,E7C4B6EF-679D-40F3-B346-0123BADFF20E*
G04*
G04*
G04 #@! TF.FilePolarity,Positive*
G04*
G01*
G75*
%ADD10C,0.0197*%
%ADD11C,0.0098*%
%ADD12C,0.0079*%
%ADD13C,0.0100*%
%ADD14C,0.0059*%
%ADD15C,0.0071*%
%ADD16R,0.0069X0.0285*%
%ADD17C,0.0039*%
G36*
X15945Y-717D02*
X3346D01*
Y875D01*
X15945D01*
Y-717D01*
D02*
G37*
G36*
X27011Y22008D02*
X26535D01*
Y22164D01*
X27011D01*
Y22008D01*
D02*
G37*
G36*
X27050Y17402D02*
X26575D01*
Y17557D01*
X27050D01*
Y17402D01*
D02*
G37*
G36*
X26827Y20175D02*
X27170D01*
Y20031D01*
X26827D01*
Y19685D01*
X26681D01*
Y20031D01*
X26339D01*
Y20175D01*
X26681D01*
Y20518D01*
X26827D01*
Y20175D01*
D02*
G37*
G36*
X26906Y15490D02*
X27249D01*
Y15346D01*
X26906D01*
Y15000D01*
X26760D01*
Y15346D01*
X26417D01*
Y15490D01*
X26760D01*
Y15833D01*
X26906D01*
Y15490D01*
D02*
G37*
%LPC*%
G36*
X9271Y525D02*
X9103D01*
Y369D01*
X9271D01*
Y525D01*
D02*
G37*
G36*
X13868D02*
X13699D01*
Y207D01*
X13684Y223D01*
X13668Y237D01*
X13652Y249D01*
X13637Y259D01*
X13621Y268D01*
X13605Y275D01*
X13590Y281D01*
X13576Y285D01*
X13564Y289D01*
X13551Y292D01*
X13541Y295D01*
X13532Y296D01*
X13524Y297D01*
X13513D01*
X13491Y296D01*
X13471Y293D01*
X13452Y289D01*
X13434Y283D01*
X13417Y277D01*
X13401Y270D01*
X13386Y262D01*
X13372Y254D01*
X13361Y246D01*
X13350Y238D01*
X13341Y231D01*
X13333Y226D01*
X13327Y220D01*
X13323Y215D01*
X13320Y213D01*
X13319Y212D01*
X13305Y195D01*
X13294Y177D01*
X13284Y158D01*
X13276Y137D01*
X13268Y117D01*
X13262Y96D01*
X13253Y56D01*
X13250Y37D01*
X13248Y20D01*
X13246Y4D01*
X13245Y-10D01*
X13243Y-20D01*
Y-36D01*
X13245Y-65D01*
X13247Y-92D01*
X13250Y-119D01*
X13256Y-142D01*
X13262Y-165D01*
X13269Y-184D01*
X13276Y-204D01*
X13283Y-220D01*
X13289Y-235D01*
X13297Y-247D01*
X13303Y-259D01*
X13309Y-268D01*
X13315Y-275D01*
X13318Y-279D01*
X13320Y-283D01*
X13322Y-284D01*
X13336Y-300D01*
X13353Y-313D01*
X13367Y-325D01*
X13384Y-335D01*
X13400Y-344D01*
X13416Y-351D01*
X13431Y-356D01*
X13446Y-361D01*
X13458Y-366D01*
X13471Y-368D01*
X13482Y-370D01*
X13491Y-371D01*
X13499D01*
X13505Y-372D01*
X13510D01*
X13530Y-371D01*
X13550Y-368D01*
X13568Y-364D01*
X13584Y-359D01*
X13598Y-354D01*
X13609Y-351D01*
X13615Y-347D01*
X13618Y-346D01*
X13637Y-335D01*
X13654Y-322D01*
X13671Y-308D01*
X13684Y-294D01*
X13696Y-283D01*
X13704Y-274D01*
X13708Y-267D01*
X13711Y-266D01*
Y-358D01*
X13868D01*
Y525D01*
D02*
G37*
G36*
X13107Y297D02*
X13097D01*
X13082Y296D01*
X13068Y293D01*
X13056Y290D01*
X13045Y287D01*
X13037Y282D01*
X13030Y278D01*
X13025Y276D01*
X13024Y275D01*
X13012Y266D01*
X12999Y253D01*
X12988Y239D01*
X12976Y225D01*
X12967Y212D01*
X12959Y200D01*
X12955Y196D01*
X12954Y192D01*
X12952Y191D01*
Y282D01*
X12795D01*
Y-358D01*
X12963D01*
Y-160D01*
Y-130D01*
X12965Y-104D01*
Y-80D01*
X12966Y-58D01*
X12967Y-38D01*
X12968Y-21D01*
X12969Y-5D01*
X12970Y8D01*
X12971Y19D01*
X12973Y29D01*
X12974Y36D01*
X12975Y43D01*
X12976Y48D01*
X12977Y51D01*
Y53D01*
X12983Y72D01*
X12989Y87D01*
X12996Y98D01*
X13001Y109D01*
X13007Y115D01*
X13012Y121D01*
X13014Y124D01*
X13015Y125D01*
X13025Y132D01*
X13036Y136D01*
X13046Y141D01*
X13055Y143D01*
X13064Y144D01*
X13071Y145D01*
X13077D01*
X13091Y144D01*
X13105Y141D01*
X13118Y136D01*
X13131Y132D01*
X13141Y126D01*
X13149Y121D01*
X13154Y118D01*
X13156Y117D01*
X13209Y265D01*
X13188Y275D01*
X13169Y283D01*
X13149Y289D01*
X13132Y293D01*
X13118Y296D01*
X13107Y297D01*
D02*
G37*
G36*
X8928D02*
X8918D01*
X8903Y296D01*
X8889Y293D01*
X8878Y290D01*
X8866Y287D01*
X8858Y282D01*
X8851Y278D01*
X8847Y276D01*
X8846Y275D01*
X8833Y266D01*
X8820Y253D01*
X8809Y239D01*
X8797Y225D01*
X8788Y212D01*
X8780Y200D01*
X8777Y196D01*
X8775Y192D01*
X8773Y191D01*
Y282D01*
X8616D01*
Y-358D01*
X8785D01*
Y-160D01*
Y-130D01*
X8786Y-104D01*
Y-80D01*
X8787Y-58D01*
X8788Y-38D01*
X8789Y-21D01*
X8790Y-5D01*
X8792Y8D01*
X8793Y19D01*
X8794Y29D01*
X8795Y36D01*
X8796Y43D01*
X8797Y48D01*
X8798Y51D01*
Y53D01*
X8804Y72D01*
X8810Y87D01*
X8817Y98D01*
X8823Y109D01*
X8828Y115D01*
X8833Y121D01*
X8835Y124D01*
X8836Y125D01*
X8847Y132D01*
X8857Y136D01*
X8867Y141D01*
X8877Y143D01*
X8886Y144D01*
X8893Y145D01*
X8898D01*
X8912Y144D01*
X8926Y141D01*
X8940Y136D01*
X8952Y132D01*
X8963Y126D01*
X8971Y121D01*
X8975Y118D01*
X8978Y117D01*
X9030Y265D01*
X9010Y275D01*
X8990Y283D01*
X8971Y289D01*
X8953Y293D01*
X8940Y296D01*
X8928Y297D01*
D02*
G37*
G36*
X10010Y282D02*
X9812D01*
X9692Y105D01*
X9578Y282D01*
X9372D01*
X9593Y-29D01*
X9363Y-358D01*
X9561D01*
X9692Y-160D01*
X9821Y-358D01*
X10029D01*
X9793Y-21D01*
X10010Y282D01*
D02*
G37*
G36*
X7350Y525D02*
X7082D01*
X6924Y-77D01*
X6764Y525D01*
X6498D01*
Y-358D01*
X6663D01*
Y337D01*
X6838Y-358D01*
X7009D01*
X7183Y337D01*
X7184Y-358D01*
X7350D01*
Y525D01*
D02*
G37*
G36*
X15110D02*
X14921D01*
X14704Y-128D01*
X14481Y525D01*
X14288D01*
X14603Y-358D01*
X14793D01*
X15110Y525D01*
D02*
G37*
G36*
X15595Y530D02*
X15457D01*
X15451Y515D01*
X15444Y500D01*
X15428Y474D01*
X15411Y450D01*
X15393Y428D01*
X15376Y412D01*
X15370Y404D01*
X15363Y398D01*
X15357Y393D01*
X15354Y390D01*
X15351Y389D01*
X15350Y388D01*
X15321Y367D01*
X15295Y350D01*
X15271Y335D01*
X15250Y324D01*
X15233Y316D01*
X15225Y313D01*
X15219Y311D01*
X15215Y308D01*
X15211Y307D01*
X15209Y306D01*
X15208D01*
Y152D01*
X15252Y169D01*
X15295Y190D01*
X15313Y200D01*
X15332Y211D01*
X15349Y221D01*
X15364Y231D01*
X15378Y242D01*
X15390Y250D01*
X15401Y259D01*
X15410Y266D01*
X15417Y272D01*
X15421Y276D01*
X15425Y278D01*
X15426Y280D01*
Y-358D01*
X15595D01*
Y530D01*
D02*
G37*
G36*
X12384Y297D02*
X12342D01*
X12322Y295D01*
X12301Y292D01*
X12283Y290D01*
X12267Y287D01*
X12250Y282D01*
X12237Y278D01*
X12224Y274D01*
X12214Y269D01*
X12203Y266D01*
X12195Y261D01*
X12188Y258D01*
X12184Y256D01*
X12180Y253D01*
X12178Y251D01*
X12177D01*
X12155Y233D01*
X12137Y211D01*
X12121Y188D01*
X12109Y165D01*
X12100Y145D01*
X12097Y136D01*
X12093Y128D01*
X12091Y122D01*
X12090Y118D01*
X12089Y114D01*
Y113D01*
X12241Y86D01*
X12247Y102D01*
X12254Y114D01*
X12261Y126D01*
X12267Y134D01*
X12272Y141D01*
X12277Y145D01*
X12280Y148D01*
X12281Y149D01*
X12292Y155D01*
X12303Y159D01*
X12315Y163D01*
X12326Y165D01*
X12337Y166D01*
X12345Y167D01*
X12353D01*
X12376Y166D01*
X12395Y164D01*
X12411Y160D01*
X12423Y157D01*
X12432Y152D01*
X12439Y149D01*
X12442Y146D01*
X12443Y145D01*
X12451Y136D01*
X12458Y126D01*
X12463Y114D01*
X12465Y102D01*
X12467Y91D01*
X12469Y82D01*
Y76D01*
Y75D01*
Y74D01*
Y58D01*
X12459Y55D01*
X12448Y51D01*
X12436Y47D01*
X12424Y43D01*
X12396Y36D01*
X12369Y29D01*
X12343Y24D01*
X12332Y21D01*
X12323Y19D01*
X12315Y18D01*
X12309Y17D01*
X12304Y16D01*
X12303D01*
X12272Y10D01*
X12246Y3D01*
X12223Y-4D01*
X12203Y-10D01*
X12188Y-15D01*
X12178Y-20D01*
X12171Y-22D01*
X12169Y-23D01*
X12153Y-33D01*
X12138Y-43D01*
X12126Y-53D01*
X12116Y-64D01*
X12107Y-73D01*
X12101Y-81D01*
X12098Y-85D01*
X12097Y-88D01*
X12089Y-104D01*
X12082Y-121D01*
X12077Y-137D01*
X12075Y-152D01*
X12073Y-165D01*
X12071Y-175D01*
Y-184D01*
X12073Y-199D01*
X12074Y-213D01*
X12081Y-239D01*
X12090Y-263D01*
X12100Y-283D01*
X12110Y-298D01*
X12118Y-310D01*
X12123Y-314D01*
X12125Y-317D01*
X12126Y-318D01*
X12128Y-320D01*
X12139Y-329D01*
X12151Y-337D01*
X12176Y-351D01*
X12202Y-360D01*
X12228Y-366D01*
X12249Y-370D01*
X12260Y-371D01*
X12268D01*
X12275Y-372D01*
X12284D01*
X12304Y-371D01*
X12324Y-369D01*
X12341Y-366D01*
X12357Y-362D01*
X12370Y-359D01*
X12380Y-355D01*
X12386Y-353D01*
X12388Y-352D01*
X12407Y-343D01*
X12424Y-333D01*
X12440Y-323D01*
X12454Y-313D01*
X12465Y-304D01*
X12473Y-296D01*
X12479Y-291D01*
X12481Y-289D01*
X12484Y-293D01*
X12485Y-300D01*
X12487Y-306D01*
Y-307D01*
Y-308D01*
X12490Y-320D01*
X12494Y-330D01*
X12497Y-338D01*
X12500Y-345D01*
X12502Y-351D01*
X12503Y-354D01*
X12504Y-356D01*
Y-358D01*
X12672D01*
X12664Y-341D01*
X12657Y-325D01*
X12652Y-310D01*
X12648Y-298D01*
X12644Y-287D01*
X12642Y-279D01*
X12641Y-275D01*
Y-273D01*
X12639Y-255D01*
X12636Y-236D01*
X12635Y-215D01*
X12634Y-194D01*
X12633Y-176D01*
Y-168D01*
Y-161D01*
Y-155D01*
Y-151D01*
Y-149D01*
Y-147D01*
X12635Y50D01*
Y70D01*
X12634Y88D01*
X12633Y105D01*
X12632Y120D01*
X12629Y134D01*
X12628Y146D01*
X12626Y158D01*
X12624Y167D01*
X12621Y175D01*
X12619Y183D01*
X12618Y189D01*
X12616Y194D01*
X12613Y199D01*
X12612Y202D01*
X12602Y216D01*
X12590Y229D01*
X12578Y242D01*
X12565Y251D01*
X12552Y259D01*
X12543Y265D01*
X12536Y268D01*
X12535Y269D01*
X12534D01*
X12523Y274D01*
X12511Y278D01*
X12485Y285D01*
X12456Y290D01*
X12430Y293D01*
X12416Y295D01*
X12404Y296D01*
X12393D01*
X12384Y297D01*
D02*
G37*
G36*
X10863Y525D02*
X10475D01*
Y-358D01*
X10805D01*
X10833Y-356D01*
X10880D01*
X10899Y-355D01*
X10933D01*
X10945Y-354D01*
X10957D01*
X10966Y-353D01*
X10980D01*
X10984Y-352D01*
X10989D01*
X11014Y-347D01*
X11037Y-341D01*
X11058Y-336D01*
X11075Y-328D01*
X11089Y-322D01*
X11100Y-316D01*
X11106Y-312D01*
X11108Y-310D01*
X11125Y-297D01*
X11142Y-282D01*
X11154Y-267D01*
X11166Y-252D01*
X11174Y-239D01*
X11181Y-229D01*
X11184Y-222D01*
X11185Y-221D01*
Y-220D01*
X11194Y-198D01*
X11201Y-177D01*
X11207Y-158D01*
X11210Y-139D01*
X11213Y-124D01*
X11214Y-113D01*
Y-103D01*
X11212Y-75D01*
X11207Y-50D01*
X11200Y-27D01*
X11192Y-7D01*
X11184Y9D01*
X11177Y20D01*
X11175Y25D01*
X11173Y28D01*
X11170Y29D01*
Y31D01*
X11152Y50D01*
X11132Y67D01*
X11112Y81D01*
X11092Y91D01*
X11074Y101D01*
X11066Y104D01*
X11060Y106D01*
X11054Y109D01*
X11050Y110D01*
X11047Y111D01*
X11046D01*
X11067Y122D01*
X11084Y134D01*
X11100Y148D01*
X11113Y160D01*
X11123Y172D01*
X11131Y181D01*
X11136Y187D01*
X11137Y189D01*
X11148Y208D01*
X11156Y228D01*
X11162Y247D01*
X11166Y265D01*
X11169Y281D01*
X11170Y292D01*
Y297D01*
Y300D01*
Y301D01*
Y303D01*
X11169Y323D01*
X11166Y343D01*
X11161Y360D01*
X11156Y376D01*
X11152Y389D01*
X11147Y398D01*
X11144Y404D01*
X11143Y406D01*
X11132Y422D01*
X11121Y437D01*
X11109Y450D01*
X11099Y460D01*
X11089Y468D01*
X11082Y475D01*
X11077Y478D01*
X11075Y479D01*
X11060Y489D01*
X11044Y497D01*
X11028Y503D01*
X11014Y508D01*
X11001Y512D01*
X10992Y514D01*
X10985Y516D01*
X10983D01*
X10973Y517D01*
X10961Y520D01*
X10937Y522D01*
X10911Y523D01*
X10886Y524D01*
X10863Y525D01*
D02*
G37*
G36*
X9271Y282D02*
X9103D01*
Y-358D01*
X9271D01*
Y282D01*
D02*
G37*
G36*
X7794Y297D02*
X7753D01*
X7732Y295D01*
X7711Y292D01*
X7693Y290D01*
X7677Y287D01*
X7661Y282D01*
X7647Y278D01*
X7634Y274D01*
X7624Y269D01*
X7614Y266D01*
X7606Y261D01*
X7599Y258D01*
X7594Y256D01*
X7591Y253D01*
X7588Y251D01*
X7587D01*
X7565Y233D01*
X7547Y211D01*
X7531Y188D01*
X7520Y165D01*
X7510Y145D01*
X7507Y136D01*
X7503Y128D01*
X7501Y122D01*
X7500Y118D01*
X7499Y114D01*
Y113D01*
X7652Y86D01*
X7657Y102D01*
X7664Y114D01*
X7671Y126D01*
X7677Y134D01*
X7683Y141D01*
X7687Y145D01*
X7691Y148D01*
X7692Y149D01*
X7702Y155D01*
X7714Y159D01*
X7725Y163D01*
X7737Y165D01*
X7747Y166D01*
X7755Y167D01*
X7763D01*
X7786Y166D01*
X7805Y164D01*
X7821Y160D01*
X7833Y157D01*
X7842Y152D01*
X7849Y149D01*
X7852Y146D01*
X7854Y145D01*
X7862Y136D01*
X7869Y126D01*
X7873Y114D01*
X7875Y102D01*
X7878Y91D01*
X7879Y82D01*
Y76D01*
Y75D01*
Y74D01*
Y58D01*
X7870Y55D01*
X7858Y51D01*
X7847Y47D01*
X7834Y43D01*
X7807Y36D01*
X7779Y29D01*
X7754Y24D01*
X7742Y21D01*
X7733Y19D01*
X7725Y18D01*
X7719Y17D01*
X7715Y16D01*
X7714D01*
X7683Y10D01*
X7656Y3D01*
X7633Y-4D01*
X7614Y-10D01*
X7599Y-15D01*
X7588Y-20D01*
X7582Y-22D01*
X7579Y-23D01*
X7563Y-33D01*
X7548Y-43D01*
X7537Y-53D01*
X7526Y-64D01*
X7517Y-73D01*
X7512Y-81D01*
X7508Y-85D01*
X7507Y-88D01*
X7499Y-104D01*
X7492Y-121D01*
X7487Y-137D01*
X7485Y-152D01*
X7483Y-165D01*
X7482Y-175D01*
Y-184D01*
X7483Y-199D01*
X7484Y-213D01*
X7491Y-239D01*
X7500Y-263D01*
X7510Y-283D01*
X7521Y-298D01*
X7529Y-310D01*
X7533Y-314D01*
X7536Y-317D01*
X7537Y-318D01*
X7538Y-320D01*
X7549Y-329D01*
X7561Y-337D01*
X7586Y-351D01*
X7613Y-360D01*
X7638Y-366D01*
X7660Y-370D01*
X7670Y-371D01*
X7678D01*
X7685Y-372D01*
X7694D01*
X7715Y-371D01*
X7734Y-369D01*
X7751Y-366D01*
X7768Y-362D01*
X7780Y-359D01*
X7790Y-355D01*
X7796Y-353D01*
X7799Y-352D01*
X7817Y-343D01*
X7834Y-333D01*
X7850Y-323D01*
X7864Y-313D01*
X7875Y-304D01*
X7883Y-296D01*
X7889Y-291D01*
X7892Y-289D01*
X7894Y-293D01*
X7895Y-300D01*
X7897Y-306D01*
Y-307D01*
Y-308D01*
X7901Y-320D01*
X7904Y-330D01*
X7908Y-338D01*
X7910Y-345D01*
X7912Y-351D01*
X7913Y-354D01*
X7914Y-356D01*
Y-358D01*
X8082D01*
X8074Y-341D01*
X8067Y-325D01*
X8063Y-310D01*
X8058Y-298D01*
X8055Y-287D01*
X8052Y-279D01*
X8051Y-275D01*
Y-273D01*
X8049Y-255D01*
X8047Y-236D01*
X8045Y-215D01*
X8044Y-194D01*
X8043Y-176D01*
Y-168D01*
Y-161D01*
Y-155D01*
Y-151D01*
Y-149D01*
Y-147D01*
X8045Y50D01*
Y70D01*
X8044Y88D01*
X8043Y105D01*
X8042Y120D01*
X8040Y134D01*
X8038Y146D01*
X8036Y158D01*
X8034Y167D01*
X8032Y175D01*
X8029Y183D01*
X8028Y189D01*
X8026Y194D01*
X8024Y199D01*
X8022Y202D01*
X8012Y216D01*
X8001Y229D01*
X7988Y242D01*
X7975Y251D01*
X7963Y259D01*
X7954Y265D01*
X7947Y268D01*
X7945Y269D01*
X7944D01*
X7933Y274D01*
X7921Y278D01*
X7895Y285D01*
X7866Y290D01*
X7840Y293D01*
X7826Y295D01*
X7815Y296D01*
X7803D01*
X7794Y297D01*
D02*
G37*
G36*
X5620Y525D02*
X5267D01*
Y-358D01*
X5602D01*
X5638Y-356D01*
X5669Y-354D01*
X5695Y-352D01*
X5707Y-349D01*
X5718Y-348D01*
X5728Y-346D01*
X5736Y-345D01*
X5744Y-344D01*
X5749Y-341D01*
X5754Y-340D01*
X5757D01*
X5759Y-339D01*
X5760D01*
X5788Y-329D01*
X5813Y-317D01*
X5834Y-306D01*
X5852Y-294D01*
X5866Y-284D01*
X5877Y-276D01*
X5883Y-271D01*
X5885Y-269D01*
X5907Y-245D01*
X5926Y-220D01*
X5942Y-193D01*
X5956Y-168D01*
X5966Y-146D01*
X5971Y-137D01*
X5974Y-129D01*
X5977Y-122D01*
X5979Y-118D01*
X5980Y-114D01*
Y-113D01*
X5989Y-82D01*
X5996Y-50D01*
X6001Y-19D01*
X6004Y11D01*
X6005Y25D01*
X6007Y36D01*
Y48D01*
X6008Y57D01*
Y75D01*
X6007Y120D01*
X6005Y141D01*
X6003Y160D01*
X6001Y179D01*
X5998Y196D01*
X5995Y212D01*
X5993Y226D01*
X5990Y238D01*
X5987Y250D01*
X5985Y260D01*
X5982Y268D01*
X5980Y275D01*
X5979Y280D01*
X5978Y282D01*
Y283D01*
X5966Y314D01*
X5953Y342D01*
X5939Y366D01*
X5925Y386D01*
X5914Y404D01*
X5908Y411D01*
X5903Y416D01*
X5900Y421D01*
X5896Y424D01*
X5895Y425D01*
X5894Y427D01*
X5872Y447D01*
X5850Y464D01*
X5827Y478D01*
X5807Y490D01*
X5788Y498D01*
X5780Y501D01*
X5773Y503D01*
X5769Y506D01*
X5764Y507D01*
X5762Y508D01*
X5761D01*
X5749Y512D01*
X5737Y514D01*
X5710Y518D01*
X5682Y521D01*
X5654Y523D01*
X5641Y524D01*
X5630D01*
X5620Y525D01*
D02*
G37*
G36*
X5100D02*
X4446D01*
Y-358D01*
X5117D01*
Y-208D01*
X4624D01*
Y32D01*
X5066D01*
Y181D01*
X4624D01*
Y376D01*
X5100D01*
Y525D01*
D02*
G37*
G36*
X3875Y518D02*
X3697D01*
Y-358D01*
X4318D01*
Y-208D01*
X3875D01*
Y518D01*
D02*
G37*
G36*
X11659Y297D02*
X11652D01*
X11618Y295D01*
X11587Y290D01*
X11558Y283D01*
X11533Y276D01*
X11522Y272D01*
X11512Y268D01*
X11503Y265D01*
X11496Y261D01*
X11491Y258D01*
X11486Y257D01*
X11484Y254D01*
X11482D01*
X11456Y237D01*
X11432Y218D01*
X11412Y198D01*
X11395Y179D01*
X11383Y161D01*
X11377Y153D01*
X11373Y146D01*
X11370Y142D01*
X11368Y137D01*
X11365Y135D01*
Y134D01*
X11352Y104D01*
X11341Y75D01*
X11334Y48D01*
X11330Y22D01*
X11327Y12D01*
X11326Y2D01*
X11325Y-7D01*
Y-14D01*
X11324Y-21D01*
Y-29D01*
X11326Y-69D01*
X11331Y-105D01*
X11333Y-121D01*
X11337Y-137D01*
X11341Y-151D01*
X11345Y-163D01*
X11348Y-176D01*
X11353Y-186D01*
X11356Y-194D01*
X11358Y-203D01*
X11362Y-208D01*
X11363Y-213D01*
X11365Y-215D01*
Y-216D01*
X11383Y-244D01*
X11402Y-267D01*
X11422Y-287D01*
X11441Y-304D01*
X11458Y-316D01*
X11466Y-322D01*
X11473Y-325D01*
X11478Y-329D01*
X11482Y-331D01*
X11485Y-333D01*
X11486D01*
X11516Y-346D01*
X11547Y-356D01*
X11574Y-363D01*
X11601Y-368D01*
X11612Y-369D01*
X11623Y-370D01*
X11632Y-371D01*
X11640D01*
X11645Y-372D01*
X11655D01*
X11681Y-371D01*
X11705Y-368D01*
X11729Y-363D01*
X11751Y-358D01*
X11772Y-351D01*
X11791Y-343D01*
X11809Y-333D01*
X11826Y-324D01*
X11839Y-316D01*
X11853Y-307D01*
X11864Y-299D01*
X11873Y-292D01*
X11881Y-286D01*
X11885Y-282D01*
X11889Y-278D01*
X11890Y-277D01*
X11906Y-259D01*
X11921Y-239D01*
X11934Y-220D01*
X11944Y-199D01*
X11953Y-178D01*
X11961Y-159D01*
X11967Y-139D01*
X11973Y-121D01*
X11976Y-104D01*
X11980Y-88D01*
X11982Y-73D01*
X11983Y-60D01*
Y-50D01*
X11984Y-43D01*
Y-36D01*
X11983Y-10D01*
X11981Y16D01*
X11976Y40D01*
X11969Y62D01*
X11962Y82D01*
X11954Y102D01*
X11946Y120D01*
X11938Y136D01*
X11929Y151D01*
X11921Y164D01*
X11913Y175D01*
X11906Y184D01*
X11900Y192D01*
X11896Y197D01*
X11892Y200D01*
X11891Y202D01*
X11873Y219D01*
X11854Y233D01*
X11835Y246D01*
X11814Y257D01*
X11795Y266D01*
X11775Y274D01*
X11756Y280D01*
X11737Y285D01*
X11719Y289D01*
X11703Y292D01*
X11689Y293D01*
X11676Y296D01*
X11666D01*
X11659Y297D01*
D02*
G37*
G36*
X8389Y509D02*
X8220Y409D01*
Y282D01*
X8142D01*
Y148D01*
X8220D01*
Y-132D01*
Y-149D01*
Y-163D01*
Y-177D01*
X8221Y-189D01*
Y-200D01*
Y-209D01*
X8222Y-225D01*
X8223Y-238D01*
Y-246D01*
X8224Y-251D01*
Y-252D01*
X8228Y-267D01*
X8231Y-279D01*
X8235Y-291D01*
X8239Y-300D01*
X8243Y-308D01*
X8246Y-314D01*
X8247Y-317D01*
X8249Y-318D01*
X8255Y-327D01*
X8265Y-335D01*
X8282Y-347D01*
X8290Y-352D01*
X8297Y-355D01*
X8301Y-356D01*
X8303Y-358D01*
X8316Y-362D01*
X8331Y-366D01*
X8345Y-369D01*
X8358Y-370D01*
X8368Y-371D01*
X8376Y-372D01*
X8384D01*
X8412Y-371D01*
X8437Y-369D01*
X8460Y-364D01*
X8479Y-360D01*
X8495Y-356D01*
X8508Y-352D01*
X8513Y-351D01*
X8516Y-349D01*
X8517Y-348D01*
X8518D01*
X8503Y-216D01*
X8487Y-222D01*
X8474Y-225D01*
X8462Y-229D01*
X8453Y-230D01*
X8445Y-231D01*
X8440Y-232D01*
X8436D01*
X8424Y-231D01*
X8414Y-228D01*
X8408Y-225D01*
X8407Y-224D01*
X8406D01*
X8399Y-217D01*
X8394Y-211D01*
X8392Y-206D01*
X8391Y-204D01*
Y-200D01*
X8390Y-196D01*
Y-183D01*
Y-168D01*
X8389Y-152D01*
Y-137D01*
Y-124D01*
Y-119D01*
Y-115D01*
Y-113D01*
Y-112D01*
Y148D01*
X8505D01*
Y282D01*
X8389D01*
Y509D01*
D02*
G37*
%LPD*%
G36*
X13580Y165D02*
X13601Y159D01*
X13618Y151D01*
X13633Y143D01*
X13644Y134D01*
X13653Y126D01*
X13658Y120D01*
X13660Y119D01*
Y118D01*
X13667Y109D01*
X13674Y97D01*
X13683Y73D01*
X13690Y47D01*
X13696Y20D01*
X13698Y-3D01*
X13699Y-13D01*
Y-22D01*
X13700Y-30D01*
Y-36D01*
Y-39D01*
Y-41D01*
Y-59D01*
X13698Y-76D01*
X13697Y-91D01*
X13694Y-106D01*
X13691Y-120D01*
X13688Y-131D01*
X13683Y-143D01*
X13680Y-153D01*
X13676Y-161D01*
X13672Y-169D01*
X13668Y-175D01*
X13666Y-181D01*
X13663Y-184D01*
X13661Y-188D01*
X13659Y-189D01*
Y-190D01*
X13651Y-199D01*
X13643Y-206D01*
X13626Y-219D01*
X13610Y-227D01*
X13594Y-234D01*
X13580Y-237D01*
X13570Y-238D01*
X13565Y-239D01*
X13559D01*
X13545Y-238D01*
X13533Y-237D01*
X13521Y-234D01*
X13510Y-229D01*
X13490Y-219D01*
X13474Y-206D01*
X13462Y-194D01*
X13452Y-184D01*
X13449Y-180D01*
X13447Y-176D01*
X13444Y-175D01*
Y-174D01*
X13440Y-165D01*
X13435Y-154D01*
X13428Y-131D01*
X13424Y-106D01*
X13420Y-82D01*
X13418Y-60D01*
Y-50D01*
X13417Y-42D01*
Y-35D01*
Y-29D01*
Y-26D01*
Y-25D01*
X13419Y9D01*
X13424Y39D01*
X13429Y63D01*
X13438Y83D01*
X13444Y98D01*
X13451Y110D01*
X13456Y117D01*
X13457Y119D01*
X13473Y135D01*
X13490Y146D01*
X13506Y156D01*
X13522Y161D01*
X13536Y165D01*
X13548Y166D01*
X13552Y167D01*
X13570D01*
X13580Y165D01*
D02*
G37*
G36*
X12469Y-87D02*
Y-107D01*
X12467Y-124D01*
X12466Y-138D01*
X12465Y-150D01*
X12464Y-158D01*
X12463Y-163D01*
X12462Y-167D01*
Y-168D01*
X12457Y-180D01*
X12451Y-191D01*
X12444Y-200D01*
X12438Y-208D01*
X12432Y-214D01*
X12426Y-220D01*
X12423Y-222D01*
X12422Y-223D01*
X12405Y-234D01*
X12389Y-240D01*
X12374Y-246D01*
X12362Y-250D01*
X12350Y-252D01*
X12341Y-253D01*
X12333D01*
X12318Y-252D01*
X12306Y-250D01*
X12294Y-245D01*
X12285Y-240D01*
X12277Y-236D01*
X12271Y-231D01*
X12268Y-229D01*
X12267Y-228D01*
X12257Y-217D01*
X12252Y-207D01*
X12247Y-198D01*
X12244Y-188D01*
X12241Y-180D01*
X12240Y-173D01*
Y-168D01*
Y-167D01*
X12241Y-154D01*
X12245Y-143D01*
X12250Y-132D01*
X12256Y-123D01*
X12262Y-116D01*
X12268Y-112D01*
X12271Y-108D01*
X12272Y-107D01*
X12283Y-102D01*
X12296Y-97D01*
X12311Y-92D01*
X12326Y-88D01*
X12341Y-84D01*
X12353Y-81D01*
X12357Y-80D01*
X12361D01*
X12363Y-79D01*
X12364D01*
X12389Y-73D01*
X12410Y-68D01*
X12428Y-64D01*
X12443Y-60D01*
X12455Y-57D01*
X12463Y-54D01*
X12467Y-52D01*
X12469D01*
Y-87D01*
D02*
G37*
G36*
X10845Y377D02*
X10877D01*
X10886Y376D01*
X10900D01*
X10905Y375D01*
X10906D01*
X10922Y371D01*
X10936Y368D01*
X10948Y362D01*
X10957Y358D01*
X10965Y352D01*
X10969Y349D01*
X10973Y345D01*
X10974Y344D01*
X10982Y334D01*
X10988Y323D01*
X10991Y312D01*
X10995Y301D01*
X10996Y292D01*
X10997Y284D01*
Y280D01*
Y277D01*
X10996Y262D01*
X10992Y249D01*
X10989Y237D01*
X10984Y227D01*
X10978Y219D01*
X10975Y213D01*
X10972Y210D01*
X10970Y208D01*
X10960Y199D01*
X10948Y192D01*
X10936Y187D01*
X10925Y182D01*
X10914Y180D01*
X10906Y177D01*
X10900Y176D01*
X10892D01*
X10886Y175D01*
X10846D01*
X10824Y174D01*
X10652D01*
Y378D01*
X10832D01*
X10845Y377D01*
D02*
G37*
G36*
X10856Y26D02*
X10872Y25D01*
X10887Y24D01*
X10899D01*
X10911Y22D01*
X10921Y21D01*
X10929Y20D01*
X10936Y19D01*
X10942Y18D01*
X10946Y17D01*
X10952Y16D01*
X10954Y14D01*
X10967Y9D01*
X10978Y3D01*
X10989Y-4D01*
X10997Y-11D01*
X11003Y-17D01*
X11007Y-22D01*
X11009Y-26D01*
X11011Y-27D01*
X11018Y-37D01*
X11022Y-49D01*
X11026Y-60D01*
X11028Y-71D01*
X11029Y-80D01*
X11030Y-87D01*
Y-91D01*
Y-93D01*
X11029Y-111D01*
X11027Y-126D01*
X11022Y-138D01*
X11018Y-149D01*
X11013Y-158D01*
X11008Y-163D01*
X11006Y-168D01*
X11005Y-169D01*
X10995Y-178D01*
X10984Y-186D01*
X10973Y-192D01*
X10962Y-197D01*
X10953Y-200D01*
X10946Y-203D01*
X10942Y-204D01*
X10939D01*
X10934Y-205D01*
X10927D01*
X10919Y-206D01*
X10910D01*
X10890Y-207D01*
X10869D01*
X10850Y-208D01*
X10652D01*
Y27D01*
X10837D01*
X10856Y26D01*
D02*
G37*
G36*
X7879Y-87D02*
Y-107D01*
X7878Y-124D01*
X7877Y-138D01*
X7875Y-150D01*
X7874Y-158D01*
X7873Y-163D01*
X7872Y-167D01*
Y-168D01*
X7867Y-180D01*
X7862Y-191D01*
X7855Y-200D01*
X7848Y-208D01*
X7842Y-214D01*
X7836Y-220D01*
X7833Y-222D01*
X7832Y-223D01*
X7816Y-234D01*
X7800Y-240D01*
X7785Y-246D01*
X7772Y-250D01*
X7761Y-252D01*
X7751Y-253D01*
X7743D01*
X7729Y-252D01*
X7716Y-250D01*
X7704Y-245D01*
X7695Y-240D01*
X7687Y-236D01*
X7681Y-231D01*
X7678Y-229D01*
X7677Y-228D01*
X7668Y-217D01*
X7662Y-207D01*
X7657Y-198D01*
X7654Y-188D01*
X7652Y-180D01*
X7650Y-173D01*
Y-168D01*
Y-167D01*
X7652Y-154D01*
X7655Y-143D01*
X7661Y-132D01*
X7667Y-123D01*
X7672Y-116D01*
X7678Y-112D01*
X7681Y-108D01*
X7683Y-107D01*
X7693Y-102D01*
X7707Y-97D01*
X7722Y-92D01*
X7737Y-88D01*
X7751Y-84D01*
X7763Y-81D01*
X7768Y-80D01*
X7771D01*
X7773Y-79D01*
X7774D01*
X7800Y-73D01*
X7820Y-68D01*
X7839Y-64D01*
X7854Y-60D01*
X7865Y-57D01*
X7873Y-54D01*
X7878Y-52D01*
X7879D01*
Y-87D01*
D02*
G37*
G36*
X5579Y375D02*
X5594D01*
X5608Y374D01*
X5620D01*
X5630Y373D01*
X5639Y371D01*
X5647Y370D01*
X5654D01*
X5660Y369D01*
X5664Y368D01*
X5669Y367D01*
X5671D01*
X5690Y362D01*
X5706Y357D01*
X5720Y350D01*
X5732Y343D01*
X5741Y336D01*
X5748Y330D01*
X5753Y327D01*
X5754Y326D01*
X5765Y313D01*
X5776Y299D01*
X5785Y284D01*
X5792Y270D01*
X5798Y259D01*
X5802Y249D01*
X5804Y242D01*
X5806Y241D01*
Y239D01*
X5811Y218D01*
X5816Y192D01*
X5819Y166D01*
X5822Y141D01*
X5823Y119D01*
X5824Y109D01*
Y101D01*
Y94D01*
Y88D01*
Y84D01*
Y83D01*
X5823Y47D01*
X5822Y14D01*
X5818Y-13D01*
X5817Y-25D01*
X5815Y-36D01*
X5814Y-45D01*
X5811Y-54D01*
X5810Y-61D01*
X5809Y-67D01*
X5808Y-73D01*
X5807Y-76D01*
X5806Y-77D01*
Y-79D01*
X5799Y-99D01*
X5791Y-118D01*
X5783Y-132D01*
X5776Y-144D01*
X5769Y-153D01*
X5763Y-160D01*
X5760Y-163D01*
X5759Y-165D01*
X5747Y-174D01*
X5736Y-181D01*
X5723Y-186D01*
X5711Y-192D01*
X5701Y-196D01*
X5693Y-198D01*
X5689Y-200D01*
X5686D01*
X5672Y-203D01*
X5655Y-205D01*
X5638Y-206D01*
X5620Y-207D01*
X5604Y-208D01*
X5445D01*
Y376D01*
X5563D01*
X5579Y375D01*
D02*
G37*
G36*
X11678Y157D02*
X11698Y151D01*
X11717Y143D01*
X11733Y134D01*
X11747Y124D01*
X11756Y115D01*
X11761Y110D01*
X11764Y109D01*
Y107D01*
X11779Y87D01*
X11790Y64D01*
X11798Y40D01*
X11804Y17D01*
X11807Y-5D01*
X11809Y-14D01*
Y-21D01*
X11810Y-28D01*
Y-33D01*
Y-36D01*
Y-37D01*
X11807Y-72D01*
X11803Y-100D01*
X11795Y-126D01*
X11787Y-146D01*
X11779Y-163D01*
X11774Y-169D01*
X11771Y-175D01*
X11768Y-178D01*
X11766Y-182D01*
X11764Y-183D01*
Y-184D01*
X11756Y-193D01*
X11747Y-200D01*
X11728Y-213D01*
X11710Y-222D01*
X11691Y-228D01*
X11676Y-232D01*
X11665Y-234D01*
X11660Y-235D01*
X11654D01*
X11641Y-234D01*
X11629Y-232D01*
X11608Y-227D01*
X11589Y-219D01*
X11573Y-209D01*
X11559Y-200D01*
X11550Y-192D01*
X11544Y-186D01*
X11542Y-184D01*
X11527Y-163D01*
X11516Y-141D01*
X11509Y-115D01*
X11503Y-92D01*
X11500Y-72D01*
X11499Y-62D01*
Y-54D01*
X11497Y-48D01*
Y-43D01*
Y-39D01*
Y-38D01*
X11500Y-5D01*
X11504Y25D01*
X11511Y50D01*
X11520Y71D01*
X11528Y87D01*
X11532Y93D01*
X11535Y98D01*
X11538Y102D01*
X11540Y105D01*
X11542Y107D01*
X11551Y117D01*
X11559Y125D01*
X11579Y137D01*
X11597Y146D01*
X11614Y152D01*
X11631Y157D01*
X11642Y158D01*
X11647Y159D01*
X11666D01*
X11678Y157D01*
D02*
G37*
D10*
X24290Y5157D02*
G03*
X24290Y5157I-98J0D01*
G01*
Y1024D02*
G03*
X24290Y1024I-98J0D01*
G01*
D11*
X25730Y4990D02*
G03*
X25730Y4990I-49J0D01*
G01*
X31073Y1161D02*
G03*
X31073Y1161I-49J0D01*
G01*
X25730Y856D02*
G03*
X25730Y856I-49J0D01*
G01*
X15758Y25197D02*
G03*
X15758Y25197I-49J0D01*
G01*
D12*
X23387Y4862D02*
X24487D01*
X23387D02*
Y7421D01*
X24487D01*
Y4862D02*
Y7421D01*
X27157Y-827D02*
Y10205D01*
X30819D01*
Y-827D02*
Y10205D01*
X27157Y-827D02*
X30819D01*
X23387Y728D02*
X24487D01*
X23387D02*
Y3287D01*
X24487D01*
Y728D02*
Y3287D01*
X5541Y5368D02*
X5797D01*
X15876Y26100D02*
Y26752D01*
X14833D02*
X15876D01*
X14833Y26100D02*
Y26752D01*
D13*
X30709Y23317D02*
X30906D01*
X30709Y21102D02*
X30906D01*
X30709Y18898D02*
X30906D01*
X27756D02*
Y23317D01*
X30709Y18898D02*
Y23307D01*
X27756Y18898D02*
X30709D01*
X30906D02*
Y23307D01*
X27756Y21102D02*
X30709D01*
X27756Y23317D02*
X30709D01*
X27756Y18671D02*
X30709D01*
X27756Y16457D02*
X30709D01*
X30906Y14252D02*
Y18661D01*
X27756Y14252D02*
X30709D01*
Y18661D01*
X27756Y14252D02*
Y18671D01*
X30709Y14252D02*
X30906D01*
X30709Y16457D02*
X30906D01*
X30709Y18671D02*
X30906D01*
X-1260Y3740D02*
Y7283D01*
Y3740D02*
X1850D01*
X-1260Y7283D02*
X4291D01*
Y3740D02*
Y4685D01*
X4094Y3740D02*
X4291D01*
Y6575D02*
Y7283D01*
X30787Y-1571D02*
G03*
X31359Y-999I0J572D01*
G01*
X31359Y26866D02*
G03*
X30975Y27250I-384J0D01*
G01*
X-1112Y27254D02*
G03*
X-1575Y26791I0J-463D01*
G01*
X-1575Y-1112D02*
G03*
X-1112Y-1575I463J0D01*
G01*
X31359Y-999D02*
X31359Y26866D01*
X30906Y27254D02*
X30975Y27250D01*
X-1112Y27254D02*
X30906Y27254D01*
X-1113Y-1575D02*
X30787Y-1575D01*
X-1575Y26791D02*
X-1575Y-1112D01*
D14*
X2919Y20207D02*
X3038D01*
X2919Y19951D02*
X3038D01*
X2800Y21795D02*
Y21913D01*
X2545Y21795D02*
Y21913D01*
X15728Y24813D02*
X15846D01*
X15728Y24557D02*
X15846D01*
D15*
X-39Y4961D02*
X-354D01*
Y5118D01*
X-302Y5171D01*
X-197D01*
X-144Y5118D01*
Y4961D01*
X-354Y5433D02*
Y5328D01*
X-302Y5275D01*
X-92D01*
X-39Y5328D01*
Y5433D01*
X-92Y5485D01*
X-302D01*
X-354Y5433D01*
Y5590D02*
X-39D01*
X-144Y5695D01*
X-39Y5800D01*
X-354D01*
Y6115D02*
Y5905D01*
X-39D01*
Y6115D01*
X-197Y5905D02*
Y6010D01*
X-39Y6220D02*
X-354D01*
Y6378D01*
X-302Y6430D01*
X-197D01*
X-144Y6378D01*
Y6220D01*
Y6325D02*
X-39Y6430D01*
D16*
X-832Y8076D02*
D03*
D17*
X20669Y8858D02*
X26083D01*
X20669D02*
Y17717D01*
X26083Y8858D02*
Y17717D01*
X20669D02*
X26083D01*
M02*
