G04*
G04 #@! TF.GenerationSoftware,Altium Limited,Altium Designer,25.8.1 (18)*
G04*
G04 Layer_Color=15441517*
%FSLAX24Y24*%
%MOIN*%
G70*
G04*
G04 #@! TF.SameCoordinates,0BF7B96A-1ACD-469D-A283-C4C924D5F6B6*
G04*
G04*
G04 #@! TF.FilePolarity,Positive*
G04*
G01*
G75*
%ADD10C,0.0079*%
%ADD13C,0.0039*%
%ADD14C,0.0100*%
G36*
X7893Y-21407D02*
Y-21407D01*
Y-21408D01*
Y-21408D01*
Y-21409D01*
Y-21410D01*
Y-21411D01*
X7893Y-21413D01*
Y-21417D01*
X7893Y-21420D01*
X7893Y-21424D01*
X7892Y-21429D01*
X7892Y-21434D01*
X7891Y-21438D01*
X7890Y-21448D01*
X7889Y-21454D01*
X7887Y-21458D01*
X7886Y-21463D01*
X7885Y-21467D01*
X7884Y-21468D01*
X7884Y-21468D01*
X7884Y-21470D01*
X7883Y-21471D01*
X7882Y-21473D01*
X7881Y-21475D01*
X7879Y-21478D01*
X7877Y-21480D01*
X7875Y-21483D01*
X7873Y-21486D01*
X7871Y-21489D01*
X7868Y-21492D01*
X7865Y-21495D01*
X7861Y-21498D01*
X7858Y-21501D01*
X7854Y-21504D01*
X7853Y-21504D01*
X7853Y-21504D01*
X7851Y-21505D01*
X7850Y-21506D01*
X7847Y-21507D01*
X7845Y-21508D01*
X7841Y-21509D01*
X7838Y-21511D01*
X7834Y-21512D01*
X7829Y-21513D01*
X7825Y-21514D01*
X7819Y-21515D01*
X7814Y-21516D01*
X7808Y-21517D01*
X7802Y-21517D01*
X7795Y-21518D01*
X7791D01*
X7789Y-21517D01*
X7786Y-21517D01*
X7782Y-21517D01*
X7778Y-21517D01*
X7774Y-21516D01*
X7770Y-21515D01*
X7765Y-21515D01*
X7760Y-21514D01*
X7755Y-21513D01*
X7751Y-21511D01*
X7746Y-21509D01*
X7741Y-21508D01*
X7737Y-21505D01*
X7737Y-21505D01*
X7736Y-21505D01*
X7735Y-21504D01*
X7733Y-21503D01*
X7731Y-21502D01*
X7729Y-21500D01*
X7727Y-21499D01*
X7724Y-21497D01*
X7722Y-21494D01*
X7719Y-21491D01*
X7716Y-21489D01*
X7714Y-21485D01*
X7711Y-21482D01*
X7709Y-21478D01*
X7707Y-21474D01*
X7705Y-21470D01*
X7705Y-21470D01*
X7704Y-21469D01*
X7704Y-21468D01*
X7703Y-21466D01*
X7703Y-21464D01*
X7702Y-21461D01*
X7701Y-21458D01*
X7700Y-21454D01*
X7699Y-21449D01*
X7698Y-21445D01*
X7697Y-21440D01*
X7697Y-21434D01*
X7696Y-21428D01*
X7696Y-21421D01*
X7695Y-21414D01*
X7695Y-21407D01*
Y-21262D01*
X7729D01*
Y-21407D01*
Y-21407D01*
Y-21408D01*
Y-21410D01*
X7729Y-21412D01*
Y-21415D01*
X7729Y-21418D01*
X7729Y-21422D01*
X7729Y-21425D01*
X7730Y-21429D01*
X7730Y-21433D01*
X7731Y-21441D01*
X7732Y-21445D01*
X7733Y-21449D01*
X7734Y-21452D01*
X7735Y-21455D01*
Y-21456D01*
X7735Y-21456D01*
X7735Y-21457D01*
X7736Y-21458D01*
X7736Y-21459D01*
X7737Y-21461D01*
X7740Y-21464D01*
X7742Y-21468D01*
X7744Y-21470D01*
X7746Y-21472D01*
X7748Y-21474D01*
X7750Y-21476D01*
X7753Y-21478D01*
X7756Y-21479D01*
X7756D01*
X7756Y-21480D01*
X7757Y-21480D01*
X7758Y-21480D01*
X7760Y-21481D01*
X7761Y-21482D01*
X7763Y-21483D01*
X7766Y-21483D01*
X7768Y-21484D01*
X7771Y-21485D01*
X7774Y-21486D01*
X7777Y-21486D01*
X7781Y-21487D01*
X7784Y-21487D01*
X7788Y-21487D01*
X7792Y-21488D01*
X7794D01*
X7795Y-21487D01*
X7798D01*
X7801Y-21487D01*
X7804Y-21487D01*
X7808Y-21486D01*
X7812Y-21486D01*
X7817Y-21485D01*
X7821Y-21484D01*
X7825Y-21482D01*
X7830Y-21481D01*
X7834Y-21479D01*
X7838Y-21476D01*
X7841Y-21474D01*
X7844Y-21471D01*
X7845Y-21471D01*
X7845Y-21470D01*
X7846Y-21469D01*
X7847Y-21468D01*
X7848Y-21466D01*
X7849Y-21463D01*
X7851Y-21460D01*
X7852Y-21457D01*
X7854Y-21453D01*
X7855Y-21448D01*
X7856Y-21443D01*
X7858Y-21437D01*
X7859Y-21430D01*
X7859Y-21423D01*
X7860Y-21416D01*
X7860Y-21407D01*
Y-21262D01*
X7893D01*
Y-21407D01*
D02*
G37*
G36*
X8053Y-21513D02*
X8022D01*
Y-21317D01*
X8022Y-21317D01*
X8021Y-21317D01*
X8021Y-21318D01*
X8020Y-21318D01*
X8019Y-21319D01*
X8017Y-21321D01*
X8016Y-21322D01*
X8014Y-21323D01*
X8012Y-21325D01*
X8010Y-21327D01*
X8007Y-21328D01*
X8005Y-21330D01*
X8002Y-21332D01*
X7999Y-21334D01*
X7992Y-21338D01*
X7992Y-21338D01*
X7992Y-21339D01*
X7990Y-21339D01*
X7989Y-21340D01*
X7988Y-21341D01*
X7986Y-21342D01*
X7984Y-21343D01*
X7982Y-21344D01*
X7976Y-21347D01*
X7971Y-21349D01*
X7965Y-21352D01*
X7960Y-21354D01*
Y-21324D01*
X7960Y-21324D01*
X7961Y-21323D01*
X7962Y-21323D01*
X7964Y-21322D01*
X7966Y-21321D01*
X7969Y-21319D01*
X7972Y-21318D01*
X7975Y-21316D01*
X7979Y-21314D01*
X7982Y-21311D01*
X7990Y-21306D01*
X7998Y-21301D01*
X8005Y-21294D01*
X8005Y-21294D01*
X8006Y-21294D01*
X8007Y-21293D01*
X8008Y-21292D01*
X8010Y-21290D01*
X8012Y-21288D01*
X8014Y-21286D01*
X8016Y-21284D01*
X8018Y-21281D01*
X8021Y-21278D01*
X8025Y-21273D01*
X8029Y-21267D01*
X8031Y-21264D01*
X8033Y-21261D01*
X8053D01*
Y-21513D01*
D02*
G37*
G36*
X16250Y-20747D02*
X16254Y-20747D01*
X16259Y-20748D01*
X16264Y-20748D01*
X16271Y-20749D01*
X16278Y-20750D01*
X16285Y-20752D01*
X16293Y-20754D01*
X16301Y-20756D01*
X16309Y-20759D01*
X16317Y-20762D01*
X16325Y-20766D01*
X16333Y-20771D01*
X16341Y-20776D01*
X16341Y-20776D01*
X16342Y-20777D01*
X16345Y-20779D01*
X16347Y-20782D01*
X16350Y-20784D01*
X16354Y-20788D01*
X16358Y-20792D01*
X16362Y-20797D01*
X16367Y-20803D01*
X16371Y-20809D01*
X16376Y-20816D01*
X16380Y-20823D01*
X16385Y-20831D01*
X16389Y-20840D01*
X16393Y-20849D01*
X16396Y-20859D01*
X16346Y-20870D01*
X16345Y-20870D01*
X16345Y-20868D01*
X16344Y-20866D01*
X16343Y-20863D01*
X16342Y-20860D01*
X16340Y-20856D01*
X16338Y-20852D01*
X16336Y-20847D01*
X16333Y-20842D01*
X16330Y-20837D01*
X16327Y-20832D01*
X16324Y-20827D01*
X16320Y-20822D01*
X16316Y-20817D01*
X16311Y-20813D01*
X16307Y-20809D01*
X16306Y-20809D01*
X16306Y-20808D01*
X16304Y-20808D01*
X16302Y-20806D01*
X16300Y-20805D01*
X16297Y-20803D01*
X16293Y-20802D01*
X16289Y-20800D01*
X16285Y-20798D01*
X16280Y-20796D01*
X16275Y-20795D01*
X16269Y-20793D01*
X16263Y-20792D01*
X16257Y-20791D01*
X16250Y-20790D01*
X16243Y-20790D01*
X16239D01*
X16236Y-20790D01*
X16232Y-20791D01*
X16227Y-20791D01*
X16222Y-20792D01*
X16217Y-20793D01*
X16211Y-20794D01*
X16206Y-20795D01*
X16199Y-20797D01*
X16193Y-20799D01*
X16187Y-20802D01*
X16181Y-20805D01*
X16175Y-20808D01*
X16169Y-20812D01*
X16169Y-20812D01*
X16168Y-20812D01*
X16166Y-20814D01*
X16164Y-20815D01*
X16162Y-20818D01*
X16159Y-20820D01*
X16156Y-20823D01*
X16153Y-20826D01*
X16149Y-20830D01*
X16146Y-20835D01*
X16142Y-20839D01*
X16139Y-20844D01*
X16136Y-20850D01*
X16133Y-20856D01*
X16130Y-20862D01*
X16127Y-20868D01*
Y-20869D01*
X16127Y-20870D01*
X16126Y-20872D01*
X16125Y-20874D01*
X16125Y-20878D01*
X16124Y-20882D01*
X16123Y-20886D01*
X16122Y-20891D01*
X16120Y-20896D01*
X16119Y-20902D01*
X16118Y-20908D01*
X16117Y-20915D01*
X16116Y-20928D01*
X16116Y-20935D01*
X16115Y-20942D01*
Y-20943D01*
Y-20944D01*
Y-20947D01*
X16116Y-20950D01*
X16116Y-20954D01*
X16116Y-20959D01*
X16117Y-20965D01*
X16117Y-20971D01*
X16118Y-20977D01*
X16119Y-20984D01*
X16122Y-20998D01*
X16123Y-21006D01*
X16125Y-21013D01*
X16127Y-21020D01*
X16130Y-21027D01*
X16130Y-21028D01*
X16130Y-21029D01*
X16131Y-21031D01*
X16132Y-21033D01*
X16134Y-21036D01*
X16136Y-21040D01*
X16138Y-21044D01*
X16140Y-21048D01*
X16143Y-21052D01*
X16147Y-21056D01*
X16150Y-21061D01*
X16154Y-21066D01*
X16159Y-21070D01*
X16163Y-21074D01*
X16168Y-21078D01*
X16174Y-21082D01*
X16174Y-21082D01*
X16175Y-21082D01*
X16177Y-21083D01*
X16179Y-21084D01*
X16182Y-21086D01*
X16185Y-21087D01*
X16189Y-21089D01*
X16193Y-21090D01*
X16198Y-21092D01*
X16203Y-21094D01*
X16209Y-21095D01*
X16214Y-21097D01*
X16220Y-21098D01*
X16226Y-21099D01*
X16233Y-21099D01*
X16239Y-21100D01*
X16241D01*
X16243Y-21099D01*
X16246D01*
X16250Y-21099D01*
X16254Y-21098D01*
X16259Y-21098D01*
X16264Y-21097D01*
X16270Y-21095D01*
X16275Y-21093D01*
X16281Y-21092D01*
X16288Y-21089D01*
X16294Y-21087D01*
X16300Y-21083D01*
X16306Y-21079D01*
X16311Y-21075D01*
X16312Y-21075D01*
X16313Y-21074D01*
X16314Y-21073D01*
X16316Y-21070D01*
X16319Y-21068D01*
X16321Y-21065D01*
X16324Y-21061D01*
X16327Y-21057D01*
X16331Y-21052D01*
X16334Y-21047D01*
X16338Y-21041D01*
X16341Y-21034D01*
X16344Y-21027D01*
X16347Y-21019D01*
X16349Y-21011D01*
X16351Y-21002D01*
X16402Y-21015D01*
Y-21015D01*
X16402Y-21016D01*
X16402Y-21017D01*
X16401Y-21018D01*
X16401Y-21019D01*
X16401Y-21021D01*
X16399Y-21025D01*
X16397Y-21031D01*
X16395Y-21036D01*
X16392Y-21043D01*
X16389Y-21050D01*
X16385Y-21058D01*
X16381Y-21066D01*
X16376Y-21074D01*
X16371Y-21082D01*
X16365Y-21089D01*
X16359Y-21097D01*
X16352Y-21104D01*
X16345Y-21110D01*
X16344Y-21111D01*
X16343Y-21112D01*
X16340Y-21113D01*
X16337Y-21115D01*
X16333Y-21118D01*
X16328Y-21121D01*
X16323Y-21124D01*
X16316Y-21127D01*
X16309Y-21130D01*
X16302Y-21133D01*
X16293Y-21136D01*
X16284Y-21138D01*
X16275Y-21140D01*
X16265Y-21142D01*
X16254Y-21143D01*
X16243Y-21143D01*
X16239D01*
X16237Y-21143D01*
X16233D01*
X16228Y-21142D01*
X16222Y-21142D01*
X16215Y-21141D01*
X16207Y-21140D01*
X16199Y-21139D01*
X16191Y-21137D01*
X16183Y-21135D01*
X16174Y-21133D01*
X16166Y-21130D01*
X16158Y-21126D01*
X16150Y-21122D01*
X16142Y-21118D01*
X16142Y-21118D01*
X16141Y-21117D01*
X16139Y-21115D01*
X16136Y-21113D01*
X16133Y-21111D01*
X16129Y-21107D01*
X16125Y-21104D01*
X16120Y-21099D01*
X16116Y-21094D01*
X16111Y-21089D01*
X16106Y-21083D01*
X16101Y-21077D01*
X16096Y-21069D01*
X16092Y-21062D01*
X16087Y-21054D01*
X16083Y-21045D01*
Y-21045D01*
X16083Y-21044D01*
X16083Y-21043D01*
X16081Y-21040D01*
X16080Y-21037D01*
X16079Y-21032D01*
X16077Y-21027D01*
X16075Y-21021D01*
X16073Y-21014D01*
X16071Y-21007D01*
X16070Y-20999D01*
X16068Y-20990D01*
X16066Y-20981D01*
X16065Y-20972D01*
X16064Y-20962D01*
X16063Y-20952D01*
X16063Y-20942D01*
Y-20942D01*
Y-20941D01*
Y-20941D01*
Y-20939D01*
Y-20938D01*
X16063Y-20936D01*
Y-20932D01*
X16064Y-20927D01*
X16064Y-20921D01*
X16065Y-20914D01*
X16066Y-20907D01*
X16067Y-20899D01*
X16069Y-20890D01*
X16071Y-20882D01*
X16073Y-20873D01*
X16075Y-20864D01*
X16078Y-20855D01*
X16082Y-20846D01*
X16086Y-20838D01*
X16086Y-20837D01*
X16087Y-20836D01*
X16088Y-20834D01*
X16090Y-20830D01*
X16093Y-20827D01*
X16095Y-20823D01*
X16099Y-20818D01*
X16103Y-20813D01*
X16107Y-20807D01*
X16112Y-20802D01*
X16117Y-20796D01*
X16123Y-20790D01*
X16129Y-20785D01*
X16136Y-20780D01*
X16143Y-20775D01*
X16151Y-20770D01*
X16152Y-20770D01*
X16153Y-20769D01*
X16155Y-20768D01*
X16158Y-20766D01*
X16162Y-20764D01*
X16167Y-20762D01*
X16173Y-20761D01*
X16178Y-20758D01*
X16185Y-20756D01*
X16192Y-20754D01*
X16200Y-20752D01*
X16208Y-20750D01*
X16217Y-20749D01*
X16225Y-20748D01*
X16235Y-20747D01*
X16244Y-20747D01*
X16248D01*
X16250Y-20747D01*
D02*
G37*
G36*
X16578Y-20752D02*
X16582Y-20753D01*
X16586Y-20753D01*
X16592Y-20754D01*
X16598Y-20754D01*
X16604Y-20756D01*
X16611Y-20757D01*
X16618Y-20759D01*
X16625Y-20762D01*
X16633Y-20765D01*
X16640Y-20769D01*
X16647Y-20772D01*
X16653Y-20777D01*
X16660Y-20783D01*
X16660Y-20783D01*
X16661Y-20784D01*
X16663Y-20786D01*
X16665Y-20788D01*
X16667Y-20791D01*
X16670Y-20795D01*
X16673Y-20799D01*
X16676Y-20803D01*
X16679Y-20809D01*
X16682Y-20815D01*
X16685Y-20821D01*
X16687Y-20828D01*
X16689Y-20835D01*
X16691Y-20842D01*
X16692Y-20850D01*
X16692Y-20859D01*
Y-20859D01*
Y-20860D01*
Y-20861D01*
Y-20862D01*
X16692Y-20865D01*
X16692Y-20867D01*
X16691Y-20870D01*
X16691Y-20873D01*
X16690Y-20880D01*
X16688Y-20887D01*
X16686Y-20895D01*
X16683Y-20904D01*
Y-20904D01*
X16682Y-20905D01*
X16682Y-20906D01*
X16681Y-20908D01*
X16680Y-20910D01*
X16679Y-20912D01*
X16677Y-20915D01*
X16675Y-20918D01*
X16673Y-20921D01*
X16671Y-20925D01*
X16666Y-20933D01*
X16663Y-20937D01*
X16659Y-20941D01*
X16655Y-20946D01*
X16651Y-20951D01*
X16651Y-20951D01*
X16650Y-20952D01*
X16649Y-20953D01*
X16647Y-20955D01*
X16645Y-20957D01*
X16642Y-20961D01*
X16638Y-20964D01*
X16634Y-20968D01*
X16630Y-20973D01*
X16624Y-20978D01*
X16618Y-20983D01*
X16612Y-20989D01*
X16604Y-20996D01*
X16597Y-21003D01*
X16588Y-21010D01*
X16579Y-21018D01*
X16578Y-21018D01*
X16577Y-21020D01*
X16575Y-21021D01*
X16572Y-21024D01*
X16569Y-21026D01*
X16565Y-21030D01*
X16561Y-21033D01*
X16556Y-21037D01*
X16547Y-21045D01*
X16543Y-21049D01*
X16538Y-21053D01*
X16534Y-21057D01*
X16530Y-21061D01*
X16527Y-21064D01*
X16525Y-21066D01*
X16524Y-21067D01*
X16523Y-21069D01*
X16520Y-21071D01*
X16518Y-21074D01*
X16515Y-21078D01*
X16511Y-21082D01*
X16508Y-21087D01*
X16505Y-21092D01*
X16693D01*
Y-21137D01*
X16440D01*
Y-21136D01*
Y-21136D01*
Y-21135D01*
Y-21134D01*
Y-21132D01*
X16440Y-21131D01*
X16440Y-21126D01*
X16441Y-21121D01*
X16442Y-21116D01*
X16443Y-21110D01*
X16445Y-21104D01*
Y-21104D01*
X16445Y-21103D01*
X16446Y-21102D01*
X16447Y-21100D01*
X16448Y-21097D01*
X16449Y-21095D01*
X16451Y-21092D01*
X16452Y-21088D01*
X16454Y-21084D01*
X16457Y-21080D01*
X16462Y-21072D01*
X16468Y-21063D01*
X16476Y-21053D01*
X16476Y-21053D01*
X16477Y-21052D01*
X16478Y-21051D01*
X16480Y-21049D01*
X16482Y-21046D01*
X16485Y-21044D01*
X16488Y-21040D01*
X16492Y-21037D01*
X16496Y-21033D01*
X16500Y-21028D01*
X16505Y-21023D01*
X16511Y-21018D01*
X16517Y-21013D01*
X16523Y-21007D01*
X16530Y-21002D01*
X16537Y-20995D01*
X16538Y-20995D01*
X16538Y-20995D01*
X16539Y-20994D01*
X16540Y-20993D01*
X16542Y-20992D01*
X16543Y-20990D01*
X16547Y-20987D01*
X16553Y-20983D01*
X16558Y-20977D01*
X16565Y-20972D01*
X16571Y-20966D01*
X16578Y-20959D01*
X16585Y-20953D01*
X16592Y-20946D01*
X16599Y-20939D01*
X16606Y-20933D01*
X16612Y-20926D01*
X16617Y-20920D01*
X16622Y-20914D01*
X16622Y-20914D01*
X16622Y-20913D01*
X16624Y-20911D01*
X16625Y-20909D01*
X16627Y-20906D01*
X16629Y-20903D01*
X16631Y-20900D01*
X16633Y-20896D01*
X16635Y-20892D01*
X16637Y-20887D01*
X16640Y-20877D01*
X16642Y-20872D01*
X16643Y-20867D01*
X16643Y-20862D01*
X16644Y-20857D01*
Y-20857D01*
Y-20856D01*
Y-20855D01*
X16643Y-20853D01*
X16643Y-20850D01*
X16643Y-20848D01*
X16642Y-20844D01*
X16641Y-20841D01*
X16640Y-20838D01*
X16639Y-20834D01*
X16637Y-20830D01*
X16635Y-20826D01*
X16633Y-20822D01*
X16630Y-20818D01*
X16627Y-20814D01*
X16624Y-20810D01*
X16623Y-20810D01*
X16623Y-20810D01*
X16622Y-20809D01*
X16620Y-20807D01*
X16618Y-20806D01*
X16615Y-20804D01*
X16613Y-20802D01*
X16610Y-20801D01*
X16606Y-20799D01*
X16602Y-20797D01*
X16598Y-20795D01*
X16593Y-20794D01*
X16588Y-20793D01*
X16583Y-20792D01*
X16578Y-20791D01*
X16572Y-20791D01*
X16568D01*
X16566Y-20791D01*
X16563Y-20792D01*
X16560Y-20792D01*
X16556Y-20793D01*
X16552Y-20793D01*
X16548Y-20795D01*
X16543Y-20796D01*
X16539Y-20798D01*
X16534Y-20800D01*
X16530Y-20802D01*
X16525Y-20805D01*
X16521Y-20808D01*
X16517Y-20812D01*
X16517Y-20812D01*
X16516Y-20812D01*
X16515Y-20814D01*
X16514Y-20815D01*
X16512Y-20817D01*
X16511Y-20820D01*
X16509Y-20823D01*
X16507Y-20826D01*
X16505Y-20830D01*
X16503Y-20834D01*
X16502Y-20839D01*
X16500Y-20844D01*
X16499Y-20849D01*
X16498Y-20855D01*
X16497Y-20861D01*
X16497Y-20868D01*
X16448Y-20863D01*
Y-20862D01*
Y-20862D01*
X16449Y-20861D01*
Y-20860D01*
X16449Y-20857D01*
X16450Y-20854D01*
X16451Y-20849D01*
X16452Y-20844D01*
X16453Y-20838D01*
X16455Y-20832D01*
X16457Y-20826D01*
X16460Y-20819D01*
X16463Y-20812D01*
X16466Y-20805D01*
X16470Y-20798D01*
X16475Y-20792D01*
X16480Y-20786D01*
X16486Y-20780D01*
X16486Y-20780D01*
X16487Y-20779D01*
X16489Y-20778D01*
X16491Y-20776D01*
X16495Y-20774D01*
X16499Y-20771D01*
X16503Y-20769D01*
X16509Y-20766D01*
X16515Y-20764D01*
X16521Y-20761D01*
X16528Y-20759D01*
X16536Y-20756D01*
X16544Y-20754D01*
X16553Y-20753D01*
X16563Y-20752D01*
X16573Y-20752D01*
X16575D01*
X16578Y-20752D01*
D02*
G37*
G36*
X9221Y-22905D02*
X9224Y-22905D01*
X9227Y-22906D01*
X9230Y-22906D01*
X9234Y-22907D01*
X9238Y-22908D01*
X9243Y-22909D01*
X9247Y-22910D01*
X9252Y-22912D01*
X9257Y-22914D01*
X9262Y-22916D01*
X9266Y-22919D01*
X9271Y-22922D01*
X9275Y-22925D01*
X9275Y-22925D01*
X9276Y-22926D01*
X9277Y-22927D01*
X9278Y-22929D01*
X9280Y-22931D01*
X9282Y-22933D01*
X9284Y-22936D01*
X9286Y-22939D01*
X9287Y-22942D01*
X9289Y-22946D01*
X9291Y-22950D01*
X9293Y-22955D01*
X9294Y-22960D01*
X9295Y-22964D01*
X9296Y-22970D01*
X9296Y-22975D01*
Y-22975D01*
Y-22976D01*
Y-22977D01*
Y-22978D01*
X9296Y-22979D01*
X9296Y-22981D01*
X9296Y-22982D01*
X9295Y-22984D01*
X9295Y-22989D01*
X9294Y-22994D01*
X9292Y-22999D01*
X9290Y-23005D01*
Y-23005D01*
X9290Y-23006D01*
X9289Y-23006D01*
X9289Y-23007D01*
X9288Y-23009D01*
X9287Y-23010D01*
X9286Y-23012D01*
X9285Y-23014D01*
X9284Y-23016D01*
X9282Y-23019D01*
X9279Y-23024D01*
X9277Y-23027D01*
X9274Y-23030D01*
X9272Y-23033D01*
X9269Y-23036D01*
X9269Y-23036D01*
X9269Y-23036D01*
X9268Y-23037D01*
X9267Y-23039D01*
X9265Y-23040D01*
X9263Y-23042D01*
X9261Y-23045D01*
X9258Y-23047D01*
X9255Y-23050D01*
X9251Y-23053D01*
X9248Y-23057D01*
X9243Y-23061D01*
X9238Y-23065D01*
X9233Y-23070D01*
X9228Y-23075D01*
X9222Y-23080D01*
X9221Y-23080D01*
X9220Y-23081D01*
X9219Y-23082D01*
X9217Y-23084D01*
X9215Y-23085D01*
X9213Y-23088D01*
X9210Y-23090D01*
X9207Y-23093D01*
X9201Y-23098D01*
X9198Y-23101D01*
X9195Y-23103D01*
X9192Y-23106D01*
X9190Y-23108D01*
X9188Y-23110D01*
X9186Y-23112D01*
X9186Y-23112D01*
X9185Y-23113D01*
X9183Y-23115D01*
X9181Y-23117D01*
X9179Y-23119D01*
X9177Y-23122D01*
X9175Y-23125D01*
X9173Y-23128D01*
X9297D01*
Y-23158D01*
X9130D01*
Y-23158D01*
Y-23157D01*
Y-23157D01*
Y-23156D01*
Y-23155D01*
X9130Y-23154D01*
X9131Y-23151D01*
X9131Y-23148D01*
X9131Y-23144D01*
X9132Y-23140D01*
X9134Y-23137D01*
Y-23136D01*
X9134Y-23136D01*
X9134Y-23135D01*
X9135Y-23134D01*
X9135Y-23132D01*
X9136Y-23130D01*
X9137Y-23128D01*
X9139Y-23126D01*
X9140Y-23124D01*
X9141Y-23121D01*
X9145Y-23115D01*
X9149Y-23109D01*
X9154Y-23103D01*
X9154Y-23103D01*
X9155Y-23102D01*
X9155Y-23101D01*
X9157Y-23100D01*
X9158Y-23099D01*
X9160Y-23097D01*
X9162Y-23095D01*
X9164Y-23092D01*
X9167Y-23089D01*
X9170Y-23087D01*
X9173Y-23083D01*
X9177Y-23080D01*
X9181Y-23077D01*
X9185Y-23073D01*
X9190Y-23069D01*
X9194Y-23065D01*
X9195Y-23065D01*
X9195Y-23065D01*
X9195Y-23064D01*
X9196Y-23064D01*
X9197Y-23063D01*
X9198Y-23062D01*
X9201Y-23059D01*
X9204Y-23057D01*
X9208Y-23053D01*
X9212Y-23050D01*
X9217Y-23046D01*
X9221Y-23041D01*
X9226Y-23037D01*
X9231Y-23033D01*
X9235Y-23028D01*
X9239Y-23024D01*
X9243Y-23020D01*
X9247Y-23015D01*
X9250Y-23012D01*
X9250Y-23011D01*
X9250Y-23011D01*
X9251Y-23010D01*
X9252Y-23008D01*
X9253Y-23006D01*
X9254Y-23004D01*
X9256Y-23002D01*
X9257Y-23000D01*
X9258Y-22997D01*
X9260Y-22994D01*
X9262Y-22988D01*
X9263Y-22984D01*
X9264Y-22981D01*
X9264Y-22978D01*
X9264Y-22974D01*
Y-22974D01*
Y-22974D01*
Y-22973D01*
X9264Y-22971D01*
X9264Y-22970D01*
X9264Y-22968D01*
X9263Y-22966D01*
X9263Y-22964D01*
X9262Y-22961D01*
X9261Y-22959D01*
X9260Y-22956D01*
X9259Y-22954D01*
X9257Y-22951D01*
X9255Y-22948D01*
X9253Y-22946D01*
X9251Y-22943D01*
X9251Y-22943D01*
X9250Y-22943D01*
X9250Y-22942D01*
X9249Y-22942D01*
X9247Y-22941D01*
X9246Y-22940D01*
X9244Y-22938D01*
X9242Y-22937D01*
X9240Y-22936D01*
X9237Y-22935D01*
X9234Y-22934D01*
X9231Y-22933D01*
X9228Y-22932D01*
X9224Y-22931D01*
X9221Y-22931D01*
X9217Y-22931D01*
X9215D01*
X9213Y-22931D01*
X9211Y-22931D01*
X9209Y-22931D01*
X9207Y-22932D01*
X9204Y-22932D01*
X9201Y-22933D01*
X9198Y-22934D01*
X9195Y-22935D01*
X9192Y-22936D01*
X9189Y-22938D01*
X9187Y-22940D01*
X9184Y-22942D01*
X9181Y-22944D01*
X9181Y-22944D01*
X9181Y-22945D01*
X9180Y-22946D01*
X9179Y-22947D01*
X9178Y-22948D01*
X9177Y-22950D01*
X9176Y-22952D01*
X9175Y-22954D01*
X9173Y-22956D01*
X9172Y-22959D01*
X9171Y-22962D01*
X9170Y-22965D01*
X9169Y-22969D01*
X9168Y-22973D01*
X9168Y-22977D01*
X9168Y-22981D01*
X9136Y-22978D01*
Y-22978D01*
Y-22978D01*
X9136Y-22977D01*
Y-22976D01*
X9136Y-22974D01*
X9137Y-22972D01*
X9137Y-22969D01*
X9138Y-22966D01*
X9139Y-22962D01*
X9140Y-22958D01*
X9142Y-22954D01*
X9143Y-22949D01*
X9145Y-22945D01*
X9148Y-22940D01*
X9150Y-22936D01*
X9153Y-22931D01*
X9157Y-22927D01*
X9160Y-22924D01*
X9161Y-22924D01*
X9161Y-22923D01*
X9163Y-22922D01*
X9164Y-22921D01*
X9166Y-22919D01*
X9169Y-22918D01*
X9172Y-22916D01*
X9175Y-22914D01*
X9179Y-22913D01*
X9184Y-22911D01*
X9188Y-22909D01*
X9193Y-22908D01*
X9199Y-22907D01*
X9205Y-22906D01*
X9211Y-22905D01*
X9218Y-22905D01*
X9219D01*
X9221Y-22905D01*
D02*
G37*
G36*
X8986Y-22906D02*
X8989D01*
X8992Y-22906D01*
X8996D01*
X9003Y-22907D01*
X9011Y-22907D01*
X9014Y-22908D01*
X9018Y-22908D01*
X9021Y-22909D01*
X9024Y-22910D01*
X9024D01*
X9025Y-22910D01*
X9026Y-22910D01*
X9028Y-22911D01*
X9030Y-22911D01*
X9032Y-22912D01*
X9034Y-22913D01*
X9037Y-22914D01*
X9042Y-22916D01*
X9049Y-22919D01*
X9055Y-22923D01*
X9058Y-22925D01*
X9061Y-22928D01*
X9061Y-22928D01*
X9062Y-22928D01*
X9063Y-22929D01*
X9064Y-22931D01*
X9066Y-22932D01*
X9068Y-22934D01*
X9070Y-22937D01*
X9072Y-22939D01*
X9074Y-22942D01*
X9077Y-22946D01*
X9079Y-22949D01*
X9082Y-22953D01*
X9084Y-22957D01*
X9086Y-22961D01*
X9089Y-22966D01*
X9091Y-22971D01*
X9091Y-22971D01*
X9091Y-22972D01*
X9092Y-22973D01*
X9092Y-22975D01*
X9093Y-22978D01*
X9094Y-22981D01*
X9095Y-22984D01*
X9096Y-22988D01*
X9097Y-22992D01*
X9098Y-22997D01*
X9098Y-23002D01*
X9099Y-23007D01*
X9100Y-23013D01*
X9100Y-23018D01*
X9100Y-23024D01*
X9101Y-23031D01*
Y-23031D01*
Y-23032D01*
Y-23033D01*
X9100Y-23036D01*
Y-23038D01*
X9100Y-23041D01*
X9100Y-23044D01*
X9100Y-23048D01*
X9099Y-23052D01*
X9099Y-23056D01*
X9098Y-23064D01*
X9096Y-23073D01*
X9094Y-23082D01*
Y-23082D01*
X9094Y-23083D01*
X9093Y-23084D01*
X9093Y-23085D01*
X9092Y-23087D01*
X9091Y-23089D01*
X9090Y-23092D01*
X9089Y-23094D01*
X9087Y-23100D01*
X9084Y-23106D01*
X9080Y-23112D01*
X9077Y-23118D01*
X9076Y-23118D01*
X9076Y-23119D01*
X9076Y-23120D01*
X9075Y-23121D01*
X9074Y-23122D01*
X9073Y-23123D01*
X9070Y-23127D01*
X9066Y-23130D01*
X9063Y-23134D01*
X9058Y-23138D01*
X9054Y-23141D01*
X9054D01*
X9053Y-23142D01*
X9052Y-23142D01*
X9052Y-23142D01*
X9050Y-23143D01*
X9049Y-23144D01*
X9047Y-23145D01*
X9045Y-23146D01*
X9043Y-23147D01*
X9041Y-23148D01*
X9038Y-23149D01*
X9036Y-23150D01*
X9030Y-23152D01*
X9024Y-23154D01*
X9024D01*
X9023Y-23154D01*
X9022Y-23154D01*
X9021Y-23154D01*
X9019Y-23155D01*
X9017Y-23155D01*
X9015Y-23155D01*
X9012Y-23156D01*
X9009Y-23156D01*
X9006Y-23157D01*
X9003Y-23157D01*
X8999Y-23157D01*
X8995Y-23158D01*
X8991Y-23158D01*
X8983Y-23158D01*
X8892D01*
Y-22906D01*
X8984D01*
X8986Y-22906D01*
D02*
G37*
G36*
X8490Y-11064D02*
X8493D01*
X8496Y-11065D01*
X8500Y-11065D01*
X8504Y-11066D01*
X8508Y-11066D01*
X8513Y-11067D01*
X8522Y-11070D01*
X8528Y-11071D01*
X8533Y-11073D01*
X8538Y-11075D01*
X8543Y-11078D01*
X8543Y-11078D01*
X8544Y-11078D01*
X8545Y-11079D01*
X8547Y-11080D01*
X8549Y-11081D01*
X8552Y-11083D01*
X8555Y-11085D01*
X8558Y-11087D01*
X8564Y-11093D01*
X8571Y-11099D01*
X8577Y-11106D01*
X8580Y-11110D01*
X8583Y-11114D01*
X8583Y-11115D01*
X8584Y-11116D01*
X8584Y-11117D01*
X8585Y-11119D01*
X8586Y-11121D01*
X8588Y-11123D01*
X8589Y-11126D01*
X8590Y-11129D01*
X8591Y-11133D01*
X8593Y-11137D01*
X8595Y-11145D01*
X8597Y-11154D01*
X8597Y-11159D01*
X8597Y-11164D01*
Y-11164D01*
Y-11165D01*
Y-11166D01*
X8597Y-11168D01*
Y-11170D01*
X8596Y-11173D01*
X8596Y-11176D01*
X8596Y-11179D01*
X8594Y-11186D01*
X8591Y-11193D01*
X8590Y-11197D01*
X8588Y-11201D01*
X8586Y-11205D01*
X8584Y-11209D01*
X8583Y-11209D01*
X8583Y-11210D01*
X8582Y-11211D01*
X8581Y-11212D01*
X8580Y-11214D01*
X8578Y-11216D01*
X8576Y-11218D01*
X8574Y-11221D01*
X8571Y-11223D01*
X8568Y-11226D01*
X8565Y-11229D01*
X8562Y-11231D01*
X8558Y-11234D01*
X8553Y-11237D01*
X8549Y-11239D01*
X8544Y-11241D01*
X8545D01*
X8546Y-11242D01*
X8548Y-11242D01*
X8550Y-11243D01*
X8553Y-11244D01*
X8556Y-11245D01*
X8560Y-11247D01*
X8564Y-11248D01*
X8568Y-11250D01*
X8572Y-11253D01*
X8577Y-11255D01*
X8581Y-11258D01*
X8585Y-11262D01*
X8589Y-11265D01*
X8594Y-11270D01*
X8597Y-11274D01*
X8598Y-11274D01*
X8598Y-11275D01*
X8599Y-11276D01*
X8600Y-11278D01*
X8602Y-11281D01*
X8603Y-11284D01*
X8605Y-11287D01*
X8607Y-11291D01*
X8608Y-11295D01*
X8610Y-11300D01*
X8612Y-11305D01*
X8613Y-11311D01*
X8614Y-11316D01*
X8615Y-11322D01*
X8616Y-11329D01*
X8616Y-11336D01*
Y-11336D01*
Y-11338D01*
X8616Y-11341D01*
X8616Y-11344D01*
X8615Y-11348D01*
X8614Y-11353D01*
X8613Y-11359D01*
X8611Y-11365D01*
X8609Y-11372D01*
X8607Y-11378D01*
X8604Y-11386D01*
X8601Y-11393D01*
X8596Y-11400D01*
X8591Y-11407D01*
X8586Y-11414D01*
X8579Y-11421D01*
X8579Y-11421D01*
X8578Y-11422D01*
X8576Y-11424D01*
X8573Y-11426D01*
X8569Y-11429D01*
X8565Y-11432D01*
X8560Y-11435D01*
X8554Y-11438D01*
X8548Y-11442D01*
X8540Y-11445D01*
X8533Y-11448D01*
X8525Y-11450D01*
X8516Y-11452D01*
X8507Y-11454D01*
X8497Y-11455D01*
X8487Y-11456D01*
X8485D01*
X8482Y-11455D01*
X8478Y-11455D01*
X8474Y-11455D01*
X8469Y-11454D01*
X8463Y-11453D01*
X8457Y-11452D01*
X8451Y-11450D01*
X8444Y-11448D01*
X8437Y-11446D01*
X8430Y-11443D01*
X8423Y-11440D01*
X8416Y-11436D01*
X8409Y-11431D01*
X8403Y-11426D01*
X8403Y-11425D01*
X8401Y-11424D01*
X8400Y-11423D01*
X8398Y-11420D01*
X8395Y-11417D01*
X8392Y-11414D01*
X8389Y-11409D01*
X8386Y-11405D01*
X8382Y-11399D01*
X8379Y-11393D01*
X8376Y-11387D01*
X8373Y-11380D01*
X8370Y-11373D01*
X8368Y-11365D01*
X8366Y-11357D01*
X8365Y-11348D01*
X8412Y-11341D01*
Y-11342D01*
X8412Y-11343D01*
X8413Y-11345D01*
X8414Y-11348D01*
X8415Y-11351D01*
X8416Y-11355D01*
X8417Y-11359D01*
X8419Y-11363D01*
X8422Y-11373D01*
X8427Y-11383D01*
X8430Y-11387D01*
X8433Y-11392D01*
X8436Y-11396D01*
X8440Y-11399D01*
X8440Y-11399D01*
X8440Y-11400D01*
X8442Y-11401D01*
X8443Y-11402D01*
X8445Y-11403D01*
X8447Y-11405D01*
X8450Y-11406D01*
X8453Y-11408D01*
X8456Y-11409D01*
X8460Y-11411D01*
X8464Y-11412D01*
X8468Y-11414D01*
X8472Y-11415D01*
X8477Y-11416D01*
X8482Y-11416D01*
X8487Y-11417D01*
X8488D01*
X8490Y-11416D01*
X8493D01*
X8496Y-11416D01*
X8499Y-11416D01*
X8503Y-11415D01*
X8507Y-11414D01*
X8511Y-11412D01*
X8516Y-11411D01*
X8520Y-11409D01*
X8525Y-11407D01*
X8530Y-11404D01*
X8534Y-11401D01*
X8539Y-11398D01*
X8543Y-11394D01*
X8544Y-11393D01*
X8544Y-11393D01*
X8545Y-11391D01*
X8547Y-11389D01*
X8548Y-11387D01*
X8550Y-11384D01*
X8553Y-11381D01*
X8555Y-11378D01*
X8557Y-11374D01*
X8559Y-11370D01*
X8561Y-11365D01*
X8563Y-11360D01*
X8564Y-11355D01*
X8565Y-11349D01*
X8566Y-11343D01*
X8566Y-11337D01*
Y-11337D01*
Y-11335D01*
Y-11334D01*
X8566Y-11331D01*
X8566Y-11329D01*
X8565Y-11325D01*
X8565Y-11322D01*
X8563Y-11318D01*
X8562Y-11314D01*
X8561Y-11309D01*
X8559Y-11305D01*
X8557Y-11301D01*
X8555Y-11296D01*
X8552Y-11292D01*
X8549Y-11288D01*
X8545Y-11283D01*
X8545Y-11283D01*
X8544Y-11283D01*
X8543Y-11281D01*
X8541Y-11280D01*
X8539Y-11278D01*
X8537Y-11277D01*
X8534Y-11275D01*
X8530Y-11273D01*
X8527Y-11271D01*
X8522Y-11269D01*
X8518Y-11267D01*
X8513Y-11266D01*
X8508Y-11264D01*
X8503Y-11263D01*
X8497Y-11263D01*
X8491Y-11262D01*
X8489D01*
X8486Y-11263D01*
X8482Y-11263D01*
X8477Y-11263D01*
X8471Y-11265D01*
X8465Y-11266D01*
X8458Y-11267D01*
X8463Y-11226D01*
X8464D01*
X8465Y-11226D01*
X8466D01*
X8468Y-11227D01*
X8474D01*
X8476Y-11226D01*
X8478Y-11226D01*
X8481Y-11226D01*
X8485Y-11225D01*
X8489Y-11225D01*
X8493Y-11224D01*
X8497Y-11223D01*
X8506Y-11220D01*
X8511Y-11218D01*
X8516Y-11216D01*
X8520Y-11214D01*
X8525Y-11211D01*
X8525Y-11211D01*
X8526Y-11210D01*
X8527Y-11209D01*
X8529Y-11208D01*
X8530Y-11206D01*
X8532Y-11204D01*
X8534Y-11202D01*
X8537Y-11199D01*
X8539Y-11196D01*
X8541Y-11192D01*
X8543Y-11188D01*
X8545Y-11184D01*
X8547Y-11179D01*
X8548Y-11174D01*
X8548Y-11168D01*
X8549Y-11163D01*
Y-11162D01*
Y-11162D01*
Y-11160D01*
X8548Y-11158D01*
X8548Y-11156D01*
X8548Y-11153D01*
X8547Y-11151D01*
X8547Y-11148D01*
X8544Y-11141D01*
X8543Y-11137D01*
X8541Y-11134D01*
X8539Y-11130D01*
X8537Y-11127D01*
X8534Y-11123D01*
X8531Y-11120D01*
X8531Y-11120D01*
X8530Y-11119D01*
X8529Y-11118D01*
X8528Y-11117D01*
X8526Y-11116D01*
X8524Y-11114D01*
X8522Y-11113D01*
X8519Y-11111D01*
X8516Y-11110D01*
X8512Y-11108D01*
X8509Y-11107D01*
X8505Y-11106D01*
X8500Y-11104D01*
X8496Y-11104D01*
X8491Y-11103D01*
X8486Y-11103D01*
X8483D01*
X8481Y-11103D01*
X8479Y-11103D01*
X8476Y-11104D01*
X8473Y-11104D01*
X8470Y-11105D01*
X8463Y-11107D01*
X8459Y-11108D01*
X8455Y-11110D01*
X8451Y-11112D01*
X8447Y-11114D01*
X8444Y-11117D01*
X8440Y-11120D01*
X8440Y-11121D01*
X8439Y-11121D01*
X8439Y-11122D01*
X8437Y-11124D01*
X8436Y-11125D01*
X8434Y-11127D01*
X8432Y-11130D01*
X8430Y-11133D01*
X8429Y-11137D01*
X8427Y-11140D01*
X8424Y-11145D01*
X8423Y-11149D01*
X8421Y-11154D01*
X8419Y-11160D01*
X8418Y-11165D01*
X8417Y-11172D01*
X8370Y-11163D01*
Y-11163D01*
Y-11163D01*
X8370Y-11161D01*
X8371Y-11159D01*
X8372Y-11156D01*
X8373Y-11152D01*
X8374Y-11147D01*
X8376Y-11142D01*
X8378Y-11137D01*
X8380Y-11131D01*
X8383Y-11125D01*
X8386Y-11119D01*
X8390Y-11112D01*
X8394Y-11106D01*
X8398Y-11101D01*
X8403Y-11095D01*
X8409Y-11090D01*
X8409Y-11090D01*
X8410Y-11089D01*
X8412Y-11088D01*
X8414Y-11086D01*
X8417Y-11084D01*
X8421Y-11082D01*
X8425Y-11080D01*
X8430Y-11077D01*
X8435Y-11075D01*
X8441Y-11072D01*
X8447Y-11070D01*
X8454Y-11068D01*
X8461Y-11066D01*
X8469Y-11065D01*
X8477Y-11064D01*
X8485Y-11064D01*
X8488D01*
X8490Y-11064D01*
D02*
G37*
G36*
X8299Y-11287D02*
Y-11287D01*
Y-11288D01*
Y-11288D01*
Y-11289D01*
Y-11291D01*
Y-11293D01*
X8299Y-11296D01*
Y-11301D01*
X8299Y-11307D01*
X8298Y-11313D01*
X8298Y-11320D01*
X8297Y-11327D01*
X8296Y-11335D01*
X8294Y-11350D01*
X8292Y-11358D01*
X8291Y-11365D01*
X8288Y-11372D01*
X8286Y-11379D01*
X8286Y-11379D01*
X8286Y-11380D01*
X8285Y-11382D01*
X8284Y-11384D01*
X8282Y-11387D01*
X8280Y-11391D01*
X8278Y-11394D01*
X8275Y-11398D01*
X8272Y-11403D01*
X8269Y-11407D01*
X8265Y-11412D01*
X8261Y-11416D01*
X8256Y-11421D01*
X8251Y-11425D01*
X8245Y-11430D01*
X8239Y-11434D01*
X8239Y-11434D01*
X8237Y-11435D01*
X8235Y-11436D01*
X8233Y-11437D01*
X8229Y-11439D01*
X8226Y-11441D01*
X8221Y-11443D01*
X8215Y-11445D01*
X8209Y-11447D01*
X8202Y-11448D01*
X8195Y-11450D01*
X8187Y-11452D01*
X8178Y-11453D01*
X8169Y-11454D01*
X8160Y-11455D01*
X8150Y-11455D01*
X8144D01*
X8141Y-11455D01*
X8136Y-11455D01*
X8131Y-11454D01*
X8125Y-11453D01*
X8118Y-11453D01*
X8111Y-11452D01*
X8104Y-11451D01*
X8097Y-11449D01*
X8090Y-11447D01*
X8082Y-11445D01*
X8075Y-11443D01*
X8068Y-11440D01*
X8061Y-11437D01*
X8061Y-11436D01*
X8060Y-11436D01*
X8058Y-11435D01*
X8056Y-11433D01*
X8053Y-11431D01*
X8050Y-11429D01*
X8046Y-11426D01*
X8042Y-11423D01*
X8039Y-11419D01*
X8034Y-11415D01*
X8030Y-11411D01*
X8026Y-11406D01*
X8022Y-11401D01*
X8019Y-11395D01*
X8016Y-11389D01*
X8012Y-11383D01*
X8012Y-11383D01*
X8012Y-11381D01*
X8011Y-11380D01*
X8010Y-11377D01*
X8009Y-11373D01*
X8008Y-11369D01*
X8007Y-11364D01*
X8005Y-11358D01*
X8004Y-11351D01*
X8003Y-11344D01*
X8001Y-11336D01*
X8000Y-11328D01*
X7999Y-11319D01*
X7999Y-11309D01*
X7998Y-11298D01*
X7998Y-11287D01*
Y-11065D01*
X8049D01*
Y-11287D01*
Y-11287D01*
Y-11289D01*
Y-11291D01*
X8049Y-11295D01*
Y-11299D01*
X8049Y-11304D01*
X8050Y-11309D01*
X8050Y-11315D01*
X8050Y-11321D01*
X8051Y-11327D01*
X8053Y-11339D01*
X8054Y-11345D01*
X8055Y-11350D01*
X8056Y-11356D01*
X8058Y-11360D01*
Y-11361D01*
X8058Y-11362D01*
X8059Y-11363D01*
X8060Y-11364D01*
X8061Y-11366D01*
X8062Y-11368D01*
X8065Y-11374D01*
X8070Y-11380D01*
X8072Y-11383D01*
X8075Y-11386D01*
X8078Y-11389D01*
X8082Y-11391D01*
X8086Y-11394D01*
X8090Y-11397D01*
X8090D01*
X8091Y-11397D01*
X8092Y-11398D01*
X8094Y-11399D01*
X8096Y-11400D01*
X8099Y-11401D01*
X8102Y-11402D01*
X8105Y-11403D01*
X8109Y-11404D01*
X8113Y-11405D01*
X8118Y-11406D01*
X8123Y-11407D01*
X8128Y-11408D01*
X8134Y-11409D01*
X8139Y-11409D01*
X8145Y-11409D01*
X8148D01*
X8150Y-11409D01*
X8154D01*
X8159Y-11409D01*
X8164Y-11408D01*
X8170Y-11407D01*
X8176Y-11406D01*
X8183Y-11405D01*
X8189Y-11403D01*
X8196Y-11401D01*
X8203Y-11399D01*
X8209Y-11396D01*
X8215Y-11393D01*
X8220Y-11389D01*
X8225Y-11384D01*
X8225Y-11384D01*
X8226Y-11383D01*
X8227Y-11381D01*
X8229Y-11379D01*
X8231Y-11376D01*
X8232Y-11372D01*
X8235Y-11368D01*
X8237Y-11362D01*
X8239Y-11356D01*
X8241Y-11349D01*
X8243Y-11341D01*
X8245Y-11332D01*
X8247Y-11322D01*
X8248Y-11312D01*
X8249Y-11300D01*
X8249Y-11287D01*
Y-11065D01*
X8299D01*
Y-11287D01*
D02*
G37*
G36*
X7726Y-23847D02*
X7695D01*
Y-23650D01*
X7694Y-23650D01*
X7693Y-23652D01*
X7690Y-23654D01*
X7687Y-23657D01*
X7683Y-23660D01*
X7678Y-23663D01*
X7672Y-23667D01*
X7666Y-23671D01*
X7665D01*
X7665Y-23672D01*
X7664Y-23672D01*
X7663Y-23673D01*
X7659Y-23675D01*
X7655Y-23677D01*
X7650Y-23680D01*
X7644Y-23682D01*
X7639Y-23685D01*
X7633Y-23687D01*
Y-23657D01*
X7633D01*
X7634Y-23657D01*
X7636Y-23656D01*
X7637Y-23655D01*
X7640Y-23654D01*
X7642Y-23652D01*
X7648Y-23649D01*
X7655Y-23645D01*
X7663Y-23639D01*
X7671Y-23634D01*
X7678Y-23628D01*
X7679Y-23627D01*
X7679Y-23627D01*
X7680Y-23626D01*
X7682Y-23625D01*
X7685Y-23621D01*
X7689Y-23617D01*
X7693Y-23612D01*
X7698Y-23606D01*
X7702Y-23600D01*
X7706Y-23594D01*
X7726D01*
Y-23847D01*
D02*
G37*
G36*
X7488Y-23595D02*
X7491D01*
X7495Y-23595D01*
X7499Y-23596D01*
X7507Y-23596D01*
X7515Y-23598D01*
X7524Y-23599D01*
X7527Y-23600D01*
X7531Y-23602D01*
X7531D01*
X7531Y-23602D01*
X7532Y-23602D01*
X7534Y-23603D01*
X7537Y-23605D01*
X7541Y-23607D01*
X7545Y-23611D01*
X7550Y-23615D01*
X7555Y-23620D01*
X7559Y-23626D01*
Y-23626D01*
X7559Y-23627D01*
X7560Y-23628D01*
X7561Y-23629D01*
X7562Y-23633D01*
X7564Y-23637D01*
X7566Y-23643D01*
X7568Y-23649D01*
X7569Y-23657D01*
X7569Y-23664D01*
Y-23664D01*
Y-23665D01*
Y-23667D01*
X7569Y-23669D01*
X7569Y-23671D01*
X7568Y-23674D01*
X7567Y-23680D01*
X7565Y-23687D01*
X7562Y-23695D01*
X7560Y-23698D01*
X7558Y-23702D01*
X7555Y-23706D01*
X7552Y-23709D01*
X7552Y-23710D01*
X7551Y-23710D01*
X7550Y-23711D01*
X7549Y-23712D01*
X7547Y-23714D01*
X7545Y-23715D01*
X7542Y-23717D01*
X7539Y-23719D01*
X7535Y-23721D01*
X7531Y-23723D01*
X7527Y-23725D01*
X7522Y-23727D01*
X7517Y-23729D01*
X7511Y-23730D01*
X7505Y-23732D01*
X7498Y-23733D01*
X7499Y-23733D01*
X7501Y-23734D01*
X7503Y-23735D01*
X7506Y-23737D01*
X7512Y-23741D01*
X7515Y-23743D01*
X7518Y-23745D01*
X7519D01*
X7519Y-23746D01*
X7521Y-23748D01*
X7524Y-23751D01*
X7527Y-23755D01*
X7532Y-23759D01*
X7536Y-23765D01*
X7541Y-23772D01*
X7546Y-23779D01*
X7590Y-23847D01*
X7548D01*
X7515Y-23795D01*
Y-23795D01*
X7514Y-23794D01*
X7513Y-23793D01*
X7512Y-23791D01*
X7511Y-23789D01*
X7509Y-23787D01*
X7506Y-23782D01*
X7502Y-23777D01*
X7498Y-23771D01*
X7494Y-23765D01*
X7490Y-23760D01*
X7490Y-23760D01*
X7489Y-23759D01*
X7487Y-23756D01*
X7485Y-23754D01*
X7482Y-23751D01*
X7479Y-23748D01*
X7476Y-23746D01*
X7473Y-23743D01*
X7473Y-23743D01*
X7472Y-23743D01*
X7471Y-23742D01*
X7469Y-23741D01*
X7466Y-23740D01*
X7464Y-23739D01*
X7458Y-23737D01*
X7458D01*
X7457Y-23736D01*
X7456D01*
X7454Y-23736D01*
X7451Y-23736D01*
X7448D01*
X7444Y-23735D01*
X7401D01*
Y-23847D01*
X7368D01*
Y-23595D01*
X7485D01*
X7488Y-23595D01*
D02*
G37*
G36*
X6437Y-23798D02*
X6419D01*
Y-23681D01*
X6419Y-23681D01*
X6418Y-23681D01*
X6418Y-23681D01*
X6418Y-23682D01*
X6417Y-23682D01*
X6416Y-23683D01*
X6415Y-23684D01*
X6414Y-23685D01*
X6413Y-23685D01*
X6412Y-23687D01*
X6410Y-23687D01*
X6409Y-23689D01*
X6407Y-23690D01*
X6405Y-23691D01*
X6401Y-23693D01*
X6401Y-23693D01*
X6401Y-23694D01*
X6400Y-23694D01*
X6399Y-23694D01*
X6398Y-23695D01*
X6397Y-23696D01*
X6396Y-23696D01*
X6395Y-23697D01*
X6392Y-23698D01*
X6388Y-23700D01*
X6385Y-23702D01*
X6382Y-23703D01*
Y-23685D01*
X6382Y-23685D01*
X6382Y-23685D01*
X6383Y-23684D01*
X6384Y-23684D01*
X6386Y-23683D01*
X6387Y-23682D01*
X6389Y-23681D01*
X6391Y-23680D01*
X6393Y-23679D01*
X6395Y-23677D01*
X6400Y-23674D01*
X6404Y-23671D01*
X6409Y-23667D01*
X6409Y-23667D01*
X6409Y-23667D01*
X6410Y-23666D01*
X6411Y-23666D01*
X6412Y-23665D01*
X6413Y-23664D01*
X6414Y-23662D01*
X6415Y-23661D01*
X6417Y-23659D01*
X6418Y-23658D01*
X6421Y-23654D01*
X6423Y-23651D01*
X6424Y-23649D01*
X6425Y-23647D01*
X6437D01*
Y-23798D01*
D02*
G37*
G36*
X6279Y-23648D02*
X6281D01*
X6283Y-23648D01*
X6285D01*
X6289Y-23648D01*
X6294Y-23648D01*
X6296Y-23649D01*
X6298Y-23649D01*
X6300Y-23649D01*
X6302Y-23650D01*
X6302D01*
X6302Y-23650D01*
X6303Y-23650D01*
X6304Y-23650D01*
X6305Y-23651D01*
X6306Y-23651D01*
X6308Y-23652D01*
X6309Y-23652D01*
X6313Y-23654D01*
X6316Y-23656D01*
X6320Y-23658D01*
X6322Y-23659D01*
X6324Y-23661D01*
X6324Y-23661D01*
X6324Y-23661D01*
X6325Y-23662D01*
X6326Y-23662D01*
X6327Y-23663D01*
X6328Y-23665D01*
X6329Y-23666D01*
X6331Y-23668D01*
X6332Y-23669D01*
X6333Y-23671D01*
X6335Y-23673D01*
X6336Y-23676D01*
X6338Y-23678D01*
X6339Y-23681D01*
X6340Y-23684D01*
X6342Y-23686D01*
X6342Y-23687D01*
X6342Y-23687D01*
X6342Y-23688D01*
X6343Y-23689D01*
X6343Y-23691D01*
X6344Y-23692D01*
X6344Y-23694D01*
X6345Y-23697D01*
X6345Y-23699D01*
X6346Y-23702D01*
X6346Y-23705D01*
X6347Y-23708D01*
X6347Y-23711D01*
X6347Y-23715D01*
X6348Y-23719D01*
X6348Y-23722D01*
Y-23722D01*
Y-23723D01*
Y-23724D01*
X6348Y-23725D01*
Y-23727D01*
X6347Y-23728D01*
X6347Y-23730D01*
X6347Y-23733D01*
X6347Y-23735D01*
X6347Y-23737D01*
X6346Y-23742D01*
X6345Y-23748D01*
X6344Y-23753D01*
Y-23753D01*
X6343Y-23753D01*
X6343Y-23754D01*
X6343Y-23755D01*
X6343Y-23756D01*
X6342Y-23757D01*
X6341Y-23759D01*
X6341Y-23760D01*
X6339Y-23764D01*
X6338Y-23768D01*
X6336Y-23771D01*
X6333Y-23775D01*
X6333Y-23775D01*
X6333Y-23775D01*
X6333Y-23776D01*
X6332Y-23776D01*
X6332Y-23777D01*
X6331Y-23778D01*
X6329Y-23780D01*
X6327Y-23782D01*
X6325Y-23784D01*
X6322Y-23786D01*
X6320Y-23788D01*
X6319D01*
X6319Y-23789D01*
X6319Y-23789D01*
X6318Y-23789D01*
X6317Y-23790D01*
X6317Y-23790D01*
X6316Y-23791D01*
X6315Y-23791D01*
X6313Y-23792D01*
X6312Y-23792D01*
X6310Y-23793D01*
X6309Y-23794D01*
X6305Y-23795D01*
X6302Y-23796D01*
X6301D01*
X6301Y-23796D01*
X6300Y-23796D01*
X6300Y-23796D01*
X6299Y-23796D01*
X6298Y-23797D01*
X6296Y-23797D01*
X6295Y-23797D01*
X6293Y-23797D01*
X6291Y-23798D01*
X6289Y-23798D01*
X6287Y-23798D01*
X6285Y-23798D01*
X6282Y-23798D01*
X6277Y-23798D01*
X6223D01*
Y-23648D01*
X6278D01*
X6279Y-23648D01*
D02*
G37*
G36*
X1757Y-20382D02*
Y-20383D01*
Y-20384D01*
Y-20387D01*
Y-20390D01*
X1756Y-20394D01*
Y-20399D01*
X1756Y-20404D01*
X1755Y-20410D01*
X1754Y-20422D01*
X1752Y-20434D01*
X1749Y-20446D01*
X1747Y-20452D01*
X1745Y-20457D01*
Y-20458D01*
X1744Y-20458D01*
X1744Y-20460D01*
X1743Y-20462D01*
X1740Y-20466D01*
X1736Y-20472D01*
X1731Y-20479D01*
X1724Y-20485D01*
X1717Y-20492D01*
X1708Y-20498D01*
X1707D01*
X1707Y-20498D01*
X1705Y-20499D01*
X1703Y-20500D01*
X1698Y-20502D01*
X1691Y-20504D01*
X1682Y-20507D01*
X1672Y-20509D01*
X1661Y-20511D01*
X1648Y-20511D01*
X1643D01*
X1640Y-20511D01*
X1636Y-20510D01*
X1631Y-20510D01*
X1625Y-20509D01*
X1620Y-20508D01*
X1607Y-20504D01*
X1601Y-20502D01*
X1594Y-20499D01*
X1588Y-20496D01*
X1582Y-20492D01*
X1576Y-20487D01*
X1571Y-20482D01*
X1570Y-20482D01*
X1570Y-20481D01*
X1568Y-20479D01*
X1567Y-20477D01*
X1565Y-20474D01*
X1562Y-20470D01*
X1560Y-20466D01*
X1557Y-20461D01*
X1555Y-20455D01*
X1553Y-20448D01*
X1551Y-20441D01*
X1549Y-20434D01*
X1547Y-20425D01*
X1546Y-20416D01*
X1545Y-20407D01*
Y-20396D01*
X1591Y-20390D01*
Y-20390D01*
Y-20392D01*
Y-20394D01*
X1592Y-20397D01*
X1592Y-20400D01*
X1593Y-20404D01*
X1594Y-20414D01*
X1596Y-20424D01*
X1599Y-20434D01*
X1602Y-20443D01*
X1605Y-20446D01*
X1607Y-20450D01*
X1608Y-20450D01*
X1610Y-20452D01*
X1613Y-20455D01*
X1618Y-20458D01*
X1624Y-20461D01*
X1631Y-20463D01*
X1639Y-20465D01*
X1648Y-20466D01*
X1651D01*
X1655Y-20465D01*
X1660Y-20465D01*
X1665Y-20464D01*
X1670Y-20462D01*
X1676Y-20460D01*
X1681Y-20457D01*
X1682Y-20457D01*
X1684Y-20456D01*
X1686Y-20454D01*
X1689Y-20451D01*
X1692Y-20447D01*
X1695Y-20443D01*
X1698Y-20439D01*
X1700Y-20433D01*
X1701Y-20433D01*
X1701Y-20430D01*
X1702Y-20427D01*
X1703Y-20422D01*
X1704Y-20415D01*
X1705Y-20407D01*
X1706Y-20397D01*
Y-20385D01*
Y-20120D01*
X1757D01*
Y-20382D01*
D02*
G37*
G36*
X1998Y-20505D02*
X1951D01*
Y-20204D01*
X1950Y-20205D01*
X1948Y-20207D01*
X1944Y-20210D01*
X1939Y-20214D01*
X1933Y-20219D01*
X1925Y-20225D01*
X1916Y-20231D01*
X1906Y-20237D01*
X1906D01*
X1905Y-20237D01*
X1904Y-20238D01*
X1902Y-20239D01*
X1896Y-20242D01*
X1890Y-20246D01*
X1882Y-20250D01*
X1874Y-20254D01*
X1865Y-20258D01*
X1857Y-20261D01*
Y-20215D01*
X1857D01*
X1859Y-20214D01*
X1861Y-20213D01*
X1863Y-20212D01*
X1867Y-20210D01*
X1871Y-20208D01*
X1880Y-20203D01*
X1891Y-20196D01*
X1903Y-20188D01*
X1914Y-20180D01*
X1926Y-20170D01*
X1926Y-20170D01*
X1927Y-20169D01*
X1929Y-20168D01*
X1931Y-20166D01*
X1936Y-20161D01*
X1942Y-20154D01*
X1949Y-20146D01*
X1956Y-20137D01*
X1962Y-20128D01*
X1968Y-20119D01*
X1998D01*
Y-20505D01*
D02*
G37*
G36*
X8554Y-22646D02*
X8523D01*
Y-22449D01*
X8523Y-22449D01*
X8522Y-22450D01*
X8522Y-22450D01*
X8521Y-22451D01*
X8520Y-22452D01*
X8518Y-22453D01*
X8517Y-22454D01*
X8515Y-22456D01*
X8513Y-22457D01*
X8511Y-22459D01*
X8508Y-22461D01*
X8506Y-22463D01*
X8503Y-22465D01*
X8500Y-22467D01*
X8493Y-22471D01*
X8493Y-22471D01*
X8493Y-22471D01*
X8492Y-22472D01*
X8490Y-22472D01*
X8489Y-22473D01*
X8487Y-22474D01*
X8485Y-22475D01*
X8483Y-22477D01*
X8478Y-22479D01*
X8472Y-22482D01*
X8467Y-22484D01*
X8461Y-22486D01*
Y-22457D01*
X8461Y-22456D01*
X8462Y-22456D01*
X8464Y-22455D01*
X8465Y-22454D01*
X8468Y-22453D01*
X8470Y-22452D01*
X8473Y-22450D01*
X8476Y-22448D01*
X8480Y-22446D01*
X8483Y-22444D01*
X8491Y-22439D01*
X8499Y-22433D01*
X8506Y-22427D01*
X8507Y-22427D01*
X8507Y-22426D01*
X8508Y-22425D01*
X8510Y-22424D01*
X8511Y-22423D01*
X8513Y-22421D01*
X8515Y-22419D01*
X8517Y-22416D01*
X8519Y-22414D01*
X8522Y-22411D01*
X8526Y-22405D01*
X8530Y-22399D01*
X8532Y-22396D01*
X8534Y-22393D01*
X8554D01*
Y-22646D01*
D02*
G37*
G36*
X8319Y-22394D02*
X8321D01*
X8324Y-22395D01*
X8331Y-22395D01*
X8337Y-22395D01*
X8343Y-22396D01*
X8346Y-22396D01*
X8349Y-22397D01*
X8349D01*
X8350Y-22397D01*
X8350Y-22397D01*
X8352Y-22397D01*
X8353Y-22398D01*
X8355Y-22398D01*
X8357Y-22399D01*
X8360Y-22399D01*
X8364Y-22401D01*
X8370Y-22403D01*
X8375Y-22405D01*
X8380Y-22409D01*
X8380Y-22409D01*
X8380Y-22409D01*
X8381Y-22409D01*
X8382Y-22410D01*
X8383Y-22411D01*
X8384Y-22412D01*
X8386Y-22413D01*
X8387Y-22415D01*
X8388Y-22416D01*
X8390Y-22418D01*
X8394Y-22422D01*
X8397Y-22427D01*
X8400Y-22433D01*
X8400Y-22433D01*
X8400Y-22434D01*
X8401Y-22434D01*
X8401Y-22436D01*
X8402Y-22437D01*
X8402Y-22439D01*
X8403Y-22441D01*
X8404Y-22443D01*
X8404Y-22445D01*
X8405Y-22448D01*
X8406Y-22451D01*
X8406Y-22454D01*
X8407Y-22460D01*
X8408Y-22467D01*
Y-22468D01*
Y-22469D01*
X8407Y-22470D01*
X8407Y-22472D01*
X8407Y-22475D01*
X8406Y-22478D01*
X8406Y-22482D01*
X8405Y-22486D01*
X8404Y-22490D01*
X8402Y-22494D01*
X8401Y-22499D01*
X8399Y-22504D01*
X8396Y-22508D01*
X8394Y-22513D01*
X8391Y-22517D01*
X8387Y-22521D01*
X8387Y-22522D01*
X8386Y-22522D01*
X8385Y-22523D01*
X8383Y-22525D01*
X8381Y-22527D01*
X8378Y-22529D01*
X8374Y-22531D01*
X8370Y-22533D01*
X8365Y-22535D01*
X8360Y-22537D01*
X8354Y-22539D01*
X8347Y-22540D01*
X8340Y-22542D01*
X8336Y-22542D01*
X8332Y-22543D01*
X8327Y-22543D01*
X8323Y-22543D01*
X8318Y-22544D01*
X8249D01*
Y-22646D01*
X8215D01*
Y-22394D01*
X8316D01*
X8319Y-22394D01*
D02*
G37*
G36*
X8181Y-22424D02*
X8098D01*
Y-22646D01*
X8065D01*
Y-22424D01*
X7982D01*
Y-22394D01*
X8181D01*
Y-22424D01*
D02*
G37*
G36*
X9631Y-21283D02*
X9633Y-21283D01*
X9636Y-21283D01*
X9640Y-21284D01*
X9644Y-21285D01*
X9648Y-21285D01*
X9652Y-21287D01*
X9657Y-21288D01*
X9662Y-21289D01*
X9667Y-21291D01*
X9671Y-21294D01*
X9676Y-21296D01*
X9680Y-21299D01*
X9684Y-21303D01*
X9685Y-21303D01*
X9685Y-21304D01*
X9686Y-21305D01*
X9688Y-21307D01*
X9689Y-21309D01*
X9691Y-21311D01*
X9693Y-21314D01*
X9695Y-21317D01*
X9697Y-21320D01*
X9699Y-21324D01*
X9701Y-21328D01*
X9702Y-21333D01*
X9704Y-21337D01*
X9705Y-21342D01*
X9705Y-21348D01*
X9706Y-21353D01*
Y-21353D01*
Y-21354D01*
Y-21354D01*
Y-21356D01*
X9705Y-21357D01*
X9705Y-21358D01*
X9705Y-21360D01*
X9705Y-21362D01*
X9704Y-21367D01*
X9703Y-21372D01*
X9701Y-21377D01*
X9699Y-21383D01*
Y-21383D01*
X9699Y-21383D01*
X9699Y-21384D01*
X9698Y-21385D01*
X9698Y-21386D01*
X9697Y-21388D01*
X9696Y-21390D01*
X9695Y-21392D01*
X9693Y-21394D01*
X9692Y-21396D01*
X9688Y-21402D01*
X9686Y-21405D01*
X9684Y-21407D01*
X9681Y-21410D01*
X9679Y-21413D01*
X9679Y-21414D01*
X9678Y-21414D01*
X9677Y-21415D01*
X9676Y-21416D01*
X9675Y-21418D01*
X9673Y-21420D01*
X9670Y-21422D01*
X9668Y-21425D01*
X9665Y-21428D01*
X9661Y-21431D01*
X9657Y-21435D01*
X9653Y-21439D01*
X9648Y-21443D01*
X9643Y-21448D01*
X9637Y-21453D01*
X9631Y-21458D01*
X9631Y-21458D01*
X9630Y-21459D01*
X9629Y-21460D01*
X9627Y-21461D01*
X9625Y-21463D01*
X9622Y-21465D01*
X9619Y-21468D01*
X9616Y-21470D01*
X9610Y-21476D01*
X9607Y-21478D01*
X9604Y-21481D01*
X9602Y-21483D01*
X9599Y-21486D01*
X9597Y-21488D01*
X9596Y-21489D01*
X9595Y-21490D01*
X9594Y-21491D01*
X9593Y-21493D01*
X9591Y-21495D01*
X9589Y-21497D01*
X9587Y-21500D01*
X9585Y-21503D01*
X9583Y-21506D01*
X9706D01*
Y-21536D01*
X9540D01*
Y-21536D01*
Y-21535D01*
Y-21535D01*
Y-21534D01*
Y-21533D01*
X9540Y-21532D01*
X9540Y-21529D01*
X9540Y-21526D01*
X9541Y-21522D01*
X9542Y-21518D01*
X9543Y-21514D01*
Y-21514D01*
X9544Y-21514D01*
X9544Y-21513D01*
X9544Y-21512D01*
X9545Y-21510D01*
X9546Y-21508D01*
X9547Y-21506D01*
X9548Y-21504D01*
X9549Y-21501D01*
X9551Y-21499D01*
X9554Y-21493D01*
X9559Y-21487D01*
X9564Y-21481D01*
X9564Y-21481D01*
X9564Y-21480D01*
X9565Y-21479D01*
X9566Y-21478D01*
X9568Y-21476D01*
X9569Y-21475D01*
X9571Y-21472D01*
X9574Y-21470D01*
X9577Y-21467D01*
X9580Y-21464D01*
X9583Y-21461D01*
X9586Y-21458D01*
X9590Y-21454D01*
X9595Y-21451D01*
X9599Y-21447D01*
X9604Y-21443D01*
X9604Y-21443D01*
X9604Y-21443D01*
X9605Y-21442D01*
X9606Y-21441D01*
X9607Y-21441D01*
X9608Y-21440D01*
X9610Y-21437D01*
X9614Y-21435D01*
X9618Y-21431D01*
X9622Y-21427D01*
X9626Y-21423D01*
X9631Y-21419D01*
X9635Y-21415D01*
X9640Y-21411D01*
X9645Y-21406D01*
X9649Y-21402D01*
X9653Y-21397D01*
X9656Y-21393D01*
X9659Y-21389D01*
X9659Y-21389D01*
X9660Y-21388D01*
X9661Y-21387D01*
X9662Y-21386D01*
X9663Y-21384D01*
X9664Y-21382D01*
X9665Y-21380D01*
X9667Y-21377D01*
X9668Y-21375D01*
X9669Y-21372D01*
X9672Y-21365D01*
X9673Y-21362D01*
X9673Y-21359D01*
X9674Y-21356D01*
X9674Y-21352D01*
Y-21352D01*
Y-21351D01*
Y-21350D01*
X9674Y-21349D01*
X9673Y-21348D01*
X9673Y-21346D01*
X9673Y-21344D01*
X9672Y-21342D01*
X9671Y-21339D01*
X9671Y-21337D01*
X9669Y-21334D01*
X9668Y-21332D01*
X9667Y-21329D01*
X9665Y-21326D01*
X9663Y-21324D01*
X9661Y-21321D01*
X9660Y-21321D01*
X9660Y-21321D01*
X9659Y-21320D01*
X9658Y-21319D01*
X9657Y-21318D01*
X9655Y-21317D01*
X9653Y-21316D01*
X9651Y-21315D01*
X9649Y-21314D01*
X9647Y-21313D01*
X9644Y-21311D01*
X9641Y-21311D01*
X9637Y-21310D01*
X9634Y-21309D01*
X9630Y-21309D01*
X9627Y-21309D01*
X9624D01*
X9623Y-21309D01*
X9621Y-21309D01*
X9619Y-21309D01*
X9616Y-21310D01*
X9614Y-21310D01*
X9611Y-21311D01*
X9608Y-21312D01*
X9605Y-21313D01*
X9602Y-21314D01*
X9599Y-21316D01*
X9596Y-21318D01*
X9593Y-21320D01*
X9591Y-21322D01*
X9590Y-21322D01*
X9590Y-21323D01*
X9589Y-21324D01*
X9589Y-21324D01*
X9588Y-21326D01*
X9586Y-21328D01*
X9585Y-21330D01*
X9584Y-21332D01*
X9583Y-21334D01*
X9582Y-21337D01*
X9580Y-21340D01*
X9579Y-21343D01*
X9579Y-21347D01*
X9578Y-21351D01*
X9578Y-21355D01*
X9577Y-21359D01*
X9546Y-21356D01*
Y-21356D01*
Y-21355D01*
X9546Y-21355D01*
Y-21354D01*
X9546Y-21352D01*
X9546Y-21350D01*
X9547Y-21347D01*
X9548Y-21344D01*
X9549Y-21340D01*
X9550Y-21336D01*
X9551Y-21331D01*
X9553Y-21327D01*
X9555Y-21322D01*
X9557Y-21318D01*
X9560Y-21313D01*
X9563Y-21309D01*
X9566Y-21305D01*
X9570Y-21302D01*
X9570Y-21301D01*
X9571Y-21301D01*
X9572Y-21300D01*
X9574Y-21299D01*
X9576Y-21297D01*
X9578Y-21296D01*
X9582Y-21294D01*
X9585Y-21292D01*
X9589Y-21291D01*
X9593Y-21289D01*
X9598Y-21287D01*
X9603Y-21286D01*
X9608Y-21285D01*
X9614Y-21284D01*
X9620Y-21283D01*
X9627Y-21283D01*
X9629D01*
X9631Y-21283D01*
D02*
G37*
G36*
X9394Y-21280D02*
X9397D01*
X9400Y-21280D01*
X9403Y-21280D01*
X9407Y-21281D01*
X9412Y-21281D01*
X9416Y-21282D01*
X9422Y-21283D01*
X9427Y-21285D01*
X9432Y-21286D01*
X9438Y-21288D01*
X9443Y-21291D01*
X9449Y-21293D01*
X9454Y-21296D01*
X9454Y-21296D01*
X9455Y-21297D01*
X9457Y-21298D01*
X9458Y-21299D01*
X9461Y-21301D01*
X9463Y-21303D01*
X9466Y-21305D01*
X9470Y-21308D01*
X9473Y-21311D01*
X9477Y-21315D01*
X9480Y-21318D01*
X9484Y-21323D01*
X9487Y-21327D01*
X9491Y-21332D01*
X9494Y-21337D01*
X9497Y-21342D01*
X9497Y-21343D01*
X9497Y-21344D01*
X9498Y-21345D01*
X9499Y-21348D01*
X9500Y-21350D01*
X9501Y-21354D01*
X9503Y-21358D01*
X9504Y-21362D01*
X9505Y-21367D01*
X9507Y-21372D01*
X9508Y-21378D01*
X9509Y-21383D01*
X9510Y-21390D01*
X9511Y-21396D01*
X9511Y-21403D01*
X9511Y-21410D01*
Y-21410D01*
Y-21411D01*
Y-21413D01*
X9511Y-21415D01*
X9511Y-21418D01*
X9511Y-21421D01*
X9511Y-21424D01*
X9510Y-21428D01*
X9510Y-21433D01*
X9509Y-21437D01*
X9508Y-21442D01*
X9507Y-21446D01*
X9506Y-21451D01*
X9505Y-21456D01*
X9503Y-21461D01*
X9502Y-21466D01*
X9502Y-21466D01*
X9501Y-21467D01*
X9501Y-21468D01*
X9500Y-21470D01*
X9499Y-21472D01*
X9498Y-21474D01*
X9496Y-21477D01*
X9495Y-21480D01*
X9493Y-21483D01*
X9491Y-21487D01*
X9488Y-21491D01*
X9486Y-21494D01*
X9483Y-21498D01*
X9480Y-21502D01*
X9477Y-21505D01*
X9473Y-21509D01*
X9473Y-21509D01*
X9474Y-21509D01*
X9475Y-21510D01*
X9477Y-21511D01*
X9479Y-21513D01*
X9482Y-21514D01*
X9484Y-21516D01*
X9487Y-21518D01*
X9491Y-21519D01*
X9494Y-21521D01*
X9501Y-21525D01*
X9509Y-21529D01*
X9512Y-21531D01*
X9516Y-21532D01*
X9506Y-21555D01*
X9506Y-21555D01*
X9505Y-21555D01*
X9503Y-21554D01*
X9501Y-21553D01*
X9499Y-21552D01*
X9496Y-21551D01*
X9493Y-21549D01*
X9489Y-21548D01*
X9485Y-21546D01*
X9481Y-21543D01*
X9477Y-21541D01*
X9472Y-21538D01*
X9467Y-21535D01*
X9462Y-21532D01*
X9457Y-21528D01*
X9452Y-21524D01*
X9452Y-21525D01*
X9451Y-21525D01*
X9449Y-21526D01*
X9447Y-21527D01*
X9445Y-21528D01*
X9441Y-21529D01*
X9438Y-21531D01*
X9434Y-21532D01*
X9430Y-21534D01*
X9425Y-21535D01*
X9420Y-21536D01*
X9414Y-21538D01*
X9408Y-21538D01*
X9403Y-21539D01*
X9397Y-21540D01*
X9390Y-21540D01*
X9389D01*
X9387Y-21540D01*
X9384D01*
X9382Y-21539D01*
X9378Y-21539D01*
X9374Y-21538D01*
X9370Y-21538D01*
X9365Y-21537D01*
X9360Y-21536D01*
X9355Y-21535D01*
X9350Y-21533D01*
X9344Y-21531D01*
X9339Y-21529D01*
X9333Y-21526D01*
X9328Y-21524D01*
X9328Y-21523D01*
X9327Y-21523D01*
X9325Y-21522D01*
X9324Y-21520D01*
X9321Y-21519D01*
X9319Y-21517D01*
X9316Y-21514D01*
X9312Y-21512D01*
X9309Y-21508D01*
X9305Y-21505D01*
X9302Y-21501D01*
X9298Y-21497D01*
X9295Y-21492D01*
X9291Y-21488D01*
X9288Y-21483D01*
X9285Y-21477D01*
X9285Y-21477D01*
X9285Y-21476D01*
X9284Y-21474D01*
X9283Y-21472D01*
X9282Y-21469D01*
X9281Y-21466D01*
X9279Y-21462D01*
X9278Y-21457D01*
X9276Y-21453D01*
X9275Y-21448D01*
X9274Y-21442D01*
X9273Y-21436D01*
X9272Y-21430D01*
X9271Y-21423D01*
X9271Y-21417D01*
X9270Y-21410D01*
Y-21410D01*
Y-21409D01*
Y-21409D01*
Y-21408D01*
Y-21407D01*
X9271Y-21406D01*
Y-21403D01*
X9271Y-21400D01*
X9271Y-21396D01*
X9272Y-21392D01*
X9272Y-21387D01*
X9273Y-21382D01*
X9274Y-21377D01*
X9275Y-21371D01*
X9277Y-21366D01*
X9279Y-21360D01*
X9281Y-21354D01*
X9283Y-21348D01*
X9285Y-21342D01*
X9286Y-21342D01*
X9286Y-21341D01*
X9287Y-21339D01*
X9288Y-21337D01*
X9290Y-21334D01*
X9292Y-21332D01*
X9294Y-21328D01*
X9297Y-21325D01*
X9299Y-21321D01*
X9303Y-21317D01*
X9306Y-21313D01*
X9310Y-21309D01*
X9314Y-21306D01*
X9319Y-21302D01*
X9323Y-21299D01*
X9328Y-21295D01*
X9329Y-21295D01*
X9330Y-21295D01*
X9331Y-21294D01*
X9333Y-21293D01*
X9336Y-21292D01*
X9339Y-21290D01*
X9343Y-21289D01*
X9347Y-21287D01*
X9351Y-21286D01*
X9356Y-21285D01*
X9361Y-21283D01*
X9367Y-21282D01*
X9372Y-21281D01*
X9378Y-21280D01*
X9384Y-21280D01*
X9391Y-21279D01*
X9392D01*
X9394Y-21280D01*
D02*
G37*
G36*
X6415Y-21614D02*
X6384D01*
Y-21418D01*
X6384Y-21418D01*
X6384Y-21418D01*
X6383Y-21419D01*
X6382Y-21419D01*
X6381Y-21420D01*
X6380Y-21422D01*
X6378Y-21423D01*
X6377Y-21424D01*
X6374Y-21426D01*
X6372Y-21428D01*
X6370Y-21429D01*
X6367Y-21431D01*
X6364Y-21433D01*
X6361Y-21435D01*
X6355Y-21439D01*
X6355Y-21439D01*
X6354Y-21440D01*
X6353Y-21440D01*
X6352Y-21441D01*
X6350Y-21442D01*
X6349Y-21443D01*
X6346Y-21444D01*
X6344Y-21445D01*
X6339Y-21448D01*
X6334Y-21450D01*
X6328Y-21453D01*
X6322Y-21455D01*
Y-21425D01*
X6323Y-21425D01*
X6324Y-21424D01*
X6325Y-21424D01*
X6327Y-21423D01*
X6329Y-21422D01*
X6332Y-21420D01*
X6335Y-21419D01*
X6338Y-21417D01*
X6341Y-21415D01*
X6345Y-21412D01*
X6353Y-21407D01*
X6360Y-21402D01*
X6368Y-21396D01*
X6368Y-21395D01*
X6369Y-21395D01*
X6370Y-21394D01*
X6371Y-21393D01*
X6373Y-21391D01*
X6374Y-21389D01*
X6376Y-21387D01*
X6379Y-21385D01*
X6381Y-21382D01*
X6383Y-21379D01*
X6388Y-21374D01*
X6392Y-21368D01*
X6394Y-21365D01*
X6395Y-21362D01*
X6415D01*
Y-21614D01*
D02*
G37*
G36*
X6150Y-21358D02*
X6152D01*
X6155Y-21359D01*
X6159Y-21359D01*
X6163Y-21360D01*
X6167Y-21360D01*
X6172Y-21361D01*
X6177Y-21362D01*
X6182Y-21364D01*
X6187Y-21365D01*
X6193Y-21367D01*
X6198Y-21369D01*
X6204Y-21372D01*
X6209Y-21375D01*
X6209Y-21375D01*
X6210Y-21375D01*
X6212Y-21376D01*
X6214Y-21378D01*
X6216Y-21379D01*
X6219Y-21381D01*
X6222Y-21384D01*
X6225Y-21387D01*
X6228Y-21390D01*
X6232Y-21393D01*
X6235Y-21397D01*
X6239Y-21401D01*
X6242Y-21406D01*
X6246Y-21411D01*
X6249Y-21416D01*
X6252Y-21421D01*
X6252Y-21422D01*
X6253Y-21422D01*
X6253Y-21424D01*
X6254Y-21426D01*
X6255Y-21429D01*
X6257Y-21433D01*
X6258Y-21436D01*
X6259Y-21441D01*
X6261Y-21446D01*
X6262Y-21451D01*
X6263Y-21456D01*
X6264Y-21462D01*
X6265Y-21468D01*
X6266Y-21475D01*
X6266Y-21481D01*
X6267Y-21488D01*
Y-21489D01*
Y-21490D01*
Y-21491D01*
X6266Y-21494D01*
X6266Y-21496D01*
X6266Y-21499D01*
X6266Y-21503D01*
X6266Y-21507D01*
X6265Y-21511D01*
X6264Y-21516D01*
X6264Y-21520D01*
X6263Y-21525D01*
X6262Y-21530D01*
X6260Y-21535D01*
X6259Y-21540D01*
X6257Y-21544D01*
X6257Y-21545D01*
X6257Y-21545D01*
X6256Y-21547D01*
X6255Y-21549D01*
X6254Y-21551D01*
X6253Y-21553D01*
X6252Y-21556D01*
X6250Y-21559D01*
X6248Y-21562D01*
X6246Y-21566D01*
X6244Y-21569D01*
X6241Y-21573D01*
X6238Y-21577D01*
X6235Y-21580D01*
X6232Y-21584D01*
X6229Y-21587D01*
X6229Y-21588D01*
X6230Y-21588D01*
X6231Y-21589D01*
X6233Y-21590D01*
X6235Y-21591D01*
X6237Y-21593D01*
X6240Y-21594D01*
X6243Y-21596D01*
X6246Y-21598D01*
X6249Y-21600D01*
X6256Y-21604D01*
X6264Y-21608D01*
X6268Y-21609D01*
X6271Y-21611D01*
X6262Y-21634D01*
X6261Y-21634D01*
X6260Y-21633D01*
X6259Y-21633D01*
X6257Y-21632D01*
X6254Y-21631D01*
X6252Y-21630D01*
X6248Y-21628D01*
X6245Y-21626D01*
X6241Y-21624D01*
X6236Y-21622D01*
X6232Y-21620D01*
X6227Y-21617D01*
X6222Y-21614D01*
X6217Y-21610D01*
X6213Y-21607D01*
X6207Y-21603D01*
X6207Y-21603D01*
X6206Y-21604D01*
X6205Y-21605D01*
X6203Y-21606D01*
X6200Y-21607D01*
X6197Y-21608D01*
X6193Y-21610D01*
X6189Y-21611D01*
X6185Y-21612D01*
X6180Y-21614D01*
X6175Y-21615D01*
X6170Y-21616D01*
X6164Y-21617D01*
X6158Y-21618D01*
X6152Y-21618D01*
X6146Y-21619D01*
X6144D01*
X6142Y-21618D01*
X6140D01*
X6137Y-21618D01*
X6133Y-21618D01*
X6129Y-21617D01*
X6125Y-21617D01*
X6120Y-21616D01*
X6115Y-21615D01*
X6110Y-21613D01*
X6105Y-21612D01*
X6100Y-21610D01*
X6094Y-21608D01*
X6089Y-21605D01*
X6084Y-21602D01*
X6083Y-21602D01*
X6082Y-21602D01*
X6081Y-21600D01*
X6079Y-21599D01*
X6077Y-21598D01*
X6074Y-21596D01*
X6071Y-21593D01*
X6068Y-21590D01*
X6064Y-21587D01*
X6061Y-21584D01*
X6057Y-21580D01*
X6054Y-21576D01*
X6050Y-21571D01*
X6047Y-21566D01*
X6043Y-21561D01*
X6041Y-21556D01*
X6040Y-21555D01*
X6040Y-21555D01*
X6039Y-21553D01*
X6038Y-21551D01*
X6037Y-21548D01*
X6036Y-21544D01*
X6035Y-21541D01*
X6033Y-21536D01*
X6032Y-21531D01*
X6030Y-21526D01*
X6029Y-21521D01*
X6028Y-21515D01*
X6027Y-21509D01*
X6026Y-21502D01*
X6026Y-21495D01*
X6026Y-21489D01*
Y-21488D01*
Y-21488D01*
Y-21488D01*
Y-21487D01*
Y-21486D01*
X6026Y-21485D01*
Y-21482D01*
X6026Y-21479D01*
X6026Y-21475D01*
X6027Y-21471D01*
X6027Y-21466D01*
X6028Y-21461D01*
X6029Y-21456D01*
X6031Y-21450D01*
X6032Y-21444D01*
X6034Y-21438D01*
X6036Y-21432D01*
X6038Y-21427D01*
X6041Y-21421D01*
X6041Y-21420D01*
X6041Y-21420D01*
X6042Y-21418D01*
X6043Y-21416D01*
X6045Y-21413D01*
X6047Y-21410D01*
X6049Y-21407D01*
X6052Y-21404D01*
X6055Y-21400D01*
X6058Y-21396D01*
X6061Y-21392D01*
X6065Y-21388D01*
X6069Y-21384D01*
X6074Y-21381D01*
X6079Y-21377D01*
X6084Y-21374D01*
X6084Y-21374D01*
X6085Y-21373D01*
X6086Y-21373D01*
X6089Y-21372D01*
X6091Y-21371D01*
X6094Y-21369D01*
X6098Y-21368D01*
X6102Y-21366D01*
X6106Y-21365D01*
X6111Y-21363D01*
X6116Y-21362D01*
X6122Y-21361D01*
X6128Y-21360D01*
X6134Y-21359D01*
X6140Y-21358D01*
X6146Y-21358D01*
X6148D01*
X6150Y-21358D01*
D02*
G37*
G36*
X9707Y256D02*
Y256D01*
Y255D01*
Y255D01*
Y254D01*
Y252D01*
Y250D01*
X9707Y247D01*
Y242D01*
X9707Y236D01*
X9706Y230D01*
X9706Y223D01*
X9705Y216D01*
X9704Y208D01*
X9702Y193D01*
X9700Y185D01*
X9699Y178D01*
X9696Y171D01*
X9694Y164D01*
X9694Y164D01*
X9694Y163D01*
X9693Y161D01*
X9692Y159D01*
X9690Y156D01*
X9688Y152D01*
X9686Y149D01*
X9683Y145D01*
X9680Y140D01*
X9677Y136D01*
X9673Y131D01*
X9669Y127D01*
X9664Y122D01*
X9659Y117D01*
X9653Y113D01*
X9647Y109D01*
X9647Y109D01*
X9645Y108D01*
X9643Y107D01*
X9641Y106D01*
X9637Y104D01*
X9633Y102D01*
X9628Y100D01*
X9623Y98D01*
X9617Y96D01*
X9610Y95D01*
X9603Y93D01*
X9595Y91D01*
X9586Y90D01*
X9577Y89D01*
X9568Y88D01*
X9558Y88D01*
X9552D01*
X9549Y88D01*
X9544Y88D01*
X9539Y89D01*
X9533Y90D01*
X9526Y90D01*
X9519Y91D01*
X9512Y92D01*
X9505Y94D01*
X9497Y96D01*
X9490Y98D01*
X9483Y100D01*
X9476Y103D01*
X9469Y106D01*
X9469Y107D01*
X9468Y107D01*
X9466Y108D01*
X9464Y110D01*
X9461Y112D01*
X9458Y114D01*
X9454Y117D01*
X9450Y120D01*
X9446Y124D01*
X9442Y128D01*
X9438Y132D01*
X9434Y137D01*
X9430Y142D01*
X9427Y148D01*
X9423Y154D01*
X9420Y160D01*
X9420Y160D01*
X9420Y162D01*
X9419Y163D01*
X9418Y166D01*
X9417Y170D01*
X9416Y174D01*
X9415Y179D01*
X9413Y185D01*
X9412Y192D01*
X9410Y199D01*
X9409Y207D01*
X9408Y215D01*
X9407Y224D01*
X9407Y234D01*
X9406Y245D01*
X9406Y256D01*
Y478D01*
X9457D01*
Y256D01*
Y256D01*
Y254D01*
Y252D01*
X9457Y248D01*
Y244D01*
X9457Y239D01*
X9458Y234D01*
X9458Y228D01*
X9458Y222D01*
X9459Y216D01*
X9461Y204D01*
X9462Y198D01*
X9463Y193D01*
X9464Y187D01*
X9466Y183D01*
Y182D01*
X9466Y181D01*
X9467Y180D01*
X9468Y179D01*
X9469Y177D01*
X9470Y175D01*
X9473Y169D01*
X9478Y163D01*
X9480Y160D01*
X9483Y157D01*
X9486Y154D01*
X9490Y152D01*
X9494Y149D01*
X9498Y146D01*
X9498D01*
X9499Y146D01*
X9500Y145D01*
X9502Y144D01*
X9504Y143D01*
X9507Y142D01*
X9510Y141D01*
X9513Y140D01*
X9517Y139D01*
X9521Y138D01*
X9526Y137D01*
X9531Y136D01*
X9536Y135D01*
X9542Y134D01*
X9547Y134D01*
X9553Y134D01*
X9556D01*
X9558Y134D01*
X9562D01*
X9567Y134D01*
X9572Y135D01*
X9578Y136D01*
X9584Y137D01*
X9591Y138D01*
X9597Y140D01*
X9604Y142D01*
X9610Y144D01*
X9617Y147D01*
X9623Y150D01*
X9628Y154D01*
X9633Y159D01*
X9633Y159D01*
X9634Y160D01*
X9635Y162D01*
X9637Y164D01*
X9638Y167D01*
X9640Y171D01*
X9643Y175D01*
X9645Y181D01*
X9647Y187D01*
X9649Y194D01*
X9651Y202D01*
X9653Y211D01*
X9655Y221D01*
X9656Y231D01*
X9656Y243D01*
X9657Y256D01*
Y478D01*
X9707D01*
Y256D01*
D02*
G37*
G36*
X10009Y428D02*
X9856D01*
X9835Y324D01*
X9835Y325D01*
X9837Y326D01*
X9838Y327D01*
X9841Y328D01*
X9844Y330D01*
X9848Y332D01*
X9852Y334D01*
X9857Y337D01*
X9862Y339D01*
X9868Y341D01*
X9874Y343D01*
X9880Y345D01*
X9887Y346D01*
X9893Y347D01*
X9900Y348D01*
X9907Y349D01*
X9910D01*
X9912Y348D01*
X9916Y348D01*
X9920Y347D01*
X9925Y347D01*
X9931Y345D01*
X9937Y344D01*
X9943Y342D01*
X9950Y340D01*
X9957Y337D01*
X9964Y334D01*
X9972Y330D01*
X9979Y325D01*
X9986Y320D01*
X9992Y314D01*
X9993Y313D01*
X9994Y312D01*
X9996Y310D01*
X9998Y307D01*
X10000Y304D01*
X10004Y300D01*
X10007Y295D01*
X10010Y289D01*
X10013Y283D01*
X10016Y277D01*
X10019Y269D01*
X10022Y261D01*
X10024Y253D01*
X10026Y244D01*
X10027Y234D01*
X10027Y224D01*
Y224D01*
Y224D01*
Y223D01*
Y222D01*
X10027Y219D01*
X10027Y216D01*
X10026Y211D01*
X10025Y206D01*
X10025Y200D01*
X10023Y193D01*
X10022Y186D01*
X10020Y179D01*
X10017Y172D01*
X10014Y164D01*
X10011Y157D01*
X10007Y149D01*
X10002Y142D01*
X9997Y134D01*
X9996Y134D01*
X9995Y132D01*
X9993Y130D01*
X9990Y127D01*
X9986Y124D01*
X9982Y120D01*
X9976Y116D01*
X9970Y111D01*
X9963Y107D01*
X9956Y103D01*
X9948Y99D01*
X9938Y95D01*
X9929Y92D01*
X9919Y90D01*
X9907Y88D01*
X9896Y88D01*
X9894D01*
X9891Y88D01*
X9887Y88D01*
X9883Y89D01*
X9877Y90D01*
X9872Y90D01*
X9866Y91D01*
X9859Y93D01*
X9852Y95D01*
X9845Y97D01*
X9838Y100D01*
X9831Y103D01*
X9823Y107D01*
X9817Y112D01*
X9810Y117D01*
X9810Y117D01*
X9809Y118D01*
X9807Y120D01*
X9805Y122D01*
X9803Y125D01*
X9800Y129D01*
X9797Y133D01*
X9793Y138D01*
X9790Y143D01*
X9787Y149D01*
X9784Y155D01*
X9781Y162D01*
X9778Y170D01*
X9776Y178D01*
X9774Y186D01*
X9773Y195D01*
X9822Y199D01*
Y199D01*
X9822Y197D01*
X9823Y196D01*
X9823Y193D01*
X9824Y190D01*
X9825Y186D01*
X9826Y183D01*
X9827Y178D01*
X9831Y170D01*
X9833Y165D01*
X9835Y161D01*
X9838Y156D01*
X9840Y152D01*
X9844Y148D01*
X9847Y145D01*
X9848Y144D01*
X9848Y144D01*
X9849Y143D01*
X9851Y142D01*
X9853Y140D01*
X9855Y139D01*
X9858Y137D01*
X9861Y136D01*
X9864Y134D01*
X9868Y132D01*
X9872Y131D01*
X9876Y129D01*
X9881Y128D01*
X9886Y127D01*
X9891Y127D01*
X9896Y127D01*
X9897D01*
X9899Y127D01*
X9902D01*
X9904Y127D01*
X9908Y128D01*
X9912Y129D01*
X9916Y130D01*
X9920Y131D01*
X9925Y133D01*
X9930Y135D01*
X9935Y137D01*
X9940Y140D01*
X9945Y144D01*
X9949Y148D01*
X9954Y152D01*
X9954Y152D01*
X9955Y153D01*
X9956Y155D01*
X9957Y157D01*
X9959Y159D01*
X9961Y162D01*
X9963Y166D01*
X9966Y170D01*
X9968Y175D01*
X9970Y180D01*
X9972Y185D01*
X9974Y191D01*
X9975Y198D01*
X9976Y205D01*
X9977Y212D01*
X9977Y220D01*
Y221D01*
Y222D01*
X9977Y224D01*
Y227D01*
X9977Y230D01*
X9976Y234D01*
X9975Y238D01*
X9974Y243D01*
X9973Y248D01*
X9972Y253D01*
X9970Y258D01*
X9968Y264D01*
X9965Y269D01*
X9962Y274D01*
X9958Y279D01*
X9955Y284D01*
X9954Y284D01*
X9953Y285D01*
X9952Y286D01*
X9950Y287D01*
X9948Y289D01*
X9945Y291D01*
X9942Y293D01*
X9939Y295D01*
X9935Y298D01*
X9930Y299D01*
X9925Y302D01*
X9920Y303D01*
X9914Y305D01*
X9908Y306D01*
X9902Y307D01*
X9895Y307D01*
X9893D01*
X9891Y307D01*
X9889D01*
X9887Y306D01*
X9884Y306D01*
X9881Y306D01*
X9875Y304D01*
X9868Y303D01*
X9861Y300D01*
X9854Y296D01*
X9854D01*
X9853Y296D01*
X9852Y295D01*
X9851Y295D01*
X9848Y292D01*
X9843Y289D01*
X9839Y285D01*
X9834Y281D01*
X9830Y276D01*
X9825Y270D01*
X9781Y276D01*
X9818Y473D01*
X10009D01*
Y428D01*
D02*
G37*
G36*
X10419Y-964D02*
X10419Y-964D01*
X10418Y-965D01*
X10416Y-968D01*
X10413Y-971D01*
X10410Y-975D01*
X10406Y-980D01*
X10401Y-985D01*
X10397Y-991D01*
X10391Y-998D01*
X10385Y-1006D01*
X10379Y-1015D01*
X10373Y-1024D01*
X10367Y-1034D01*
X10360Y-1044D01*
X10353Y-1055D01*
X10347Y-1067D01*
Y-1068D01*
X10346Y-1068D01*
X10346Y-1069D01*
X10345Y-1070D01*
X10344Y-1072D01*
X10343Y-1074D01*
X10342Y-1076D01*
X10341Y-1078D01*
X10339Y-1081D01*
X10338Y-1085D01*
X10334Y-1091D01*
X10330Y-1099D01*
X10326Y-1108D01*
X10322Y-1118D01*
X10317Y-1128D01*
X10313Y-1139D01*
X10308Y-1151D01*
X10303Y-1163D01*
X10299Y-1175D01*
X10295Y-1188D01*
X10291Y-1200D01*
X10291Y-1201D01*
X10291Y-1203D01*
X10290Y-1205D01*
X10289Y-1209D01*
X10288Y-1213D01*
X10287Y-1219D01*
X10285Y-1225D01*
X10284Y-1232D01*
X10282Y-1239D01*
X10281Y-1247D01*
X10279Y-1256D01*
X10278Y-1265D01*
X10276Y-1275D01*
X10275Y-1285D01*
X10274Y-1295D01*
X10273Y-1306D01*
X10225D01*
Y-1305D01*
Y-1304D01*
X10225Y-1301D01*
Y-1298D01*
X10225Y-1293D01*
X10226Y-1288D01*
X10226Y-1282D01*
X10227Y-1275D01*
X10228Y-1267D01*
X10229Y-1259D01*
X10231Y-1250D01*
X10232Y-1241D01*
X10235Y-1230D01*
X10237Y-1219D01*
X10239Y-1208D01*
X10242Y-1196D01*
Y-1196D01*
X10243Y-1196D01*
X10243Y-1195D01*
X10243Y-1194D01*
X10244Y-1192D01*
X10244Y-1190D01*
X10245Y-1188D01*
X10246Y-1185D01*
X10247Y-1180D01*
X10249Y-1173D01*
X10252Y-1165D01*
X10255Y-1157D01*
X10258Y-1148D01*
X10262Y-1138D01*
X10266Y-1128D01*
X10270Y-1117D01*
X10275Y-1106D01*
X10280Y-1095D01*
X10285Y-1084D01*
X10291Y-1073D01*
Y-1073D01*
X10291Y-1072D01*
X10292Y-1072D01*
X10292Y-1070D01*
X10293Y-1069D01*
X10294Y-1067D01*
X10297Y-1063D01*
X10300Y-1058D01*
X10303Y-1052D01*
X10307Y-1045D01*
X10312Y-1038D01*
X10316Y-1030D01*
X10321Y-1022D01*
X10327Y-1014D01*
X10333Y-1005D01*
X10346Y-988D01*
X10352Y-980D01*
X10359Y-972D01*
X10171D01*
Y-927D01*
X10419D01*
Y-964D01*
D02*
G37*
G36*
X9979Y-923D02*
X9984D01*
X9989Y-923D01*
X9994Y-923D01*
X10000Y-924D01*
X10006Y-924D01*
X10013Y-925D01*
X10026Y-927D01*
X10032Y-928D01*
X10038Y-929D01*
X10044Y-931D01*
X10049Y-933D01*
X10049D01*
X10050Y-933D01*
X10051Y-934D01*
X10053Y-935D01*
X10056Y-936D01*
X10058Y-937D01*
X10061Y-939D01*
X10064Y-941D01*
X10067Y-944D01*
X10071Y-946D01*
X10075Y-949D01*
X10078Y-952D01*
X10082Y-956D01*
X10085Y-960D01*
X10089Y-965D01*
X10092Y-969D01*
X10092Y-970D01*
X10092Y-970D01*
X10093Y-972D01*
X10094Y-974D01*
X10095Y-976D01*
X10097Y-979D01*
X10098Y-983D01*
X10100Y-986D01*
X10101Y-990D01*
X10103Y-995D01*
X10104Y-1000D01*
X10105Y-1005D01*
X10106Y-1010D01*
X10107Y-1015D01*
X10107Y-1021D01*
X10108Y-1027D01*
Y-1028D01*
Y-1029D01*
X10107Y-1031D01*
Y-1034D01*
X10107Y-1037D01*
X10106Y-1041D01*
X10105Y-1046D01*
X10104Y-1051D01*
X10103Y-1056D01*
X10101Y-1062D01*
X10099Y-1067D01*
X10097Y-1073D01*
X10094Y-1079D01*
X10090Y-1085D01*
X10086Y-1090D01*
X10081Y-1096D01*
X10081Y-1096D01*
X10080Y-1097D01*
X10078Y-1098D01*
X10076Y-1100D01*
X10073Y-1102D01*
X10070Y-1105D01*
X10066Y-1108D01*
X10061Y-1111D01*
X10056Y-1114D01*
X10050Y-1117D01*
X10043Y-1119D01*
X10036Y-1123D01*
X10028Y-1125D01*
X10019Y-1127D01*
X10010Y-1129D01*
X10000Y-1131D01*
X10000D01*
X10000Y-1132D01*
X10002Y-1132D01*
X10003Y-1133D01*
X10005Y-1134D01*
X10007Y-1135D01*
X10011Y-1137D01*
X10016Y-1140D01*
X10021Y-1143D01*
X10026Y-1147D01*
X10030Y-1150D01*
X10030Y-1150D01*
X10031Y-1151D01*
X10032Y-1152D01*
X10034Y-1154D01*
X10036Y-1156D01*
X10038Y-1158D01*
X10041Y-1161D01*
X10044Y-1164D01*
X10047Y-1168D01*
X10050Y-1172D01*
X10054Y-1176D01*
X10057Y-1180D01*
X10061Y-1185D01*
X10065Y-1190D01*
X10072Y-1201D01*
X10138Y-1306D01*
X10075D01*
X10024Y-1226D01*
X10024Y-1226D01*
X10023Y-1224D01*
X10022Y-1223D01*
X10021Y-1220D01*
X10019Y-1217D01*
X10016Y-1214D01*
X10014Y-1210D01*
X10012Y-1206D01*
X10006Y-1198D01*
X10000Y-1189D01*
X9994Y-1181D01*
X9990Y-1177D01*
X9988Y-1173D01*
X9987Y-1173D01*
X9987Y-1172D01*
X9986Y-1172D01*
X9985Y-1170D01*
X9982Y-1167D01*
X9979Y-1163D01*
X9975Y-1159D01*
X9971Y-1154D01*
X9966Y-1150D01*
X9962Y-1147D01*
X9961Y-1147D01*
X9960Y-1146D01*
X9958Y-1145D01*
X9955Y-1144D01*
X9951Y-1142D01*
X9948Y-1140D01*
X9943Y-1139D01*
X9939Y-1137D01*
X9939D01*
X9937Y-1137D01*
X9935Y-1137D01*
X9932Y-1136D01*
X9928Y-1136D01*
X9923Y-1136D01*
X9918Y-1135D01*
X9852D01*
Y-1306D01*
X9801D01*
Y-922D01*
X9976D01*
X9979Y-923D01*
D02*
G37*
G36*
X8646Y347D02*
X8650Y346D01*
X8656Y346D01*
X8662Y345D01*
X8668Y343D01*
X8682Y340D01*
X8690Y337D01*
X8697Y334D01*
X8705Y331D01*
X8712Y327D01*
X8720Y322D01*
X8727Y317D01*
X8728Y316D01*
X8729Y315D01*
X8732Y313D01*
X8734Y310D01*
X8738Y306D01*
X8742Y302D01*
X8746Y296D01*
X8750Y290D01*
X8755Y283D01*
X8759Y276D01*
X8763Y268D01*
X8766Y259D01*
X8769Y249D01*
X8772Y238D01*
X8773Y227D01*
X8774Y216D01*
Y211D01*
X8773Y207D01*
X8773Y203D01*
X8772Y197D01*
X8771Y192D01*
X8770Y185D01*
X8767Y172D01*
X8764Y165D01*
X8761Y158D01*
X8758Y150D01*
X8754Y143D01*
X8750Y137D01*
X8745Y130D01*
X8744Y130D01*
X8743Y129D01*
X8742Y127D01*
X8739Y125D01*
X8736Y122D01*
X8733Y120D01*
X8729Y116D01*
X8724Y113D01*
X8719Y110D01*
X8713Y107D01*
X8706Y103D01*
X8699Y101D01*
X8692Y98D01*
X8684Y96D01*
X8676Y94D01*
X8667Y93D01*
X8663Y142D01*
X8664D01*
X8665Y143D01*
X8667D01*
X8669Y143D01*
X8672Y144D01*
X8676Y145D01*
X8683Y147D01*
X8692Y151D01*
X8701Y155D01*
X8710Y161D01*
X8717Y167D01*
X8718Y168D01*
X8720Y171D01*
X8723Y175D01*
X8726Y181D01*
X8729Y188D01*
X8732Y196D01*
X8734Y205D01*
X8735Y216D01*
Y219D01*
X8734Y222D01*
X8734Y224D01*
X8733Y228D01*
X8732Y236D01*
X8729Y245D01*
X8724Y255D01*
X8721Y260D01*
X8718Y265D01*
X8714Y269D01*
X8709Y274D01*
X8709Y274D01*
X8708Y275D01*
X8707Y276D01*
X8705Y277D01*
X8702Y279D01*
X8699Y281D01*
X8695Y283D01*
X8691Y286D01*
X8681Y290D01*
X8670Y294D01*
X8656Y296D01*
X8649Y297D01*
X8641D01*
X8641D01*
X8639D01*
X8637D01*
X8635Y297D01*
X8631D01*
X8627Y296D01*
X8618Y294D01*
X8608Y292D01*
X8597Y288D01*
X8587Y282D01*
X8582Y279D01*
X8577Y275D01*
X8577D01*
X8576Y274D01*
X8575Y272D01*
X8574Y271D01*
X8570Y266D01*
X8565Y259D01*
X8561Y250D01*
X8557Y240D01*
X8555Y228D01*
X8554Y222D01*
Y211D01*
X8554Y207D01*
X8555Y201D01*
X8556Y195D01*
X8558Y188D01*
X8561Y181D01*
X8565Y174D01*
X8565Y173D01*
X8567Y171D01*
X8569Y168D01*
X8572Y164D01*
X8576Y159D01*
X8581Y154D01*
X8586Y150D01*
X8592Y146D01*
X8585Y101D01*
X8388Y138D01*
Y329D01*
X8433D01*
Y176D01*
X8537Y155D01*
X8536Y156D01*
X8536Y157D01*
X8534Y159D01*
X8533Y161D01*
X8531Y164D01*
X8529Y168D01*
X8527Y172D01*
X8524Y177D01*
X8520Y188D01*
X8516Y200D01*
X8513Y214D01*
X8513Y221D01*
X8512Y228D01*
Y233D01*
X8513Y236D01*
X8513Y240D01*
X8514Y245D01*
X8515Y251D01*
X8517Y257D01*
X8518Y264D01*
X8521Y270D01*
X8524Y277D01*
X8527Y285D01*
X8531Y292D01*
X8536Y299D01*
X8541Y306D01*
X8547Y312D01*
X8548Y313D01*
X8549Y314D01*
X8551Y315D01*
X8554Y318D01*
X8557Y320D01*
X8561Y323D01*
X8566Y327D01*
X8572Y330D01*
X8578Y333D01*
X8585Y336D01*
X8592Y339D01*
X8600Y342D01*
X8609Y344D01*
X8618Y346D01*
X8627Y347D01*
X8637Y347D01*
X8638D01*
X8640D01*
X8642D01*
X8646Y347D01*
D02*
G37*
G36*
X8648Y48D02*
X8652Y47D01*
X8656Y46D01*
X8661Y44D01*
X8667Y42D01*
X8674Y39D01*
X8681Y36D01*
X8689Y32D01*
X8697Y28D01*
X8704Y23D01*
X8712Y18D01*
X8720Y12D01*
X8728Y6D01*
X8735Y-1D01*
X8741Y-9D01*
X8742Y-9D01*
X8743Y-11D01*
X8744Y-13D01*
X8746Y-16D01*
X8749Y-20D01*
X8752Y-25D01*
X8754Y-31D01*
X8757Y-37D01*
X8761Y-44D01*
X8763Y-52D01*
X8766Y-60D01*
X8769Y-69D01*
X8771Y-79D01*
X8772Y-89D01*
X8773Y-99D01*
X8774Y-110D01*
Y-116D01*
X8773Y-121D01*
X8773Y-126D01*
X8772Y-132D01*
X8772Y-139D01*
X8771Y-146D01*
X8768Y-162D01*
X8763Y-179D01*
X8760Y-188D01*
X8757Y-196D01*
X8753Y-204D01*
X8749Y-212D01*
X8748Y-212D01*
X8748Y-213D01*
X8746Y-215D01*
X8744Y-218D01*
X8741Y-221D01*
X8738Y-225D01*
X8734Y-229D01*
X8730Y-234D01*
X8725Y-239D01*
X8720Y-243D01*
X8714Y-248D01*
X8707Y-253D01*
X8700Y-258D01*
X8692Y-263D01*
X8684Y-267D01*
X8675Y-271D01*
X8675D01*
X8673Y-272D01*
X8670Y-273D01*
X8667Y-274D01*
X8662Y-276D01*
X8657Y-278D01*
X8651Y-279D01*
X8644Y-281D01*
X8637Y-283D01*
X8629Y-285D01*
X8620Y-287D01*
X8612Y-288D01*
X8592Y-290D01*
X8572Y-291D01*
X8572D01*
X8570D01*
X8566D01*
X8562Y-291D01*
X8557D01*
X8551Y-290D01*
X8544Y-289D01*
X8537Y-288D01*
X8529Y-287D01*
X8520Y-286D01*
X8503Y-282D01*
X8485Y-276D01*
X8476Y-273D01*
X8468Y-269D01*
X8467Y-268D01*
X8466Y-268D01*
X8463Y-266D01*
X8460Y-264D01*
X8457Y-262D01*
X8452Y-259D01*
X8448Y-256D01*
X8442Y-252D01*
X8431Y-243D01*
X8420Y-231D01*
X8409Y-218D01*
X8404Y-211D01*
X8400Y-203D01*
X8399Y-203D01*
X8399Y-201D01*
X8398Y-199D01*
X8396Y-196D01*
X8394Y-192D01*
X8392Y-187D01*
X8390Y-182D01*
X8388Y-176D01*
X8386Y-169D01*
X8384Y-162D01*
X8380Y-146D01*
X8377Y-128D01*
X8376Y-119D01*
Y-104D01*
X8377Y-100D01*
X8377Y-95D01*
X8378Y-89D01*
X8379Y-83D01*
X8380Y-76D01*
X8383Y-61D01*
X8386Y-53D01*
X8389Y-44D01*
X8392Y-36D01*
X8396Y-28D01*
X8401Y-20D01*
X8406Y-13D01*
X8406Y-12D01*
X8407Y-11D01*
X8409Y-9D01*
X8411Y-6D01*
X8414Y-3D01*
X8418Y1D01*
X8422Y5D01*
X8427Y9D01*
X8433Y14D01*
X8439Y18D01*
X8446Y23D01*
X8453Y27D01*
X8461Y32D01*
X8469Y36D01*
X8479Y40D01*
X8488Y43D01*
X8500Y-7D01*
X8500D01*
X8498Y-8D01*
X8496Y-9D01*
X8493Y-10D01*
X8490Y-11D01*
X8486Y-13D01*
X8477Y-17D01*
X8467Y-23D01*
X8457Y-29D01*
X8447Y-37D01*
X8443Y-42D01*
X8439Y-46D01*
Y-47D01*
X8438Y-47D01*
X8437Y-49D01*
X8436Y-51D01*
X8435Y-53D01*
X8433Y-56D01*
X8429Y-64D01*
X8426Y-73D01*
X8423Y-84D01*
X8421Y-97D01*
X8420Y-111D01*
Y-115D01*
X8420Y-118D01*
Y-122D01*
X8421Y-126D01*
X8422Y-131D01*
X8422Y-137D01*
X8425Y-148D01*
X8429Y-161D01*
X8434Y-173D01*
X8437Y-179D01*
X8441Y-185D01*
Y-186D01*
X8442Y-187D01*
X8443Y-188D01*
X8445Y-190D01*
X8450Y-195D01*
X8456Y-201D01*
X8464Y-208D01*
X8474Y-215D01*
X8485Y-222D01*
X8498Y-227D01*
X8499D01*
X8500Y-227D01*
X8502Y-228D01*
X8504Y-229D01*
X8508Y-230D01*
X8512Y-231D01*
X8516Y-232D01*
X8521Y-233D01*
X8532Y-235D01*
X8545Y-237D01*
X8558Y-238D01*
X8572Y-239D01*
X8573D01*
X8574D01*
X8577D01*
X8580D01*
X8585Y-238D01*
X8590Y-238D01*
X8595D01*
X8601Y-237D01*
X8615Y-235D01*
X8629Y-233D01*
X8644Y-229D01*
X8658Y-225D01*
X8658D01*
X8659Y-224D01*
X8661Y-223D01*
X8664Y-222D01*
X8667Y-220D01*
X8670Y-219D01*
X8678Y-214D01*
X8687Y-207D01*
X8696Y-200D01*
X8705Y-191D01*
X8712Y-180D01*
Y-180D01*
X8713Y-179D01*
X8714Y-177D01*
X8715Y-175D01*
X8716Y-172D01*
X8718Y-169D01*
X8721Y-161D01*
X8725Y-151D01*
X8727Y-140D01*
X8729Y-128D01*
X8730Y-115D01*
Y-111D01*
X8730Y-108D01*
X8729Y-104D01*
X8729Y-100D01*
X8728Y-95D01*
X8727Y-90D01*
X8724Y-78D01*
X8720Y-66D01*
X8717Y-60D01*
X8714Y-54D01*
X8710Y-48D01*
X8706Y-42D01*
X8705Y-42D01*
X8705Y-41D01*
X8703Y-39D01*
X8701Y-37D01*
X8699Y-35D01*
X8695Y-32D01*
X8692Y-29D01*
X8687Y-26D01*
X8683Y-23D01*
X8677Y-19D01*
X8671Y-16D01*
X8665Y-13D01*
X8657Y-10D01*
X8650Y-7D01*
X8642Y-4D01*
X8633Y-2D01*
X8646Y49D01*
X8646D01*
X8648Y48D01*
D02*
G37*
G36*
X19903Y-192D02*
X19852D01*
Y-11D01*
X19653D01*
Y-192D01*
X19602D01*
Y192D01*
X19653D01*
Y34D01*
X19852D01*
Y192D01*
X19903D01*
Y-192D01*
D02*
G37*
G36*
X19518D02*
X19469D01*
Y130D01*
X19357Y-192D01*
X19311D01*
X19200Y135D01*
Y-192D01*
X19151D01*
Y192D01*
X19227D01*
X19318Y-80D01*
Y-81D01*
X19319Y-82D01*
X19319Y-84D01*
X19320Y-86D01*
X19321Y-90D01*
X19323Y-93D01*
X19325Y-102D01*
X19328Y-111D01*
X19331Y-120D01*
X19334Y-129D01*
X19337Y-137D01*
X19337Y-136D01*
X19338Y-133D01*
X19340Y-128D01*
X19342Y-122D01*
X19345Y-113D01*
X19348Y-102D01*
X19352Y-90D01*
X19357Y-75D01*
X19450Y192D01*
X19518D01*
Y-192D01*
D02*
G37*
G36*
X20167Y-57D02*
X20219D01*
Y-100D01*
X20167D01*
Y-192D01*
X20120D01*
Y-100D01*
X19953D01*
Y-57D01*
X20129Y192D01*
X20167D01*
Y-57D01*
D02*
G37*
G36*
X217Y-190D02*
X166D01*
Y-9D01*
X-33D01*
Y-190D01*
X-84D01*
Y195D01*
X-33D01*
Y37D01*
X166D01*
Y195D01*
X217D01*
Y-190D01*
D02*
G37*
G36*
X411Y196D02*
X415D01*
X422Y195D01*
X431Y193D01*
X441Y191D01*
X451Y187D01*
X461Y183D01*
X461D01*
X462Y182D01*
X463Y181D01*
X465Y180D01*
X470Y177D01*
X476Y173D01*
X482Y168D01*
X489Y161D01*
X496Y154D01*
X501Y146D01*
Y145D01*
X502Y145D01*
X504Y142D01*
X506Y137D01*
X509Y131D01*
X511Y123D01*
X514Y115D01*
X515Y106D01*
X516Y96D01*
Y96D01*
Y95D01*
Y92D01*
X515Y87D01*
X514Y81D01*
X512Y74D01*
X510Y67D01*
X507Y59D01*
X502Y51D01*
X502Y50D01*
X500Y47D01*
X497Y44D01*
X492Y39D01*
X487Y34D01*
X480Y28D01*
X472Y23D01*
X463Y18D01*
X463D01*
X464Y18D01*
X466Y17D01*
X468Y17D01*
X471Y16D01*
X475Y14D01*
X482Y11D01*
X491Y7D01*
X499Y1D01*
X508Y-6D01*
X516Y-15D01*
Y-15D01*
X517Y-16D01*
X518Y-17D01*
X519Y-19D01*
X520Y-22D01*
X522Y-24D01*
X525Y-32D01*
X529Y-41D01*
X532Y-51D01*
X534Y-63D01*
X535Y-76D01*
Y-77D01*
Y-78D01*
Y-81D01*
X534Y-85D01*
X534Y-89D01*
X533Y-94D01*
X532Y-100D01*
X530Y-106D01*
X528Y-112D01*
X526Y-119D01*
X523Y-126D01*
X519Y-134D01*
X515Y-141D01*
X510Y-148D01*
X504Y-155D01*
X498Y-162D01*
X497Y-162D01*
X496Y-163D01*
X494Y-165D01*
X491Y-167D01*
X488Y-170D01*
X483Y-173D01*
X478Y-176D01*
X473Y-179D01*
X466Y-182D01*
X459Y-185D01*
X452Y-188D01*
X443Y-191D01*
X435Y-193D01*
X425Y-195D01*
X416Y-196D01*
X405Y-196D01*
X400D01*
X397Y-196D01*
X393Y-195D01*
X388Y-195D01*
X382Y-194D01*
X376Y-192D01*
X363Y-189D01*
X356Y-186D01*
X349Y-184D01*
X341Y-180D01*
X334Y-176D01*
X328Y-172D01*
X321Y-166D01*
X321Y-166D01*
X320Y-165D01*
X318Y-163D01*
X316Y-161D01*
X313Y-158D01*
X310Y-154D01*
X307Y-150D01*
X304Y-145D01*
X301Y-140D01*
X297Y-134D01*
X294Y-127D01*
X291Y-120D01*
X288Y-113D01*
X286Y-105D01*
X284Y-97D01*
X283Y-88D01*
X330Y-81D01*
Y-82D01*
X331Y-83D01*
X331Y-85D01*
X332Y-88D01*
X333Y-91D01*
X334Y-95D01*
X337Y-104D01*
X340Y-113D01*
X345Y-123D01*
X351Y-132D01*
X354Y-136D01*
X357Y-140D01*
X358Y-140D01*
X361Y-142D01*
X365Y-145D01*
X371Y-148D01*
X378Y-152D01*
X386Y-154D01*
X395Y-156D01*
X405Y-157D01*
X409D01*
X411Y-157D01*
X414D01*
X417Y-156D01*
X425Y-154D01*
X434Y-152D01*
X443Y-148D01*
X453Y-142D01*
X457Y-138D01*
X462Y-134D01*
X462Y-134D01*
X463Y-133D01*
X464Y-132D01*
X465Y-130D01*
X469Y-125D01*
X473Y-118D01*
X477Y-110D01*
X481Y-100D01*
X484Y-89D01*
X485Y-83D01*
Y-77D01*
Y-77D01*
Y-76D01*
Y-74D01*
X484Y-72D01*
Y-69D01*
X484Y-66D01*
X482Y-58D01*
X480Y-50D01*
X476Y-41D01*
X470Y-32D01*
X467Y-28D01*
X463Y-24D01*
X462Y-23D01*
X459Y-20D01*
X455Y-17D01*
X449Y-13D01*
X441Y-9D01*
X432Y-6D01*
X421Y-4D01*
X409Y-3D01*
X404D01*
X400Y-3D01*
X395Y-4D01*
X389Y-5D01*
X383Y-6D01*
X376Y-8D01*
X381Y34D01*
X382D01*
X384Y33D01*
X386Y33D01*
X392D01*
X394Y33D01*
X400Y34D01*
X407Y35D01*
X415Y37D01*
X424Y39D01*
X434Y43D01*
X443Y48D01*
X443D01*
X444Y49D01*
X447Y51D01*
X451Y55D01*
X455Y60D01*
X460Y67D01*
X463Y76D01*
X466Y86D01*
X467Y91D01*
X467Y97D01*
Y98D01*
Y98D01*
X467Y102D01*
X466Y106D01*
X465Y112D01*
X463Y119D01*
X460Y126D01*
X455Y133D01*
X449Y140D01*
X448Y141D01*
X446Y143D01*
X442Y145D01*
X437Y149D01*
X431Y152D01*
X423Y155D01*
X414Y157D01*
X404Y157D01*
X402D01*
X400Y157D01*
X394Y156D01*
X388Y155D01*
X381Y153D01*
X373Y150D01*
X365Y146D01*
X358Y140D01*
X357Y139D01*
X355Y137D01*
X352Y133D01*
X348Y127D01*
X344Y120D01*
X340Y111D01*
X337Y100D01*
X335Y88D01*
X288Y97D01*
Y97D01*
X288Y99D01*
X289Y101D01*
X290Y105D01*
X291Y108D01*
X292Y113D01*
X294Y118D01*
X296Y124D01*
X301Y135D01*
X308Y147D01*
X316Y159D01*
X321Y165D01*
X327Y170D01*
X327Y170D01*
X328Y171D01*
X330Y172D01*
X332Y174D01*
X335Y176D01*
X339Y178D01*
X343Y181D01*
X348Y183D01*
X353Y185D01*
X359Y188D01*
X372Y192D01*
X387Y195D01*
X395Y196D01*
X403Y196D01*
X409D01*
X411Y196D01*
D02*
G37*
G36*
X-168Y-190D02*
X-217D01*
Y132D01*
X-329Y-190D01*
X-375D01*
X-486Y138D01*
Y-190D01*
X-535D01*
Y195D01*
X-459D01*
X-368Y-78D01*
Y-78D01*
X-367Y-79D01*
X-367Y-81D01*
X-366Y-84D01*
X-365Y-87D01*
X-363Y-91D01*
X-361Y-99D01*
X-358Y-108D01*
X-355Y-118D01*
X-352Y-127D01*
X-349Y-135D01*
X-349Y-134D01*
X-348Y-131D01*
X-346Y-126D01*
X-344Y-119D01*
X-341Y-110D01*
X-338Y-100D01*
X-334Y-87D01*
X-329Y-73D01*
X-236Y195D01*
X-168D01*
Y-190D01*
D02*
G37*
G36*
X19944Y-25744D02*
X19893D01*
Y-25563D01*
X19694D01*
Y-25744D01*
X19643D01*
Y-25360D01*
X19694D01*
Y-25518D01*
X19893D01*
Y-25360D01*
X19944D01*
Y-25744D01*
D02*
G37*
G36*
X19559D02*
X19510D01*
Y-25422D01*
X19397Y-25744D01*
X19352D01*
X19241Y-25417D01*
Y-25744D01*
X19192D01*
Y-25360D01*
X19268D01*
X19359Y-25632D01*
Y-25633D01*
X19359Y-25634D01*
X19360Y-25636D01*
X19361Y-25638D01*
X19362Y-25642D01*
X19363Y-25645D01*
X19366Y-25654D01*
X19369Y-25663D01*
X19372Y-25672D01*
X19375Y-25681D01*
X19377Y-25689D01*
X19378Y-25688D01*
X19379Y-25685D01*
X19380Y-25680D01*
X19382Y-25674D01*
X19385Y-25665D01*
X19389Y-25654D01*
X19393Y-25642D01*
X19398Y-25627D01*
X19490Y-25360D01*
X19559D01*
Y-25744D01*
D02*
G37*
G36*
X20145Y-25359D02*
X20150Y-25359D01*
X20156Y-25360D01*
X20162Y-25361D01*
X20168Y-25362D01*
X20182Y-25366D01*
X20189Y-25368D01*
X20197Y-25371D01*
X20204Y-25375D01*
X20211Y-25379D01*
X20218Y-25384D01*
X20224Y-25389D01*
X20225Y-25390D01*
X20226Y-25391D01*
X20227Y-25392D01*
X20229Y-25395D01*
X20232Y-25398D01*
X20235Y-25401D01*
X20237Y-25405D01*
X20241Y-25410D01*
X20244Y-25415D01*
X20246Y-25421D01*
X20252Y-25434D01*
X20254Y-25441D01*
X20255Y-25449D01*
X20256Y-25457D01*
X20257Y-25465D01*
Y-25466D01*
Y-25469D01*
X20256Y-25474D01*
X20256Y-25480D01*
X20254Y-25486D01*
X20253Y-25494D01*
X20250Y-25502D01*
X20247Y-25511D01*
X20247Y-25512D01*
X20245Y-25515D01*
X20243Y-25519D01*
X20240Y-25525D01*
X20235Y-25532D01*
X20230Y-25540D01*
X20223Y-25549D01*
X20216Y-25558D01*
Y-25558D01*
X20215Y-25559D01*
X20213Y-25560D01*
X20212Y-25562D01*
X20209Y-25565D01*
X20206Y-25568D01*
X20203Y-25571D01*
X20198Y-25575D01*
X20194Y-25580D01*
X20188Y-25585D01*
X20182Y-25591D01*
X20176Y-25597D01*
X20168Y-25603D01*
X20161Y-25610D01*
X20152Y-25617D01*
X20143Y-25625D01*
X20142Y-25626D01*
X20141Y-25627D01*
X20139Y-25629D01*
X20136Y-25631D01*
X20133Y-25634D01*
X20129Y-25637D01*
X20120Y-25645D01*
X20111Y-25653D01*
X20102Y-25661D01*
X20098Y-25664D01*
X20094Y-25668D01*
X20091Y-25671D01*
X20088Y-25674D01*
X20088Y-25674D01*
X20086Y-25676D01*
X20084Y-25678D01*
X20081Y-25682D01*
X20078Y-25685D01*
X20075Y-25690D01*
X20068Y-25699D01*
X20257D01*
Y-25744D01*
X20003D01*
Y-25743D01*
Y-25741D01*
Y-25738D01*
X20003Y-25734D01*
X20004Y-25729D01*
X20005Y-25723D01*
X20006Y-25718D01*
X20008Y-25712D01*
Y-25711D01*
X20009Y-25711D01*
X20009Y-25709D01*
X20010Y-25707D01*
X20012Y-25702D01*
X20016Y-25696D01*
X20020Y-25688D01*
X20025Y-25679D01*
X20032Y-25670D01*
X20039Y-25661D01*
X20040Y-25660D01*
X20040Y-25660D01*
X20042Y-25658D01*
X20043Y-25656D01*
X20048Y-25651D01*
X20055Y-25644D01*
X20064Y-25635D01*
X20074Y-25625D01*
X20087Y-25614D01*
X20101Y-25602D01*
X20102Y-25602D01*
X20104Y-25600D01*
X20107Y-25597D01*
X20111Y-25594D01*
X20116Y-25589D01*
X20122Y-25584D01*
X20129Y-25579D01*
X20135Y-25573D01*
X20149Y-25560D01*
X20163Y-25546D01*
X20170Y-25539D01*
X20176Y-25533D01*
X20181Y-25527D01*
X20186Y-25521D01*
X20186Y-25520D01*
X20187Y-25519D01*
X20188Y-25518D01*
X20189Y-25516D01*
X20191Y-25513D01*
X20193Y-25510D01*
X20197Y-25502D01*
X20201Y-25494D01*
X20205Y-25484D01*
X20207Y-25474D01*
X20208Y-25469D01*
Y-25464D01*
Y-25463D01*
Y-25462D01*
Y-25461D01*
X20208Y-25459D01*
X20207Y-25454D01*
X20206Y-25447D01*
X20203Y-25440D01*
X20200Y-25432D01*
X20195Y-25424D01*
X20188Y-25417D01*
X20187Y-25416D01*
X20184Y-25414D01*
X20180Y-25411D01*
X20174Y-25407D01*
X20166Y-25403D01*
X20157Y-25400D01*
X20147Y-25398D01*
X20135Y-25397D01*
X20132D01*
X20130Y-25398D01*
X20127D01*
X20123Y-25398D01*
X20116Y-25400D01*
X20107Y-25402D01*
X20098Y-25406D01*
X20089Y-25411D01*
X20081Y-25418D01*
X20080Y-25419D01*
X20078Y-25421D01*
X20074Y-25426D01*
X20071Y-25432D01*
X20067Y-25441D01*
X20063Y-25450D01*
X20061Y-25461D01*
X20060Y-25474D01*
X20012Y-25469D01*
Y-25469D01*
X20012Y-25467D01*
Y-25464D01*
X20013Y-25460D01*
X20014Y-25456D01*
X20015Y-25451D01*
X20016Y-25445D01*
X20018Y-25439D01*
X20023Y-25425D01*
X20026Y-25418D01*
X20029Y-25412D01*
X20033Y-25405D01*
X20038Y-25398D01*
X20043Y-25392D01*
X20049Y-25387D01*
X20049Y-25386D01*
X20050Y-25386D01*
X20052Y-25384D01*
X20055Y-25382D01*
X20058Y-25380D01*
X20062Y-25378D01*
X20067Y-25375D01*
X20072Y-25372D01*
X20078Y-25370D01*
X20085Y-25367D01*
X20092Y-25365D01*
X20100Y-25363D01*
X20108Y-25361D01*
X20117Y-25359D01*
X20126Y-25359D01*
X20136Y-25358D01*
X20142D01*
X20145Y-25359D01*
D02*
G37*
G36*
X254Y-25784D02*
X203D01*
Y-25603D01*
X4D01*
Y-25784D01*
X-47D01*
Y-25399D01*
X4D01*
Y-25557D01*
X203D01*
Y-25399D01*
X254D01*
Y-25784D01*
D02*
G37*
G36*
X-131D02*
X-180D01*
Y-25462D01*
X-292Y-25784D01*
X-338D01*
X-449Y-25456D01*
Y-25784D01*
X-498D01*
Y-25399D01*
X-422D01*
X-331Y-25672D01*
Y-25672D01*
X-330Y-25673D01*
X-330Y-25675D01*
X-329Y-25678D01*
X-328Y-25681D01*
X-326Y-25685D01*
X-324Y-25693D01*
X-321Y-25702D01*
X-318Y-25712D01*
X-315Y-25721D01*
X-312Y-25729D01*
X-312Y-25728D01*
X-311Y-25725D01*
X-309Y-25720D01*
X-307Y-25713D01*
X-304Y-25704D01*
X-301Y-25694D01*
X-297Y-25681D01*
X-292Y-25667D01*
X-199Y-25399D01*
X-131D01*
Y-25784D01*
D02*
G37*
G36*
X498D02*
X451D01*
Y-25483D01*
X450Y-25484D01*
X448Y-25486D01*
X444Y-25489D01*
X439Y-25493D01*
X432Y-25498D01*
X424Y-25504D01*
X416Y-25510D01*
X406Y-25516D01*
X405D01*
X405Y-25516D01*
X403Y-25517D01*
X401Y-25518D01*
X396Y-25521D01*
X389Y-25525D01*
X382Y-25529D01*
X373Y-25533D01*
X365Y-25537D01*
X356Y-25540D01*
Y-25494D01*
X357D01*
X358Y-25493D01*
X360Y-25492D01*
X363Y-25491D01*
X366Y-25489D01*
X370Y-25487D01*
X380Y-25482D01*
X390Y-25475D01*
X402Y-25467D01*
X414Y-25459D01*
X425Y-25449D01*
X426Y-25449D01*
X427Y-25448D01*
X428Y-25447D01*
X430Y-25445D01*
X435Y-25440D01*
X442Y-25433D01*
X448Y-25425D01*
X455Y-25416D01*
X462Y-25407D01*
X467Y-25398D01*
X498D01*
Y-25784D01*
D02*
G37*
G36*
X-736Y-3621D02*
X-732D01*
X-727Y-3621D01*
X-722Y-3622D01*
X-710Y-3624D01*
X-698Y-3626D01*
X-685Y-3630D01*
X-672Y-3634D01*
X-672D01*
X-671Y-3635D01*
X-669Y-3636D01*
X-667Y-3637D01*
X-661Y-3640D01*
X-654Y-3645D01*
X-645Y-3650D01*
X-637Y-3657D01*
X-629Y-3666D01*
X-622Y-3675D01*
Y-3676D01*
X-621Y-3676D01*
X-620Y-3678D01*
X-619Y-3680D01*
X-618Y-3682D01*
X-616Y-3685D01*
X-613Y-3693D01*
X-609Y-3702D01*
X-606Y-3712D01*
X-604Y-3723D01*
X-603Y-3735D01*
X-652Y-3739D01*
Y-3738D01*
Y-3737D01*
X-652Y-3735D01*
X-653Y-3733D01*
X-653Y-3730D01*
X-654Y-3726D01*
X-657Y-3718D01*
X-660Y-3710D01*
X-665Y-3701D01*
X-671Y-3692D01*
X-679Y-3684D01*
X-680Y-3683D01*
X-681Y-3683D01*
X-683Y-3681D01*
X-685Y-3680D01*
X-688Y-3678D01*
X-692Y-3677D01*
X-695Y-3675D01*
X-700Y-3673D01*
X-705Y-3672D01*
X-710Y-3670D01*
X-716Y-3669D01*
X-723Y-3667D01*
X-730Y-3667D01*
X-737Y-3666D01*
X-753D01*
X-757Y-3666D01*
X-761Y-3667D01*
X-771Y-3668D01*
X-782Y-3670D01*
X-793Y-3673D01*
X-803Y-3677D01*
X-808Y-3680D01*
X-812Y-3683D01*
X-813Y-3684D01*
X-816Y-3686D01*
X-819Y-3689D01*
X-823Y-3694D01*
X-827Y-3700D01*
X-830Y-3707D01*
X-832Y-3715D01*
X-833Y-3724D01*
Y-3725D01*
Y-3727D01*
X-832Y-3731D01*
X-831Y-3736D01*
X-830Y-3741D01*
X-827Y-3747D01*
X-824Y-3752D01*
X-819Y-3758D01*
X-818Y-3758D01*
X-817Y-3759D01*
X-815Y-3760D01*
X-813Y-3761D01*
X-811Y-3763D01*
X-807Y-3764D01*
X-804Y-3766D01*
X-799Y-3768D01*
X-793Y-3770D01*
X-787Y-3772D01*
X-780Y-3775D01*
X-772Y-3777D01*
X-763Y-3780D01*
X-753Y-3782D01*
X-742Y-3785D01*
X-742D01*
X-740Y-3785D01*
X-736Y-3786D01*
X-732Y-3787D01*
X-727Y-3788D01*
X-721Y-3790D01*
X-715Y-3791D01*
X-708Y-3793D01*
X-694Y-3797D01*
X-680Y-3801D01*
X-674Y-3803D01*
X-667Y-3805D01*
X-662Y-3807D01*
X-657Y-3809D01*
X-657D01*
X-656Y-3810D01*
X-654Y-3811D01*
X-652Y-3812D01*
X-646Y-3815D01*
X-638Y-3820D01*
X-630Y-3826D01*
X-622Y-3832D01*
X-614Y-3840D01*
X-608Y-3849D01*
Y-3849D01*
X-607Y-3850D01*
X-606Y-3851D01*
X-605Y-3853D01*
X-603Y-3858D01*
X-599Y-3864D01*
X-596Y-3872D01*
X-594Y-3882D01*
X-592Y-3892D01*
X-591Y-3903D01*
Y-3904D01*
Y-3905D01*
Y-3906D01*
X-592Y-3908D01*
Y-3911D01*
X-592Y-3914D01*
X-593Y-3922D01*
X-596Y-3931D01*
X-599Y-3940D01*
X-603Y-3951D01*
X-609Y-3961D01*
Y-3961D01*
X-610Y-3962D01*
X-611Y-3963D01*
X-612Y-3965D01*
X-617Y-3970D01*
X-622Y-3976D01*
X-629Y-3983D01*
X-638Y-3990D01*
X-648Y-3997D01*
X-660Y-4003D01*
X-660D01*
X-661Y-4003D01*
X-663Y-4004D01*
X-665Y-4005D01*
X-669Y-4006D01*
X-672Y-4007D01*
X-676Y-4009D01*
X-681Y-4010D01*
X-692Y-4013D01*
X-704Y-4015D01*
X-718Y-4017D01*
X-733Y-4018D01*
X-738D01*
X-742Y-4017D01*
X-746D01*
X-752Y-4017D01*
X-757Y-4016D01*
X-764Y-4016D01*
X-777Y-4014D01*
X-792Y-4011D01*
X-807Y-4008D01*
X-821Y-4003D01*
X-821D01*
X-822Y-4002D01*
X-824Y-4001D01*
X-827Y-4000D01*
X-829Y-3998D01*
X-833Y-3996D01*
X-841Y-3991D01*
X-850Y-3985D01*
X-859Y-3977D01*
X-868Y-3967D01*
X-876Y-3957D01*
Y-3956D01*
X-877Y-3955D01*
X-878Y-3954D01*
X-879Y-3951D01*
X-880Y-3948D01*
X-882Y-3945D01*
X-884Y-3941D01*
X-886Y-3937D01*
X-890Y-3926D01*
X-893Y-3915D01*
X-896Y-3901D01*
X-897Y-3887D01*
X-849Y-3883D01*
Y-3884D01*
Y-3885D01*
X-848Y-3886D01*
Y-3888D01*
X-847Y-3893D01*
X-846Y-3900D01*
X-844Y-3908D01*
X-841Y-3916D01*
X-837Y-3924D01*
X-833Y-3931D01*
X-833Y-3932D01*
X-831Y-3934D01*
X-828Y-3938D01*
X-824Y-3942D01*
X-818Y-3947D01*
X-812Y-3952D01*
X-804Y-3957D01*
X-795Y-3961D01*
X-794D01*
X-794Y-3962D01*
X-792Y-3962D01*
X-790Y-3963D01*
X-788Y-3964D01*
X-785Y-3965D01*
X-777Y-3967D01*
X-769Y-3969D01*
X-759Y-3971D01*
X-748Y-3972D01*
X-736Y-3972D01*
X-731D01*
X-725Y-3972D01*
X-718Y-3971D01*
X-711Y-3970D01*
X-702Y-3969D01*
X-693Y-3967D01*
X-685Y-3964D01*
X-684D01*
X-684Y-3963D01*
X-681Y-3962D01*
X-677Y-3960D01*
X-672Y-3958D01*
X-667Y-3954D01*
X-661Y-3950D01*
X-656Y-3946D01*
X-651Y-3940D01*
X-651Y-3940D01*
X-650Y-3938D01*
X-648Y-3934D01*
X-646Y-3930D01*
X-644Y-3925D01*
X-642Y-3920D01*
X-641Y-3914D01*
X-640Y-3907D01*
Y-3906D01*
Y-3904D01*
X-641Y-3901D01*
X-642Y-3897D01*
X-643Y-3892D01*
X-645Y-3886D01*
X-648Y-3881D01*
X-651Y-3876D01*
X-652Y-3875D01*
X-653Y-3873D01*
X-656Y-3871D01*
X-659Y-3868D01*
X-664Y-3864D01*
X-670Y-3861D01*
X-677Y-3857D01*
X-686Y-3853D01*
X-687Y-3853D01*
X-689Y-3852D01*
X-691Y-3851D01*
X-693Y-3851D01*
X-696Y-3850D01*
X-700Y-3849D01*
X-704Y-3847D01*
X-709Y-3846D01*
X-715Y-3845D01*
X-721Y-3843D01*
X-728Y-3841D01*
X-736Y-3839D01*
X-745Y-3837D01*
X-754Y-3835D01*
X-755D01*
X-757Y-3834D01*
X-759Y-3833D01*
X-763Y-3833D01*
X-767Y-3831D01*
X-772Y-3830D01*
X-783Y-3827D01*
X-795Y-3823D01*
X-808Y-3819D01*
X-819Y-3815D01*
X-824Y-3812D01*
X-828Y-3810D01*
X-829D01*
X-829Y-3810D01*
X-831Y-3809D01*
X-833Y-3808D01*
X-838Y-3805D01*
X-844Y-3800D01*
X-850Y-3795D01*
X-857Y-3789D01*
X-864Y-3782D01*
X-869Y-3775D01*
Y-3774D01*
X-870Y-3774D01*
X-871Y-3771D01*
X-873Y-3767D01*
X-876Y-3761D01*
X-878Y-3754D01*
X-880Y-3745D01*
X-882Y-3736D01*
X-882Y-3727D01*
Y-3726D01*
Y-3725D01*
Y-3724D01*
X-882Y-3722D01*
X-881Y-3716D01*
X-880Y-3709D01*
X-878Y-3700D01*
X-875Y-3691D01*
X-871Y-3682D01*
X-866Y-3672D01*
Y-3672D01*
X-865Y-3671D01*
X-863Y-3668D01*
X-859Y-3663D01*
X-854Y-3658D01*
X-847Y-3652D01*
X-839Y-3645D01*
X-829Y-3639D01*
X-818Y-3634D01*
X-817D01*
X-816Y-3633D01*
X-815Y-3632D01*
X-812Y-3632D01*
X-809Y-3631D01*
X-806Y-3629D01*
X-802Y-3628D01*
X-797Y-3627D01*
X-787Y-3625D01*
X-775Y-3622D01*
X-761Y-3621D01*
X-747Y-3620D01*
X-740D01*
X-736Y-3621D01*
D02*
G37*
G36*
X-363Y-4011D02*
X-410D01*
Y-3711D01*
X-411Y-3711D01*
X-413Y-3713D01*
X-417Y-3717D01*
X-422Y-3721D01*
X-429Y-3726D01*
X-437Y-3731D01*
X-445Y-3737D01*
X-455Y-3743D01*
X-456D01*
X-456Y-3744D01*
X-458Y-3745D01*
X-460Y-3746D01*
X-465Y-3749D01*
X-472Y-3752D01*
X-479Y-3756D01*
X-488Y-3760D01*
X-496Y-3764D01*
X-505Y-3768D01*
Y-3722D01*
X-504D01*
X-503Y-3721D01*
X-501Y-3720D01*
X-498Y-3718D01*
X-495Y-3717D01*
X-491Y-3714D01*
X-481Y-3709D01*
X-471Y-3703D01*
X-459Y-3695D01*
X-447Y-3686D01*
X-436Y-3677D01*
X-435Y-3676D01*
X-434Y-3676D01*
X-433Y-3674D01*
X-431Y-3672D01*
X-426Y-3667D01*
X-419Y-3660D01*
X-413Y-3653D01*
X-406Y-3644D01*
X-399Y-3635D01*
X-394Y-3625D01*
X-363D01*
Y-4011D01*
D02*
G37*
G36*
X2762Y-3431D02*
X2765Y-3431D01*
X2769Y-3432D01*
X2774Y-3433D01*
X2780Y-3434D01*
X2786Y-3435D01*
X2792Y-3437D01*
X2799Y-3439D01*
X2805Y-3442D01*
X2812Y-3445D01*
X2820Y-3450D01*
X2826Y-3454D01*
X2833Y-3460D01*
X2839Y-3466D01*
X2840Y-3466D01*
X2841Y-3467D01*
X2843Y-3469D01*
X2845Y-3472D01*
X2847Y-3475D01*
X2850Y-3480D01*
X2853Y-3484D01*
X2856Y-3490D01*
X2859Y-3496D01*
X2862Y-3503D01*
X2865Y-3511D01*
X2867Y-3519D01*
X2870Y-3528D01*
X2871Y-3537D01*
X2872Y-3547D01*
X2873Y-3557D01*
Y-3560D01*
X2872Y-3563D01*
X2872Y-3566D01*
X2872Y-3571D01*
X2871Y-3577D01*
X2870Y-3583D01*
X2869Y-3590D01*
X2867Y-3597D01*
X2864Y-3604D01*
X2862Y-3612D01*
X2859Y-3620D01*
X2855Y-3627D01*
X2850Y-3635D01*
X2845Y-3642D01*
X2839Y-3649D01*
X2839Y-3649D01*
X2838Y-3650D01*
X2836Y-3652D01*
X2833Y-3654D01*
X2830Y-3657D01*
X2826Y-3660D01*
X2821Y-3663D01*
X2816Y-3666D01*
X2810Y-3669D01*
X2804Y-3672D01*
X2797Y-3675D01*
X2790Y-3678D01*
X2782Y-3680D01*
X2774Y-3682D01*
X2765Y-3683D01*
X2756Y-3683D01*
X2755D01*
X2754D01*
X2752D01*
X2749Y-3683D01*
X2746Y-3683D01*
X2742Y-3682D01*
X2738Y-3682D01*
X2734Y-3681D01*
X2729Y-3680D01*
X2724Y-3679D01*
X2719Y-3677D01*
X2713Y-3675D01*
X2708Y-3673D01*
X2703Y-3671D01*
X2698Y-3668D01*
X2693Y-3665D01*
X2693Y-3664D01*
X2692Y-3664D01*
X2690Y-3663D01*
X2689Y-3661D01*
X2687Y-3659D01*
X2684Y-3656D01*
X2682Y-3654D01*
X2679Y-3651D01*
X2676Y-3647D01*
X2674Y-3643D01*
X2671Y-3638D01*
X2668Y-3634D01*
X2665Y-3628D01*
X2663Y-3623D01*
X2661Y-3617D01*
X2659Y-3610D01*
Y-3611D01*
X2658Y-3612D01*
X2657Y-3613D01*
X2657Y-3615D01*
X2656Y-3617D01*
X2654Y-3620D01*
X2653Y-3623D01*
X2651Y-3627D01*
X2646Y-3634D01*
X2641Y-3641D01*
X2635Y-3648D01*
X2632Y-3651D01*
X2628Y-3654D01*
X2628Y-3654D01*
X2627Y-3654D01*
X2626Y-3655D01*
X2625Y-3656D01*
X2623Y-3657D01*
X2620Y-3658D01*
X2618Y-3660D01*
X2615Y-3661D01*
X2611Y-3662D01*
X2608Y-3663D01*
X2604Y-3665D01*
X2600Y-3666D01*
X2590Y-3667D01*
X2585Y-3668D01*
X2580Y-3668D01*
X2580D01*
X2579D01*
X2576Y-3668D01*
X2574Y-3667D01*
X2570Y-3667D01*
X2566Y-3666D01*
X2561Y-3665D01*
X2556Y-3664D01*
X2551Y-3663D01*
X2545Y-3661D01*
X2539Y-3658D01*
X2533Y-3655D01*
X2527Y-3652D01*
X2521Y-3648D01*
X2516Y-3643D01*
X2510Y-3638D01*
X2510Y-3638D01*
X2509Y-3637D01*
X2507Y-3635D01*
X2506Y-3632D01*
X2503Y-3629D01*
X2501Y-3626D01*
X2499Y-3622D01*
X2496Y-3617D01*
X2493Y-3611D01*
X2491Y-3605D01*
X2488Y-3599D01*
X2486Y-3591D01*
X2484Y-3584D01*
X2483Y-3576D01*
X2482Y-3567D01*
X2482Y-3558D01*
Y-3556D01*
X2482Y-3553D01*
X2482Y-3550D01*
X2482Y-3545D01*
X2483Y-3540D01*
X2484Y-3535D01*
X2485Y-3529D01*
X2487Y-3523D01*
X2489Y-3516D01*
X2491Y-3509D01*
X2494Y-3503D01*
X2497Y-3496D01*
X2501Y-3489D01*
X2506Y-3483D01*
X2511Y-3477D01*
X2511Y-3477D01*
X2512Y-3476D01*
X2514Y-3475D01*
X2516Y-3473D01*
X2519Y-3470D01*
X2522Y-3468D01*
X2526Y-3465D01*
X2531Y-3462D01*
X2536Y-3459D01*
X2541Y-3456D01*
X2547Y-3454D01*
X2553Y-3451D01*
X2560Y-3449D01*
X2567Y-3448D01*
X2574Y-3447D01*
X2582Y-3447D01*
X2582D01*
X2583D01*
X2584D01*
X2586Y-3447D01*
X2589Y-3447D01*
X2591Y-3447D01*
X2594Y-3448D01*
X2598Y-3448D01*
X2605Y-3450D01*
X2613Y-3452D01*
X2616Y-3454D01*
X2620Y-3456D01*
X2624Y-3458D01*
X2628Y-3461D01*
X2628Y-3461D01*
X2629Y-3461D01*
X2630Y-3462D01*
X2631Y-3463D01*
X2633Y-3465D01*
X2635Y-3467D01*
X2637Y-3469D01*
X2639Y-3471D01*
X2642Y-3474D01*
X2644Y-3477D01*
X2647Y-3481D01*
X2649Y-3484D01*
X2652Y-3489D01*
X2654Y-3493D01*
X2656Y-3498D01*
X2659Y-3503D01*
Y-3503D01*
X2659Y-3502D01*
X2660Y-3500D01*
X2661Y-3498D01*
X2662Y-3494D01*
X2664Y-3491D01*
X2665Y-3487D01*
X2667Y-3483D01*
X2670Y-3479D01*
X2673Y-3475D01*
X2676Y-3470D01*
X2679Y-3466D01*
X2683Y-3461D01*
X2687Y-3457D01*
X2691Y-3453D01*
X2696Y-3449D01*
X2696Y-3449D01*
X2697Y-3448D01*
X2698Y-3448D01*
X2700Y-3446D01*
X2703Y-3445D01*
X2706Y-3443D01*
X2709Y-3442D01*
X2713Y-3440D01*
X2717Y-3438D01*
X2722Y-3437D01*
X2727Y-3435D01*
X2732Y-3434D01*
X2738Y-3432D01*
X2744Y-3432D01*
X2750Y-3431D01*
X2757Y-3431D01*
X2757D01*
X2759D01*
X2762Y-3431D01*
D02*
G37*
G36*
X2866Y-3776D02*
X2787Y-3827D01*
X2786Y-3827D01*
X2785Y-3828D01*
X2783Y-3829D01*
X2781Y-3830D01*
X2778Y-3832D01*
X2775Y-3834D01*
X2771Y-3837D01*
X2767Y-3839D01*
X2759Y-3845D01*
X2750Y-3851D01*
X2741Y-3857D01*
X2738Y-3860D01*
X2734Y-3863D01*
X2734Y-3863D01*
X2733Y-3864D01*
X2732Y-3865D01*
X2731Y-3866D01*
X2728Y-3868D01*
X2724Y-3872D01*
X2720Y-3876D01*
X2715Y-3880D01*
X2711Y-3884D01*
X2708Y-3889D01*
X2708Y-3889D01*
X2707Y-3891D01*
X2706Y-3893D01*
X2704Y-3896D01*
X2703Y-3899D01*
X2701Y-3903D01*
X2699Y-3907D01*
X2698Y-3912D01*
Y-3912D01*
X2698Y-3914D01*
X2697Y-3916D01*
X2697Y-3919D01*
X2697Y-3922D01*
X2696Y-3927D01*
X2696Y-3933D01*
Y-3999D01*
X2866D01*
Y-4050D01*
X2483D01*
Y-3875D01*
X2483Y-3871D01*
Y-3867D01*
X2484Y-3862D01*
X2484Y-3857D01*
X2484Y-3851D01*
X2485Y-3845D01*
X2485Y-3838D01*
X2487Y-3825D01*
X2489Y-3819D01*
X2490Y-3813D01*
X2492Y-3807D01*
X2494Y-3802D01*
Y-3802D01*
X2494Y-3801D01*
X2495Y-3799D01*
X2495Y-3798D01*
X2497Y-3795D01*
X2498Y-3793D01*
X2500Y-3790D01*
X2502Y-3787D01*
X2504Y-3783D01*
X2507Y-3780D01*
X2510Y-3776D01*
X2513Y-3773D01*
X2517Y-3769D01*
X2521Y-3766D01*
X2525Y-3762D01*
X2530Y-3759D01*
X2530Y-3759D01*
X2531Y-3758D01*
X2533Y-3758D01*
X2535Y-3757D01*
X2537Y-3756D01*
X2540Y-3754D01*
X2543Y-3753D01*
X2547Y-3751D01*
X2551Y-3750D01*
X2556Y-3748D01*
X2560Y-3747D01*
X2565Y-3746D01*
X2571Y-3745D01*
X2576Y-3744D01*
X2582Y-3743D01*
X2588Y-3743D01*
X2588D01*
X2589D01*
X2592Y-3743D01*
X2595D01*
X2598Y-3744D01*
X2602Y-3745D01*
X2607Y-3745D01*
X2612Y-3747D01*
X2617Y-3748D01*
X2622Y-3750D01*
X2628Y-3752D01*
X2634Y-3754D01*
X2640Y-3757D01*
X2645Y-3761D01*
X2651Y-3765D01*
X2656Y-3770D01*
X2657Y-3770D01*
X2657Y-3771D01*
X2659Y-3773D01*
X2661Y-3775D01*
X2663Y-3778D01*
X2666Y-3781D01*
X2668Y-3785D01*
X2671Y-3790D01*
X2674Y-3795D01*
X2677Y-3801D01*
X2680Y-3808D01*
X2683Y-3815D01*
X2686Y-3823D01*
X2688Y-3832D01*
X2690Y-3841D01*
X2692Y-3851D01*
Y-3851D01*
X2692Y-3850D01*
X2693Y-3849D01*
X2694Y-3848D01*
X2694Y-3846D01*
X2695Y-3844D01*
X2698Y-3840D01*
X2701Y-3835D01*
X2704Y-3830D01*
X2707Y-3825D01*
X2711Y-3821D01*
X2711Y-3820D01*
X2712Y-3820D01*
X2713Y-3819D01*
X2715Y-3817D01*
X2717Y-3815D01*
X2719Y-3813D01*
X2722Y-3810D01*
X2725Y-3807D01*
X2729Y-3804D01*
X2733Y-3801D01*
X2737Y-3797D01*
X2741Y-3794D01*
X2746Y-3790D01*
X2751Y-3786D01*
X2762Y-3779D01*
X2866Y-3712D01*
Y-3776D01*
D02*
G37*
G36*
X3190Y-5317D02*
X3193D01*
X3197Y-5317D01*
X3201Y-5318D01*
X3206Y-5318D01*
X3212Y-5319D01*
X3217Y-5321D01*
X3223Y-5322D01*
X3229Y-5325D01*
X3235Y-5327D01*
X3242Y-5330D01*
X3248Y-5333D01*
X3254Y-5337D01*
X3259Y-5342D01*
X3260Y-5342D01*
X3261Y-5343D01*
X3262Y-5344D01*
X3264Y-5346D01*
X3266Y-5349D01*
X3269Y-5352D01*
X3271Y-5356D01*
X3275Y-5360D01*
X3278Y-5365D01*
X3281Y-5370D01*
X3284Y-5376D01*
X3286Y-5382D01*
X3289Y-5389D01*
X3291Y-5396D01*
X3293Y-5404D01*
X3294Y-5412D01*
X3247Y-5415D01*
Y-5415D01*
X3247Y-5414D01*
X3247Y-5413D01*
X3246Y-5411D01*
X3245Y-5408D01*
X3245Y-5406D01*
X3243Y-5400D01*
X3240Y-5394D01*
X3237Y-5387D01*
X3234Y-5381D01*
X3232Y-5378D01*
X3229Y-5375D01*
X3229Y-5375D01*
X3229Y-5374D01*
X3227Y-5373D01*
X3226Y-5372D01*
X3224Y-5371D01*
X3222Y-5369D01*
X3219Y-5367D01*
X3216Y-5365D01*
X3213Y-5363D01*
X3209Y-5361D01*
X3206Y-5360D01*
X3202Y-5358D01*
X3197Y-5357D01*
X3193Y-5356D01*
X3188Y-5355D01*
X3183Y-5355D01*
X3180D01*
X3179Y-5355D01*
X3177D01*
X3175Y-5356D01*
X3172Y-5356D01*
X3169Y-5357D01*
X3163Y-5358D01*
X3156Y-5360D01*
X3150Y-5364D01*
X3146Y-5366D01*
X3143Y-5368D01*
X3143Y-5368D01*
X3142Y-5369D01*
X3141Y-5369D01*
X3139Y-5371D01*
X3137Y-5372D01*
X3135Y-5374D01*
X3133Y-5377D01*
X3130Y-5380D01*
X3127Y-5383D01*
X3125Y-5386D01*
X3122Y-5390D01*
X3119Y-5394D01*
X3116Y-5399D01*
X3113Y-5404D01*
X3110Y-5409D01*
X3108Y-5415D01*
Y-5415D01*
X3107Y-5416D01*
X3107Y-5418D01*
X3106Y-5421D01*
X3105Y-5424D01*
X3104Y-5428D01*
X3103Y-5432D01*
X3101Y-5438D01*
X3100Y-5443D01*
X3099Y-5450D01*
X3098Y-5458D01*
X3097Y-5465D01*
X3096Y-5474D01*
X3095Y-5483D01*
X3095Y-5493D01*
X3095Y-5504D01*
X3095Y-5503D01*
X3096Y-5502D01*
X3096Y-5501D01*
X3098Y-5499D01*
X3099Y-5497D01*
X3101Y-5495D01*
X3104Y-5492D01*
X3106Y-5489D01*
X3109Y-5486D01*
X3112Y-5483D01*
X3119Y-5476D01*
X3127Y-5470D01*
X3132Y-5467D01*
X3136Y-5465D01*
X3136Y-5465D01*
X3137Y-5464D01*
X3139Y-5464D01*
X3140Y-5463D01*
X3143Y-5462D01*
X3145Y-5461D01*
X3148Y-5460D01*
X3152Y-5459D01*
X3155Y-5458D01*
X3160Y-5456D01*
X3168Y-5454D01*
X3178Y-5453D01*
X3183Y-5452D01*
X3190D01*
X3193Y-5453D01*
X3196Y-5453D01*
X3200Y-5453D01*
X3204Y-5454D01*
X3210Y-5455D01*
X3216Y-5457D01*
X3222Y-5458D01*
X3228Y-5461D01*
X3235Y-5464D01*
X3242Y-5467D01*
X3248Y-5471D01*
X3255Y-5476D01*
X3262Y-5481D01*
X3268Y-5487D01*
X3268Y-5487D01*
X3269Y-5489D01*
X3271Y-5491D01*
X3273Y-5494D01*
X3276Y-5497D01*
X3278Y-5501D01*
X3281Y-5506D01*
X3284Y-5511D01*
X3288Y-5517D01*
X3291Y-5524D01*
X3293Y-5531D01*
X3296Y-5540D01*
X3298Y-5548D01*
X3300Y-5557D01*
X3301Y-5567D01*
X3301Y-5577D01*
Y-5577D01*
Y-5578D01*
Y-5580D01*
X3301Y-5583D01*
X3301Y-5586D01*
X3300Y-5590D01*
X3300Y-5594D01*
X3299Y-5599D01*
X3298Y-5604D01*
X3297Y-5609D01*
X3296Y-5614D01*
X3294Y-5620D01*
X3293Y-5626D01*
X3291Y-5632D01*
X3288Y-5638D01*
X3285Y-5644D01*
X3285Y-5644D01*
X3284Y-5645D01*
X3284Y-5647D01*
X3283Y-5649D01*
X3281Y-5651D01*
X3279Y-5654D01*
X3277Y-5658D01*
X3274Y-5661D01*
X3271Y-5665D01*
X3268Y-5669D01*
X3265Y-5673D01*
X3261Y-5677D01*
X3257Y-5681D01*
X3252Y-5684D01*
X3248Y-5688D01*
X3243Y-5691D01*
X3242Y-5691D01*
X3242Y-5692D01*
X3240Y-5692D01*
X3238Y-5694D01*
X3235Y-5695D01*
X3232Y-5696D01*
X3229Y-5698D01*
X3225Y-5699D01*
X3221Y-5701D01*
X3216Y-5702D01*
X3211Y-5703D01*
X3205Y-5705D01*
X3199Y-5706D01*
X3194Y-5707D01*
X3187Y-5707D01*
X3181Y-5707D01*
X3178D01*
X3177Y-5707D01*
X3175D01*
X3171Y-5707D01*
X3166Y-5706D01*
X3160Y-5705D01*
X3154Y-5704D01*
X3147Y-5702D01*
X3139Y-5700D01*
X3132Y-5697D01*
X3124Y-5693D01*
X3116Y-5689D01*
X3108Y-5684D01*
X3100Y-5678D01*
X3092Y-5672D01*
X3085Y-5664D01*
X3085Y-5664D01*
X3083Y-5662D01*
X3082Y-5659D01*
X3079Y-5656D01*
X3076Y-5651D01*
X3075Y-5648D01*
X3073Y-5645D01*
X3072Y-5642D01*
X3070Y-5638D01*
X3068Y-5634D01*
X3067Y-5630D01*
X3065Y-5626D01*
X3063Y-5621D01*
X3061Y-5616D01*
X3060Y-5610D01*
X3058Y-5605D01*
X3057Y-5599D01*
X3055Y-5592D01*
X3054Y-5586D01*
X3052Y-5579D01*
X3051Y-5572D01*
X3050Y-5564D01*
X3050Y-5556D01*
X3049Y-5548D01*
X3049Y-5540D01*
X3048Y-5531D01*
Y-5522D01*
Y-5522D01*
Y-5520D01*
Y-5519D01*
Y-5517D01*
X3048Y-5514D01*
Y-5511D01*
X3049Y-5508D01*
Y-5504D01*
X3049Y-5499D01*
X3049Y-5494D01*
X3050Y-5489D01*
X3050Y-5484D01*
X3051Y-5472D01*
X3053Y-5460D01*
X3055Y-5447D01*
X3058Y-5433D01*
X3061Y-5420D01*
X3065Y-5407D01*
X3070Y-5394D01*
X3075Y-5382D01*
X3078Y-5376D01*
X3082Y-5371D01*
X3085Y-5365D01*
X3089Y-5360D01*
X3089Y-5360D01*
X3091Y-5358D01*
X3093Y-5356D01*
X3096Y-5353D01*
X3099Y-5350D01*
X3103Y-5346D01*
X3109Y-5342D01*
X3114Y-5338D01*
X3121Y-5334D01*
X3128Y-5330D01*
X3136Y-5326D01*
X3145Y-5323D01*
X3154Y-5320D01*
X3164Y-5318D01*
X3174Y-5317D01*
X3185Y-5316D01*
X3187D01*
X3190Y-5317D01*
D02*
G37*
G36*
X2861Y-5318D02*
X2866D01*
X2871Y-5318D01*
X2876Y-5318D01*
X2882Y-5319D01*
X2888Y-5320D01*
X2894Y-5320D01*
X2907Y-5322D01*
X2914Y-5323D01*
X2920Y-5325D01*
X2926Y-5326D01*
X2931Y-5328D01*
X2931D01*
X2932Y-5329D01*
X2933Y-5329D01*
X2935Y-5330D01*
X2937Y-5331D01*
X2940Y-5333D01*
X2943Y-5335D01*
X2946Y-5336D01*
X2949Y-5339D01*
X2953Y-5341D01*
X2957Y-5344D01*
X2960Y-5348D01*
X2963Y-5352D01*
X2967Y-5356D01*
X2970Y-5360D01*
X2973Y-5365D01*
X2974Y-5365D01*
X2974Y-5366D01*
X2975Y-5367D01*
X2976Y-5369D01*
X2977Y-5372D01*
X2978Y-5375D01*
X2980Y-5378D01*
X2981Y-5382D01*
X2983Y-5386D01*
X2985Y-5390D01*
X2986Y-5395D01*
X2987Y-5400D01*
X2988Y-5405D01*
X2989Y-5411D01*
X2989Y-5417D01*
X2989Y-5422D01*
Y-5423D01*
Y-5424D01*
X2989Y-5426D01*
Y-5429D01*
X2989Y-5433D01*
X2988Y-5437D01*
X2987Y-5441D01*
X2986Y-5446D01*
X2985Y-5451D01*
X2983Y-5457D01*
X2981Y-5463D01*
X2978Y-5469D01*
X2975Y-5474D01*
X2972Y-5480D01*
X2968Y-5486D01*
X2963Y-5491D01*
X2963Y-5491D01*
X2962Y-5492D01*
X2960Y-5494D01*
X2958Y-5495D01*
X2955Y-5498D01*
X2952Y-5500D01*
X2948Y-5503D01*
X2943Y-5506D01*
X2937Y-5509D01*
X2932Y-5512D01*
X2925Y-5515D01*
X2917Y-5518D01*
X2909Y-5520D01*
X2901Y-5523D01*
X2891Y-5525D01*
X2881Y-5526D01*
X2882D01*
X2882Y-5527D01*
X2883Y-5527D01*
X2885Y-5528D01*
X2886Y-5529D01*
X2888Y-5530D01*
X2893Y-5533D01*
X2898Y-5535D01*
X2903Y-5539D01*
X2907Y-5542D01*
X2912Y-5546D01*
X2912Y-5546D01*
X2913Y-5546D01*
X2914Y-5548D01*
X2916Y-5549D01*
X2918Y-5551D01*
X2920Y-5554D01*
X2923Y-5556D01*
X2926Y-5560D01*
X2929Y-5563D01*
X2932Y-5567D01*
X2935Y-5571D01*
X2939Y-5576D01*
X2943Y-5581D01*
X2947Y-5586D01*
X2954Y-5597D01*
X3020Y-5701D01*
X2957D01*
X2906Y-5621D01*
X2906Y-5621D01*
X2905Y-5620D01*
X2904Y-5618D01*
X2903Y-5616D01*
X2901Y-5613D01*
X2898Y-5609D01*
X2896Y-5606D01*
X2893Y-5602D01*
X2888Y-5593D01*
X2881Y-5584D01*
X2875Y-5576D01*
X2872Y-5572D01*
X2870Y-5569D01*
X2869Y-5568D01*
X2869Y-5568D01*
X2868Y-5567D01*
X2867Y-5566D01*
X2864Y-5562D01*
X2861Y-5558D01*
X2857Y-5554D01*
X2853Y-5550D01*
X2848Y-5546D01*
X2844Y-5543D01*
X2843Y-5543D01*
X2842Y-5542D01*
X2840Y-5540D01*
X2837Y-5539D01*
X2833Y-5537D01*
X2829Y-5535D01*
X2825Y-5534D01*
X2821Y-5533D01*
X2821D01*
X2819Y-5532D01*
X2817Y-5532D01*
X2814Y-5531D01*
X2810Y-5531D01*
X2805Y-5531D01*
X2799Y-5531D01*
X2734D01*
Y-5701D01*
X2683D01*
Y-5318D01*
X2858D01*
X2861Y-5318D01*
D02*
G37*
G36*
X19005Y-20626D02*
X18954D01*
Y-20445D01*
X18755D01*
Y-20626D01*
X18704D01*
Y-20242D01*
X18755D01*
Y-20400D01*
X18954D01*
Y-20242D01*
X19005D01*
Y-20626D01*
D02*
G37*
G36*
X19249D02*
X19202D01*
Y-20326D01*
X19201Y-20326D01*
X19199Y-20328D01*
X19195Y-20332D01*
X19190Y-20336D01*
X19183Y-20341D01*
X19175Y-20346D01*
X19167Y-20352D01*
X19157Y-20358D01*
X19156D01*
X19156Y-20359D01*
X19154Y-20360D01*
X19152Y-20361D01*
X19147Y-20364D01*
X19140Y-20367D01*
X19133Y-20371D01*
X19124Y-20375D01*
X19116Y-20379D01*
X19107Y-20383D01*
Y-20337D01*
X19108D01*
X19109Y-20336D01*
X19111Y-20335D01*
X19114Y-20333D01*
X19117Y-20332D01*
X19121Y-20329D01*
X19131Y-20324D01*
X19141Y-20318D01*
X19153Y-20310D01*
X19165Y-20301D01*
X19176Y-20292D01*
X19177Y-20291D01*
X19178Y-20291D01*
X19179Y-20289D01*
X19181Y-20287D01*
X19186Y-20282D01*
X19193Y-20275D01*
X19199Y-20268D01*
X19206Y-20259D01*
X19213Y-20250D01*
X19218Y-20240D01*
X19249D01*
Y-20626D01*
D02*
G37*
G36*
X3162Y-4571D02*
X3166Y-4571D01*
X3171Y-4572D01*
X3176Y-4572D01*
X3181Y-4573D01*
X3193Y-4576D01*
X3205Y-4581D01*
X3212Y-4584D01*
X3218Y-4587D01*
X3224Y-4591D01*
X3229Y-4596D01*
X3230Y-4596D01*
X3231Y-4597D01*
X3232Y-4598D01*
X3234Y-4600D01*
X3236Y-4603D01*
X3239Y-4606D01*
X3242Y-4610D01*
X3245Y-4614D01*
X3248Y-4619D01*
X3251Y-4624D01*
X3253Y-4630D01*
X3256Y-4636D01*
X3261Y-4650D01*
X3263Y-4658D01*
X3264Y-4666D01*
X3217Y-4669D01*
Y-4669D01*
X3217Y-4668D01*
Y-4667D01*
X3216Y-4665D01*
X3215Y-4660D01*
X3213Y-4654D01*
X3210Y-4647D01*
X3207Y-4641D01*
X3203Y-4635D01*
X3199Y-4629D01*
X3198Y-4628D01*
X3196Y-4626D01*
X3192Y-4623D01*
X3186Y-4619D01*
X3179Y-4616D01*
X3171Y-4612D01*
X3162Y-4610D01*
X3152Y-4609D01*
X3148D01*
X3144Y-4610D01*
X3138Y-4611D01*
X3132Y-4612D01*
X3125Y-4615D01*
X3119Y-4618D01*
X3112Y-4622D01*
X3111Y-4623D01*
X3108Y-4625D01*
X3104Y-4629D01*
X3099Y-4634D01*
X3094Y-4641D01*
X3088Y-4649D01*
X3082Y-4658D01*
X3077Y-4669D01*
Y-4670D01*
X3076Y-4671D01*
X3076Y-4672D01*
X3075Y-4675D01*
X3074Y-4678D01*
X3073Y-4682D01*
X3072Y-4687D01*
X3070Y-4692D01*
X3069Y-4698D01*
X3068Y-4705D01*
X3067Y-4712D01*
X3066Y-4720D01*
X3065Y-4728D01*
X3064Y-4738D01*
X3064Y-4748D01*
Y-4758D01*
X3065Y-4757D01*
X3067Y-4754D01*
X3070Y-4749D01*
X3075Y-4744D01*
X3081Y-4737D01*
X3088Y-4731D01*
X3096Y-4725D01*
X3105Y-4720D01*
X3106D01*
X3106Y-4719D01*
X3108Y-4719D01*
X3110Y-4718D01*
X3114Y-4716D01*
X3121Y-4713D01*
X3129Y-4711D01*
X3137Y-4709D01*
X3147Y-4707D01*
X3157Y-4707D01*
X3161D01*
X3165Y-4707D01*
X3169Y-4708D01*
X3174Y-4709D01*
X3179Y-4710D01*
X3185Y-4711D01*
X3191Y-4713D01*
X3197Y-4715D01*
X3204Y-4718D01*
X3211Y-4721D01*
X3218Y-4726D01*
X3224Y-4730D01*
X3231Y-4736D01*
X3237Y-4742D01*
X3238Y-4742D01*
X3239Y-4743D01*
X3240Y-4745D01*
X3243Y-4748D01*
X3245Y-4752D01*
X3248Y-4756D01*
X3251Y-4761D01*
X3254Y-4766D01*
X3257Y-4772D01*
X3260Y-4779D01*
X3263Y-4786D01*
X3266Y-4794D01*
X3268Y-4803D01*
X3269Y-4812D01*
X3270Y-4822D01*
X3271Y-4832D01*
Y-4832D01*
Y-4833D01*
Y-4835D01*
Y-4838D01*
X3270Y-4841D01*
X3270Y-4845D01*
X3269Y-4854D01*
X3267Y-4864D01*
X3264Y-4875D01*
X3260Y-4887D01*
X3255Y-4899D01*
Y-4899D01*
X3254Y-4900D01*
X3253Y-4902D01*
X3252Y-4904D01*
X3248Y-4909D01*
X3244Y-4916D01*
X3237Y-4924D01*
X3230Y-4932D01*
X3222Y-4939D01*
X3212Y-4946D01*
X3211D01*
X3211Y-4947D01*
X3209Y-4948D01*
X3207Y-4949D01*
X3204Y-4950D01*
X3201Y-4951D01*
X3194Y-4954D01*
X3185Y-4958D01*
X3174Y-4960D01*
X3163Y-4962D01*
X3150Y-4963D01*
X3148D01*
X3145Y-4962D01*
X3140D01*
X3135Y-4961D01*
X3130Y-4960D01*
X3123Y-4959D01*
X3116Y-4957D01*
X3109Y-4955D01*
X3101Y-4952D01*
X3093Y-4949D01*
X3085Y-4945D01*
X3077Y-4940D01*
X3069Y-4934D01*
X3061Y-4927D01*
X3054Y-4920D01*
X3053Y-4919D01*
X3052Y-4918D01*
X3050Y-4915D01*
X3048Y-4911D01*
X3045Y-4907D01*
X3042Y-4901D01*
X3039Y-4894D01*
X3035Y-4886D01*
X3032Y-4876D01*
X3028Y-4866D01*
X3025Y-4854D01*
X3023Y-4841D01*
X3020Y-4827D01*
X3018Y-4811D01*
X3017Y-4795D01*
X3017Y-4777D01*
Y-4776D01*
Y-4775D01*
Y-4774D01*
Y-4772D01*
Y-4769D01*
X3017Y-4766D01*
Y-4759D01*
X3018Y-4749D01*
X3019Y-4739D01*
X3020Y-4727D01*
X3022Y-4715D01*
X3024Y-4702D01*
X3027Y-4688D01*
X3030Y-4675D01*
X3034Y-4661D01*
X3039Y-4648D01*
X3044Y-4636D01*
X3051Y-4625D01*
X3058Y-4615D01*
X3058Y-4614D01*
X3059Y-4613D01*
X3061Y-4611D01*
X3064Y-4608D01*
X3068Y-4604D01*
X3072Y-4601D01*
X3078Y-4597D01*
X3083Y-4592D01*
X3090Y-4588D01*
X3097Y-4584D01*
X3105Y-4581D01*
X3114Y-4577D01*
X3123Y-4574D01*
X3133Y-4572D01*
X3144Y-4571D01*
X3155Y-4570D01*
X3159D01*
X3162Y-4571D01*
D02*
G37*
G36*
X2826Y-4566D02*
X2831Y-4566D01*
X2837Y-4567D01*
X2844Y-4568D01*
X2851Y-4569D01*
X2866Y-4572D01*
X2874Y-4575D01*
X2882Y-4578D01*
X2890Y-4581D01*
X2898Y-4585D01*
X2906Y-4590D01*
X2914Y-4595D01*
X2914Y-4595D01*
X2915Y-4596D01*
X2918Y-4598D01*
X2920Y-4600D01*
X2923Y-4603D01*
X2927Y-4607D01*
X2931Y-4611D01*
X2936Y-4616D01*
X2940Y-4622D01*
X2945Y-4628D01*
X2949Y-4635D01*
X2954Y-4642D01*
X2958Y-4650D01*
X2962Y-4658D01*
X2966Y-4668D01*
X2969Y-4677D01*
X2919Y-4689D01*
Y-4689D01*
X2919Y-4687D01*
X2918Y-4685D01*
X2917Y-4682D01*
X2915Y-4679D01*
X2914Y-4675D01*
X2909Y-4666D01*
X2904Y-4656D01*
X2897Y-4646D01*
X2889Y-4636D01*
X2885Y-4632D01*
X2880Y-4628D01*
X2880D01*
X2879Y-4627D01*
X2878Y-4626D01*
X2876Y-4625D01*
X2873Y-4624D01*
X2870Y-4622D01*
X2863Y-4618D01*
X2853Y-4615D01*
X2842Y-4612D01*
X2830Y-4610D01*
X2816Y-4609D01*
X2811D01*
X2808Y-4609D01*
X2805D01*
X2800Y-4610D01*
X2795Y-4611D01*
X2790Y-4611D01*
X2778Y-4614D01*
X2766Y-4618D01*
X2753Y-4623D01*
X2747Y-4626D01*
X2741Y-4630D01*
X2741D01*
X2740Y-4631D01*
X2738Y-4632D01*
X2736Y-4634D01*
X2731Y-4639D01*
X2725Y-4645D01*
X2718Y-4653D01*
X2711Y-4663D01*
X2705Y-4674D01*
X2700Y-4687D01*
Y-4688D01*
X2699Y-4689D01*
X2699Y-4691D01*
X2698Y-4693D01*
X2697Y-4697D01*
X2696Y-4701D01*
X2695Y-4705D01*
X2694Y-4710D01*
X2692Y-4721D01*
X2690Y-4734D01*
X2688Y-4747D01*
X2688Y-4761D01*
Y-4762D01*
Y-4763D01*
Y-4766D01*
Y-4769D01*
X2688Y-4774D01*
X2689Y-4779D01*
Y-4784D01*
X2690Y-4790D01*
X2691Y-4804D01*
X2694Y-4818D01*
X2697Y-4833D01*
X2702Y-4847D01*
Y-4847D01*
X2702Y-4848D01*
X2703Y-4850D01*
X2705Y-4853D01*
X2706Y-4856D01*
X2708Y-4859D01*
X2713Y-4867D01*
X2719Y-4876D01*
X2727Y-4885D01*
X2736Y-4894D01*
X2746Y-4901D01*
X2747D01*
X2748Y-4902D01*
X2749Y-4903D01*
X2752Y-4904D01*
X2754Y-4905D01*
X2758Y-4907D01*
X2766Y-4910D01*
X2776Y-4914D01*
X2787Y-4916D01*
X2799Y-4918D01*
X2812Y-4919D01*
X2816D01*
X2819Y-4919D01*
X2823Y-4918D01*
X2827Y-4918D01*
X2832Y-4917D01*
X2837Y-4916D01*
X2848Y-4913D01*
X2860Y-4909D01*
X2867Y-4906D01*
X2873Y-4903D01*
X2879Y-4899D01*
X2884Y-4895D01*
X2885Y-4894D01*
X2886Y-4894D01*
X2887Y-4892D01*
X2889Y-4890D01*
X2891Y-4888D01*
X2894Y-4884D01*
X2897Y-4881D01*
X2900Y-4876D01*
X2904Y-4872D01*
X2907Y-4866D01*
X2910Y-4860D01*
X2914Y-4854D01*
X2917Y-4846D01*
X2920Y-4839D01*
X2922Y-4831D01*
X2925Y-4822D01*
X2976Y-4835D01*
Y-4835D01*
X2975Y-4837D01*
X2974Y-4841D01*
X2973Y-4845D01*
X2971Y-4850D01*
X2968Y-4856D01*
X2966Y-4863D01*
X2962Y-4870D01*
X2959Y-4878D01*
X2954Y-4886D01*
X2950Y-4893D01*
X2944Y-4901D01*
X2939Y-4909D01*
X2932Y-4917D01*
X2925Y-4924D01*
X2918Y-4930D01*
X2917Y-4931D01*
X2916Y-4932D01*
X2914Y-4933D01*
X2910Y-4935D01*
X2906Y-4938D01*
X2901Y-4941D01*
X2896Y-4943D01*
X2890Y-4946D01*
X2882Y-4950D01*
X2875Y-4952D01*
X2866Y-4955D01*
X2857Y-4958D01*
X2848Y-4960D01*
X2838Y-4961D01*
X2827Y-4962D01*
X2816Y-4963D01*
X2810D01*
X2806Y-4962D01*
X2801Y-4962D01*
X2794Y-4961D01*
X2788Y-4961D01*
X2780Y-4960D01*
X2764Y-4957D01*
X2747Y-4952D01*
X2739Y-4949D01*
X2730Y-4946D01*
X2722Y-4942D01*
X2715Y-4938D01*
X2714Y-4937D01*
X2713Y-4937D01*
X2711Y-4935D01*
X2708Y-4933D01*
X2705Y-4930D01*
X2701Y-4927D01*
X2697Y-4923D01*
X2693Y-4919D01*
X2688Y-4914D01*
X2683Y-4909D01*
X2678Y-4903D01*
X2673Y-4896D01*
X2668Y-4889D01*
X2664Y-4881D01*
X2659Y-4873D01*
X2655Y-4864D01*
Y-4864D01*
X2654Y-4862D01*
X2653Y-4859D01*
X2652Y-4856D01*
X2651Y-4851D01*
X2649Y-4846D01*
X2647Y-4840D01*
X2645Y-4833D01*
X2643Y-4826D01*
X2642Y-4818D01*
X2640Y-4809D01*
X2638Y-4801D01*
X2636Y-4781D01*
X2635Y-4761D01*
Y-4761D01*
Y-4759D01*
Y-4755D01*
X2636Y-4751D01*
Y-4746D01*
X2636Y-4740D01*
X2637Y-4733D01*
X2638Y-4726D01*
X2639Y-4718D01*
X2641Y-4709D01*
X2645Y-4692D01*
X2650Y-4674D01*
X2654Y-4665D01*
X2658Y-4657D01*
X2658Y-4656D01*
X2659Y-4655D01*
X2660Y-4652D01*
X2662Y-4649D01*
X2664Y-4646D01*
X2667Y-4641D01*
X2671Y-4637D01*
X2675Y-4631D01*
X2684Y-4620D01*
X2695Y-4609D01*
X2708Y-4598D01*
X2716Y-4593D01*
X2723Y-4589D01*
X2724Y-4588D01*
X2725Y-4588D01*
X2728Y-4587D01*
X2731Y-4585D01*
X2735Y-4583D01*
X2739Y-4581D01*
X2745Y-4579D01*
X2751Y-4577D01*
X2758Y-4575D01*
X2765Y-4573D01*
X2781Y-4569D01*
X2798Y-4566D01*
X2807Y-4565D01*
X2822D01*
X2826Y-4566D01*
D02*
G37*
G36*
X14871Y-20668D02*
X14876Y-20668D01*
X14882Y-20669D01*
X14888Y-20670D01*
X14895Y-20671D01*
X14910Y-20674D01*
X14918Y-20677D01*
X14927Y-20680D01*
X14935Y-20683D01*
X14943Y-20687D01*
X14951Y-20692D01*
X14958Y-20697D01*
X14959Y-20697D01*
X14960Y-20698D01*
X14962Y-20700D01*
X14965Y-20702D01*
X14968Y-20705D01*
X14972Y-20709D01*
X14976Y-20713D01*
X14980Y-20718D01*
X14985Y-20724D01*
X14989Y-20730D01*
X14994Y-20737D01*
X14998Y-20744D01*
X15003Y-20752D01*
X15007Y-20760D01*
X15011Y-20770D01*
X15014Y-20779D01*
X14964Y-20791D01*
Y-20791D01*
X14963Y-20789D01*
X14962Y-20787D01*
X14961Y-20784D01*
X14960Y-20781D01*
X14958Y-20777D01*
X14954Y-20768D01*
X14948Y-20758D01*
X14942Y-20748D01*
X14934Y-20738D01*
X14929Y-20734D01*
X14925Y-20730D01*
X14924D01*
X14924Y-20729D01*
X14922Y-20728D01*
X14920Y-20727D01*
X14918Y-20726D01*
X14915Y-20724D01*
X14907Y-20720D01*
X14898Y-20717D01*
X14887Y-20714D01*
X14874Y-20712D01*
X14860Y-20711D01*
X14856D01*
X14853Y-20711D01*
X14849D01*
X14845Y-20712D01*
X14840Y-20713D01*
X14834Y-20713D01*
X14823Y-20716D01*
X14810Y-20720D01*
X14798Y-20725D01*
X14792Y-20728D01*
X14786Y-20732D01*
X14785D01*
X14784Y-20733D01*
X14783Y-20734D01*
X14781Y-20736D01*
X14776Y-20741D01*
X14770Y-20747D01*
X14763Y-20755D01*
X14756Y-20765D01*
X14749Y-20776D01*
X14744Y-20789D01*
Y-20790D01*
X14744Y-20791D01*
X14743Y-20793D01*
X14742Y-20795D01*
X14741Y-20799D01*
X14740Y-20803D01*
X14739Y-20807D01*
X14738Y-20812D01*
X14736Y-20823D01*
X14734Y-20836D01*
X14733Y-20849D01*
X14732Y-20863D01*
Y-20864D01*
Y-20865D01*
Y-20868D01*
Y-20871D01*
X14733Y-20876D01*
X14733Y-20881D01*
Y-20886D01*
X14734Y-20892D01*
X14736Y-20906D01*
X14738Y-20920D01*
X14742Y-20935D01*
X14746Y-20949D01*
Y-20949D01*
X14747Y-20950D01*
X14748Y-20952D01*
X14749Y-20955D01*
X14751Y-20958D01*
X14752Y-20961D01*
X14757Y-20969D01*
X14764Y-20978D01*
X14771Y-20987D01*
X14780Y-20996D01*
X14791Y-21003D01*
X14791D01*
X14792Y-21004D01*
X14794Y-21005D01*
X14796Y-21006D01*
X14799Y-21007D01*
X14802Y-21009D01*
X14810Y-21012D01*
X14820Y-21016D01*
X14831Y-21018D01*
X14843Y-21020D01*
X14856Y-21021D01*
X14860D01*
X14863Y-21021D01*
X14867Y-21020D01*
X14871Y-21020D01*
X14876Y-21019D01*
X14881Y-21018D01*
X14893Y-21015D01*
X14905Y-21011D01*
X14911Y-21008D01*
X14917Y-21005D01*
X14923Y-21001D01*
X14929Y-20997D01*
X14929Y-20996D01*
X14930Y-20996D01*
X14932Y-20994D01*
X14934Y-20992D01*
X14936Y-20990D01*
X14939Y-20986D01*
X14942Y-20983D01*
X14945Y-20978D01*
X14948Y-20974D01*
X14952Y-20968D01*
X14955Y-20962D01*
X14958Y-20956D01*
X14961Y-20948D01*
X14964Y-20941D01*
X14967Y-20933D01*
X14969Y-20924D01*
X15020Y-20937D01*
Y-20937D01*
X15019Y-20939D01*
X15018Y-20943D01*
X15017Y-20947D01*
X15015Y-20952D01*
X15013Y-20958D01*
X15010Y-20965D01*
X15007Y-20972D01*
X15003Y-20980D01*
X14999Y-20988D01*
X14994Y-20995D01*
X14989Y-21003D01*
X14983Y-21011D01*
X14977Y-21019D01*
X14970Y-21026D01*
X14962Y-21032D01*
X14962Y-21033D01*
X14960Y-21034D01*
X14958Y-21035D01*
X14955Y-21037D01*
X14951Y-21040D01*
X14946Y-21043D01*
X14940Y-21045D01*
X14934Y-21048D01*
X14927Y-21052D01*
X14919Y-21054D01*
X14911Y-21057D01*
X14902Y-21060D01*
X14892Y-21062D01*
X14882Y-21063D01*
X14872Y-21064D01*
X14861Y-21065D01*
X14855D01*
X14850Y-21064D01*
X14845Y-21064D01*
X14839Y-21063D01*
X14832Y-21063D01*
X14825Y-21062D01*
X14809Y-21059D01*
X14792Y-21054D01*
X14783Y-21051D01*
X14775Y-21048D01*
X14767Y-21044D01*
X14759Y-21040D01*
X14759Y-21039D01*
X14758Y-21039D01*
X14756Y-21037D01*
X14753Y-21035D01*
X14750Y-21032D01*
X14746Y-21029D01*
X14742Y-21025D01*
X14737Y-21021D01*
X14732Y-21016D01*
X14728Y-21011D01*
X14723Y-21005D01*
X14718Y-20998D01*
X14713Y-20991D01*
X14708Y-20983D01*
X14704Y-20975D01*
X14700Y-20966D01*
Y-20966D01*
X14699Y-20964D01*
X14698Y-20961D01*
X14697Y-20958D01*
X14695Y-20953D01*
X14693Y-20948D01*
X14692Y-20942D01*
X14690Y-20935D01*
X14688Y-20928D01*
X14686Y-20920D01*
X14684Y-20911D01*
X14683Y-20903D01*
X14681Y-20883D01*
X14680Y-20863D01*
Y-20863D01*
Y-20861D01*
Y-20857D01*
X14680Y-20853D01*
Y-20848D01*
X14681Y-20842D01*
X14682Y-20835D01*
X14683Y-20828D01*
X14684Y-20820D01*
X14685Y-20811D01*
X14689Y-20794D01*
X14695Y-20776D01*
X14698Y-20767D01*
X14702Y-20759D01*
X14703Y-20758D01*
X14703Y-20757D01*
X14705Y-20754D01*
X14707Y-20751D01*
X14709Y-20748D01*
X14712Y-20743D01*
X14715Y-20739D01*
X14719Y-20733D01*
X14728Y-20722D01*
X14740Y-20711D01*
X14753Y-20700D01*
X14760Y-20695D01*
X14768Y-20691D01*
X14768Y-20690D01*
X14770Y-20690D01*
X14772Y-20689D01*
X14775Y-20687D01*
X14779Y-20685D01*
X14784Y-20683D01*
X14789Y-20681D01*
X14795Y-20679D01*
X14802Y-20677D01*
X14809Y-20675D01*
X14825Y-20671D01*
X14843Y-20668D01*
X14852Y-20667D01*
X14867D01*
X14871Y-20668D01*
D02*
G37*
G36*
X15241Y-21058D02*
X15194D01*
Y-20758D01*
X15193Y-20758D01*
X15191Y-20760D01*
X15187Y-20764D01*
X15182Y-20768D01*
X15176Y-20773D01*
X15168Y-20778D01*
X15159Y-20784D01*
X15149Y-20790D01*
X15149D01*
X15148Y-20791D01*
X15147Y-20792D01*
X15145Y-20793D01*
X15139Y-20796D01*
X15133Y-20799D01*
X15125Y-20803D01*
X15117Y-20807D01*
X15108Y-20811D01*
X15100Y-20815D01*
Y-20769D01*
X15100D01*
X15102Y-20768D01*
X15104Y-20767D01*
X15106Y-20765D01*
X15110Y-20764D01*
X15114Y-20761D01*
X15123Y-20756D01*
X15134Y-20750D01*
X15146Y-20742D01*
X15157Y-20733D01*
X15169Y-20724D01*
X15169Y-20723D01*
X15170Y-20723D01*
X15172Y-20721D01*
X15174Y-20719D01*
X15179Y-20714D01*
X15185Y-20707D01*
X15192Y-20700D01*
X15199Y-20691D01*
X15205Y-20682D01*
X15211Y-20672D01*
X15241D01*
Y-21058D01*
D02*
G37*
%LPC*%
G36*
X8984Y-22936D02*
X8926D01*
Y-23128D01*
X8984D01*
X8986Y-23128D01*
X8988D01*
X8991Y-23128D01*
X8994Y-23128D01*
X9000Y-23127D01*
X9006Y-23126D01*
X9013Y-23125D01*
X9016Y-23124D01*
X9018Y-23124D01*
X9019D01*
X9019Y-23124D01*
X9020Y-23123D01*
X9021Y-23123D01*
X9022Y-23122D01*
X9023Y-23122D01*
X9027Y-23120D01*
X9030Y-23118D01*
X9034Y-23116D01*
X9038Y-23113D01*
X9041Y-23111D01*
X9041Y-23110D01*
X9042Y-23110D01*
X9042Y-23109D01*
X9043Y-23108D01*
X9044Y-23107D01*
X9045Y-23106D01*
X9046Y-23104D01*
X9048Y-23102D01*
X9049Y-23100D01*
X9051Y-23098D01*
X9052Y-23095D01*
X9054Y-23092D01*
X9055Y-23089D01*
X9057Y-23086D01*
X9058Y-23082D01*
X9060Y-23079D01*
Y-23079D01*
X9060Y-23078D01*
X9060Y-23077D01*
X9061Y-23075D01*
X9061Y-23073D01*
X9062Y-23071D01*
X9062Y-23068D01*
X9063Y-23065D01*
X9064Y-23062D01*
X9064Y-23058D01*
X9065Y-23054D01*
X9065Y-23050D01*
X9066Y-23045D01*
X9066Y-23041D01*
X9066Y-23035D01*
Y-23030D01*
Y-23030D01*
Y-23030D01*
Y-23029D01*
Y-23028D01*
Y-23027D01*
Y-23026D01*
X9066Y-23024D01*
X9066Y-23020D01*
X9066Y-23016D01*
X9065Y-23012D01*
X9065Y-23008D01*
X9064Y-23003D01*
X9063Y-22998D01*
X9062Y-22993D01*
X9061Y-22988D01*
X9059Y-22983D01*
X9058Y-22978D01*
X9056Y-22974D01*
X9053Y-22970D01*
X9053Y-22969D01*
X9053Y-22969D01*
X9052Y-22968D01*
X9051Y-22966D01*
X9050Y-22964D01*
X9048Y-22962D01*
X9046Y-22960D01*
X9044Y-22958D01*
X9042Y-22956D01*
X9040Y-22953D01*
X9037Y-22951D01*
X9034Y-22948D01*
X9032Y-22946D01*
X9028Y-22944D01*
X9025Y-22942D01*
X9022Y-22941D01*
X9021D01*
X9021Y-22941D01*
X9020Y-22940D01*
X9019Y-22940D01*
X9018Y-22940D01*
X9016Y-22939D01*
X9014Y-22939D01*
X9011Y-22938D01*
X9008Y-22938D01*
X9005Y-22937D01*
X9002Y-22937D01*
X8998Y-22936D01*
X8993Y-22936D01*
X8989Y-22936D01*
X8984Y-22936D01*
D02*
G37*
G36*
X7486Y-23623D02*
X7401D01*
Y-23706D01*
X7478D01*
X7481Y-23706D01*
X7486Y-23706D01*
X7491Y-23705D01*
X7498Y-23704D01*
X7503Y-23703D01*
X7508Y-23702D01*
X7509Y-23701D01*
X7511Y-23701D01*
X7513Y-23700D01*
X7516Y-23698D01*
X7519Y-23696D01*
X7522Y-23694D01*
X7525Y-23690D01*
X7528Y-23687D01*
X7528Y-23686D01*
X7529Y-23685D01*
X7530Y-23683D01*
X7532Y-23680D01*
X7533Y-23677D01*
X7534Y-23673D01*
X7535Y-23669D01*
X7535Y-23664D01*
Y-23664D01*
Y-23663D01*
Y-23662D01*
X7535Y-23661D01*
X7534Y-23658D01*
X7533Y-23654D01*
X7532Y-23649D01*
X7529Y-23644D01*
X7526Y-23639D01*
X7522Y-23635D01*
X7521Y-23634D01*
X7519Y-23633D01*
X7516Y-23631D01*
X7512Y-23629D01*
X7509Y-23628D01*
X7506Y-23626D01*
X7503Y-23625D01*
X7499Y-23625D01*
X7495Y-23624D01*
X7491Y-23623D01*
X7486Y-23623D01*
D02*
G37*
G36*
X6278Y-23665D02*
X6243D01*
Y-23781D01*
X6278D01*
X6279Y-23781D01*
X6280D01*
X6282Y-23780D01*
X6284Y-23780D01*
X6287Y-23780D01*
X6291Y-23779D01*
X6295Y-23779D01*
X6297Y-23778D01*
X6298Y-23778D01*
X6298D01*
X6299Y-23778D01*
X6299Y-23778D01*
X6300Y-23777D01*
X6301Y-23777D01*
X6301Y-23777D01*
X6303Y-23776D01*
X6305Y-23775D01*
X6308Y-23773D01*
X6310Y-23772D01*
X6312Y-23770D01*
X6312Y-23770D01*
X6312Y-23770D01*
X6313Y-23769D01*
X6313Y-23769D01*
X6314Y-23768D01*
X6314Y-23767D01*
X6315Y-23766D01*
X6316Y-23765D01*
X6317Y-23764D01*
X6318Y-23762D01*
X6319Y-23761D01*
X6320Y-23759D01*
X6321Y-23757D01*
X6321Y-23755D01*
X6322Y-23753D01*
X6323Y-23751D01*
Y-23751D01*
X6323Y-23750D01*
X6323Y-23750D01*
X6324Y-23749D01*
X6324Y-23748D01*
X6324Y-23746D01*
X6325Y-23745D01*
X6325Y-23743D01*
X6325Y-23741D01*
X6326Y-23739D01*
X6326Y-23736D01*
X6326Y-23734D01*
X6327Y-23731D01*
X6327Y-23728D01*
X6327Y-23725D01*
Y-23722D01*
Y-23722D01*
Y-23722D01*
Y-23721D01*
Y-23721D01*
Y-23720D01*
Y-23720D01*
X6327Y-23718D01*
X6327Y-23716D01*
X6327Y-23714D01*
X6326Y-23711D01*
X6326Y-23709D01*
X6326Y-23706D01*
X6325Y-23703D01*
X6325Y-23700D01*
X6324Y-23697D01*
X6323Y-23694D01*
X6322Y-23691D01*
X6321Y-23688D01*
X6319Y-23686D01*
X6319Y-23686D01*
X6319Y-23685D01*
X6318Y-23684D01*
X6318Y-23684D01*
X6317Y-23683D01*
X6316Y-23681D01*
X6315Y-23680D01*
X6314Y-23679D01*
X6313Y-23677D01*
X6311Y-23676D01*
X6310Y-23674D01*
X6308Y-23673D01*
X6306Y-23672D01*
X6304Y-23670D01*
X6302Y-23669D01*
X6300Y-23669D01*
X6300D01*
X6300Y-23668D01*
X6299Y-23668D01*
X6299Y-23668D01*
X6298Y-23668D01*
X6297Y-23668D01*
X6296Y-23667D01*
X6294Y-23667D01*
X6292Y-23667D01*
X6291Y-23666D01*
X6288Y-23666D01*
X6286Y-23666D01*
X6283Y-23666D01*
X6281Y-23665D01*
X6278Y-23665D01*
D02*
G37*
G36*
X8317Y-22424D02*
X8249D01*
Y-22514D01*
X8317D01*
X8319Y-22514D01*
X8321Y-22514D01*
X8325Y-22513D01*
X8328Y-22513D01*
X8332Y-22513D01*
X8339Y-22511D01*
X8343Y-22510D01*
X8347Y-22509D01*
X8350Y-22508D01*
X8354Y-22506D01*
X8357Y-22504D01*
X8360Y-22502D01*
X8360Y-22502D01*
X8360Y-22501D01*
X8361Y-22501D01*
X8362Y-22500D01*
X8363Y-22498D01*
X8364Y-22497D01*
X8365Y-22495D01*
X8366Y-22493D01*
X8368Y-22491D01*
X8369Y-22488D01*
X8370Y-22486D01*
X8371Y-22483D01*
X8372Y-22479D01*
X8373Y-22476D01*
X8373Y-22472D01*
X8373Y-22468D01*
Y-22468D01*
Y-22467D01*
Y-22467D01*
X8373Y-22465D01*
Y-22464D01*
X8373Y-22462D01*
X8372Y-22461D01*
X8372Y-22459D01*
X8371Y-22455D01*
X8370Y-22450D01*
X8368Y-22446D01*
X8367Y-22443D01*
X8365Y-22441D01*
Y-22441D01*
X8365Y-22441D01*
X8364Y-22440D01*
X8364Y-22439D01*
X8362Y-22437D01*
X8360Y-22435D01*
X8356Y-22433D01*
X8353Y-22430D01*
X8349Y-22428D01*
X8344Y-22426D01*
X8344D01*
X8344Y-22426D01*
X8343D01*
X8342Y-22426D01*
X8342Y-22426D01*
X8340Y-22425D01*
X8339Y-22425D01*
X8337Y-22425D01*
X8335Y-22425D01*
X8333Y-22425D01*
X8330Y-22424D01*
X8327Y-22424D01*
X8324Y-22424D01*
X8321D01*
X8317Y-22424D01*
D02*
G37*
G36*
X9391Y-21308D02*
X9389D01*
X9387Y-21308D01*
X9385Y-21309D01*
X9382Y-21309D01*
X9378Y-21309D01*
X9374Y-21310D01*
X9369Y-21311D01*
X9365Y-21313D01*
X9360Y-21314D01*
X9354Y-21316D01*
X9349Y-21319D01*
X9344Y-21322D01*
X9339Y-21325D01*
X9334Y-21329D01*
X9329Y-21334D01*
X9329Y-21334D01*
X9328Y-21335D01*
X9327Y-21336D01*
X9325Y-21338D01*
X9324Y-21341D01*
X9321Y-21344D01*
X9319Y-21348D01*
X9317Y-21353D01*
X9315Y-21358D01*
X9313Y-21364D01*
X9310Y-21370D01*
X9309Y-21376D01*
X9307Y-21384D01*
X9306Y-21392D01*
X9305Y-21400D01*
X9305Y-21410D01*
Y-21410D01*
Y-21410D01*
Y-21411D01*
Y-21412D01*
X9305Y-21413D01*
Y-21414D01*
Y-21416D01*
X9305Y-21418D01*
X9305Y-21420D01*
X9305Y-21422D01*
X9306Y-21427D01*
X9307Y-21432D01*
X9308Y-21438D01*
X9309Y-21444D01*
X9311Y-21450D01*
X9313Y-21456D01*
X9315Y-21462D01*
X9318Y-21468D01*
X9321Y-21474D01*
X9325Y-21480D01*
X9329Y-21485D01*
X9329Y-21485D01*
X9330Y-21486D01*
X9331Y-21487D01*
X9333Y-21489D01*
X9336Y-21491D01*
X9339Y-21493D01*
X9342Y-21496D01*
X9346Y-21498D01*
X9350Y-21501D01*
X9355Y-21503D01*
X9360Y-21505D01*
X9365Y-21507D01*
X9371Y-21509D01*
X9378Y-21510D01*
X9384Y-21511D01*
X9391Y-21511D01*
X9393D01*
X9394Y-21511D01*
X9396D01*
X9398Y-21511D01*
X9400Y-21511D01*
X9402Y-21510D01*
X9404Y-21510D01*
X9407Y-21510D01*
X9413Y-21509D01*
X9419Y-21507D01*
X9425Y-21505D01*
X9424Y-21505D01*
X9424Y-21504D01*
X9423Y-21504D01*
X9422Y-21503D01*
X9420Y-21502D01*
X9419Y-21501D01*
X9417Y-21500D01*
X9415Y-21499D01*
X9412Y-21498D01*
X9410Y-21497D01*
X9404Y-21494D01*
X9398Y-21492D01*
X9392Y-21490D01*
X9400Y-21466D01*
X9400D01*
X9401Y-21466D01*
X9403Y-21467D01*
X9405Y-21467D01*
X9407Y-21468D01*
X9410Y-21469D01*
X9413Y-21471D01*
X9417Y-21472D01*
X9420Y-21474D01*
X9424Y-21475D01*
X9428Y-21477D01*
X9432Y-21480D01*
X9436Y-21482D01*
X9440Y-21485D01*
X9444Y-21487D01*
X9447Y-21490D01*
X9448Y-21490D01*
X9449Y-21489D01*
X9450Y-21487D01*
X9452Y-21485D01*
X9454Y-21482D01*
X9457Y-21479D01*
X9459Y-21475D01*
X9462Y-21470D01*
X9465Y-21465D01*
X9468Y-21459D01*
X9470Y-21452D01*
X9472Y-21445D01*
X9474Y-21437D01*
X9476Y-21429D01*
X9477Y-21420D01*
X9477Y-21410D01*
Y-21409D01*
Y-21409D01*
Y-21407D01*
X9477Y-21405D01*
X9477Y-21402D01*
X9476Y-21399D01*
X9476Y-21395D01*
X9476Y-21392D01*
X9475Y-21388D01*
X9474Y-21383D01*
X9473Y-21379D01*
X9473Y-21374D01*
X9471Y-21370D01*
X9470Y-21365D01*
X9468Y-21361D01*
X9466Y-21356D01*
X9466Y-21356D01*
X9466Y-21355D01*
X9465Y-21354D01*
X9464Y-21353D01*
X9463Y-21351D01*
X9462Y-21348D01*
X9461Y-21346D01*
X9459Y-21343D01*
X9457Y-21341D01*
X9454Y-21338D01*
X9452Y-21335D01*
X9449Y-21332D01*
X9446Y-21329D01*
X9443Y-21326D01*
X9440Y-21324D01*
X9436Y-21321D01*
X9436Y-21321D01*
X9435Y-21320D01*
X9434Y-21320D01*
X9432Y-21319D01*
X9430Y-21318D01*
X9428Y-21317D01*
X9426Y-21316D01*
X9423Y-21315D01*
X9420Y-21313D01*
X9416Y-21312D01*
X9412Y-21311D01*
X9408Y-21310D01*
X9404Y-21309D01*
X9400Y-21309D01*
X9396Y-21308D01*
X9391Y-21308D01*
D02*
G37*
G36*
X6146Y-21387D02*
X6145D01*
X6143Y-21387D01*
X6140Y-21387D01*
X6137Y-21388D01*
X6133Y-21388D01*
X6129Y-21389D01*
X6125Y-21390D01*
X6120Y-21391D01*
X6115Y-21393D01*
X6110Y-21395D01*
X6105Y-21398D01*
X6099Y-21401D01*
X6094Y-21404D01*
X6089Y-21408D01*
X6085Y-21412D01*
X6084Y-21413D01*
X6084Y-21414D01*
X6082Y-21415D01*
X6081Y-21417D01*
X6079Y-21420D01*
X6077Y-21423D01*
X6075Y-21427D01*
X6072Y-21432D01*
X6070Y-21437D01*
X6068Y-21442D01*
X6066Y-21448D01*
X6064Y-21455D01*
X6062Y-21463D01*
X6061Y-21471D01*
X6060Y-21479D01*
X6060Y-21489D01*
Y-21489D01*
Y-21489D01*
Y-21490D01*
Y-21491D01*
X6060Y-21492D01*
Y-21493D01*
Y-21495D01*
X6060Y-21497D01*
X6061Y-21499D01*
X6061Y-21501D01*
X6061Y-21505D01*
X6062Y-21511D01*
X6063Y-21516D01*
X6064Y-21522D01*
X6066Y-21529D01*
X6068Y-21535D01*
X6070Y-21541D01*
X6073Y-21547D01*
X6076Y-21553D01*
X6080Y-21559D01*
X6084Y-21564D01*
X6085Y-21564D01*
X6085Y-21565D01*
X6087Y-21566D01*
X6089Y-21568D01*
X6091Y-21570D01*
X6094Y-21572D01*
X6097Y-21575D01*
X6101Y-21577D01*
X6105Y-21579D01*
X6110Y-21582D01*
X6115Y-21584D01*
X6121Y-21586D01*
X6127Y-21588D01*
X6133Y-21589D01*
X6139Y-21590D01*
X6146Y-21590D01*
X6148D01*
X6149Y-21590D01*
X6151D01*
X6153Y-21590D01*
X6155Y-21590D01*
X6157Y-21589D01*
X6160Y-21589D01*
X6162Y-21588D01*
X6168Y-21587D01*
X6174Y-21586D01*
X6180Y-21584D01*
X6180Y-21583D01*
X6179Y-21583D01*
X6179Y-21583D01*
X6177Y-21582D01*
X6176Y-21581D01*
X6174Y-21580D01*
X6172Y-21579D01*
X6170Y-21578D01*
X6168Y-21577D01*
X6165Y-21576D01*
X6160Y-21573D01*
X6153Y-21571D01*
X6147Y-21569D01*
X6155Y-21545D01*
X6156D01*
X6156Y-21545D01*
X6158Y-21546D01*
X6160Y-21546D01*
X6162Y-21547D01*
X6165Y-21548D01*
X6169Y-21549D01*
X6172Y-21551D01*
X6176Y-21552D01*
X6179Y-21554D01*
X6183Y-21556D01*
X6187Y-21558D01*
X6191Y-21561D01*
X6195Y-21563D01*
X6199Y-21566D01*
X6203Y-21569D01*
X6203Y-21569D01*
X6204Y-21568D01*
X6205Y-21566D01*
X6207Y-21564D01*
X6210Y-21561D01*
X6212Y-21558D01*
X6215Y-21553D01*
X6217Y-21549D01*
X6220Y-21543D01*
X6223Y-21537D01*
X6225Y-21531D01*
X6228Y-21524D01*
X6229Y-21516D01*
X6231Y-21507D01*
X6232Y-21498D01*
X6232Y-21489D01*
Y-21488D01*
Y-21487D01*
Y-21486D01*
X6232Y-21483D01*
X6232Y-21481D01*
X6232Y-21478D01*
X6231Y-21474D01*
X6231Y-21470D01*
X6230Y-21466D01*
X6230Y-21462D01*
X6229Y-21458D01*
X6228Y-21453D01*
X6227Y-21448D01*
X6225Y-21444D01*
X6223Y-21440D01*
X6222Y-21435D01*
X6221Y-21435D01*
X6221Y-21434D01*
X6221Y-21433D01*
X6220Y-21431D01*
X6219Y-21430D01*
X6217Y-21427D01*
X6216Y-21425D01*
X6214Y-21422D01*
X6212Y-21419D01*
X6210Y-21416D01*
X6207Y-21414D01*
X6205Y-21411D01*
X6201Y-21408D01*
X6198Y-21405D01*
X6195Y-21402D01*
X6191Y-21400D01*
X6191Y-21400D01*
X6190Y-21399D01*
X6189Y-21399D01*
X6188Y-21398D01*
X6186Y-21397D01*
X6184Y-21396D01*
X6181Y-21394D01*
X6178Y-21393D01*
X6175Y-21392D01*
X6171Y-21391D01*
X6168Y-21390D01*
X6164Y-21389D01*
X6160Y-21388D01*
X6155Y-21388D01*
X6151Y-21387D01*
X6146Y-21387D01*
D02*
G37*
G36*
X9973Y-965D02*
X9852D01*
Y-1091D01*
X9967D01*
X9969Y-1091D01*
X9973D01*
X9977Y-1091D01*
X9981Y-1090D01*
X9989Y-1090D01*
X9998Y-1088D01*
X10007Y-1086D01*
X10011Y-1085D01*
X10015Y-1084D01*
X10015D01*
X10016Y-1084D01*
X10017Y-1083D01*
X10018Y-1083D01*
X10020Y-1082D01*
X10022Y-1081D01*
X10026Y-1079D01*
X10031Y-1075D01*
X10036Y-1072D01*
X10041Y-1067D01*
X10045Y-1061D01*
Y-1061D01*
X10046Y-1060D01*
X10046Y-1060D01*
X10047Y-1059D01*
X10048Y-1057D01*
X10048Y-1055D01*
X10050Y-1051D01*
X10052Y-1046D01*
X10054Y-1040D01*
X10055Y-1034D01*
X10055Y-1027D01*
Y-1027D01*
Y-1026D01*
Y-1024D01*
X10055Y-1023D01*
X10055Y-1020D01*
X10054Y-1018D01*
X10054Y-1014D01*
X10053Y-1011D01*
X10052Y-1008D01*
X10050Y-1004D01*
X10049Y-1000D01*
X10047Y-997D01*
X10044Y-993D01*
X10042Y-989D01*
X10039Y-986D01*
X10035Y-982D01*
X10035Y-982D01*
X10035Y-982D01*
X10033Y-981D01*
X10032Y-980D01*
X10030Y-978D01*
X10027Y-977D01*
X10024Y-975D01*
X10020Y-973D01*
X10016Y-972D01*
X10012Y-970D01*
X10006Y-969D01*
X10001Y-967D01*
X9995Y-966D01*
X9988Y-965D01*
X9981Y-965D01*
X9973Y-965D01*
D02*
G37*
G36*
X20120Y117D02*
X19999Y-57D01*
X20120D01*
Y117D01*
D02*
G37*
G36*
X2582Y-3495D02*
X2581D01*
X2580D01*
X2579D01*
X2577Y-3495D01*
X2575Y-3496D01*
X2572Y-3496D01*
X2570Y-3496D01*
X2566Y-3497D01*
X2560Y-3499D01*
X2556Y-3501D01*
X2552Y-3502D01*
X2549Y-3505D01*
X2545Y-3507D01*
X2541Y-3510D01*
X2538Y-3513D01*
X2538Y-3513D01*
X2537Y-3514D01*
X2536Y-3515D01*
X2535Y-3516D01*
X2534Y-3518D01*
X2533Y-3520D01*
X2531Y-3522D01*
X2529Y-3525D01*
X2528Y-3528D01*
X2526Y-3532D01*
X2525Y-3535D01*
X2523Y-3539D01*
X2522Y-3543D01*
X2521Y-3548D01*
X2521Y-3552D01*
X2520Y-3557D01*
Y-3560D01*
X2521Y-3562D01*
X2521Y-3564D01*
X2521Y-3567D01*
X2522Y-3570D01*
X2523Y-3573D01*
X2525Y-3580D01*
X2526Y-3584D01*
X2528Y-3588D01*
X2530Y-3591D01*
X2532Y-3595D01*
X2535Y-3599D01*
X2538Y-3602D01*
X2538Y-3602D01*
X2539Y-3603D01*
X2539Y-3604D01*
X2541Y-3605D01*
X2543Y-3606D01*
X2544Y-3607D01*
X2547Y-3609D01*
X2549Y-3611D01*
X2552Y-3612D01*
X2555Y-3614D01*
X2562Y-3617D01*
X2566Y-3618D01*
X2570Y-3619D01*
X2574Y-3619D01*
X2579Y-3619D01*
X2579D01*
X2580D01*
X2581D01*
X2583Y-3619D01*
X2586Y-3619D01*
X2588Y-3619D01*
X2591Y-3618D01*
X2595Y-3617D01*
X2602Y-3615D01*
X2605Y-3614D01*
X2609Y-3612D01*
X2613Y-3610D01*
X2616Y-3608D01*
X2620Y-3605D01*
X2623Y-3602D01*
X2623Y-3602D01*
X2624Y-3601D01*
X2625Y-3600D01*
X2626Y-3599D01*
X2627Y-3597D01*
X2629Y-3595D01*
X2630Y-3593D01*
X2632Y-3590D01*
X2633Y-3587D01*
X2635Y-3583D01*
X2636Y-3580D01*
X2638Y-3576D01*
X2639Y-3571D01*
X2639Y-3567D01*
X2640Y-3562D01*
X2640Y-3557D01*
Y-3554D01*
X2640Y-3552D01*
X2640Y-3550D01*
X2639Y-3547D01*
X2639Y-3544D01*
X2638Y-3541D01*
X2636Y-3534D01*
X2635Y-3530D01*
X2633Y-3527D01*
X2631Y-3523D01*
X2629Y-3519D01*
X2626Y-3516D01*
X2623Y-3512D01*
X2623Y-3512D01*
X2623Y-3512D01*
X2622Y-3511D01*
X2620Y-3510D01*
X2619Y-3508D01*
X2617Y-3507D01*
X2614Y-3505D01*
X2612Y-3504D01*
X2609Y-3502D01*
X2606Y-3501D01*
X2598Y-3498D01*
X2595Y-3497D01*
X2590Y-3496D01*
X2586Y-3495D01*
X2582Y-3495D01*
D02*
G37*
G36*
X2757Y-3479D02*
X2757D01*
X2756D01*
X2754Y-3480D01*
X2752D01*
X2749Y-3480D01*
X2745Y-3480D01*
X2742Y-3481D01*
X2738Y-3482D01*
X2733Y-3483D01*
X2729Y-3485D01*
X2724Y-3487D01*
X2719Y-3489D01*
X2715Y-3491D01*
X2710Y-3494D01*
X2705Y-3498D01*
X2701Y-3502D01*
X2701Y-3502D01*
X2700Y-3503D01*
X2699Y-3504D01*
X2698Y-3506D01*
X2696Y-3508D01*
X2694Y-3511D01*
X2692Y-3514D01*
X2690Y-3517D01*
X2688Y-3521D01*
X2686Y-3525D01*
X2684Y-3530D01*
X2682Y-3535D01*
X2681Y-3540D01*
X2680Y-3546D01*
X2679Y-3552D01*
X2679Y-3558D01*
Y-3562D01*
X2679Y-3564D01*
X2679Y-3567D01*
X2680Y-3570D01*
X2681Y-3574D01*
X2682Y-3578D01*
X2683Y-3582D01*
X2684Y-3586D01*
X2686Y-3591D01*
X2688Y-3596D01*
X2691Y-3600D01*
X2694Y-3605D01*
X2697Y-3609D01*
X2701Y-3613D01*
X2701Y-3614D01*
X2702Y-3614D01*
X2703Y-3615D01*
X2705Y-3617D01*
X2707Y-3618D01*
X2710Y-3620D01*
X2713Y-3622D01*
X2716Y-3624D01*
X2720Y-3626D01*
X2724Y-3628D01*
X2728Y-3630D01*
X2733Y-3632D01*
X2739Y-3633D01*
X2744Y-3634D01*
X2750Y-3635D01*
X2756Y-3635D01*
X2756D01*
X2757D01*
X2758D01*
X2759Y-3635D01*
X2761D01*
X2763Y-3634D01*
X2766Y-3634D01*
X2768Y-3634D01*
X2774Y-3633D01*
X2780Y-3631D01*
X2787Y-3629D01*
X2795Y-3625D01*
X2795D01*
X2795Y-3625D01*
X2796Y-3624D01*
X2798Y-3624D01*
X2799Y-3623D01*
X2801Y-3622D01*
X2805Y-3618D01*
X2810Y-3614D01*
X2815Y-3610D01*
X2820Y-3604D01*
X2824Y-3597D01*
Y-3597D01*
X2824Y-3596D01*
X2825Y-3595D01*
X2825Y-3594D01*
X2826Y-3592D01*
X2827Y-3590D01*
X2828Y-3588D01*
X2829Y-3585D01*
X2831Y-3579D01*
X2832Y-3572D01*
X2833Y-3565D01*
X2834Y-3557D01*
Y-3555D01*
X2834Y-3553D01*
Y-3551D01*
X2833Y-3548D01*
X2833Y-3545D01*
X2832Y-3541D01*
X2831Y-3537D01*
X2830Y-3533D01*
X2829Y-3528D01*
X2827Y-3524D01*
X2825Y-3519D01*
X2822Y-3514D01*
X2820Y-3510D01*
X2816Y-3505D01*
X2812Y-3501D01*
X2812Y-3501D01*
X2811Y-3500D01*
X2810Y-3499D01*
X2808Y-3498D01*
X2806Y-3496D01*
X2804Y-3494D01*
X2801Y-3492D01*
X2797Y-3490D01*
X2794Y-3488D01*
X2789Y-3486D01*
X2785Y-3484D01*
X2780Y-3483D01*
X2775Y-3481D01*
X2769Y-3480D01*
X2763Y-3480D01*
X2757Y-3479D01*
D02*
G37*
G36*
X2588Y-3796D02*
X2587D01*
X2587D01*
X2585D01*
X2583Y-3796D01*
X2581Y-3796D01*
X2578Y-3797D01*
X2575Y-3797D01*
X2572Y-3798D01*
X2569Y-3799D01*
X2565Y-3801D01*
X2561Y-3802D01*
X2558Y-3804D01*
X2554Y-3806D01*
X2550Y-3809D01*
X2546Y-3812D01*
X2543Y-3816D01*
X2543Y-3816D01*
X2542Y-3816D01*
X2541Y-3818D01*
X2540Y-3819D01*
X2539Y-3821D01*
X2538Y-3824D01*
X2536Y-3827D01*
X2534Y-3831D01*
X2533Y-3835D01*
X2531Y-3839D01*
X2530Y-3845D01*
X2528Y-3850D01*
X2527Y-3856D01*
X2526Y-3863D01*
X2526Y-3870D01*
X2525Y-3878D01*
Y-3999D01*
X2652D01*
Y-3884D01*
X2652Y-3881D01*
Y-3878D01*
X2651Y-3874D01*
X2651Y-3870D01*
X2650Y-3861D01*
X2649Y-3852D01*
X2647Y-3843D01*
X2646Y-3840D01*
X2645Y-3836D01*
Y-3835D01*
X2645Y-3835D01*
X2644Y-3834D01*
X2644Y-3832D01*
X2643Y-3831D01*
X2642Y-3829D01*
X2639Y-3825D01*
X2636Y-3820D01*
X2632Y-3815D01*
X2628Y-3810D01*
X2622Y-3806D01*
X2622D01*
X2621Y-3805D01*
X2620Y-3805D01*
X2619Y-3804D01*
X2618Y-3803D01*
X2616Y-3802D01*
X2612Y-3801D01*
X2607Y-3799D01*
X2601Y-3797D01*
X2595Y-3796D01*
X2588Y-3796D01*
D02*
G37*
G36*
X3178Y-5494D02*
X3177D01*
X3175Y-5494D01*
X3173D01*
X3170Y-5495D01*
X3167Y-5495D01*
X3163Y-5496D01*
X3160Y-5497D01*
X3155Y-5498D01*
X3151Y-5499D01*
X3147Y-5501D01*
X3142Y-5504D01*
X3137Y-5506D01*
X3133Y-5509D01*
X3128Y-5513D01*
X3124Y-5517D01*
X3124Y-5517D01*
X3123Y-5518D01*
X3122Y-5519D01*
X3121Y-5521D01*
X3119Y-5523D01*
X3117Y-5526D01*
X3115Y-5529D01*
X3113Y-5533D01*
X3111Y-5537D01*
X3109Y-5541D01*
X3107Y-5546D01*
X3106Y-5552D01*
X3104Y-5558D01*
X3103Y-5564D01*
X3102Y-5570D01*
X3102Y-5577D01*
Y-5577D01*
Y-5578D01*
Y-5579D01*
X3102Y-5581D01*
Y-5583D01*
X3103Y-5585D01*
X3103Y-5589D01*
X3103Y-5592D01*
X3104Y-5599D01*
X3106Y-5607D01*
X3109Y-5615D01*
X3112Y-5623D01*
Y-5624D01*
X3113Y-5624D01*
X3113Y-5626D01*
X3114Y-5627D01*
X3115Y-5629D01*
X3116Y-5631D01*
X3120Y-5636D01*
X3124Y-5641D01*
X3129Y-5647D01*
X3134Y-5653D01*
X3141Y-5657D01*
X3141D01*
X3142Y-5658D01*
X3143Y-5658D01*
X3144Y-5659D01*
X3146Y-5660D01*
X3148Y-5661D01*
X3150Y-5662D01*
X3153Y-5663D01*
X3158Y-5665D01*
X3165Y-5667D01*
X3172Y-5668D01*
X3180Y-5669D01*
X3181D01*
X3183Y-5668D01*
X3185D01*
X3187Y-5668D01*
X3190Y-5667D01*
X3194Y-5667D01*
X3198Y-5666D01*
X3201Y-5664D01*
X3206Y-5663D01*
X3210Y-5661D01*
X3214Y-5659D01*
X3218Y-5656D01*
X3223Y-5653D01*
X3227Y-5649D01*
X3231Y-5645D01*
X3231Y-5644D01*
X3232Y-5644D01*
X3233Y-5642D01*
X3234Y-5640D01*
X3236Y-5638D01*
X3238Y-5635D01*
X3240Y-5631D01*
X3242Y-5628D01*
X3244Y-5623D01*
X3246Y-5618D01*
X3248Y-5613D01*
X3249Y-5607D01*
X3251Y-5601D01*
X3252Y-5594D01*
X3252Y-5587D01*
X3253Y-5579D01*
Y-5579D01*
Y-5578D01*
Y-5576D01*
X3252Y-5573D01*
X3252Y-5569D01*
X3252Y-5566D01*
X3251Y-5561D01*
X3250Y-5557D01*
X3249Y-5552D01*
X3247Y-5547D01*
X3246Y-5541D01*
X3244Y-5536D01*
X3241Y-5531D01*
X3238Y-5526D01*
X3235Y-5521D01*
X3231Y-5517D01*
X3231Y-5517D01*
X3230Y-5516D01*
X3229Y-5515D01*
X3227Y-5513D01*
X3225Y-5512D01*
X3223Y-5510D01*
X3220Y-5507D01*
X3217Y-5505D01*
X3213Y-5503D01*
X3209Y-5501D01*
X3205Y-5499D01*
X3200Y-5497D01*
X3195Y-5496D01*
X3190Y-5495D01*
X3184Y-5494D01*
X3178Y-5494D01*
D02*
G37*
G36*
X2855Y-5360D02*
X2734D01*
Y-5487D01*
X2849D01*
X2851Y-5486D01*
X2855D01*
X2858Y-5486D01*
X2863Y-5486D01*
X2871Y-5485D01*
X2880Y-5484D01*
X2889Y-5482D01*
X2893Y-5481D01*
X2897Y-5480D01*
X2897D01*
X2898Y-5479D01*
X2899Y-5479D01*
X2900Y-5478D01*
X2902Y-5477D01*
X2904Y-5477D01*
X2908Y-5474D01*
X2913Y-5471D01*
X2918Y-5467D01*
X2923Y-5462D01*
X2927Y-5457D01*
Y-5456D01*
X2927Y-5456D01*
X2928Y-5455D01*
X2929Y-5454D01*
X2929Y-5453D01*
X2930Y-5451D01*
X2932Y-5446D01*
X2934Y-5441D01*
X2935Y-5436D01*
X2937Y-5429D01*
X2937Y-5422D01*
Y-5422D01*
Y-5421D01*
Y-5420D01*
X2937Y-5418D01*
X2937Y-5415D01*
X2936Y-5413D01*
X2935Y-5410D01*
X2935Y-5407D01*
X2934Y-5403D01*
X2932Y-5400D01*
X2931Y-5396D01*
X2929Y-5392D01*
X2926Y-5388D01*
X2924Y-5385D01*
X2921Y-5381D01*
X2917Y-5378D01*
X2917Y-5377D01*
X2916Y-5377D01*
X2915Y-5376D01*
X2914Y-5375D01*
X2911Y-5374D01*
X2909Y-5372D01*
X2906Y-5371D01*
X2902Y-5369D01*
X2898Y-5367D01*
X2893Y-5366D01*
X2888Y-5364D01*
X2883Y-5363D01*
X2876Y-5362D01*
X2870Y-5361D01*
X2863Y-5360D01*
X2855Y-5360D01*
D02*
G37*
G36*
X3153Y-4748D02*
X3144D01*
X3142Y-4749D01*
X3139D01*
X3136Y-4749D01*
X3129Y-4751D01*
X3120Y-4754D01*
X3111Y-4758D01*
X3102Y-4764D01*
X3097Y-4767D01*
X3093Y-4771D01*
Y-4772D01*
X3092Y-4772D01*
X3091Y-4774D01*
X3090Y-4775D01*
X3086Y-4780D01*
X3082Y-4787D01*
X3078Y-4796D01*
X3075Y-4806D01*
X3072Y-4818D01*
X3072Y-4825D01*
X3071Y-4832D01*
Y-4832D01*
Y-4833D01*
Y-4836D01*
X3072Y-4841D01*
X3073Y-4847D01*
X3074Y-4854D01*
X3075Y-4862D01*
X3078Y-4870D01*
X3081Y-4879D01*
X3082Y-4880D01*
X3083Y-4882D01*
X3086Y-4886D01*
X3089Y-4891D01*
X3093Y-4897D01*
X3098Y-4902D01*
X3104Y-4907D01*
X3110Y-4912D01*
X3111Y-4913D01*
X3113Y-4914D01*
X3117Y-4916D01*
X3122Y-4918D01*
X3128Y-4920D01*
X3135Y-4922D01*
X3142Y-4923D01*
X3149Y-4924D01*
X3152D01*
X3154Y-4923D01*
X3160Y-4922D01*
X3167Y-4921D01*
X3175Y-4918D01*
X3184Y-4914D01*
X3192Y-4908D01*
X3197Y-4904D01*
X3201Y-4900D01*
X3201Y-4899D01*
X3202Y-4899D01*
X3203Y-4897D01*
X3204Y-4895D01*
X3206Y-4893D01*
X3208Y-4890D01*
X3210Y-4886D01*
X3212Y-4883D01*
X3215Y-4873D01*
X3219Y-4862D01*
X3221Y-4849D01*
X3222Y-4842D01*
Y-4834D01*
Y-4834D01*
Y-4832D01*
Y-4830D01*
X3222Y-4828D01*
Y-4824D01*
X3221Y-4820D01*
X3220Y-4811D01*
X3217Y-4801D01*
X3213Y-4791D01*
X3208Y-4781D01*
X3205Y-4776D01*
X3201Y-4771D01*
Y-4771D01*
X3200Y-4770D01*
X3197Y-4768D01*
X3192Y-4764D01*
X3186Y-4760D01*
X3178Y-4756D01*
X3169Y-4752D01*
X3159Y-4749D01*
X3153Y-4748D01*
D02*
G37*
%LPD*%
D10*
X8798Y-22028D02*
Y-20807D01*
Y-22028D02*
X10178D01*
Y-20807D01*
X8798D02*
X10178D01*
X5650Y-22050D02*
X6870D01*
Y-20864D01*
X5650D02*
X6870D01*
X5650Y-22050D02*
Y-20864D01*
X8998Y-622D02*
X10435D01*
Y1150D01*
X8998D02*
X10435D01*
X8998Y-622D02*
Y1150D01*
D13*
X20914Y-25591D02*
G03*
X20914Y-25591I-1229J0D01*
G01*
Y0D02*
G03*
X20914Y0I-1229J0D01*
G01*
X1229D02*
G03*
X1229Y0I-1229J0D01*
G01*
Y-25591D02*
G03*
X1229Y-25591I-1229J0D01*
G01*
X16909Y-21634D02*
Y-20256D01*
X15846Y-21634D02*
Y-20256D01*
X16909D01*
X15846Y-21634D02*
X16909D01*
X8770Y-23583D02*
Y-22480D01*
X9419D01*
Y-23583D02*
Y-22480D01*
X8770Y-23583D02*
X9419D01*
X7202Y-23878D02*
X7891D01*
Y-23563D01*
X7202D02*
X7891D01*
X7202Y-23878D02*
Y-23563D01*
X6169Y-23819D02*
X6484D01*
Y-23622D01*
X6169D02*
X6484D01*
X6169Y-23819D02*
Y-23622D01*
X-1339Y-22598D02*
Y-18228D01*
Y-22598D02*
X5039D01*
Y-18228D01*
X-1339D02*
X5039D01*
X14429Y-21634D02*
X15492D01*
X14429Y-20256D02*
X15492D01*
X14429Y-21634D02*
Y-20256D01*
X15492Y-21634D02*
Y-20256D01*
X17362Y-18209D02*
X20591D01*
Y-22736D02*
Y-18209D01*
X17362Y-22736D02*
Y-18209D01*
Y-22736D02*
X20591D01*
X2447Y-5295D02*
X3510D01*
X2447Y-5728D02*
Y-5295D01*
Y-5728D02*
X3510D01*
Y-5295D01*
X2889Y-4268D02*
Y-3205D01*
X2456D02*
X2889D01*
X2456Y-4268D02*
Y-3205D01*
Y-4268D02*
X2889D01*
X-3091Y-5639D02*
Y-2039D01*
X827D01*
Y-5639D02*
Y-2039D01*
X-3091Y-5639D02*
X827D01*
X2447Y-4983D02*
X3510D01*
Y-4550D01*
X2447D02*
X3510D01*
X2447Y-4983D02*
Y-4550D01*
X9618Y-1330D02*
Y-897D01*
X10681D01*
Y-1330D02*
Y-897D01*
X9618Y-1330D02*
X10681D01*
X8358Y-464D02*
X8791D01*
X8358D02*
Y599D01*
X8791D01*
Y-464D02*
Y599D01*
D14*
X20665Y-27162D02*
G03*
X21237Y-26590I0J572D01*
G01*
X21237Y1276D02*
G03*
X20853Y1660I-384J0D01*
G01*
X-1112Y1663D02*
G03*
X-1575Y1200I0J-463D01*
G01*
X-1575Y-26702D02*
G03*
X-1112Y-27165I463J0D01*
G01*
X21237Y-26590D02*
X21237Y1276D01*
X20299Y1693D02*
X20345Y1739D01*
X-1112Y1663D02*
X20853D01*
X-1113Y-27165D02*
X20665Y-27165D01*
X-1575Y1200D02*
X-1575Y-26702D01*
M02*
