G04*
G04 #@! TF.GenerationSoftware,Altium Limited,Altium Designer,25.8.1 (18)*
G04*
G04 Layer_Color=128*
%FSLAX24Y24*%
%MOIN*%
G70*
G04*
G04 #@! TF.SameCoordinates,0BF7B96A-1ACD-469D-A283-C4C924D5F6B6*
G04*
G04*
G04 #@! TF.FilePolarity,Positive*
G04*
G01*
G75*
%ADD14C,0.0100*%
%ADD25R,0.0315X0.0315*%
G04:AMPARAMS|DCode=74|XSize=77mil|YSize=16.6mil|CornerRadius=8.3mil|HoleSize=0mil|Usage=FLASHONLY|Rotation=0.000|XOffset=0mil|YOffset=0mil|HoleType=Round|Shape=RoundedRectangle|*
%AMROUNDEDRECTD74*
21,1,0.0770,0.0000,0,0,0.0*
21,1,0.0604,0.0166,0,0,0.0*
1,1,0.0166,0.0302,0.0000*
1,1,0.0166,-0.0302,0.0000*
1,1,0.0166,-0.0302,0.0000*
1,1,0.0166,0.0302,0.0000*
%
%ADD74ROUNDEDRECTD74*%
%ADD75R,0.0770X0.0166*%
%ADD76R,0.0874X0.0402*%
D14*
X20665Y-27162D02*
G03*
X21237Y-26590I0J572D01*
G01*
X21237Y1276D02*
G03*
X20853Y1660I-384J0D01*
G01*
X-1112Y1663D02*
G03*
X-1575Y1200I0J-463D01*
G01*
X-1575Y-26702D02*
G03*
X-1112Y-27165I463J0D01*
G01*
X21237Y-26590D02*
X21237Y1276D01*
X20299Y1693D02*
X20345Y1739D01*
X-1112Y1663D02*
X20853D01*
X-1113Y-27165D02*
X20665Y-27165D01*
X-1575Y1200D02*
X-1575Y-26702D01*
D25*
X11732Y-9843D02*
D03*
X12362D02*
D03*
X14528D02*
D03*
X13898D02*
D03*
X3661Y-13504D02*
D03*
X3031D02*
D03*
X5157Y-13465D02*
D03*
X4528D02*
D03*
X13937Y-13268D02*
D03*
X2244Y-10000D02*
D03*
X2874D02*
D03*
X14567Y-13268D02*
D03*
D74*
X14557Y-11191D02*
D03*
X2923Y-11270D02*
D03*
X14557Y-11447D02*
D03*
X2923Y-12037D02*
D03*
Y-11014D02*
D03*
Y-11526D02*
D03*
X14557Y-10679D02*
D03*
Y-11703D02*
D03*
X2923Y-12293D02*
D03*
X14557Y-12215D02*
D03*
Y-11959D02*
D03*
X2923Y-11782D02*
D03*
X14557Y-12726D02*
D03*
Y-12470D02*
D03*
Y-10935D02*
D03*
Y-10423D02*
D03*
X12293D02*
D03*
Y-10679D02*
D03*
Y-10935D02*
D03*
Y-11191D02*
D03*
Y-11447D02*
D03*
Y-11703D02*
D03*
Y-11959D02*
D03*
Y-12215D02*
D03*
Y-12470D02*
D03*
X5187Y-12805D02*
D03*
Y-12293D02*
D03*
Y-12549D02*
D03*
X2923Y-10758D02*
D03*
X5187Y-12037D02*
D03*
X2923Y-10502D02*
D03*
Y-12549D02*
D03*
Y-12805D02*
D03*
X5187Y-11782D02*
D03*
Y-11526D02*
D03*
Y-11270D02*
D03*
Y-11014D02*
D03*
Y-10758D02*
D03*
D75*
X12293Y-12726D02*
D03*
X5187Y-10502D02*
D03*
D76*
X9896Y-12449D02*
D03*
Y-10449D02*
D03*
Y-16449D02*
D03*
X7671Y-9449D02*
D03*
X9896D02*
D03*
Y-11449D02*
D03*
X7671Y-12449D02*
D03*
Y-10449D02*
D03*
X9896Y-13449D02*
D03*
X7671Y-11449D02*
D03*
Y-14449D02*
D03*
X9896Y-15449D02*
D03*
X7671D02*
D03*
X9896Y-14449D02*
D03*
X7671Y-13449D02*
D03*
Y-16449D02*
D03*
M02*
