G04*
G04 #@! TF.GenerationSoftware,Altium Limited,Altium Designer,25.8.1 (18)*
G04*
G04 Layer_Physical_Order=2*
G04 Layer_Color=16711680*
%FSLAX24Y24*%
%MOIN*%
G70*
G04*
G04 #@! TF.SameCoordinates,E7C4B6EF-679D-40F3-B346-0123BADFF20E*
G04*
G04*
G04 #@! TF.FilePolarity,Positive*
G04*
G01*
G75*
%ADD13C,0.0100*%
%ADD17C,0.0039*%
%ADD39R,0.0610X0.0610*%
%ADD40C,0.0610*%
%ADD46C,0.0197*%
%ADD48C,0.0060*%
%ADD49C,0.0800*%
%ADD52C,0.0866*%
%ADD53O,0.1575X0.1181*%
%ADD54C,0.1181*%
%ADD55C,0.0600*%
%ADD56C,0.0787*%
G36*
X30971Y27186D02*
X30973Y27186D01*
X30975Y27186D01*
X31006D01*
X31068Y27173D01*
X31126Y27149D01*
X31178Y27114D01*
X31223Y27070D01*
X31258Y27018D01*
X31282Y26960D01*
X31294Y26898D01*
Y26866D01*
X31294Y-999D01*
Y-1049D01*
X31274Y-1147D01*
X31236Y-1240D01*
X31181Y-1323D01*
X31110Y-1393D01*
X31027Y-1449D01*
X30935Y-1487D01*
X30837Y-1507D01*
X30787D01*
X30787Y-1507D01*
X30787Y-1507D01*
X-1113Y-1510D01*
X-1151Y-1510D01*
X-1228Y-1495D01*
X-1300Y-1465D01*
X-1366Y-1421D01*
X-1421Y-1366D01*
X-1465Y-1300D01*
X-1495Y-1228D01*
X-1510Y-1151D01*
Y-1112D01*
X-1510Y26791D01*
Y26830D01*
X-1495Y26907D01*
X-1465Y26980D01*
X-1421Y27045D01*
X-1366Y27100D01*
X-1300Y27144D01*
X-1228Y27174D01*
X-1151Y27189D01*
X-1112D01*
X30904Y27189D01*
X30971Y27186D01*
D02*
G37*
%LPC*%
G36*
X15386Y26501D02*
X15323D01*
X15265Y26477D01*
X15220Y26432D01*
X15196Y26374D01*
Y26311D01*
X15220Y26253D01*
X15265Y26208D01*
X15323Y26184D01*
X15386D01*
X15444Y26208D01*
X15489Y26253D01*
X15513Y26311D01*
Y26374D01*
X15489Y26432D01*
X15444Y26477D01*
X15386Y26501D01*
D02*
G37*
G36*
X15695Y25336D02*
X15632D01*
X15574Y25311D01*
X15531Y25269D01*
X15256D01*
X15221Y25262D01*
X15191Y25242D01*
X8045Y18096D01*
X8025Y18067D01*
X8018Y18032D01*
Y11921D01*
X7981Y11906D01*
X7937Y11861D01*
X7912Y11803D01*
Y11740D01*
X7937Y11682D01*
X7981Y11637D01*
X8039Y11613D01*
X8102D01*
X8161Y11637D01*
X8205Y11682D01*
X8229Y11740D01*
Y11803D01*
X8205Y11861D01*
X8200Y11866D01*
X8202Y11875D01*
Y17993D01*
X15294Y25085D01*
X15531D01*
X15574Y25043D01*
X15632Y25019D01*
X15695D01*
X15753Y25043D01*
X15798Y25087D01*
X15804Y25103D01*
X15819Y25112D01*
X15839Y25142D01*
X15846Y25177D01*
X15839Y25212D01*
X15819Y25242D01*
X15804Y25252D01*
X15798Y25267D01*
X15753Y25311D01*
X15695Y25336D01*
D02*
G37*
G36*
X29528Y26807D02*
X29337Y26792D01*
X29152Y26747D01*
X28975Y26674D01*
X28813Y26574D01*
X28668Y26450D01*
X28544Y26305D01*
X28444Y26143D01*
X28371Y25966D01*
X28326Y25781D01*
X28311Y25591D01*
X28326Y25400D01*
X28371Y25215D01*
X28444Y25038D01*
X28544Y24876D01*
X28668Y24731D01*
X28813Y24607D01*
X28975Y24507D01*
X29152Y24434D01*
X29337Y24389D01*
X29528Y24374D01*
X29718Y24389D01*
X29903Y24434D01*
X30080Y24507D01*
X30242Y24607D01*
X30387Y24731D01*
X30511Y24876D01*
X30611Y25038D01*
X30684Y25215D01*
X30729Y25400D01*
X30744Y25591D01*
X30729Y25781D01*
X30684Y25966D01*
X30611Y26143D01*
X30511Y26305D01*
X30387Y26450D01*
X30242Y26574D01*
X30080Y26674D01*
X29903Y26747D01*
X29718Y26792D01*
X29528Y26807D01*
D02*
G37*
G36*
X0D02*
X-190Y26792D01*
X-376Y26747D01*
X-552Y26674D01*
X-715Y26574D01*
X-860Y26450D01*
X-984Y26305D01*
X-1084Y26143D01*
X-1157Y25966D01*
X-1201Y25781D01*
X-1216Y25591D01*
X-1201Y25400D01*
X-1157Y25215D01*
X-1084Y25038D01*
X-984Y24876D01*
X-860Y24731D01*
X-715Y24607D01*
X-552Y24507D01*
X-376Y24434D01*
X-190Y24389D01*
X0Y24374D01*
X190Y24389D01*
X376Y24434D01*
X552Y24507D01*
X715Y24607D01*
X860Y24731D01*
X984Y24876D01*
X1084Y25038D01*
X1157Y25215D01*
X1201Y25400D01*
X1216Y25591D01*
X1201Y25781D01*
X1157Y25966D01*
X1084Y26143D01*
X984Y26305D01*
X860Y26450D01*
X715Y26574D01*
X552Y26674D01*
X376Y26747D01*
X190Y26792D01*
X0Y26807D01*
D02*
G37*
G36*
X198Y23584D02*
X78D01*
X-37Y23553D01*
X-141Y23493D01*
X-225Y23409D01*
X-285Y23305D01*
X-316Y23190D01*
Y23070D01*
X-285Y22955D01*
X-225Y22851D01*
X-141Y22767D01*
X-37Y22707D01*
X78Y22676D01*
X198D01*
X313Y22707D01*
X416Y22767D01*
X501Y22851D01*
X561Y22955D01*
X591Y23070D01*
Y23190D01*
X561Y23305D01*
X501Y23409D01*
X416Y23493D01*
X313Y23553D01*
X198Y23584D01*
D02*
G37*
G36*
X-740Y22998D02*
X-835D01*
X-926Y22973D01*
X-1008Y22926D01*
X-1075Y22859D01*
X-1123Y22777D01*
X-1147Y22685D01*
Y22590D01*
X-1123Y22499D01*
X-1075Y22417D01*
X-1008Y22350D01*
X-926Y22302D01*
X-835Y22278D01*
X-740D01*
X-648Y22302D01*
X-566Y22350D01*
X-499Y22417D01*
X-452Y22499D01*
X-427Y22590D01*
Y22685D01*
X-452Y22777D01*
X-499Y22859D01*
X-566Y22926D01*
X-648Y22973D01*
X-740Y22998D01*
D02*
G37*
G36*
X29480Y22620D02*
X29459D01*
Y22137D01*
X29943D01*
Y22157D01*
X29906Y22292D01*
X29836Y22414D01*
X29737Y22513D01*
X29615Y22583D01*
X29480Y22620D01*
D02*
G37*
G36*
X29359D02*
X29339D01*
X29204Y22583D01*
X29082Y22513D01*
X28983Y22414D01*
X28913Y22292D01*
X28876Y22157D01*
Y22137D01*
X29359D01*
Y22620D01*
D02*
G37*
G36*
X29943Y22037D02*
X29459D01*
Y21554D01*
X29480D01*
X29615Y21590D01*
X29737Y21660D01*
X29836Y21759D01*
X29906Y21881D01*
X29943Y22016D01*
Y22037D01*
D02*
G37*
G36*
X29359D02*
X28876D01*
Y22016D01*
X28913Y21881D01*
X28983Y21759D01*
X29082Y21660D01*
X29204Y21590D01*
X29339Y21554D01*
X29359D01*
Y22037D01*
D02*
G37*
G36*
X-735Y21266D02*
X-737D01*
Y20916D01*
X-387D01*
Y20919D01*
X-415Y21021D01*
X-467Y21112D01*
X-542Y21186D01*
X-633Y21239D01*
X-735Y21266D01*
D02*
G37*
G36*
X-837D02*
X-840D01*
X-942Y21239D01*
X-1033Y21186D01*
X-1107Y21112D01*
X-1160Y21021D01*
X-1187Y20919D01*
Y20916D01*
X-837D01*
Y21266D01*
D02*
G37*
G36*
X-387Y20816D02*
X-737D01*
Y20466D01*
X-735D01*
X-633Y20493D01*
X-542Y20546D01*
X-467Y20621D01*
X-415Y20712D01*
X-387Y20813D01*
Y20816D01*
D02*
G37*
G36*
X-837D02*
X-1187D01*
Y20813D01*
X-1160Y20712D01*
X-1107Y20621D01*
X-1033Y20546D01*
X-942Y20493D01*
X-840Y20466D01*
X-837D01*
Y20816D01*
D02*
G37*
G36*
X198Y20828D02*
X78D01*
X-37Y20797D01*
X-141Y20737D01*
X-225Y20653D01*
X-285Y20549D01*
X-316Y20434D01*
Y20314D01*
X-285Y20199D01*
X-225Y20095D01*
X-141Y20011D01*
X-37Y19951D01*
X78Y19920D01*
X198D01*
X313Y19951D01*
X416Y20011D01*
X501Y20095D01*
X561Y20199D01*
X591Y20314D01*
Y20434D01*
X561Y20549D01*
X501Y20653D01*
X416Y20737D01*
X313Y20797D01*
X198Y20828D01*
D02*
G37*
G36*
X29474Y20611D02*
X29345D01*
X29219Y20578D01*
X29189Y20560D01*
X29139Y20554D01*
X29027Y20507D01*
X28931Y20434D01*
X27018Y18520D01*
X26608Y18930D01*
X26512Y19004D01*
X26479Y19018D01*
X26400Y19051D01*
X26340Y19058D01*
X26280Y19066D01*
X26280Y19066D01*
X20472D01*
X20352Y19051D01*
X20240Y19004D01*
X20144Y18930D01*
X20144Y18930D01*
X19062Y17848D01*
X18988Y17752D01*
X18942Y17640D01*
X18934Y17580D01*
X18926Y17520D01*
X18926Y17520D01*
Y7574D01*
X18058Y6706D01*
X18058Y6706D01*
X17841Y6489D01*
X17328Y5976D01*
X7047D01*
X6927Y5960D01*
X6815Y5914D01*
X6719Y5840D01*
X6645Y5744D01*
X6599Y5632D01*
X6583Y5512D01*
X6599Y5392D01*
X6645Y5280D01*
X6719Y5184D01*
X6815Y5110D01*
X6927Y5064D01*
X7047Y5048D01*
X17520D01*
X17520Y5048D01*
X17640Y5064D01*
X17752Y5110D01*
X17848Y5184D01*
X18497Y5833D01*
X18714Y6050D01*
X18714Y6050D01*
X18871Y6207D01*
X20179Y4898D01*
X20179Y4898D01*
X20216Y4874D01*
X20259Y4866D01*
X22111D01*
X22133Y4843D01*
X22192Y4819D01*
X22255D01*
X22313Y4843D01*
X22357Y4888D01*
X22382Y4946D01*
Y5009D01*
X22357Y5067D01*
X22313Y5112D01*
X22255Y5136D01*
X22192D01*
X22133Y5112D01*
X22111Y5090D01*
X20305D01*
X19029Y6365D01*
X19718Y7054D01*
X19718Y7054D01*
X19760Y7108D01*
X19792Y7150D01*
X19811Y7196D01*
X19838Y7262D01*
X19854Y7382D01*
Y17328D01*
X20665Y18138D01*
X26087D01*
X28959Y15267D01*
X29015Y15170D01*
X29107Y15078D01*
X29219Y15013D01*
X29345Y14979D01*
X29474D01*
X29600Y15013D01*
X29712Y15078D01*
X29804Y15170D01*
X29869Y15282D01*
X29903Y15408D01*
Y15537D01*
X29869Y15663D01*
X29804Y15775D01*
X29712Y15867D01*
X29615Y15923D01*
X27674Y17864D01*
X29435Y19625D01*
X29474D01*
X29600Y19659D01*
X29712Y19724D01*
X29804Y19815D01*
X29869Y19928D01*
X29903Y20053D01*
Y20183D01*
X29869Y20308D01*
X29804Y20421D01*
X29712Y20513D01*
X29600Y20578D01*
X29474Y20611D01*
D02*
G37*
G36*
X29480Y17974D02*
X29459D01*
Y17491D01*
X29943D01*
Y17511D01*
X29906Y17647D01*
X29836Y17768D01*
X29737Y17868D01*
X29615Y17938D01*
X29480Y17974D01*
D02*
G37*
G36*
X29359D02*
X29339D01*
X29204Y17938D01*
X29082Y17868D01*
X28983Y17768D01*
X28913Y17647D01*
X28876Y17511D01*
Y17491D01*
X29359D01*
Y17974D01*
D02*
G37*
G36*
X29943Y17391D02*
X29459D01*
Y16908D01*
X29480D01*
X29615Y16944D01*
X29737Y17014D01*
X29836Y17114D01*
X29906Y17235D01*
X29943Y17371D01*
Y17391D01*
D02*
G37*
G36*
X29359D02*
X28876D01*
Y17371D01*
X28913Y17235D01*
X28983Y17114D01*
X29082Y17014D01*
X29204Y16944D01*
X29339Y16908D01*
X29359D01*
Y17391D01*
D02*
G37*
G36*
X4598Y17521D02*
X4535D01*
X4477Y17497D01*
X4433Y17452D01*
X4408Y17394D01*
Y17331D01*
X4433Y17272D01*
X4475Y17230D01*
Y12534D01*
X4433Y12491D01*
X4408Y12433D01*
Y12370D01*
X4433Y12312D01*
X4477Y12267D01*
X4535Y12243D01*
X4598D01*
X4657Y12267D01*
X4701Y12312D01*
X4725Y12370D01*
Y12433D01*
X4701Y12491D01*
X4659Y12534D01*
Y17230D01*
X4701Y17272D01*
X4725Y17331D01*
Y17394D01*
X4701Y17452D01*
X4657Y17497D01*
X4598Y17521D01*
D02*
G37*
G36*
X7591D02*
X7528D01*
X7469Y17497D01*
X7425Y17452D01*
X7401Y17394D01*
Y17331D01*
X7425Y17272D01*
X7467Y17230D01*
Y12258D01*
X7425Y12216D01*
X7401Y12157D01*
Y12094D01*
X7425Y12036D01*
X7469Y11992D01*
X7528Y11968D01*
X7591D01*
X7649Y11992D01*
X7693Y12036D01*
X7717Y12094D01*
Y12157D01*
X7693Y12216D01*
X7651Y12258D01*
Y17230D01*
X7693Y17272D01*
X7717Y17331D01*
Y17394D01*
X7693Y17452D01*
X7649Y17497D01*
X7591Y17521D01*
D02*
G37*
G36*
X1606Y13032D02*
X1543D01*
X1485Y13008D01*
X1441Y12964D01*
X1416Y12906D01*
Y12843D01*
X1441Y12784D01*
X1485Y12740D01*
X1492Y12737D01*
Y12185D01*
X1485Y12182D01*
X1441Y12137D01*
X1416Y12079D01*
Y12016D01*
X1441Y11957D01*
X1485Y11913D01*
X1543Y11889D01*
X1606D01*
X1665Y11913D01*
X1709Y11957D01*
X1733Y12016D01*
Y12079D01*
X1709Y12137D01*
X1676Y12170D01*
Y12751D01*
X1709Y12784D01*
X1733Y12843D01*
Y12906D01*
X1709Y12964D01*
X1665Y13008D01*
X1606Y13032D01*
D02*
G37*
G36*
X14667Y26015D02*
X14604D01*
X14546Y25991D01*
X14502Y25946D01*
X14477Y25888D01*
Y25828D01*
X7022Y18372D01*
X7002Y18343D01*
X6995Y18307D01*
Y12961D01*
X5928Y11894D01*
X5868D01*
X5810Y11870D01*
X5765Y11825D01*
X5741Y11767D01*
Y11704D01*
X5765Y11646D01*
X5810Y11601D01*
X5868Y11577D01*
X5931D01*
X5989Y11601D01*
X6034Y11646D01*
X6058Y11704D01*
Y11764D01*
X7151Y12858D01*
X7171Y12888D01*
X7178Y12923D01*
Y18269D01*
X14607Y25698D01*
X14667D01*
X14726Y25722D01*
X14770Y25767D01*
X14794Y25825D01*
Y25888D01*
X14770Y25946D01*
X14726Y25991D01*
X14667Y26015D01*
D02*
G37*
G36*
X15504Y24450D02*
X15441D01*
X15383Y24426D01*
X15338Y24381D01*
X15314Y24323D01*
Y24260D01*
X15338Y24202D01*
X15381Y24159D01*
Y24054D01*
X9581Y18254D01*
X9561Y18224D01*
X9554Y18189D01*
Y12370D01*
X9041Y11857D01*
X8981D01*
X8923Y11833D01*
X8878Y11788D01*
X8854Y11730D01*
Y11667D01*
X8878Y11609D01*
X8923Y11564D01*
X8981Y11540D01*
X9044D01*
X9102Y11564D01*
X9147Y11609D01*
X9171Y11667D01*
Y11727D01*
X9711Y12267D01*
X9730Y12297D01*
X9737Y12332D01*
Y18151D01*
X15537Y23951D01*
X15557Y23981D01*
X15564Y24016D01*
Y24159D01*
X15607Y24202D01*
X15631Y24260D01*
Y24323D01*
X15607Y24381D01*
X15562Y24426D01*
X15504Y24450D01*
D02*
G37*
G36*
X2630Y13269D02*
X2567D01*
X2509Y13245D01*
X2464Y13200D01*
X2440Y13142D01*
Y13079D01*
X2464Y13020D01*
X2487Y12998D01*
Y11835D01*
X2469Y11827D01*
X2425Y11783D01*
X2401Y11724D01*
Y11661D01*
X2425Y11603D01*
X2469Y11559D01*
X2528Y11534D01*
X2591D01*
X2649Y11559D01*
X2693Y11603D01*
X2717Y11661D01*
Y11724D01*
X2693Y11783D01*
X2670Y11806D01*
Y12969D01*
X2688Y12976D01*
X2733Y13020D01*
X2757Y13079D01*
Y13142D01*
X2733Y13200D01*
X2688Y13245D01*
X2630Y13269D01*
D02*
G37*
G36*
X3614Y13505D02*
X3551D01*
X3493Y13481D01*
X3448Y13436D01*
X3424Y13378D01*
Y13315D01*
X3448Y13257D01*
X3491Y13214D01*
Y11746D01*
X3448Y11704D01*
X3424Y11646D01*
Y11583D01*
X3448Y11524D01*
X3493Y11480D01*
X3551Y11456D01*
X3614D01*
X3672Y11480D01*
X3717Y11524D01*
X3741Y11583D01*
Y11646D01*
X3717Y11704D01*
X3674Y11746D01*
Y13214D01*
X3717Y13257D01*
X3741Y13315D01*
Y13378D01*
X3717Y13436D01*
X3672Y13481D01*
X3614Y13505D01*
D02*
G37*
G36*
X26083Y17781D02*
X20669D01*
X20623Y17762D01*
X20604Y17717D01*
Y8858D01*
X20623Y8812D01*
X20669Y8793D01*
X26083D01*
X26129Y8812D01*
X26148Y8858D01*
Y17717D01*
X26129Y17762D01*
X26083Y17781D01*
D02*
G37*
G36*
X5583Y17599D02*
X5520D01*
X5461Y17575D01*
X5417Y17531D01*
X5393Y17472D01*
Y17409D01*
X5417Y17351D01*
X5461Y17307D01*
X5479Y17299D01*
Y8735D01*
X5456Y8712D01*
X5432Y8654D01*
Y8591D01*
X5456Y8532D01*
X5501Y8488D01*
X5559Y8464D01*
X5622D01*
X5680Y8488D01*
X5725Y8532D01*
X5749Y8591D01*
Y8654D01*
X5725Y8712D01*
X5680Y8756D01*
X5663Y8764D01*
Y17328D01*
X5685Y17351D01*
X5710Y17409D01*
Y17472D01*
X5685Y17531D01*
X5641Y17575D01*
X5583Y17599D01*
D02*
G37*
G36*
X28601Y8594D02*
X28597D01*
Y8239D01*
X28952D01*
Y8242D01*
X28925Y8345D01*
X28871Y8438D01*
X28796Y8513D01*
X28704Y8566D01*
X28601Y8594D01*
D02*
G37*
G36*
X28497D02*
X28494D01*
X28391Y8566D01*
X28298Y8513D01*
X28223Y8438D01*
X28170Y8345D01*
X28142Y8242D01*
Y8239D01*
X28497D01*
Y8594D01*
D02*
G37*
G36*
X8614Y17521D02*
X8551D01*
X8493Y17497D01*
X8448Y17452D01*
X8424Y17394D01*
Y17331D01*
X8448Y17272D01*
X8491Y17230D01*
Y8164D01*
X8448Y8121D01*
X8424Y8063D01*
Y8000D01*
X8448Y7942D01*
X8493Y7897D01*
X8551Y7873D01*
X8614D01*
X8672Y7897D01*
X8717Y7942D01*
X8741Y8000D01*
Y8063D01*
X8717Y8121D01*
X8674Y8164D01*
Y17230D01*
X8717Y17272D01*
X8741Y17331D01*
Y17394D01*
X8717Y17452D01*
X8672Y17497D01*
X8614Y17521D01*
D02*
G37*
G36*
X29595Y8554D02*
X29499D01*
X29406Y8529D01*
X29323Y8481D01*
X29255Y8413D01*
X29207Y8330D01*
X29182Y8237D01*
Y8141D01*
X29207Y8048D01*
X29255Y7965D01*
X29323Y7897D01*
X29406Y7849D01*
X29499Y7824D01*
X29595D01*
X29688Y7849D01*
X29771Y7897D01*
X29839Y7965D01*
X29887Y8048D01*
X29912Y8141D01*
Y8237D01*
X29887Y8330D01*
X29839Y8413D01*
X29771Y8481D01*
X29688Y8529D01*
X29595Y8554D01*
D02*
G37*
G36*
X28952Y8139D02*
X28597D01*
Y7784D01*
X28601D01*
X28704Y7811D01*
X28796Y7865D01*
X28871Y7940D01*
X28925Y8033D01*
X28952Y8136D01*
Y8139D01*
D02*
G37*
G36*
X28497D02*
X28142D01*
Y8136D01*
X28170Y8033D01*
X28223Y7940D01*
X28298Y7865D01*
X28391Y7811D01*
X28494Y7784D01*
X28497D01*
Y8139D01*
D02*
G37*
G36*
X10583Y17599D02*
X10520D01*
X10461Y17575D01*
X10417Y17531D01*
X10393Y17472D01*
Y17409D01*
X10417Y17351D01*
X10440Y17328D01*
Y7701D01*
X10422Y7693D01*
X10378Y7649D01*
X10353Y7591D01*
Y7528D01*
X10378Y7469D01*
X10422Y7425D01*
X10480Y7401D01*
X10543D01*
X10602Y7425D01*
X10646Y7469D01*
X10670Y7528D01*
Y7591D01*
X10646Y7649D01*
X10623Y7672D01*
Y17299D01*
X10641Y17307D01*
X10685Y17351D01*
X10710Y17409D01*
Y17472D01*
X10685Y17531D01*
X10641Y17575D01*
X10583Y17599D01*
D02*
G37*
G36*
X12591Y17521D02*
X12528D01*
X12469Y17497D01*
X12425Y17452D01*
X12401Y17394D01*
Y17331D01*
X12425Y17272D01*
X12467Y17230D01*
Y7180D01*
X12425Y7137D01*
X12401Y7079D01*
Y7016D01*
X12425Y6957D01*
X12469Y6913D01*
X12528Y6889D01*
X12591D01*
X12649Y6913D01*
X12693Y6957D01*
X12717Y7016D01*
Y7079D01*
X12693Y7137D01*
X12651Y7180D01*
Y17230D01*
X12693Y17272D01*
X12717Y17331D01*
Y17394D01*
X12693Y17452D01*
X12649Y17497D01*
X12591Y17521D01*
D02*
G37*
G36*
X29595Y7554D02*
X29499D01*
X29406Y7529D01*
X29323Y7481D01*
X29255Y7413D01*
X29207Y7330D01*
X29182Y7237D01*
Y7141D01*
X29207Y7048D01*
X29255Y6965D01*
X29323Y6897D01*
X29406Y6849D01*
X29499Y6824D01*
X29595D01*
X29688Y6849D01*
X29771Y6897D01*
X29839Y6965D01*
X29887Y7048D01*
X29912Y7141D01*
Y7237D01*
X29887Y7330D01*
X29839Y7413D01*
X29771Y7481D01*
X29688Y7529D01*
X29595Y7554D01*
D02*
G37*
G36*
X28595D02*
X28499D01*
X28406Y7529D01*
X28323Y7481D01*
X28255Y7413D01*
X28207Y7330D01*
X28182Y7237D01*
Y7141D01*
X28207Y7048D01*
X28255Y6965D01*
X28323Y6897D01*
X28406Y6849D01*
X28499Y6824D01*
X28595D01*
X28688Y6849D01*
X28771Y6897D01*
X28839Y6965D01*
X28887Y7048D01*
X28912Y7141D01*
Y7237D01*
X28887Y7330D01*
X28839Y7413D01*
X28771Y7481D01*
X28688Y7529D01*
X28595Y7554D01*
D02*
G37*
G36*
X13575Y17521D02*
X13512D01*
X13454Y17497D01*
X13409Y17452D01*
X13385Y17394D01*
Y17331D01*
X13409Y17272D01*
X13452Y17230D01*
Y6746D01*
X13409Y6704D01*
X13385Y6646D01*
Y6583D01*
X13409Y6524D01*
X13454Y6480D01*
X13512Y6456D01*
X13575D01*
X13633Y6480D01*
X13678Y6524D01*
X13702Y6583D01*
Y6646D01*
X13678Y6704D01*
X13635Y6746D01*
Y17230D01*
X13678Y17272D01*
X13702Y17331D01*
Y17394D01*
X13678Y17452D01*
X13633Y17497D01*
X13575Y17521D01*
D02*
G37*
G36*
X4591Y9812D02*
X4528D01*
X4469Y9788D01*
X4425Y9743D01*
X4401Y9685D01*
Y9622D01*
X4425Y9564D01*
X4467Y9521D01*
Y7606D01*
X4474Y7571D01*
X4494Y7541D01*
X5629Y6407D01*
Y6346D01*
X5653Y6288D01*
X5698Y6244D01*
X5756Y6220D01*
X5819D01*
X5877Y6244D01*
X5922Y6288D01*
X5946Y6346D01*
Y6409D01*
X5922Y6468D01*
X5877Y6512D01*
X5819Y6536D01*
X5759D01*
X4651Y7644D01*
Y9521D01*
X4693Y9564D01*
X4717Y9622D01*
Y9685D01*
X4693Y9743D01*
X4649Y9788D01*
X4591Y9812D01*
D02*
G37*
G36*
X14598Y17521D02*
X14535D01*
X14477Y17497D01*
X14433Y17452D01*
X14409Y17394D01*
Y17331D01*
X14433Y17272D01*
X14475Y17230D01*
Y6392D01*
X14433Y6350D01*
X14409Y6291D01*
Y6228D01*
X14433Y6170D01*
X14477Y6126D01*
X14535Y6101D01*
X14598D01*
X14657Y6126D01*
X14701Y6170D01*
X14725Y6228D01*
Y6291D01*
X14701Y6350D01*
X14659Y6392D01*
Y17230D01*
X14701Y17272D01*
X14725Y17331D01*
Y17394D01*
X14701Y17452D01*
X14657Y17497D01*
X14598Y17521D01*
D02*
G37*
G36*
X29595Y6554D02*
X29499D01*
X29406Y6529D01*
X29323Y6481D01*
X29255Y6413D01*
X29207Y6330D01*
X29182Y6237D01*
Y6141D01*
X29207Y6048D01*
X29255Y5965D01*
X29323Y5897D01*
X29406Y5849D01*
X29499Y5824D01*
X29595D01*
X29688Y5849D01*
X29771Y5897D01*
X29839Y5965D01*
X29887Y6048D01*
X29912Y6141D01*
Y6237D01*
X29887Y6330D01*
X29839Y6413D01*
X29771Y6481D01*
X29688Y6529D01*
X29595Y6554D01*
D02*
G37*
G36*
X28595D02*
X28499D01*
X28406Y6529D01*
X28323Y6481D01*
X28255Y6413D01*
X28207Y6330D01*
X28182Y6237D01*
Y6141D01*
X28207Y6048D01*
X28255Y5965D01*
X28323Y5897D01*
X28406Y5849D01*
X28499Y5824D01*
X28595D01*
X28688Y5849D01*
X28771Y5897D01*
X28839Y5965D01*
X28887Y6048D01*
X28912Y6141D01*
Y6237D01*
X28887Y6330D01*
X28839Y6413D01*
X28771Y6481D01*
X28688Y6529D01*
X28595Y6554D01*
D02*
G37*
G36*
X1969Y6206D02*
X1822D01*
Y5562D01*
X2657D01*
X2649Y5647D01*
X2610Y5777D01*
X2545Y5897D01*
X2459Y6002D01*
X2354Y6089D01*
X2234Y6153D01*
X2104Y6192D01*
X1969Y6206D01*
D02*
G37*
G36*
X1722D02*
X1575D01*
X1439Y6192D01*
X1309Y6153D01*
X1189Y6089D01*
X1084Y6002D01*
X998Y5897D01*
X934Y5777D01*
X894Y5647D01*
X886Y5562D01*
X1722D01*
Y6206D01*
D02*
G37*
G36*
X551Y17183D02*
X431Y17167D01*
X319Y17121D01*
X223Y17047D01*
X149Y16951D01*
X103Y16839D01*
X87Y16719D01*
Y16557D01*
Y9094D01*
X87Y9094D01*
X103Y8974D01*
X149Y8863D01*
X223Y8766D01*
X3297Y5692D01*
X3298Y5685D01*
X3305Y5669D01*
X3296Y5639D01*
X3283Y5512D01*
X3296Y5384D01*
X3333Y5262D01*
X3393Y5149D01*
X3475Y5050D01*
X3574Y4968D01*
X3687Y4908D01*
X3809Y4871D01*
X3937Y4858D01*
X4331D01*
X4458Y4871D01*
X4581Y4908D01*
X4694Y4968D01*
X4793Y5050D01*
X4874Y5149D01*
X4935Y5262D01*
X4972Y5384D01*
X4984Y5512D01*
X4972Y5639D01*
X4935Y5762D01*
X4874Y5875D01*
X4793Y5974D01*
X4694Y6055D01*
X4581Y6116D01*
X4458Y6153D01*
X4331Y6166D01*
X4122D01*
X4075Y6227D01*
X4075Y6227D01*
X1015Y9287D01*
Y16557D01*
Y16719D01*
X999Y16839D01*
X953Y16951D01*
X879Y17047D01*
X783Y17121D01*
X671Y17167D01*
X551Y17183D01*
D02*
G37*
G36*
X29595Y5554D02*
X29499D01*
X29406Y5529D01*
X29323Y5481D01*
X29255Y5413D01*
X29207Y5330D01*
X29182Y5237D01*
Y5141D01*
X29207Y5048D01*
X29255Y4965D01*
X29323Y4897D01*
X29406Y4849D01*
X29499Y4824D01*
X29595D01*
X29688Y4849D01*
X29771Y4897D01*
X29839Y4965D01*
X29887Y5048D01*
X29912Y5141D01*
Y5237D01*
X29887Y5330D01*
X29839Y5413D01*
X29771Y5481D01*
X29688Y5529D01*
X29595Y5554D01*
D02*
G37*
G36*
X28595D02*
X28499D01*
X28406Y5529D01*
X28323Y5481D01*
X28255Y5413D01*
X28207Y5330D01*
X28182Y5237D01*
Y5141D01*
X28207Y5048D01*
X28255Y4965D01*
X28323Y4897D01*
X28406Y4849D01*
X28499Y4824D01*
X28595D01*
X28688Y4849D01*
X28771Y4897D01*
X28839Y4965D01*
X28887Y5048D01*
X28912Y5141D01*
Y5237D01*
X28887Y5330D01*
X28839Y5413D01*
X28771Y5481D01*
X28688Y5529D01*
X28595Y5554D01*
D02*
G37*
G36*
X2657Y5462D02*
X1822D01*
Y4818D01*
X1969D01*
X2104Y4831D01*
X2234Y4871D01*
X2354Y4935D01*
X2459Y5021D01*
X2545Y5126D01*
X2610Y5246D01*
X2649Y5376D01*
X2657Y5462D01*
D02*
G37*
G36*
X1722D02*
X886D01*
X894Y5376D01*
X934Y5246D01*
X998Y5126D01*
X1084Y5021D01*
X1189Y4935D01*
X1309Y4871D01*
X1439Y4831D01*
X1575Y4818D01*
X1722D01*
Y5462D01*
D02*
G37*
G36*
X28601Y4594D02*
X28597D01*
Y4239D01*
X28952D01*
Y4242D01*
X28925Y4345D01*
X28871Y4438D01*
X28796Y4513D01*
X28704Y4566D01*
X28601Y4594D01*
D02*
G37*
G36*
X28497D02*
X28494D01*
X28391Y4566D01*
X28298Y4513D01*
X28223Y4438D01*
X28170Y4345D01*
X28142Y4242D01*
Y4239D01*
X28497D01*
Y4594D01*
D02*
G37*
G36*
X29595Y4554D02*
X29499D01*
X29406Y4529D01*
X29323Y4481D01*
X29255Y4413D01*
X29207Y4330D01*
X29182Y4237D01*
Y4141D01*
X29207Y4048D01*
X29255Y3965D01*
X29323Y3897D01*
X29406Y3849D01*
X29499Y3824D01*
X29595D01*
X29688Y3849D01*
X29771Y3897D01*
X29839Y3965D01*
X29887Y4048D01*
X29912Y4141D01*
Y4237D01*
X29887Y4330D01*
X29839Y4413D01*
X29771Y4481D01*
X29688Y4529D01*
X29595Y4554D01*
D02*
G37*
G36*
X28952Y4139D02*
X28597D01*
Y3784D01*
X28601D01*
X28704Y3811D01*
X28796Y3865D01*
X28871Y3940D01*
X28925Y4033D01*
X28952Y4136D01*
Y4139D01*
D02*
G37*
G36*
X28497D02*
X28142D01*
Y4136D01*
X28170Y4033D01*
X28223Y3940D01*
X28298Y3865D01*
X28391Y3811D01*
X28494Y3784D01*
X28497D01*
Y4139D01*
D02*
G37*
G36*
X3150Y4315D02*
X2756D01*
X2628Y4303D01*
X2506Y4265D01*
X2393Y4205D01*
X2294Y4124D01*
X2212Y4025D01*
X2152Y3912D01*
X2115Y3789D01*
X2102Y3661D01*
X2115Y3534D01*
X2152Y3411D01*
X2212Y3298D01*
X2294Y3199D01*
X2393Y3118D01*
X2506Y3057D01*
X2628Y3020D01*
X2756Y3008D01*
X3150D01*
X3277Y3020D01*
X3400Y3057D01*
X3513Y3118D01*
X3612Y3199D01*
X3693Y3298D01*
X3754Y3411D01*
X3791Y3534D01*
X3803Y3661D01*
X3791Y3789D01*
X3754Y3912D01*
X3693Y4025D01*
X3612Y4124D01*
X3513Y4205D01*
X3400Y4265D01*
X3277Y4303D01*
X3150Y4315D01*
D02*
G37*
G36*
X29595Y3554D02*
X29499D01*
X29406Y3529D01*
X29323Y3481D01*
X29255Y3413D01*
X29207Y3330D01*
X29182Y3237D01*
Y3141D01*
X29207Y3048D01*
X29255Y2965D01*
X29323Y2897D01*
X29406Y2849D01*
X29499Y2824D01*
X29595D01*
X29688Y2849D01*
X29771Y2897D01*
X29839Y2965D01*
X29887Y3048D01*
X29912Y3141D01*
Y3237D01*
X29887Y3330D01*
X29839Y3413D01*
X29771Y3481D01*
X29688Y3529D01*
X29595Y3554D01*
D02*
G37*
G36*
X28595D02*
X28499D01*
X28406Y3529D01*
X28323Y3481D01*
X28255Y3413D01*
X28207Y3330D01*
X28182Y3237D01*
Y3141D01*
X28207Y3048D01*
X28255Y2965D01*
X28323Y2897D01*
X28406Y2849D01*
X28499Y2824D01*
X28595D01*
X28688Y2849D01*
X28771Y2897D01*
X28839Y2965D01*
X28887Y3048D01*
X28912Y3141D01*
Y3237D01*
X28887Y3330D01*
X28839Y3413D01*
X28771Y3481D01*
X28688Y3529D01*
X28595Y3554D01*
D02*
G37*
G36*
X28601Y2594D02*
X28597D01*
Y2239D01*
X28952D01*
Y2242D01*
X28925Y2345D01*
X28871Y2438D01*
X28796Y2513D01*
X28704Y2566D01*
X28601Y2594D01*
D02*
G37*
G36*
X28497D02*
X28494D01*
X28391Y2566D01*
X28298Y2513D01*
X28223Y2438D01*
X28170Y2345D01*
X28142Y2242D01*
Y2239D01*
X28497D01*
Y2594D01*
D02*
G37*
G36*
X29595Y2554D02*
X29499D01*
X29406Y2529D01*
X29323Y2481D01*
X29255Y2413D01*
X29207Y2330D01*
X29182Y2237D01*
Y2141D01*
X29207Y2048D01*
X29255Y1965D01*
X29323Y1897D01*
X29406Y1849D01*
X29499Y1824D01*
X29595D01*
X29688Y1849D01*
X29771Y1897D01*
X29839Y1965D01*
X29887Y2048D01*
X29912Y2141D01*
Y2237D01*
X29887Y2330D01*
X29839Y2413D01*
X29771Y2481D01*
X29688Y2529D01*
X29595Y2554D01*
D02*
G37*
G36*
X28952Y2139D02*
X28597D01*
Y1784D01*
X28601D01*
X28704Y1811D01*
X28796Y1865D01*
X28871Y1940D01*
X28925Y2033D01*
X28952Y2136D01*
Y2139D01*
D02*
G37*
G36*
X28497D02*
X28142D01*
Y2136D01*
X28170Y2033D01*
X28223Y1940D01*
X28298Y1865D01*
X28391Y1811D01*
X28494Y1784D01*
X28497D01*
Y2139D01*
D02*
G37*
G36*
X29912Y1554D02*
X29182D01*
Y824D01*
X29912D01*
Y1554D01*
D02*
G37*
G36*
X28595D02*
X28499D01*
X28406Y1529D01*
X28323Y1481D01*
X28255Y1413D01*
X28207Y1330D01*
X28182Y1237D01*
Y1141D01*
X28207Y1048D01*
X28255Y965D01*
X28323Y897D01*
X28406Y849D01*
X28499Y824D01*
X28595D01*
X28688Y849D01*
X28771Y897D01*
X28839Y965D01*
X28887Y1048D01*
X28912Y1141D01*
Y1237D01*
X28887Y1330D01*
X28839Y1413D01*
X28771Y1481D01*
X28688Y1529D01*
X28595Y1554D01*
D02*
G37*
G36*
X19685Y1216D02*
X19495Y1201D01*
X19309Y1157D01*
X19133Y1084D01*
X18970Y984D01*
X18825Y860D01*
X18701Y715D01*
X18601Y552D01*
X18528Y376D01*
X18484Y190D01*
X18469Y0D01*
X18484Y-190D01*
X18528Y-376D01*
X18601Y-552D01*
X18701Y-715D01*
X18825Y-860D01*
X18970Y-984D01*
X19133Y-1084D01*
X19309Y-1157D01*
X19495Y-1201D01*
X19685Y-1216D01*
X19875Y-1201D01*
X20061Y-1157D01*
X20237Y-1084D01*
X20400Y-984D01*
X20545Y-860D01*
X20669Y-715D01*
X20769Y-552D01*
X20842Y-376D01*
X20886Y-190D01*
X20901Y0D01*
X20886Y190D01*
X20842Y376D01*
X20769Y552D01*
X20669Y715D01*
X20545Y860D01*
X20400Y984D01*
X20237Y1084D01*
X20061Y1157D01*
X19875Y1201D01*
X19685Y1216D01*
D02*
G37*
G36*
X0D02*
X-190Y1201D01*
X-376Y1157D01*
X-552Y1084D01*
X-715Y984D01*
X-860Y860D01*
X-984Y715D01*
X-1084Y552D01*
X-1157Y376D01*
X-1201Y190D01*
X-1216Y0D01*
X-1201Y-190D01*
X-1157Y-376D01*
X-1084Y-552D01*
X-984Y-715D01*
X-860Y-860D01*
X-715Y-984D01*
X-552Y-1084D01*
X-376Y-1157D01*
X-190Y-1201D01*
X0Y-1216D01*
X190Y-1201D01*
X376Y-1157D01*
X552Y-1084D01*
X715Y-984D01*
X860Y-860D01*
X984Y-715D01*
X1084Y-552D01*
X1157Y-376D01*
X1201Y-190D01*
X1216Y0D01*
X1201Y190D01*
X1157Y376D01*
X1084Y552D01*
X984Y715D01*
X860Y860D01*
X715Y984D01*
X552Y1084D01*
X376Y1157D01*
X190Y1201D01*
X0Y1216D01*
D02*
G37*
%LPD*%
D13*
X20259Y4978D02*
X22223D01*
X18622Y6614D02*
X20259Y4978D01*
X30787Y-1571D02*
G03*
X31359Y-999I0J572D01*
G01*
X31359Y26866D02*
G03*
X30975Y27250I-384J0D01*
G01*
X-1112Y27254D02*
G03*
X-1575Y26791I0J-463D01*
G01*
X-1575Y-1112D02*
G03*
X-1112Y-1575I463J0D01*
G01*
X31359Y-999D02*
X31359Y26866D01*
X30906Y27254D02*
X30975Y27250D01*
X-1112Y27254D02*
X30906Y27254D01*
X-1113Y-1575D02*
X30787Y-1575D01*
X-1575Y26791D02*
X-1575Y-1112D01*
D17*
X20669Y8858D02*
X26083D01*
X20669D02*
Y17717D01*
X26083Y8858D02*
Y17717D01*
X20669D02*
X26083D01*
D39*
X29547Y1189D02*
D03*
D40*
Y2189D02*
D03*
Y3189D02*
D03*
Y4189D02*
D03*
Y5189D02*
D03*
Y6189D02*
D03*
Y7189D02*
D03*
Y8189D02*
D03*
X28547Y1189D02*
D03*
Y2189D02*
D03*
Y3189D02*
D03*
Y4189D02*
D03*
Y5189D02*
D03*
Y6189D02*
D03*
Y7189D02*
D03*
Y8189D02*
D03*
D46*
X15354Y26343D02*
D03*
X28676Y23725D02*
D03*
X29926Y21225D02*
D03*
X28676Y18725D02*
D03*
X29926Y16225D02*
D03*
X28676Y13725D02*
D03*
X29926Y11225D02*
D03*
X28676Y8725D02*
D03*
Y-1275D02*
D03*
X26176Y23725D02*
D03*
X27426Y21225D02*
D03*
Y16225D02*
D03*
Y11225D02*
D03*
X26176Y8725D02*
D03*
Y3725D02*
D03*
Y-1275D02*
D03*
X23676Y23725D02*
D03*
X24926Y21225D02*
D03*
X23676Y-1275D02*
D03*
X21176Y23725D02*
D03*
X22426Y21225D02*
D03*
X21176Y-1275D02*
D03*
X18676Y23725D02*
D03*
X19926Y21225D02*
D03*
X18676Y13725D02*
D03*
Y8725D02*
D03*
Y-1275D02*
D03*
X16176Y23725D02*
D03*
X17426Y21225D02*
D03*
X16176Y18725D02*
D03*
X17426Y16225D02*
D03*
X16176Y13725D02*
D03*
Y3725D02*
D03*
Y-1275D02*
D03*
X14926Y21225D02*
D03*
X13676Y3725D02*
D03*
X14926Y1225D02*
D03*
X13676Y-1275D02*
D03*
X11176Y23725D02*
D03*
Y18725D02*
D03*
Y13725D02*
D03*
X12426Y6225D02*
D03*
X11176Y3725D02*
D03*
X12426Y1225D02*
D03*
X11176Y-1275D02*
D03*
X8676Y23725D02*
D03*
X9926Y16225D02*
D03*
X8676Y3725D02*
D03*
X9926Y1225D02*
D03*
X8676Y-1275D02*
D03*
X6176Y23725D02*
D03*
X7426Y21225D02*
D03*
X6176Y18725D02*
D03*
Y13725D02*
D03*
Y3725D02*
D03*
X7426Y1225D02*
D03*
X6176Y-1275D02*
D03*
X3676Y23725D02*
D03*
X4926Y21225D02*
D03*
Y16225D02*
D03*
X3676Y13725D02*
D03*
Y8725D02*
D03*
X4926Y6225D02*
D03*
Y1225D02*
D03*
X3676Y-1275D02*
D03*
X1176Y23725D02*
D03*
X2426Y21225D02*
D03*
X1176Y18725D02*
D03*
X2426Y16225D02*
D03*
X1176Y13725D02*
D03*
X2426Y6225D02*
D03*
X1176Y3725D02*
D03*
X2426Y1225D02*
D03*
X1176Y-1275D02*
D03*
X-1324Y23725D02*
D03*
X-74Y21225D02*
D03*
X-1324Y18725D02*
D03*
X-74Y16225D02*
D03*
X-1324Y13725D02*
D03*
Y8725D02*
D03*
X-74Y6225D02*
D03*
X-1324Y3725D02*
D03*
Y-1275D02*
D03*
X17795Y7913D02*
D03*
X17205Y8307D02*
D03*
X16142Y9094D02*
D03*
X18661Y9528D02*
D03*
X18583Y8465D02*
D03*
X18386Y7441D02*
D03*
X19646Y6063D02*
D03*
X20354Y5394D02*
D03*
X21457Y5236D02*
D03*
X20984Y7559D02*
D03*
X23622Y7047D02*
D03*
X24291Y6339D02*
D03*
X24370Y7165D02*
D03*
X25651Y6793D02*
D03*
Y7055D02*
D03*
Y7302D02*
D03*
Y2916D02*
D03*
X25512Y8465D02*
D03*
X23189Y8425D02*
D03*
X21220Y8386D02*
D03*
X26457Y10512D02*
D03*
X26417Y12677D02*
D03*
X26457Y14331D02*
D03*
Y15827D02*
D03*
X26535Y17165D02*
D03*
X25236Y17953D02*
D03*
X23228D02*
D03*
X21417D02*
D03*
X20276Y17008D02*
D03*
X20236Y15630D02*
D03*
X20315Y14449D02*
D03*
X20236Y12992D02*
D03*
X3976Y9331D02*
D03*
X3819Y8071D02*
D03*
X4843Y6535D02*
D03*
X10039Y6142D02*
D03*
X8583D02*
D03*
X6850D02*
D03*
X10984Y6496D02*
D03*
X9213Y6772D02*
D03*
X7874Y6732D02*
D03*
X6378Y6850D02*
D03*
X5669Y7441D02*
D03*
X21693Y1024D02*
D03*
X20984Y1063D02*
D03*
X18543Y1024D02*
D03*
X17795Y787D02*
D03*
X16684Y801D02*
D03*
X15433Y906D02*
D03*
X14488Y1575D02*
D03*
X14016Y2087D02*
D03*
X13583Y2520D02*
D03*
X12953Y3189D02*
D03*
X12165Y3858D02*
D03*
X11496Y4567D02*
D03*
X12677Y4528D02*
D03*
X13386Y3780D02*
D03*
X14173Y3110D02*
D03*
X14882Y2362D02*
D03*
X15709Y1732D02*
D03*
X16850D02*
D03*
X18032Y1693D02*
D03*
X18425Y2205D02*
D03*
X17638Y2874D02*
D03*
X16811Y3661D02*
D03*
X15945Y4567D02*
D03*
X15236Y6299D02*
D03*
X16811Y4724D02*
D03*
X17362Y4213D02*
D03*
X17992Y3583D02*
D03*
X18110Y4252D02*
D03*
X18622Y2953D02*
D03*
X19331Y2244D02*
D03*
X20157D02*
D03*
X20787Y2441D02*
D03*
X19449Y3780D02*
D03*
X18150Y5079D02*
D03*
X18780Y4449D02*
D03*
X20039Y3189D02*
D03*
X17559Y4843D02*
D03*
X18780Y3701D02*
D03*
X19488Y3031D02*
D03*
X21299Y2638D02*
D03*
X20827Y3150D02*
D03*
X20118Y3819D02*
D03*
X19488Y4488D02*
D03*
X18898Y5039D02*
D03*
X21378Y3307D02*
D03*
X20748Y3937D02*
D03*
X20118Y4567D02*
D03*
X19488Y5197D02*
D03*
X18937Y5748D02*
D03*
X16929Y6299D02*
D03*
X22795Y3622D02*
D03*
X25118Y3701D02*
D03*
X25000Y7913D02*
D03*
X24094D02*
D03*
X27362Y3622D02*
D03*
X26890Y3150D02*
D03*
X26496Y2756D02*
D03*
X27877Y3991D02*
D03*
X27874Y5512D02*
D03*
Y5984D02*
D03*
X27402Y5787D02*
D03*
X28031Y6417D02*
D03*
X27598D02*
D03*
X27953Y7441D02*
D03*
X27756Y6890D02*
D03*
X21654Y4370D02*
D03*
X21848Y155D02*
D03*
X22223Y4978D02*
D03*
X23346Y4567D02*
D03*
X22283Y5276D02*
D03*
X23387Y5239D02*
D03*
X24567Y4567D02*
D03*
X25551Y4606D02*
D03*
X23543Y5945D02*
D03*
X24213Y5472D02*
D03*
X26732Y4528D02*
D03*
X26280Y3445D02*
D03*
X17047Y7638D02*
D03*
X17717Y6969D02*
D03*
X14567Y6260D02*
D03*
X26929Y2520D02*
D03*
X28012Y3504D02*
D03*
X27874Y2165D02*
D03*
X27480Y1890D02*
D03*
X28115Y1362D02*
D03*
X25651Y7608D02*
D03*
X27795Y12520D02*
D03*
X22559Y7992D02*
D03*
X27402Y2992D02*
D03*
X28130Y2953D02*
D03*
X27795Y4921D02*
D03*
X26575D02*
D03*
X29941Y6693D02*
D03*
X29862Y7638D02*
D03*
X29035Y7480D02*
D03*
Y7008D02*
D03*
X29075Y6457D02*
D03*
X24331Y2835D02*
D03*
X28988Y4739D02*
D03*
X29272Y5669D02*
D03*
X23465Y2953D02*
D03*
X30059Y3740D02*
D03*
X30020Y2638D02*
D03*
X29035Y3465D02*
D03*
X29941Y5709D02*
D03*
X29801Y629D02*
D03*
X30242Y934D02*
D03*
X22165Y1102D02*
D03*
X23504Y1654D02*
D03*
X24291D02*
D03*
X23874Y728D02*
D03*
X29429Y2677D02*
D03*
X29390Y1693D02*
D03*
X29035Y2992D02*
D03*
X29075Y2047D02*
D03*
Y2441D02*
D03*
X27264Y787D02*
D03*
X24331Y2283D02*
D03*
X23465D02*
D03*
X25651Y3180D02*
D03*
X24961Y472D02*
D03*
X28996Y748D02*
D03*
X30098Y4685D02*
D03*
X28169Y787D02*
D03*
X30177Y1850D02*
D03*
X7283Y5630D02*
D03*
X7520D02*
D03*
X7047D02*
D03*
X551Y16811D02*
D03*
Y16557D02*
D03*
X7520Y5394D02*
D03*
X7047D02*
D03*
X7283D02*
D03*
X5551Y17441D02*
D03*
X5591Y8622D02*
D03*
X3583Y13346D02*
D03*
Y11614D02*
D03*
X7559Y12126D02*
D03*
Y17362D02*
D03*
X4559Y9654D02*
D03*
X5787Y6378D02*
D03*
X1575Y12874D02*
D03*
Y12047D02*
D03*
X14567Y17362D02*
D03*
X13543D02*
D03*
Y6614D02*
D03*
X10512Y7559D02*
D03*
X10551Y17441D02*
D03*
X4567Y12402D02*
D03*
Y17362D02*
D03*
X2598Y13110D02*
D03*
X2559Y11693D02*
D03*
X12559Y17362D02*
D03*
Y7047D02*
D03*
X8583Y8031D02*
D03*
Y17362D02*
D03*
X1260Y12362D02*
D03*
X15472Y23268D02*
D03*
X14252Y21969D02*
D03*
X12323Y20079D02*
D03*
X12441Y24843D02*
D03*
X11142Y23150D02*
D03*
X9291Y21496D02*
D03*
X7835Y20000D02*
D03*
X10630Y19921D02*
D03*
X12441Y21614D02*
D03*
X13858Y23150D02*
D03*
X14961Y24213D02*
D03*
X13780Y24331D02*
D03*
X12559Y23110D02*
D03*
X10984Y21575D02*
D03*
X9252Y19843D02*
D03*
X13307Y6142D02*
D03*
X12953Y6575D02*
D03*
X13976Y6220D02*
D03*
X14107Y6831D02*
D03*
X15630Y6772D02*
D03*
X16142Y6260D02*
D03*
X16457Y6772D02*
D03*
X15866Y7283D02*
D03*
X15027Y7321D02*
D03*
X17047Y6850D02*
D03*
X16417Y7480D02*
D03*
X15630Y7795D02*
D03*
X16299Y8268D02*
D03*
X15118Y8346D02*
D03*
X9409D02*
D03*
X11850Y8386D02*
D03*
X11063Y8307D02*
D03*
X11850Y7795D02*
D03*
X11102D02*
D03*
X14016Y7244D02*
D03*
X12992Y7283D02*
D03*
X14016Y7795D02*
D03*
X13068Y7797D02*
D03*
X14055Y8307D02*
D03*
X13110D02*
D03*
X15039Y9449D02*
D03*
X14016Y9409D02*
D03*
X13032Y9488D02*
D03*
X12071Y9085D02*
D03*
X11102Y9252D02*
D03*
X9528Y9331D02*
D03*
X7520Y9252D02*
D03*
X6339Y9213D02*
D03*
X5039Y8150D02*
D03*
X5079Y9409D02*
D03*
X3209Y8820D02*
D03*
X-1181Y9843D02*
D03*
X-794Y11945D02*
D03*
X9882Y11654D02*
D03*
X6969Y11929D02*
D03*
X5039Y11772D02*
D03*
X4055Y12165D02*
D03*
X3031D02*
D03*
X2047Y12047D02*
D03*
X4094Y16575D02*
D03*
X4055Y14921D02*
D03*
X15118Y14606D02*
D03*
X15079Y16063D02*
D03*
Y16929D02*
D03*
X14055Y13858D02*
D03*
Y15433D02*
D03*
Y16535D02*
D03*
X12992Y16732D02*
D03*
Y15315D02*
D03*
X13032Y14055D02*
D03*
X11220D02*
D03*
X11929Y14685D02*
D03*
X11299Y15236D02*
D03*
X11968Y16102D02*
D03*
X11142Y16772D02*
D03*
X10039Y16890D02*
D03*
X10000Y15748D02*
D03*
X10079Y14409D02*
D03*
X9134Y14016D02*
D03*
X9134Y14982D02*
D03*
X9134Y16378D02*
D03*
Y17205D02*
D03*
X8346Y16890D02*
D03*
Y15827D02*
D03*
Y14449D02*
D03*
X7795Y13858D02*
D03*
X7835Y15157D02*
D03*
Y16260D02*
D03*
X8071Y11772D02*
D03*
X7323Y14449D02*
D03*
Y15748D02*
D03*
Y16850D02*
D03*
X6378Y16339D02*
D03*
X6429Y15142D02*
D03*
X6417Y14134D02*
D03*
X5039Y14252D02*
D03*
X5079Y15827D02*
D03*
Y16929D02*
D03*
X16024Y25866D02*
D03*
X16496Y24685D02*
D03*
X15472Y24291D02*
D03*
X14213Y26575D02*
D03*
X14636Y25857D02*
D03*
X15664Y25177D02*
D03*
X6575Y17362D02*
D03*
X9012Y11698D02*
D03*
X5899Y11736D02*
D03*
X6496Y4331D02*
D03*
X5669Y4646D02*
D03*
X-630Y8386D02*
D03*
X1575Y9811D02*
D03*
X6575Y11543D02*
D03*
X16575D02*
D03*
Y9811D02*
D03*
X11575Y11543D02*
D03*
Y9811D02*
D03*
X6575D02*
D03*
X1575Y11543D02*
D03*
X16575Y19173D02*
D03*
Y17441D02*
D03*
X11575Y19173D02*
D03*
Y17441D02*
D03*
X6575Y19173D02*
D03*
X1575Y17441D02*
D03*
Y19173D02*
D03*
X3701Y20827D02*
D03*
D48*
X14567Y6260D02*
Y17362D01*
X5571Y8642D02*
X5591Y8622D01*
X5551Y17441D02*
X5571Y17421D01*
Y8642D02*
Y17421D01*
X3583Y11614D02*
Y13346D01*
X7559Y12126D02*
Y17362D01*
X4559Y7606D02*
Y9654D01*
Y7606D02*
X5787Y6378D01*
X1575Y12874D02*
X1584Y12865D01*
Y12057D02*
Y12865D01*
X1575Y12047D02*
X1584Y12057D01*
X13543Y6614D02*
Y17362D01*
X10512Y7559D02*
X10532Y7579D01*
Y17421D02*
X10551Y17441D01*
X10532Y7579D02*
Y17421D01*
X4567Y12402D02*
Y17362D01*
X2579Y11713D02*
Y13091D01*
X2559Y11693D02*
X2579Y11713D01*
Y13091D02*
X2598Y13110D01*
X12559Y7047D02*
Y17362D01*
X8583Y8031D02*
Y17362D01*
X8097Y11798D02*
Y11862D01*
X8110Y11875D02*
Y18032D01*
X15256Y25177D01*
X8071Y11772D02*
X8097Y11798D01*
Y11862D02*
X8110Y11875D01*
X15472Y24016D02*
Y24291D01*
X9646Y18189D02*
X15472Y24016D01*
X15664Y25177D02*
X15754D01*
X7087Y12923D02*
Y18307D01*
X14636Y25857D01*
X15256Y25177D02*
X15664D01*
X9646Y12332D02*
Y18189D01*
X9012Y11698D02*
X9646Y12332D01*
X5899Y11736D02*
X7087Y12923D01*
D49*
X18386Y6378D02*
X19390Y7382D01*
X18169Y6161D02*
X18386Y6378D01*
X7047Y5512D02*
X17520D01*
X19390Y7382D02*
Y17520D01*
X20472Y18602D02*
X26280D01*
X19390Y17520D02*
X20472Y18602D01*
X26280D02*
X29397Y15485D01*
X27147Y17994D02*
X29259Y20105D01*
X29397D01*
X29409Y20118D01*
X17520Y5512D02*
X18169Y6161D01*
X551Y9094D02*
X3746Y5899D01*
X551Y16557D02*
Y16719D01*
Y9094D02*
Y16557D01*
X3746Y5805D02*
Y5899D01*
Y5805D02*
X4040Y5512D01*
D52*
X29409Y20118D02*
D03*
Y15472D02*
D03*
Y22087D02*
D03*
Y17441D02*
D03*
D53*
X4134Y5512D02*
D03*
X2953Y3661D02*
D03*
X1772Y5512D02*
D03*
D54*
X19685Y0D02*
D03*
X29528Y25591D02*
D03*
X0D02*
D03*
Y0D02*
D03*
D55*
X-787Y22638D02*
D03*
Y20866D02*
D03*
D56*
X138Y20374D02*
D03*
Y23130D02*
D03*
M02*
