G04*
G04 #@! TF.GenerationSoftware,Altium Limited,Altium Designer,25.8.1 (18)*
G04*
G04 Layer_Color=16711935*
%FSLAX24Y24*%
%MOIN*%
G70*
G04*
G04 #@! TF.SameCoordinates,E7C4B6EF-679D-40F3-B346-0123BADFF20E*
G04*
G04*
G04 #@! TF.FilePolarity,Negative*
G04*
G01*
G75*
%ADD13C,0.0100*%
%ADD17C,0.0039*%
%ADD39R,0.0610X0.0610*%
%ADD40C,0.0610*%
%ADD41C,0.0946*%
%ADD42O,0.1655X0.1261*%
%ADD43C,0.2461*%
%ADD44C,0.0680*%
%ADD45C,0.0867*%
%ADD46C,0.0197*%
D13*
X30787Y-1571D02*
G03*
X31359Y-999I0J572D01*
G01*
X31359Y26866D02*
G03*
X30975Y27250I-384J0D01*
G01*
X-1112Y27254D02*
G03*
X-1575Y26791I0J-463D01*
G01*
X-1575Y-1112D02*
G03*
X-1112Y-1575I463J0D01*
G01*
X31359Y-999D02*
X31359Y26866D01*
X30906Y27254D02*
X30975Y27250D01*
X-1112Y27254D02*
X30906Y27254D01*
X-1113Y-1575D02*
X30787Y-1575D01*
X-1575Y26791D02*
X-1575Y-1112D01*
D17*
X20669Y8858D02*
X26083D01*
X20669D02*
Y17717D01*
X26083Y8858D02*
Y17717D01*
X20669D02*
X26083D01*
D39*
X29547Y1189D02*
D03*
D40*
Y2189D02*
D03*
Y3189D02*
D03*
Y4189D02*
D03*
Y5189D02*
D03*
Y6189D02*
D03*
Y7189D02*
D03*
Y8189D02*
D03*
X28547Y1189D02*
D03*
Y2189D02*
D03*
Y3189D02*
D03*
Y4189D02*
D03*
Y5189D02*
D03*
Y6189D02*
D03*
Y7189D02*
D03*
Y8189D02*
D03*
D41*
X29409Y20118D02*
D03*
Y15472D02*
D03*
Y22087D02*
D03*
Y17441D02*
D03*
D42*
X4134Y5512D02*
D03*
X2953Y3661D02*
D03*
X1772Y5512D02*
D03*
D43*
X19685Y0D02*
D03*
X29528Y25591D02*
D03*
X0D02*
D03*
Y0D02*
D03*
D44*
X-787Y22638D02*
D03*
Y20866D02*
D03*
D45*
X138Y20374D02*
D03*
Y23130D02*
D03*
D46*
X15354Y26343D02*
D03*
M02*
