G04*
G04 #@! TF.GenerationSoftware,Altium Limited,Altium Designer,25.8.1 (18)*
G04*
G04 Layer_Color=2752767*
%FSLAX24Y24*%
%MOIN*%
G70*
G04*
G04 #@! TF.SameCoordinates,7FF5DB36-7A27-4332-9A6D-2CD05FB9F9F7*
G04*
G04*
G04 #@! TF.FilePolarity,Positive*
G04*
G01*
G75*
%ADD14C,0.0100*%
%ADD70C,0.0027*%
%ADD71C,0.0020*%
D14*
X20665Y-27162D02*
G03*
X21237Y-26590I0J572D01*
G01*
X21237Y1276D02*
G03*
X20853Y1660I-384J0D01*
G01*
X-1112Y1663D02*
G03*
X-1575Y1200I0J-463D01*
G01*
X-1575Y-26702D02*
G03*
X-1112Y-27165I463J0D01*
G01*
X21237Y-26590D02*
X21237Y1276D01*
X20299Y1693D02*
X20345Y1739D01*
X-1112Y1663D02*
X20853D01*
X-1113Y-27165D02*
X20665Y-27165D01*
X-1575Y1200D02*
X-1575Y-26702D01*
D70*
X19135Y-19488D02*
G03*
X19135Y-19488I-80J0D01*
G01*
Y-21457D02*
G03*
X19135Y-21457I-80J0D01*
G01*
D71*
X-787Y-4804D02*
X-747Y-4764D01*
X-707D01*
X-747Y-4724D01*
X-707Y-4684D01*
X-747D01*
X-787Y-4644D01*
X-827Y-4684D01*
X-867D01*
X-827Y-4724D01*
X-867Y-4764D01*
X-827D01*
X-787Y-4804D01*
X1772Y-20159D02*
X1692Y-19999D01*
X1852D01*
X1772Y-20159D01*
X4134D02*
X4054Y-19999D01*
X4214D01*
X4134Y-20159D01*
X2953Y-22009D02*
X2873Y-21849D01*
X3033D01*
X2953Y-22009D01*
X19605Y-25671D02*
Y-25511D01*
X19765D01*
Y-25671D01*
X19605D01*
Y-80D02*
Y80D01*
X19765D01*
Y-80D01*
X19605D01*
X-80D02*
Y80D01*
X80D01*
Y-80D01*
X-80D01*
Y-25671D02*
Y-25511D01*
X80D01*
Y-25671D01*
X-80D01*
X-787Y-3033D02*
X-747Y-2993D01*
X-707D01*
X-747Y-2953D01*
X-707Y-2913D01*
X-747D01*
X-787Y-2873D01*
X-827Y-2913D01*
X-867D01*
X-827Y-2953D01*
X-867Y-2993D01*
X-827D01*
X-787Y-3033D01*
X58Y-5296D02*
X98Y-5217D01*
X58Y-5137D01*
X138Y-5177D01*
X218Y-5137D01*
X178Y-5217D01*
X218Y-5296D01*
X138Y-5257D01*
X58Y-5296D01*
Y-2541D02*
X98Y-2461D01*
X58Y-2381D01*
X138Y-2421D01*
X218Y-2381D01*
X178Y-2461D01*
X218Y-2541D01*
X138Y-2501D01*
X58Y-2541D01*
X9637Y464D02*
X9677D01*
X9717Y504D01*
X9757Y464D01*
X9797D01*
Y504D01*
X9757Y544D01*
X9797Y584D01*
Y624D01*
X9757D01*
X9717Y584D01*
X9677Y624D01*
X9637D01*
Y584D01*
X9677Y544D01*
X9637Y504D01*
Y464D01*
X20486Y-2988D02*
Y-3028D01*
X20566D01*
Y-2988D01*
X20606D01*
Y-2908D01*
X20566D01*
Y-2868D01*
X20486D01*
Y-2908D01*
X20446D01*
Y-2988D01*
X20486D01*
Y-5350D02*
Y-5390D01*
X20566D01*
Y-5350D01*
X20606D01*
Y-5270D01*
X20566D01*
Y-5230D01*
X20486D01*
Y-5270D01*
X20446D01*
Y-5350D01*
X20486D01*
Y-7712D02*
Y-7752D01*
X20566D01*
Y-7712D01*
X20606D01*
Y-7632D01*
X20566D01*
Y-7592D01*
X20486D01*
Y-7632D01*
X20446D01*
Y-7712D01*
X20486D01*
Y-14799D02*
Y-14839D01*
X20566D01*
Y-14799D01*
X20606D01*
Y-14719D01*
X20566D01*
Y-14679D01*
X20486D01*
Y-14719D01*
X20446D01*
Y-14799D01*
X20486D01*
Y-17161D02*
Y-17201D01*
X20566D01*
Y-17161D01*
X20606D01*
Y-17081D01*
X20566D01*
Y-17041D01*
X20486D01*
Y-17081D01*
X20446D01*
Y-17161D01*
X20486D01*
Y-19523D02*
Y-19563D01*
X20566D01*
Y-19523D01*
X20606D01*
Y-19443D01*
X20566D01*
Y-19403D01*
X20486D01*
Y-19443D01*
X20446D01*
Y-19523D01*
X20486D01*
Y-21885D02*
Y-21925D01*
X20566D01*
Y-21885D01*
X20606D01*
Y-21805D01*
X20566D01*
Y-21765D01*
X20486D01*
Y-21805D01*
X20446D01*
Y-21885D01*
X20486D01*
Y-24248D02*
Y-24288D01*
X20566D01*
Y-24248D01*
X20606D01*
Y-24168D01*
X20566D01*
Y-24128D01*
X20486D01*
Y-24168D01*
X20446D01*
Y-24248D01*
X20486D01*
X19896Y-1807D02*
Y-1847D01*
X19976D01*
Y-1807D01*
X20016D01*
Y-1727D01*
X19976D01*
Y-1687D01*
X19896D01*
Y-1727D01*
X19856D01*
Y-1807D01*
X19896D01*
X19305Y-2988D02*
Y-3028D01*
X19385D01*
Y-2988D01*
X19425D01*
Y-2908D01*
X19385D01*
Y-2868D01*
X19305D01*
Y-2908D01*
X19265D01*
Y-2988D01*
X19305D01*
X19896Y-4169D02*
Y-4209D01*
X19976D01*
Y-4169D01*
X20016D01*
Y-4089D01*
X19976D01*
Y-4049D01*
X19896D01*
Y-4089D01*
X19856D01*
Y-4169D01*
X19896D01*
X19305Y-5350D02*
Y-5390D01*
X19385D01*
Y-5350D01*
X19425D01*
Y-5270D01*
X19385D01*
Y-5230D01*
X19305D01*
Y-5270D01*
X19265D01*
Y-5350D01*
X19305D01*
X19896Y-6531D02*
Y-6571D01*
X19976D01*
Y-6531D01*
X20016D01*
Y-6451D01*
X19976D01*
Y-6411D01*
X19896D01*
Y-6451D01*
X19856D01*
Y-6531D01*
X19896D01*
X19305Y-7712D02*
Y-7752D01*
X19385D01*
Y-7712D01*
X19425D01*
Y-7632D01*
X19385D01*
Y-7592D01*
X19305D01*
Y-7632D01*
X19265D01*
Y-7712D01*
X19305D01*
Y-14799D02*
Y-14839D01*
X19385D01*
Y-14799D01*
X19425D01*
Y-14719D01*
X19385D01*
Y-14679D01*
X19305D01*
Y-14719D01*
X19265D01*
Y-14799D01*
X19305D01*
X19896Y-15980D02*
Y-16020D01*
X19976D01*
Y-15980D01*
X20016D01*
Y-15900D01*
X19976D01*
Y-15860D01*
X19896D01*
Y-15900D01*
X19856D01*
Y-15980D01*
X19896D01*
X19305Y-17161D02*
Y-17201D01*
X19385D01*
Y-17161D01*
X19425D01*
Y-17081D01*
X19385D01*
Y-17041D01*
X19305D01*
Y-17081D01*
X19265D01*
Y-17161D01*
X19305D01*
X19896Y-18342D02*
Y-18382D01*
X19976D01*
Y-18342D01*
X20016D01*
Y-18262D01*
X19976D01*
Y-18222D01*
X19896D01*
Y-18262D01*
X19856D01*
Y-18342D01*
X19896D01*
Y-20704D02*
Y-20744D01*
X19976D01*
Y-20704D01*
X20016D01*
Y-20624D01*
X19976D01*
Y-20584D01*
X19896D01*
Y-20624D01*
X19856D01*
Y-20704D01*
X19896D01*
Y-23067D02*
Y-23107D01*
X19976D01*
Y-23067D01*
X20016D01*
Y-22987D01*
X19976D01*
Y-22947D01*
X19896D01*
Y-22987D01*
X19856D01*
Y-23067D01*
X19896D01*
X19305Y-24248D02*
Y-24288D01*
X19385D01*
Y-24248D01*
X19425D01*
Y-24168D01*
X19385D01*
Y-24128D01*
X19305D01*
Y-24168D01*
X19265D01*
Y-24248D01*
X19305D01*
X18124Y-626D02*
Y-666D01*
X18204D01*
Y-626D01*
X18244D01*
Y-546D01*
X18204D01*
Y-506D01*
X18124D01*
Y-546D01*
X18084D01*
Y-626D01*
X18124D01*
X18715Y-1807D02*
Y-1847D01*
X18795D01*
Y-1807D01*
X18835D01*
Y-1727D01*
X18795D01*
Y-1687D01*
X18715D01*
Y-1727D01*
X18675D01*
Y-1807D01*
X18715D01*
X18124Y-2988D02*
Y-3028D01*
X18204D01*
Y-2988D01*
X18244D01*
Y-2908D01*
X18204D01*
Y-2868D01*
X18124D01*
Y-2908D01*
X18084D01*
Y-2988D01*
X18124D01*
X18715Y-4169D02*
Y-4209D01*
X18795D01*
Y-4169D01*
X18835D01*
Y-4089D01*
X18795D01*
Y-4049D01*
X18715D01*
Y-4089D01*
X18675D01*
Y-4169D01*
X18715D01*
X18124Y-5350D02*
Y-5390D01*
X18204D01*
Y-5350D01*
X18244D01*
Y-5270D01*
X18204D01*
Y-5230D01*
X18124D01*
Y-5270D01*
X18084D01*
Y-5350D01*
X18124D01*
Y-17161D02*
Y-17201D01*
X18204D01*
Y-17161D01*
X18244D01*
Y-17081D01*
X18204D01*
Y-17041D01*
X18124D01*
Y-17081D01*
X18084D01*
Y-17161D01*
X18124D01*
X18715Y-18342D02*
Y-18382D01*
X18795D01*
Y-18342D01*
X18835D01*
Y-18262D01*
X18795D01*
Y-18222D01*
X18715D01*
Y-18262D01*
X18675D01*
Y-18342D01*
X18715D01*
X18124Y-19523D02*
Y-19563D01*
X18204D01*
Y-19523D01*
X18244D01*
Y-19443D01*
X18204D01*
Y-19403D01*
X18124D01*
Y-19443D01*
X18084D01*
Y-19523D01*
X18124D01*
X18715Y-20704D02*
Y-20744D01*
X18795D01*
Y-20704D01*
X18835D01*
Y-20624D01*
X18795D01*
Y-20584D01*
X18715D01*
Y-20624D01*
X18675D01*
Y-20704D01*
X18715D01*
Y-23067D02*
Y-23107D01*
X18795D01*
Y-23067D01*
X18835D01*
Y-22987D01*
X18795D01*
Y-22947D01*
X18715D01*
Y-22987D01*
X18675D01*
Y-23067D01*
X18715D01*
X18124Y-24248D02*
Y-24288D01*
X18204D01*
Y-24248D01*
X18244D01*
Y-24168D01*
X18204D01*
Y-24128D01*
X18124D01*
Y-24168D01*
X18084D01*
Y-24248D01*
X18124D01*
Y-26610D02*
Y-26650D01*
X18204D01*
Y-26610D01*
X18244D01*
Y-26530D01*
X18204D01*
Y-26490D01*
X18124D01*
Y-26530D01*
X18084D01*
Y-26610D01*
X18124D01*
X17534Y556D02*
Y516D01*
X17614D01*
Y556D01*
X17654D01*
Y636D01*
X17614D01*
Y676D01*
X17534D01*
Y636D01*
X17494D01*
Y556D01*
X17534D01*
X16943Y-626D02*
Y-666D01*
X17023D01*
Y-626D01*
X17063D01*
Y-546D01*
X17023D01*
Y-506D01*
X16943D01*
Y-546D01*
X16903D01*
Y-626D01*
X16943D01*
X17534Y-1807D02*
Y-1847D01*
X17614D01*
Y-1807D01*
X17654D01*
Y-1727D01*
X17614D01*
Y-1687D01*
X17534D01*
Y-1727D01*
X17494D01*
Y-1807D01*
X17534D01*
X16943Y-2988D02*
Y-3028D01*
X17023D01*
Y-2988D01*
X17063D01*
Y-2908D01*
X17023D01*
Y-2868D01*
X16943D01*
Y-2908D01*
X16903D01*
Y-2988D01*
X16943D01*
X17534Y-4169D02*
Y-4209D01*
X17614D01*
Y-4169D01*
X17654D01*
Y-4089D01*
X17614D01*
Y-4049D01*
X17534D01*
Y-4089D01*
X17494D01*
Y-4169D01*
X17534D01*
X16943Y-5350D02*
Y-5390D01*
X17023D01*
Y-5350D01*
X17063D01*
Y-5270D01*
X17023D01*
Y-5230D01*
X16943D01*
Y-5270D01*
X16903D01*
Y-5350D01*
X16943D01*
Y-7712D02*
Y-7752D01*
X17023D01*
Y-7712D01*
X17063D01*
Y-7632D01*
X17023D01*
Y-7592D01*
X16943D01*
Y-7632D01*
X16903D01*
Y-7712D01*
X16943D01*
Y-14799D02*
Y-14839D01*
X17023D01*
Y-14799D01*
X17063D01*
Y-14719D01*
X17023D01*
Y-14679D01*
X16943D01*
Y-14719D01*
X16903D01*
Y-14799D01*
X16943D01*
X17534Y-15980D02*
Y-16020D01*
X17614D01*
Y-15980D01*
X17654D01*
Y-15900D01*
X17614D01*
Y-15860D01*
X17534D01*
Y-15900D01*
X17494D01*
Y-15980D01*
X17534D01*
Y-18342D02*
Y-18382D01*
X17614D01*
Y-18342D01*
X17654D01*
Y-18262D01*
X17614D01*
Y-18222D01*
X17534D01*
Y-18262D01*
X17494D01*
Y-18342D01*
X17534D01*
X16943Y-19523D02*
Y-19563D01*
X17023D01*
Y-19523D01*
X17063D01*
Y-19443D01*
X17023D01*
Y-19403D01*
X16943D01*
Y-19443D01*
X16903D01*
Y-19523D01*
X16943D01*
X17534Y-20704D02*
Y-20744D01*
X17614D01*
Y-20704D01*
X17654D01*
Y-20624D01*
X17614D01*
Y-20584D01*
X17534D01*
Y-20624D01*
X17494D01*
Y-20704D01*
X17534D01*
Y-23067D02*
Y-23107D01*
X17614D01*
Y-23067D01*
X17654D01*
Y-22987D01*
X17614D01*
Y-22947D01*
X17534D01*
Y-22987D01*
X17494D01*
Y-23067D01*
X17534D01*
X16943Y-24248D02*
Y-24288D01*
X17023D01*
Y-24248D01*
X17063D01*
Y-24168D01*
X17023D01*
Y-24128D01*
X16943D01*
Y-24168D01*
X16903D01*
Y-24248D01*
X16943D01*
X17534Y-25429D02*
Y-25469D01*
X17614D01*
Y-25429D01*
X17654D01*
Y-25349D01*
X17614D01*
Y-25309D01*
X17534D01*
Y-25349D01*
X17494D01*
Y-25429D01*
X17534D01*
X16943Y-26610D02*
Y-26650D01*
X17023D01*
Y-26610D01*
X17063D01*
Y-26530D01*
X17023D01*
Y-26490D01*
X16943D01*
Y-26530D01*
X16903D01*
Y-26610D01*
X16943D01*
X16352Y556D02*
Y516D01*
X16432D01*
Y556D01*
X16472D01*
Y636D01*
X16432D01*
Y676D01*
X16352D01*
Y636D01*
X16312D01*
Y556D01*
X16352D01*
X15762Y-626D02*
Y-666D01*
X15842D01*
Y-626D01*
X15882D01*
Y-546D01*
X15842D01*
Y-506D01*
X15762D01*
Y-546D01*
X15722D01*
Y-626D01*
X15762D01*
X16352Y-1807D02*
Y-1847D01*
X16432D01*
Y-1807D01*
X16472D01*
Y-1727D01*
X16432D01*
Y-1687D01*
X16352D01*
Y-1727D01*
X16312D01*
Y-1807D01*
X16352D01*
X15762Y-2988D02*
Y-3028D01*
X15842D01*
Y-2988D01*
X15882D01*
Y-2908D01*
X15842D01*
Y-2868D01*
X15762D01*
Y-2908D01*
X15722D01*
Y-2988D01*
X15762D01*
X16352Y-4169D02*
Y-4209D01*
X16432D01*
Y-4169D01*
X16472D01*
Y-4089D01*
X16432D01*
Y-4049D01*
X16352D01*
Y-4089D01*
X16312D01*
Y-4169D01*
X16352D01*
X15762Y-5350D02*
Y-5390D01*
X15842D01*
Y-5350D01*
X15882D01*
Y-5270D01*
X15842D01*
Y-5230D01*
X15762D01*
Y-5270D01*
X15722D01*
Y-5350D01*
X15762D01*
X16352Y-15980D02*
Y-16020D01*
X16432D01*
Y-15980D01*
X16472D01*
Y-15900D01*
X16432D01*
Y-15860D01*
X16352D01*
Y-15900D01*
X16312D01*
Y-15980D01*
X16352D01*
X15762Y-17161D02*
Y-17201D01*
X15842D01*
Y-17161D01*
X15882D01*
Y-17081D01*
X15842D01*
Y-17041D01*
X15762D01*
Y-17081D01*
X15722D01*
Y-17161D01*
X15762D01*
X16352Y-18342D02*
Y-18382D01*
X16432D01*
Y-18342D01*
X16472D01*
Y-18262D01*
X16432D01*
Y-18222D01*
X16352D01*
Y-18262D01*
X16312D01*
Y-18342D01*
X16352D01*
X15762Y-19523D02*
Y-19563D01*
X15842D01*
Y-19523D01*
X15882D01*
Y-19443D01*
X15842D01*
Y-19403D01*
X15762D01*
Y-19443D01*
X15722D01*
Y-19523D01*
X15762D01*
X16352Y-23067D02*
Y-23107D01*
X16432D01*
Y-23067D01*
X16472D01*
Y-22987D01*
X16432D01*
Y-22947D01*
X16352D01*
Y-22987D01*
X16312D01*
Y-23067D01*
X16352D01*
X15762Y-24248D02*
Y-24288D01*
X15842D01*
Y-24248D01*
X15882D01*
Y-24168D01*
X15842D01*
Y-24128D01*
X15762D01*
Y-24168D01*
X15722D01*
Y-24248D01*
X15762D01*
X16352Y-25429D02*
Y-25469D01*
X16432D01*
Y-25429D01*
X16472D01*
Y-25349D01*
X16432D01*
Y-25309D01*
X16352D01*
Y-25349D01*
X16312D01*
Y-25429D01*
X16352D01*
X15762Y-26610D02*
Y-26650D01*
X15842D01*
Y-26610D01*
X15882D01*
Y-26530D01*
X15842D01*
Y-26490D01*
X15762D01*
Y-26530D01*
X15722D01*
Y-26610D01*
X15762D01*
X15171Y556D02*
Y516D01*
X15251D01*
Y556D01*
X15291D01*
Y636D01*
X15251D01*
Y676D01*
X15171D01*
Y636D01*
X15131D01*
Y556D01*
X15171D01*
X14581Y-626D02*
Y-666D01*
X14661D01*
Y-626D01*
X14701D01*
Y-546D01*
X14661D01*
Y-506D01*
X14581D01*
Y-546D01*
X14541D01*
Y-626D01*
X14581D01*
X15171Y-1807D02*
Y-1847D01*
X15251D01*
Y-1807D01*
X15291D01*
Y-1727D01*
X15251D01*
Y-1687D01*
X15171D01*
Y-1727D01*
X15131D01*
Y-1807D01*
X15171D01*
X14581Y-2988D02*
Y-3028D01*
X14661D01*
Y-2988D01*
X14701D01*
Y-2908D01*
X14661D01*
Y-2868D01*
X14581D01*
Y-2908D01*
X14541D01*
Y-2988D01*
X14581D01*
X15171Y-4169D02*
Y-4209D01*
X15251D01*
Y-4169D01*
X15291D01*
Y-4089D01*
X15251D01*
Y-4049D01*
X15171D01*
Y-4089D01*
X15131D01*
Y-4169D01*
X15171D01*
X14581Y-5350D02*
Y-5390D01*
X14661D01*
Y-5350D01*
X14701D01*
Y-5270D01*
X14661D01*
Y-5230D01*
X14581D01*
Y-5270D01*
X14541D01*
Y-5350D01*
X14581D01*
X15171Y-6531D02*
Y-6571D01*
X15251D01*
Y-6531D01*
X15291D01*
Y-6451D01*
X15251D01*
Y-6411D01*
X15171D01*
Y-6451D01*
X15131D01*
Y-6531D01*
X15171D01*
Y-18342D02*
Y-18382D01*
X15251D01*
Y-18342D01*
X15291D01*
Y-18262D01*
X15251D01*
Y-18222D01*
X15171D01*
Y-18262D01*
X15131D01*
Y-18342D01*
X15171D01*
Y-23067D02*
Y-23107D01*
X15251D01*
Y-23067D01*
X15291D01*
Y-22987D01*
X15251D01*
Y-22947D01*
X15171D01*
Y-22987D01*
X15131D01*
Y-23067D01*
X15171D01*
X14581Y-24248D02*
Y-24288D01*
X14661D01*
Y-24248D01*
X14701D01*
Y-24168D01*
X14661D01*
Y-24128D01*
X14581D01*
Y-24168D01*
X14541D01*
Y-24248D01*
X14581D01*
X15171Y-25429D02*
Y-25469D01*
X15251D01*
Y-25429D01*
X15291D01*
Y-25349D01*
X15251D01*
Y-25309D01*
X15171D01*
Y-25349D01*
X15131D01*
Y-25429D01*
X15171D01*
X14581Y-26610D02*
Y-26650D01*
X14661D01*
Y-26610D01*
X14701D01*
Y-26530D01*
X14661D01*
Y-26490D01*
X14581D01*
Y-26530D01*
X14541D01*
Y-26610D01*
X14581D01*
X13990Y556D02*
Y516D01*
X14070D01*
Y556D01*
X14110D01*
Y636D01*
X14070D01*
Y676D01*
X13990D01*
Y636D01*
X13950D01*
Y556D01*
X13990D01*
X13400Y-626D02*
Y-666D01*
X13480D01*
Y-626D01*
X13520D01*
Y-546D01*
X13480D01*
Y-506D01*
X13400D01*
Y-546D01*
X13360D01*
Y-626D01*
X13400D01*
X13990Y-1807D02*
Y-1847D01*
X14070D01*
Y-1807D01*
X14110D01*
Y-1727D01*
X14070D01*
Y-1687D01*
X13990D01*
Y-1727D01*
X13950D01*
Y-1807D01*
X13990D01*
X13400Y-2988D02*
Y-3028D01*
X13480D01*
Y-2988D01*
X13520D01*
Y-2908D01*
X13480D01*
Y-2868D01*
X13400D01*
Y-2908D01*
X13360D01*
Y-2988D01*
X13400D01*
X13990Y-4169D02*
Y-4209D01*
X14070D01*
Y-4169D01*
X14110D01*
Y-4089D01*
X14070D01*
Y-4049D01*
X13990D01*
Y-4089D01*
X13950D01*
Y-4169D01*
X13990D01*
X13400Y-5350D02*
Y-5390D01*
X13480D01*
Y-5350D01*
X13520D01*
Y-5270D01*
X13480D01*
Y-5230D01*
X13400D01*
Y-5270D01*
X13360D01*
Y-5350D01*
X13400D01*
X13990Y-6531D02*
Y-6571D01*
X14070D01*
Y-6531D01*
X14110D01*
Y-6451D01*
X14070D01*
Y-6411D01*
X13990D01*
Y-6451D01*
X13950D01*
Y-6531D01*
X13990D01*
X13400Y-12437D02*
Y-12477D01*
X13480D01*
Y-12437D01*
X13520D01*
Y-12357D01*
X13480D01*
Y-12317D01*
X13400D01*
Y-12357D01*
X13360D01*
Y-12437D01*
X13400D01*
Y-19523D02*
Y-19563D01*
X13480D01*
Y-19523D01*
X13520D01*
Y-19443D01*
X13480D01*
Y-19403D01*
X13400D01*
Y-19443D01*
X13360D01*
Y-19523D01*
X13400D01*
X13990Y-23067D02*
Y-23107D01*
X14070D01*
Y-23067D01*
X14110D01*
Y-22987D01*
X14070D01*
Y-22947D01*
X13990D01*
Y-22987D01*
X13950D01*
Y-23067D01*
X13990D01*
X13400Y-24248D02*
Y-24288D01*
X13480D01*
Y-24248D01*
X13520D01*
Y-24168D01*
X13480D01*
Y-24128D01*
X13400D01*
Y-24168D01*
X13360D01*
Y-24248D01*
X13400D01*
X13990Y-25429D02*
Y-25469D01*
X14070D01*
Y-25429D01*
X14110D01*
Y-25349D01*
X14070D01*
Y-25309D01*
X13990D01*
Y-25349D01*
X13950D01*
Y-25429D01*
X13990D01*
X13400Y-26610D02*
Y-26650D01*
X13480D01*
Y-26610D01*
X13520D01*
Y-26530D01*
X13480D01*
Y-26490D01*
X13400D01*
Y-26530D01*
X13360D01*
Y-26610D01*
X13400D01*
X12809Y556D02*
Y516D01*
X12889D01*
Y556D01*
X12929D01*
Y636D01*
X12889D01*
Y676D01*
X12809D01*
Y636D01*
X12769D01*
Y556D01*
X12809D01*
X12219Y-626D02*
Y-666D01*
X12299D01*
Y-626D01*
X12339D01*
Y-546D01*
X12299D01*
Y-506D01*
X12219D01*
Y-546D01*
X12179D01*
Y-626D01*
X12219D01*
X12809Y-1807D02*
Y-1847D01*
X12889D01*
Y-1807D01*
X12929D01*
Y-1727D01*
X12889D01*
Y-1687D01*
X12809D01*
Y-1727D01*
X12769D01*
Y-1807D01*
X12809D01*
X12219Y-2988D02*
Y-3028D01*
X12299D01*
Y-2988D01*
X12339D01*
Y-2908D01*
X12299D01*
Y-2868D01*
X12219D01*
Y-2908D01*
X12179D01*
Y-2988D01*
X12219D01*
X12809Y-4169D02*
Y-4209D01*
X12889D01*
Y-4169D01*
X12929D01*
Y-4089D01*
X12889D01*
Y-4049D01*
X12809D01*
Y-4089D01*
X12769D01*
Y-4169D01*
X12809D01*
X12219Y-5350D02*
Y-5390D01*
X12299D01*
Y-5350D01*
X12339D01*
Y-5270D01*
X12299D01*
Y-5230D01*
X12219D01*
Y-5270D01*
X12179D01*
Y-5350D01*
X12219D01*
X12809Y-13618D02*
Y-13658D01*
X12889D01*
Y-13618D01*
X12929D01*
Y-13538D01*
X12889D01*
Y-13498D01*
X12809D01*
Y-13538D01*
X12769D01*
Y-13618D01*
X12809D01*
Y-15980D02*
Y-16020D01*
X12889D01*
Y-15980D01*
X12929D01*
Y-15900D01*
X12889D01*
Y-15860D01*
X12809D01*
Y-15900D01*
X12769D01*
Y-15980D01*
X12809D01*
X12219Y-19523D02*
Y-19563D01*
X12299D01*
Y-19523D01*
X12339D01*
Y-19443D01*
X12299D01*
Y-19403D01*
X12219D01*
Y-19443D01*
X12179D01*
Y-19523D01*
X12219D01*
X12809Y-23067D02*
Y-23107D01*
X12889D01*
Y-23067D01*
X12929D01*
Y-22987D01*
X12889D01*
Y-22947D01*
X12809D01*
Y-22987D01*
X12769D01*
Y-23067D01*
X12809D01*
X12219Y-24248D02*
Y-24288D01*
X12299D01*
Y-24248D01*
X12339D01*
Y-24168D01*
X12299D01*
Y-24128D01*
X12219D01*
Y-24168D01*
X12179D01*
Y-24248D01*
X12219D01*
X12809Y-25429D02*
Y-25469D01*
X12889D01*
Y-25429D01*
X12929D01*
Y-25349D01*
X12889D01*
Y-25309D01*
X12809D01*
Y-25349D01*
X12769D01*
Y-25429D01*
X12809D01*
X12219Y-26610D02*
Y-26650D01*
X12299D01*
Y-26610D01*
X12339D01*
Y-26530D01*
X12299D01*
Y-26490D01*
X12219D01*
Y-26530D01*
X12179D01*
Y-26610D01*
X12219D01*
X11628Y556D02*
Y516D01*
X11708D01*
Y556D01*
X11748D01*
Y636D01*
X11708D01*
Y676D01*
X11628D01*
Y636D01*
X11588D01*
Y556D01*
X11628D01*
X11038Y-626D02*
Y-666D01*
X11118D01*
Y-626D01*
X11158D01*
Y-546D01*
X11118D01*
Y-506D01*
X11038D01*
Y-546D01*
X10998D01*
Y-626D01*
X11038D01*
X11628Y-1807D02*
Y-1847D01*
X11708D01*
Y-1807D01*
X11748D01*
Y-1727D01*
X11708D01*
Y-1687D01*
X11628D01*
Y-1727D01*
X11588D01*
Y-1807D01*
X11628D01*
X11038Y-2988D02*
Y-3028D01*
X11118D01*
Y-2988D01*
X11158D01*
Y-2908D01*
X11118D01*
Y-2868D01*
X11038D01*
Y-2908D01*
X10998D01*
Y-2988D01*
X11038D01*
X11628Y-4169D02*
Y-4209D01*
X11708D01*
Y-4169D01*
X11748D01*
Y-4089D01*
X11708D01*
Y-4049D01*
X11628D01*
Y-4089D01*
X11588D01*
Y-4169D01*
X11628D01*
X11038Y-5350D02*
Y-5390D01*
X11118D01*
Y-5350D01*
X11158D01*
Y-5270D01*
X11118D01*
Y-5230D01*
X11038D01*
Y-5270D01*
X10998D01*
Y-5350D01*
X11038D01*
Y-7712D02*
Y-7752D01*
X11118D01*
Y-7712D01*
X11158D01*
Y-7632D01*
X11118D01*
Y-7592D01*
X11038D01*
Y-7632D01*
X10998D01*
Y-7712D01*
X11038D01*
X11628Y-13618D02*
Y-13658D01*
X11708D01*
Y-13618D01*
X11748D01*
Y-13538D01*
X11708D01*
Y-13498D01*
X11628D01*
Y-13538D01*
X11588D01*
Y-13618D01*
X11628D01*
X11038Y-14799D02*
Y-14839D01*
X11118D01*
Y-14799D01*
X11158D01*
Y-14719D01*
X11118D01*
Y-14679D01*
X11038D01*
Y-14719D01*
X10998D01*
Y-14799D01*
X11038D01*
Y-17161D02*
Y-17201D01*
X11118D01*
Y-17161D01*
X11158D01*
Y-17081D01*
X11118D01*
Y-17041D01*
X11038D01*
Y-17081D01*
X10998D01*
Y-17161D01*
X11038D01*
Y-19523D02*
Y-19563D01*
X11118D01*
Y-19523D01*
X11158D01*
Y-19443D01*
X11118D01*
Y-19403D01*
X11038D01*
Y-19443D01*
X10998D01*
Y-19523D01*
X11038D01*
X11628Y-20704D02*
Y-20744D01*
X11708D01*
Y-20704D01*
X11748D01*
Y-20624D01*
X11708D01*
Y-20584D01*
X11628D01*
Y-20624D01*
X11588D01*
Y-20704D01*
X11628D01*
X11038Y-24248D02*
Y-24288D01*
X11118D01*
Y-24248D01*
X11158D01*
Y-24168D01*
X11118D01*
Y-24128D01*
X11038D01*
Y-24168D01*
X10998D01*
Y-24248D01*
X11038D01*
X11628Y-25429D02*
Y-25469D01*
X11708D01*
Y-25429D01*
X11748D01*
Y-25349D01*
X11708D01*
Y-25309D01*
X11628D01*
Y-25349D01*
X11588D01*
Y-25429D01*
X11628D01*
X11038Y-26610D02*
Y-26650D01*
X11118D01*
Y-26610D01*
X11158D01*
Y-26530D01*
X11118D01*
Y-26490D01*
X11038D01*
Y-26530D01*
X10998D01*
Y-26610D01*
X11038D01*
X10447Y556D02*
Y516D01*
X10527D01*
Y556D01*
X10567D01*
Y636D01*
X10527D01*
Y676D01*
X10447D01*
Y636D01*
X10407D01*
Y556D01*
X10447D01*
Y-1807D02*
Y-1847D01*
X10527D01*
Y-1807D01*
X10567D01*
Y-1727D01*
X10527D01*
Y-1687D01*
X10447D01*
Y-1727D01*
X10407D01*
Y-1807D01*
X10447D01*
Y-4169D02*
Y-4209D01*
X10527D01*
Y-4169D01*
X10567D01*
Y-4089D01*
X10527D01*
Y-4049D01*
X10447D01*
Y-4089D01*
X10407D01*
Y-4169D01*
X10447D01*
Y-15980D02*
Y-16020D01*
X10527D01*
Y-15980D01*
X10567D01*
Y-15900D01*
X10527D01*
Y-15860D01*
X10447D01*
Y-15900D01*
X10407D01*
Y-15980D01*
X10447D01*
X9856Y-17161D02*
Y-17201D01*
X9936D01*
Y-17161D01*
X9976D01*
Y-17081D01*
X9936D01*
Y-17041D01*
X9856D01*
Y-17081D01*
X9816D01*
Y-17161D01*
X9856D01*
X10447Y-20704D02*
Y-20744D01*
X10527D01*
Y-20704D01*
X10567D01*
Y-20624D01*
X10527D01*
Y-20584D01*
X10447D01*
Y-20624D01*
X10407D01*
Y-20704D01*
X10447D01*
X9856Y-21885D02*
Y-21925D01*
X9936D01*
Y-21885D01*
X9976D01*
Y-21805D01*
X9936D01*
Y-21765D01*
X9856D01*
Y-21805D01*
X9816D01*
Y-21885D01*
X9856D01*
X10447Y-25429D02*
Y-25469D01*
X10527D01*
Y-25429D01*
X10567D01*
Y-25349D01*
X10527D01*
Y-25309D01*
X10447D01*
Y-25349D01*
X10407D01*
Y-25429D01*
X10447D01*
X9856Y-26610D02*
Y-26650D01*
X9936D01*
Y-26610D01*
X9976D01*
Y-26530D01*
X9936D01*
Y-26490D01*
X9856D01*
Y-26530D01*
X9816D01*
Y-26610D01*
X9856D01*
X9266Y556D02*
Y516D01*
X9346D01*
Y556D01*
X9386D01*
Y636D01*
X9346D01*
Y676D01*
X9266D01*
Y636D01*
X9226D01*
Y556D01*
X9266D01*
X8675Y-626D02*
Y-666D01*
X8755D01*
Y-626D01*
X8795D01*
Y-546D01*
X8755D01*
Y-506D01*
X8675D01*
Y-546D01*
X8635D01*
Y-626D01*
X8675D01*
Y-2988D02*
Y-3028D01*
X8755D01*
Y-2988D01*
X8795D01*
Y-2908D01*
X8755D01*
Y-2868D01*
X8675D01*
Y-2908D01*
X8635D01*
Y-2988D01*
X8675D01*
X9266Y-4169D02*
Y-4209D01*
X9346D01*
Y-4169D01*
X9386D01*
Y-4089D01*
X9346D01*
Y-4049D01*
X9266D01*
Y-4089D01*
X9226D01*
Y-4169D01*
X9266D01*
X8675Y-5350D02*
Y-5390D01*
X8755D01*
Y-5350D01*
X8795D01*
Y-5270D01*
X8755D01*
Y-5230D01*
X8675D01*
Y-5270D01*
X8635D01*
Y-5350D01*
X8675D01*
X9266Y-8893D02*
Y-8933D01*
X9346D01*
Y-8893D01*
X9386D01*
Y-8813D01*
X9346D01*
Y-8773D01*
X9266D01*
Y-8813D01*
X9226D01*
Y-8893D01*
X9266D01*
X8675Y-17161D02*
Y-17201D01*
X8755D01*
Y-17161D01*
X8795D01*
Y-17081D01*
X8755D01*
Y-17041D01*
X8675D01*
Y-17081D01*
X8635D01*
Y-17161D01*
X8675D01*
X9266Y-23067D02*
Y-23107D01*
X9346D01*
Y-23067D01*
X9386D01*
Y-22987D01*
X9346D01*
Y-22947D01*
X9266D01*
Y-22987D01*
X9226D01*
Y-23067D01*
X9266D01*
Y-25429D02*
Y-25469D01*
X9346D01*
Y-25429D01*
X9386D01*
Y-25349D01*
X9346D01*
Y-25309D01*
X9266D01*
Y-25349D01*
X9226D01*
Y-25429D01*
X9266D01*
X8675Y-26610D02*
Y-26650D01*
X8755D01*
Y-26610D01*
X8795D01*
Y-26530D01*
X8755D01*
Y-26490D01*
X8675D01*
Y-26530D01*
X8635D01*
Y-26610D01*
X8675D01*
X8085Y556D02*
Y516D01*
X8165D01*
Y556D01*
X8205D01*
Y636D01*
X8165D01*
Y676D01*
X8085D01*
Y636D01*
X8045D01*
Y556D01*
X8085D01*
X7494Y-626D02*
Y-666D01*
X7574D01*
Y-626D01*
X7614D01*
Y-546D01*
X7574D01*
Y-506D01*
X7494D01*
Y-546D01*
X7454D01*
Y-626D01*
X7494D01*
X8085Y-1807D02*
Y-1847D01*
X8165D01*
Y-1807D01*
X8205D01*
Y-1727D01*
X8165D01*
Y-1687D01*
X8085D01*
Y-1727D01*
X8045D01*
Y-1807D01*
X8085D01*
X7494Y-2988D02*
Y-3028D01*
X7574D01*
Y-2988D01*
X7614D01*
Y-2908D01*
X7574D01*
Y-2868D01*
X7494D01*
Y-2908D01*
X7454D01*
Y-2988D01*
X7494D01*
X8085Y-4169D02*
Y-4209D01*
X8165D01*
Y-4169D01*
X8205D01*
Y-4089D01*
X8165D01*
Y-4049D01*
X8085D01*
Y-4089D01*
X8045D01*
Y-4169D01*
X8085D01*
X7494Y-5350D02*
Y-5390D01*
X7574D01*
Y-5350D01*
X7614D01*
Y-5270D01*
X7574D01*
Y-5230D01*
X7494D01*
Y-5270D01*
X7454D01*
Y-5350D01*
X7494D01*
Y-10074D02*
Y-10114D01*
X7574D01*
Y-10074D01*
X7614D01*
Y-9994D01*
X7574D01*
Y-9954D01*
X7494D01*
Y-9994D01*
X7454D01*
Y-10074D01*
X7494D01*
Y-17161D02*
Y-17201D01*
X7574D01*
Y-17161D01*
X7614D01*
Y-17081D01*
X7574D01*
Y-17041D01*
X7494D01*
Y-17081D01*
X7454D01*
Y-17161D01*
X7494D01*
Y-19523D02*
Y-19563D01*
X7574D01*
Y-19523D01*
X7614D01*
Y-19443D01*
X7574D01*
Y-19403D01*
X7494D01*
Y-19443D01*
X7454D01*
Y-19523D01*
X7494D01*
X8085Y-25429D02*
Y-25469D01*
X8165D01*
Y-25429D01*
X8205D01*
Y-25349D01*
X8165D01*
Y-25309D01*
X8085D01*
Y-25349D01*
X8045D01*
Y-25429D01*
X8085D01*
X7494Y-26610D02*
Y-26650D01*
X7574D01*
Y-26610D01*
X7614D01*
Y-26530D01*
X7574D01*
Y-26490D01*
X7494D01*
Y-26530D01*
X7454D01*
Y-26610D01*
X7494D01*
X6904Y556D02*
Y516D01*
X6984D01*
Y556D01*
X7024D01*
Y636D01*
X6984D01*
Y676D01*
X6904D01*
Y636D01*
X6864D01*
Y556D01*
X6904D01*
X6313Y-626D02*
Y-666D01*
X6393D01*
Y-626D01*
X6433D01*
Y-546D01*
X6393D01*
Y-506D01*
X6313D01*
Y-546D01*
X6273D01*
Y-626D01*
X6313D01*
Y-2988D02*
Y-3028D01*
X6393D01*
Y-2988D01*
X6433D01*
Y-2908D01*
X6393D01*
Y-2868D01*
X6313D01*
Y-2908D01*
X6273D01*
Y-2988D01*
X6313D01*
X6904Y-4169D02*
Y-4209D01*
X6984D01*
Y-4169D01*
X7024D01*
Y-4089D01*
X6984D01*
Y-4049D01*
X6904D01*
Y-4089D01*
X6864D01*
Y-4169D01*
X6904D01*
X6313Y-5350D02*
Y-5390D01*
X6393D01*
Y-5350D01*
X6433D01*
Y-5270D01*
X6393D01*
Y-5230D01*
X6313D01*
Y-5270D01*
X6273D01*
Y-5350D01*
X6313D01*
Y-10074D02*
Y-10114D01*
X6393D01*
Y-10074D01*
X6433D01*
Y-9994D01*
X6393D01*
Y-9954D01*
X6313D01*
Y-9994D01*
X6273D01*
Y-10074D01*
X6313D01*
X6904Y-11255D02*
Y-11295D01*
X6984D01*
Y-11255D01*
X7024D01*
Y-11175D01*
X6984D01*
Y-11135D01*
X6904D01*
Y-11175D01*
X6864D01*
Y-11255D01*
X6904D01*
Y-13618D02*
Y-13658D01*
X6984D01*
Y-13618D01*
X7024D01*
Y-13538D01*
X6984D01*
Y-13498D01*
X6904D01*
Y-13538D01*
X6864D01*
Y-13618D01*
X6904D01*
X6313Y-17161D02*
Y-17201D01*
X6393D01*
Y-17161D01*
X6433D01*
Y-17081D01*
X6393D01*
Y-17041D01*
X6313D01*
Y-17081D01*
X6273D01*
Y-17161D01*
X6313D01*
Y-19523D02*
Y-19563D01*
X6393D01*
Y-19523D01*
X6433D01*
Y-19443D01*
X6393D01*
Y-19403D01*
X6313D01*
Y-19443D01*
X6273D01*
Y-19523D01*
X6313D01*
X6904Y-25429D02*
Y-25469D01*
X6984D01*
Y-25429D01*
X7024D01*
Y-25349D01*
X6984D01*
Y-25309D01*
X6904D01*
Y-25349D01*
X6864D01*
Y-25429D01*
X6904D01*
X6313Y-26610D02*
Y-26650D01*
X6393D01*
Y-26610D01*
X6433D01*
Y-26530D01*
X6393D01*
Y-26490D01*
X6313D01*
Y-26530D01*
X6273D01*
Y-26610D01*
X6313D01*
X5723Y556D02*
Y516D01*
X5803D01*
Y556D01*
X5843D01*
Y636D01*
X5803D01*
Y676D01*
X5723D01*
Y636D01*
X5683D01*
Y556D01*
X5723D01*
X5132Y-626D02*
Y-666D01*
X5212D01*
Y-626D01*
X5252D01*
Y-546D01*
X5212D01*
Y-506D01*
X5132D01*
Y-546D01*
X5092D01*
Y-626D01*
X5132D01*
X5723Y-1807D02*
Y-1847D01*
X5803D01*
Y-1807D01*
X5843D01*
Y-1727D01*
X5803D01*
Y-1687D01*
X5723D01*
Y-1727D01*
X5683D01*
Y-1807D01*
X5723D01*
Y-4169D02*
Y-4209D01*
X5803D01*
Y-4169D01*
X5843D01*
Y-4089D01*
X5803D01*
Y-4049D01*
X5723D01*
Y-4089D01*
X5683D01*
Y-4169D01*
X5723D01*
X5132Y-5350D02*
Y-5390D01*
X5212D01*
Y-5350D01*
X5252D01*
Y-5270D01*
X5212D01*
Y-5230D01*
X5132D01*
Y-5270D01*
X5092D01*
Y-5350D01*
X5132D01*
X5723Y-20704D02*
Y-20744D01*
X5803D01*
Y-20704D01*
X5843D01*
Y-20624D01*
X5803D01*
Y-20584D01*
X5723D01*
Y-20624D01*
X5683D01*
Y-20704D01*
X5723D01*
X5132Y-21885D02*
Y-21925D01*
X5212D01*
Y-21885D01*
X5252D01*
Y-21805D01*
X5212D01*
Y-21765D01*
X5132D01*
Y-21805D01*
X5092D01*
Y-21885D01*
X5132D01*
X5723Y-23067D02*
Y-23107D01*
X5803D01*
Y-23067D01*
X5843D01*
Y-22987D01*
X5803D01*
Y-22947D01*
X5723D01*
Y-22987D01*
X5683D01*
Y-23067D01*
X5723D01*
Y-25429D02*
Y-25469D01*
X5803D01*
Y-25429D01*
X5843D01*
Y-25349D01*
X5803D01*
Y-25309D01*
X5723D01*
Y-25349D01*
X5683D01*
Y-25429D01*
X5723D01*
X5132Y-26610D02*
Y-26650D01*
X5212D01*
Y-26610D01*
X5252D01*
Y-26530D01*
X5212D01*
Y-26490D01*
X5132D01*
Y-26530D01*
X5092D01*
Y-26610D01*
X5132D01*
X4541Y556D02*
Y516D01*
X4621D01*
Y556D01*
X4661D01*
Y636D01*
X4621D01*
Y676D01*
X4541D01*
Y636D01*
X4501D01*
Y556D01*
X4541D01*
X3951Y-626D02*
Y-666D01*
X4031D01*
Y-626D01*
X4071D01*
Y-546D01*
X4031D01*
Y-506D01*
X3951D01*
Y-546D01*
X3911D01*
Y-626D01*
X3951D01*
X4541Y-1807D02*
Y-1847D01*
X4621D01*
Y-1807D01*
X4661D01*
Y-1727D01*
X4621D01*
Y-1687D01*
X4541D01*
Y-1727D01*
X4501D01*
Y-1807D01*
X4541D01*
X3951Y-2988D02*
Y-3028D01*
X4031D01*
Y-2988D01*
X4071D01*
Y-2908D01*
X4031D01*
Y-2868D01*
X3951D01*
Y-2908D01*
X3911D01*
Y-2988D01*
X3951D01*
Y-5350D02*
Y-5390D01*
X4031D01*
Y-5350D01*
X4071D01*
Y-5270D01*
X4031D01*
Y-5230D01*
X3951D01*
Y-5270D01*
X3911D01*
Y-5350D01*
X3951D01*
X4541Y-8893D02*
Y-8933D01*
X4621D01*
Y-8893D01*
X4661D01*
Y-8813D01*
X4621D01*
Y-8773D01*
X4541D01*
Y-8813D01*
X4501D01*
Y-8893D01*
X4541D01*
X3951Y-10074D02*
Y-10114D01*
X4031D01*
Y-10074D01*
X4071D01*
Y-9994D01*
X4031D01*
Y-9954D01*
X3951D01*
Y-9994D01*
X3911D01*
Y-10074D01*
X3951D01*
Y-12437D02*
Y-12477D01*
X4031D01*
Y-12437D01*
X4071D01*
Y-12357D01*
X4031D01*
Y-12317D01*
X3951D01*
Y-12357D01*
X3911D01*
Y-12437D01*
X3951D01*
Y-17161D02*
Y-17201D01*
X4031D01*
Y-17161D01*
X4071D01*
Y-17081D01*
X4031D01*
Y-17041D01*
X3951D01*
Y-17081D01*
X3911D01*
Y-17161D01*
X3951D01*
X4541Y-18342D02*
Y-18382D01*
X4621D01*
Y-18342D01*
X4661D01*
Y-18262D01*
X4621D01*
Y-18222D01*
X4541D01*
Y-18262D01*
X4501D01*
Y-18342D01*
X4541D01*
X3951Y-21885D02*
Y-21925D01*
X4031D01*
Y-21885D01*
X4071D01*
Y-21805D01*
X4031D01*
Y-21765D01*
X3951D01*
Y-21805D01*
X3911D01*
Y-21885D01*
X3951D01*
X4541Y-23067D02*
Y-23107D01*
X4621D01*
Y-23067D01*
X4661D01*
Y-22987D01*
X4621D01*
Y-22947D01*
X4541D01*
Y-22987D01*
X4501D01*
Y-23067D01*
X4541D01*
X3951Y-26610D02*
Y-26650D01*
X4031D01*
Y-26610D01*
X4071D01*
Y-26530D01*
X4031D01*
Y-26490D01*
X3951D01*
Y-26530D01*
X3911D01*
Y-26610D01*
X3951D01*
X3360Y556D02*
Y516D01*
X3440D01*
Y556D01*
X3480D01*
Y636D01*
X3440D01*
Y676D01*
X3360D01*
Y636D01*
X3320D01*
Y556D01*
X3360D01*
X2770Y-626D02*
Y-666D01*
X2850D01*
Y-626D01*
X2890D01*
Y-546D01*
X2850D01*
Y-506D01*
X2770D01*
Y-546D01*
X2730D01*
Y-626D01*
X2770D01*
X3360Y-1807D02*
Y-1847D01*
X3440D01*
Y-1807D01*
X3480D01*
Y-1727D01*
X3440D01*
Y-1687D01*
X3360D01*
Y-1727D01*
X3320D01*
Y-1807D01*
X3360D01*
X2770Y-2988D02*
Y-3028D01*
X2850D01*
Y-2988D01*
X2890D01*
Y-2908D01*
X2850D01*
Y-2868D01*
X2770D01*
Y-2908D01*
X2730D01*
Y-2988D01*
X2770D01*
X3360Y-4169D02*
Y-4209D01*
X3440D01*
Y-4169D01*
X3480D01*
Y-4089D01*
X3440D01*
Y-4049D01*
X3360D01*
Y-4089D01*
X3320D01*
Y-4169D01*
X3360D01*
Y-8893D02*
Y-8933D01*
X3440D01*
Y-8893D01*
X3480D01*
Y-8813D01*
X3440D01*
Y-8773D01*
X3360D01*
Y-8813D01*
X3320D01*
Y-8893D01*
X3360D01*
X2770Y-17161D02*
Y-17201D01*
X2850D01*
Y-17161D01*
X2890D01*
Y-17081D01*
X2850D01*
Y-17041D01*
X2770D01*
Y-17081D01*
X2730D01*
Y-17161D01*
X2770D01*
X3360Y-18342D02*
Y-18382D01*
X3440D01*
Y-18342D01*
X3480D01*
Y-18262D01*
X3440D01*
Y-18222D01*
X3360D01*
Y-18262D01*
X3320D01*
Y-18342D01*
X3360D01*
X2770Y-19523D02*
Y-19563D01*
X2850D01*
Y-19523D01*
X2890D01*
Y-19443D01*
X2850D01*
Y-19403D01*
X2770D01*
Y-19443D01*
X2730D01*
Y-19523D01*
X2770D01*
X3360Y-23067D02*
Y-23107D01*
X3440D01*
Y-23067D01*
X3480D01*
Y-22987D01*
X3440D01*
Y-22947D01*
X3360D01*
Y-22987D01*
X3320D01*
Y-23067D01*
X3360D01*
Y-25429D02*
Y-25469D01*
X3440D01*
Y-25429D01*
X3480D01*
Y-25349D01*
X3440D01*
Y-25309D01*
X3360D01*
Y-25349D01*
X3320D01*
Y-25429D01*
X3360D01*
X2770Y-26610D02*
Y-26650D01*
X2850D01*
Y-26610D01*
X2890D01*
Y-26530D01*
X2850D01*
Y-26490D01*
X2770D01*
Y-26530D01*
X2730D01*
Y-26610D01*
X2770D01*
X2179Y556D02*
Y516D01*
X2259D01*
Y556D01*
X2299D01*
Y636D01*
X2259D01*
Y676D01*
X2179D01*
Y636D01*
X2139D01*
Y556D01*
X2179D01*
X1589Y-626D02*
Y-666D01*
X1669D01*
Y-626D01*
X1709D01*
Y-546D01*
X1669D01*
Y-506D01*
X1589D01*
Y-546D01*
X1549D01*
Y-626D01*
X1589D01*
X2179Y-1807D02*
Y-1847D01*
X2259D01*
Y-1807D01*
X2299D01*
Y-1727D01*
X2259D01*
Y-1687D01*
X2179D01*
Y-1727D01*
X2139D01*
Y-1807D01*
X2179D01*
X1589Y-2988D02*
Y-3028D01*
X1669D01*
Y-2988D01*
X1709D01*
Y-2908D01*
X1669D01*
Y-2868D01*
X1589D01*
Y-2908D01*
X1549D01*
Y-2988D01*
X1589D01*
X2179Y-4169D02*
Y-4209D01*
X2259D01*
Y-4169D01*
X2299D01*
Y-4089D01*
X2259D01*
Y-4049D01*
X2179D01*
Y-4089D01*
X2139D01*
Y-4169D01*
X2179D01*
X1589Y-5350D02*
Y-5390D01*
X1669D01*
Y-5350D01*
X1709D01*
Y-5270D01*
X1669D01*
Y-5230D01*
X1589D01*
Y-5270D01*
X1549D01*
Y-5350D01*
X1589D01*
Y-17161D02*
Y-17201D01*
X1669D01*
Y-17161D01*
X1709D01*
Y-17081D01*
X1669D01*
Y-17041D01*
X1589D01*
Y-17081D01*
X1549D01*
Y-17161D01*
X1589D01*
X2179Y-18342D02*
Y-18382D01*
X2259D01*
Y-18342D01*
X2299D01*
Y-18262D01*
X2259D01*
Y-18222D01*
X2179D01*
Y-18262D01*
X2139D01*
Y-18342D01*
X2179D01*
X1589Y-21885D02*
Y-21925D01*
X1669D01*
Y-21885D01*
X1709D01*
Y-21805D01*
X1669D01*
Y-21765D01*
X1589D01*
Y-21805D01*
X1549D01*
Y-21885D01*
X1589D01*
X2179Y-23067D02*
Y-23107D01*
X2259D01*
Y-23067D01*
X2299D01*
Y-22987D01*
X2259D01*
Y-22947D01*
X2179D01*
Y-22987D01*
X2139D01*
Y-23067D01*
X2179D01*
Y-25429D02*
Y-25469D01*
X2259D01*
Y-25429D01*
X2299D01*
Y-25349D01*
X2259D01*
Y-25309D01*
X2179D01*
Y-25349D01*
X2139D01*
Y-25429D01*
X2179D01*
X1589Y-26610D02*
Y-26650D01*
X1669D01*
Y-26610D01*
X1709D01*
Y-26530D01*
X1669D01*
Y-26490D01*
X1589D01*
Y-26530D01*
X1549D01*
Y-26610D01*
X1589D01*
X998Y-1807D02*
Y-1847D01*
X1078D01*
Y-1807D01*
X1118D01*
Y-1727D01*
X1078D01*
Y-1687D01*
X998D01*
Y-1727D01*
X958D01*
Y-1807D01*
X998D01*
X408Y-2988D02*
Y-3028D01*
X488D01*
Y-2988D01*
X528D01*
Y-2908D01*
X488D01*
Y-2868D01*
X408D01*
Y-2908D01*
X368D01*
Y-2988D01*
X408D01*
X998Y-4169D02*
Y-4209D01*
X1078D01*
Y-4169D01*
X1118D01*
Y-4089D01*
X1078D01*
Y-4049D01*
X998D01*
Y-4089D01*
X958D01*
Y-4169D01*
X998D01*
Y-6531D02*
Y-6571D01*
X1078D01*
Y-6531D01*
X1118D01*
Y-6451D01*
X1078D01*
Y-6411D01*
X998D01*
Y-6451D01*
X958D01*
Y-6531D01*
X998D01*
Y-18342D02*
Y-18382D01*
X1078D01*
Y-18342D01*
X1118D01*
Y-18262D01*
X1078D01*
Y-18222D01*
X998D01*
Y-18262D01*
X958D01*
Y-18342D01*
X998D01*
Y-20704D02*
Y-20744D01*
X1078D01*
Y-20704D01*
X1118D01*
Y-20624D01*
X1078D01*
Y-20584D01*
X998D01*
Y-20624D01*
X958D01*
Y-20704D01*
X998D01*
X-183Y-1807D02*
Y-1847D01*
X-103D01*
Y-1807D01*
X-63D01*
Y-1727D01*
X-103D01*
Y-1687D01*
X-183D01*
Y-1727D01*
X-223D01*
Y-1807D01*
X-183D01*
Y-4169D02*
Y-4209D01*
X-103D01*
Y-4169D01*
X-63D01*
Y-4089D01*
X-103D01*
Y-4049D01*
X-183D01*
Y-4089D01*
X-223D01*
Y-4169D01*
X-183D01*
X-774Y-5350D02*
Y-5390D01*
X-694D01*
Y-5350D01*
X-654D01*
Y-5270D01*
X-694D01*
Y-5230D01*
X-774D01*
Y-5270D01*
X-814D01*
Y-5350D01*
X-774D01*
X-183Y-11255D02*
Y-11295D01*
X-103D01*
Y-11255D01*
X-63D01*
Y-11175D01*
X-103D01*
Y-11135D01*
X-183D01*
Y-11175D01*
X-223D01*
Y-11255D01*
X-183D01*
Y-15980D02*
Y-16020D01*
X-103D01*
Y-15980D01*
X-63D01*
Y-15900D01*
X-103D01*
Y-15860D01*
X-183D01*
Y-15900D01*
X-223D01*
Y-15980D01*
X-183D01*
X-774Y-19523D02*
Y-19563D01*
X-694D01*
Y-19523D01*
X-654D01*
Y-19443D01*
X-694D01*
Y-19403D01*
X-774D01*
Y-19443D01*
X-814D01*
Y-19523D01*
X-774D01*
Y-21885D02*
Y-21925D01*
X-694D01*
Y-21885D01*
X-654D01*
Y-21805D01*
X-694D01*
Y-21765D01*
X-774D01*
Y-21805D01*
X-814D01*
Y-21885D01*
X-774D01*
Y-24248D02*
Y-24288D01*
X-694D01*
Y-24248D01*
X-654D01*
Y-24168D01*
X-694D01*
Y-24128D01*
X-774D01*
Y-24168D01*
X-814D01*
Y-24248D01*
X-774D01*
X-670Y-17009D02*
Y-17048D01*
X-590D01*
Y-17009D01*
X-550D01*
Y-16928D01*
X-590D01*
Y-16889D01*
X-670D01*
Y-16928D01*
X-710D01*
Y-17009D01*
X-670D01*
X9094Y-5906D02*
Y-5946D01*
X9174D01*
Y-5906D01*
X9214D01*
Y-5826D01*
X9174D01*
Y-5786D01*
X9094D01*
Y-5826D01*
X9054D01*
Y-5906D01*
X9094D01*
X7440Y-13898D02*
Y-13938D01*
X7520D01*
Y-13898D01*
X7560D01*
Y-13818D01*
X7520D01*
Y-13778D01*
X7440D01*
Y-13818D01*
X7400D01*
Y-13898D01*
X7440D01*
X6180Y-9134D02*
Y-9174D01*
X6260D01*
Y-9134D01*
X6300D01*
Y-9054D01*
X6260D01*
Y-9014D01*
X6180D01*
Y-9054D01*
X6140D01*
Y-9134D01*
X6180D01*
X5551Y-9646D02*
Y-9686D01*
X5631D01*
Y-9646D01*
X5671D01*
Y-9566D01*
X5631D01*
Y-9526D01*
X5551D01*
Y-9566D01*
X5511D01*
Y-9646D01*
X5551D01*
X5511Y-15867D02*
Y-15907D01*
X5591D01*
Y-15867D01*
X5631D01*
Y-15787D01*
X5591D01*
Y-15747D01*
X5511D01*
Y-15787D01*
X5471D01*
Y-15867D01*
X5511D01*
X7519Y-15906D02*
Y-15946D01*
X7599D01*
Y-15906D01*
X7639D01*
Y-15826D01*
X7599D01*
Y-15786D01*
X7519D01*
Y-15826D01*
X7479D01*
Y-15906D01*
X7519D01*
X8661Y-8977D02*
Y-9017D01*
X8741D01*
Y-8977D01*
X8781D01*
Y-8897D01*
X8741D01*
Y-8857D01*
X8661D01*
Y-8897D01*
X8621D01*
Y-8977D01*
X8661D01*
X9046Y-11457D02*
Y-11497D01*
X9126D01*
Y-11457D01*
X9166D01*
Y-11377D01*
X9126D01*
Y-11337D01*
X9046D01*
Y-11377D01*
X9006D01*
Y-11457D01*
X9046D01*
X8858Y-15788D02*
Y-15828D01*
X8938D01*
Y-15788D01*
X8978D01*
Y-15708D01*
X8938D01*
Y-15668D01*
X8858D01*
Y-15708D01*
X8818D01*
Y-15788D01*
X8858D01*
X8669Y-13623D02*
Y-13663D01*
X8749D01*
Y-13623D01*
X8789D01*
Y-13543D01*
X8749D01*
Y-13503D01*
X8669D01*
Y-13543D01*
X8629D01*
Y-13623D01*
X8669D01*
X8503Y-6339D02*
Y-6379D01*
X8583D01*
Y-6339D01*
X8623D01*
Y-6259D01*
X8583D01*
Y-6219D01*
X8503D01*
Y-6259D01*
X8463D01*
Y-6339D01*
X8503D01*
X8385Y-9961D02*
Y-10001D01*
X8465D01*
Y-9961D01*
X8505D01*
Y-9881D01*
X8465D01*
Y-9841D01*
X8385D01*
Y-9881D01*
X8345D01*
Y-9961D01*
X8385D01*
X4448Y-22442D02*
Y-22482D01*
X4528D01*
Y-22442D01*
X4568D01*
Y-22362D01*
X4528D01*
Y-22322D01*
X4448D01*
Y-22362D01*
X4408D01*
Y-22442D01*
X4448D01*
X7519Y-23190D02*
Y-23230D01*
X7599D01*
Y-23190D01*
X7639D01*
Y-23110D01*
X7599D01*
Y-23070D01*
X7519D01*
Y-23110D01*
X7479D01*
Y-23190D01*
X7519D01*
X7755Y-22442D02*
Y-22482D01*
X7835D01*
Y-22442D01*
X7875D01*
Y-22362D01*
X7835D01*
Y-22322D01*
X7755D01*
Y-22362D01*
X7715D01*
Y-22442D01*
X7755D01*
X19960Y-21379D02*
Y-21419D01*
X20040D01*
Y-21379D01*
X20080D01*
Y-21299D01*
X20040D01*
Y-21259D01*
X19960D01*
Y-21299D01*
X19920D01*
Y-21379D01*
X19960D01*
X19645Y-22284D02*
Y-22324D01*
X19725D01*
Y-22284D01*
X19765D01*
Y-22204D01*
X19725D01*
Y-22164D01*
X19645D01*
Y-22204D01*
X19605D01*
Y-22284D01*
X19645D01*
X19212Y-20631D02*
Y-20671D01*
X19292D01*
Y-20631D01*
X19332D01*
Y-20551D01*
X19292D01*
Y-20511D01*
X19212D01*
Y-20551D01*
X19172D01*
Y-20631D01*
X19212D01*
X17755Y-20591D02*
Y-20631D01*
X17835D01*
Y-20591D01*
X17875D01*
Y-20511D01*
X17835D01*
Y-20471D01*
X17755D01*
Y-20511D01*
X17715D01*
Y-20591D01*
X17755D01*
X18385Y-22323D02*
Y-22363D01*
X18465D01*
Y-22323D01*
X18505D01*
Y-22243D01*
X18465D01*
Y-22203D01*
X18385D01*
Y-22243D01*
X18345D01*
Y-22323D01*
X18385D01*
X16535Y-22442D02*
Y-22482D01*
X16615D01*
Y-22442D01*
X16655D01*
Y-22362D01*
X16615D01*
Y-22322D01*
X16535D01*
Y-22362D01*
X16495D01*
Y-22442D01*
X16535D01*
X14921Y-22481D02*
Y-22521D01*
X15001D01*
Y-22481D01*
X15041D01*
Y-22401D01*
X15001D01*
Y-22361D01*
X14921D01*
Y-22401D01*
X14881D01*
Y-22481D01*
X14921D01*
X5629Y-4607D02*
Y-4647D01*
X5709D01*
Y-4607D01*
X5749D01*
Y-4527D01*
X5709D01*
Y-4487D01*
X5629D01*
Y-4527D01*
X5589D01*
Y-4607D01*
X5629D01*
X4921Y-3032D02*
Y-3072D01*
X5001D01*
Y-3032D01*
X5041D01*
Y-2952D01*
X5001D01*
Y-2912D01*
X4921D01*
Y-2952D01*
X4881D01*
Y-3032D01*
X4921D01*
X1889Y-5355D02*
Y-5395D01*
X1969D01*
Y-5355D01*
X2009D01*
Y-5275D01*
X1969D01*
Y-5235D01*
X1889D01*
Y-5275D01*
X1849D01*
Y-5355D01*
X1889D01*
X3425Y-3898D02*
Y-3938D01*
X3505D01*
Y-3898D01*
X3545D01*
Y-3818D01*
X3505D01*
Y-3778D01*
X3425D01*
Y-3818D01*
X3385D01*
Y-3898D01*
X3425D01*
X1850Y-2717D02*
Y-2757D01*
X1930D01*
Y-2717D01*
X1970D01*
Y-2637D01*
X1930D01*
Y-2597D01*
X1850D01*
Y-2637D01*
X1810D01*
Y-2717D01*
X1850D01*
X1535Y-3898D02*
Y-3938D01*
X1615D01*
Y-3898D01*
X1655D01*
Y-3818D01*
X1615D01*
Y-3778D01*
X1535D01*
Y-3818D01*
X1495D01*
Y-3898D01*
X1535D01*
X-79Y-3859D02*
Y-3899D01*
X1D01*
Y-3859D01*
X41D01*
Y-3779D01*
X1D01*
Y-3739D01*
X-79D01*
Y-3779D01*
X-119D01*
Y-3859D01*
X-79D01*
X-1339Y866D02*
Y826D01*
X-1259D01*
Y866D01*
X-1219D01*
Y946D01*
X-1259D01*
Y986D01*
X-1339D01*
Y946D01*
X-1379D01*
Y866D01*
X-1339D01*
X8976Y1338D02*
Y1298D01*
X9056D01*
Y1338D01*
X9096D01*
Y1418D01*
X9056D01*
Y1458D01*
X8976D01*
Y1418D01*
X8936D01*
Y1338D01*
X8976D01*
X8346D02*
Y1298D01*
X8426D01*
Y1338D01*
X8466D01*
Y1418D01*
X8426D01*
Y1458D01*
X8346D01*
Y1418D01*
X8306D01*
Y1338D01*
X8346D01*
X5196D02*
Y1298D01*
X5276D01*
Y1338D01*
X5316D01*
Y1418D01*
X5276D01*
Y1458D01*
X5196D01*
Y1418D01*
X5156D01*
Y1338D01*
X5196D01*
X5826D02*
Y1298D01*
X5906D01*
Y1338D01*
X5946D01*
Y1418D01*
X5906D01*
Y1458D01*
X5826D01*
Y1418D01*
X5786D01*
Y1338D01*
X5826D01*
X6456D02*
Y1298D01*
X6536D01*
Y1338D01*
X6576D01*
Y1418D01*
X6536D01*
Y1458D01*
X6456D01*
Y1418D01*
X6416D01*
Y1338D01*
X6456D01*
X7086D02*
Y1298D01*
X7166D01*
Y1338D01*
X7206D01*
Y1418D01*
X7166D01*
Y1458D01*
X7086D01*
Y1418D01*
X7046D01*
Y1338D01*
X7086D01*
X7716D02*
Y1298D01*
X7796D01*
Y1338D01*
X7836D01*
Y1418D01*
X7796D01*
Y1458D01*
X7716D01*
Y1418D01*
X7676D01*
Y1338D01*
X7716D01*
X2047D02*
Y1298D01*
X2127D01*
Y1338D01*
X2167D01*
Y1418D01*
X2127D01*
Y1458D01*
X2047D01*
Y1418D01*
X2007D01*
Y1338D01*
X2047D01*
X2677D02*
Y1298D01*
X2757D01*
Y1338D01*
X2797D01*
Y1418D01*
X2757D01*
Y1458D01*
X2677D01*
Y1418D01*
X2637D01*
Y1338D01*
X2677D01*
X3306D02*
Y1298D01*
X3386D01*
Y1338D01*
X3426D01*
Y1418D01*
X3386D01*
Y1458D01*
X3306D01*
Y1418D01*
X3266D01*
Y1338D01*
X3306D01*
X3936D02*
Y1298D01*
X4016D01*
Y1338D01*
X4056D01*
Y1418D01*
X4016D01*
Y1458D01*
X3936D01*
Y1418D01*
X3896D01*
Y1338D01*
X3936D01*
X4566D02*
Y1298D01*
X4646D01*
Y1338D01*
X4686D01*
Y1418D01*
X4646D01*
Y1458D01*
X4566D01*
Y1418D01*
X4526D01*
Y1338D01*
X4566D01*
X-1103D02*
Y1298D01*
X-1023D01*
Y1338D01*
X-983D01*
Y1418D01*
X-1023D01*
Y1458D01*
X-1103D01*
Y1418D01*
X-1143D01*
Y1338D01*
X-1103D01*
X-473D02*
Y1298D01*
X-393D01*
Y1338D01*
X-353D01*
Y1418D01*
X-393D01*
Y1458D01*
X-473D01*
Y1418D01*
X-513D01*
Y1338D01*
X-473D01*
X157D02*
Y1298D01*
X237D01*
Y1338D01*
X277D01*
Y1418D01*
X237D01*
Y1458D01*
X157D01*
Y1418D01*
X117D01*
Y1338D01*
X157D01*
X787D02*
Y1298D01*
X867D01*
Y1338D01*
X907D01*
Y1418D01*
X867D01*
Y1458D01*
X787D01*
Y1418D01*
X747D01*
Y1338D01*
X787D01*
X1417D02*
Y1298D01*
X1497D01*
Y1338D01*
X1537D01*
Y1418D01*
X1497D01*
Y1458D01*
X1417D01*
Y1418D01*
X1377D01*
Y1338D01*
X1417D01*
X19684D02*
Y1298D01*
X19764D01*
Y1338D01*
X19804D01*
Y1418D01*
X19764D01*
Y1458D01*
X19684D01*
Y1418D01*
X19644D01*
Y1338D01*
X19684D01*
X19054D02*
Y1298D01*
X19134D01*
Y1338D01*
X19174D01*
Y1418D01*
X19134D01*
Y1458D01*
X19054D01*
Y1418D01*
X19014D01*
Y1338D01*
X19054D01*
X15905D02*
Y1298D01*
X15985D01*
Y1338D01*
X16025D01*
Y1418D01*
X15985D01*
Y1458D01*
X15905D01*
Y1418D01*
X15865D01*
Y1338D01*
X15905D01*
X16535D02*
Y1298D01*
X16615D01*
Y1338D01*
X16655D01*
Y1418D01*
X16615D01*
Y1458D01*
X16535D01*
Y1418D01*
X16495D01*
Y1338D01*
X16535D01*
X17165D02*
Y1298D01*
X17245D01*
Y1338D01*
X17285D01*
Y1418D01*
X17245D01*
Y1458D01*
X17165D01*
Y1418D01*
X17125D01*
Y1338D01*
X17165D01*
X17795D02*
Y1298D01*
X17875D01*
Y1338D01*
X17915D01*
Y1418D01*
X17875D01*
Y1458D01*
X17795D01*
Y1418D01*
X17755D01*
Y1338D01*
X17795D01*
X18425D02*
Y1298D01*
X18505D01*
Y1338D01*
X18545D01*
Y1418D01*
X18505D01*
Y1458D01*
X18425D01*
Y1418D01*
X18385D01*
Y1338D01*
X18425D01*
X12755D02*
Y1298D01*
X12835D01*
Y1338D01*
X12875D01*
Y1418D01*
X12835D01*
Y1458D01*
X12755D01*
Y1418D01*
X12715D01*
Y1338D01*
X12755D01*
X13385D02*
Y1298D01*
X13465D01*
Y1338D01*
X13505D01*
Y1418D01*
X13465D01*
Y1458D01*
X13385D01*
Y1418D01*
X13345D01*
Y1338D01*
X13385D01*
X14015D02*
Y1298D01*
X14095D01*
Y1338D01*
X14135D01*
Y1418D01*
X14095D01*
Y1458D01*
X14015D01*
Y1418D01*
X13975D01*
Y1338D01*
X14015D01*
X14645D02*
Y1298D01*
X14725D01*
Y1338D01*
X14765D01*
Y1418D01*
X14725D01*
Y1458D01*
X14645D01*
Y1418D01*
X14605D01*
Y1338D01*
X14645D01*
X15275D02*
Y1298D01*
X15355D01*
Y1338D01*
X15395D01*
Y1418D01*
X15355D01*
Y1458D01*
X15275D01*
Y1418D01*
X15235D01*
Y1338D01*
X15275D01*
X9606D02*
Y1298D01*
X9686D01*
Y1338D01*
X9726D01*
Y1418D01*
X9686D01*
Y1458D01*
X9606D01*
Y1418D01*
X9566D01*
Y1338D01*
X9606D01*
X10236D02*
Y1298D01*
X10316D01*
Y1338D01*
X10356D01*
Y1418D01*
X10316D01*
Y1458D01*
X10236D01*
Y1418D01*
X10196D01*
Y1338D01*
X10236D01*
X10866D02*
Y1298D01*
X10946D01*
Y1338D01*
X10986D01*
Y1418D01*
X10946D01*
Y1458D01*
X10866D01*
Y1418D01*
X10826D01*
Y1338D01*
X10866D01*
X11495D02*
Y1298D01*
X11575D01*
Y1338D01*
X11615D01*
Y1418D01*
X11575D01*
Y1458D01*
X11495D01*
Y1418D01*
X11455D01*
Y1338D01*
X11495D01*
X12125D02*
Y1298D01*
X12205D01*
Y1338D01*
X12245D01*
Y1418D01*
X12205D01*
Y1458D01*
X12125D01*
Y1418D01*
X12085D01*
Y1338D01*
X12125D01*
X20314D02*
Y1298D01*
X20394D01*
Y1338D01*
X20434D01*
Y1418D01*
X20394D01*
Y1458D01*
X20314D01*
Y1418D01*
X20274D01*
Y1338D01*
X20314D01*
X20944Y865D02*
Y825D01*
X21024D01*
Y865D01*
X21064D01*
Y945D01*
X21024D01*
Y985D01*
X20944D01*
Y945D01*
X20904D01*
Y865D01*
X20944D01*
X20866Y1338D02*
Y1298D01*
X20946D01*
Y1338D01*
X20986D01*
Y1418D01*
X20946D01*
Y1458D01*
X20866D01*
Y1418D01*
X20826D01*
Y1338D01*
X20866D01*
X20984Y354D02*
Y314D01*
X21064D01*
Y354D01*
X21104D01*
Y434D01*
X21064D01*
Y474D01*
X20984D01*
Y434D01*
X20944D01*
Y354D01*
X20984D01*
Y-473D02*
Y-513D01*
X21064D01*
Y-473D01*
X21104D01*
Y-393D01*
X21064D01*
Y-353D01*
X20984D01*
Y-393D01*
X20944D01*
Y-473D01*
X20984D01*
X20944Y-4804D02*
Y-4844D01*
X21024D01*
Y-4804D01*
X21064D01*
Y-4724D01*
X21024D01*
Y-4684D01*
X20944D01*
Y-4724D01*
X20904D01*
Y-4804D01*
X20944D01*
Y-4174D02*
Y-4214D01*
X21024D01*
Y-4174D01*
X21064D01*
Y-4094D01*
X21024D01*
Y-4054D01*
X20944D01*
Y-4094D01*
X20904D01*
Y-4174D01*
X20944D01*
Y-3544D02*
Y-3584D01*
X21024D01*
Y-3544D01*
X21064D01*
Y-3464D01*
X21024D01*
Y-3424D01*
X20944D01*
Y-3464D01*
X20904D01*
Y-3544D01*
X20944D01*
Y-2914D02*
Y-2954D01*
X21024D01*
Y-2914D01*
X21064D01*
Y-2834D01*
X21024D01*
Y-2794D01*
X20944D01*
Y-2834D01*
X20904D01*
Y-2914D01*
X20944D01*
Y-2284D02*
Y-2324D01*
X21024D01*
Y-2284D01*
X21064D01*
Y-2204D01*
X21024D01*
Y-2164D01*
X20944D01*
Y-2204D01*
X20904D01*
Y-2284D01*
X20944D01*
Y-1024D02*
Y-1064D01*
X21024D01*
Y-1024D01*
X21064D01*
Y-944D01*
X21024D01*
Y-904D01*
X20944D01*
Y-944D01*
X20904D01*
Y-1024D01*
X20944D01*
Y-1654D02*
Y-1694D01*
X21024D01*
Y-1654D01*
X21064D01*
Y-1574D01*
X21024D01*
Y-1534D01*
X20944D01*
Y-1574D01*
X20904D01*
Y-1654D01*
X20944D01*
Y-7323D02*
Y-7363D01*
X21024D01*
Y-7323D01*
X21064D01*
Y-7243D01*
X21024D01*
Y-7203D01*
X20944D01*
Y-7243D01*
X20904D01*
Y-7323D01*
X20944D01*
Y-6694D02*
Y-6734D01*
X21024D01*
Y-6694D01*
X21064D01*
Y-6614D01*
X21024D01*
Y-6574D01*
X20944D01*
Y-6614D01*
X20904D01*
Y-6694D01*
X20944D01*
Y-5434D02*
Y-5474D01*
X21024D01*
Y-5434D01*
X21064D01*
Y-5354D01*
X21024D01*
Y-5314D01*
X20944D01*
Y-5354D01*
X20904D01*
Y-5434D01*
X20944D01*
Y-6064D02*
Y-6104D01*
X21024D01*
Y-6064D01*
X21064D01*
Y-5984D01*
X21024D01*
Y-5944D01*
X20944D01*
Y-5984D01*
X20904D01*
Y-6064D01*
X20944D01*
Y-18032D02*
Y-18072D01*
X21024D01*
Y-18032D01*
X21064D01*
Y-17952D01*
X21024D01*
Y-17912D01*
X20944D01*
Y-17952D01*
X20904D01*
Y-18032D01*
X20944D01*
Y-17402D02*
Y-17442D01*
X21024D01*
Y-17402D01*
X21064D01*
Y-17322D01*
X21024D01*
Y-17282D01*
X20944D01*
Y-17322D01*
X20904D01*
Y-17402D01*
X20944D01*
Y-16772D02*
Y-16812D01*
X21024D01*
Y-16772D01*
X21064D01*
Y-16692D01*
X21024D01*
Y-16652D01*
X20944D01*
Y-16692D01*
X20904D01*
Y-16772D01*
X20944D01*
Y-16142D02*
Y-16182D01*
X21024D01*
Y-16142D01*
X21064D01*
Y-16062D01*
X21024D01*
Y-16022D01*
X20944D01*
Y-16062D01*
X20904D01*
Y-16142D01*
X20944D01*
Y-15512D02*
Y-15552D01*
X21024D01*
Y-15512D01*
X21064D01*
Y-15432D01*
X21024D01*
Y-15392D01*
X20944D01*
Y-15432D01*
X20904D01*
Y-15512D01*
X20944D01*
Y-14883D02*
Y-14923D01*
X21024D01*
Y-14883D01*
X21064D01*
Y-14803D01*
X21024D01*
Y-14763D01*
X20944D01*
Y-14803D01*
X20904D01*
Y-14883D01*
X20944D01*
Y-22442D02*
Y-22482D01*
X21024D01*
Y-22442D01*
X21064D01*
Y-22362D01*
X21024D01*
Y-22322D01*
X20944D01*
Y-22362D01*
X20904D01*
Y-22442D01*
X20944D01*
Y-21812D02*
Y-21852D01*
X21024D01*
Y-21812D01*
X21064D01*
Y-21732D01*
X21024D01*
Y-21692D01*
X20944D01*
Y-21732D01*
X20904D01*
Y-21812D01*
X20944D01*
Y-21182D02*
Y-21222D01*
X21024D01*
Y-21182D01*
X21064D01*
Y-21102D01*
X21024D01*
Y-21062D01*
X20944D01*
Y-21102D01*
X20904D01*
Y-21182D01*
X20944D01*
Y-20552D02*
Y-20592D01*
X21024D01*
Y-20552D01*
X21064D01*
Y-20472D01*
X21024D01*
Y-20432D01*
X20944D01*
Y-20472D01*
X20904D01*
Y-20552D01*
X20944D01*
Y-19922D02*
Y-19962D01*
X21024D01*
Y-19922D01*
X21064D01*
Y-19842D01*
X21024D01*
Y-19802D01*
X20944D01*
Y-19842D01*
X20904D01*
Y-19922D01*
X20944D01*
Y-18662D02*
Y-18702D01*
X21024D01*
Y-18662D01*
X21064D01*
Y-18582D01*
X21024D01*
Y-18542D01*
X20944D01*
Y-18582D01*
X20904D01*
Y-18662D01*
X20944D01*
Y-19292D02*
Y-19332D01*
X21024D01*
Y-19292D01*
X21064D01*
Y-19212D01*
X21024D01*
Y-19172D01*
X20944D01*
Y-19212D01*
X20904D01*
Y-19292D01*
X20944D01*
X-1379Y-3544D02*
Y-3584D01*
X-1299D01*
Y-3544D01*
X-1259D01*
Y-3464D01*
X-1299D01*
Y-3424D01*
X-1379D01*
Y-3464D01*
X-1419D01*
Y-3544D01*
X-1379D01*
Y-2914D02*
Y-2954D01*
X-1299D01*
Y-2914D01*
X-1259D01*
Y-2834D01*
X-1299D01*
Y-2794D01*
X-1379D01*
Y-2834D01*
X-1419D01*
Y-2914D01*
X-1379D01*
Y-2284D02*
Y-2324D01*
X-1299D01*
Y-2284D01*
X-1259D01*
Y-2204D01*
X-1299D01*
Y-2164D01*
X-1379D01*
Y-2204D01*
X-1419D01*
Y-2284D01*
X-1379D01*
Y-1654D02*
Y-1694D01*
X-1299D01*
Y-1654D01*
X-1259D01*
Y-1574D01*
X-1299D01*
Y-1534D01*
X-1379D01*
Y-1574D01*
X-1419D01*
Y-1654D01*
X-1379D01*
Y-1024D02*
Y-1064D01*
X-1299D01*
Y-1024D01*
X-1259D01*
Y-944D01*
X-1299D01*
Y-904D01*
X-1379D01*
Y-944D01*
X-1419D01*
Y-1024D01*
X-1379D01*
Y236D02*
Y196D01*
X-1299D01*
Y236D01*
X-1259D01*
Y316D01*
X-1299D01*
Y356D01*
X-1379D01*
Y316D01*
X-1419D01*
Y236D01*
X-1379D01*
Y-394D02*
Y-434D01*
X-1299D01*
Y-394D01*
X-1259D01*
Y-314D01*
X-1299D01*
Y-274D01*
X-1379D01*
Y-314D01*
X-1419D01*
Y-394D01*
X-1379D01*
Y-7953D02*
Y-7993D01*
X-1299D01*
Y-7953D01*
X-1259D01*
Y-7873D01*
X-1299D01*
Y-7833D01*
X-1379D01*
Y-7873D01*
X-1419D01*
Y-7953D01*
X-1379D01*
Y-7323D02*
Y-7363D01*
X-1299D01*
Y-7323D01*
X-1259D01*
Y-7243D01*
X-1299D01*
Y-7203D01*
X-1379D01*
Y-7243D01*
X-1419D01*
Y-7323D01*
X-1379D01*
Y-6694D02*
Y-6734D01*
X-1299D01*
Y-6694D01*
X-1259D01*
Y-6614D01*
X-1299D01*
Y-6574D01*
X-1379D01*
Y-6614D01*
X-1419D01*
Y-6694D01*
X-1379D01*
Y-6064D02*
Y-6104D01*
X-1299D01*
Y-6064D01*
X-1259D01*
Y-5984D01*
X-1299D01*
Y-5944D01*
X-1379D01*
Y-5984D01*
X-1419D01*
Y-6064D01*
X-1379D01*
Y-5434D02*
Y-5474D01*
X-1299D01*
Y-5434D01*
X-1259D01*
Y-5354D01*
X-1299D01*
Y-5314D01*
X-1379D01*
Y-5354D01*
X-1419D01*
Y-5434D01*
X-1379D01*
Y-4174D02*
Y-4214D01*
X-1299D01*
Y-4174D01*
X-1259D01*
Y-4094D01*
X-1299D01*
Y-4054D01*
X-1379D01*
Y-4094D01*
X-1419D01*
Y-4174D01*
X-1379D01*
Y-4804D02*
Y-4844D01*
X-1299D01*
Y-4804D01*
X-1259D01*
Y-4724D01*
X-1299D01*
Y-4684D01*
X-1379D01*
Y-4724D01*
X-1419D01*
Y-4804D01*
X-1379D01*
Y-12363D02*
Y-12403D01*
X-1299D01*
Y-12363D01*
X-1259D01*
Y-12283D01*
X-1299D01*
Y-12243D01*
X-1379D01*
Y-12283D01*
X-1419D01*
Y-12363D01*
X-1379D01*
Y-11733D02*
Y-11773D01*
X-1299D01*
Y-11733D01*
X-1259D01*
Y-11653D01*
X-1299D01*
Y-11613D01*
X-1379D01*
Y-11653D01*
X-1419D01*
Y-11733D01*
X-1379D01*
Y-11103D02*
Y-11143D01*
X-1299D01*
Y-11103D01*
X-1259D01*
Y-11023D01*
X-1299D01*
Y-10983D01*
X-1379D01*
Y-11023D01*
X-1419D01*
Y-11103D01*
X-1379D01*
Y-10473D02*
Y-10513D01*
X-1299D01*
Y-10473D01*
X-1259D01*
Y-10393D01*
X-1299D01*
Y-10353D01*
X-1379D01*
Y-10393D01*
X-1419D01*
Y-10473D01*
X-1379D01*
Y-9843D02*
Y-9883D01*
X-1299D01*
Y-9843D01*
X-1259D01*
Y-9763D01*
X-1299D01*
Y-9723D01*
X-1379D01*
Y-9763D01*
X-1419D01*
Y-9843D01*
X-1379D01*
Y-8583D02*
Y-8623D01*
X-1299D01*
Y-8583D01*
X-1259D01*
Y-8503D01*
X-1299D01*
Y-8463D01*
X-1379D01*
Y-8503D01*
X-1419D01*
Y-8583D01*
X-1379D01*
Y-9213D02*
Y-9253D01*
X-1299D01*
Y-9213D01*
X-1259D01*
Y-9133D01*
X-1299D01*
Y-9093D01*
X-1379D01*
Y-9133D01*
X-1419D01*
Y-9213D01*
X-1379D01*
Y-16772D02*
Y-16812D01*
X-1299D01*
Y-16772D01*
X-1259D01*
Y-16692D01*
X-1299D01*
Y-16652D01*
X-1379D01*
Y-16692D01*
X-1419D01*
Y-16772D01*
X-1379D01*
Y-16142D02*
Y-16182D01*
X-1299D01*
Y-16142D01*
X-1259D01*
Y-16062D01*
X-1299D01*
Y-16022D01*
X-1379D01*
Y-16062D01*
X-1419D01*
Y-16142D01*
X-1379D01*
Y-15512D02*
Y-15552D01*
X-1299D01*
Y-15512D01*
X-1259D01*
Y-15432D01*
X-1299D01*
Y-15392D01*
X-1379D01*
Y-15432D01*
X-1419D01*
Y-15512D01*
X-1379D01*
Y-14883D02*
Y-14923D01*
X-1299D01*
Y-14883D01*
X-1259D01*
Y-14803D01*
X-1299D01*
Y-14763D01*
X-1379D01*
Y-14803D01*
X-1419D01*
Y-14883D01*
X-1379D01*
Y-14253D02*
Y-14293D01*
X-1299D01*
Y-14253D01*
X-1259D01*
Y-14173D01*
X-1299D01*
Y-14133D01*
X-1379D01*
Y-14173D01*
X-1419D01*
Y-14253D01*
X-1379D01*
Y-12993D02*
Y-13033D01*
X-1299D01*
Y-12993D01*
X-1259D01*
Y-12913D01*
X-1299D01*
Y-12873D01*
X-1379D01*
Y-12913D01*
X-1419D01*
Y-12993D01*
X-1379D01*
Y-13623D02*
Y-13663D01*
X-1299D01*
Y-13623D01*
X-1259D01*
Y-13543D01*
X-1299D01*
Y-13503D01*
X-1379D01*
Y-13543D01*
X-1419D01*
Y-13623D01*
X-1379D01*
Y-21182D02*
Y-21222D01*
X-1299D01*
Y-21182D01*
X-1259D01*
Y-21102D01*
X-1299D01*
Y-21062D01*
X-1379D01*
Y-21102D01*
X-1419D01*
Y-21182D01*
X-1379D01*
Y-20552D02*
Y-20592D01*
X-1299D01*
Y-20552D01*
X-1259D01*
Y-20472D01*
X-1299D01*
Y-20432D01*
X-1379D01*
Y-20472D01*
X-1419D01*
Y-20552D01*
X-1379D01*
Y-19922D02*
Y-19962D01*
X-1299D01*
Y-19922D01*
X-1259D01*
Y-19842D01*
X-1299D01*
Y-19802D01*
X-1379D01*
Y-19842D01*
X-1419D01*
Y-19922D01*
X-1379D01*
Y-19292D02*
Y-19332D01*
X-1299D01*
Y-19292D01*
X-1259D01*
Y-19212D01*
X-1299D01*
Y-19172D01*
X-1379D01*
Y-19212D01*
X-1419D01*
Y-19292D01*
X-1379D01*
Y-18662D02*
Y-18702D01*
X-1299D01*
Y-18662D01*
X-1259D01*
Y-18582D01*
X-1299D01*
Y-18542D01*
X-1379D01*
Y-18582D01*
X-1419D01*
Y-18662D01*
X-1379D01*
Y-17402D02*
Y-17442D01*
X-1299D01*
Y-17402D01*
X-1259D01*
Y-17322D01*
X-1299D01*
Y-17282D01*
X-1379D01*
Y-17322D01*
X-1419D01*
Y-17402D01*
X-1379D01*
Y-18032D02*
Y-18072D01*
X-1299D01*
Y-18032D01*
X-1259D01*
Y-17952D01*
X-1299D01*
Y-17912D01*
X-1379D01*
Y-17952D01*
X-1419D01*
Y-18032D01*
X-1379D01*
Y-25591D02*
Y-25631D01*
X-1299D01*
Y-25591D01*
X-1259D01*
Y-25511D01*
X-1299D01*
Y-25471D01*
X-1379D01*
Y-25511D01*
X-1419D01*
Y-25591D01*
X-1379D01*
Y-24961D02*
Y-25001D01*
X-1299D01*
Y-24961D01*
X-1259D01*
Y-24881D01*
X-1299D01*
Y-24841D01*
X-1379D01*
Y-24881D01*
X-1419D01*
Y-24961D01*
X-1379D01*
Y-24331D02*
Y-24371D01*
X-1299D01*
Y-24331D01*
X-1259D01*
Y-24251D01*
X-1299D01*
Y-24211D01*
X-1379D01*
Y-24251D01*
X-1419D01*
Y-24331D01*
X-1379D01*
Y-23701D02*
Y-23741D01*
X-1299D01*
Y-23701D01*
X-1259D01*
Y-23621D01*
X-1299D01*
Y-23581D01*
X-1379D01*
Y-23621D01*
X-1419D01*
Y-23701D01*
X-1379D01*
Y-23071D02*
Y-23112D01*
X-1299D01*
Y-23071D01*
X-1259D01*
Y-22991D01*
X-1299D01*
Y-22952D01*
X-1379D01*
Y-22991D01*
X-1419D01*
Y-23071D01*
X-1379D01*
Y-21812D02*
Y-21852D01*
X-1299D01*
Y-21812D01*
X-1259D01*
Y-21732D01*
X-1299D01*
Y-21692D01*
X-1379D01*
Y-21732D01*
X-1419D01*
Y-21812D01*
X-1379D01*
Y-22442D02*
Y-22482D01*
X-1299D01*
Y-22442D01*
X-1259D01*
Y-22362D01*
X-1299D01*
Y-22322D01*
X-1379D01*
Y-22362D01*
X-1419D01*
Y-22442D01*
X-1379D01*
Y-26221D02*
Y-26261D01*
X-1299D01*
Y-26221D01*
X-1259D01*
Y-26141D01*
X-1299D01*
Y-26101D01*
X-1379D01*
Y-26141D01*
X-1419D01*
Y-26221D01*
X-1379D01*
X-1260Y-26851D02*
Y-26891D01*
X-1180D01*
Y-26851D01*
X-1140D01*
Y-26771D01*
X-1180D01*
Y-26731D01*
X-1260D01*
Y-26771D01*
X-1300D01*
Y-26851D01*
X-1260D01*
X20747Y-26772D02*
Y-26812D01*
X20827D01*
Y-26772D01*
X20867D01*
Y-26692D01*
X20827D01*
Y-26652D01*
X20747D01*
Y-26692D01*
X20707D01*
Y-26772D01*
X20747D01*
X20944Y-24961D02*
Y-25001D01*
X21024D01*
Y-24961D01*
X21064D01*
Y-24881D01*
X21024D01*
Y-24841D01*
X20944D01*
Y-24881D01*
X20904D01*
Y-24961D01*
X20944D01*
Y-24331D02*
Y-24371D01*
X21024D01*
Y-24331D01*
X21064D01*
Y-24251D01*
X21024D01*
Y-24211D01*
X20944D01*
Y-24251D01*
X20904D01*
Y-24331D01*
X20944D01*
Y-23701D02*
Y-23741D01*
X21024D01*
Y-23701D01*
X21064D01*
Y-23621D01*
X21024D01*
Y-23581D01*
X20944D01*
Y-23621D01*
X20904D01*
Y-23701D01*
X20944D01*
Y-23071D02*
Y-23112D01*
X21024D01*
Y-23071D01*
X21064D01*
Y-22991D01*
X21024D01*
Y-22952D01*
X20944D01*
Y-22991D01*
X20904D01*
Y-23071D01*
X20944D01*
X18779Y-26969D02*
Y-27009D01*
X18859D01*
Y-26969D01*
X18899D01*
Y-26889D01*
X18859D01*
Y-26849D01*
X18779D01*
Y-26889D01*
X18739D01*
Y-26969D01*
X18779D01*
X19409D02*
Y-27009D01*
X19489D01*
Y-26969D01*
X19529D01*
Y-26889D01*
X19489D01*
Y-26849D01*
X19409D01*
Y-26889D01*
X19369D01*
Y-26969D01*
X19409D01*
X20039D02*
Y-27009D01*
X20119D01*
Y-26969D01*
X20159D01*
Y-26889D01*
X20119D01*
Y-26849D01*
X20039D01*
Y-26889D01*
X19999D01*
Y-26969D01*
X20039D01*
X20944Y-26221D02*
Y-26261D01*
X21024D01*
Y-26221D01*
X21064D01*
Y-26141D01*
X21024D01*
Y-26101D01*
X20944D01*
Y-26141D01*
X20904D01*
Y-26221D01*
X20944D01*
X15629Y-26969D02*
Y-27009D01*
X15709D01*
Y-26969D01*
X15749D01*
Y-26889D01*
X15709D01*
Y-26849D01*
X15629D01*
Y-26889D01*
X15589D01*
Y-26969D01*
X15629D01*
X16259D02*
Y-27009D01*
X16339D01*
Y-26969D01*
X16379D01*
Y-26889D01*
X16339D01*
Y-26849D01*
X16259D01*
Y-26889D01*
X16219D01*
Y-26969D01*
X16259D01*
X16889D02*
Y-27009D01*
X16969D01*
Y-26969D01*
X17009D01*
Y-26889D01*
X16969D01*
Y-26849D01*
X16889D01*
Y-26889D01*
X16849D01*
Y-26969D01*
X16889D01*
X17519D02*
Y-27009D01*
X17599D01*
Y-26969D01*
X17639D01*
Y-26889D01*
X17599D01*
Y-26849D01*
X17519D01*
Y-26889D01*
X17479D01*
Y-26969D01*
X17519D01*
X18149D02*
Y-27009D01*
X18229D01*
Y-26969D01*
X18269D01*
Y-26889D01*
X18229D01*
Y-26849D01*
X18149D01*
Y-26889D01*
X18109D01*
Y-26969D01*
X18149D01*
X12480D02*
Y-27009D01*
X12560D01*
Y-26969D01*
X12600D01*
Y-26889D01*
X12560D01*
Y-26849D01*
X12480D01*
Y-26889D01*
X12440D01*
Y-26969D01*
X12480D01*
X13110D02*
Y-27009D01*
X13190D01*
Y-26969D01*
X13230D01*
Y-26889D01*
X13190D01*
Y-26849D01*
X13110D01*
Y-26889D01*
X13070D01*
Y-26969D01*
X13110D01*
X13740D02*
Y-27009D01*
X13820D01*
Y-26969D01*
X13860D01*
Y-26889D01*
X13820D01*
Y-26849D01*
X13740D01*
Y-26889D01*
X13700D01*
Y-26969D01*
X13740D01*
X14369D02*
Y-27009D01*
X14449D01*
Y-26969D01*
X14489D01*
Y-26889D01*
X14449D01*
Y-26849D01*
X14369D01*
Y-26889D01*
X14329D01*
Y-26969D01*
X14369D01*
X14999D02*
Y-27009D01*
X15079D01*
Y-26969D01*
X15119D01*
Y-26889D01*
X15079D01*
Y-26849D01*
X14999D01*
Y-26889D01*
X14959D01*
Y-26969D01*
X14999D01*
X9330D02*
Y-27009D01*
X9410D01*
Y-26969D01*
X9450D01*
Y-26889D01*
X9410D01*
Y-26849D01*
X9330D01*
Y-26889D01*
X9290D01*
Y-26969D01*
X9330D01*
X9960D02*
Y-27009D01*
X10040D01*
Y-26969D01*
X10080D01*
Y-26889D01*
X10040D01*
Y-26849D01*
X9960D01*
Y-26889D01*
X9920D01*
Y-26969D01*
X9960D01*
X10590D02*
Y-27009D01*
X10670D01*
Y-26969D01*
X10710D01*
Y-26889D01*
X10670D01*
Y-26849D01*
X10590D01*
Y-26889D01*
X10550D01*
Y-26969D01*
X10590D01*
X11220D02*
Y-27009D01*
X11300D01*
Y-26969D01*
X11340D01*
Y-26889D01*
X11300D01*
Y-26849D01*
X11220D01*
Y-26889D01*
X11180D01*
Y-26969D01*
X11220D01*
X11850D02*
Y-27009D01*
X11930D01*
Y-26969D01*
X11970D01*
Y-26889D01*
X11930D01*
Y-26849D01*
X11850D01*
Y-26889D01*
X11810D01*
Y-26969D01*
X11850D01*
X6180D02*
Y-27009D01*
X6260D01*
Y-26969D01*
X6300D01*
Y-26889D01*
X6260D01*
Y-26849D01*
X6180D01*
Y-26889D01*
X6140D01*
Y-26969D01*
X6180D01*
X6810D02*
Y-27009D01*
X6890D01*
Y-26969D01*
X6930D01*
Y-26889D01*
X6890D01*
Y-26849D01*
X6810D01*
Y-26889D01*
X6770D01*
Y-26969D01*
X6810D01*
X7440D02*
Y-27009D01*
X7520D01*
Y-26969D01*
X7560D01*
Y-26889D01*
X7520D01*
Y-26849D01*
X7440D01*
Y-26889D01*
X7400D01*
Y-26969D01*
X7440D01*
X8070D02*
Y-27009D01*
X8150D01*
Y-26969D01*
X8190D01*
Y-26889D01*
X8150D01*
Y-26849D01*
X8070D01*
Y-26889D01*
X8030D01*
Y-26969D01*
X8070D01*
X8700D02*
Y-27009D01*
X8780D01*
Y-26969D01*
X8820D01*
Y-26889D01*
X8780D01*
Y-26849D01*
X8700D01*
Y-26889D01*
X8660D01*
Y-26969D01*
X8700D01*
X3031D02*
Y-27009D01*
X3111D01*
Y-26969D01*
X3151D01*
Y-26889D01*
X3111D01*
Y-26849D01*
X3031D01*
Y-26889D01*
X2991D01*
Y-26969D01*
X3031D01*
X3661D02*
Y-27009D01*
X3741D01*
Y-26969D01*
X3781D01*
Y-26889D01*
X3741D01*
Y-26849D01*
X3661D01*
Y-26889D01*
X3621D01*
Y-26969D01*
X3661D01*
X4291D02*
Y-27009D01*
X4371D01*
Y-26969D01*
X4411D01*
Y-26889D01*
X4371D01*
Y-26849D01*
X4291D01*
Y-26889D01*
X4251D01*
Y-26969D01*
X4291D01*
X4921D02*
Y-27009D01*
X5001D01*
Y-26969D01*
X5041D01*
Y-26889D01*
X5001D01*
Y-26849D01*
X4921D01*
Y-26889D01*
X4881D01*
Y-26969D01*
X4921D01*
X5551D02*
Y-27009D01*
X5631D01*
Y-26969D01*
X5671D01*
Y-26889D01*
X5631D01*
Y-26849D01*
X5551D01*
Y-26889D01*
X5511D01*
Y-26969D01*
X5551D01*
X2401D02*
Y-27009D01*
X2481D01*
Y-26969D01*
X2521D01*
Y-26889D01*
X2481D01*
Y-26849D01*
X2401D01*
Y-26889D01*
X2361D01*
Y-26969D01*
X2401D01*
X1771D02*
Y-27009D01*
X1851D01*
Y-26969D01*
X1891D01*
Y-26889D01*
X1851D01*
Y-26849D01*
X1771D01*
Y-26889D01*
X1731D01*
Y-26969D01*
X1771D01*
X1141D02*
Y-27009D01*
X1221D01*
Y-26969D01*
X1261D01*
Y-26889D01*
X1221D01*
Y-26849D01*
X1141D01*
Y-26889D01*
X1101D01*
Y-26969D01*
X1141D01*
X511D02*
Y-27009D01*
X591D01*
Y-26969D01*
X631D01*
Y-26889D01*
X591D01*
Y-26849D01*
X511D01*
Y-26889D01*
X471D01*
Y-26969D01*
X511D01*
X-119D02*
Y-27009D01*
X-39D01*
Y-26969D01*
X1D01*
Y-26889D01*
X-39D01*
Y-26849D01*
X-119D01*
Y-26889D01*
X-159D01*
Y-26969D01*
X-119D01*
X-749D02*
Y-27009D01*
X-669D01*
Y-26969D01*
X-629D01*
Y-26889D01*
X-669D01*
Y-26849D01*
X-749D01*
Y-26889D01*
X-789D01*
Y-26969D01*
X-749D01*
X2519Y-13977D02*
Y-14017D01*
X2599D01*
Y-13977D01*
X2639D01*
Y-13897D01*
X2599D01*
Y-13857D01*
X2519D01*
Y-13897D01*
X2479D01*
Y-13977D01*
X2519D01*
X3543Y-13072D02*
Y-13111D01*
X3623D01*
Y-13072D01*
X3663D01*
Y-12991D01*
X3623D01*
Y-12952D01*
X3543D01*
Y-12991D01*
X3503D01*
Y-13072D01*
X3543D01*
X3621Y-13938D02*
Y-13978D01*
X3701D01*
Y-13938D01*
X3741D01*
Y-13858D01*
X3701D01*
Y-13818D01*
X3621D01*
Y-13858D01*
X3581D01*
Y-13938D01*
X3621D01*
X16338Y-19961D02*
Y-20001D01*
X16418D01*
Y-19961D01*
X16458D01*
Y-19881D01*
X16418D01*
Y-19841D01*
X16338D01*
Y-19881D01*
X16298D01*
Y-19961D01*
X16338D01*
X15511Y-19883D02*
Y-19923D01*
X15591D01*
Y-19883D01*
X15631D01*
Y-19803D01*
X15591D01*
Y-19763D01*
X15511D01*
Y-19803D01*
X15471D01*
Y-19883D01*
X15511D01*
X11968Y-19922D02*
Y-19962D01*
X12048D01*
Y-19922D01*
X12088D01*
Y-19842D01*
X12048D01*
Y-19802D01*
X11968D01*
Y-19842D01*
X11928D01*
Y-19922D01*
X11968D01*
X10905Y-19883D02*
Y-19923D01*
X10985D01*
Y-19883D01*
X11025D01*
Y-19803D01*
X10985D01*
Y-19763D01*
X10905D01*
Y-19803D01*
X10865D01*
Y-19883D01*
X10905D01*
X13110D02*
Y-19923D01*
X13190D01*
Y-19883D01*
X13230D01*
Y-19803D01*
X13190D01*
Y-19763D01*
X13110D01*
Y-19803D01*
X13070D01*
Y-19883D01*
X13110D01*
X12165Y-20867D02*
Y-20907D01*
X12245D01*
Y-20867D01*
X12285D01*
Y-20787D01*
X12245D01*
Y-20747D01*
X12165D01*
Y-20787D01*
X12125D01*
Y-20867D01*
X12165D01*
X11102Y-20827D02*
Y-20867D01*
X11182D01*
Y-20827D01*
X11222D01*
Y-20747D01*
X11182D01*
Y-20707D01*
X11102D01*
Y-20747D01*
X11062D01*
Y-20827D01*
X11102D01*
X9645Y-19922D02*
Y-19962D01*
X9725D01*
Y-19922D01*
X9765D01*
Y-19842D01*
X9725D01*
Y-19802D01*
X9645D01*
Y-19842D01*
X9605D01*
Y-19922D01*
X9645D01*
X10236Y-20355D02*
Y-20395D01*
X10316D01*
Y-20355D01*
X10356D01*
Y-20275D01*
X10316D01*
Y-20235D01*
X10236D01*
Y-20275D01*
X10196D01*
Y-20355D01*
X10236D01*
X10393Y-21182D02*
Y-21222D01*
X10473D01*
Y-21182D01*
X10513D01*
Y-21102D01*
X10473D01*
Y-21062D01*
X10393D01*
Y-21102D01*
X10353D01*
Y-21182D01*
X10393D01*
X10354Y-21812D02*
Y-21852D01*
X10434D01*
Y-21812D01*
X10474D01*
Y-21732D01*
X10434D01*
Y-21692D01*
X10354D01*
Y-21732D01*
X10314D01*
Y-21812D01*
X10354D01*
X9606Y-21851D02*
Y-21891D01*
X9686D01*
Y-21851D01*
X9726D01*
Y-21771D01*
X9686D01*
Y-21731D01*
X9606D01*
Y-21771D01*
X9566D01*
Y-21851D01*
X9606D01*
X3110Y-17638D02*
Y-17678D01*
X3190D01*
Y-17638D01*
X3230D01*
Y-17558D01*
X3190D01*
Y-17518D01*
X3110D01*
Y-17558D01*
X3070D01*
Y-17638D01*
X3110D01*
X3976Y-16221D02*
Y-16261D01*
X4056D01*
Y-16221D01*
X4096D01*
Y-16141D01*
X4056D01*
Y-16101D01*
X3976D01*
Y-16141D01*
X3936D01*
Y-16221D01*
X3976D01*
X4566Y-16615D02*
Y-16655D01*
X4646D01*
Y-16615D01*
X4686D01*
Y-16535D01*
X4646D01*
Y-16495D01*
X4566D01*
Y-16535D01*
X4526D01*
Y-16615D01*
X4566D01*
X5078Y-17363D02*
Y-17403D01*
X5158D01*
Y-17363D01*
X5198D01*
Y-17283D01*
X5158D01*
Y-17243D01*
X5078D01*
Y-17283D01*
X5038D01*
Y-17363D01*
X5078D01*
X4999Y-18190D02*
Y-18230D01*
X5079D01*
Y-18190D01*
X5119D01*
Y-18110D01*
X5079D01*
Y-18070D01*
X4999D01*
Y-18110D01*
X4959D01*
Y-18190D01*
X4999D01*
X5866Y-18741D02*
Y-18781D01*
X5946D01*
Y-18741D01*
X5986D01*
Y-18661D01*
X5946D01*
Y-18621D01*
X5866D01*
Y-18661D01*
X5826D01*
Y-18741D01*
X5866D01*
X6614Y-19056D02*
Y-19096D01*
X6694D01*
Y-19056D01*
X6734D01*
Y-18976D01*
X6694D01*
Y-18936D01*
X6614D01*
Y-18976D01*
X6574D01*
Y-19056D01*
X6614D01*
X7125Y-19568D02*
Y-19608D01*
X7205D01*
Y-19568D01*
X7245D01*
Y-19488D01*
X7205D01*
Y-19448D01*
X7125D01*
Y-19488D01*
X7085D01*
Y-19568D01*
X7125D01*
X6653Y-19961D02*
Y-20001D01*
X6733D01*
Y-19961D01*
X6773D01*
Y-19881D01*
X6733D01*
Y-19841D01*
X6653D01*
Y-19881D01*
X6613D01*
Y-19961D01*
X6653D01*
X5905Y-19568D02*
Y-19608D01*
X5985D01*
Y-19568D01*
X6025D01*
Y-19488D01*
X5985D01*
Y-19448D01*
X5905D01*
Y-19488D01*
X5865D01*
Y-19568D01*
X5905D01*
X5078Y-19489D02*
Y-19529D01*
X5158D01*
Y-19489D01*
X5198D01*
Y-19409D01*
X5158D01*
Y-19369D01*
X5078D01*
Y-19409D01*
X5038D01*
Y-19489D01*
X5078D01*
X4291Y-19174D02*
Y-19214D01*
X4371D01*
Y-19174D01*
X4411D01*
Y-19094D01*
X4371D01*
Y-19054D01*
X4291D01*
Y-19094D01*
X4251D01*
Y-19174D01*
X4291D01*
X3346Y-19292D02*
Y-19332D01*
X3426D01*
Y-19292D01*
X3466D01*
Y-19212D01*
X3426D01*
Y-19172D01*
X3346D01*
Y-19212D01*
X3306D01*
Y-19292D01*
X3346D01*
X3031Y-20001D02*
Y-20041D01*
X3111D01*
Y-20001D01*
X3151D01*
Y-19921D01*
X3111D01*
Y-19881D01*
X3031D01*
Y-19921D01*
X2991D01*
Y-20001D01*
X3031D01*
X3385Y-20906D02*
Y-20946D01*
X3465D01*
Y-20906D01*
X3505D01*
Y-20826D01*
X3465D01*
Y-20786D01*
X3385D01*
Y-20826D01*
X3345D01*
Y-20906D01*
X3385D01*
X4409Y-21064D02*
Y-21104D01*
X4489D01*
Y-21064D01*
X4529D01*
Y-20984D01*
X4489D01*
Y-20944D01*
X4409D01*
Y-20984D01*
X4369D01*
Y-21064D01*
X4409D01*
X5314Y-20670D02*
Y-20710D01*
X5394D01*
Y-20670D01*
X5434D01*
Y-20590D01*
X5394D01*
Y-20550D01*
X5314D01*
Y-20590D01*
X5274D01*
Y-20670D01*
X5314D01*
X5511Y-21221D02*
Y-21261D01*
X5591D01*
Y-21221D01*
X5631D01*
Y-21141D01*
X5591D01*
Y-21101D01*
X5511D01*
Y-21141D01*
X5471D01*
Y-21221D01*
X5511D01*
X7283Y-21379D02*
Y-21419D01*
X7363D01*
Y-21379D01*
X7403D01*
Y-21299D01*
X7363D01*
Y-21259D01*
X7283D01*
Y-21299D01*
X7243D01*
Y-21379D01*
X7283D01*
X8503Y-20434D02*
Y-20474D01*
X8583D01*
Y-20434D01*
X8623D01*
Y-20354D01*
X8583D01*
Y-20314D01*
X8503D01*
Y-20354D01*
X8463D01*
Y-20434D01*
X8503D01*
X6732Y-22993D02*
Y-23033D01*
X6812D01*
Y-22993D01*
X6852D01*
Y-22913D01*
X6812D01*
Y-22873D01*
X6732D01*
Y-22913D01*
X6692D01*
Y-22993D01*
X6732D01*
X9724Y-23190D02*
Y-23230D01*
X9804D01*
Y-23190D01*
X9844D01*
Y-23110D01*
X9804D01*
Y-23070D01*
X9724D01*
Y-23110D01*
X9684D01*
Y-23190D01*
X9724D01*
X8385Y-23662D02*
Y-23702D01*
X8465D01*
Y-23662D01*
X8505D01*
Y-23582D01*
X8465D01*
Y-23542D01*
X8385D01*
Y-23582D01*
X8345D01*
Y-23662D01*
X8385D01*
X4842Y-23701D02*
Y-23741D01*
X4922D01*
Y-23701D01*
X4962D01*
Y-23621D01*
X4922D01*
Y-23581D01*
X4842D01*
Y-23621D01*
X4802D01*
Y-23701D01*
X4842D01*
X3543D02*
Y-23741D01*
X3623D01*
Y-23701D01*
X3663D01*
Y-23621D01*
X3623D01*
Y-23581D01*
X3543D01*
Y-23621D01*
X3503D01*
Y-23701D01*
X3543D01*
X2283Y-23623D02*
Y-23663D01*
X2363D01*
Y-23623D01*
X2403D01*
Y-23543D01*
X2363D01*
Y-23503D01*
X2283D01*
Y-23543D01*
X2243D01*
Y-23623D01*
X2283D01*
X1417Y-22875D02*
Y-22915D01*
X1497D01*
Y-22875D01*
X1537D01*
Y-22795D01*
X1497D01*
Y-22755D01*
X1417D01*
Y-22795D01*
X1377D01*
Y-22875D01*
X1417D01*
X826Y-22205D02*
Y-22245D01*
X906D01*
Y-22205D01*
X946D01*
Y-22125D01*
X906D01*
Y-22085D01*
X826D01*
Y-22125D01*
X786D01*
Y-22205D01*
X826D01*
X708Y-21221D02*
Y-21261D01*
X788D01*
Y-21221D01*
X828D01*
Y-21141D01*
X788D01*
Y-21101D01*
X708D01*
Y-21141D01*
X668D01*
Y-21221D01*
X708D01*
X629Y-20197D02*
Y-20237D01*
X709D01*
Y-20197D01*
X749D01*
Y-20117D01*
X709D01*
Y-20077D01*
X629D01*
Y-20117D01*
X589D01*
Y-20197D01*
X629D01*
X944Y-18938D02*
Y-18978D01*
X1024D01*
Y-18938D01*
X1064D01*
Y-18858D01*
X1024D01*
Y-18818D01*
X944D01*
Y-18858D01*
X904D01*
Y-18938D01*
X944D01*
X1338Y-17993D02*
Y-18033D01*
X1418D01*
Y-17993D01*
X1458D01*
Y-17913D01*
X1418D01*
Y-17873D01*
X1338D01*
Y-17913D01*
X1298D01*
Y-17993D01*
X1338D01*
Y-17166D02*
Y-17206D01*
X1418D01*
Y-17166D01*
X1458D01*
Y-17086D01*
X1418D01*
Y-17046D01*
X1338D01*
Y-17086D01*
X1298D01*
Y-17166D01*
X1338D01*
X12991Y-22835D02*
Y-22875D01*
X13072D01*
Y-22835D01*
X13111D01*
Y-22755D01*
X13072D01*
Y-22715D01*
X12991D01*
Y-22755D01*
X12952D01*
Y-22835D01*
X12991D01*
X12007Y-23780D02*
Y-23820D01*
X12087D01*
Y-23780D01*
X12127D01*
Y-23700D01*
X12087D01*
Y-23660D01*
X12007D01*
Y-23700D01*
X11967D01*
Y-23780D01*
X12007D01*
X11102Y-24686D02*
Y-24726D01*
X11182D01*
Y-24686D01*
X11222D01*
Y-24606D01*
X11182D01*
Y-24566D01*
X11102D01*
Y-24606D01*
X11062D01*
Y-24686D01*
X11102D01*
X10196Y-25276D02*
Y-25316D01*
X10276D01*
Y-25276D01*
X10316D01*
Y-25196D01*
X10276D01*
Y-25156D01*
X10196D01*
Y-25196D01*
X10156D01*
Y-25276D01*
X10196D01*
X8818Y-25394D02*
Y-25434D01*
X8898D01*
Y-25394D01*
X8938D01*
Y-25314D01*
X8898D01*
Y-25274D01*
X8818D01*
Y-25314D01*
X8778D01*
Y-25394D01*
X8818D01*
X7519Y-25355D02*
Y-25395D01*
X7599D01*
Y-25355D01*
X7639D01*
Y-25275D01*
X7599D01*
Y-25235D01*
X7519D01*
Y-25275D01*
X7479D01*
Y-25355D01*
X7519D01*
X6102Y-25316D02*
Y-25356D01*
X6182D01*
Y-25316D01*
X6222D01*
Y-25236D01*
X6182D01*
Y-25196D01*
X6102D01*
Y-25236D01*
X6062D01*
Y-25316D01*
X6102D01*
X4527Y-25276D02*
Y-25316D01*
X4607D01*
Y-25276D01*
X4647D01*
Y-25196D01*
X4607D01*
Y-25156D01*
X4527D01*
Y-25196D01*
X4487D01*
Y-25276D01*
X4527D01*
X2834Y-25237D02*
Y-25277D01*
X2914D01*
Y-25237D01*
X2954D01*
Y-25157D01*
X2914D01*
Y-25117D01*
X2834D01*
Y-25157D01*
X2794D01*
Y-25237D01*
X2834D01*
X1417Y-25119D02*
Y-25159D01*
X1497D01*
Y-25119D01*
X1537D01*
Y-25039D01*
X1497D01*
Y-24999D01*
X1417D01*
Y-25039D01*
X1377D01*
Y-25119D01*
X1417D01*
X275Y-24056D02*
Y-24096D01*
X355D01*
Y-24056D01*
X395D01*
Y-23976D01*
X355D01*
Y-23936D01*
X275D01*
Y-23976D01*
X235D01*
Y-24056D01*
X275D01*
X-591Y-23347D02*
Y-23387D01*
X-511D01*
Y-23347D01*
X-471D01*
Y-23267D01*
X-511D01*
Y-23227D01*
X-591D01*
Y-23267D01*
X-631D01*
Y-23347D01*
X-591D01*
X-709Y-21615D02*
Y-21655D01*
X-629D01*
Y-21615D01*
X-589D01*
Y-21535D01*
X-629D01*
Y-21495D01*
X-709D01*
Y-21535D01*
X-749D01*
Y-21615D01*
X-709D01*
Y-20355D02*
Y-20395D01*
X-629D01*
Y-20355D01*
X-589D01*
Y-20275D01*
X-629D01*
Y-20235D01*
X-709D01*
Y-20275D01*
X-749D01*
Y-20355D01*
X-709D01*
X-788Y-19056D02*
Y-19096D01*
X-708D01*
Y-19056D01*
X-668D01*
Y-18976D01*
X-708D01*
Y-18936D01*
X-788D01*
Y-18976D01*
X-828D01*
Y-19056D01*
X-788D01*
X-473Y-17835D02*
Y-17875D01*
X-393D01*
Y-17835D01*
X-353D01*
Y-17755D01*
X-393D01*
Y-17715D01*
X-473D01*
Y-17755D01*
X-513D01*
Y-17835D01*
X-473D01*
X-512Y-15867D02*
Y-15907D01*
X-432D01*
Y-15867D01*
X-392D01*
Y-15787D01*
X-432D01*
Y-15747D01*
X-512D01*
Y-15787D01*
X-552D01*
Y-15867D01*
X-512D01*
X1810Y-12678D02*
Y-12718D01*
X1890D01*
Y-12678D01*
X1930D01*
Y-12598D01*
X1890D01*
Y-12558D01*
X1810D01*
Y-12598D01*
X1770D01*
Y-12678D01*
X1810D01*
X2480Y-13229D02*
Y-13269D01*
X2560D01*
Y-13229D01*
X2600D01*
Y-13149D01*
X2560D01*
Y-13109D01*
X2480D01*
Y-13149D01*
X2440D01*
Y-13229D01*
X2480D01*
X4291Y-13190D02*
Y-13230D01*
X4371D01*
Y-13190D01*
X4411D01*
Y-13110D01*
X4371D01*
Y-13070D01*
X4291D01*
Y-13110D01*
X4251D01*
Y-13190D01*
X4291D01*
X16968Y-6221D02*
Y-6261D01*
X17048D01*
Y-6221D01*
X17088D01*
Y-6141D01*
X17048D01*
Y-6101D01*
X16968D01*
Y-6141D01*
X16928D01*
Y-6221D01*
X16968D01*
X17952Y-6300D02*
Y-6340D01*
X18032D01*
Y-6300D01*
X18072D01*
Y-6220D01*
X18032D01*
Y-6180D01*
X17952D01*
Y-6220D01*
X17912D01*
Y-6300D01*
X17952D01*
X10511Y-6379D02*
Y-6419D01*
X10591D01*
Y-6379D01*
X10631D01*
Y-6299D01*
X10591D01*
Y-6259D01*
X10511D01*
Y-6299D01*
X10471D01*
Y-6379D01*
X10511D01*
X8958Y18D02*
Y-22D01*
X9038D01*
Y18D01*
X9078D01*
Y98D01*
X9038D01*
Y138D01*
X8958D01*
Y98D01*
X8918D01*
Y18D01*
X8958D01*
X4527Y-6418D02*
Y-6458D01*
X4607D01*
Y-6418D01*
X4647D01*
Y-6338D01*
X4607D01*
Y-6298D01*
X4527D01*
Y-6338D01*
X4487D01*
Y-6418D01*
X4527D01*
X12480Y-6339D02*
Y-6379D01*
X12560D01*
Y-6339D01*
X12600D01*
Y-6259D01*
X12560D01*
Y-6219D01*
X12480D01*
Y-6259D01*
X12440D01*
Y-6339D01*
X12480D01*
X2519Y-15827D02*
Y-15867D01*
X2599D01*
Y-15827D01*
X2639D01*
Y-15747D01*
X2599D01*
Y-15707D01*
X2519D01*
Y-15747D01*
X2479D01*
Y-15827D01*
X2519D01*
X7519Y-6379D02*
Y-6419D01*
X7599D01*
Y-6379D01*
X7639D01*
Y-6299D01*
X7599D01*
Y-6259D01*
X7519D01*
Y-6299D01*
X7479D01*
Y-6379D01*
X7519D01*
X9795Y-1548D02*
Y-1588D01*
X9875D01*
Y-1548D01*
X9915D01*
Y-1468D01*
X9875D01*
Y-1428D01*
X9795D01*
Y-1468D01*
X9755D01*
Y-1548D01*
X9795D01*
X5511Y-6379D02*
Y-6419D01*
X5591D01*
Y-6379D01*
X5631D01*
Y-6299D01*
X5591D01*
Y-6259D01*
X5511D01*
Y-6299D01*
X5471D01*
Y-6379D01*
X5511D01*
X13503Y-6339D02*
Y-6379D01*
X13583D01*
Y-6339D01*
X13623D01*
Y-6259D01*
X13583D01*
Y-6219D01*
X13503D01*
Y-6259D01*
X13463D01*
Y-6339D01*
X13503D01*
X3543Y-15867D02*
Y-15907D01*
X3623D01*
Y-15867D01*
X3663D01*
Y-15787D01*
X3623D01*
Y-15747D01*
X3543D01*
Y-15787D01*
X3503D01*
Y-15867D01*
X3543D01*
X9986Y-662D02*
Y-702D01*
X10066D01*
Y-662D01*
X10106D01*
Y-582D01*
X10066D01*
Y-542D01*
X9986D01*
Y-582D01*
X9946D01*
Y-662D01*
X9986D01*
X4488Y-15867D02*
Y-15907D01*
X4568D01*
Y-15867D01*
X4608D01*
Y-15787D01*
X4568D01*
Y-15747D01*
X4488D01*
Y-15787D01*
X4448D01*
Y-15867D01*
X4488D01*
X2598Y-6024D02*
Y-6064D01*
X2678D01*
Y-6024D01*
X2718D01*
Y-5944D01*
X2678D01*
Y-5904D01*
X2598D01*
Y-5944D01*
X2558D01*
Y-6024D01*
X2598D01*
X15511Y-15827D02*
Y-15867D01*
X15591D01*
Y-15827D01*
X15631D01*
Y-15747D01*
X15591D01*
Y-15707D01*
X15511D01*
Y-15747D01*
X15471D01*
Y-15827D01*
X15511D01*
X14527Y-6339D02*
Y-6379D01*
X14607D01*
Y-6339D01*
X14647D01*
Y-6259D01*
X14607D01*
Y-6219D01*
X14527D01*
Y-6259D01*
X14487D01*
Y-6339D01*
X14527D01*
X-237Y-12363D02*
Y-12403D01*
X-157D01*
Y-12363D01*
X-117D01*
Y-12283D01*
X-157D01*
Y-12243D01*
X-237D01*
Y-12283D01*
X-277D01*
Y-12363D01*
X-237D01*
Y-10985D02*
Y-11025D01*
X-157D01*
Y-10985D01*
X-117D01*
Y-10905D01*
X-157D01*
Y-10865D01*
X-237D01*
Y-10905D01*
X-277D01*
Y-10985D01*
X-237D01*
Y-9253D02*
Y-9293D01*
X-157D01*
Y-9253D01*
X-117D01*
Y-9173D01*
X-157D01*
Y-9133D01*
X-237D01*
Y-9173D01*
X-277D01*
Y-9253D01*
X-237D01*
X2991Y-6339D02*
Y-6379D01*
X3072D01*
Y-6339D01*
X3112D01*
Y-6259D01*
X3072D01*
Y-6219D01*
X2991D01*
Y-6259D01*
X2952D01*
Y-6339D01*
X2991D01*
X3897D02*
Y-6379D01*
X3977D01*
Y-6339D01*
X4017D01*
Y-6259D01*
X3977D01*
Y-6219D01*
X3897D01*
Y-6259D01*
X3857D01*
Y-6339D01*
X3897D01*
X5157Y-5985D02*
Y-6025D01*
X5237D01*
Y-5985D01*
X5277D01*
Y-5905D01*
X5237D01*
Y-5865D01*
X5157D01*
Y-5905D01*
X5117D01*
Y-5985D01*
X5157D01*
X7322Y-5670D02*
Y-5710D01*
X7402D01*
Y-5670D01*
X7442D01*
Y-5590D01*
X7402D01*
Y-5550D01*
X7322D01*
Y-5590D01*
X7282D01*
Y-5670D01*
X7322D01*
X6180D02*
Y-5710D01*
X6260D01*
Y-5670D01*
X6300D01*
Y-5590D01*
X6260D01*
Y-5550D01*
X6180D01*
Y-5590D01*
X6140D01*
Y-5670D01*
X6180D01*
X8267Y-5788D02*
Y-5828D01*
X8347D01*
Y-5788D01*
X8387D01*
Y-5708D01*
X8347D01*
Y-5668D01*
X8267D01*
Y-5708D01*
X8227D01*
Y-5788D01*
X8267D01*
X9960Y-5867D02*
Y-5907D01*
X10040D01*
Y-5867D01*
X10080D01*
Y-5787D01*
X10040D01*
Y-5747D01*
X9960D01*
Y-5787D01*
X9920D01*
Y-5867D01*
X9960D01*
X11495D02*
Y-5907D01*
X11575D01*
Y-5867D01*
X11615D01*
Y-5787D01*
X11575D01*
Y-5747D01*
X11495D01*
Y-5787D01*
X11455D01*
Y-5867D01*
X11495D01*
X12913Y-5906D02*
Y-5946D01*
X12993D01*
Y-5906D01*
X13033D01*
Y-5826D01*
X12993D01*
Y-5786D01*
X12913D01*
Y-5826D01*
X12873D01*
Y-5906D01*
X12913D01*
X14015Y-5985D02*
Y-6025D01*
X14095D01*
Y-5985D01*
X14135D01*
Y-5905D01*
X14095D01*
Y-5865D01*
X14015D01*
Y-5905D01*
X13975D01*
Y-5985D01*
X14015D01*
X15826Y-8268D02*
Y-8308D01*
X15906D01*
Y-8268D01*
X15946D01*
Y-8188D01*
X15906D01*
Y-8148D01*
X15826D01*
Y-8188D01*
X15786D01*
Y-8268D01*
X15826D01*
X15432Y-8780D02*
Y-8820D01*
X15512D01*
Y-8780D01*
X15552D01*
Y-8700D01*
X15512D01*
Y-8660D01*
X15432D01*
Y-8700D01*
X15392D01*
Y-8780D01*
X15432D01*
X14842Y-8268D02*
Y-8308D01*
X14922D01*
Y-8268D01*
X14962D01*
Y-8188D01*
X14922D01*
Y-8148D01*
X14842D01*
Y-8188D01*
X14802D01*
Y-8268D01*
X14842D01*
X13818Y-8150D02*
Y-8190D01*
X13898D01*
Y-8150D01*
X13938D01*
Y-8070D01*
X13898D01*
Y-8030D01*
X13818D01*
Y-8070D01*
X13778D01*
Y-8150D01*
X13818D01*
X13031D02*
Y-8190D01*
X13111D01*
Y-8150D01*
X13151D01*
Y-8070D01*
X13111D01*
Y-8030D01*
X13031D01*
Y-8070D01*
X12991D01*
Y-8150D01*
X13031D01*
X14133Y-8820D02*
Y-8860D01*
X14213D01*
Y-8820D01*
X14253D01*
Y-8740D01*
X14213D01*
Y-8700D01*
X14133D01*
Y-8740D01*
X14093D01*
Y-8820D01*
X14133D01*
X12795Y-8780D02*
Y-8820D01*
X12875D01*
Y-8780D01*
X12915D01*
Y-8700D01*
X12875D01*
Y-8660D01*
X12795D01*
Y-8700D01*
X12755D01*
Y-8780D01*
X12795D01*
X11889Y-8544D02*
Y-8584D01*
X11969D01*
Y-8544D01*
X12009D01*
Y-8464D01*
X11969D01*
Y-8424D01*
X11889D01*
Y-8464D01*
X11849D01*
Y-8544D01*
X11889D01*
X10984Y-8898D02*
Y-8938D01*
X11064D01*
Y-8898D01*
X11104D01*
Y-8818D01*
X11064D01*
Y-8778D01*
X10984D01*
Y-8818D01*
X10944D01*
Y-8898D01*
X10984D01*
X10432Y-8386D02*
Y-8426D01*
X10512D01*
Y-8386D01*
X10552D01*
Y-8306D01*
X10512D01*
Y-8266D01*
X10432D01*
Y-8306D01*
X10392D01*
Y-8386D01*
X10432D01*
X11141Y-8190D02*
Y-8230D01*
X11221D01*
Y-8190D01*
X11261D01*
Y-8110D01*
X11221D01*
Y-8070D01*
X11141D01*
Y-8110D01*
X11101D01*
Y-8190D01*
X11141D01*
X8070Y-8426D02*
Y-8466D01*
X8150D01*
Y-8426D01*
X8190D01*
Y-8346D01*
X8150D01*
Y-8306D01*
X8070D01*
Y-8346D01*
X8030D01*
Y-8426D01*
X8070D01*
X9881Y-8780D02*
Y-8820D01*
X9961D01*
Y-8780D01*
X10001D01*
Y-8700D01*
X9961D01*
Y-8660D01*
X9881D01*
Y-8700D01*
X9841D01*
Y-8780D01*
X9881D01*
X15787Y-12284D02*
Y-12324D01*
X15867D01*
Y-12284D01*
X15907D01*
Y-12204D01*
X15867D01*
Y-12164D01*
X15787D01*
Y-12204D01*
X15747D01*
Y-12284D01*
X15787D01*
X15826Y-13583D02*
Y-13623D01*
X15906D01*
Y-13583D01*
X15946D01*
Y-13503D01*
X15906D01*
Y-13463D01*
X15826D01*
Y-13503D01*
X15786D01*
Y-13583D01*
X15826D01*
X17873Y-16221D02*
Y-16261D01*
X17953D01*
Y-16221D01*
X17993D01*
Y-16141D01*
X17953D01*
Y-16101D01*
X17873D01*
Y-16141D01*
X17833D01*
Y-16221D01*
X17873D01*
X17086Y-17048D02*
Y-17088D01*
X17166D01*
Y-17048D01*
X17206D01*
Y-16968D01*
X17166D01*
Y-16928D01*
X17086D01*
Y-16968D01*
X17046D01*
Y-17048D01*
X17086D01*
X16259Y-17835D02*
Y-17875D01*
X16339D01*
Y-17835D01*
X16379D01*
Y-17755D01*
X16339D01*
Y-17715D01*
X16259D01*
Y-17755D01*
X16219D01*
Y-17835D01*
X16259D01*
X15511Y-18623D02*
Y-18663D01*
X15591D01*
Y-18623D01*
X15631D01*
Y-18543D01*
X15591D01*
Y-18503D01*
X15511D01*
Y-18543D01*
X15471D01*
Y-18623D01*
X15511D01*
X17047Y-16064D02*
Y-16104D01*
X17127D01*
Y-16064D01*
X17167D01*
Y-15984D01*
X17127D01*
Y-15944D01*
X17047D01*
Y-15984D01*
X17007D01*
Y-16064D01*
X17047D01*
X16220Y-16930D02*
Y-16970D01*
X16300D01*
Y-16930D01*
X16340D01*
Y-16850D01*
X16300D01*
Y-16810D01*
X16220D01*
Y-16850D01*
X16180D01*
Y-16930D01*
X16220D01*
X16102Y-16221D02*
Y-16261D01*
X16182D01*
Y-16221D01*
X16222D01*
Y-16141D01*
X16182D01*
Y-16101D01*
X16102D01*
Y-16141D01*
X16062D01*
Y-16221D01*
X16102D01*
X15472Y-16812D02*
Y-16852D01*
X15552D01*
Y-16812D01*
X15592D01*
Y-16732D01*
X15552D01*
Y-16692D01*
X15472D01*
Y-16732D01*
X15432D01*
Y-16812D01*
X15472D01*
X15354Y-17796D02*
Y-17836D01*
X15434D01*
Y-17796D01*
X15474D01*
Y-17716D01*
X15434D01*
Y-17676D01*
X15354D01*
Y-17716D01*
X15314D01*
Y-17796D01*
X15354D01*
X13425Y-18780D02*
Y-18820D01*
X13505D01*
Y-18780D01*
X13545D01*
Y-18700D01*
X13505D01*
Y-18660D01*
X13425D01*
Y-18700D01*
X13385D01*
Y-18780D01*
X13425D01*
X11889Y-18820D02*
Y-18860D01*
X11969D01*
Y-18820D01*
X12009D01*
Y-18740D01*
X11969D01*
Y-18700D01*
X11889D01*
Y-18740D01*
X11849D01*
Y-18820D01*
X11889D01*
X10551D02*
Y-18860D01*
X10631D01*
Y-18820D01*
X10671D01*
Y-18740D01*
X10631D01*
Y-18700D01*
X10551D01*
Y-18740D01*
X10511D01*
Y-18820D01*
X10551D01*
X9330D02*
Y-18860D01*
X9410D01*
Y-18820D01*
X9450D01*
Y-18740D01*
X9410D01*
Y-18700D01*
X9330D01*
Y-18740D01*
X9290D01*
Y-18820D01*
X9330D01*
X12677Y-19331D02*
Y-19371D01*
X12757D01*
Y-19331D01*
X12797D01*
Y-19251D01*
X12757D01*
Y-19211D01*
X12677D01*
Y-19251D01*
X12637D01*
Y-19331D01*
X12677D01*
X11259D02*
Y-19371D01*
X11339D01*
Y-19331D01*
X11379D01*
Y-19251D01*
X11339D01*
Y-19211D01*
X11259D01*
Y-19251D01*
X11219D01*
Y-19331D01*
X11259D01*
X9881D02*
Y-19371D01*
X9961D01*
Y-19331D01*
X10001D01*
Y-19251D01*
X9961D01*
Y-19211D01*
X9881D01*
Y-19251D01*
X9841D01*
Y-19331D01*
X9881D01*
X8779D02*
Y-19371D01*
X8859D01*
Y-19331D01*
X8899D01*
Y-19251D01*
X8859D01*
Y-19211D01*
X8779D01*
Y-19251D01*
X8739D01*
Y-19331D01*
X8779D01*
X7637Y-19016D02*
Y-19056D01*
X7717D01*
Y-19016D01*
X7757D01*
Y-18936D01*
X7717D01*
Y-18896D01*
X7637D01*
Y-18936D01*
X7597D01*
Y-19016D01*
X7637D01*
X6928Y-17953D02*
Y-17993D01*
X7009D01*
Y-17953D01*
X7049D01*
Y-17873D01*
X7009D01*
Y-17833D01*
X6928D01*
Y-17873D01*
X6888D01*
Y-17953D01*
X6928D01*
X6062Y-17835D02*
Y-17875D01*
X6142D01*
Y-17835D01*
X6182D01*
Y-17755D01*
X6142D01*
Y-17715D01*
X6062D01*
Y-17755D01*
X6022D01*
Y-17835D01*
X6062D01*
X6692Y-16930D02*
Y-16970D01*
X6772D01*
Y-16930D01*
X6812D01*
Y-16850D01*
X6772D01*
Y-16810D01*
X6692D01*
Y-16850D01*
X6652D01*
Y-16930D01*
X6692D01*
X6023Y-16497D02*
Y-16537D01*
X6103D01*
Y-16497D01*
X6143D01*
Y-16417D01*
X6103D01*
Y-16377D01*
X6023D01*
Y-16417D01*
X5983D01*
Y-16497D01*
X6023D01*
X5117Y-15946D02*
Y-15986D01*
X5197D01*
Y-15946D01*
X5237D01*
Y-15866D01*
X5197D01*
Y-15826D01*
X5117D01*
Y-15866D01*
X5077D01*
Y-15946D01*
X5117D01*
X7991Y-17914D02*
Y-17954D01*
X8072D01*
Y-17914D01*
X8112D01*
Y-17834D01*
X8072D01*
Y-17794D01*
X7991D01*
Y-17834D01*
X7951D01*
Y-17914D01*
X7991D01*
X13425Y-17009D02*
Y-17048D01*
X13505D01*
Y-17009D01*
X13545D01*
Y-16928D01*
X13505D01*
Y-16889D01*
X13425D01*
Y-16928D01*
X13385D01*
Y-17009D01*
X13425D01*
X12480Y-17875D02*
Y-17915D01*
X12560D01*
Y-17875D01*
X12600D01*
Y-17795D01*
X12560D01*
Y-17755D01*
X12480D01*
Y-17795D01*
X12440D01*
Y-17875D01*
X12480D01*
X10708Y-17953D02*
Y-17993D01*
X10788D01*
Y-17953D01*
X10828D01*
Y-17873D01*
X10788D01*
Y-17833D01*
X10708D01*
Y-17873D01*
X10668D01*
Y-17953D01*
X10708D01*
X9251Y-17993D02*
Y-18033D01*
X9331D01*
Y-17993D01*
X9371D01*
Y-17913D01*
X9331D01*
Y-17873D01*
X9251D01*
Y-17913D01*
X9211D01*
Y-17993D01*
X9251D01*
X11259Y-16930D02*
Y-16970D01*
X11339D01*
Y-16930D01*
X11379D01*
Y-16850D01*
X11339D01*
Y-16810D01*
X11259D01*
Y-16850D01*
X11219D01*
Y-16930D01*
X11259D01*
X12558Y-16182D02*
Y-16222D01*
X12638D01*
Y-16182D01*
X12678D01*
Y-16102D01*
X12638D01*
Y-16062D01*
X12558D01*
Y-16102D01*
X12518D01*
Y-16182D01*
X12558D01*
X9881Y-15985D02*
Y-16025D01*
X9961D01*
Y-15985D01*
X10001D01*
Y-15905D01*
X9961D01*
Y-15865D01*
X9881D01*
Y-15905D01*
X9841D01*
Y-15985D01*
X9881D01*
X8976Y-16575D02*
Y-16615D01*
X9056D01*
Y-16575D01*
X9096D01*
Y-16495D01*
X9056D01*
Y-16455D01*
X8976D01*
Y-16495D01*
X8936D01*
Y-16575D01*
X8976D01*
X10511Y-16536D02*
Y-16576D01*
X10591D01*
Y-16536D01*
X10631D01*
Y-16456D01*
X10591D01*
Y-16416D01*
X10511D01*
Y-16456D01*
X10471D01*
Y-16536D01*
X10511D01*
X10590Y-10237D02*
Y-10277D01*
X10670D01*
Y-10237D01*
X10710D01*
Y-10157D01*
X10670D01*
Y-10117D01*
X10590D01*
Y-10157D01*
X10550D01*
Y-10237D01*
X10590D01*
X10984Y-10709D02*
Y-10749D01*
X11064D01*
Y-10709D01*
X11104D01*
Y-10629D01*
X11064D01*
Y-10589D01*
X10984D01*
Y-10629D01*
X10944D01*
Y-10709D01*
X10984D01*
X11220Y-11733D02*
Y-11773D01*
X11300D01*
Y-11733D01*
X11340D01*
Y-11653D01*
X11300D01*
Y-11613D01*
X11220D01*
Y-11653D01*
X11180D01*
Y-11733D01*
X11220D01*
Y-12205D02*
Y-12245D01*
X11300D01*
Y-12205D01*
X11340D01*
Y-12125D01*
X11300D01*
Y-12085D01*
X11220D01*
Y-12125D01*
X11180D01*
Y-12205D01*
X11220D01*
Y-12717D02*
Y-12757D01*
X11300D01*
Y-12717D01*
X11340D01*
Y-12637D01*
X11300D01*
Y-12597D01*
X11220D01*
Y-12637D01*
X11180D01*
Y-12717D01*
X11220D01*
X10826Y-13977D02*
Y-14017D01*
X10906D01*
Y-13977D01*
X10946D01*
Y-13897D01*
X10906D01*
Y-13857D01*
X10826D01*
Y-13897D01*
X10786D01*
Y-13977D01*
X10826D01*
X7086D02*
Y-14017D01*
X7166D01*
Y-13977D01*
X7206D01*
Y-13897D01*
X7166D01*
Y-13857D01*
X7086D01*
Y-13897D01*
X7046D01*
Y-13977D01*
X7086D01*
X7480Y-12993D02*
Y-13033D01*
X7560D01*
Y-12993D01*
X7600D01*
Y-12913D01*
X7560D01*
Y-12873D01*
X7480D01*
Y-12913D01*
X7440D01*
Y-12993D01*
X7480D01*
X8267Y-12048D02*
Y-12088D01*
X8347D01*
Y-12048D01*
X8387D01*
Y-11968D01*
X8347D01*
Y-11928D01*
X8267D01*
Y-11968D01*
X8227D01*
Y-12048D01*
X8267D01*
X9133Y-12481D02*
Y-12521D01*
X9213D01*
Y-12481D01*
X9253D01*
Y-12401D01*
X9213D01*
Y-12361D01*
X9133D01*
Y-12401D01*
X9093D01*
Y-12481D01*
X9133D01*
X8188Y-10985D02*
Y-11025D01*
X8268D01*
Y-10985D01*
X8308D01*
Y-10905D01*
X8268D01*
Y-10865D01*
X8188D01*
Y-10905D01*
X8148D01*
Y-10985D01*
X8188D01*
X9173Y-10434D02*
Y-10474D01*
X9253D01*
Y-10434D01*
X9293D01*
Y-10354D01*
X9253D01*
Y-10314D01*
X9173D01*
Y-10354D01*
X9133D01*
Y-10434D01*
X9173D01*
X6732Y-9961D02*
Y-10001D01*
X6812D01*
Y-9961D01*
X6852D01*
Y-9881D01*
X6812D01*
Y-9841D01*
X6732D01*
Y-9881D01*
X6692D01*
Y-9961D01*
X6732D01*
X6574Y-10827D02*
Y-10867D01*
X6654D01*
Y-10827D01*
X6694D01*
Y-10747D01*
X6654D01*
Y-10707D01*
X6574D01*
Y-10747D01*
X6534D01*
Y-10827D01*
X6574D01*
X4724Y-8505D02*
Y-8545D01*
X4804D01*
Y-8505D01*
X4844D01*
Y-8425D01*
X4804D01*
Y-8385D01*
X4724D01*
Y-8425D01*
X4684D01*
Y-8505D01*
X4724D01*
X3503Y-8386D02*
Y-8426D01*
X3583D01*
Y-8386D01*
X3623D01*
Y-8306D01*
X3583D01*
Y-8266D01*
X3503D01*
Y-8306D01*
X3463D01*
Y-8386D01*
X3503D01*
X2086Y-8268D02*
Y-8308D01*
X2166D01*
Y-8268D01*
X2206D01*
Y-8188D01*
X2166D01*
Y-8148D01*
X2086D01*
Y-8188D01*
X2046D01*
Y-8268D01*
X2086D01*
X3346Y-9292D02*
Y-9332D01*
X3426D01*
Y-9292D01*
X3466D01*
Y-9212D01*
X3426D01*
Y-9172D01*
X3346D01*
Y-9212D01*
X3306D01*
Y-9292D01*
X3346D01*
X3582Y-10158D02*
Y-10198D01*
X3662D01*
Y-10158D01*
X3702D01*
Y-10078D01*
X3662D01*
Y-10038D01*
X3582D01*
Y-10078D01*
X3542D01*
Y-10158D01*
X3582D01*
X3897Y-11024D02*
Y-11064D01*
X3977D01*
Y-11024D01*
X4017D01*
Y-10944D01*
X3977D01*
Y-10904D01*
X3897D01*
Y-10944D01*
X3857D01*
Y-11024D01*
X3897D01*
X4330Y-11457D02*
Y-11497D01*
X4410D01*
Y-11457D01*
X4450D01*
Y-11377D01*
X4410D01*
Y-11337D01*
X4330D01*
Y-11377D01*
X4290D01*
Y-11457D01*
X4330D01*
X3740Y-11969D02*
Y-12009D01*
X3820D01*
Y-11969D01*
X3860D01*
Y-11889D01*
X3820D01*
Y-11849D01*
X3740D01*
Y-11889D01*
X3700D01*
Y-11969D01*
X3740D01*
X4291Y-12717D02*
Y-12757D01*
X4371D01*
Y-12717D01*
X4411D01*
Y-12637D01*
X4371D01*
Y-12597D01*
X4291D01*
Y-12637D01*
X4251D01*
Y-12717D01*
X4291D01*
X4448Y-14016D02*
Y-14056D01*
X4528D01*
Y-14016D01*
X4568D01*
Y-13936D01*
X4528D01*
Y-13896D01*
X4448D01*
Y-13936D01*
X4408D01*
Y-14016D01*
X4448D01*
X3031Y-16182D02*
Y-16222D01*
X3111D01*
Y-16182D01*
X3151D01*
Y-16102D01*
X3111D01*
Y-16062D01*
X3031D01*
Y-16102D01*
X2991D01*
Y-16182D01*
X3031D01*
X1968Y-16064D02*
Y-16104D01*
X2048D01*
Y-16064D01*
X2088D01*
Y-15984D01*
X2048D01*
Y-15944D01*
X1968D01*
Y-15984D01*
X1928D01*
Y-16064D01*
X1968D01*
X2991Y-13977D02*
Y-14017D01*
X3072D01*
Y-13977D01*
X3112D01*
Y-13897D01*
X3072D01*
Y-13857D01*
X2991D01*
Y-13897D01*
X2952D01*
Y-13977D01*
X2991D01*
X1377Y-13308D02*
Y-13348D01*
X1457D01*
Y-13308D01*
X1497D01*
Y-13228D01*
X1457D01*
Y-13188D01*
X1377D01*
Y-13228D01*
X1337D01*
Y-13308D01*
X1377D01*
X-182Y-14012D02*
Y-14052D01*
X-102D01*
Y-14012D01*
X-62D01*
Y-13932D01*
X-102D01*
Y-13892D01*
X-182D01*
Y-13932D01*
X-222D01*
Y-14012D01*
X-182D01*
X1200Y-12399D02*
Y-12439D01*
X1280D01*
Y-12399D01*
X1320D01*
Y-12319D01*
X1280D01*
Y-12279D01*
X1200D01*
Y-12319D01*
X1160D01*
Y-12399D01*
X1200D01*
X1668Y-11924D02*
Y-11964D01*
X1748D01*
Y-11924D01*
X1788D01*
Y-11844D01*
X1748D01*
Y-11804D01*
X1668D01*
Y-11844D01*
X1628D01*
Y-11924D01*
X1668D01*
X1338Y-10631D02*
Y-10671D01*
X1418D01*
Y-10631D01*
X1458D01*
Y-10551D01*
X1418D01*
Y-10511D01*
X1338D01*
Y-10551D01*
X1298D01*
Y-10631D01*
X1338D01*
Y-9764D02*
Y-9804D01*
X1418D01*
Y-9764D01*
X1458D01*
Y-9684D01*
X1418D01*
Y-9644D01*
X1338D01*
Y-9684D01*
X1298D01*
Y-9764D01*
X1338D01*
X1653Y-11339D02*
Y-11379D01*
X1733D01*
Y-11339D01*
X1773D01*
Y-11259D01*
X1733D01*
Y-11219D01*
X1653D01*
Y-11259D01*
X1613D01*
Y-11339D01*
X1653D01*
X2165Y-10906D02*
Y-10946D01*
X2245D01*
Y-10906D01*
X2285D01*
Y-10826D01*
X2245D01*
Y-10786D01*
X2165D01*
Y-10826D01*
X2125D01*
Y-10906D01*
X2165D01*
Y-10434D02*
Y-10474D01*
X2245D01*
Y-10434D01*
X2285D01*
Y-10354D01*
X2245D01*
Y-10314D01*
X2165D01*
Y-10354D01*
X2125D01*
Y-10434D01*
X2165D01*
X9684Y1023D02*
Y983D01*
X9764D01*
Y1023D01*
X9804D01*
Y1103D01*
X9764D01*
Y1143D01*
X9684D01*
Y1103D01*
X9644D01*
Y1023D01*
X9684D01*
X9212Y-24725D02*
Y-24765D01*
X9292D01*
Y-24725D01*
X9332D01*
Y-24645D01*
X9292D01*
Y-24605D01*
X9212D01*
Y-24645D01*
X9172D01*
Y-24725D01*
X9212D01*
X8936D02*
Y-24765D01*
X9016D01*
Y-24725D01*
X9056D01*
Y-24645D01*
X9016D01*
Y-24605D01*
X8936D01*
Y-24645D01*
X8896D01*
Y-24725D01*
X8936D01*
X8661Y-24686D02*
Y-24726D01*
X8741D01*
Y-24686D01*
X8781D01*
Y-24606D01*
X8741D01*
Y-24566D01*
X8661D01*
Y-24606D01*
X8621D01*
Y-24686D01*
X8661D01*
X13858Y-9607D02*
Y-9647D01*
X13938D01*
Y-9607D01*
X13978D01*
Y-9527D01*
X13938D01*
Y-9487D01*
X13858D01*
Y-9527D01*
X13818D01*
Y-9607D01*
X13858D01*
X12637Y-10040D02*
Y-10080D01*
X12717D01*
Y-10040D01*
X12757D01*
Y-9960D01*
X12717D01*
Y-9920D01*
X12637D01*
Y-9960D01*
X12597D01*
Y-10040D01*
X12637D01*
X13582Y-13308D02*
Y-13348D01*
X13662D01*
Y-13308D01*
X13702D01*
Y-13228D01*
X13662D01*
Y-13188D01*
X13582D01*
Y-13228D01*
X13542D01*
Y-13308D01*
X13582D01*
X13897Y-12520D02*
Y-12560D01*
X13977D01*
Y-12520D01*
X14017D01*
Y-12440D01*
X13977D01*
Y-12400D01*
X13897D01*
Y-12440D01*
X13857D01*
Y-12520D01*
X13897D01*
X12243Y-12993D02*
Y-13033D01*
X12323D01*
Y-12993D01*
X12363D01*
Y-12913D01*
X12323D01*
Y-12873D01*
X12243D01*
Y-12913D01*
X12203D01*
Y-12993D01*
X12243D01*
Y-10237D02*
Y-10277D01*
X12323D01*
Y-10237D01*
X12363D01*
Y-10157D01*
X12323D01*
Y-10117D01*
X12243D01*
Y-10157D01*
X12203D01*
Y-10237D01*
X12243D01*
X5157Y-10316D02*
Y-10356D01*
X5237D01*
Y-10316D01*
X5277D01*
Y-10236D01*
X5237D01*
Y-10196D01*
X5157D01*
Y-10236D01*
X5117D01*
Y-10316D01*
X5157D01*
X2204Y-9725D02*
Y-9765D01*
X2284D01*
Y-9725D01*
X2324D01*
Y-9645D01*
X2284D01*
Y-9605D01*
X2204D01*
Y-9645D01*
X2164D01*
Y-9725D01*
X2204D01*
X2834Y-9607D02*
Y-9647D01*
X2914D01*
Y-9607D01*
X2954D01*
Y-9527D01*
X2914D01*
Y-9487D01*
X2834D01*
Y-9527D01*
X2794D01*
Y-9607D01*
X2834D01*
X16535Y-15749D02*
Y-15789D01*
X16615D01*
Y-15749D01*
X16655D01*
Y-15669D01*
X16615D01*
Y-15629D01*
X16535D01*
Y-15669D01*
X16495D01*
Y-15749D01*
X16535D01*
X14527Y-13741D02*
Y-13781D01*
X14607D01*
Y-13741D01*
X14647D01*
Y-13661D01*
X14607D01*
Y-13621D01*
X14527D01*
Y-13661D01*
X14487D01*
Y-13741D01*
X14527D01*
Y-13977D02*
Y-14017D01*
X14607D01*
Y-13977D01*
X14647D01*
Y-13897D01*
X14607D01*
Y-13857D01*
X14527D01*
Y-13897D01*
X14487D01*
Y-13977D01*
X14527D01*
X11456Y-11260D02*
Y-11300D01*
X11536D01*
Y-11260D01*
X11576D01*
Y-11180D01*
X11536D01*
Y-11140D01*
X11456D01*
Y-11180D01*
X11416D01*
Y-11260D01*
X11456D01*
X11469Y-13006D02*
Y-13046D01*
X11549D01*
Y-13006D01*
X11589D01*
Y-12926D01*
X11549D01*
Y-12886D01*
X11469D01*
Y-12926D01*
X11429D01*
Y-13006D01*
X11469D01*
X10629Y-12442D02*
Y-12482D01*
X10709D01*
Y-12442D01*
X10749D01*
Y-12362D01*
X10709D01*
Y-12322D01*
X10629D01*
Y-12362D01*
X10589D01*
Y-12442D01*
X10629D01*
X10984Y-13465D02*
Y-13505D01*
X11064D01*
Y-13465D01*
X11104D01*
Y-13385D01*
X11064D01*
Y-13345D01*
X10984D01*
Y-13385D01*
X10944D01*
Y-13465D01*
X10984D01*
X10629Y-10946D02*
Y-10986D01*
X10709D01*
Y-10946D01*
X10749D01*
Y-10866D01*
X10709D01*
Y-10826D01*
X10629D01*
Y-10866D01*
X10589D01*
Y-10946D01*
X10629D01*
X1377Y-16497D02*
Y-16537D01*
X1457D01*
Y-16497D01*
X1497D01*
Y-16417D01*
X1457D01*
Y-16377D01*
X1377D01*
Y-16417D01*
X1337D01*
Y-16497D01*
X1377D01*
X11535Y-10827D02*
Y-10867D01*
X11615D01*
Y-10827D01*
X11655D01*
Y-10747D01*
X11615D01*
Y-10707D01*
X11535D01*
Y-10747D01*
X11495D01*
Y-10827D01*
X11535D01*
X10346Y27D02*
Y-13D01*
X10426D01*
Y27D01*
X10466D01*
Y107D01*
X10426D01*
Y147D01*
X10346D01*
Y107D01*
X10306D01*
Y27D01*
X10346D01*
X16535Y-6457D02*
Y-6497D01*
X16615D01*
Y-6457D01*
X16655D01*
Y-6377D01*
X16615D01*
Y-6337D01*
X16535D01*
Y-6377D01*
X16495D01*
Y-6457D01*
X16535D01*
X10818Y-1154D02*
Y-1194D01*
X10898D01*
Y-1154D01*
X10938D01*
Y-1074D01*
X10898D01*
Y-1034D01*
X10818D01*
Y-1074D01*
X10778D01*
Y-1154D01*
X10818D01*
X8535Y736D02*
Y696D01*
X8615D01*
Y736D01*
X8655D01*
Y816D01*
X8615D01*
Y856D01*
X8535D01*
Y816D01*
X8495D01*
Y736D01*
X8535D01*
X6763Y-996D02*
Y-1036D01*
X6843D01*
Y-996D01*
X6883D01*
Y-916D01*
X6843D01*
Y-876D01*
X6763D01*
Y-916D01*
X6723D01*
Y-996D01*
X6763D01*
X9283Y-1626D02*
Y-1666D01*
X9363D01*
Y-1626D01*
X9403D01*
Y-1546D01*
X9363D01*
Y-1506D01*
X9283D01*
Y-1546D01*
X9243D01*
Y-1626D01*
X9283D01*
X8102Y-1508D02*
Y-1548D01*
X8182D01*
Y-1508D01*
X8222D01*
Y-1428D01*
X8182D01*
Y-1388D01*
X8102D01*
Y-1428D01*
X8062D01*
Y-1508D01*
X8102D01*
X11535Y-6457D02*
Y-6497D01*
X11615D01*
Y-6457D01*
X11655D01*
Y-6377D01*
X11615D01*
Y-6337D01*
X11535D01*
Y-6377D01*
X11495D01*
Y-6457D01*
X11535D01*
X18621Y-16103D02*
Y-16143D01*
X18701D01*
Y-16103D01*
X18741D01*
Y-16023D01*
X18701D01*
Y-15983D01*
X18621D01*
Y-16023D01*
X18581D01*
Y-16103D01*
X18621D01*
X9842Y-13977D02*
Y-14017D01*
X9922D01*
Y-13977D01*
X9962D01*
Y-13897D01*
X9922D01*
Y-13857D01*
X9842D01*
Y-13897D01*
X9802D01*
Y-13977D01*
X9842D01*
X11535Y-14087D02*
Y-14127D01*
X11615D01*
Y-14087D01*
X11655D01*
Y-14007D01*
X11615D01*
Y-13967D01*
X11535D01*
Y-14007D01*
X11495D01*
Y-14087D01*
X11535D01*
Y-15820D02*
Y-15860D01*
X11615D01*
Y-15820D01*
X11655D01*
Y-15740D01*
X11615D01*
Y-15700D01*
X11535D01*
Y-15740D01*
X11495D01*
Y-15820D01*
X11535D01*
X6535Y-6457D02*
Y-6497D01*
X6615D01*
Y-6457D01*
X6655D01*
Y-6377D01*
X6615D01*
Y-6337D01*
X6535D01*
Y-6377D01*
X6495D01*
Y-6457D01*
X6535D01*
Y-8268D02*
Y-8308D01*
X6615D01*
Y-8268D01*
X6655D01*
Y-8188D01*
X6615D01*
Y-8148D01*
X6535D01*
Y-8188D01*
X6495D01*
Y-8268D01*
X6535D01*
X3661Y-4804D02*
Y-4844D01*
X3741D01*
Y-4804D01*
X3781D01*
Y-4724D01*
X3741D01*
Y-4684D01*
X3661D01*
Y-4724D01*
X3621D01*
Y-4804D01*
X3661D01*
X1535Y-6457D02*
Y-6497D01*
X1615D01*
Y-6457D01*
X1655D01*
Y-6377D01*
X1615D01*
Y-6337D01*
X1535D01*
Y-6377D01*
X1495D01*
Y-6457D01*
X1535D01*
Y-8190D02*
Y-8230D01*
X1615D01*
Y-8190D01*
X1655D01*
Y-8110D01*
X1615D01*
Y-8070D01*
X1535D01*
Y-8110D01*
X1495D01*
Y-8190D01*
X1535D01*
X6535Y-15820D02*
Y-15860D01*
X6615D01*
Y-15820D01*
X6655D01*
Y-15740D01*
X6615D01*
Y-15700D01*
X6535D01*
Y-15740D01*
X6495D01*
Y-15820D01*
X6535D01*
X6089Y-23446D02*
Y-23486D01*
X6169D01*
Y-23446D01*
X6209D01*
Y-23366D01*
X6169D01*
Y-23326D01*
X6089D01*
Y-23366D01*
X6049D01*
Y-23446D01*
X6089D01*
X4999Y-13859D02*
Y-13899D01*
X5079D01*
Y-13859D01*
X5119D01*
Y-13779D01*
X5079D01*
Y-13739D01*
X4999D01*
Y-13779D01*
X4959D01*
Y-13859D01*
X4999D01*
X1535Y-14087D02*
Y-14127D01*
X1615D01*
Y-14087D01*
X1655D01*
Y-14007D01*
X1615D01*
Y-13967D01*
X1535D01*
Y-14007D01*
X1495D01*
Y-14087D01*
X1535D01*
X-473Y-13150D02*
Y-13190D01*
X-393D01*
Y-13150D01*
X-353D01*
Y-13070D01*
X-393D01*
Y-13030D01*
X-473D01*
Y-13070D01*
X-513D01*
Y-13150D01*
X-473D01*
X1535Y-15820D02*
Y-15860D01*
X1615D01*
Y-15820D01*
X1655D01*
Y-15740D01*
X1615D01*
Y-15700D01*
X1535D01*
Y-15740D01*
X1495D01*
Y-15820D01*
X1535D01*
X-1221Y-15788D02*
Y-15828D01*
X-1141D01*
Y-15788D01*
X-1101D01*
Y-15708D01*
X-1141D01*
Y-15668D01*
X-1221D01*
Y-15708D01*
X-1261D01*
Y-15788D01*
X-1221D01*
X9173Y-24410D02*
Y-24450D01*
X9253D01*
Y-24410D01*
X9293D01*
Y-24330D01*
X9253D01*
Y-24290D01*
X9173D01*
Y-24330D01*
X9133D01*
Y-24410D01*
X9173D01*
X8661D02*
Y-24450D01*
X8741D01*
Y-24410D01*
X8781D01*
Y-24330D01*
X8741D01*
Y-24290D01*
X8661D01*
Y-24330D01*
X8621D01*
Y-24410D01*
X8661D01*
X8936D02*
Y-24450D01*
X9016D01*
Y-24410D01*
X9056D01*
Y-24330D01*
X9016D01*
Y-24290D01*
X8936D01*
Y-24330D01*
X8896D01*
Y-24410D01*
X8936D01*
X7834Y-20512D02*
Y-20552D01*
X7914D01*
Y-20512D01*
X7954D01*
Y-20432D01*
X7914D01*
Y-20392D01*
X7834D01*
Y-20432D01*
X7794D01*
Y-20512D01*
X7834D01*
Y-20766D02*
Y-20806D01*
X7914D01*
Y-20766D01*
X7954D01*
Y-20686D01*
X7914D01*
Y-20646D01*
X7834D01*
Y-20686D01*
X7794D01*
Y-20766D01*
X7834D01*
Y-21379D02*
Y-21419D01*
X7914D01*
Y-21379D01*
X7954D01*
Y-21299D01*
X7914D01*
Y-21259D01*
X7834D01*
Y-21299D01*
X7794D01*
Y-21379D01*
X7834D01*
X6355Y-22323D02*
Y-22363D01*
X6435D01*
Y-22323D01*
X6475D01*
Y-22243D01*
X6435D01*
Y-22203D01*
X6355D01*
Y-22243D01*
X6315D01*
Y-22323D01*
X6355D01*
X6099D02*
Y-22363D01*
X6179D01*
Y-22323D01*
X6219D01*
Y-22243D01*
X6179D01*
Y-22203D01*
X6099D01*
Y-22243D01*
X6059D01*
Y-22323D01*
X6099D01*
X5866D02*
Y-22363D01*
X5946D01*
Y-22323D01*
X5986D01*
Y-22243D01*
X5946D01*
Y-22203D01*
X5866D01*
Y-22243D01*
X5826D01*
Y-22323D01*
X5866D01*
X511Y-8820D02*
Y-8860D01*
X591D01*
Y-8820D01*
X631D01*
Y-8740D01*
X591D01*
Y-8700D01*
X511D01*
Y-8740D01*
X471D01*
Y-8820D01*
X511D01*
Y-9073D02*
Y-9113D01*
X591D01*
Y-9073D01*
X631D01*
Y-8993D01*
X591D01*
Y-8953D01*
X511D01*
Y-8993D01*
X471D01*
Y-9073D01*
X511D01*
M02*
