G04*
G04 #@! TF.GenerationSoftware,Altium Limited,Altium Designer,25.8.1 (18)*
G04*
G04 Layer_Color=8388736*
%FSLAX24Y24*%
%MOIN*%
G70*
G04*
G04 #@! TF.SameCoordinates,E7C4B6EF-679D-40F3-B346-0123BADFF20E*
G04*
G04*
G04 #@! TF.FilePolarity,Negative*
G04*
G01*
G75*
%ADD13C,0.0100*%
%ADD17C,0.0039*%
%ADD19R,0.0770X0.0166*%
G04:AMPARAMS|DCode=20|XSize=77mil|YSize=16.6mil|CornerRadius=8.3mil|HoleSize=0mil|Usage=FLASHONLY|Rotation=180.000|XOffset=0mil|YOffset=0mil|HoleType=Round|Shape=RoundedRectangle|*
%AMROUNDEDRECTD20*
21,1,0.0770,0.0000,0,0,180.0*
21,1,0.0604,0.0166,0,0,180.0*
1,1,0.0166,-0.0302,0.0000*
1,1,0.0166,0.0302,0.0000*
1,1,0.0166,0.0302,0.0000*
1,1,0.0166,-0.0302,0.0000*
%
%ADD20ROUNDEDRECTD20*%
%ADD29C,0.0118*%
%ADD30R,0.0395X0.0395*%
%ADD31R,0.0474X0.1064*%
%ADD32R,0.0300X0.0280*%
G04:AMPARAMS|DCode=33|XSize=35.5mil|YSize=35.5mil|CornerRadius=9.9mil|HoleSize=0mil|Usage=FLASHONLY|Rotation=270.000|XOffset=0mil|YOffset=0mil|HoleType=Round|Shape=RoundedRectangle|*
%AMROUNDEDRECTD33*
21,1,0.0355,0.0157,0,0,270.0*
21,1,0.0157,0.0355,0,0,270.0*
1,1,0.0197,-0.0079,-0.0079*
1,1,0.0197,-0.0079,0.0079*
1,1,0.0197,0.0079,0.0079*
1,1,0.0197,0.0079,-0.0079*
%
%ADD33ROUNDEDRECTD33*%
%ADD34R,0.0198X0.0245*%
G04:AMPARAMS|DCode=35|XSize=106.4mil|YSize=47.4mil|CornerRadius=8.9mil|HoleSize=0mil|Usage=FLASHONLY|Rotation=90.000|XOffset=0mil|YOffset=0mil|HoleType=Round|Shape=RoundedRectangle|*
%AMROUNDEDRECTD35*
21,1,0.1064,0.0295,0,0,90.0*
21,1,0.0886,0.0474,0,0,90.0*
1,1,0.0178,0.0148,0.0443*
1,1,0.0178,0.0148,-0.0443*
1,1,0.0178,-0.0148,-0.0443*
1,1,0.0178,-0.0148,0.0443*
%
%ADD35ROUNDEDRECTD35*%
%ADD36R,0.0316X0.0237*%
%ADD37R,0.0395X0.0395*%
%ADD38R,0.0236X0.0206*%
%ADD39R,0.0610X0.0610*%
%ADD40C,0.0610*%
%ADD41C,0.0946*%
%ADD42O,0.1655X0.1261*%
%ADD43C,0.2461*%
%ADD44C,0.0680*%
%ADD45C,0.0867*%
%ADD46C,0.0197*%
G36*
X-401Y11346D02*
X-395Y11345D01*
X-315Y11324D01*
X-310Y11322D01*
X-306Y11320D01*
X-234Y11278D01*
X-229Y11275D01*
X-226Y11272D01*
X-167Y11213D01*
X-163Y11209D01*
X-160Y11205D01*
X-119Y11133D01*
X-117Y11128D01*
X-115Y11123D01*
X-94Y11043D01*
X-93Y11038D01*
X-92Y11033D01*
Y10991D01*
Y10046D01*
X-93Y10041D01*
X-94Y10036D01*
X-95Y10031D01*
X-98Y10026D01*
X-100Y10022D01*
X-104Y10018D01*
X-108Y10015D01*
X-112Y10012D01*
X-117Y10009D01*
X-122Y10008D01*
X-127Y10007D01*
X-132Y10006D01*
X-762D01*
X-767Y10007D01*
X-773Y10008D01*
X-778Y10009D01*
X-782Y10012D01*
X-787Y10015D01*
X-791Y10018D01*
X-794Y10022D01*
X-797Y10026D01*
X-799Y10031D01*
X-801Y10036D01*
X-802Y10041D01*
X-802Y10046D01*
Y10991D01*
X-802Y11033D01*
D01*
Y11033D01*
X-802Y11038D01*
X-801Y11043D01*
X-779Y11123D01*
X-778Y11128D01*
X-777Y11131D01*
X-775Y11133D01*
X-734Y11205D01*
X-731Y11209D01*
X-728Y11213D01*
X-669Y11272D01*
X-665Y11275D01*
X-661Y11278D01*
X-589Y11320D01*
X-584Y11322D01*
X-579Y11324D01*
X-499Y11345D01*
X-494Y11346D01*
X-489Y11346D01*
X-406D01*
X-401Y11346D01*
D02*
G37*
G36*
X599D02*
X605Y11345D01*
X685Y11324D01*
X690Y11322D01*
X694Y11320D01*
X766Y11278D01*
X771Y11275D01*
X774Y11272D01*
X833Y11213D01*
X837Y11209D01*
X839Y11205D01*
X881Y11133D01*
X883Y11128D01*
X885Y11123D01*
X906Y11043D01*
X907Y11038D01*
X908Y11033D01*
Y10991D01*
Y10046D01*
X907Y10041D01*
X906Y10036D01*
X905Y10031D01*
X902Y10026D01*
X900Y10022D01*
X896Y10018D01*
X892Y10015D01*
X888Y10012D01*
X883Y10009D01*
X878Y10008D01*
X873Y10007D01*
X868Y10006D01*
X238D01*
X233Y10007D01*
X227Y10008D01*
X222Y10009D01*
X218Y10012D01*
X213Y10015D01*
X209Y10018D01*
X206Y10022D01*
X203Y10026D01*
X201Y10031D01*
X199Y10036D01*
X198Y10041D01*
X198Y10046D01*
Y10991D01*
X198Y11033D01*
D01*
Y11033D01*
X198Y11038D01*
X199Y11043D01*
X221Y11123D01*
X222Y11128D01*
X223Y11131D01*
X225Y11133D01*
X266Y11205D01*
X269Y11209D01*
X272Y11213D01*
X331Y11272D01*
X335Y11275D01*
X339Y11278D01*
X411Y11320D01*
X416Y11322D01*
X421Y11324D01*
X501Y11345D01*
X506Y11346D01*
X511Y11346D01*
X594D01*
X599Y11346D01*
D02*
G37*
G36*
X1599D02*
X1605Y11345D01*
X1685Y11324D01*
X1690Y11322D01*
X1694Y11320D01*
X1766Y11278D01*
X1771Y11275D01*
X1774Y11272D01*
X1833Y11213D01*
X1837Y11209D01*
X1840Y11205D01*
X1881Y11133D01*
X1883Y11128D01*
X1885Y11123D01*
X1906Y11043D01*
X1907Y11038D01*
X1908Y11033D01*
Y10991D01*
Y10046D01*
X1907Y10041D01*
X1906Y10036D01*
X1905Y10031D01*
X1902Y10026D01*
X1900Y10022D01*
X1896Y10018D01*
X1892Y10015D01*
X1888Y10012D01*
X1883Y10009D01*
X1878Y10008D01*
X1873Y10007D01*
X1868Y10006D01*
X1238D01*
X1233Y10007D01*
X1227Y10008D01*
X1222Y10009D01*
X1218Y10012D01*
X1213Y10015D01*
X1209Y10018D01*
X1206Y10022D01*
X1203Y10026D01*
X1201Y10031D01*
X1199Y10036D01*
X1198Y10041D01*
X1198Y10046D01*
Y10991D01*
X1198Y11033D01*
D01*
Y11033D01*
X1198Y11038D01*
X1199Y11043D01*
X1221Y11123D01*
X1222Y11128D01*
X1223Y11131D01*
X1225Y11133D01*
X1266Y11205D01*
X1269Y11209D01*
X1272Y11213D01*
X1331Y11272D01*
X1335Y11275D01*
X1339Y11278D01*
X1411Y11320D01*
X1416Y11322D01*
X1421Y11324D01*
X1501Y11345D01*
X1506Y11346D01*
X1511Y11346D01*
X1594D01*
X1599Y11346D01*
D02*
G37*
G36*
X2599D02*
X2605Y11345D01*
X2685Y11324D01*
X2690Y11322D01*
X2694Y11320D01*
X2766Y11278D01*
X2771Y11275D01*
X2774Y11272D01*
X2833Y11213D01*
X2837Y11209D01*
X2840Y11205D01*
X2881Y11133D01*
X2883Y11128D01*
X2885Y11123D01*
X2906Y11043D01*
X2907Y11038D01*
X2908Y11033D01*
Y10991D01*
Y10046D01*
X2907Y10041D01*
X2906Y10036D01*
X2905Y10031D01*
X2902Y10026D01*
X2900Y10022D01*
X2896Y10018D01*
X2892Y10015D01*
X2888Y10012D01*
X2883Y10009D01*
X2878Y10008D01*
X2873Y10007D01*
X2868Y10006D01*
X2238D01*
X2233Y10007D01*
X2227Y10008D01*
X2222Y10009D01*
X2218Y10012D01*
X2213Y10015D01*
X2209Y10018D01*
X2206Y10022D01*
X2203Y10026D01*
X2201Y10031D01*
X2199Y10036D01*
X2198Y10041D01*
X2198Y10046D01*
Y10991D01*
X2198Y11033D01*
D01*
Y11033D01*
X2198Y11038D01*
X2199Y11043D01*
X2221Y11123D01*
X2222Y11128D01*
X2223Y11131D01*
X2225Y11133D01*
X2266Y11205D01*
X2269Y11209D01*
X2272Y11213D01*
X2331Y11272D01*
X2335Y11275D01*
X2339Y11278D01*
X2411Y11320D01*
X2416Y11322D01*
X2421Y11324D01*
X2501Y11345D01*
X2506Y11346D01*
X2511Y11346D01*
X2594D01*
X2599Y11346D01*
D02*
G37*
G36*
X3599D02*
X3605Y11345D01*
X3685Y11324D01*
X3690Y11322D01*
X3694Y11320D01*
X3766Y11278D01*
X3771Y11275D01*
X3774Y11272D01*
X3833Y11213D01*
X3837Y11209D01*
X3839Y11205D01*
X3881Y11133D01*
X3883Y11128D01*
X3885Y11123D01*
X3906Y11043D01*
X3907Y11038D01*
X3908Y11033D01*
Y10991D01*
Y10046D01*
X3907Y10041D01*
X3906Y10036D01*
X3905Y10031D01*
X3902Y10026D01*
X3900Y10022D01*
X3896Y10018D01*
X3892Y10015D01*
X3888Y10012D01*
X3883Y10009D01*
X3878Y10008D01*
X3873Y10007D01*
X3868Y10006D01*
X3238D01*
X3233Y10007D01*
X3227Y10008D01*
X3222Y10009D01*
X3218Y10012D01*
X3213Y10015D01*
X3209Y10018D01*
X3206Y10022D01*
X3203Y10026D01*
X3201Y10031D01*
X3199Y10036D01*
X3198Y10041D01*
X3198Y10046D01*
Y10991D01*
X3198Y11033D01*
D01*
Y11033D01*
X3198Y11038D01*
X3199Y11043D01*
X3221Y11123D01*
X3222Y11128D01*
X3223Y11131D01*
X3225Y11133D01*
X3266Y11205D01*
X3269Y11209D01*
X3272Y11213D01*
X3331Y11272D01*
X3335Y11275D01*
X3339Y11278D01*
X3411Y11320D01*
X3416Y11322D01*
X3421Y11324D01*
X3501Y11345D01*
X3506Y11346D01*
X3511Y11346D01*
X3594D01*
X3599Y11346D01*
D02*
G37*
G36*
X-127Y18978D02*
X-122Y18977D01*
X-117Y18975D01*
X-112Y18973D01*
X-108Y18970D01*
X-104Y18966D01*
X-100Y18962D01*
X-98Y18958D01*
X-95Y18953D01*
X-94Y18948D01*
X-93Y18943D01*
X-92Y18938D01*
Y17993D01*
Y17951D01*
X-93Y17946D01*
X-94Y17941D01*
X-115Y17861D01*
X-117Y17856D01*
X-119Y17851D01*
X-160Y17779D01*
X-163Y17775D01*
X-167Y17771D01*
X-226Y17713D01*
X-229Y17709D01*
X-234Y17706D01*
X-306Y17665D01*
X-308Y17664D01*
X-310Y17662D01*
X-315Y17661D01*
X-395Y17639D01*
X-401Y17638D01*
X-406Y17638D01*
X-489D01*
X-494Y17638D01*
X-499Y17639D01*
X-579Y17661D01*
X-584Y17662D01*
X-589Y17665D01*
X-661Y17706D01*
X-665Y17709D01*
X-669Y17713D01*
X-728Y17771D01*
X-731Y17775D01*
X-734Y17779D01*
X-775Y17851D01*
X-777Y17854D01*
X-778Y17856D01*
X-779Y17861D01*
X-801Y17941D01*
X-802Y17946D01*
X-802Y17951D01*
D01*
Y17951D01*
X-802Y17993D01*
Y18938D01*
X-802Y18943D01*
X-801Y18948D01*
X-799Y18953D01*
X-797Y18958D01*
X-794Y18962D01*
X-791Y18966D01*
X-787Y18970D01*
X-782Y18973D01*
X-778Y18975D01*
X-773Y18977D01*
X-767Y18978D01*
X-762Y18978D01*
X-132D01*
X-127Y18978D01*
D02*
G37*
G36*
X873D02*
X878Y18977D01*
X883Y18975D01*
X888Y18973D01*
X892Y18970D01*
X896Y18966D01*
X900Y18962D01*
X902Y18958D01*
X905Y18953D01*
X906Y18948D01*
X907Y18943D01*
X908Y18938D01*
Y17993D01*
Y17951D01*
X907Y17946D01*
X906Y17941D01*
X885Y17861D01*
X883Y17856D01*
X881Y17851D01*
X839Y17779D01*
X837Y17775D01*
X833Y17771D01*
X774Y17713D01*
X771Y17709D01*
X766Y17706D01*
X694Y17665D01*
X692Y17664D01*
X690Y17662D01*
X685Y17661D01*
X605Y17639D01*
X599Y17638D01*
X594Y17638D01*
X511D01*
X506Y17638D01*
X501Y17639D01*
X421Y17661D01*
X416Y17662D01*
X411Y17665D01*
X339Y17706D01*
X335Y17709D01*
X331Y17713D01*
X272Y17771D01*
X269Y17775D01*
X266Y17779D01*
X225Y17851D01*
X223Y17854D01*
X222Y17856D01*
X221Y17861D01*
X199Y17941D01*
X198Y17946D01*
X198Y17951D01*
D01*
Y17951D01*
X198Y17993D01*
Y18938D01*
X198Y18943D01*
X199Y18948D01*
X201Y18953D01*
X203Y18958D01*
X206Y18962D01*
X209Y18966D01*
X213Y18970D01*
X218Y18973D01*
X222Y18975D01*
X227Y18977D01*
X233Y18978D01*
X238Y18978D01*
X868D01*
X873Y18978D01*
D02*
G37*
G36*
X1873D02*
X1878Y18977D01*
X1883Y18975D01*
X1888Y18973D01*
X1892Y18970D01*
X1896Y18966D01*
X1900Y18962D01*
X1902Y18958D01*
X1905Y18953D01*
X1906Y18948D01*
X1907Y18943D01*
X1908Y18938D01*
Y17993D01*
Y17951D01*
X1907Y17946D01*
X1906Y17941D01*
X1885Y17861D01*
X1883Y17856D01*
X1881Y17851D01*
X1840Y17779D01*
X1837Y17775D01*
X1833Y17771D01*
X1774Y17713D01*
X1771Y17709D01*
X1766Y17706D01*
X1694Y17665D01*
X1692Y17664D01*
X1690Y17662D01*
X1685Y17661D01*
X1605Y17639D01*
X1599Y17638D01*
X1594Y17638D01*
X1511D01*
X1506Y17638D01*
X1501Y17639D01*
X1421Y17661D01*
X1416Y17662D01*
X1411Y17665D01*
X1339Y17706D01*
X1335Y17709D01*
X1331Y17713D01*
X1272Y17771D01*
X1269Y17775D01*
X1266Y17779D01*
X1225Y17851D01*
X1223Y17854D01*
X1222Y17856D01*
X1221Y17861D01*
X1199Y17941D01*
X1198Y17946D01*
X1198Y17951D01*
D01*
Y17951D01*
X1198Y17993D01*
Y18938D01*
X1198Y18943D01*
X1199Y18948D01*
X1201Y18953D01*
X1203Y18958D01*
X1206Y18962D01*
X1209Y18966D01*
X1213Y18970D01*
X1218Y18973D01*
X1222Y18975D01*
X1227Y18977D01*
X1233Y18978D01*
X1238Y18978D01*
X1868D01*
X1873Y18978D01*
D02*
G37*
G36*
X2873D02*
X2878Y18977D01*
X2883Y18975D01*
X2888Y18973D01*
X2892Y18970D01*
X2896Y18966D01*
X2900Y18962D01*
X2902Y18958D01*
X2905Y18953D01*
X2906Y18948D01*
X2907Y18943D01*
X2908Y18938D01*
Y17993D01*
Y17951D01*
X2907Y17946D01*
X2906Y17941D01*
X2885Y17861D01*
X2883Y17856D01*
X2881Y17851D01*
X2840Y17779D01*
X2837Y17775D01*
X2833Y17771D01*
X2774Y17713D01*
X2771Y17709D01*
X2766Y17706D01*
X2694Y17665D01*
X2692Y17664D01*
X2690Y17662D01*
X2685Y17661D01*
X2605Y17639D01*
X2599Y17638D01*
X2594Y17638D01*
X2511D01*
X2506Y17638D01*
X2501Y17639D01*
X2421Y17661D01*
X2416Y17662D01*
X2411Y17665D01*
X2339Y17706D01*
X2335Y17709D01*
X2331Y17713D01*
X2272Y17771D01*
X2269Y17775D01*
X2266Y17779D01*
X2225Y17851D01*
X2223Y17854D01*
X2222Y17856D01*
X2221Y17861D01*
X2199Y17941D01*
X2198Y17946D01*
X2198Y17951D01*
D01*
Y17951D01*
X2198Y17993D01*
Y18938D01*
X2198Y18943D01*
X2199Y18948D01*
X2201Y18953D01*
X2203Y18958D01*
X2206Y18962D01*
X2209Y18966D01*
X2213Y18970D01*
X2218Y18973D01*
X2222Y18975D01*
X2227Y18977D01*
X2233Y18978D01*
X2238Y18978D01*
X2868D01*
X2873Y18978D01*
D02*
G37*
G36*
X3873D02*
X3878Y18977D01*
X3883Y18975D01*
X3888Y18973D01*
X3892Y18970D01*
X3896Y18966D01*
X3900Y18962D01*
X3902Y18958D01*
X3905Y18953D01*
X3906Y18948D01*
X3907Y18943D01*
X3908Y18938D01*
Y17993D01*
Y17951D01*
X3907Y17946D01*
X3906Y17941D01*
X3885Y17861D01*
X3883Y17856D01*
X3881Y17851D01*
X3839Y17779D01*
X3837Y17775D01*
X3833Y17771D01*
X3774Y17713D01*
X3771Y17709D01*
X3766Y17706D01*
X3694Y17665D01*
X3692Y17664D01*
X3690Y17662D01*
X3685Y17661D01*
X3605Y17639D01*
X3599Y17638D01*
X3594Y17638D01*
X3511D01*
X3506Y17638D01*
X3501Y17639D01*
X3421Y17661D01*
X3416Y17662D01*
X3411Y17665D01*
X3339Y17706D01*
X3335Y17709D01*
X3331Y17713D01*
X3272Y17771D01*
X3269Y17775D01*
X3266Y17779D01*
X3225Y17851D01*
X3223Y17854D01*
X3222Y17856D01*
X3221Y17861D01*
X3199Y17941D01*
X3198Y17946D01*
X3198Y17951D01*
D01*
Y17951D01*
X3198Y17993D01*
Y18938D01*
X3198Y18943D01*
X3199Y18948D01*
X3201Y18953D01*
X3203Y18958D01*
X3206Y18962D01*
X3209Y18966D01*
X3213Y18970D01*
X3218Y18973D01*
X3222Y18975D01*
X3227Y18977D01*
X3233Y18978D01*
X3238Y18978D01*
X3868D01*
X3873Y18978D01*
D02*
G37*
G36*
X4599Y11346D02*
X4605Y11345D01*
X4685Y11324D01*
X4690Y11322D01*
X4694Y11320D01*
X4766Y11278D01*
X4771Y11275D01*
X4774Y11272D01*
X4833Y11213D01*
X4837Y11209D01*
X4839Y11205D01*
X4881Y11133D01*
X4883Y11128D01*
X4885Y11123D01*
X4906Y11043D01*
X4907Y11038D01*
X4908Y11033D01*
Y10991D01*
Y10046D01*
X4907Y10041D01*
X4906Y10036D01*
X4905Y10031D01*
X4902Y10026D01*
X4900Y10022D01*
X4896Y10018D01*
X4892Y10015D01*
X4888Y10012D01*
X4883Y10009D01*
X4878Y10008D01*
X4873Y10007D01*
X4868Y10006D01*
X4238D01*
X4233Y10007D01*
X4227Y10008D01*
X4222Y10009D01*
X4218Y10012D01*
X4213Y10015D01*
X4209Y10018D01*
X4206Y10022D01*
X4203Y10026D01*
X4201Y10031D01*
X4199Y10036D01*
X4198Y10041D01*
X4198Y10046D01*
Y10991D01*
X4198Y11033D01*
D01*
Y11033D01*
X4198Y11038D01*
X4199Y11043D01*
X4221Y11123D01*
X4222Y11128D01*
X4223Y11131D01*
X4225Y11133D01*
X4266Y11205D01*
X4269Y11209D01*
X4272Y11213D01*
X4331Y11272D01*
X4335Y11275D01*
X4339Y11278D01*
X4411Y11320D01*
X4416Y11322D01*
X4421Y11324D01*
X4501Y11345D01*
X4506Y11346D01*
X4511Y11346D01*
X4594D01*
X4599Y11346D01*
D02*
G37*
G36*
X5599D02*
X5605Y11345D01*
X5685Y11324D01*
X5690Y11322D01*
X5694Y11320D01*
X5766Y11278D01*
X5771Y11275D01*
X5774Y11272D01*
X5833Y11213D01*
X5837Y11209D01*
X5839Y11205D01*
X5881Y11133D01*
X5883Y11128D01*
X5885Y11123D01*
X5906Y11043D01*
X5907Y11038D01*
X5908Y11033D01*
Y10991D01*
Y10046D01*
X5907Y10041D01*
X5906Y10036D01*
X5905Y10031D01*
X5902Y10026D01*
X5900Y10022D01*
X5896Y10018D01*
X5892Y10015D01*
X5888Y10012D01*
X5883Y10009D01*
X5878Y10008D01*
X5873Y10007D01*
X5868Y10006D01*
X5238D01*
X5233Y10007D01*
X5227Y10008D01*
X5222Y10009D01*
X5218Y10012D01*
X5213Y10015D01*
X5209Y10018D01*
X5206Y10022D01*
X5203Y10026D01*
X5201Y10031D01*
X5199Y10036D01*
X5198Y10041D01*
X5198Y10046D01*
Y10991D01*
X5198Y11033D01*
D01*
Y11033D01*
X5198Y11038D01*
X5199Y11043D01*
X5221Y11123D01*
X5222Y11128D01*
X5223Y11131D01*
X5225Y11133D01*
X5266Y11205D01*
X5269Y11209D01*
X5272Y11213D01*
X5331Y11272D01*
X5335Y11275D01*
X5339Y11278D01*
X5411Y11320D01*
X5416Y11322D01*
X5421Y11324D01*
X5501Y11345D01*
X5506Y11346D01*
X5511Y11346D01*
X5594D01*
X5599Y11346D01*
D02*
G37*
G36*
X6599D02*
X6605Y11345D01*
X6685Y11324D01*
X6690Y11322D01*
X6694Y11320D01*
X6766Y11278D01*
X6771Y11275D01*
X6774Y11272D01*
X6833Y11213D01*
X6837Y11209D01*
X6840Y11205D01*
X6881Y11133D01*
X6883Y11128D01*
X6885Y11123D01*
X6906Y11043D01*
X6907Y11038D01*
X6908Y11033D01*
Y10991D01*
Y10046D01*
X6907Y10041D01*
X6906Y10036D01*
X6905Y10031D01*
X6902Y10026D01*
X6900Y10022D01*
X6896Y10018D01*
X6892Y10015D01*
X6888Y10012D01*
X6883Y10009D01*
X6878Y10008D01*
X6873Y10007D01*
X6868Y10006D01*
X6238D01*
X6233Y10007D01*
X6227Y10008D01*
X6222Y10009D01*
X6218Y10012D01*
X6213Y10015D01*
X6209Y10018D01*
X6206Y10022D01*
X6203Y10026D01*
X6201Y10031D01*
X6199Y10036D01*
X6198Y10041D01*
X6198Y10046D01*
Y10991D01*
X6198Y11033D01*
D01*
Y11033D01*
X6198Y11038D01*
X6199Y11043D01*
X6221Y11123D01*
X6222Y11128D01*
X6223Y11131D01*
X6225Y11133D01*
X6266Y11205D01*
X6269Y11209D01*
X6272Y11213D01*
X6331Y11272D01*
X6335Y11275D01*
X6339Y11278D01*
X6411Y11320D01*
X6416Y11322D01*
X6421Y11324D01*
X6501Y11345D01*
X6506Y11346D01*
X6511Y11346D01*
X6594D01*
X6599Y11346D01*
D02*
G37*
G36*
X7599D02*
X7605Y11345D01*
X7685Y11324D01*
X7690Y11322D01*
X7694Y11320D01*
X7766Y11278D01*
X7771Y11275D01*
X7774Y11272D01*
X7833Y11213D01*
X7837Y11209D01*
X7839Y11205D01*
X7881Y11133D01*
X7883Y11128D01*
X7885Y11123D01*
X7906Y11043D01*
X7907Y11038D01*
X7908Y11033D01*
Y10991D01*
Y10046D01*
X7907Y10041D01*
X7906Y10036D01*
X7905Y10031D01*
X7902Y10026D01*
X7900Y10022D01*
X7896Y10018D01*
X7892Y10015D01*
X7888Y10012D01*
X7883Y10009D01*
X7878Y10008D01*
X7873Y10007D01*
X7868Y10006D01*
X7238D01*
X7233Y10007D01*
X7227Y10008D01*
X7222Y10009D01*
X7218Y10012D01*
X7213Y10015D01*
X7209Y10018D01*
X7206Y10022D01*
X7203Y10026D01*
X7201Y10031D01*
X7199Y10036D01*
X7198Y10041D01*
X7198Y10046D01*
Y10991D01*
X7198Y11033D01*
D01*
Y11033D01*
X7198Y11038D01*
X7199Y11043D01*
X7221Y11123D01*
X7222Y11128D01*
X7223Y11131D01*
X7225Y11133D01*
X7266Y11205D01*
X7269Y11209D01*
X7272Y11213D01*
X7331Y11272D01*
X7335Y11275D01*
X7339Y11278D01*
X7411Y11320D01*
X7416Y11322D01*
X7421Y11324D01*
X7501Y11345D01*
X7506Y11346D01*
X7511Y11346D01*
X7594D01*
X7599Y11346D01*
D02*
G37*
G36*
X8599D02*
X8605Y11345D01*
X8685Y11324D01*
X8690Y11322D01*
X8694Y11320D01*
X8766Y11278D01*
X8771Y11275D01*
X8774Y11272D01*
X8833Y11213D01*
X8837Y11209D01*
X8839Y11205D01*
X8881Y11133D01*
X8883Y11128D01*
X8885Y11123D01*
X8906Y11043D01*
X8907Y11038D01*
X8908Y11033D01*
Y10991D01*
Y10046D01*
X8907Y10041D01*
X8906Y10036D01*
X8905Y10031D01*
X8902Y10026D01*
X8900Y10022D01*
X8896Y10018D01*
X8892Y10015D01*
X8888Y10012D01*
X8883Y10009D01*
X8878Y10008D01*
X8873Y10007D01*
X8868Y10006D01*
X8238D01*
X8233Y10007D01*
X8227Y10008D01*
X8222Y10009D01*
X8218Y10012D01*
X8213Y10015D01*
X8209Y10018D01*
X8206Y10022D01*
X8203Y10026D01*
X8201Y10031D01*
X8199Y10036D01*
X8198Y10041D01*
X8198Y10046D01*
Y10991D01*
X8198Y11033D01*
D01*
Y11033D01*
X8198Y11038D01*
X8199Y11043D01*
X8221Y11123D01*
X8222Y11128D01*
X8223Y11131D01*
X8225Y11133D01*
X8266Y11205D01*
X8269Y11209D01*
X8272Y11213D01*
X8331Y11272D01*
X8335Y11275D01*
X8339Y11278D01*
X8411Y11320D01*
X8416Y11322D01*
X8421Y11324D01*
X8501Y11345D01*
X8506Y11346D01*
X8511Y11346D01*
X8594D01*
X8599Y11346D01*
D02*
G37*
G36*
X4873Y18978D02*
X4878Y18977D01*
X4883Y18975D01*
X4888Y18973D01*
X4892Y18970D01*
X4896Y18966D01*
X4900Y18962D01*
X4902Y18958D01*
X4905Y18953D01*
X4906Y18948D01*
X4907Y18943D01*
X4908Y18938D01*
Y17993D01*
Y17951D01*
X4907Y17946D01*
X4906Y17941D01*
X4885Y17861D01*
X4883Y17856D01*
X4881Y17851D01*
X4839Y17779D01*
X4837Y17775D01*
X4833Y17771D01*
X4774Y17713D01*
X4771Y17709D01*
X4766Y17706D01*
X4694Y17665D01*
X4692Y17664D01*
X4690Y17662D01*
X4685Y17661D01*
X4605Y17639D01*
X4599Y17638D01*
X4594Y17638D01*
X4511D01*
X4506Y17638D01*
X4501Y17639D01*
X4421Y17661D01*
X4416Y17662D01*
X4411Y17665D01*
X4339Y17706D01*
X4335Y17709D01*
X4331Y17713D01*
X4272Y17771D01*
X4269Y17775D01*
X4266Y17779D01*
X4225Y17851D01*
X4223Y17854D01*
X4222Y17856D01*
X4221Y17861D01*
X4199Y17941D01*
X4198Y17946D01*
X4198Y17951D01*
D01*
Y17951D01*
X4198Y17993D01*
Y18938D01*
X4198Y18943D01*
X4199Y18948D01*
X4201Y18953D01*
X4203Y18958D01*
X4206Y18962D01*
X4209Y18966D01*
X4213Y18970D01*
X4218Y18973D01*
X4222Y18975D01*
X4227Y18977D01*
X4233Y18978D01*
X4238Y18978D01*
X4868D01*
X4873Y18978D01*
D02*
G37*
G36*
X5873D02*
X5878Y18977D01*
X5883Y18975D01*
X5888Y18973D01*
X5892Y18970D01*
X5896Y18966D01*
X5900Y18962D01*
X5902Y18958D01*
X5905Y18953D01*
X5906Y18948D01*
X5907Y18943D01*
X5908Y18938D01*
Y17993D01*
Y17951D01*
X5907Y17946D01*
X5906Y17941D01*
X5885Y17861D01*
X5883Y17856D01*
X5881Y17851D01*
X5839Y17779D01*
X5837Y17775D01*
X5833Y17771D01*
X5774Y17713D01*
X5771Y17709D01*
X5766Y17706D01*
X5694Y17665D01*
X5692Y17664D01*
X5690Y17662D01*
X5685Y17661D01*
X5605Y17639D01*
X5599Y17638D01*
X5594Y17638D01*
X5511D01*
X5506Y17638D01*
X5501Y17639D01*
X5421Y17661D01*
X5416Y17662D01*
X5411Y17665D01*
X5339Y17706D01*
X5335Y17709D01*
X5331Y17713D01*
X5272Y17771D01*
X5269Y17775D01*
X5266Y17779D01*
X5225Y17851D01*
X5223Y17854D01*
X5222Y17856D01*
X5221Y17861D01*
X5199Y17941D01*
X5198Y17946D01*
X5198Y17951D01*
D01*
Y17951D01*
X5198Y17993D01*
Y18938D01*
X5198Y18943D01*
X5199Y18948D01*
X5201Y18953D01*
X5203Y18958D01*
X5206Y18962D01*
X5209Y18966D01*
X5213Y18970D01*
X5218Y18973D01*
X5222Y18975D01*
X5227Y18977D01*
X5233Y18978D01*
X5238Y18978D01*
X5868D01*
X5873Y18978D01*
D02*
G37*
G36*
X6873D02*
X6878Y18977D01*
X6883Y18975D01*
X6888Y18973D01*
X6892Y18970D01*
X6896Y18966D01*
X6900Y18962D01*
X6902Y18958D01*
X6905Y18953D01*
X6906Y18948D01*
X6907Y18943D01*
X6908Y18938D01*
Y17993D01*
Y17951D01*
X6907Y17946D01*
X6906Y17941D01*
X6885Y17861D01*
X6883Y17856D01*
X6881Y17851D01*
X6840Y17779D01*
X6837Y17775D01*
X6833Y17771D01*
X6774Y17713D01*
X6771Y17709D01*
X6766Y17706D01*
X6694Y17665D01*
X6692Y17664D01*
X6690Y17662D01*
X6685Y17661D01*
X6605Y17639D01*
X6599Y17638D01*
X6594Y17638D01*
X6511D01*
X6506Y17638D01*
X6501Y17639D01*
X6421Y17661D01*
X6416Y17662D01*
X6411Y17665D01*
X6339Y17706D01*
X6335Y17709D01*
X6331Y17713D01*
X6272Y17771D01*
X6269Y17775D01*
X6266Y17779D01*
X6225Y17851D01*
X6223Y17854D01*
X6222Y17856D01*
X6221Y17861D01*
X6199Y17941D01*
X6198Y17946D01*
X6198Y17951D01*
D01*
Y17951D01*
X6198Y17993D01*
Y18938D01*
X6198Y18943D01*
X6199Y18948D01*
X6201Y18953D01*
X6203Y18958D01*
X6206Y18962D01*
X6209Y18966D01*
X6213Y18970D01*
X6218Y18973D01*
X6222Y18975D01*
X6227Y18977D01*
X6233Y18978D01*
X6238Y18978D01*
X6868D01*
X6873Y18978D01*
D02*
G37*
G36*
X7873D02*
X7878Y18977D01*
X7883Y18975D01*
X7888Y18973D01*
X7892Y18970D01*
X7896Y18966D01*
X7900Y18962D01*
X7902Y18958D01*
X7905Y18953D01*
X7906Y18948D01*
X7907Y18943D01*
X7908Y18938D01*
Y17993D01*
Y17951D01*
X7907Y17946D01*
X7906Y17941D01*
X7885Y17861D01*
X7883Y17856D01*
X7881Y17851D01*
X7839Y17779D01*
X7837Y17775D01*
X7833Y17771D01*
X7774Y17713D01*
X7771Y17709D01*
X7766Y17706D01*
X7694Y17665D01*
X7692Y17664D01*
X7690Y17662D01*
X7685Y17661D01*
X7605Y17639D01*
X7599Y17638D01*
X7594Y17638D01*
X7511D01*
X7506Y17638D01*
X7501Y17639D01*
X7421Y17661D01*
X7416Y17662D01*
X7411Y17665D01*
X7339Y17706D01*
X7335Y17709D01*
X7331Y17713D01*
X7272Y17771D01*
X7269Y17775D01*
X7266Y17779D01*
X7225Y17851D01*
X7223Y17854D01*
X7222Y17856D01*
X7221Y17861D01*
X7199Y17941D01*
X7198Y17946D01*
X7198Y17951D01*
D01*
Y17951D01*
X7198Y17993D01*
Y18938D01*
X7198Y18943D01*
X7199Y18948D01*
X7201Y18953D01*
X7203Y18958D01*
X7206Y18962D01*
X7209Y18966D01*
X7213Y18970D01*
X7218Y18973D01*
X7222Y18975D01*
X7227Y18977D01*
X7233Y18978D01*
X7238Y18978D01*
X7868D01*
X7873Y18978D01*
D02*
G37*
G36*
X8873D02*
X8878Y18977D01*
X8883Y18975D01*
X8888Y18973D01*
X8892Y18970D01*
X8896Y18966D01*
X8900Y18962D01*
X8902Y18958D01*
X8905Y18953D01*
X8906Y18948D01*
X8907Y18943D01*
X8908Y18938D01*
Y17993D01*
Y17951D01*
X8907Y17946D01*
X8906Y17941D01*
X8885Y17861D01*
X8883Y17856D01*
X8881Y17851D01*
X8839Y17779D01*
X8837Y17775D01*
X8833Y17771D01*
X8774Y17713D01*
X8771Y17709D01*
X8766Y17706D01*
X8694Y17665D01*
X8692Y17664D01*
X8690Y17662D01*
X8685Y17661D01*
X8605Y17639D01*
X8599Y17638D01*
X8594Y17638D01*
X8511D01*
X8506Y17638D01*
X8501Y17639D01*
X8421Y17661D01*
X8416Y17662D01*
X8411Y17665D01*
X8339Y17706D01*
X8335Y17709D01*
X8331Y17713D01*
X8272Y17771D01*
X8269Y17775D01*
X8266Y17779D01*
X8225Y17851D01*
X8223Y17854D01*
X8222Y17856D01*
X8221Y17861D01*
X8199Y17941D01*
X8198Y17946D01*
X8198Y17951D01*
D01*
Y17951D01*
X8198Y17993D01*
Y18938D01*
X8198Y18943D01*
X8199Y18948D01*
X8201Y18953D01*
X8203Y18958D01*
X8206Y18962D01*
X8209Y18966D01*
X8213Y18970D01*
X8218Y18973D01*
X8222Y18975D01*
X8227Y18977D01*
X8233Y18978D01*
X8238Y18978D01*
X8868D01*
X8873Y18978D01*
D02*
G37*
G36*
X9599Y11346D02*
X9605Y11345D01*
X9685Y11324D01*
X9690Y11322D01*
X9694Y11320D01*
X9766Y11278D01*
X9771Y11275D01*
X9774Y11272D01*
X9833Y11213D01*
X9837Y11209D01*
X9840Y11205D01*
X9881Y11133D01*
X9883Y11128D01*
X9885Y11123D01*
X9906Y11043D01*
X9907Y11038D01*
X9908Y11033D01*
Y10991D01*
Y10046D01*
X9907Y10041D01*
X9906Y10036D01*
X9905Y10031D01*
X9902Y10026D01*
X9900Y10022D01*
X9896Y10018D01*
X9892Y10015D01*
X9888Y10012D01*
X9883Y10009D01*
X9878Y10008D01*
X9873Y10007D01*
X9868Y10006D01*
X9238D01*
X9233Y10007D01*
X9227Y10008D01*
X9222Y10009D01*
X9218Y10012D01*
X9213Y10015D01*
X9209Y10018D01*
X9206Y10022D01*
X9203Y10026D01*
X9201Y10031D01*
X9199Y10036D01*
X9198Y10041D01*
X9198Y10046D01*
Y10991D01*
X9198Y11033D01*
D01*
Y11033D01*
X9198Y11038D01*
X9199Y11043D01*
X9221Y11123D01*
X9222Y11128D01*
X9223Y11131D01*
X9225Y11133D01*
X9266Y11205D01*
X9269Y11209D01*
X9272Y11213D01*
X9331Y11272D01*
X9335Y11275D01*
X9339Y11278D01*
X9411Y11320D01*
X9416Y11322D01*
X9421Y11324D01*
X9501Y11345D01*
X9506Y11346D01*
X9511Y11346D01*
X9594D01*
X9599Y11346D01*
D02*
G37*
G36*
X10599D02*
X10605Y11345D01*
X10685Y11324D01*
X10690Y11322D01*
X10694Y11320D01*
X10766Y11278D01*
X10771Y11275D01*
X10774Y11272D01*
X10833Y11213D01*
X10837Y11209D01*
X10840Y11205D01*
X10881Y11133D01*
X10883Y11128D01*
X10885Y11123D01*
X10906Y11043D01*
X10907Y11038D01*
X10908Y11033D01*
Y10991D01*
Y10046D01*
X10907Y10041D01*
X10906Y10036D01*
X10905Y10031D01*
X10902Y10026D01*
X10900Y10022D01*
X10896Y10018D01*
X10892Y10015D01*
X10888Y10012D01*
X10883Y10009D01*
X10878Y10008D01*
X10873Y10007D01*
X10868Y10006D01*
X10238D01*
X10233Y10007D01*
X10227Y10008D01*
X10222Y10009D01*
X10218Y10012D01*
X10213Y10015D01*
X10209Y10018D01*
X10206Y10022D01*
X10203Y10026D01*
X10201Y10031D01*
X10199Y10036D01*
X10198Y10041D01*
X10198Y10046D01*
Y10991D01*
X10198Y11033D01*
D01*
Y11033D01*
X10198Y11038D01*
X10199Y11043D01*
X10221Y11123D01*
X10222Y11128D01*
X10223Y11131D01*
X10225Y11133D01*
X10266Y11205D01*
X10269Y11209D01*
X10272Y11213D01*
X10331Y11272D01*
X10335Y11275D01*
X10339Y11278D01*
X10411Y11320D01*
X10416Y11322D01*
X10421Y11324D01*
X10501Y11345D01*
X10506Y11346D01*
X10511Y11346D01*
X10594D01*
X10599Y11346D01*
D02*
G37*
G36*
X11599D02*
X11605Y11345D01*
X11685Y11324D01*
X11690Y11322D01*
X11694Y11320D01*
X11766Y11278D01*
X11771Y11275D01*
X11774Y11272D01*
X11833Y11213D01*
X11837Y11209D01*
X11839Y11205D01*
X11881Y11133D01*
X11883Y11128D01*
X11885Y11123D01*
X11906Y11043D01*
X11907Y11038D01*
X11908Y11033D01*
Y10991D01*
Y10046D01*
X11907Y10041D01*
X11906Y10036D01*
X11905Y10031D01*
X11902Y10026D01*
X11900Y10022D01*
X11896Y10018D01*
X11892Y10015D01*
X11888Y10012D01*
X11883Y10009D01*
X11878Y10008D01*
X11873Y10007D01*
X11868Y10006D01*
X11238D01*
X11233Y10007D01*
X11227Y10008D01*
X11222Y10009D01*
X11218Y10012D01*
X11213Y10015D01*
X11209Y10018D01*
X11206Y10022D01*
X11203Y10026D01*
X11201Y10031D01*
X11199Y10036D01*
X11198Y10041D01*
X11198Y10046D01*
Y10991D01*
X11198Y11033D01*
D01*
Y11033D01*
X11198Y11038D01*
X11199Y11043D01*
X11221Y11123D01*
X11222Y11128D01*
X11223Y11131D01*
X11225Y11133D01*
X11266Y11205D01*
X11269Y11209D01*
X11272Y11213D01*
X11331Y11272D01*
X11335Y11275D01*
X11339Y11278D01*
X11411Y11320D01*
X11416Y11322D01*
X11421Y11324D01*
X11501Y11345D01*
X11506Y11346D01*
X11511Y11346D01*
X11594D01*
X11599Y11346D01*
D02*
G37*
G36*
X12599D02*
X12605Y11345D01*
X12685Y11324D01*
X12690Y11322D01*
X12694Y11320D01*
X12766Y11278D01*
X12771Y11275D01*
X12774Y11272D01*
X12833Y11213D01*
X12837Y11209D01*
X12839Y11205D01*
X12881Y11133D01*
X12883Y11128D01*
X12885Y11123D01*
X12906Y11043D01*
X12907Y11038D01*
X12908Y11033D01*
Y10991D01*
Y10046D01*
X12907Y10041D01*
X12906Y10036D01*
X12905Y10031D01*
X12902Y10026D01*
X12900Y10022D01*
X12896Y10018D01*
X12892Y10015D01*
X12888Y10012D01*
X12883Y10009D01*
X12878Y10008D01*
X12873Y10007D01*
X12868Y10006D01*
X12238D01*
X12233Y10007D01*
X12227Y10008D01*
X12222Y10009D01*
X12218Y10012D01*
X12213Y10015D01*
X12209Y10018D01*
X12206Y10022D01*
X12203Y10026D01*
X12201Y10031D01*
X12199Y10036D01*
X12198Y10041D01*
X12198Y10046D01*
Y10991D01*
X12198Y11033D01*
D01*
Y11033D01*
X12198Y11038D01*
X12199Y11043D01*
X12221Y11123D01*
X12222Y11128D01*
X12223Y11131D01*
X12225Y11133D01*
X12266Y11205D01*
X12269Y11209D01*
X12272Y11213D01*
X12331Y11272D01*
X12335Y11275D01*
X12339Y11278D01*
X12411Y11320D01*
X12416Y11322D01*
X12421Y11324D01*
X12501Y11345D01*
X12506Y11346D01*
X12511Y11346D01*
X12594D01*
X12599Y11346D01*
D02*
G37*
G36*
X13599D02*
X13605Y11345D01*
X13685Y11324D01*
X13690Y11322D01*
X13694Y11320D01*
X13766Y11278D01*
X13771Y11275D01*
X13774Y11272D01*
X13833Y11213D01*
X13837Y11209D01*
X13839Y11205D01*
X13881Y11133D01*
X13883Y11128D01*
X13885Y11123D01*
X13906Y11043D01*
X13907Y11038D01*
X13908Y11033D01*
Y10991D01*
Y10046D01*
X13907Y10041D01*
X13906Y10036D01*
X13905Y10031D01*
X13902Y10026D01*
X13900Y10022D01*
X13896Y10018D01*
X13892Y10015D01*
X13888Y10012D01*
X13883Y10009D01*
X13878Y10008D01*
X13873Y10007D01*
X13868Y10006D01*
X13238D01*
X13233Y10007D01*
X13227Y10008D01*
X13222Y10009D01*
X13218Y10012D01*
X13213Y10015D01*
X13209Y10018D01*
X13206Y10022D01*
X13203Y10026D01*
X13201Y10031D01*
X13199Y10036D01*
X13198Y10041D01*
X13198Y10046D01*
Y10991D01*
X13198Y11033D01*
D01*
Y11033D01*
X13198Y11038D01*
X13199Y11043D01*
X13221Y11123D01*
X13222Y11128D01*
X13223Y11131D01*
X13225Y11133D01*
X13266Y11205D01*
X13269Y11209D01*
X13272Y11213D01*
X13331Y11272D01*
X13335Y11275D01*
X13339Y11278D01*
X13411Y11320D01*
X13416Y11322D01*
X13421Y11324D01*
X13501Y11345D01*
X13506Y11346D01*
X13511Y11346D01*
X13594D01*
X13599Y11346D01*
D02*
G37*
G36*
X9873Y18978D02*
X9878Y18977D01*
X9883Y18975D01*
X9888Y18973D01*
X9892Y18970D01*
X9896Y18966D01*
X9900Y18962D01*
X9902Y18958D01*
X9905Y18953D01*
X9906Y18948D01*
X9907Y18943D01*
X9908Y18938D01*
Y17993D01*
Y17951D01*
X9907Y17946D01*
X9906Y17941D01*
X9885Y17861D01*
X9883Y17856D01*
X9881Y17851D01*
X9840Y17779D01*
X9837Y17775D01*
X9833Y17771D01*
X9774Y17713D01*
X9771Y17709D01*
X9766Y17706D01*
X9694Y17665D01*
X9692Y17664D01*
X9690Y17662D01*
X9685Y17661D01*
X9605Y17639D01*
X9599Y17638D01*
X9594Y17638D01*
X9511D01*
X9506Y17638D01*
X9501Y17639D01*
X9421Y17661D01*
X9416Y17662D01*
X9411Y17665D01*
X9339Y17706D01*
X9335Y17709D01*
X9331Y17713D01*
X9272Y17771D01*
X9269Y17775D01*
X9266Y17779D01*
X9225Y17851D01*
X9223Y17854D01*
X9222Y17856D01*
X9221Y17861D01*
X9199Y17941D01*
X9198Y17946D01*
X9198Y17951D01*
D01*
Y17951D01*
X9198Y17993D01*
Y18938D01*
X9198Y18943D01*
X9199Y18948D01*
X9201Y18953D01*
X9203Y18958D01*
X9206Y18962D01*
X9209Y18966D01*
X9213Y18970D01*
X9218Y18973D01*
X9222Y18975D01*
X9227Y18977D01*
X9233Y18978D01*
X9238Y18978D01*
X9868D01*
X9873Y18978D01*
D02*
G37*
G36*
X10873D02*
X10878Y18977D01*
X10883Y18975D01*
X10888Y18973D01*
X10892Y18970D01*
X10896Y18966D01*
X10900Y18962D01*
X10902Y18958D01*
X10905Y18953D01*
X10906Y18948D01*
X10907Y18943D01*
X10908Y18938D01*
Y17993D01*
Y17951D01*
X10907Y17946D01*
X10906Y17941D01*
X10885Y17861D01*
X10883Y17856D01*
X10881Y17851D01*
X10840Y17779D01*
X10837Y17775D01*
X10833Y17771D01*
X10774Y17713D01*
X10771Y17709D01*
X10766Y17706D01*
X10694Y17665D01*
X10692Y17664D01*
X10690Y17662D01*
X10685Y17661D01*
X10605Y17639D01*
X10599Y17638D01*
X10594Y17638D01*
X10511D01*
X10506Y17638D01*
X10501Y17639D01*
X10421Y17661D01*
X10416Y17662D01*
X10411Y17665D01*
X10339Y17706D01*
X10335Y17709D01*
X10331Y17713D01*
X10272Y17771D01*
X10269Y17775D01*
X10266Y17779D01*
X10225Y17851D01*
X10223Y17854D01*
X10222Y17856D01*
X10221Y17861D01*
X10199Y17941D01*
X10198Y17946D01*
X10198Y17951D01*
D01*
Y17951D01*
X10198Y17993D01*
Y18938D01*
X10198Y18943D01*
X10199Y18948D01*
X10201Y18953D01*
X10203Y18958D01*
X10206Y18962D01*
X10209Y18966D01*
X10213Y18970D01*
X10218Y18973D01*
X10222Y18975D01*
X10227Y18977D01*
X10233Y18978D01*
X10238Y18978D01*
X10868D01*
X10873Y18978D01*
D02*
G37*
G36*
X11873D02*
X11878Y18977D01*
X11883Y18975D01*
X11888Y18973D01*
X11892Y18970D01*
X11896Y18966D01*
X11900Y18962D01*
X11902Y18958D01*
X11905Y18953D01*
X11906Y18948D01*
X11907Y18943D01*
X11908Y18938D01*
Y17993D01*
Y17951D01*
X11907Y17946D01*
X11906Y17941D01*
X11885Y17861D01*
X11883Y17856D01*
X11881Y17851D01*
X11839Y17779D01*
X11837Y17775D01*
X11833Y17771D01*
X11774Y17713D01*
X11771Y17709D01*
X11766Y17706D01*
X11694Y17665D01*
X11692Y17664D01*
X11690Y17662D01*
X11685Y17661D01*
X11605Y17639D01*
X11599Y17638D01*
X11594Y17638D01*
X11511D01*
X11506Y17638D01*
X11501Y17639D01*
X11421Y17661D01*
X11416Y17662D01*
X11411Y17665D01*
X11339Y17706D01*
X11335Y17709D01*
X11331Y17713D01*
X11272Y17771D01*
X11269Y17775D01*
X11266Y17779D01*
X11225Y17851D01*
X11223Y17854D01*
X11222Y17856D01*
X11221Y17861D01*
X11199Y17941D01*
X11198Y17946D01*
X11198Y17951D01*
D01*
Y17951D01*
X11198Y17993D01*
Y18938D01*
X11198Y18943D01*
X11199Y18948D01*
X11201Y18953D01*
X11203Y18958D01*
X11206Y18962D01*
X11209Y18966D01*
X11213Y18970D01*
X11218Y18973D01*
X11222Y18975D01*
X11227Y18977D01*
X11233Y18978D01*
X11238Y18978D01*
X11868D01*
X11873Y18978D01*
D02*
G37*
G36*
X12873D02*
X12878Y18977D01*
X12883Y18975D01*
X12888Y18973D01*
X12892Y18970D01*
X12896Y18966D01*
X12900Y18962D01*
X12902Y18958D01*
X12905Y18953D01*
X12906Y18948D01*
X12907Y18943D01*
X12908Y18938D01*
Y17993D01*
Y17951D01*
X12907Y17946D01*
X12906Y17941D01*
X12885Y17861D01*
X12883Y17856D01*
X12881Y17851D01*
X12839Y17779D01*
X12837Y17775D01*
X12833Y17771D01*
X12774Y17713D01*
X12771Y17709D01*
X12766Y17706D01*
X12694Y17665D01*
X12692Y17664D01*
X12690Y17662D01*
X12685Y17661D01*
X12605Y17639D01*
X12599Y17638D01*
X12594Y17638D01*
X12511D01*
X12506Y17638D01*
X12501Y17639D01*
X12421Y17661D01*
X12416Y17662D01*
X12411Y17665D01*
X12339Y17706D01*
X12335Y17709D01*
X12331Y17713D01*
X12272Y17771D01*
X12269Y17775D01*
X12266Y17779D01*
X12225Y17851D01*
X12223Y17854D01*
X12222Y17856D01*
X12221Y17861D01*
X12199Y17941D01*
X12198Y17946D01*
X12198Y17951D01*
D01*
Y17951D01*
X12198Y17993D01*
Y18938D01*
X12198Y18943D01*
X12199Y18948D01*
X12201Y18953D01*
X12203Y18958D01*
X12206Y18962D01*
X12209Y18966D01*
X12213Y18970D01*
X12218Y18973D01*
X12222Y18975D01*
X12227Y18977D01*
X12233Y18978D01*
X12238Y18978D01*
X12868D01*
X12873Y18978D01*
D02*
G37*
G36*
X13873D02*
X13878Y18977D01*
X13883Y18975D01*
X13888Y18973D01*
X13892Y18970D01*
X13896Y18966D01*
X13900Y18962D01*
X13902Y18958D01*
X13905Y18953D01*
X13906Y18948D01*
X13907Y18943D01*
X13908Y18938D01*
Y17993D01*
Y17951D01*
X13907Y17946D01*
X13906Y17941D01*
X13885Y17861D01*
X13883Y17856D01*
X13881Y17851D01*
X13839Y17779D01*
X13837Y17775D01*
X13833Y17771D01*
X13774Y17713D01*
X13771Y17709D01*
X13766Y17706D01*
X13694Y17665D01*
X13692Y17664D01*
X13690Y17662D01*
X13685Y17661D01*
X13605Y17639D01*
X13599Y17638D01*
X13594Y17638D01*
X13511D01*
X13506Y17638D01*
X13501Y17639D01*
X13421Y17661D01*
X13416Y17662D01*
X13411Y17665D01*
X13339Y17706D01*
X13335Y17709D01*
X13331Y17713D01*
X13272Y17771D01*
X13269Y17775D01*
X13266Y17779D01*
X13225Y17851D01*
X13223Y17854D01*
X13222Y17856D01*
X13221Y17861D01*
X13199Y17941D01*
X13198Y17946D01*
X13198Y17951D01*
D01*
Y17951D01*
X13198Y17993D01*
Y18938D01*
X13198Y18943D01*
X13199Y18948D01*
X13201Y18953D01*
X13203Y18958D01*
X13206Y18962D01*
X13209Y18966D01*
X13213Y18970D01*
X13218Y18973D01*
X13222Y18975D01*
X13227Y18977D01*
X13233Y18978D01*
X13238Y18978D01*
X13868D01*
X13873Y18978D01*
D02*
G37*
G36*
X14599Y11346D02*
X14605Y11345D01*
X14685Y11324D01*
X14690Y11322D01*
X14694Y11320D01*
X14766Y11278D01*
X14771Y11275D01*
X14774Y11272D01*
X14833Y11213D01*
X14837Y11209D01*
X14840Y11205D01*
X14881Y11133D01*
X14883Y11128D01*
X14885Y11123D01*
X14906Y11043D01*
X14907Y11038D01*
X14908Y11033D01*
Y10991D01*
Y10046D01*
X14907Y10041D01*
X14906Y10036D01*
X14905Y10031D01*
X14902Y10026D01*
X14900Y10022D01*
X14896Y10018D01*
X14892Y10015D01*
X14888Y10012D01*
X14883Y10009D01*
X14878Y10008D01*
X14873Y10007D01*
X14868Y10006D01*
X14238D01*
X14233Y10007D01*
X14227Y10008D01*
X14222Y10009D01*
X14218Y10012D01*
X14213Y10015D01*
X14209Y10018D01*
X14206Y10022D01*
X14203Y10026D01*
X14201Y10031D01*
X14199Y10036D01*
X14198Y10041D01*
X14198Y10046D01*
Y10991D01*
X14198Y11033D01*
D01*
Y11033D01*
X14198Y11038D01*
X14199Y11043D01*
X14221Y11123D01*
X14222Y11128D01*
X14223Y11131D01*
X14225Y11133D01*
X14266Y11205D01*
X14269Y11209D01*
X14272Y11213D01*
X14331Y11272D01*
X14335Y11275D01*
X14339Y11278D01*
X14411Y11320D01*
X14416Y11322D01*
X14421Y11324D01*
X14501Y11345D01*
X14506Y11346D01*
X14511Y11346D01*
X14594D01*
X14599Y11346D01*
D02*
G37*
G36*
X15599D02*
X15605Y11345D01*
X15685Y11324D01*
X15690Y11322D01*
X15694Y11320D01*
X15766Y11278D01*
X15771Y11275D01*
X15774Y11272D01*
X15833Y11213D01*
X15837Y11209D01*
X15840Y11205D01*
X15881Y11133D01*
X15883Y11128D01*
X15885Y11123D01*
X15906Y11043D01*
X15907Y11038D01*
X15908Y11033D01*
Y10991D01*
Y10046D01*
X15907Y10041D01*
X15906Y10036D01*
X15905Y10031D01*
X15902Y10026D01*
X15900Y10022D01*
X15896Y10018D01*
X15892Y10015D01*
X15888Y10012D01*
X15883Y10009D01*
X15878Y10008D01*
X15873Y10007D01*
X15868Y10006D01*
X15238D01*
X15233Y10007D01*
X15227Y10008D01*
X15222Y10009D01*
X15218Y10012D01*
X15213Y10015D01*
X15209Y10018D01*
X15206Y10022D01*
X15203Y10026D01*
X15201Y10031D01*
X15199Y10036D01*
X15198Y10041D01*
X15198Y10046D01*
Y10991D01*
X15198Y11033D01*
D01*
Y11033D01*
X15198Y11038D01*
X15199Y11043D01*
X15221Y11123D01*
X15222Y11128D01*
X15223Y11131D01*
X15225Y11133D01*
X15266Y11205D01*
X15269Y11209D01*
X15272Y11213D01*
X15331Y11272D01*
X15335Y11275D01*
X15339Y11278D01*
X15411Y11320D01*
X15416Y11322D01*
X15421Y11324D01*
X15501Y11345D01*
X15506Y11346D01*
X15511Y11346D01*
X15594D01*
X15599Y11346D01*
D02*
G37*
G36*
X16599D02*
X16605Y11345D01*
X16685Y11324D01*
X16690Y11322D01*
X16694Y11320D01*
X16766Y11278D01*
X16771Y11275D01*
X16774Y11272D01*
X16833Y11213D01*
X16837Y11209D01*
X16839Y11205D01*
X16881Y11133D01*
X16883Y11128D01*
X16885Y11123D01*
X16906Y11043D01*
X16907Y11038D01*
X16908Y11033D01*
Y10991D01*
Y10046D01*
X16907Y10041D01*
X16906Y10036D01*
X16905Y10031D01*
X16902Y10026D01*
X16900Y10022D01*
X16896Y10018D01*
X16892Y10015D01*
X16888Y10012D01*
X16883Y10009D01*
X16878Y10008D01*
X16873Y10007D01*
X16868Y10006D01*
X16238D01*
X16233Y10007D01*
X16227Y10008D01*
X16222Y10009D01*
X16218Y10012D01*
X16213Y10015D01*
X16209Y10018D01*
X16206Y10022D01*
X16203Y10026D01*
X16201Y10031D01*
X16199Y10036D01*
X16198Y10041D01*
X16198Y10046D01*
Y10991D01*
X16198Y11033D01*
D01*
Y11033D01*
X16198Y11038D01*
X16199Y11043D01*
X16221Y11123D01*
X16222Y11128D01*
X16223Y11131D01*
X16225Y11133D01*
X16266Y11205D01*
X16269Y11209D01*
X16272Y11213D01*
X16331Y11272D01*
X16335Y11275D01*
X16339Y11278D01*
X16411Y11320D01*
X16416Y11322D01*
X16421Y11324D01*
X16501Y11345D01*
X16506Y11346D01*
X16511Y11346D01*
X16594D01*
X16599Y11346D01*
D02*
G37*
G36*
X17599D02*
X17605Y11345D01*
X17685Y11324D01*
X17690Y11322D01*
X17694Y11320D01*
X17766Y11278D01*
X17771Y11275D01*
X17774Y11272D01*
X17833Y11213D01*
X17837Y11209D01*
X17839Y11205D01*
X17881Y11133D01*
X17883Y11128D01*
X17885Y11123D01*
X17906Y11043D01*
X17907Y11038D01*
X17908Y11033D01*
Y10991D01*
Y10046D01*
X17907Y10041D01*
X17906Y10036D01*
X17905Y10031D01*
X17902Y10026D01*
X17900Y10022D01*
X17896Y10018D01*
X17892Y10015D01*
X17888Y10012D01*
X17883Y10009D01*
X17878Y10008D01*
X17873Y10007D01*
X17868Y10006D01*
X17238D01*
X17233Y10007D01*
X17227Y10008D01*
X17222Y10009D01*
X17218Y10012D01*
X17213Y10015D01*
X17209Y10018D01*
X17206Y10022D01*
X17203Y10026D01*
X17201Y10031D01*
X17199Y10036D01*
X17198Y10041D01*
X17198Y10046D01*
Y10991D01*
X17198Y11033D01*
D01*
Y11033D01*
X17198Y11038D01*
X17199Y11043D01*
X17221Y11123D01*
X17222Y11128D01*
X17223Y11131D01*
X17225Y11133D01*
X17266Y11205D01*
X17269Y11209D01*
X17272Y11213D01*
X17331Y11272D01*
X17335Y11275D01*
X17339Y11278D01*
X17411Y11320D01*
X17416Y11322D01*
X17421Y11324D01*
X17501Y11345D01*
X17506Y11346D01*
X17511Y11346D01*
X17594D01*
X17599Y11346D01*
D02*
G37*
G36*
X18599D02*
X18605Y11345D01*
X18685Y11324D01*
X18690Y11322D01*
X18694Y11320D01*
X18766Y11278D01*
X18771Y11275D01*
X18774Y11272D01*
X18833Y11213D01*
X18837Y11209D01*
X18839Y11205D01*
X18881Y11133D01*
X18883Y11128D01*
X18885Y11123D01*
X18906Y11043D01*
X18907Y11038D01*
X18908Y11033D01*
Y10991D01*
Y10046D01*
X18907Y10041D01*
X18906Y10036D01*
X18905Y10031D01*
X18902Y10026D01*
X18900Y10022D01*
X18896Y10018D01*
X18892Y10015D01*
X18888Y10012D01*
X18883Y10009D01*
X18878Y10008D01*
X18873Y10007D01*
X18868Y10006D01*
X18238D01*
X18233Y10007D01*
X18227Y10008D01*
X18222Y10009D01*
X18218Y10012D01*
X18213Y10015D01*
X18209Y10018D01*
X18206Y10022D01*
X18203Y10026D01*
X18201Y10031D01*
X18199Y10036D01*
X18198Y10041D01*
X18198Y10046D01*
Y10991D01*
X18198Y11033D01*
D01*
Y11033D01*
X18198Y11038D01*
X18199Y11043D01*
X18221Y11123D01*
X18222Y11128D01*
X18223Y11131D01*
X18225Y11133D01*
X18266Y11205D01*
X18269Y11209D01*
X18272Y11213D01*
X18331Y11272D01*
X18335Y11275D01*
X18339Y11278D01*
X18411Y11320D01*
X18416Y11322D01*
X18421Y11324D01*
X18501Y11345D01*
X18506Y11346D01*
X18511Y11346D01*
X18594D01*
X18599Y11346D01*
D02*
G37*
G36*
X14873Y18978D02*
X14878Y18977D01*
X14883Y18975D01*
X14888Y18973D01*
X14892Y18970D01*
X14896Y18966D01*
X14900Y18962D01*
X14902Y18958D01*
X14905Y18953D01*
X14906Y18948D01*
X14907Y18943D01*
X14908Y18938D01*
Y17993D01*
Y17951D01*
X14907Y17946D01*
X14906Y17941D01*
X14885Y17861D01*
X14883Y17856D01*
X14881Y17851D01*
X14840Y17779D01*
X14837Y17775D01*
X14833Y17771D01*
X14774Y17713D01*
X14771Y17709D01*
X14766Y17706D01*
X14694Y17665D01*
X14692Y17664D01*
X14690Y17662D01*
X14685Y17661D01*
X14605Y17639D01*
X14599Y17638D01*
X14594Y17638D01*
X14511D01*
X14506Y17638D01*
X14501Y17639D01*
X14421Y17661D01*
X14416Y17662D01*
X14411Y17665D01*
X14339Y17706D01*
X14335Y17709D01*
X14331Y17713D01*
X14272Y17771D01*
X14269Y17775D01*
X14266Y17779D01*
X14225Y17851D01*
X14223Y17854D01*
X14222Y17856D01*
X14221Y17861D01*
X14199Y17941D01*
X14198Y17946D01*
X14198Y17951D01*
D01*
Y17951D01*
X14198Y17993D01*
Y18938D01*
X14198Y18943D01*
X14199Y18948D01*
X14201Y18953D01*
X14203Y18958D01*
X14206Y18962D01*
X14209Y18966D01*
X14213Y18970D01*
X14218Y18973D01*
X14222Y18975D01*
X14227Y18977D01*
X14233Y18978D01*
X14238Y18978D01*
X14868D01*
X14873Y18978D01*
D02*
G37*
G36*
X15873D02*
X15878Y18977D01*
X15883Y18975D01*
X15888Y18973D01*
X15892Y18970D01*
X15896Y18966D01*
X15900Y18962D01*
X15902Y18958D01*
X15905Y18953D01*
X15906Y18948D01*
X15907Y18943D01*
X15908Y18938D01*
Y17993D01*
Y17951D01*
X15907Y17946D01*
X15906Y17941D01*
X15885Y17861D01*
X15883Y17856D01*
X15881Y17851D01*
X15840Y17779D01*
X15837Y17775D01*
X15833Y17771D01*
X15774Y17713D01*
X15771Y17709D01*
X15766Y17706D01*
X15694Y17665D01*
X15692Y17664D01*
X15690Y17662D01*
X15685Y17661D01*
X15605Y17639D01*
X15599Y17638D01*
X15594Y17638D01*
X15511D01*
X15506Y17638D01*
X15501Y17639D01*
X15421Y17661D01*
X15416Y17662D01*
X15411Y17665D01*
X15339Y17706D01*
X15335Y17709D01*
X15331Y17713D01*
X15272Y17771D01*
X15269Y17775D01*
X15266Y17779D01*
X15225Y17851D01*
X15223Y17854D01*
X15222Y17856D01*
X15221Y17861D01*
X15199Y17941D01*
X15198Y17946D01*
X15198Y17951D01*
D01*
Y17951D01*
X15198Y17993D01*
Y18938D01*
X15198Y18943D01*
X15199Y18948D01*
X15201Y18953D01*
X15203Y18958D01*
X15206Y18962D01*
X15209Y18966D01*
X15213Y18970D01*
X15218Y18973D01*
X15222Y18975D01*
X15227Y18977D01*
X15233Y18978D01*
X15238Y18978D01*
X15868D01*
X15873Y18978D01*
D02*
G37*
G36*
X16873D02*
X16878Y18977D01*
X16883Y18975D01*
X16888Y18973D01*
X16892Y18970D01*
X16896Y18966D01*
X16900Y18962D01*
X16902Y18958D01*
X16905Y18953D01*
X16906Y18948D01*
X16907Y18943D01*
X16908Y18938D01*
Y17993D01*
Y17951D01*
X16907Y17946D01*
X16906Y17941D01*
X16885Y17861D01*
X16883Y17856D01*
X16881Y17851D01*
X16839Y17779D01*
X16837Y17775D01*
X16833Y17771D01*
X16774Y17713D01*
X16771Y17709D01*
X16766Y17706D01*
X16694Y17665D01*
X16692Y17664D01*
X16690Y17662D01*
X16685Y17661D01*
X16605Y17639D01*
X16599Y17638D01*
X16594Y17638D01*
X16511D01*
X16506Y17638D01*
X16501Y17639D01*
X16421Y17661D01*
X16416Y17662D01*
X16411Y17665D01*
X16339Y17706D01*
X16335Y17709D01*
X16331Y17713D01*
X16272Y17771D01*
X16269Y17775D01*
X16266Y17779D01*
X16225Y17851D01*
X16223Y17854D01*
X16222Y17856D01*
X16221Y17861D01*
X16199Y17941D01*
X16198Y17946D01*
X16198Y17951D01*
D01*
Y17951D01*
X16198Y17993D01*
Y18938D01*
X16198Y18943D01*
X16199Y18948D01*
X16201Y18953D01*
X16203Y18958D01*
X16206Y18962D01*
X16209Y18966D01*
X16213Y18970D01*
X16218Y18973D01*
X16222Y18975D01*
X16227Y18977D01*
X16233Y18978D01*
X16238Y18978D01*
X16868D01*
X16873Y18978D01*
D02*
G37*
G36*
X17873D02*
X17878Y18977D01*
X17883Y18975D01*
X17888Y18973D01*
X17892Y18970D01*
X17896Y18966D01*
X17900Y18962D01*
X17902Y18958D01*
X17905Y18953D01*
X17906Y18948D01*
X17907Y18943D01*
X17908Y18938D01*
Y17993D01*
Y17951D01*
X17907Y17946D01*
X17906Y17941D01*
X17885Y17861D01*
X17883Y17856D01*
X17881Y17851D01*
X17839Y17779D01*
X17837Y17775D01*
X17833Y17771D01*
X17774Y17713D01*
X17771Y17709D01*
X17766Y17706D01*
X17694Y17665D01*
X17692Y17664D01*
X17690Y17662D01*
X17685Y17661D01*
X17605Y17639D01*
X17599Y17638D01*
X17594Y17638D01*
X17511D01*
X17506Y17638D01*
X17501Y17639D01*
X17421Y17661D01*
X17416Y17662D01*
X17411Y17665D01*
X17339Y17706D01*
X17335Y17709D01*
X17331Y17713D01*
X17272Y17771D01*
X17269Y17775D01*
X17266Y17779D01*
X17225Y17851D01*
X17223Y17854D01*
X17222Y17856D01*
X17221Y17861D01*
X17199Y17941D01*
X17198Y17946D01*
X17198Y17951D01*
D01*
Y17951D01*
X17198Y17993D01*
Y18938D01*
X17198Y18943D01*
X17199Y18948D01*
X17201Y18953D01*
X17203Y18958D01*
X17206Y18962D01*
X17209Y18966D01*
X17213Y18970D01*
X17218Y18973D01*
X17222Y18975D01*
X17227Y18977D01*
X17233Y18978D01*
X17238Y18978D01*
X17868D01*
X17873Y18978D01*
D02*
G37*
G36*
X18873D02*
X18878Y18977D01*
X18883Y18975D01*
X18888Y18973D01*
X18892Y18970D01*
X18896Y18966D01*
X18900Y18962D01*
X18902Y18958D01*
X18905Y18953D01*
X18906Y18948D01*
X18907Y18943D01*
X18908Y18938D01*
Y17993D01*
Y17951D01*
X18907Y17946D01*
X18906Y17941D01*
X18885Y17861D01*
X18883Y17856D01*
X18881Y17851D01*
X18839Y17779D01*
X18837Y17775D01*
X18833Y17771D01*
X18774Y17713D01*
X18771Y17709D01*
X18766Y17706D01*
X18694Y17665D01*
X18692Y17664D01*
X18690Y17662D01*
X18685Y17661D01*
X18605Y17639D01*
X18599Y17638D01*
X18594Y17638D01*
X18511D01*
X18506Y17638D01*
X18501Y17639D01*
X18421Y17661D01*
X18416Y17662D01*
X18411Y17665D01*
X18339Y17706D01*
X18335Y17709D01*
X18331Y17713D01*
X18272Y17771D01*
X18269Y17775D01*
X18266Y17779D01*
X18225Y17851D01*
X18223Y17854D01*
X18222Y17856D01*
X18221Y17861D01*
X18199Y17941D01*
X18198Y17946D01*
X18198Y17951D01*
D01*
Y17951D01*
X18198Y17993D01*
Y18938D01*
X18198Y18943D01*
X18199Y18948D01*
X18201Y18953D01*
X18203Y18958D01*
X18206Y18962D01*
X18209Y18966D01*
X18213Y18970D01*
X18218Y18973D01*
X18222Y18975D01*
X18227Y18977D01*
X18233Y18978D01*
X18238Y18978D01*
X18868D01*
X18873Y18978D01*
D02*
G37*
D13*
X30787Y-1571D02*
G03*
X31359Y-999I0J572D01*
G01*
X31359Y26866D02*
G03*
X30975Y27250I-384J0D01*
G01*
X-1112Y27254D02*
G03*
X-1575Y26791I0J-463D01*
G01*
X-1575Y-1112D02*
G03*
X-1112Y-1575I463J0D01*
G01*
X31359Y-999D02*
X31359Y26866D01*
X30906Y27254D02*
X30975Y27250D01*
X-1112Y27254D02*
X30906Y27254D01*
X-1113Y-1575D02*
X30787Y-1575D01*
X-1575Y26791D02*
X-1575Y-1112D01*
D17*
X20669Y8858D02*
X26083D01*
X20669D02*
Y17717D01*
X26083Y8858D02*
Y17717D01*
X20669D02*
X26083D01*
D19*
X25069Y4990D02*
D03*
Y856D02*
D03*
D20*
Y5246D02*
D03*
Y5502D02*
D03*
Y5758D02*
D03*
Y6014D02*
D03*
Y6270D02*
D03*
Y6781D02*
D03*
Y7037D02*
D03*
Y7293D02*
D03*
X22805D02*
D03*
Y7037D02*
D03*
Y6270D02*
D03*
Y6014D02*
D03*
Y5758D02*
D03*
Y5502D02*
D03*
Y5246D02*
D03*
Y4990D02*
D03*
X25069Y6526D02*
D03*
X22805Y6781D02*
D03*
Y6526D02*
D03*
X25069Y1112D02*
D03*
Y1368D02*
D03*
Y1624D02*
D03*
Y1880D02*
D03*
Y2136D02*
D03*
Y2392D02*
D03*
Y2648D02*
D03*
Y2904D02*
D03*
Y3159D02*
D03*
X22805D02*
D03*
Y2904D02*
D03*
Y2648D02*
D03*
Y2392D02*
D03*
Y1368D02*
D03*
Y1112D02*
D03*
Y856D02*
D03*
Y1880D02*
D03*
Y2136D02*
D03*
Y1624D02*
D03*
D29*
X15615Y26343D02*
G03*
X15615Y26343I-261J0D01*
G01*
D30*
X22244Y157D02*
D03*
X22874D02*
D03*
X22047Y4370D02*
D03*
X22677D02*
D03*
X3293Y20079D02*
D03*
X2663D02*
D03*
Y20824D02*
D03*
X3293D02*
D03*
X16102Y24685D02*
D03*
X15472D02*
D03*
D31*
X-441Y10579D02*
D03*
X559Y18406D02*
D03*
X5559D02*
D03*
X3559Y10579D02*
D03*
X7559Y18406D02*
D03*
X4559Y10579D02*
D03*
X559D02*
D03*
X14559Y18406D02*
D03*
X13559D02*
D03*
X10559D02*
D03*
X4559D02*
D03*
X2559Y10579D02*
D03*
X12559Y18406D02*
D03*
X8559D02*
D03*
X18559Y10579D02*
D03*
X17559D02*
D03*
X16559D02*
D03*
X15559D02*
D03*
X14559D02*
D03*
X13559D02*
D03*
X12559D02*
D03*
X11559D02*
D03*
X10559D02*
D03*
X9559D02*
D03*
X8559D02*
D03*
X7559D02*
D03*
X6559D02*
D03*
X5559D02*
D03*
X-441Y18406D02*
D03*
X1559D02*
D03*
X2559D02*
D03*
X3559D02*
D03*
X6559D02*
D03*
X9559D02*
D03*
X11559D02*
D03*
X15559D02*
D03*
X16559D02*
D03*
X17559D02*
D03*
X18559D02*
D03*
D32*
X957Y8071D02*
D03*
X617D02*
D03*
D33*
X6496Y5315D02*
D03*
Y4685D02*
D03*
D34*
X5669Y5165D02*
D03*
Y4921D02*
D03*
D35*
X1559Y10677D02*
D03*
D36*
X-256Y8071D02*
D03*
X-610D02*
D03*
D37*
X2673Y21539D02*
D03*
Y22169D02*
D03*
X14213Y26181D02*
D03*
Y25551D02*
D03*
D38*
X15709Y25850D02*
D03*
X15000D02*
D03*
X15709Y25526D02*
D03*
X15354D02*
D03*
X15000D02*
D03*
D39*
X29547Y1189D02*
D03*
D40*
Y2189D02*
D03*
Y3189D02*
D03*
Y4189D02*
D03*
Y5189D02*
D03*
Y6189D02*
D03*
Y7189D02*
D03*
Y8189D02*
D03*
X28547Y1189D02*
D03*
Y2189D02*
D03*
Y3189D02*
D03*
Y4189D02*
D03*
Y5189D02*
D03*
Y6189D02*
D03*
Y7189D02*
D03*
Y8189D02*
D03*
D41*
X29409Y20118D02*
D03*
Y15472D02*
D03*
Y22087D02*
D03*
Y17441D02*
D03*
D42*
X4134Y5512D02*
D03*
X2953Y3661D02*
D03*
X1772Y5512D02*
D03*
D43*
X19685Y0D02*
D03*
X29528Y25591D02*
D03*
X0D02*
D03*
Y0D02*
D03*
D44*
X-787Y22638D02*
D03*
Y20866D02*
D03*
D45*
X138Y20374D02*
D03*
Y23130D02*
D03*
D46*
X15354Y26343D02*
D03*
M02*
