G04*
G04 #@! TF.GenerationSoftware,Altium Limited,Altium Designer,25.8.1 (18)*
G04*
G04 Layer_Physical_Order=2*
G04 Layer_Color=32768*
%FSLAX24Y24*%
%MOIN*%
G70*
G04*
G04 #@! TF.SameCoordinates,0BF7B96A-1ACD-469D-A283-C4C924D5F6B6*
G04*
G04*
G04 #@! TF.FilePolarity,Negative*
G04*
G01*
G75*
%ADD14C,0.0100*%
%ADD56C,0.0400*%
G04:AMPARAMS|DCode=63|XSize=119.055mil|YSize=119.055mil|CornerRadius=0mil|HoleSize=0mil|Usage=FLASHONLY|Rotation=0.000|XOffset=0mil|YOffset=0mil|HoleType=Round|Shape=Relief|Width=10mil|Gap=10mil|Entries=4|*
%AMTHD63*
7,0,0,0.1191,0.0991,0.0100,45*
%
%ADD63THD63*%
G04:AMPARAMS|DCode=64|XSize=99.37mil|YSize=99.37mil|CornerRadius=0mil|HoleSize=0mil|Usage=FLASHONLY|Rotation=0.000|XOffset=0mil|YOffset=0mil|HoleType=Round|Shape=Relief|Width=10mil|Gap=10mil|Entries=4|*
%AMTHD64*
7,0,0,0.0994,0.0794,0.0100,45*
%
%ADD64THD64*%
G04:AMPARAMS|DCode=65|XSize=138.74mil|YSize=138.74mil|CornerRadius=0mil|HoleSize=0mil|Usage=FLASHONLY|Rotation=0.000|XOffset=0mil|YOffset=0mil|HoleType=Round|Shape=Relief|Width=10mil|Gap=10mil|Entries=4|*
%AMTHD65*
7,0,0,0.1387,0.1187,0.0100,45*
%
%ADD65THD65*%
%ADD66C,0.0791*%
%ADD67C,0.0987*%
%ADD68C,0.1460*%
%ADD69C,0.0594*%
%ADD70C,0.0712*%
%ADD71C,0.0397*%
%ADD72C,0.0298*%
D14*
X20665Y-27162D02*
G03*
X21237Y-26590I0J572D01*
G01*
X21237Y1276D02*
G03*
X20853Y1660I-384J0D01*
G01*
X-1112Y1663D02*
G03*
X-1575Y1200I0J-463D01*
G01*
X-1575Y-26702D02*
G03*
X-1112Y-27165I463J0D01*
G01*
X21237Y-26590D02*
X21237Y1276D01*
X20299Y1693D02*
X20345Y1739D01*
X-1112Y1663D02*
X20853D01*
X-1113Y-27165D02*
X20665Y-27165D01*
X-1575Y1200D02*
X-1575Y-26702D01*
D56*
X-1112Y1663D02*
G03*
X-1575Y1200I0J-463D01*
G01*
X21237Y1276D02*
G03*
X20853Y1660I-384J-0D01*
G01*
X20665Y-27162D02*
G03*
X21237Y-26590I0J572D01*
G01*
X-1575Y-26702D02*
G03*
X-1112Y-27165I463J0D01*
G01*
X-1575Y1200D02*
X-1575Y-26702D01*
X-1112Y1663D02*
X20853D01*
Y1660D02*
Y1663D01*
X21237Y-26590D02*
X21237Y1276D01*
X20665Y-27165D02*
Y-27162D01*
X-1113Y-27165D02*
X20665Y-27165D01*
X-1113Y-27165D02*
X-1112Y-27165D01*
D63*
X19055Y-19488D02*
D03*
D64*
X-787Y-4724D02*
D03*
D65*
X1772Y-20079D02*
D03*
D66*
X19055Y-21457D02*
D03*
D67*
X4134Y-20079D02*
D03*
X2953Y-21929D02*
D03*
D68*
X19685Y-25591D02*
D03*
Y0D02*
D03*
X0D02*
D03*
Y-25591D02*
D03*
D69*
X-787Y-2953D02*
D03*
D70*
X138Y-5217D02*
D03*
Y-2461D02*
D03*
D71*
X9717Y544D02*
D03*
D72*
X-472Y-15827D02*
D03*
X10551Y-6339D02*
D03*
X8998Y58D02*
D03*
X5630Y-18307D02*
D03*
X4567Y-6378D02*
D03*
X12520Y-6299D02*
D03*
X2559Y-15787D02*
D03*
X7559Y-6339D02*
D03*
X9835Y-1508D02*
D03*
X8583Y-18504D02*
D03*
X5551Y-6339D02*
D03*
X13543Y-6299D02*
D03*
X3583Y-15827D02*
D03*
X10026Y-622D02*
D03*
X7559Y-18465D02*
D03*
X4528Y-15827D02*
D03*
X2638Y-5984D02*
D03*
X15551Y-15787D02*
D03*
X14567Y-6299D02*
D03*
X9252Y-24685D02*
D03*
X8976D02*
D03*
X8701Y-24646D02*
D03*
X2874Y-9567D02*
D03*
X14567Y-13701D02*
D03*
Y-13937D02*
D03*
X11496Y-11220D02*
D03*
X11509Y-12966D02*
D03*
X10669Y-12402D02*
D03*
X11024Y-13425D02*
D03*
X10669Y-10906D02*
D03*
X1417Y-16457D02*
D03*
X11575Y-10787D02*
D03*
X8543Y-6299D02*
D03*
X9213Y-24370D02*
D03*
X8701D02*
D03*
X8976D02*
D03*
X7874Y-20472D02*
D03*
Y-20726D02*
D03*
Y-21339D02*
D03*
X6395Y-22283D02*
D03*
X6139D02*
D03*
X5906D02*
D03*
X551Y-8780D02*
D03*
Y-9033D02*
D03*
M02*
