G04*
G04 #@! TF.GenerationSoftware,Altium Limited,Altium Designer,25.8.1 (18)*
G04*
G04 Layer_Color=128*
%FSLAX24Y24*%
%MOIN*%
G70*
G04*
G04 #@! TF.SameCoordinates,7FF5DB36-7A27-4332-9A6D-2CD05FB9F9F7*
G04*
G04*
G04 #@! TF.FilePolarity,Positive*
G04*
G01*
G75*
%ADD14C,0.0100*%
%ADD71C,0.0020*%
D14*
X20665Y-27162D02*
G03*
X21237Y-26590I0J572D01*
G01*
X21237Y1276D02*
G03*
X20853Y1660I-384J0D01*
G01*
X-1112Y1663D02*
G03*
X-1575Y1200I0J-463D01*
G01*
X-1575Y-26702D02*
G03*
X-1112Y-27165I463J0D01*
G01*
X21237Y-26590D02*
X21237Y1276D01*
X20299Y1693D02*
X20345Y1739D01*
X-1112Y1663D02*
X20853D01*
X-1113Y-27165D02*
X20665Y-27165D01*
X-1575Y1200D02*
X-1575Y-26702D01*
D71*
X18760Y-19488D02*
X19350D01*
X19055Y-19783D02*
Y-19193D01*
X-984Y-4724D02*
X-591D01*
X-787Y-4921D02*
Y-4528D01*
X1378Y-20079D02*
X2165D01*
X1772Y-20472D02*
Y-19685D01*
X18760Y-21457D02*
X19350D01*
X19055Y-21752D02*
Y-21161D01*
X3740Y-20079D02*
X4528D01*
X4134Y-20472D02*
Y-19685D01*
X2559Y-21929D02*
X3346D01*
X2953Y-22323D02*
Y-21535D01*
X19055Y-25591D02*
X20315D01*
X19685Y-26220D02*
Y-24961D01*
X19055Y0D02*
X20315D01*
X19685Y-630D02*
Y630D01*
X-630Y0D02*
X630D01*
X0Y-630D02*
Y630D01*
X-630Y-25591D02*
X630D01*
X0Y-26220D02*
Y-24961D01*
X-984Y-2953D02*
X-591D01*
X-787Y-3150D02*
Y-2756D01*
X-118Y-5217D02*
X394D01*
X138Y-5472D02*
Y-4961D01*
X-118Y-2461D02*
X394D01*
X138Y-2716D02*
Y-2205D01*
X9618Y544D02*
X9815D01*
X9717Y445D02*
Y642D01*
X20477Y-2948D02*
X20576D01*
X20526Y-2997D02*
Y-2899D01*
X20477Y-5310D02*
X20576D01*
X20526Y-5359D02*
Y-5261D01*
X20477Y-7672D02*
X20576D01*
X20526Y-7721D02*
Y-7623D01*
X20477Y-14759D02*
X20576D01*
X20526Y-14808D02*
Y-14710D01*
X20477Y-17121D02*
X20576D01*
X20526Y-17170D02*
Y-17072D01*
X20477Y-19483D02*
X20576D01*
X20526Y-19532D02*
Y-19434D01*
X20477Y-21845D02*
X20576D01*
X20526Y-21895D02*
Y-21796D01*
X20477Y-24208D02*
X20576D01*
X20526Y-24257D02*
Y-24158D01*
X19887Y-1767D02*
X19985D01*
X19936Y-1816D02*
Y-1717D01*
X19296Y-2948D02*
X19394D01*
X19345Y-2997D02*
Y-2899D01*
X19887Y-4129D02*
X19985D01*
X19936Y-4178D02*
Y-4080D01*
X19296Y-5310D02*
X19394D01*
X19345Y-5359D02*
Y-5261D01*
X19887Y-6491D02*
X19985D01*
X19936Y-6540D02*
Y-6442D01*
X19296Y-7672D02*
X19394D01*
X19345Y-7721D02*
Y-7623D01*
X19296Y-14759D02*
X19394D01*
X19345Y-14808D02*
Y-14710D01*
X19887Y-15940D02*
X19985D01*
X19936Y-15989D02*
Y-15891D01*
X19296Y-17121D02*
X19394D01*
X19345Y-17170D02*
Y-17072D01*
X19887Y-18302D02*
X19985D01*
X19936Y-18351D02*
Y-18253D01*
X19887Y-20664D02*
X19985D01*
X19936Y-20714D02*
Y-20615D01*
X19887Y-23027D02*
X19985D01*
X19936Y-23076D02*
Y-22977D01*
X19296Y-24208D02*
X19394D01*
X19345Y-24257D02*
Y-24158D01*
X18115Y-586D02*
X18213D01*
X18164Y-635D02*
Y-536D01*
X18705Y-1767D02*
X18804D01*
X18755Y-1816D02*
Y-1717D01*
X18115Y-2948D02*
X18213D01*
X18164Y-2997D02*
Y-2899D01*
X18705Y-4129D02*
X18804D01*
X18755Y-4178D02*
Y-4080D01*
X18115Y-5310D02*
X18213D01*
X18164Y-5359D02*
Y-5261D01*
X18115Y-17121D02*
X18213D01*
X18164Y-17170D02*
Y-17072D01*
X18705Y-18302D02*
X18804D01*
X18755Y-18351D02*
Y-18253D01*
X18115Y-19483D02*
X18213D01*
X18164Y-19532D02*
Y-19434D01*
X18705Y-20664D02*
X18804D01*
X18755Y-20714D02*
Y-20615D01*
X18705Y-23027D02*
X18804D01*
X18755Y-23076D02*
Y-22977D01*
X18115Y-24208D02*
X18213D01*
X18164Y-24257D02*
Y-24158D01*
X18115Y-26570D02*
X18213D01*
X18164Y-26619D02*
Y-26521D01*
X17524Y596D02*
X17623D01*
X17574Y546D02*
Y645D01*
X16934Y-586D02*
X17032D01*
X16983Y-635D02*
Y-536D01*
X17524Y-1767D02*
X17623D01*
X17574Y-1816D02*
Y-1717D01*
X16934Y-2948D02*
X17032D01*
X16983Y-2997D02*
Y-2899D01*
X17524Y-4129D02*
X17623D01*
X17574Y-4178D02*
Y-4080D01*
X16934Y-5310D02*
X17032D01*
X16983Y-5359D02*
Y-5261D01*
X16934Y-7672D02*
X17032D01*
X16983Y-7721D02*
Y-7623D01*
X16934Y-14759D02*
X17032D01*
X16983Y-14808D02*
Y-14710D01*
X17524Y-15940D02*
X17623D01*
X17574Y-15989D02*
Y-15891D01*
X17524Y-18302D02*
X17623D01*
X17574Y-18351D02*
Y-18253D01*
X16934Y-19483D02*
X17032D01*
X16983Y-19532D02*
Y-19434D01*
X17524Y-20664D02*
X17623D01*
X17574Y-20714D02*
Y-20615D01*
X17524Y-23027D02*
X17623D01*
X17574Y-23076D02*
Y-22977D01*
X16934Y-24208D02*
X17032D01*
X16983Y-24257D02*
Y-24158D01*
X17524Y-25389D02*
X17623D01*
X17574Y-25438D02*
Y-25340D01*
X16934Y-26570D02*
X17032D01*
X16983Y-26619D02*
Y-26521D01*
X16343Y596D02*
X16442D01*
X16392Y546D02*
Y645D01*
X15753Y-586D02*
X15851D01*
X15802Y-635D02*
Y-536D01*
X16343Y-1767D02*
X16442D01*
X16392Y-1816D02*
Y-1717D01*
X15753Y-2948D02*
X15851D01*
X15802Y-2997D02*
Y-2899D01*
X16343Y-4129D02*
X16442D01*
X16392Y-4178D02*
Y-4080D01*
X15753Y-5310D02*
X15851D01*
X15802Y-5359D02*
Y-5261D01*
X16343Y-15940D02*
X16442D01*
X16392Y-15989D02*
Y-15891D01*
X15753Y-17121D02*
X15851D01*
X15802Y-17170D02*
Y-17072D01*
X16343Y-18302D02*
X16442D01*
X16392Y-18351D02*
Y-18253D01*
X15753Y-19483D02*
X15851D01*
X15802Y-19532D02*
Y-19434D01*
X16343Y-23027D02*
X16442D01*
X16392Y-23076D02*
Y-22977D01*
X15753Y-24208D02*
X15851D01*
X15802Y-24257D02*
Y-24158D01*
X16343Y-25389D02*
X16442D01*
X16392Y-25438D02*
Y-25340D01*
X15753Y-26570D02*
X15851D01*
X15802Y-26619D02*
Y-26521D01*
X15162Y596D02*
X15261D01*
X15211Y546D02*
Y645D01*
X14572Y-586D02*
X14670D01*
X14621Y-635D02*
Y-536D01*
X15162Y-1767D02*
X15261D01*
X15211Y-1816D02*
Y-1717D01*
X14572Y-2948D02*
X14670D01*
X14621Y-2997D02*
Y-2899D01*
X15162Y-4129D02*
X15261D01*
X15211Y-4178D02*
Y-4080D01*
X14572Y-5310D02*
X14670D01*
X14621Y-5359D02*
Y-5261D01*
X15162Y-6491D02*
X15261D01*
X15211Y-6540D02*
Y-6442D01*
X15162Y-18302D02*
X15261D01*
X15211Y-18351D02*
Y-18253D01*
X15162Y-23027D02*
X15261D01*
X15211Y-23076D02*
Y-22977D01*
X14572Y-24208D02*
X14670D01*
X14621Y-24257D02*
Y-24158D01*
X15162Y-25389D02*
X15261D01*
X15211Y-25438D02*
Y-25340D01*
X14572Y-26570D02*
X14670D01*
X14621Y-26619D02*
Y-26521D01*
X13981Y596D02*
X14079D01*
X14030Y546D02*
Y645D01*
X13391Y-586D02*
X13489D01*
X13440Y-635D02*
Y-536D01*
X13981Y-1767D02*
X14079D01*
X14030Y-1816D02*
Y-1717D01*
X13391Y-2948D02*
X13489D01*
X13440Y-2997D02*
Y-2899D01*
X13981Y-4129D02*
X14079D01*
X14030Y-4178D02*
Y-4080D01*
X13391Y-5310D02*
X13489D01*
X13440Y-5359D02*
Y-5261D01*
X13981Y-6491D02*
X14079D01*
X14030Y-6540D02*
Y-6442D01*
X13391Y-12397D02*
X13489D01*
X13440Y-12446D02*
Y-12347D01*
X13391Y-19483D02*
X13489D01*
X13440Y-19532D02*
Y-19434D01*
X13981Y-23027D02*
X14079D01*
X14030Y-23076D02*
Y-22977D01*
X13391Y-24208D02*
X13489D01*
X13440Y-24257D02*
Y-24158D01*
X13981Y-25389D02*
X14079D01*
X14030Y-25438D02*
Y-25340D01*
X13391Y-26570D02*
X13489D01*
X13440Y-26619D02*
Y-26521D01*
X12800Y596D02*
X12898D01*
X12849Y546D02*
Y645D01*
X12209Y-586D02*
X12308D01*
X12259Y-635D02*
Y-536D01*
X12800Y-1767D02*
X12898D01*
X12849Y-1816D02*
Y-1717D01*
X12209Y-2948D02*
X12308D01*
X12259Y-2997D02*
Y-2899D01*
X12800Y-4129D02*
X12898D01*
X12849Y-4178D02*
Y-4080D01*
X12209Y-5310D02*
X12308D01*
X12259Y-5359D02*
Y-5261D01*
X12800Y-13578D02*
X12898D01*
X12849Y-13627D02*
Y-13528D01*
X12800Y-15940D02*
X12898D01*
X12849Y-15989D02*
Y-15891D01*
X12209Y-19483D02*
X12308D01*
X12259Y-19532D02*
Y-19434D01*
X12800Y-23027D02*
X12898D01*
X12849Y-23076D02*
Y-22977D01*
X12209Y-24208D02*
X12308D01*
X12259Y-24257D02*
Y-24158D01*
X12800Y-25389D02*
X12898D01*
X12849Y-25438D02*
Y-25340D01*
X12209Y-26570D02*
X12308D01*
X12259Y-26619D02*
Y-26521D01*
X11619Y596D02*
X11717D01*
X11668Y546D02*
Y645D01*
X11028Y-586D02*
X11127D01*
X11078Y-635D02*
Y-536D01*
X11619Y-1767D02*
X11717D01*
X11668Y-1816D02*
Y-1717D01*
X11028Y-2948D02*
X11127D01*
X11078Y-2997D02*
Y-2899D01*
X11619Y-4129D02*
X11717D01*
X11668Y-4178D02*
Y-4080D01*
X11028Y-5310D02*
X11127D01*
X11078Y-5359D02*
Y-5261D01*
X11028Y-7672D02*
X11127D01*
X11078Y-7721D02*
Y-7623D01*
X11619Y-13578D02*
X11717D01*
X11668Y-13627D02*
Y-13528D01*
X11028Y-14759D02*
X11127D01*
X11078Y-14808D02*
Y-14710D01*
X11028Y-17121D02*
X11127D01*
X11078Y-17170D02*
Y-17072D01*
X11028Y-19483D02*
X11127D01*
X11078Y-19532D02*
Y-19434D01*
X11619Y-20664D02*
X11717D01*
X11668Y-20714D02*
Y-20615D01*
X11028Y-24208D02*
X11127D01*
X11078Y-24257D02*
Y-24158D01*
X11619Y-25389D02*
X11717D01*
X11668Y-25438D02*
Y-25340D01*
X11028Y-26570D02*
X11127D01*
X11078Y-26619D02*
Y-26521D01*
X10438Y596D02*
X10536D01*
X10487Y546D02*
Y645D01*
X10438Y-1767D02*
X10536D01*
X10487Y-1816D02*
Y-1717D01*
X10438Y-4129D02*
X10536D01*
X10487Y-4178D02*
Y-4080D01*
X10438Y-15940D02*
X10536D01*
X10487Y-15989D02*
Y-15891D01*
X9847Y-17121D02*
X9946D01*
X9896Y-17170D02*
Y-17072D01*
X10438Y-20664D02*
X10536D01*
X10487Y-20714D02*
Y-20615D01*
X9847Y-21845D02*
X9946D01*
X9896Y-21895D02*
Y-21796D01*
X10438Y-25389D02*
X10536D01*
X10487Y-25438D02*
Y-25340D01*
X9847Y-26570D02*
X9946D01*
X9896Y-26619D02*
Y-26521D01*
X9257Y596D02*
X9355D01*
X9306Y546D02*
Y645D01*
X8666Y-586D02*
X8765D01*
X8715Y-635D02*
Y-536D01*
X8666Y-2948D02*
X8765D01*
X8715Y-2997D02*
Y-2899D01*
X9257Y-4129D02*
X9355D01*
X9306Y-4178D02*
Y-4080D01*
X8666Y-5310D02*
X8765D01*
X8715Y-5359D02*
Y-5261D01*
X9257Y-8853D02*
X9355D01*
X9306Y-8903D02*
Y-8804D01*
X8666Y-17121D02*
X8765D01*
X8715Y-17170D02*
Y-17072D01*
X9257Y-23027D02*
X9355D01*
X9306Y-23076D02*
Y-22977D01*
X9257Y-25389D02*
X9355D01*
X9306Y-25438D02*
Y-25340D01*
X8666Y-26570D02*
X8765D01*
X8715Y-26619D02*
Y-26521D01*
X8076Y596D02*
X8174D01*
X8125Y546D02*
Y645D01*
X7485Y-586D02*
X7583D01*
X7534Y-635D02*
Y-536D01*
X8076Y-1767D02*
X8174D01*
X8125Y-1816D02*
Y-1717D01*
X7485Y-2948D02*
X7583D01*
X7534Y-2997D02*
Y-2899D01*
X8076Y-4129D02*
X8174D01*
X8125Y-4178D02*
Y-4080D01*
X7485Y-5310D02*
X7583D01*
X7534Y-5359D02*
Y-5261D01*
X7485Y-10034D02*
X7583D01*
X7534Y-10084D02*
Y-9985D01*
X7485Y-17121D02*
X7583D01*
X7534Y-17170D02*
Y-17072D01*
X7485Y-19483D02*
X7583D01*
X7534Y-19532D02*
Y-19434D01*
X8076Y-25389D02*
X8174D01*
X8125Y-25438D02*
Y-25340D01*
X7485Y-26570D02*
X7583D01*
X7534Y-26619D02*
Y-26521D01*
X6894Y596D02*
X6993D01*
X6944Y546D02*
Y645D01*
X6304Y-586D02*
X6402D01*
X6353Y-635D02*
Y-536D01*
X6304Y-2948D02*
X6402D01*
X6353Y-2997D02*
Y-2899D01*
X6894Y-4129D02*
X6993D01*
X6944Y-4178D02*
Y-4080D01*
X6304Y-5310D02*
X6402D01*
X6353Y-5359D02*
Y-5261D01*
X6304Y-10034D02*
X6402D01*
X6353Y-10084D02*
Y-9985D01*
X6894Y-11215D02*
X6993D01*
X6944Y-11265D02*
Y-11166D01*
X6894Y-13578D02*
X6993D01*
X6944Y-13627D02*
Y-13528D01*
X6304Y-17121D02*
X6402D01*
X6353Y-17170D02*
Y-17072D01*
X6304Y-19483D02*
X6402D01*
X6353Y-19532D02*
Y-19434D01*
X6894Y-25389D02*
X6993D01*
X6944Y-25438D02*
Y-25340D01*
X6304Y-26570D02*
X6402D01*
X6353Y-26619D02*
Y-26521D01*
X5713Y596D02*
X5812D01*
X5763Y546D02*
Y645D01*
X5123Y-586D02*
X5221D01*
X5172Y-635D02*
Y-536D01*
X5713Y-1767D02*
X5812D01*
X5763Y-1816D02*
Y-1717D01*
X5713Y-4129D02*
X5812D01*
X5763Y-4178D02*
Y-4080D01*
X5123Y-5310D02*
X5221D01*
X5172Y-5359D02*
Y-5261D01*
X5713Y-20664D02*
X5812D01*
X5763Y-20714D02*
Y-20615D01*
X5123Y-21845D02*
X5221D01*
X5172Y-21895D02*
Y-21796D01*
X5713Y-23027D02*
X5812D01*
X5763Y-23076D02*
Y-22977D01*
X5713Y-25389D02*
X5812D01*
X5763Y-25438D02*
Y-25340D01*
X5123Y-26570D02*
X5221D01*
X5172Y-26619D02*
Y-26521D01*
X4532Y596D02*
X4631D01*
X4581Y546D02*
Y645D01*
X3942Y-586D02*
X4040D01*
X3991Y-635D02*
Y-536D01*
X4532Y-1767D02*
X4631D01*
X4581Y-1816D02*
Y-1717D01*
X3942Y-2948D02*
X4040D01*
X3991Y-2997D02*
Y-2899D01*
X3942Y-5310D02*
X4040D01*
X3991Y-5359D02*
Y-5261D01*
X4532Y-8853D02*
X4631D01*
X4581Y-8903D02*
Y-8804D01*
X3942Y-10034D02*
X4040D01*
X3991Y-10084D02*
Y-9985D01*
X3942Y-12397D02*
X4040D01*
X3991Y-12446D02*
Y-12347D01*
X3942Y-17121D02*
X4040D01*
X3991Y-17170D02*
Y-17072D01*
X4532Y-18302D02*
X4631D01*
X4581Y-18351D02*
Y-18253D01*
X3942Y-21845D02*
X4040D01*
X3991Y-21895D02*
Y-21796D01*
X4532Y-23027D02*
X4631D01*
X4581Y-23076D02*
Y-22977D01*
X3942Y-26570D02*
X4040D01*
X3991Y-26619D02*
Y-26521D01*
X3351Y596D02*
X3450D01*
X3400Y546D02*
Y645D01*
X2761Y-586D02*
X2859D01*
X2810Y-635D02*
Y-536D01*
X3351Y-1767D02*
X3450D01*
X3400Y-1816D02*
Y-1717D01*
X2761Y-2948D02*
X2859D01*
X2810Y-2997D02*
Y-2899D01*
X3351Y-4129D02*
X3450D01*
X3400Y-4178D02*
Y-4080D01*
X3351Y-8853D02*
X3450D01*
X3400Y-8903D02*
Y-8804D01*
X2761Y-17121D02*
X2859D01*
X2810Y-17170D02*
Y-17072D01*
X3351Y-18302D02*
X3450D01*
X3400Y-18351D02*
Y-18253D01*
X2761Y-19483D02*
X2859D01*
X2810Y-19532D02*
Y-19434D01*
X3351Y-23027D02*
X3450D01*
X3400Y-23076D02*
Y-22977D01*
X3351Y-25389D02*
X3450D01*
X3400Y-25438D02*
Y-25340D01*
X2761Y-26570D02*
X2859D01*
X2810Y-26619D02*
Y-26521D01*
X2170Y596D02*
X2268D01*
X2219Y546D02*
Y645D01*
X1579Y-586D02*
X1678D01*
X1629Y-635D02*
Y-536D01*
X2170Y-1767D02*
X2268D01*
X2219Y-1816D02*
Y-1717D01*
X1579Y-2948D02*
X1678D01*
X1629Y-2997D02*
Y-2899D01*
X2170Y-4129D02*
X2268D01*
X2219Y-4178D02*
Y-4080D01*
X1579Y-5310D02*
X1678D01*
X1629Y-5359D02*
Y-5261D01*
X1579Y-17121D02*
X1678D01*
X1629Y-17170D02*
Y-17072D01*
X2170Y-18302D02*
X2268D01*
X2219Y-18351D02*
Y-18253D01*
X1579Y-21845D02*
X1678D01*
X1629Y-21895D02*
Y-21796D01*
X2170Y-23027D02*
X2268D01*
X2219Y-23076D02*
Y-22977D01*
X2170Y-25389D02*
X2268D01*
X2219Y-25438D02*
Y-25340D01*
X1579Y-26570D02*
X1678D01*
X1629Y-26619D02*
Y-26521D01*
X989Y-1767D02*
X1087D01*
X1038Y-1816D02*
Y-1717D01*
X398Y-2948D02*
X497D01*
X448Y-2997D02*
Y-2899D01*
X989Y-4129D02*
X1087D01*
X1038Y-4178D02*
Y-4080D01*
X989Y-6491D02*
X1087D01*
X1038Y-6540D02*
Y-6442D01*
X989Y-18302D02*
X1087D01*
X1038Y-18351D02*
Y-18253D01*
X989Y-20664D02*
X1087D01*
X1038Y-20714D02*
Y-20615D01*
X-192Y-1767D02*
X-94D01*
X-143Y-1816D02*
Y-1717D01*
X-192Y-4129D02*
X-94D01*
X-143Y-4178D02*
Y-4080D01*
X-783Y-5310D02*
X-684D01*
X-734Y-5359D02*
Y-5261D01*
X-192Y-11215D02*
X-94D01*
X-143Y-11265D02*
Y-11166D01*
X-192Y-15940D02*
X-94D01*
X-143Y-15989D02*
Y-15891D01*
X-783Y-19483D02*
X-684D01*
X-734Y-19532D02*
Y-19434D01*
X-783Y-21845D02*
X-684D01*
X-734Y-21895D02*
Y-21796D01*
X-783Y-24208D02*
X-684D01*
X-734Y-24257D02*
Y-24158D01*
X-679Y-16968D02*
X-581D01*
X-630Y-17018D02*
Y-16919D01*
X9085Y-5866D02*
X9183D01*
X9134Y-5915D02*
Y-5817D01*
X7431Y-13858D02*
X7530D01*
X7480Y-13907D02*
Y-13809D01*
X6171Y-9094D02*
X6270D01*
X6220Y-9144D02*
Y-9045D01*
X5541Y-9606D02*
X5640D01*
X5591Y-9656D02*
Y-9557D01*
X5502Y-15827D02*
X5600D01*
X5551Y-15876D02*
Y-15778D01*
X7510Y-15866D02*
X7608D01*
X7559Y-15915D02*
Y-15817D01*
X8652Y-8937D02*
X8750D01*
X8701Y-8986D02*
Y-8888D01*
X9037Y-11417D02*
X9135D01*
X9086Y-11467D02*
Y-11368D01*
X8848Y-15748D02*
X8947D01*
X8898Y-15797D02*
Y-15699D01*
X8660Y-13583D02*
X8758D01*
X8709Y-13632D02*
Y-13533D01*
X8494Y-6299D02*
X8593D01*
X8543Y-6348D02*
Y-6250D01*
X8376Y-9921D02*
X8474D01*
X8425Y-9970D02*
Y-9872D01*
X4439Y-22402D02*
X4537D01*
X4488Y-22451D02*
Y-22352D01*
X7510Y-23150D02*
X7608D01*
X7559Y-23199D02*
Y-23100D01*
X7746Y-22402D02*
X7844D01*
X7795Y-22451D02*
Y-22352D01*
X19951Y-21339D02*
X20049D01*
X20000Y-21388D02*
Y-21289D01*
X19636Y-22244D02*
X19734D01*
X19685Y-22293D02*
Y-22195D01*
X19203Y-20591D02*
X19301D01*
X19252Y-20640D02*
Y-20541D01*
X17746Y-20551D02*
X17844D01*
X17795Y-20600D02*
Y-20502D01*
X18376Y-22283D02*
X18474D01*
X18425Y-22333D02*
Y-22234D01*
X16526Y-22402D02*
X16624D01*
X16575Y-22451D02*
Y-22352D01*
X14911Y-22441D02*
X15010D01*
X14961Y-22490D02*
Y-22392D01*
X5620Y-4567D02*
X5719D01*
X5669Y-4616D02*
Y-4518D01*
X4911Y-2992D02*
X5010D01*
X4961Y-3041D02*
Y-2943D01*
X1880Y-5315D02*
X1978D01*
X1929Y-5364D02*
Y-5266D01*
X3415Y-3858D02*
X3514D01*
X3465Y-3907D02*
Y-3809D01*
X1841Y-2677D02*
X1939D01*
X1890Y-2726D02*
Y-2628D01*
X1526Y-3858D02*
X1624D01*
X1575Y-3907D02*
Y-3809D01*
X-89Y-3819D02*
X10D01*
X-39Y-3868D02*
Y-3770D01*
X-1348Y906D02*
X-1250D01*
X-1299Y856D02*
Y955D01*
X8967Y1378D02*
X9065D01*
X9016Y1329D02*
Y1427D01*
X8337Y1378D02*
X8435D01*
X8386Y1329D02*
Y1427D01*
X5187Y1378D02*
X5285D01*
X5236Y1329D02*
Y1427D01*
X5817Y1378D02*
X5915D01*
X5866Y1329D02*
Y1427D01*
X6447Y1378D02*
X6545D01*
X6496Y1329D02*
Y1427D01*
X7077Y1378D02*
X7175D01*
X7126Y1329D02*
Y1427D01*
X7707Y1378D02*
X7805D01*
X7756Y1329D02*
Y1427D01*
X2037Y1378D02*
X2136D01*
X2087Y1329D02*
Y1427D01*
X2667Y1378D02*
X2766D01*
X2717Y1329D02*
Y1427D01*
X3297Y1378D02*
X3396D01*
X3346Y1329D02*
Y1427D01*
X3927Y1378D02*
X4026D01*
X3976Y1329D02*
Y1427D01*
X4557Y1378D02*
X4656D01*
X4606Y1329D02*
Y1427D01*
X-1112Y1378D02*
X-1014D01*
X-1063Y1329D02*
Y1427D01*
X-482Y1378D02*
X-384D01*
X-433Y1329D02*
Y1427D01*
X148Y1378D02*
X246D01*
X197Y1329D02*
Y1427D01*
X778Y1378D02*
X876D01*
X827Y1329D02*
Y1427D01*
X1407Y1378D02*
X1506D01*
X1457Y1329D02*
Y1427D01*
X19675Y1378D02*
X19774D01*
X19724Y1329D02*
Y1427D01*
X19045Y1378D02*
X19144D01*
X19094Y1329D02*
Y1427D01*
X15896Y1378D02*
X15994D01*
X15945Y1329D02*
Y1427D01*
X16526Y1378D02*
X16624D01*
X16575Y1329D02*
Y1427D01*
X17156Y1378D02*
X17254D01*
X17205Y1329D02*
Y1427D01*
X17785Y1378D02*
X17884D01*
X17835Y1329D02*
Y1427D01*
X18415Y1378D02*
X18514D01*
X18465Y1329D02*
Y1427D01*
X12746Y1378D02*
X12844D01*
X12795Y1329D02*
Y1427D01*
X13376Y1378D02*
X13474D01*
X13425Y1329D02*
Y1427D01*
X14006Y1378D02*
X14104D01*
X14055Y1329D02*
Y1427D01*
X14636Y1378D02*
X14734D01*
X14685Y1329D02*
Y1427D01*
X15266Y1378D02*
X15364D01*
X15315Y1329D02*
Y1427D01*
X9596Y1378D02*
X9695D01*
X9646Y1329D02*
Y1427D01*
X10226Y1378D02*
X10325D01*
X10276Y1329D02*
Y1427D01*
X10856Y1378D02*
X10955D01*
X10906Y1329D02*
Y1427D01*
X11486Y1378D02*
X11585D01*
X11535Y1329D02*
Y1427D01*
X12116Y1378D02*
X12215D01*
X12165Y1329D02*
Y1427D01*
X20305Y1378D02*
X20404D01*
X20354Y1329D02*
Y1427D01*
X20935Y905D02*
X21033D01*
X20984Y856D02*
Y955D01*
X20856Y1378D02*
X20955D01*
X20906Y1329D02*
Y1427D01*
X20974Y394D02*
X21073D01*
X21024Y344D02*
Y443D01*
X20974Y-433D02*
X21073D01*
X21024Y-482D02*
Y-384D01*
X20935Y-4764D02*
X21033D01*
X20984Y-4813D02*
Y-4715D01*
X20935Y-4134D02*
X21033D01*
X20984Y-4183D02*
Y-4085D01*
X20935Y-3504D02*
X21033D01*
X20984Y-3553D02*
Y-3455D01*
X20935Y-2874D02*
X21033D01*
X20984Y-2923D02*
Y-2825D01*
X20935Y-2244D02*
X21033D01*
X20984Y-2293D02*
Y-2195D01*
X20935Y-984D02*
X21033D01*
X20984Y-1033D02*
Y-935D01*
X20935Y-1614D02*
X21033D01*
X20984Y-1663D02*
Y-1565D01*
X20935Y-7283D02*
X21033D01*
X20984Y-7333D02*
Y-7234D01*
X20935Y-6654D02*
X21033D01*
X20984Y-6703D02*
Y-6604D01*
X20935Y-5394D02*
X21033D01*
X20984Y-5443D02*
Y-5344D01*
X20935Y-6024D02*
X21033D01*
X20984Y-6073D02*
Y-5974D01*
X20935Y-17992D02*
X21033D01*
X20984Y-18041D02*
Y-17943D01*
X20935Y-17362D02*
X21033D01*
X20984Y-17411D02*
Y-17313D01*
X20935Y-16732D02*
X21033D01*
X20984Y-16782D02*
Y-16683D01*
X20935Y-16102D02*
X21033D01*
X20984Y-16152D02*
Y-16053D01*
X20935Y-15472D02*
X21033D01*
X20984Y-15522D02*
Y-15423D01*
X20935Y-14843D02*
X21033D01*
X20984Y-14892D02*
Y-14793D01*
X20935Y-22402D02*
X21033D01*
X20984Y-22451D02*
Y-22352D01*
X20935Y-21772D02*
X21033D01*
X20984Y-21821D02*
Y-21722D01*
X20935Y-21142D02*
X21033D01*
X20984Y-21191D02*
Y-21093D01*
X20935Y-20512D02*
X21033D01*
X20984Y-20561D02*
Y-20463D01*
X20935Y-19882D02*
X21033D01*
X20984Y-19931D02*
Y-19833D01*
X20935Y-18622D02*
X21033D01*
X20984Y-18671D02*
Y-18573D01*
X20935Y-19252D02*
X21033D01*
X20984Y-19301D02*
Y-19203D01*
X-1388Y-3504D02*
X-1289D01*
X-1339Y-3553D02*
Y-3455D01*
X-1388Y-2874D02*
X-1289D01*
X-1339Y-2923D02*
Y-2825D01*
X-1388Y-2244D02*
X-1289D01*
X-1339Y-2293D02*
Y-2195D01*
X-1388Y-1614D02*
X-1289D01*
X-1339Y-1663D02*
Y-1565D01*
X-1388Y-984D02*
X-1289D01*
X-1339Y-1033D02*
Y-935D01*
X-1388Y276D02*
X-1289D01*
X-1339Y226D02*
Y325D01*
X-1388Y-354D02*
X-1289D01*
X-1339Y-404D02*
Y-305D01*
X-1388Y-7913D02*
X-1289D01*
X-1339Y-7963D02*
Y-7864D01*
X-1388Y-7283D02*
X-1289D01*
X-1339Y-7333D02*
Y-7234D01*
X-1388Y-6654D02*
X-1289D01*
X-1339Y-6703D02*
Y-6604D01*
X-1388Y-6024D02*
X-1289D01*
X-1339Y-6073D02*
Y-5974D01*
X-1388Y-5394D02*
X-1289D01*
X-1339Y-5443D02*
Y-5344D01*
X-1388Y-4134D02*
X-1289D01*
X-1339Y-4183D02*
Y-4085D01*
X-1388Y-4764D02*
X-1289D01*
X-1339Y-4813D02*
Y-4715D01*
X-1388Y-12323D02*
X-1289D01*
X-1339Y-12372D02*
Y-12274D01*
X-1388Y-11693D02*
X-1289D01*
X-1339Y-11742D02*
Y-11644D01*
X-1388Y-11063D02*
X-1289D01*
X-1339Y-11112D02*
Y-11014D01*
X-1388Y-10433D02*
X-1289D01*
X-1339Y-10482D02*
Y-10384D01*
X-1388Y-9803D02*
X-1289D01*
X-1339Y-9852D02*
Y-9754D01*
X-1388Y-8543D02*
X-1289D01*
X-1339Y-8593D02*
Y-8494D01*
X-1388Y-9173D02*
X-1289D01*
X-1339Y-9222D02*
Y-9124D01*
X-1388Y-16732D02*
X-1289D01*
X-1339Y-16782D02*
Y-16683D01*
X-1388Y-16102D02*
X-1289D01*
X-1339Y-16152D02*
Y-16053D01*
X-1388Y-15472D02*
X-1289D01*
X-1339Y-15522D02*
Y-15423D01*
X-1388Y-14843D02*
X-1289D01*
X-1339Y-14892D02*
Y-14793D01*
X-1388Y-14213D02*
X-1289D01*
X-1339Y-14262D02*
Y-14163D01*
X-1388Y-12953D02*
X-1289D01*
X-1339Y-13002D02*
Y-12904D01*
X-1388Y-13583D02*
X-1289D01*
X-1339Y-13632D02*
Y-13533D01*
X-1388Y-21142D02*
X-1289D01*
X-1339Y-21191D02*
Y-21093D01*
X-1388Y-20512D02*
X-1289D01*
X-1339Y-20561D02*
Y-20463D01*
X-1388Y-19882D02*
X-1289D01*
X-1339Y-19931D02*
Y-19833D01*
X-1388Y-19252D02*
X-1289D01*
X-1339Y-19301D02*
Y-19203D01*
X-1388Y-18622D02*
X-1289D01*
X-1339Y-18671D02*
Y-18573D01*
X-1388Y-17362D02*
X-1289D01*
X-1339Y-17411D02*
Y-17313D01*
X-1388Y-17992D02*
X-1289D01*
X-1339Y-18041D02*
Y-17943D01*
X-1388Y-25551D02*
X-1289D01*
X-1339Y-25600D02*
Y-25502D01*
X-1388Y-24921D02*
X-1289D01*
X-1339Y-24970D02*
Y-24872D01*
X-1388Y-24291D02*
X-1289D01*
X-1339Y-24341D02*
Y-24242D01*
X-1388Y-23661D02*
X-1289D01*
X-1339Y-23711D02*
Y-23612D01*
X-1388Y-23031D02*
X-1289D01*
X-1339Y-23081D02*
Y-22982D01*
X-1388Y-21772D02*
X-1289D01*
X-1339Y-21821D02*
Y-21722D01*
X-1388Y-22402D02*
X-1289D01*
X-1339Y-22451D02*
Y-22352D01*
X-1388Y-26181D02*
X-1289D01*
X-1339Y-26230D02*
Y-26132D01*
X-1270Y-26811D02*
X-1171D01*
X-1220Y-26860D02*
Y-26762D01*
X20738Y-26732D02*
X20837D01*
X20787Y-26781D02*
Y-26683D01*
X20935Y-24921D02*
X21033D01*
X20984Y-24970D02*
Y-24872D01*
X20935Y-24291D02*
X21033D01*
X20984Y-24341D02*
Y-24242D01*
X20935Y-23661D02*
X21033D01*
X20984Y-23711D02*
Y-23612D01*
X20935Y-23031D02*
X21033D01*
X20984Y-23081D02*
Y-22982D01*
X18770Y-26929D02*
X18868D01*
X18819Y-26978D02*
Y-26880D01*
X19400Y-26929D02*
X19498D01*
X19449Y-26978D02*
Y-26880D01*
X20030Y-26929D02*
X20128D01*
X20079Y-26978D02*
Y-26880D01*
X20935Y-26181D02*
X21033D01*
X20984Y-26230D02*
Y-26132D01*
X15620Y-26929D02*
X15718D01*
X15669Y-26978D02*
Y-26880D01*
X16250Y-26929D02*
X16348D01*
X16299Y-26978D02*
Y-26880D01*
X16880Y-26929D02*
X16978D01*
X16929Y-26978D02*
Y-26880D01*
X17510Y-26929D02*
X17608D01*
X17559Y-26978D02*
Y-26880D01*
X18140Y-26929D02*
X18238D01*
X18189Y-26978D02*
Y-26880D01*
X12470Y-26929D02*
X12569D01*
X12520Y-26978D02*
Y-26880D01*
X13100Y-26929D02*
X13199D01*
X13150Y-26978D02*
Y-26880D01*
X13730Y-26929D02*
X13829D01*
X13780Y-26978D02*
Y-26880D01*
X14360Y-26929D02*
X14459D01*
X14409Y-26978D02*
Y-26880D01*
X14990Y-26929D02*
X15089D01*
X15039Y-26978D02*
Y-26880D01*
X9321Y-26929D02*
X9419D01*
X9370Y-26978D02*
Y-26880D01*
X9951Y-26929D02*
X10049D01*
X10000Y-26978D02*
Y-26880D01*
X10581Y-26929D02*
X10679D01*
X10630Y-26978D02*
Y-26880D01*
X11211Y-26929D02*
X11309D01*
X11260Y-26978D02*
Y-26880D01*
X11841Y-26929D02*
X11939D01*
X11890Y-26978D02*
Y-26880D01*
X6171Y-26929D02*
X6270D01*
X6220Y-26978D02*
Y-26880D01*
X6801Y-26929D02*
X6900D01*
X6850Y-26978D02*
Y-26880D01*
X7431Y-26929D02*
X7530D01*
X7480Y-26978D02*
Y-26880D01*
X8061Y-26929D02*
X8159D01*
X8110Y-26978D02*
Y-26880D01*
X8691Y-26929D02*
X8789D01*
X8740Y-26978D02*
Y-26880D01*
X3022Y-26929D02*
X3120D01*
X3071Y-26978D02*
Y-26880D01*
X3652Y-26929D02*
X3750D01*
X3701Y-26978D02*
Y-26880D01*
X4281Y-26929D02*
X4380D01*
X4331Y-26978D02*
Y-26880D01*
X4911Y-26929D02*
X5010D01*
X4961Y-26978D02*
Y-26880D01*
X5541Y-26929D02*
X5640D01*
X5591Y-26978D02*
Y-26880D01*
X2392Y-26929D02*
X2490D01*
X2441Y-26978D02*
Y-26880D01*
X1762Y-26929D02*
X1860D01*
X1811Y-26978D02*
Y-26880D01*
X1132Y-26929D02*
X1230D01*
X1181Y-26978D02*
Y-26880D01*
X502Y-26929D02*
X600D01*
X551Y-26978D02*
Y-26880D01*
X-128Y-26929D02*
X-30D01*
X-79Y-26978D02*
Y-26880D01*
X-758Y-26929D02*
X-659D01*
X-709Y-26978D02*
Y-26880D01*
X2510Y-13937D02*
X2608D01*
X2559Y-13986D02*
Y-13888D01*
X3533Y-13032D02*
X3632D01*
X3583Y-13081D02*
Y-12982D01*
X3612Y-13898D02*
X3711D01*
X3661Y-13947D02*
Y-13848D01*
X16329Y-19921D02*
X16427D01*
X16378Y-19970D02*
Y-19872D01*
X15502Y-19843D02*
X15600D01*
X15551Y-19892D02*
Y-19793D01*
X11959Y-19882D02*
X12057D01*
X12008Y-19931D02*
Y-19833D01*
X10896Y-19843D02*
X10994D01*
X10945Y-19892D02*
Y-19793D01*
X13100Y-19843D02*
X13199D01*
X13150Y-19892D02*
Y-19793D01*
X12156Y-20827D02*
X12254D01*
X12205Y-20876D02*
Y-20778D01*
X11093Y-20787D02*
X11191D01*
X11142Y-20837D02*
Y-20738D01*
X9636Y-19882D02*
X9734D01*
X9685Y-19931D02*
Y-19833D01*
X10226Y-20315D02*
X10325D01*
X10276Y-20364D02*
Y-20266D01*
X10384Y-21142D02*
X10482D01*
X10433Y-21191D02*
Y-21093D01*
X10344Y-21772D02*
X10443D01*
X10394Y-21821D02*
Y-21722D01*
X9596Y-21811D02*
X9695D01*
X9646Y-21860D02*
Y-21762D01*
X3100Y-17598D02*
X3199D01*
X3150Y-17648D02*
Y-17549D01*
X3967Y-16181D02*
X4065D01*
X4016Y-16230D02*
Y-16132D01*
X4557Y-16575D02*
X4656D01*
X4606Y-16624D02*
Y-16526D01*
X5069Y-17323D02*
X5167D01*
X5118Y-17372D02*
Y-17274D01*
X4990Y-18150D02*
X5089D01*
X5039Y-18199D02*
Y-18100D01*
X5856Y-18701D02*
X5955D01*
X5906Y-18750D02*
Y-18652D01*
X6604Y-19016D02*
X6703D01*
X6654Y-19065D02*
Y-18967D01*
X7116Y-19528D02*
X7215D01*
X7165Y-19577D02*
Y-19478D01*
X6644Y-19921D02*
X6742D01*
X6693Y-19970D02*
Y-19872D01*
X5896Y-19528D02*
X5994D01*
X5945Y-19577D02*
Y-19478D01*
X5069Y-19449D02*
X5167D01*
X5118Y-19498D02*
Y-19400D01*
X4281Y-19134D02*
X4380D01*
X4331Y-19183D02*
Y-19085D01*
X3337Y-19252D02*
X3435D01*
X3386Y-19301D02*
Y-19203D01*
X3022Y-19961D02*
X3120D01*
X3071Y-20010D02*
Y-19911D01*
X3376Y-20866D02*
X3474D01*
X3425Y-20915D02*
Y-20817D01*
X4400Y-21024D02*
X4498D01*
X4449Y-21073D02*
Y-20974D01*
X5305Y-20630D02*
X5404D01*
X5354Y-20679D02*
Y-20581D01*
X5502Y-21181D02*
X5600D01*
X5551Y-21230D02*
Y-21132D01*
X7274Y-21339D02*
X7372D01*
X7323Y-21388D02*
Y-21289D01*
X8494Y-20394D02*
X8593D01*
X8543Y-20443D02*
Y-20344D01*
X6722Y-22953D02*
X6821D01*
X6772Y-23002D02*
Y-22904D01*
X9715Y-23150D02*
X9813D01*
X9764Y-23199D02*
Y-23100D01*
X8376Y-23622D02*
X8474D01*
X8425Y-23671D02*
Y-23573D01*
X4833Y-23661D02*
X4931D01*
X4882Y-23711D02*
Y-23612D01*
X3533Y-23661D02*
X3632D01*
X3583Y-23711D02*
Y-23612D01*
X2274Y-23583D02*
X2372D01*
X2323Y-23632D02*
Y-23533D01*
X1407Y-22835D02*
X1506D01*
X1457Y-22884D02*
Y-22785D01*
X817Y-22165D02*
X915D01*
X866Y-22215D02*
Y-22116D01*
X699Y-21181D02*
X797D01*
X748Y-21230D02*
Y-21132D01*
X620Y-20157D02*
X719D01*
X669Y-20207D02*
Y-20108D01*
X935Y-18898D02*
X1033D01*
X984Y-18947D02*
Y-18848D01*
X1329Y-17953D02*
X1427D01*
X1378Y-18002D02*
Y-17904D01*
X1329Y-17126D02*
X1427D01*
X1378Y-17175D02*
Y-17077D01*
X12982Y-22795D02*
X13081D01*
X13032Y-22844D02*
Y-22746D01*
X11998Y-23740D02*
X12096D01*
X12047Y-23789D02*
Y-23691D01*
X11093Y-24646D02*
X11191D01*
X11142Y-24695D02*
Y-24596D01*
X10187Y-25236D02*
X10285D01*
X10236Y-25285D02*
Y-25187D01*
X8809Y-25354D02*
X8907D01*
X8858Y-25404D02*
Y-25305D01*
X7510Y-25315D02*
X7608D01*
X7559Y-25364D02*
Y-25266D01*
X6093Y-25276D02*
X6191D01*
X6142Y-25325D02*
Y-25226D01*
X4518Y-25236D02*
X4616D01*
X4567Y-25285D02*
Y-25187D01*
X2825Y-25197D02*
X2923D01*
X2874Y-25246D02*
Y-25148D01*
X1407Y-25079D02*
X1506D01*
X1457Y-25128D02*
Y-25030D01*
X266Y-24016D02*
X364D01*
X315Y-24065D02*
Y-23967D01*
X-600Y-23307D02*
X-502D01*
X-551Y-23356D02*
Y-23258D01*
X-719Y-21575D02*
X-620D01*
X-669Y-21624D02*
Y-21526D01*
X-719Y-20315D02*
X-620D01*
X-669Y-20364D02*
Y-20266D01*
X-797Y-19016D02*
X-699D01*
X-748Y-19065D02*
Y-18967D01*
X-482Y-17795D02*
X-384D01*
X-433Y-17844D02*
Y-17746D01*
X-522Y-15827D02*
X-423D01*
X-472Y-15876D02*
Y-15778D01*
X1801Y-12638D02*
X1900D01*
X1850Y-12687D02*
Y-12589D01*
X2470Y-13189D02*
X2569D01*
X2520Y-13238D02*
Y-13140D01*
X4281Y-13150D02*
X4380D01*
X4331Y-13199D02*
Y-13100D01*
X16959Y-6181D02*
X17057D01*
X17008Y-6230D02*
Y-6132D01*
X17943Y-6260D02*
X18041D01*
X17992Y-6309D02*
Y-6211D01*
X10502Y-6339D02*
X10600D01*
X10551Y-6388D02*
Y-6289D01*
X8949Y58D02*
X9047D01*
X8998Y9D02*
Y107D01*
X4518Y-6378D02*
X4616D01*
X4567Y-6427D02*
Y-6329D01*
X12470Y-6299D02*
X12569D01*
X12520Y-6348D02*
Y-6250D01*
X2510Y-15787D02*
X2608D01*
X2559Y-15837D02*
Y-15738D01*
X7510Y-6339D02*
X7608D01*
X7559Y-6388D02*
Y-6289D01*
X9785Y-1508D02*
X9884D01*
X9835Y-1557D02*
Y-1458D01*
X5502Y-6339D02*
X5600D01*
X5551Y-6388D02*
Y-6289D01*
X13494Y-6299D02*
X13593D01*
X13543Y-6348D02*
Y-6250D01*
X3533Y-15827D02*
X3632D01*
X3583Y-15876D02*
Y-15778D01*
X9977Y-622D02*
X10075D01*
X10026Y-671D02*
Y-573D01*
X4478Y-15827D02*
X4577D01*
X4528Y-15876D02*
Y-15778D01*
X2589Y-5984D02*
X2687D01*
X2638Y-6033D02*
Y-5935D01*
X15502Y-15787D02*
X15600D01*
X15551Y-15837D02*
Y-15738D01*
X14518Y-6299D02*
X14616D01*
X14567Y-6348D02*
Y-6250D01*
X-246Y-12323D02*
X-148D01*
X-197Y-12372D02*
Y-12274D01*
X-246Y-10945D02*
X-148D01*
X-197Y-10994D02*
Y-10896D01*
X-246Y-9213D02*
X-148D01*
X-197Y-9262D02*
Y-9163D01*
X2982Y-6299D02*
X3081D01*
X3031Y-6348D02*
Y-6250D01*
X3888Y-6299D02*
X3986D01*
X3937Y-6348D02*
Y-6250D01*
X5148Y-5945D02*
X5246D01*
X5197Y-5994D02*
Y-5896D01*
X7313Y-5630D02*
X7411D01*
X7362Y-5679D02*
Y-5581D01*
X6171Y-5630D02*
X6270D01*
X6220Y-5679D02*
Y-5581D01*
X8258Y-5748D02*
X8356D01*
X8307Y-5797D02*
Y-5699D01*
X9951Y-5827D02*
X10049D01*
X10000Y-5876D02*
Y-5778D01*
X11486Y-5827D02*
X11585D01*
X11535Y-5876D02*
Y-5778D01*
X12904Y-5866D02*
X13002D01*
X12953Y-5915D02*
Y-5817D01*
X14006Y-5945D02*
X14104D01*
X14055Y-5994D02*
Y-5896D01*
X15817Y-8228D02*
X15915D01*
X15866Y-8278D02*
Y-8179D01*
X15423Y-8740D02*
X15522D01*
X15472Y-8789D02*
Y-8691D01*
X14833Y-8228D02*
X14931D01*
X14882Y-8278D02*
Y-8179D01*
X13809Y-8110D02*
X13907D01*
X13858Y-8159D02*
Y-8061D01*
X13022Y-8110D02*
X13120D01*
X13071Y-8159D02*
Y-8061D01*
X14124Y-8780D02*
X14222D01*
X14173Y-8829D02*
Y-8730D01*
X12785Y-8740D02*
X12884D01*
X12835Y-8789D02*
Y-8691D01*
X11880Y-8504D02*
X11978D01*
X11929Y-8553D02*
Y-8455D01*
X10974Y-8858D02*
X11073D01*
X11024Y-8907D02*
Y-8809D01*
X10423Y-8346D02*
X10522D01*
X10472Y-8396D02*
Y-8297D01*
X11132Y-8150D02*
X11230D01*
X11181Y-8199D02*
Y-8100D01*
X8061Y-8386D02*
X8159D01*
X8110Y-8435D02*
Y-8337D01*
X9872Y-8740D02*
X9970D01*
X9921Y-8789D02*
Y-8691D01*
X15778Y-12244D02*
X15876D01*
X15827Y-12293D02*
Y-12195D01*
X15817Y-13543D02*
X15915D01*
X15866Y-13593D02*
Y-13494D01*
X17864Y-16181D02*
X17963D01*
X17913Y-16230D02*
Y-16132D01*
X17077Y-17008D02*
X17175D01*
X17126Y-17057D02*
Y-16959D01*
X16250Y-17795D02*
X16348D01*
X16299Y-17844D02*
Y-17746D01*
X15502Y-18583D02*
X15600D01*
X15551Y-18632D02*
Y-18533D01*
X17037Y-16024D02*
X17136D01*
X17087Y-16073D02*
Y-15974D01*
X16211Y-16890D02*
X16309D01*
X16260Y-16939D02*
Y-16841D01*
X16093Y-16181D02*
X16191D01*
X16142Y-16230D02*
Y-16132D01*
X15463Y-16772D02*
X15561D01*
X15512Y-16821D02*
Y-16722D01*
X15344Y-17756D02*
X15443D01*
X15394Y-17805D02*
Y-17707D01*
X13415Y-18740D02*
X13514D01*
X13465Y-18789D02*
Y-18691D01*
X11880Y-18780D02*
X11978D01*
X11929Y-18829D02*
Y-18730D01*
X10541Y-18780D02*
X10640D01*
X10591Y-18829D02*
Y-18730D01*
X9321Y-18780D02*
X9419D01*
X9370Y-18829D02*
Y-18730D01*
X12667Y-19291D02*
X12766D01*
X12717Y-19341D02*
Y-19242D01*
X11250Y-19291D02*
X11348D01*
X11299Y-19341D02*
Y-19242D01*
X9872Y-19291D02*
X9970D01*
X9921Y-19341D02*
Y-19242D01*
X8770Y-19291D02*
X8868D01*
X8819Y-19341D02*
Y-19242D01*
X7628Y-18976D02*
X7726D01*
X7677Y-19026D02*
Y-18927D01*
X6919Y-17913D02*
X7018D01*
X6969Y-17963D02*
Y-17864D01*
X6053Y-17795D02*
X6152D01*
X6102Y-17844D02*
Y-17746D01*
X6683Y-16890D02*
X6781D01*
X6732Y-16939D02*
Y-16841D01*
X6014Y-16457D02*
X6112D01*
X6063Y-16506D02*
Y-16407D01*
X5108Y-15906D02*
X5207D01*
X5157Y-15955D02*
Y-15856D01*
X7982Y-17874D02*
X8081D01*
X8031Y-17923D02*
Y-17825D01*
X13415Y-16968D02*
X13514D01*
X13465Y-17018D02*
Y-16919D01*
X12470Y-17835D02*
X12569D01*
X12520Y-17884D02*
Y-17785D01*
X10699Y-17913D02*
X10797D01*
X10748Y-17963D02*
Y-17864D01*
X9242Y-17953D02*
X9341D01*
X9291Y-18002D02*
Y-17904D01*
X11250Y-16890D02*
X11348D01*
X11299Y-16939D02*
Y-16841D01*
X12549Y-16142D02*
X12648D01*
X12598Y-16191D02*
Y-16093D01*
X9872Y-15945D02*
X9970D01*
X9921Y-15994D02*
Y-15896D01*
X8967Y-16535D02*
X9065D01*
X9016Y-16585D02*
Y-16486D01*
X10502Y-16496D02*
X10600D01*
X10551Y-16545D02*
Y-16447D01*
X10581Y-10197D02*
X10679D01*
X10630Y-10246D02*
Y-10148D01*
X10974Y-10669D02*
X11073D01*
X11024Y-10718D02*
Y-10620D01*
X11211Y-11693D02*
X11309D01*
X11260Y-11742D02*
Y-11644D01*
X11211Y-12165D02*
X11309D01*
X11260Y-12215D02*
Y-12116D01*
X11211Y-12677D02*
X11309D01*
X11260Y-12726D02*
Y-12628D01*
X10817Y-13937D02*
X10915D01*
X10866Y-13986D02*
Y-13888D01*
X7077Y-13937D02*
X7175D01*
X7126Y-13986D02*
Y-13888D01*
X7470Y-12953D02*
X7569D01*
X7520Y-13002D02*
Y-12904D01*
X8258Y-12008D02*
X8356D01*
X8307Y-12057D02*
Y-11959D01*
X9124Y-12441D02*
X9222D01*
X9173Y-12490D02*
Y-12392D01*
X8179Y-10945D02*
X8278D01*
X8228Y-10994D02*
Y-10896D01*
X9163Y-10394D02*
X9262D01*
X9213Y-10443D02*
Y-10344D01*
X6722Y-9921D02*
X6821D01*
X6772Y-9970D02*
Y-9872D01*
X6565Y-10787D02*
X6663D01*
X6614Y-10837D02*
Y-10738D01*
X4715Y-8465D02*
X4813D01*
X4764Y-8514D02*
Y-8415D01*
X3494Y-8346D02*
X3593D01*
X3543Y-8396D02*
Y-8297D01*
X2077Y-8228D02*
X2175D01*
X2126Y-8278D02*
Y-8179D01*
X3337Y-9252D02*
X3435D01*
X3386Y-9301D02*
Y-9203D01*
X3573Y-10118D02*
X3671D01*
X3622Y-10167D02*
Y-10069D01*
X3888Y-10984D02*
X3986D01*
X3937Y-11033D02*
Y-10935D01*
X4321Y-11417D02*
X4419D01*
X4370Y-11467D02*
Y-11368D01*
X3730Y-11929D02*
X3829D01*
X3780Y-11978D02*
Y-11880D01*
X4281Y-12677D02*
X4380D01*
X4331Y-12726D02*
Y-12628D01*
X4439Y-13976D02*
X4537D01*
X4488Y-14026D02*
Y-13927D01*
X3022Y-16142D02*
X3120D01*
X3071Y-16191D02*
Y-16093D01*
X1959Y-16024D02*
X2057D01*
X2008Y-16073D02*
Y-15974D01*
X2982Y-13937D02*
X3081D01*
X3031Y-13986D02*
Y-13888D01*
X1368Y-13268D02*
X1467D01*
X1417Y-13317D02*
Y-13219D01*
X-192Y-13972D02*
X-93D01*
X-142Y-14021D02*
Y-13922D01*
X1191Y-12359D02*
X1289D01*
X1240Y-12408D02*
Y-12310D01*
X1659Y-11884D02*
X1757D01*
X1708Y-11933D02*
Y-11835D01*
X1329Y-10591D02*
X1427D01*
X1378Y-10640D02*
Y-10541D01*
X1329Y-9724D02*
X1427D01*
X1378Y-9774D02*
Y-9675D01*
X1644Y-11299D02*
X1742D01*
X1693Y-11348D02*
Y-11250D01*
X2156Y-10866D02*
X2254D01*
X2205Y-10915D02*
Y-10817D01*
X2156Y-10394D02*
X2254D01*
X2205Y-10443D02*
Y-10344D01*
X9675Y1063D02*
X9774D01*
X9724Y1014D02*
Y1112D01*
X9203Y-24685D02*
X9301D01*
X9252Y-24734D02*
Y-24636D01*
X8927Y-24685D02*
X9026D01*
X8976Y-24734D02*
Y-24636D01*
X8652Y-24646D02*
X8750D01*
X8701Y-24695D02*
Y-24596D01*
X13848Y-9567D02*
X13947D01*
X13898Y-9616D02*
Y-9518D01*
X12628Y-10000D02*
X12726D01*
X12677Y-10049D02*
Y-9951D01*
X13573Y-13268D02*
X13671D01*
X13622Y-13317D02*
Y-13219D01*
X13888Y-12480D02*
X13986D01*
X13937Y-12530D02*
Y-12431D01*
X12234Y-12953D02*
X12333D01*
X12283Y-13002D02*
Y-12904D01*
X12234Y-10197D02*
X12333D01*
X12283Y-10246D02*
Y-10148D01*
X5148Y-10276D02*
X5246D01*
X5197Y-10325D02*
Y-10226D01*
X2195Y-9685D02*
X2293D01*
X2244Y-9734D02*
Y-9636D01*
X2825Y-9567D02*
X2923D01*
X2874Y-9616D02*
Y-9518D01*
X16526Y-15709D02*
X16624D01*
X16575Y-15758D02*
Y-15659D01*
X14518Y-13701D02*
X14616D01*
X14567Y-13750D02*
Y-13652D01*
X14518Y-13937D02*
X14616D01*
X14567Y-13986D02*
Y-13888D01*
X11447Y-11220D02*
X11545D01*
X11496Y-11270D02*
Y-11171D01*
X11460Y-12966D02*
X11558D01*
X11509Y-13015D02*
Y-12917D01*
X10620Y-12402D02*
X10718D01*
X10669Y-12451D02*
Y-12352D01*
X10974Y-13425D02*
X11073D01*
X11024Y-13474D02*
Y-13376D01*
X10620Y-10906D02*
X10718D01*
X10669Y-10955D02*
Y-10856D01*
X1368Y-16457D02*
X1467D01*
X1417Y-16506D02*
Y-16407D01*
X11526Y-10787D02*
X11624D01*
X11575Y-10837D02*
Y-10738D01*
X10337Y67D02*
X10435D01*
X10386Y18D02*
Y116D01*
X16526Y-6417D02*
X16624D01*
X16575Y-6467D02*
Y-6368D01*
X10809Y-1114D02*
X10908D01*
X10858Y-1163D02*
Y-1065D01*
X8526Y776D02*
X8624D01*
X8575Y727D02*
Y825D01*
X6754Y-956D02*
X6852D01*
X6803Y-1006D02*
Y-907D01*
X9274Y-1586D02*
X9372D01*
X9323Y-1636D02*
Y-1537D01*
X8093Y-1468D02*
X8191D01*
X8142Y-1517D02*
Y-1419D01*
X11526Y-6417D02*
X11624D01*
X11575Y-6467D02*
Y-6368D01*
X18612Y-16063D02*
X18711D01*
X18661Y-16112D02*
Y-16014D01*
X9833Y-13937D02*
X9931D01*
X9882Y-13986D02*
Y-13888D01*
X11526Y-14047D02*
X11624D01*
X11575Y-14096D02*
Y-13998D01*
X11526Y-15780D02*
X11624D01*
X11575Y-15829D02*
Y-15730D01*
X6526Y-6417D02*
X6624D01*
X6575Y-6467D02*
Y-6368D01*
X6526Y-8228D02*
X6624D01*
X6575Y-8278D02*
Y-8179D01*
X3652Y-4764D02*
X3750D01*
X3701Y-4813D02*
Y-4715D01*
X1526Y-6417D02*
X1624D01*
X1575Y-6467D02*
Y-6368D01*
X1526Y-8150D02*
X1624D01*
X1575Y-8199D02*
Y-8100D01*
X6526Y-15780D02*
X6624D01*
X6575Y-15829D02*
Y-15730D01*
X6080Y-23406D02*
X6179D01*
X6129Y-23455D02*
Y-23356D01*
X4990Y-13819D02*
X5089D01*
X5039Y-13868D02*
Y-13770D01*
X1526Y-14047D02*
X1624D01*
X1575Y-14096D02*
Y-13998D01*
X-482Y-13110D02*
X-384D01*
X-433Y-13159D02*
Y-13061D01*
X1526Y-15780D02*
X1624D01*
X1575Y-15829D02*
Y-15730D01*
X-1230Y-15748D02*
X-1132D01*
X-1181Y-15797D02*
Y-15699D01*
X9163Y-24370D02*
X9262D01*
X9213Y-24419D02*
Y-24321D01*
X8652Y-24370D02*
X8750D01*
X8701Y-24419D02*
Y-24321D01*
X8927Y-24370D02*
X9026D01*
X8976Y-24419D02*
Y-24321D01*
X7825Y-20472D02*
X7923D01*
X7874Y-20522D02*
Y-20423D01*
X7825Y-20726D02*
X7923D01*
X7874Y-20776D02*
Y-20677D01*
X7825Y-21339D02*
X7923D01*
X7874Y-21388D02*
Y-21289D01*
X6346Y-22283D02*
X6444D01*
X6395Y-22333D02*
Y-22234D01*
X6090Y-22283D02*
X6188D01*
X6139Y-22333D02*
Y-22234D01*
X5856Y-22283D02*
X5955D01*
X5906Y-22333D02*
Y-22234D01*
X502Y-8780D02*
X600D01*
X551Y-8829D02*
Y-8730D01*
X502Y-9033D02*
X600D01*
X551Y-9083D02*
Y-8984D01*
M02*
