G04*
G04 #@! TF.GenerationSoftware,Altium Limited,Altium Designer,25.8.1 (18)*
G04*
G04 Layer_Color=15441517*
%FSLAX24Y24*%
%MOIN*%
G70*
G04*
G04 #@! TF.SameCoordinates,E7C4B6EF-679D-40F3-B346-0123BADFF20E*
G04*
G04*
G04 #@! TF.FilePolarity,Positive*
G04*
G01*
G75*
%ADD12C,0.0079*%
%ADD13C,0.0100*%
%ADD17C,0.0039*%
%ADD57C,0.0020*%
G36*
X29324Y20870D02*
X29273D01*
Y21051D01*
X29074D01*
Y20870D01*
X29023D01*
Y21254D01*
X29074D01*
Y21096D01*
X29273D01*
Y21254D01*
X29324D01*
Y20870D01*
D02*
G37*
G36*
X29526Y21255D02*
X29531Y21255D01*
X29536Y21254D01*
X29542Y21253D01*
X29549Y21252D01*
X29563Y21248D01*
X29570Y21246D01*
X29577Y21243D01*
X29585Y21239D01*
X29592Y21235D01*
X29598Y21230D01*
X29605Y21225D01*
X29605Y21224D01*
X29606Y21223D01*
X29608Y21222D01*
X29610Y21219D01*
X29612Y21216D01*
X29615Y21213D01*
X29618Y21209D01*
X29621Y21204D01*
X29624Y21199D01*
X29627Y21193D01*
X29632Y21180D01*
X29634Y21173D01*
X29636Y21165D01*
X29637Y21157D01*
X29637Y21149D01*
Y21148D01*
Y21145D01*
X29637Y21140D01*
X29636Y21134D01*
X29635Y21128D01*
X29633Y21120D01*
X29631Y21112D01*
X29628Y21103D01*
X29627Y21102D01*
X29626Y21099D01*
X29624Y21095D01*
X29620Y21089D01*
X29616Y21082D01*
X29610Y21074D01*
X29604Y21065D01*
X29596Y21056D01*
Y21056D01*
X29595Y21055D01*
X29594Y21054D01*
X29592Y21052D01*
X29590Y21049D01*
X29587Y21046D01*
X29583Y21043D01*
X29579Y21039D01*
X29574Y21034D01*
X29569Y21029D01*
X29563Y21023D01*
X29556Y21017D01*
X29549Y21011D01*
X29541Y21004D01*
X29532Y20997D01*
X29523Y20989D01*
X29523Y20988D01*
X29521Y20987D01*
X29519Y20985D01*
X29516Y20983D01*
X29513Y20980D01*
X29509Y20977D01*
X29501Y20969D01*
X29491Y20961D01*
X29482Y20953D01*
X29478Y20950D01*
X29475Y20946D01*
X29471Y20943D01*
X29469Y20940D01*
X29468Y20940D01*
X29467Y20938D01*
X29465Y20936D01*
X29462Y20932D01*
X29459Y20929D01*
X29455Y20924D01*
X29449Y20915D01*
X29638D01*
Y20870D01*
X29383D01*
Y20871D01*
Y20873D01*
Y20876D01*
X29384Y20880D01*
X29384Y20885D01*
X29385Y20891D01*
X29387Y20896D01*
X29389Y20902D01*
Y20903D01*
X29389Y20903D01*
X29390Y20905D01*
X29391Y20907D01*
X29393Y20912D01*
X29396Y20918D01*
X29401Y20926D01*
X29406Y20935D01*
X29412Y20944D01*
X29420Y20953D01*
X29420Y20954D01*
X29421Y20954D01*
X29422Y20956D01*
X29424Y20958D01*
X29429Y20963D01*
X29436Y20970D01*
X29444Y20979D01*
X29455Y20989D01*
X29467Y21000D01*
X29482Y21012D01*
X29482Y21012D01*
X29484Y21014D01*
X29488Y21017D01*
X29492Y21020D01*
X29497Y21025D01*
X29503Y21030D01*
X29509Y21035D01*
X29516Y21041D01*
X29530Y21054D01*
X29544Y21068D01*
X29550Y21075D01*
X29556Y21081D01*
X29562Y21087D01*
X29566Y21093D01*
X29567Y21094D01*
X29567Y21095D01*
X29568Y21096D01*
X29570Y21098D01*
X29571Y21101D01*
X29573Y21104D01*
X29578Y21112D01*
X29582Y21120D01*
X29585Y21130D01*
X29588Y21140D01*
X29589Y21145D01*
Y21150D01*
Y21151D01*
Y21152D01*
Y21153D01*
X29588Y21155D01*
X29588Y21160D01*
X29586Y21167D01*
X29584Y21174D01*
X29580Y21182D01*
X29575Y21190D01*
X29568Y21197D01*
X29567Y21198D01*
X29565Y21200D01*
X29560Y21203D01*
X29554Y21207D01*
X29547Y21211D01*
X29538Y21214D01*
X29527Y21216D01*
X29516Y21217D01*
X29512D01*
X29510Y21216D01*
X29507D01*
X29504Y21216D01*
X29496Y21214D01*
X29488Y21212D01*
X29478Y21208D01*
X29469Y21203D01*
X29461Y21196D01*
X29460Y21195D01*
X29458Y21193D01*
X29455Y21188D01*
X29451Y21182D01*
X29447Y21173D01*
X29444Y21164D01*
X29442Y21153D01*
X29441Y21140D01*
X29392Y21145D01*
Y21145D01*
X29393Y21147D01*
Y21150D01*
X29393Y21154D01*
X29394Y21158D01*
X29395Y21163D01*
X29397Y21169D01*
X29399Y21175D01*
X29403Y21189D01*
X29406Y21196D01*
X29410Y21202D01*
X29414Y21209D01*
X29418Y21216D01*
X29423Y21222D01*
X29429Y21227D01*
X29430Y21228D01*
X29431Y21228D01*
X29433Y21230D01*
X29435Y21232D01*
X29439Y21234D01*
X29443Y21236D01*
X29447Y21239D01*
X29453Y21242D01*
X29459Y21244D01*
X29465Y21247D01*
X29472Y21249D01*
X29480Y21251D01*
X29488Y21253D01*
X29497Y21255D01*
X29507Y21255D01*
X29517Y21256D01*
X29522D01*
X29526Y21255D01*
D02*
G37*
G36*
X22432Y356D02*
X22437Y355D01*
X22443Y355D01*
X22450Y354D01*
X22457Y353D01*
X22472Y349D01*
X22480Y347D01*
X22488Y344D01*
X22496Y340D01*
X22504Y337D01*
X22512Y332D01*
X22520Y327D01*
X22520Y326D01*
X22521Y325D01*
X22524Y324D01*
X22526Y321D01*
X22529Y318D01*
X22533Y315D01*
X22537Y310D01*
X22542Y305D01*
X22546Y300D01*
X22551Y294D01*
X22555Y287D01*
X22560Y280D01*
X22564Y272D01*
X22568Y263D01*
X22572Y254D01*
X22575Y244D01*
X22525Y232D01*
Y233D01*
X22525Y234D01*
X22524Y236D01*
X22523Y239D01*
X22521Y243D01*
X22520Y247D01*
X22515Y256D01*
X22510Y266D01*
X22503Y276D01*
X22495Y285D01*
X22491Y289D01*
X22486Y293D01*
X22486D01*
X22485Y294D01*
X22484Y295D01*
X22482Y296D01*
X22479Y298D01*
X22476Y299D01*
X22469Y303D01*
X22459Y307D01*
X22448Y310D01*
X22436Y312D01*
X22422Y313D01*
X22417D01*
X22414Y312D01*
X22411D01*
X22406Y312D01*
X22401Y311D01*
X22396Y310D01*
X22384Y308D01*
X22372Y304D01*
X22359Y298D01*
X22353Y295D01*
X22347Y291D01*
X22347D01*
X22346Y290D01*
X22344Y289D01*
X22342Y287D01*
X22337Y283D01*
X22331Y276D01*
X22324Y268D01*
X22317Y258D01*
X22311Y247D01*
X22306Y234D01*
Y234D01*
X22305Y233D01*
X22305Y231D01*
X22304Y228D01*
X22303Y225D01*
X22302Y221D01*
X22301Y216D01*
X22300Y212D01*
X22298Y200D01*
X22296Y188D01*
X22294Y174D01*
X22294Y160D01*
Y160D01*
Y158D01*
Y156D01*
Y152D01*
X22294Y148D01*
X22295Y143D01*
Y137D01*
X22296Y131D01*
X22297Y118D01*
X22300Y104D01*
X22303Y89D01*
X22308Y75D01*
Y74D01*
X22308Y73D01*
X22309Y71D01*
X22311Y69D01*
X22312Y66D01*
X22314Y62D01*
X22319Y54D01*
X22325Y45D01*
X22333Y36D01*
X22342Y28D01*
X22352Y20D01*
X22353D01*
X22354Y19D01*
X22355Y19D01*
X22358Y17D01*
X22360Y16D01*
X22364Y15D01*
X22372Y11D01*
X22382Y8D01*
X22393Y5D01*
X22405Y3D01*
X22418Y2D01*
X22422D01*
X22425Y3D01*
X22429Y3D01*
X22433Y4D01*
X22438Y4D01*
X22443Y5D01*
X22454Y8D01*
X22466Y13D01*
X22473Y15D01*
X22479Y19D01*
X22485Y22D01*
X22490Y27D01*
X22491Y27D01*
X22492Y28D01*
X22493Y29D01*
X22495Y31D01*
X22497Y34D01*
X22500Y37D01*
X22503Y41D01*
X22506Y45D01*
X22510Y50D01*
X22513Y55D01*
X22516Y61D01*
X22520Y68D01*
X22523Y75D01*
X22526Y83D01*
X22528Y91D01*
X22531Y100D01*
X22582Y87D01*
Y86D01*
X22581Y84D01*
X22580Y81D01*
X22579Y76D01*
X22577Y71D01*
X22574Y65D01*
X22572Y59D01*
X22568Y51D01*
X22565Y44D01*
X22560Y36D01*
X22556Y28D01*
X22550Y20D01*
X22545Y12D01*
X22538Y5D01*
X22531Y-2D01*
X22524Y-9D01*
X22523Y-9D01*
X22522Y-10D01*
X22520Y-12D01*
X22516Y-14D01*
X22512Y-16D01*
X22507Y-19D01*
X22502Y-22D01*
X22496Y-25D01*
X22488Y-28D01*
X22481Y-31D01*
X22472Y-34D01*
X22463Y-36D01*
X22454Y-38D01*
X22444Y-40D01*
X22433Y-41D01*
X22422Y-41D01*
X22416D01*
X22412Y-41D01*
X22407Y-40D01*
X22400Y-40D01*
X22394Y-39D01*
X22386Y-38D01*
X22370Y-35D01*
X22353Y-31D01*
X22345Y-28D01*
X22336Y-24D01*
X22328Y-21D01*
X22321Y-16D01*
X22320Y-16D01*
X22319Y-15D01*
X22317Y-14D01*
X22314Y-11D01*
X22311Y-9D01*
X22307Y-6D01*
X22303Y-2D01*
X22299Y3D01*
X22294Y7D01*
X22289Y13D01*
X22284Y19D01*
X22279Y26D01*
X22274Y33D01*
X22270Y40D01*
X22265Y49D01*
X22261Y57D01*
Y58D01*
X22260Y59D01*
X22259Y62D01*
X22258Y66D01*
X22257Y70D01*
X22255Y75D01*
X22253Y81D01*
X22251Y88D01*
X22249Y96D01*
X22248Y104D01*
X22246Y112D01*
X22244Y121D01*
X22242Y140D01*
X22241Y160D01*
Y161D01*
Y163D01*
Y166D01*
X22242Y170D01*
Y176D01*
X22242Y182D01*
X22243Y188D01*
X22244Y196D01*
X22245Y204D01*
X22247Y212D01*
X22251Y230D01*
X22256Y247D01*
X22260Y256D01*
X22264Y265D01*
X22264Y265D01*
X22265Y267D01*
X22266Y269D01*
X22268Y272D01*
X22270Y276D01*
X22273Y280D01*
X22277Y285D01*
X22281Y290D01*
X22290Y301D01*
X22301Y312D01*
X22314Y323D01*
X22322Y328D01*
X22329Y333D01*
X22330Y333D01*
X22331Y334D01*
X22334Y335D01*
X22337Y336D01*
X22341Y338D01*
X22345Y340D01*
X22351Y342D01*
X22357Y345D01*
X22364Y347D01*
X22371Y349D01*
X22387Y353D01*
X22404Y355D01*
X22413Y356D01*
X22428D01*
X22432Y356D01*
D02*
G37*
G36*
X22753Y351D02*
X22757D01*
X22764Y350D01*
X22773Y348D01*
X22783Y346D01*
X22793Y342D01*
X22803Y338D01*
X22803D01*
X22804Y337D01*
X22805Y336D01*
X22807Y335D01*
X22812Y332D01*
X22818Y328D01*
X22824Y323D01*
X22831Y316D01*
X22838Y309D01*
X22843Y301D01*
Y300D01*
X22844Y300D01*
X22846Y297D01*
X22848Y292D01*
X22851Y286D01*
X22853Y278D01*
X22856Y270D01*
X22857Y261D01*
X22858Y251D01*
Y251D01*
Y250D01*
Y247D01*
X22857Y242D01*
X22856Y236D01*
X22854Y229D01*
X22852Y222D01*
X22849Y214D01*
X22844Y206D01*
X22844Y205D01*
X22842Y202D01*
X22839Y199D01*
X22834Y194D01*
X22829Y189D01*
X22822Y183D01*
X22814Y178D01*
X22805Y173D01*
X22805D01*
X22806Y173D01*
X22808Y172D01*
X22810Y172D01*
X22813Y171D01*
X22817Y169D01*
X22824Y166D01*
X22833Y162D01*
X22841Y156D01*
X22850Y149D01*
X22858Y140D01*
Y140D01*
X22859Y139D01*
X22860Y138D01*
X22861Y136D01*
X22862Y133D01*
X22864Y131D01*
X22867Y123D01*
X22871Y114D01*
X22874Y104D01*
X22876Y92D01*
X22877Y79D01*
Y78D01*
Y77D01*
Y74D01*
X22876Y70D01*
X22876Y66D01*
X22875Y61D01*
X22874Y55D01*
X22872Y49D01*
X22870Y43D01*
X22868Y36D01*
X22865Y29D01*
X22861Y21D01*
X22857Y14D01*
X22852Y7D01*
X22846Y-0D01*
X22840Y-7D01*
X22839Y-7D01*
X22838Y-8D01*
X22836Y-10D01*
X22833Y-12D01*
X22830Y-15D01*
X22825Y-18D01*
X22820Y-21D01*
X22815Y-24D01*
X22808Y-27D01*
X22801Y-30D01*
X22794Y-33D01*
X22785Y-36D01*
X22777Y-38D01*
X22767Y-40D01*
X22758Y-41D01*
X22747Y-41D01*
X22742D01*
X22739Y-41D01*
X22735Y-40D01*
X22730Y-40D01*
X22724Y-39D01*
X22718Y-37D01*
X22705Y-34D01*
X22698Y-31D01*
X22691Y-29D01*
X22683Y-25D01*
X22676Y-21D01*
X22670Y-17D01*
X22663Y-11D01*
X22663Y-11D01*
X22662Y-10D01*
X22660Y-8D01*
X22658Y-6D01*
X22655Y-3D01*
X22652Y1D01*
X22649Y5D01*
X22646Y10D01*
X22643Y15D01*
X22639Y21D01*
X22636Y28D01*
X22633Y35D01*
X22630Y42D01*
X22628Y50D01*
X22626Y58D01*
X22625Y67D01*
X22672Y74D01*
Y73D01*
X22673Y72D01*
X22673Y70D01*
X22674Y67D01*
X22675Y64D01*
X22676Y60D01*
X22679Y51D01*
X22682Y42D01*
X22687Y32D01*
X22693Y23D01*
X22696Y19D01*
X22699Y15D01*
X22700Y15D01*
X22703Y13D01*
X22707Y10D01*
X22713Y7D01*
X22720Y3D01*
X22728Y1D01*
X22737Y-1D01*
X22747Y-2D01*
X22751D01*
X22753Y-2D01*
X22756D01*
X22759Y-1D01*
X22767Y1D01*
X22776Y3D01*
X22785Y7D01*
X22795Y13D01*
X22799Y17D01*
X22804Y21D01*
X22804Y21D01*
X22805Y22D01*
X22806Y23D01*
X22807Y25D01*
X22811Y30D01*
X22815Y37D01*
X22819Y45D01*
X22823Y55D01*
X22826Y66D01*
X22827Y72D01*
Y78D01*
Y78D01*
Y79D01*
Y81D01*
X22826Y83D01*
Y86D01*
X22826Y89D01*
X22824Y97D01*
X22822Y105D01*
X22818Y114D01*
X22812Y123D01*
X22809Y127D01*
X22805Y131D01*
X22804Y132D01*
X22801Y135D01*
X22797Y138D01*
X22791Y142D01*
X22783Y146D01*
X22774Y149D01*
X22763Y151D01*
X22751Y152D01*
X22746D01*
X22742Y152D01*
X22737Y151D01*
X22731Y150D01*
X22725Y149D01*
X22718Y147D01*
X22723Y189D01*
X22724D01*
X22726Y188D01*
X22728Y188D01*
X22734D01*
X22736Y188D01*
X22742Y189D01*
X22749Y190D01*
X22757Y192D01*
X22766Y194D01*
X22776Y198D01*
X22785Y203D01*
X22785D01*
X22786Y204D01*
X22789Y206D01*
X22793Y210D01*
X22797Y215D01*
X22802Y222D01*
X22805Y231D01*
X22808Y241D01*
X22809Y246D01*
X22809Y252D01*
Y253D01*
Y253D01*
X22809Y257D01*
X22808Y261D01*
X22807Y267D01*
X22805Y274D01*
X22802Y281D01*
X22797Y288D01*
X22791Y295D01*
X22790Y296D01*
X22788Y298D01*
X22784Y300D01*
X22779Y304D01*
X22773Y307D01*
X22765Y310D01*
X22756Y312D01*
X22746Y312D01*
X22744D01*
X22742Y312D01*
X22736Y311D01*
X22730Y310D01*
X22723Y308D01*
X22715Y305D01*
X22707Y301D01*
X22700Y295D01*
X22699Y294D01*
X22697Y292D01*
X22694Y288D01*
X22690Y282D01*
X22686Y275D01*
X22682Y266D01*
X22679Y255D01*
X22677Y243D01*
X22630Y252D01*
Y252D01*
X22630Y254D01*
X22631Y256D01*
X22632Y260D01*
X22633Y263D01*
X22634Y268D01*
X22636Y273D01*
X22638Y279D01*
X22643Y290D01*
X22650Y302D01*
X22658Y314D01*
X22663Y320D01*
X22669Y325D01*
X22669Y325D01*
X22670Y326D01*
X22672Y327D01*
X22674Y329D01*
X22677Y331D01*
X22681Y333D01*
X22685Y336D01*
X22690Y338D01*
X22695Y340D01*
X22701Y343D01*
X22714Y347D01*
X22729Y350D01*
X22737Y351D01*
X22745Y351D01*
X22751D01*
X22753Y351D01*
D02*
G37*
G36*
X22237Y4568D02*
X22242Y4568D01*
X22248Y4567D01*
X22255Y4566D01*
X22262Y4565D01*
X22277Y4562D01*
X22285Y4559D01*
X22293Y4556D01*
X22301Y4553D01*
X22309Y4549D01*
X22317Y4544D01*
X22325Y4539D01*
X22325Y4539D01*
X22326Y4538D01*
X22329Y4536D01*
X22331Y4534D01*
X22334Y4531D01*
X22338Y4527D01*
X22342Y4523D01*
X22347Y4518D01*
X22351Y4512D01*
X22356Y4506D01*
X22360Y4499D01*
X22365Y4492D01*
X22369Y4484D01*
X22373Y4476D01*
X22377Y4466D01*
X22380Y4457D01*
X22330Y4445D01*
Y4445D01*
X22330Y4447D01*
X22329Y4449D01*
X22328Y4452D01*
X22326Y4455D01*
X22325Y4459D01*
X22320Y4468D01*
X22315Y4478D01*
X22308Y4488D01*
X22300Y4498D01*
X22296Y4502D01*
X22291Y4506D01*
X22291D01*
X22290Y4507D01*
X22289Y4508D01*
X22287Y4509D01*
X22284Y4510D01*
X22281Y4512D01*
X22274Y4516D01*
X22264Y4519D01*
X22253Y4522D01*
X22241Y4524D01*
X22227Y4525D01*
X22222D01*
X22219Y4525D01*
X22216D01*
X22211Y4524D01*
X22206Y4523D01*
X22201Y4523D01*
X22189Y4520D01*
X22177Y4516D01*
X22164Y4511D01*
X22158Y4508D01*
X22152Y4504D01*
X22152D01*
X22151Y4503D01*
X22149Y4502D01*
X22147Y4500D01*
X22142Y4495D01*
X22136Y4489D01*
X22129Y4481D01*
X22122Y4471D01*
X22116Y4460D01*
X22111Y4447D01*
Y4446D01*
X22110Y4445D01*
X22110Y4443D01*
X22109Y4441D01*
X22108Y4437D01*
X22107Y4433D01*
X22106Y4429D01*
X22105Y4424D01*
X22103Y4413D01*
X22101Y4400D01*
X22099Y4387D01*
X22099Y4373D01*
Y4372D01*
Y4371D01*
Y4368D01*
Y4365D01*
X22099Y4360D01*
X22100Y4355D01*
Y4350D01*
X22101Y4344D01*
X22102Y4330D01*
X22105Y4316D01*
X22108Y4301D01*
X22113Y4287D01*
Y4287D01*
X22113Y4286D01*
X22114Y4284D01*
X22116Y4281D01*
X22117Y4278D01*
X22119Y4275D01*
X22124Y4267D01*
X22130Y4258D01*
X22138Y4249D01*
X22147Y4240D01*
X22157Y4233D01*
X22158D01*
X22159Y4232D01*
X22160Y4231D01*
X22163Y4230D01*
X22165Y4229D01*
X22169Y4227D01*
X22177Y4224D01*
X22187Y4220D01*
X22198Y4218D01*
X22210Y4216D01*
X22223Y4215D01*
X22227D01*
X22230Y4215D01*
X22234Y4216D01*
X22238Y4216D01*
X22243Y4217D01*
X22248Y4218D01*
X22259Y4221D01*
X22271Y4225D01*
X22278Y4228D01*
X22284Y4231D01*
X22290Y4235D01*
X22295Y4239D01*
X22296Y4240D01*
X22297Y4240D01*
X22298Y4242D01*
X22300Y4244D01*
X22302Y4246D01*
X22305Y4250D01*
X22308Y4253D01*
X22311Y4258D01*
X22315Y4262D01*
X22318Y4268D01*
X22321Y4274D01*
X22325Y4280D01*
X22328Y4288D01*
X22331Y4295D01*
X22333Y4303D01*
X22336Y4312D01*
X22387Y4299D01*
Y4299D01*
X22386Y4297D01*
X22385Y4293D01*
X22384Y4289D01*
X22382Y4284D01*
X22379Y4278D01*
X22377Y4271D01*
X22373Y4264D01*
X22370Y4256D01*
X22365Y4248D01*
X22361Y4241D01*
X22355Y4233D01*
X22350Y4225D01*
X22343Y4217D01*
X22336Y4210D01*
X22329Y4204D01*
X22328Y4203D01*
X22327Y4202D01*
X22325Y4201D01*
X22321Y4199D01*
X22317Y4196D01*
X22312Y4193D01*
X22307Y4191D01*
X22301Y4188D01*
X22293Y4184D01*
X22286Y4182D01*
X22277Y4179D01*
X22268Y4176D01*
X22259Y4174D01*
X22249Y4173D01*
X22238Y4172D01*
X22227Y4171D01*
X22221D01*
X22217Y4172D01*
X22212Y4172D01*
X22205Y4173D01*
X22199Y4173D01*
X22191Y4174D01*
X22175Y4177D01*
X22158Y4182D01*
X22150Y4185D01*
X22141Y4188D01*
X22133Y4192D01*
X22126Y4196D01*
X22125Y4197D01*
X22124Y4197D01*
X22122Y4199D01*
X22119Y4201D01*
X22116Y4204D01*
X22112Y4207D01*
X22108Y4211D01*
X22104Y4215D01*
X22099Y4220D01*
X22094Y4225D01*
X22089Y4231D01*
X22084Y4238D01*
X22079Y4245D01*
X22075Y4253D01*
X22070Y4261D01*
X22066Y4270D01*
Y4270D01*
X22065Y4272D01*
X22064Y4275D01*
X22063Y4278D01*
X22062Y4283D01*
X22060Y4288D01*
X22058Y4294D01*
X22056Y4301D01*
X22054Y4308D01*
X22053Y4316D01*
X22051Y4325D01*
X22049Y4333D01*
X22047Y4353D01*
X22046Y4373D01*
Y4373D01*
Y4375D01*
Y4379D01*
X22047Y4383D01*
Y4388D01*
X22047Y4394D01*
X22048Y4401D01*
X22049Y4408D01*
X22050Y4416D01*
X22052Y4425D01*
X22056Y4442D01*
X22061Y4460D01*
X22065Y4469D01*
X22069Y4477D01*
X22069Y4478D01*
X22070Y4479D01*
X22071Y4482D01*
X22073Y4485D01*
X22075Y4488D01*
X22078Y4493D01*
X22082Y4497D01*
X22086Y4503D01*
X22095Y4514D01*
X22106Y4525D01*
X22119Y4536D01*
X22127Y4541D01*
X22134Y4545D01*
X22135Y4546D01*
X22136Y4546D01*
X22139Y4547D01*
X22142Y4549D01*
X22146Y4551D01*
X22150Y4553D01*
X22156Y4555D01*
X22162Y4557D01*
X22169Y4559D01*
X22176Y4561D01*
X22192Y4565D01*
X22209Y4568D01*
X22218Y4569D01*
X22233D01*
X22237Y4568D01*
D02*
G37*
G36*
X22566Y4563D02*
X22571Y4563D01*
X22576Y4562D01*
X22582Y4561D01*
X22589Y4560D01*
X22603Y4556D01*
X22610Y4554D01*
X22617Y4551D01*
X22625Y4547D01*
X22632Y4543D01*
X22638Y4538D01*
X22645Y4533D01*
X22645Y4532D01*
X22646Y4531D01*
X22648Y4530D01*
X22650Y4527D01*
X22652Y4524D01*
X22655Y4521D01*
X22658Y4517D01*
X22661Y4512D01*
X22664Y4507D01*
X22667Y4501D01*
X22672Y4488D01*
X22674Y4481D01*
X22676Y4473D01*
X22677Y4465D01*
X22677Y4457D01*
Y4456D01*
Y4453D01*
X22677Y4448D01*
X22676Y4442D01*
X22675Y4436D01*
X22673Y4428D01*
X22671Y4420D01*
X22668Y4411D01*
X22667Y4410D01*
X22666Y4407D01*
X22664Y4403D01*
X22660Y4397D01*
X22656Y4390D01*
X22650Y4382D01*
X22644Y4373D01*
X22636Y4364D01*
Y4364D01*
X22635Y4363D01*
X22634Y4362D01*
X22632Y4360D01*
X22630Y4357D01*
X22627Y4354D01*
X22623Y4351D01*
X22619Y4347D01*
X22614Y4342D01*
X22609Y4337D01*
X22603Y4331D01*
X22596Y4325D01*
X22589Y4319D01*
X22581Y4312D01*
X22572Y4305D01*
X22563Y4297D01*
X22563Y4296D01*
X22561Y4295D01*
X22559Y4293D01*
X22556Y4291D01*
X22553Y4288D01*
X22549Y4285D01*
X22541Y4277D01*
X22531Y4269D01*
X22522Y4261D01*
X22518Y4258D01*
X22515Y4254D01*
X22511Y4251D01*
X22509Y4248D01*
X22508Y4248D01*
X22507Y4246D01*
X22505Y4244D01*
X22502Y4240D01*
X22499Y4237D01*
X22495Y4232D01*
X22489Y4223D01*
X22678D01*
Y4178D01*
X22423D01*
Y4179D01*
Y4181D01*
Y4184D01*
X22424Y4188D01*
X22424Y4193D01*
X22425Y4199D01*
X22427Y4204D01*
X22429Y4210D01*
Y4211D01*
X22429Y4211D01*
X22430Y4213D01*
X22431Y4215D01*
X22433Y4220D01*
X22436Y4226D01*
X22441Y4234D01*
X22446Y4243D01*
X22452Y4252D01*
X22460Y4261D01*
X22460Y4262D01*
X22461Y4262D01*
X22462Y4264D01*
X22464Y4266D01*
X22469Y4271D01*
X22476Y4278D01*
X22484Y4287D01*
X22495Y4297D01*
X22507Y4308D01*
X22522Y4320D01*
X22522Y4320D01*
X22524Y4322D01*
X22528Y4325D01*
X22532Y4328D01*
X22537Y4333D01*
X22543Y4338D01*
X22549Y4343D01*
X22556Y4349D01*
X22570Y4362D01*
X22584Y4376D01*
X22590Y4383D01*
X22596Y4389D01*
X22602Y4395D01*
X22606Y4401D01*
X22607Y4402D01*
X22607Y4403D01*
X22608Y4404D01*
X22610Y4406D01*
X22611Y4409D01*
X22613Y4412D01*
X22618Y4420D01*
X22622Y4428D01*
X22625Y4438D01*
X22628Y4448D01*
X22629Y4453D01*
Y4458D01*
Y4459D01*
Y4460D01*
Y4461D01*
X22628Y4463D01*
X22628Y4468D01*
X22626Y4475D01*
X22624Y4482D01*
X22620Y4490D01*
X22615Y4498D01*
X22608Y4505D01*
X22607Y4506D01*
X22605Y4508D01*
X22600Y4511D01*
X22594Y4515D01*
X22587Y4519D01*
X22578Y4522D01*
X22567Y4524D01*
X22556Y4525D01*
X22552D01*
X22550Y4524D01*
X22547D01*
X22544Y4524D01*
X22536Y4522D01*
X22528Y4520D01*
X22518Y4516D01*
X22509Y4511D01*
X22501Y4504D01*
X22500Y4503D01*
X22498Y4501D01*
X22495Y4496D01*
X22491Y4490D01*
X22487Y4481D01*
X22484Y4472D01*
X22482Y4461D01*
X22481Y4448D01*
X22432Y4453D01*
Y4453D01*
X22433Y4455D01*
Y4458D01*
X22433Y4462D01*
X22434Y4466D01*
X22435Y4471D01*
X22437Y4477D01*
X22439Y4483D01*
X22443Y4497D01*
X22446Y4504D01*
X22450Y4510D01*
X22454Y4517D01*
X22458Y4524D01*
X22463Y4530D01*
X22469Y4535D01*
X22470Y4536D01*
X22471Y4536D01*
X22473Y4538D01*
X22475Y4540D01*
X22479Y4542D01*
X22483Y4544D01*
X22487Y4547D01*
X22493Y4550D01*
X22499Y4552D01*
X22505Y4555D01*
X22512Y4557D01*
X22520Y4559D01*
X22528Y4561D01*
X22537Y4563D01*
X22547Y4563D01*
X22557Y4564D01*
X22562D01*
X22566Y4563D01*
D02*
G37*
G36*
X15348Y26055D02*
Y26054D01*
Y26052D01*
Y26049D01*
Y26045D01*
X15347Y26040D01*
Y26035D01*
X15347Y26028D01*
X15346Y26022D01*
X15344Y26007D01*
X15342Y25991D01*
X15339Y25976D01*
X15337Y25969D01*
X15334Y25963D01*
Y25962D01*
X15334Y25961D01*
X15333Y25959D01*
X15332Y25957D01*
X15330Y25954D01*
X15328Y25951D01*
X15323Y25943D01*
X15317Y25934D01*
X15309Y25925D01*
X15299Y25916D01*
X15293Y25911D01*
X15287Y25907D01*
X15286D01*
X15285Y25906D01*
X15283Y25905D01*
X15281Y25904D01*
X15277Y25902D01*
X15273Y25901D01*
X15268Y25899D01*
X15263Y25897D01*
X15257Y25895D01*
X15250Y25893D01*
X15243Y25891D01*
X15235Y25890D01*
X15226Y25888D01*
X15217Y25887D01*
X15207Y25887D01*
X15197Y25886D01*
X15192D01*
X15188Y25887D01*
X15184D01*
X15178Y25887D01*
X15172Y25888D01*
X15166Y25889D01*
X15152Y25891D01*
X15137Y25894D01*
X15122Y25899D01*
X15109Y25905D01*
X15108D01*
X15107Y25906D01*
X15105Y25907D01*
X15103Y25908D01*
X15097Y25912D01*
X15090Y25918D01*
X15082Y25926D01*
X15074Y25935D01*
X15066Y25946D01*
X15060Y25958D01*
Y25959D01*
X15059Y25960D01*
X15058Y25962D01*
X15058Y25965D01*
X15056Y25968D01*
X15055Y25973D01*
X15054Y25978D01*
X15053Y25984D01*
X15051Y25990D01*
X15050Y25997D01*
X15049Y26005D01*
X15048Y26014D01*
X15047Y26023D01*
X15046Y26033D01*
X15045Y26044D01*
Y26055D01*
Y26277D01*
X15096D01*
Y26055D01*
Y26055D01*
Y26053D01*
Y26050D01*
Y26047D01*
X15097Y26043D01*
Y26038D01*
X15097Y26033D01*
Y26027D01*
X15098Y26015D01*
X15100Y26003D01*
X15102Y25991D01*
X15104Y25986D01*
X15105Y25981D01*
Y25981D01*
X15106Y25980D01*
X15107Y25977D01*
X15109Y25973D01*
X15113Y25968D01*
X15117Y25962D01*
X15123Y25956D01*
X15129Y25950D01*
X15137Y25945D01*
X15138D01*
X15138Y25944D01*
X15141Y25943D01*
X15146Y25941D01*
X15153Y25939D01*
X15161Y25936D01*
X15170Y25934D01*
X15181Y25933D01*
X15193Y25932D01*
X15198D01*
X15202Y25933D01*
X15206Y25933D01*
X15212Y25934D01*
X15218Y25934D01*
X15224Y25935D01*
X15237Y25938D01*
X15250Y25943D01*
X15256Y25946D01*
X15262Y25949D01*
X15268Y25953D01*
X15273Y25957D01*
X15273Y25958D01*
X15274Y25959D01*
X15275Y25960D01*
X15277Y25962D01*
X15278Y25965D01*
X15280Y25969D01*
X15283Y25974D01*
X15285Y25979D01*
X15287Y25985D01*
X15289Y25992D01*
X15291Y26000D01*
X15293Y26009D01*
X15295Y26019D01*
X15296Y26030D01*
X15296Y26042D01*
X15297Y26055D01*
Y26277D01*
X15348D01*
Y26055D01*
D02*
G37*
G36*
X15612Y26028D02*
X15664D01*
Y25985D01*
X15612D01*
Y25893D01*
X15565D01*
Y25985D01*
X15398D01*
Y26028D01*
X15573Y26277D01*
X15612D01*
Y26028D01*
D02*
G37*
G36*
X16005Y24628D02*
X16057D01*
Y24585D01*
X16005D01*
Y24493D01*
X15958D01*
Y24585D01*
X15791D01*
Y24628D01*
X15967Y24877D01*
X16005D01*
Y24628D01*
D02*
G37*
G36*
X15622Y24877D02*
X15627D01*
X15632Y24876D01*
X15638Y24876D01*
X15651Y24875D01*
X15664Y24873D01*
X15676Y24870D01*
X15682Y24869D01*
X15687Y24867D01*
X15688D01*
X15688Y24866D01*
X15690Y24866D01*
X15692Y24865D01*
X15697Y24862D01*
X15703Y24858D01*
X15710Y24853D01*
X15717Y24847D01*
X15724Y24839D01*
X15730Y24830D01*
Y24829D01*
X15731Y24829D01*
X15732Y24827D01*
X15733Y24825D01*
X15735Y24820D01*
X15738Y24813D01*
X15741Y24804D01*
X15744Y24794D01*
X15746Y24783D01*
X15746Y24772D01*
Y24771D01*
Y24770D01*
Y24768D01*
X15746Y24765D01*
X15745Y24761D01*
X15745Y24757D01*
X15743Y24748D01*
X15740Y24737D01*
X15735Y24725D01*
X15732Y24720D01*
X15729Y24714D01*
X15724Y24708D01*
X15720Y24703D01*
X15719Y24702D01*
X15719Y24702D01*
X15717Y24700D01*
X15715Y24698D01*
X15712Y24696D01*
X15708Y24694D01*
X15704Y24691D01*
X15700Y24688D01*
X15694Y24685D01*
X15688Y24682D01*
X15681Y24679D01*
X15674Y24676D01*
X15666Y24673D01*
X15657Y24671D01*
X15648Y24669D01*
X15638Y24667D01*
X15639Y24667D01*
X15641Y24666D01*
X15645Y24664D01*
X15649Y24661D01*
X15659Y24655D01*
X15664Y24651D01*
X15668Y24648D01*
X15669D01*
X15669Y24647D01*
X15672Y24644D01*
X15676Y24640D01*
X15682Y24634D01*
X15689Y24627D01*
X15696Y24618D01*
X15703Y24608D01*
X15711Y24597D01*
X15777Y24493D01*
X15713D01*
X15663Y24572D01*
Y24573D01*
X15662Y24574D01*
X15661Y24576D01*
X15659Y24578D01*
X15657Y24581D01*
X15655Y24584D01*
X15650Y24592D01*
X15644Y24600D01*
X15638Y24609D01*
X15632Y24617D01*
X15626Y24625D01*
X15625Y24626D01*
X15623Y24628D01*
X15621Y24631D01*
X15617Y24635D01*
X15613Y24639D01*
X15609Y24644D01*
X15604Y24647D01*
X15600Y24651D01*
X15599Y24651D01*
X15598Y24652D01*
X15596Y24653D01*
X15593Y24655D01*
X15589Y24657D01*
X15585Y24658D01*
X15577Y24661D01*
X15576D01*
X15575Y24662D01*
X15573D01*
X15570Y24662D01*
X15566Y24663D01*
X15561D01*
X15556Y24663D01*
X15490D01*
Y24493D01*
X15439D01*
Y24877D01*
X15618D01*
X15622Y24877D01*
D02*
G37*
G36*
X14313Y26092D02*
X14405D01*
Y26045D01*
X14313D01*
Y25878D01*
X14269D01*
X14020Y26053D01*
Y26092D01*
X14269D01*
Y26144D01*
X14313D01*
Y26092D01*
D02*
G37*
G36*
X14286Y25849D02*
X14289Y25848D01*
X14294Y25847D01*
X14299Y25845D01*
X14305Y25843D01*
X14311Y25840D01*
X14319Y25837D01*
X14326Y25833D01*
X14334Y25829D01*
X14342Y25824D01*
X14350Y25819D01*
X14358Y25813D01*
X14365Y25807D01*
X14372Y25800D01*
X14379Y25792D01*
X14379Y25792D01*
X14380Y25790D01*
X14382Y25788D01*
X14384Y25785D01*
X14386Y25781D01*
X14389Y25776D01*
X14392Y25770D01*
X14395Y25764D01*
X14398Y25757D01*
X14401Y25749D01*
X14404Y25741D01*
X14406Y25732D01*
X14408Y25722D01*
X14410Y25712D01*
X14411Y25702D01*
X14411Y25691D01*
Y25685D01*
X14411Y25680D01*
X14410Y25675D01*
X14410Y25669D01*
X14409Y25662D01*
X14408Y25655D01*
X14405Y25639D01*
X14401Y25622D01*
X14398Y25613D01*
X14394Y25605D01*
X14391Y25597D01*
X14386Y25589D01*
X14386Y25589D01*
X14385Y25588D01*
X14384Y25586D01*
X14381Y25583D01*
X14379Y25580D01*
X14376Y25576D01*
X14372Y25572D01*
X14367Y25567D01*
X14363Y25562D01*
X14357Y25558D01*
X14351Y25553D01*
X14344Y25548D01*
X14337Y25543D01*
X14330Y25538D01*
X14321Y25534D01*
X14313Y25530D01*
X14312D01*
X14311Y25529D01*
X14308Y25528D01*
X14304Y25527D01*
X14300Y25525D01*
X14295Y25523D01*
X14289Y25522D01*
X14282Y25520D01*
X14274Y25518D01*
X14266Y25516D01*
X14258Y25514D01*
X14249Y25513D01*
X14230Y25511D01*
X14210Y25510D01*
X14209D01*
X14207D01*
X14204D01*
X14200Y25510D01*
X14194D01*
X14188Y25511D01*
X14182Y25512D01*
X14174Y25513D01*
X14166Y25514D01*
X14158Y25515D01*
X14140Y25519D01*
X14123Y25525D01*
X14114Y25528D01*
X14105Y25532D01*
X14105Y25533D01*
X14103Y25533D01*
X14101Y25535D01*
X14098Y25537D01*
X14094Y25539D01*
X14090Y25542D01*
X14085Y25545D01*
X14080Y25549D01*
X14069Y25558D01*
X14058Y25570D01*
X14047Y25583D01*
X14042Y25590D01*
X14037Y25598D01*
X14037Y25598D01*
X14036Y25600D01*
X14035Y25602D01*
X14034Y25605D01*
X14032Y25609D01*
X14030Y25614D01*
X14028Y25619D01*
X14025Y25625D01*
X14023Y25632D01*
X14021Y25639D01*
X14017Y25655D01*
X14015Y25673D01*
X14014Y25682D01*
Y25697D01*
X14014Y25701D01*
X14015Y25706D01*
X14015Y25712D01*
X14016Y25718D01*
X14017Y25725D01*
X14021Y25740D01*
X14023Y25748D01*
X14026Y25757D01*
X14030Y25765D01*
X14033Y25773D01*
X14038Y25781D01*
X14043Y25788D01*
X14044Y25789D01*
X14045Y25790D01*
X14046Y25792D01*
X14049Y25795D01*
X14052Y25798D01*
X14055Y25802D01*
X14060Y25806D01*
X14065Y25810D01*
X14070Y25815D01*
X14076Y25819D01*
X14083Y25824D01*
X14090Y25828D01*
X14098Y25833D01*
X14107Y25837D01*
X14116Y25841D01*
X14126Y25844D01*
X14138Y25794D01*
X14137D01*
X14136Y25793D01*
X14134Y25792D01*
X14131Y25791D01*
X14127Y25790D01*
X14123Y25788D01*
X14114Y25784D01*
X14104Y25778D01*
X14094Y25772D01*
X14085Y25764D01*
X14081Y25759D01*
X14077Y25755D01*
Y25754D01*
X14076Y25754D01*
X14075Y25752D01*
X14074Y25750D01*
X14072Y25748D01*
X14071Y25745D01*
X14067Y25737D01*
X14063Y25728D01*
X14060Y25717D01*
X14058Y25704D01*
X14057Y25690D01*
Y25686D01*
X14058Y25683D01*
Y25679D01*
X14058Y25675D01*
X14059Y25670D01*
X14060Y25664D01*
X14062Y25653D01*
X14066Y25640D01*
X14072Y25628D01*
X14075Y25622D01*
X14079Y25616D01*
Y25615D01*
X14080Y25614D01*
X14081Y25613D01*
X14083Y25611D01*
X14087Y25606D01*
X14094Y25600D01*
X14102Y25593D01*
X14112Y25586D01*
X14123Y25579D01*
X14136Y25574D01*
X14136D01*
X14137Y25574D01*
X14139Y25573D01*
X14142Y25572D01*
X14145Y25571D01*
X14149Y25570D01*
X14154Y25569D01*
X14158Y25568D01*
X14170Y25566D01*
X14182Y25564D01*
X14196Y25563D01*
X14210Y25562D01*
X14210D01*
X14212D01*
X14214D01*
X14218D01*
X14222Y25563D01*
X14227Y25563D01*
X14233D01*
X14239Y25564D01*
X14252Y25566D01*
X14266Y25568D01*
X14281Y25572D01*
X14295Y25576D01*
X14296D01*
X14297Y25577D01*
X14299Y25578D01*
X14301Y25579D01*
X14304Y25581D01*
X14308Y25582D01*
X14316Y25587D01*
X14325Y25594D01*
X14334Y25601D01*
X14342Y25610D01*
X14350Y25621D01*
Y25621D01*
X14351Y25622D01*
X14351Y25624D01*
X14353Y25626D01*
X14354Y25629D01*
X14355Y25632D01*
X14359Y25640D01*
X14362Y25650D01*
X14365Y25661D01*
X14367Y25673D01*
X14368Y25686D01*
Y25690D01*
X14367Y25693D01*
X14367Y25697D01*
X14366Y25701D01*
X14366Y25706D01*
X14365Y25711D01*
X14362Y25723D01*
X14357Y25735D01*
X14355Y25741D01*
X14351Y25747D01*
X14348Y25753D01*
X14343Y25759D01*
X14343Y25759D01*
X14342Y25760D01*
X14341Y25762D01*
X14339Y25764D01*
X14336Y25766D01*
X14333Y25769D01*
X14329Y25772D01*
X14325Y25775D01*
X14320Y25778D01*
X14315Y25782D01*
X14309Y25785D01*
X14302Y25788D01*
X14295Y25791D01*
X14287Y25794D01*
X14279Y25797D01*
X14270Y25799D01*
X14283Y25850D01*
X14284D01*
X14286Y25849D01*
D02*
G37*
G36*
X29746Y25398D02*
X29695D01*
Y25579D01*
X29496D01*
Y25398D01*
X29445D01*
Y25783D01*
X29496D01*
Y25625D01*
X29695D01*
Y25783D01*
X29746D01*
Y25398D01*
D02*
G37*
G36*
X29361D02*
X29312D01*
Y25720D01*
X29199Y25398D01*
X29154D01*
X29043Y25726D01*
Y25398D01*
X28994D01*
Y25783D01*
X29070D01*
X29161Y25510D01*
Y25510D01*
X29161Y25509D01*
X29162Y25507D01*
X29163Y25504D01*
X29164Y25501D01*
X29165Y25497D01*
X29168Y25489D01*
X29171Y25480D01*
X29174Y25470D01*
X29177Y25461D01*
X29179Y25453D01*
X29180Y25454D01*
X29181Y25457D01*
X29182Y25462D01*
X29184Y25469D01*
X29187Y25478D01*
X29191Y25488D01*
X29195Y25501D01*
X29200Y25515D01*
X29292Y25783D01*
X29361D01*
Y25398D01*
D02*
G37*
G36*
X30010Y25534D02*
X30062D01*
Y25490D01*
X30010D01*
Y25398D01*
X29963D01*
Y25490D01*
X29796D01*
Y25534D01*
X29971Y25783D01*
X30010D01*
Y25534D01*
D02*
G37*
G36*
X217Y25401D02*
X166D01*
Y25582D01*
X-33D01*
Y25401D01*
X-84D01*
Y25785D01*
X-33D01*
Y25627D01*
X166D01*
Y25785D01*
X217D01*
Y25401D01*
D02*
G37*
G36*
X411Y25786D02*
X415D01*
X422Y25785D01*
X431Y25783D01*
X441Y25781D01*
X451Y25778D01*
X461Y25773D01*
X461D01*
X462Y25773D01*
X463Y25772D01*
X465Y25771D01*
X470Y25768D01*
X476Y25764D01*
X482Y25758D01*
X489Y25752D01*
X496Y25745D01*
X501Y25736D01*
Y25736D01*
X502Y25735D01*
X504Y25732D01*
X506Y25727D01*
X509Y25721D01*
X511Y25714D01*
X514Y25705D01*
X515Y25696D01*
X516Y25687D01*
Y25686D01*
Y25686D01*
Y25683D01*
X515Y25678D01*
X514Y25672D01*
X512Y25665D01*
X510Y25657D01*
X507Y25649D01*
X502Y25641D01*
X502Y25640D01*
X500Y25638D01*
X497Y25634D01*
X492Y25630D01*
X487Y25624D01*
X480Y25619D01*
X472Y25614D01*
X463Y25609D01*
X463D01*
X464Y25608D01*
X466Y25608D01*
X468Y25607D01*
X471Y25606D01*
X475Y25605D01*
X482Y25602D01*
X491Y25597D01*
X499Y25591D01*
X508Y25584D01*
X516Y25576D01*
Y25575D01*
X517Y25575D01*
X518Y25573D01*
X519Y25571D01*
X520Y25569D01*
X522Y25566D01*
X525Y25559D01*
X529Y25550D01*
X532Y25539D01*
X534Y25528D01*
X535Y25514D01*
Y25514D01*
Y25512D01*
Y25509D01*
X534Y25506D01*
X534Y25501D01*
X533Y25496D01*
X532Y25491D01*
X530Y25485D01*
X528Y25478D01*
X526Y25471D01*
X523Y25464D01*
X519Y25457D01*
X515Y25450D01*
X510Y25442D01*
X504Y25435D01*
X498Y25429D01*
X497Y25428D01*
X496Y25427D01*
X494Y25426D01*
X491Y25423D01*
X488Y25421D01*
X483Y25418D01*
X478Y25415D01*
X473Y25412D01*
X466Y25408D01*
X459Y25405D01*
X452Y25402D01*
X443Y25400D01*
X435Y25397D01*
X425Y25396D01*
X416Y25395D01*
X405Y25394D01*
X400D01*
X397Y25395D01*
X393Y25395D01*
X388Y25396D01*
X382Y25397D01*
X376Y25398D01*
X363Y25402D01*
X356Y25404D01*
X349Y25407D01*
X341Y25410D01*
X334Y25414D01*
X328Y25419D01*
X321Y25424D01*
X321Y25425D01*
X320Y25426D01*
X318Y25427D01*
X316Y25430D01*
X313Y25433D01*
X310Y25436D01*
X307Y25441D01*
X304Y25445D01*
X301Y25451D01*
X297Y25457D01*
X294Y25463D01*
X291Y25470D01*
X288Y25478D01*
X286Y25485D01*
X284Y25494D01*
X283Y25503D01*
X330Y25509D01*
Y25509D01*
X331Y25507D01*
X331Y25505D01*
X332Y25503D01*
X333Y25499D01*
X334Y25496D01*
X337Y25487D01*
X340Y25477D01*
X345Y25468D01*
X351Y25458D01*
X354Y25454D01*
X357Y25451D01*
X358Y25450D01*
X361Y25448D01*
X365Y25445D01*
X371Y25442D01*
X378Y25439D01*
X386Y25436D01*
X395Y25434D01*
X405Y25433D01*
X409D01*
X411Y25434D01*
X414D01*
X417Y25434D01*
X425Y25436D01*
X434Y25439D01*
X443Y25443D01*
X453Y25449D01*
X457Y25452D01*
X462Y25456D01*
X462Y25457D01*
X463Y25457D01*
X464Y25459D01*
X465Y25460D01*
X469Y25465D01*
X473Y25472D01*
X477Y25480D01*
X481Y25490D01*
X484Y25501D01*
X485Y25507D01*
Y25513D01*
Y25514D01*
Y25515D01*
Y25516D01*
X484Y25519D01*
Y25521D01*
X484Y25525D01*
X482Y25532D01*
X480Y25541D01*
X476Y25550D01*
X470Y25558D01*
X467Y25563D01*
X463Y25567D01*
X462Y25568D01*
X459Y25570D01*
X455Y25573D01*
X449Y25577D01*
X441Y25581D01*
X432Y25584D01*
X421Y25587D01*
X409Y25588D01*
X404D01*
X400Y25587D01*
X395Y25587D01*
X389Y25586D01*
X383Y25584D01*
X376Y25583D01*
X381Y25624D01*
X382D01*
X384Y25624D01*
X386Y25623D01*
X392D01*
X394Y25624D01*
X400Y25624D01*
X407Y25625D01*
X415Y25627D01*
X424Y25630D01*
X434Y25634D01*
X443Y25639D01*
X443D01*
X444Y25640D01*
X447Y25642D01*
X451Y25646D01*
X455Y25651D01*
X460Y25658D01*
X463Y25666D01*
X466Y25676D01*
X467Y25682D01*
X467Y25688D01*
Y25688D01*
Y25689D01*
X467Y25692D01*
X466Y25697D01*
X465Y25703D01*
X463Y25709D01*
X460Y25716D01*
X455Y25724D01*
X449Y25730D01*
X448Y25731D01*
X446Y25733D01*
X442Y25736D01*
X437Y25739D01*
X431Y25742D01*
X423Y25745D01*
X414Y25747D01*
X404Y25748D01*
X402D01*
X400Y25747D01*
X394Y25747D01*
X388Y25746D01*
X381Y25743D01*
X373Y25740D01*
X365Y25736D01*
X358Y25730D01*
X357Y25729D01*
X355Y25727D01*
X352Y25723D01*
X348Y25717D01*
X344Y25710D01*
X340Y25701D01*
X337Y25691D01*
X335Y25679D01*
X288Y25687D01*
Y25688D01*
X288Y25689D01*
X289Y25692D01*
X290Y25695D01*
X291Y25699D01*
X292Y25704D01*
X294Y25709D01*
X296Y25714D01*
X301Y25726D01*
X308Y25738D01*
X316Y25750D01*
X321Y25755D01*
X327Y25760D01*
X327Y25761D01*
X328Y25761D01*
X330Y25763D01*
X332Y25764D01*
X335Y25766D01*
X339Y25769D01*
X343Y25771D01*
X348Y25774D01*
X353Y25776D01*
X359Y25778D01*
X372Y25783D01*
X387Y25786D01*
X395Y25786D01*
X403Y25787D01*
X409D01*
X411Y25786D01*
D02*
G37*
G36*
X-168Y25401D02*
X-217D01*
Y25723D01*
X-329Y25401D01*
X-375D01*
X-486Y25728D01*
Y25401D01*
X-535D01*
Y25785D01*
X-459D01*
X-368Y25513D01*
Y25512D01*
X-367Y25511D01*
X-367Y25509D01*
X-366Y25507D01*
X-365Y25503D01*
X-363Y25500D01*
X-361Y25491D01*
X-358Y25482D01*
X-355Y25473D01*
X-352Y25464D01*
X-349Y25456D01*
X-349Y25457D01*
X-348Y25460D01*
X-346Y25465D01*
X-344Y25471D01*
X-341Y25480D01*
X-338Y25491D01*
X-334Y25503D01*
X-329Y25518D01*
X-236Y25785D01*
X-168D01*
Y25401D01*
D02*
G37*
G36*
X19944Y-154D02*
X19893D01*
Y27D01*
X19694D01*
Y-154D01*
X19643D01*
Y231D01*
X19694D01*
Y73D01*
X19893D01*
Y231D01*
X19944D01*
Y-154D01*
D02*
G37*
G36*
X19559D02*
X19510D01*
Y168D01*
X19397Y-154D01*
X19352D01*
X19241Y174D01*
Y-154D01*
X19192D01*
Y231D01*
X19268D01*
X19359Y-42D01*
Y-42D01*
X19359Y-43D01*
X19360Y-45D01*
X19361Y-48D01*
X19362Y-51D01*
X19363Y-55D01*
X19366Y-63D01*
X19369Y-72D01*
X19372Y-82D01*
X19375Y-91D01*
X19377Y-99D01*
X19378Y-98D01*
X19379Y-95D01*
X19380Y-90D01*
X19382Y-83D01*
X19385Y-74D01*
X19389Y-64D01*
X19393Y-51D01*
X19398Y-37D01*
X19490Y231D01*
X19559D01*
Y-154D01*
D02*
G37*
G36*
X20145Y232D02*
X20150Y231D01*
X20156Y231D01*
X20162Y230D01*
X20168Y228D01*
X20182Y225D01*
X20189Y222D01*
X20197Y219D01*
X20204Y216D01*
X20211Y211D01*
X20218Y207D01*
X20224Y201D01*
X20225Y201D01*
X20226Y200D01*
X20227Y198D01*
X20229Y196D01*
X20232Y193D01*
X20235Y189D01*
X20237Y185D01*
X20241Y180D01*
X20244Y175D01*
X20246Y169D01*
X20252Y156D01*
X20254Y149D01*
X20255Y142D01*
X20256Y134D01*
X20257Y125D01*
Y124D01*
Y121D01*
X20256Y117D01*
X20256Y111D01*
X20254Y104D01*
X20253Y96D01*
X20250Y88D01*
X20247Y80D01*
X20247Y79D01*
X20245Y76D01*
X20243Y71D01*
X20240Y66D01*
X20235Y59D01*
X20230Y51D01*
X20223Y42D01*
X20216Y33D01*
Y32D01*
X20215Y32D01*
X20213Y30D01*
X20212Y28D01*
X20209Y26D01*
X20206Y23D01*
X20203Y19D01*
X20198Y15D01*
X20194Y11D01*
X20188Y6D01*
X20182Y-0D01*
X20176Y-6D01*
X20168Y-13D01*
X20161Y-19D01*
X20152Y-27D01*
X20143Y-35D01*
X20142Y-35D01*
X20141Y-36D01*
X20139Y-38D01*
X20136Y-40D01*
X20133Y-43D01*
X20129Y-47D01*
X20120Y-54D01*
X20111Y-62D01*
X20102Y-70D01*
X20098Y-74D01*
X20094Y-77D01*
X20091Y-81D01*
X20088Y-83D01*
X20088Y-84D01*
X20086Y-85D01*
X20084Y-88D01*
X20081Y-91D01*
X20078Y-95D01*
X20075Y-99D01*
X20068Y-108D01*
X20257D01*
Y-154D01*
X20003D01*
Y-153D01*
Y-151D01*
Y-148D01*
X20003Y-143D01*
X20004Y-138D01*
X20005Y-133D01*
X20006Y-127D01*
X20008Y-121D01*
Y-121D01*
X20009Y-120D01*
X20009Y-119D01*
X20010Y-117D01*
X20012Y-112D01*
X20016Y-105D01*
X20020Y-97D01*
X20025Y-89D01*
X20032Y-80D01*
X20039Y-70D01*
X20040Y-70D01*
X20040Y-69D01*
X20042Y-68D01*
X20043Y-66D01*
X20048Y-60D01*
X20055Y-53D01*
X20064Y-45D01*
X20074Y-35D01*
X20087Y-24D01*
X20101Y-12D01*
X20102Y-11D01*
X20104Y-9D01*
X20107Y-7D01*
X20111Y-3D01*
X20116Y1D01*
X20122Y6D01*
X20129Y12D01*
X20135Y18D01*
X20149Y31D01*
X20163Y44D01*
X20170Y51D01*
X20176Y58D01*
X20181Y64D01*
X20186Y70D01*
X20186Y70D01*
X20187Y71D01*
X20188Y73D01*
X20189Y75D01*
X20191Y78D01*
X20193Y81D01*
X20197Y88D01*
X20201Y97D01*
X20205Y106D01*
X20207Y117D01*
X20208Y122D01*
Y127D01*
Y127D01*
Y128D01*
Y129D01*
X20208Y131D01*
X20207Y137D01*
X20206Y143D01*
X20203Y151D01*
X20200Y158D01*
X20195Y166D01*
X20188Y174D01*
X20187Y175D01*
X20184Y177D01*
X20180Y180D01*
X20174Y184D01*
X20166Y187D01*
X20157Y190D01*
X20147Y192D01*
X20135Y193D01*
X20132D01*
X20130Y193D01*
X20127D01*
X20123Y192D01*
X20116Y191D01*
X20107Y188D01*
X20098Y185D01*
X20089Y180D01*
X20081Y173D01*
X20080Y172D01*
X20078Y169D01*
X20074Y164D01*
X20071Y158D01*
X20067Y150D01*
X20063Y140D01*
X20061Y129D01*
X20060Y116D01*
X20012Y121D01*
Y122D01*
X20012Y124D01*
Y126D01*
X20013Y130D01*
X20014Y135D01*
X20015Y140D01*
X20016Y146D01*
X20018Y152D01*
X20023Y165D01*
X20026Y172D01*
X20029Y179D01*
X20033Y186D01*
X20038Y192D01*
X20043Y198D01*
X20049Y204D01*
X20049Y204D01*
X20050Y205D01*
X20052Y206D01*
X20055Y208D01*
X20058Y210D01*
X20062Y213D01*
X20067Y215D01*
X20072Y218D01*
X20078Y221D01*
X20085Y223D01*
X20092Y226D01*
X20100Y228D01*
X20108Y230D01*
X20117Y231D01*
X20126Y232D01*
X20136Y232D01*
X20142D01*
X20145Y232D01*
D02*
G37*
G36*
X254Y-193D02*
X203D01*
Y-12D01*
X4D01*
Y-193D01*
X-47D01*
Y192D01*
X4D01*
Y33D01*
X203D01*
Y192D01*
X254D01*
Y-193D01*
D02*
G37*
G36*
X-131D02*
X-180D01*
Y129D01*
X-292Y-193D01*
X-338D01*
X-449Y135D01*
Y-193D01*
X-498D01*
Y192D01*
X-422D01*
X-331Y-81D01*
Y-82D01*
X-330Y-82D01*
X-330Y-84D01*
X-329Y-87D01*
X-328Y-91D01*
X-326Y-94D01*
X-324Y-103D01*
X-321Y-111D01*
X-318Y-121D01*
X-315Y-130D01*
X-312Y-138D01*
X-312Y-137D01*
X-311Y-134D01*
X-309Y-129D01*
X-307Y-122D01*
X-304Y-114D01*
X-301Y-103D01*
X-297Y-91D01*
X-292Y-76D01*
X-199Y192D01*
X-131D01*
Y-193D01*
D02*
G37*
G36*
X498D02*
X451D01*
Y108D01*
X450Y107D01*
X448Y105D01*
X444Y102D01*
X439Y98D01*
X432Y93D01*
X424Y87D01*
X416Y81D01*
X406Y75D01*
X405D01*
X405Y74D01*
X403Y74D01*
X401Y72D01*
X396Y69D01*
X389Y66D01*
X382Y62D01*
X373Y58D01*
X365Y54D01*
X356Y50D01*
Y97D01*
X357D01*
X358Y98D01*
X360Y99D01*
X363Y100D01*
X366Y102D01*
X370Y104D01*
X380Y109D01*
X390Y115D01*
X402Y124D01*
X414Y132D01*
X425Y142D01*
X426Y142D01*
X427Y143D01*
X428Y144D01*
X430Y146D01*
X435Y151D01*
X442Y158D01*
X448Y166D01*
X455Y174D01*
X462Y183D01*
X467Y193D01*
X498D01*
Y-193D01*
D02*
G37*
G36*
X24124Y6286D02*
X24127D01*
X24135Y6285D01*
X24144Y6283D01*
X24153Y6281D01*
X24163Y6278D01*
X24173Y6273D01*
X24174D01*
X24174Y6273D01*
X24176Y6272D01*
X24178Y6271D01*
X24182Y6268D01*
X24188Y6264D01*
X24195Y6258D01*
X24202Y6252D01*
X24208Y6245D01*
X24214Y6236D01*
Y6236D01*
X24214Y6235D01*
X24216Y6232D01*
X24218Y6227D01*
X24221Y6221D01*
X24224Y6214D01*
X24226Y6205D01*
X24228Y6196D01*
X24228Y6187D01*
Y6186D01*
Y6186D01*
Y6183D01*
X24228Y6178D01*
X24227Y6172D01*
X24225Y6165D01*
X24223Y6157D01*
X24219Y6149D01*
X24215Y6141D01*
X24214Y6140D01*
X24212Y6138D01*
X24209Y6134D01*
X24205Y6130D01*
X24199Y6124D01*
X24192Y6119D01*
X24184Y6114D01*
X24175Y6109D01*
X24176D01*
X24177Y6108D01*
X24179Y6108D01*
X24181Y6107D01*
X24184Y6106D01*
X24187Y6105D01*
X24195Y6102D01*
X24203Y6097D01*
X24212Y6091D01*
X24221Y6084D01*
X24228Y6076D01*
Y6075D01*
X24229Y6075D01*
X24230Y6073D01*
X24231Y6071D01*
X24233Y6069D01*
X24234Y6066D01*
X24238Y6059D01*
X24241Y6050D01*
X24244Y6039D01*
X24246Y6028D01*
X24247Y6014D01*
Y6014D01*
Y6012D01*
Y6009D01*
X24247Y6006D01*
X24246Y6001D01*
X24245Y5996D01*
X24244Y5991D01*
X24243Y5985D01*
X24241Y5978D01*
X24238Y5971D01*
X24235Y5964D01*
X24232Y5957D01*
X24227Y5950D01*
X24222Y5942D01*
X24217Y5935D01*
X24210Y5929D01*
X24210Y5928D01*
X24209Y5927D01*
X24207Y5926D01*
X24204Y5923D01*
X24200Y5921D01*
X24196Y5918D01*
X24191Y5915D01*
X24185Y5912D01*
X24179Y5908D01*
X24172Y5905D01*
X24164Y5902D01*
X24156Y5900D01*
X24147Y5897D01*
X24138Y5896D01*
X24128Y5895D01*
X24118Y5894D01*
X24113D01*
X24109Y5895D01*
X24105Y5895D01*
X24100Y5896D01*
X24094Y5897D01*
X24088Y5898D01*
X24075Y5902D01*
X24068Y5904D01*
X24061Y5907D01*
X24054Y5910D01*
X24047Y5914D01*
X24040Y5919D01*
X24034Y5924D01*
X24033Y5925D01*
X24032Y5926D01*
X24031Y5927D01*
X24028Y5930D01*
X24026Y5933D01*
X24023Y5936D01*
X24020Y5941D01*
X24016Y5945D01*
X24013Y5951D01*
X24010Y5957D01*
X24007Y5963D01*
X24004Y5970D01*
X24001Y5978D01*
X23999Y5985D01*
X23997Y5994D01*
X23996Y6003D01*
X24043Y6009D01*
Y6009D01*
X24043Y6007D01*
X24044Y6005D01*
X24044Y6003D01*
X24045Y5999D01*
X24046Y5996D01*
X24049Y5987D01*
X24053Y5977D01*
X24058Y5968D01*
X24063Y5958D01*
X24066Y5954D01*
X24070Y5951D01*
X24071Y5950D01*
X24073Y5948D01*
X24077Y5945D01*
X24083Y5942D01*
X24090Y5939D01*
X24098Y5936D01*
X24108Y5934D01*
X24118Y5933D01*
X24121D01*
X24123Y5934D01*
X24126D01*
X24130Y5934D01*
X24137Y5936D01*
X24146Y5939D01*
X24156Y5943D01*
X24165Y5949D01*
X24170Y5952D01*
X24174Y5956D01*
X24175Y5957D01*
X24175Y5957D01*
X24176Y5959D01*
X24178Y5960D01*
X24182Y5965D01*
X24186Y5972D01*
X24190Y5980D01*
X24194Y5990D01*
X24196Y6001D01*
X24197Y6007D01*
Y6013D01*
Y6014D01*
Y6015D01*
Y6016D01*
X24197Y6019D01*
Y6021D01*
X24196Y6025D01*
X24195Y6032D01*
X24192Y6041D01*
X24188Y6050D01*
X24183Y6058D01*
X24180Y6063D01*
X24176Y6067D01*
X24175Y6068D01*
X24172Y6070D01*
X24167Y6073D01*
X24161Y6077D01*
X24153Y6081D01*
X24144Y6084D01*
X24134Y6087D01*
X24122Y6088D01*
X24116D01*
X24113Y6087D01*
X24108Y6087D01*
X24102Y6086D01*
X24095Y6084D01*
X24088Y6083D01*
X24094Y6124D01*
X24095D01*
X24096Y6124D01*
X24099Y6123D01*
X24104D01*
X24106Y6124D01*
X24112Y6124D01*
X24119Y6125D01*
X24128Y6127D01*
X24137Y6130D01*
X24146Y6134D01*
X24155Y6139D01*
X24156D01*
X24156Y6140D01*
X24159Y6142D01*
X24163Y6146D01*
X24168Y6151D01*
X24172Y6158D01*
X24176Y6166D01*
X24179Y6176D01*
X24179Y6182D01*
X24180Y6188D01*
Y6188D01*
Y6189D01*
X24179Y6192D01*
X24179Y6197D01*
X24178Y6203D01*
X24175Y6209D01*
X24172Y6216D01*
X24168Y6224D01*
X24162Y6230D01*
X24161Y6231D01*
X24159Y6233D01*
X24155Y6236D01*
X24150Y6239D01*
X24143Y6242D01*
X24135Y6245D01*
X24127Y6247D01*
X24117Y6248D01*
X24114D01*
X24112Y6247D01*
X24107Y6247D01*
X24100Y6246D01*
X24093Y6243D01*
X24085Y6240D01*
X24078Y6236D01*
X24070Y6230D01*
X24069Y6229D01*
X24067Y6227D01*
X24064Y6223D01*
X24061Y6217D01*
X24057Y6210D01*
X24053Y6201D01*
X24050Y6191D01*
X24047Y6179D01*
X24000Y6187D01*
Y6188D01*
X24001Y6189D01*
X24001Y6192D01*
X24002Y6195D01*
X24003Y6199D01*
X24005Y6204D01*
X24006Y6209D01*
X24008Y6214D01*
X24014Y6226D01*
X24020Y6238D01*
X24029Y6250D01*
X24034Y6255D01*
X24039Y6260D01*
X24040Y6261D01*
X24041Y6261D01*
X24042Y6263D01*
X24045Y6264D01*
X24048Y6266D01*
X24051Y6269D01*
X24056Y6271D01*
X24060Y6274D01*
X24066Y6276D01*
X24071Y6278D01*
X24084Y6283D01*
X24099Y6286D01*
X24107Y6286D01*
X24116Y6287D01*
X24121D01*
X24124Y6286D01*
D02*
G37*
G36*
X23930Y6063D02*
Y6062D01*
Y6060D01*
Y6057D01*
Y6053D01*
X23929Y6048D01*
Y6043D01*
X23929Y6036D01*
X23928Y6030D01*
X23926Y6015D01*
X23924Y5999D01*
X23921Y5984D01*
X23919Y5977D01*
X23916Y5971D01*
Y5970D01*
X23916Y5969D01*
X23915Y5967D01*
X23914Y5965D01*
X23912Y5962D01*
X23910Y5959D01*
X23905Y5951D01*
X23899Y5942D01*
X23891Y5933D01*
X23881Y5924D01*
X23875Y5919D01*
X23869Y5915D01*
X23868D01*
X23867Y5914D01*
X23865Y5913D01*
X23863Y5912D01*
X23859Y5910D01*
X23855Y5909D01*
X23850Y5907D01*
X23845Y5905D01*
X23839Y5903D01*
X23832Y5901D01*
X23825Y5899D01*
X23817Y5898D01*
X23808Y5896D01*
X23799Y5895D01*
X23789Y5895D01*
X23779Y5894D01*
X23774D01*
X23770Y5895D01*
X23766D01*
X23760Y5895D01*
X23754Y5896D01*
X23748Y5897D01*
X23734Y5899D01*
X23719Y5902D01*
X23704Y5907D01*
X23691Y5913D01*
X23690D01*
X23689Y5914D01*
X23687Y5915D01*
X23685Y5916D01*
X23679Y5920D01*
X23672Y5926D01*
X23664Y5934D01*
X23656Y5943D01*
X23648Y5954D01*
X23642Y5966D01*
Y5967D01*
X23641Y5968D01*
X23640Y5970D01*
X23640Y5973D01*
X23638Y5976D01*
X23637Y5981D01*
X23636Y5986D01*
X23635Y5992D01*
X23633Y5998D01*
X23632Y6005D01*
X23631Y6013D01*
X23630Y6022D01*
X23629Y6031D01*
X23628Y6041D01*
X23627Y6052D01*
Y6063D01*
Y6285D01*
X23678D01*
Y6063D01*
Y6063D01*
Y6061D01*
Y6058D01*
Y6055D01*
X23679Y6051D01*
Y6046D01*
X23679Y6041D01*
Y6035D01*
X23680Y6023D01*
X23682Y6011D01*
X23684Y5999D01*
X23686Y5994D01*
X23687Y5989D01*
Y5989D01*
X23688Y5988D01*
X23689Y5985D01*
X23691Y5981D01*
X23695Y5976D01*
X23699Y5970D01*
X23705Y5964D01*
X23711Y5958D01*
X23719Y5953D01*
X23720D01*
X23720Y5952D01*
X23723Y5951D01*
X23728Y5949D01*
X23735Y5947D01*
X23743Y5944D01*
X23752Y5942D01*
X23763Y5941D01*
X23775Y5940D01*
X23780D01*
X23784Y5941D01*
X23788Y5941D01*
X23794Y5942D01*
X23800Y5942D01*
X23806Y5943D01*
X23819Y5946D01*
X23832Y5951D01*
X23838Y5954D01*
X23844Y5957D01*
X23850Y5961D01*
X23855Y5965D01*
X23855Y5966D01*
X23856Y5967D01*
X23857Y5968D01*
X23859Y5970D01*
X23860Y5973D01*
X23862Y5977D01*
X23865Y5982D01*
X23867Y5987D01*
X23869Y5993D01*
X23871Y6000D01*
X23873Y6008D01*
X23875Y6017D01*
X23877Y6027D01*
X23878Y6038D01*
X23878Y6050D01*
X23879Y6063D01*
Y6285D01*
X23930D01*
Y6063D01*
D02*
G37*
G36*
X10939Y14657D02*
Y14657D01*
Y14655D01*
Y14652D01*
Y14648D01*
X10939Y14643D01*
Y14637D01*
X10938Y14631D01*
X10938Y14624D01*
X10936Y14609D01*
X10934Y14594D01*
X10930Y14579D01*
X10928Y14572D01*
X10926Y14565D01*
Y14565D01*
X10925Y14564D01*
X10924Y14562D01*
X10923Y14560D01*
X10922Y14557D01*
X10920Y14553D01*
X10915Y14546D01*
X10908Y14537D01*
X10900Y14528D01*
X10890Y14518D01*
X10884Y14514D01*
X10878Y14510D01*
X10878D01*
X10877Y14509D01*
X10875Y14508D01*
X10872Y14506D01*
X10869Y14505D01*
X10865Y14503D01*
X10860Y14501D01*
X10854Y14499D01*
X10848Y14497D01*
X10841Y14495D01*
X10834Y14494D01*
X10826Y14492D01*
X10818Y14491D01*
X10809Y14490D01*
X10799Y14489D01*
X10789Y14489D01*
X10784D01*
X10780Y14489D01*
X10775D01*
X10770Y14490D01*
X10764Y14490D01*
X10757Y14491D01*
X10743Y14493D01*
X10729Y14497D01*
X10714Y14501D01*
X10700Y14507D01*
X10700D01*
X10699Y14508D01*
X10697Y14509D01*
X10695Y14511D01*
X10689Y14515D01*
X10681Y14521D01*
X10673Y14528D01*
X10665Y14538D01*
X10658Y14548D01*
X10651Y14561D01*
Y14561D01*
X10651Y14562D01*
X10650Y14564D01*
X10649Y14567D01*
X10648Y14571D01*
X10647Y14575D01*
X10645Y14580D01*
X10644Y14586D01*
X10643Y14593D01*
X10641Y14600D01*
X10640Y14608D01*
X10639Y14616D01*
X10638Y14626D01*
X10637Y14636D01*
X10637Y14646D01*
Y14657D01*
Y14880D01*
X10688D01*
Y14658D01*
Y14657D01*
Y14656D01*
Y14653D01*
Y14650D01*
X10688Y14645D01*
Y14641D01*
X10689Y14635D01*
Y14630D01*
X10690Y14618D01*
X10692Y14605D01*
X10694Y14594D01*
X10695Y14589D01*
X10697Y14584D01*
Y14583D01*
X10697Y14583D01*
X10699Y14580D01*
X10701Y14576D01*
X10704Y14570D01*
X10709Y14565D01*
X10714Y14558D01*
X10721Y14553D01*
X10729Y14547D01*
X10729D01*
X10730Y14547D01*
X10733Y14545D01*
X10738Y14543D01*
X10744Y14541D01*
X10752Y14539D01*
X10762Y14537D01*
X10772Y14535D01*
X10784Y14535D01*
X10790D01*
X10793Y14535D01*
X10798Y14536D01*
X10803Y14536D01*
X10809Y14537D01*
X10815Y14538D01*
X10828Y14541D01*
X10842Y14545D01*
X10848Y14548D01*
X10854Y14552D01*
X10859Y14555D01*
X10864Y14560D01*
X10865Y14560D01*
X10865Y14561D01*
X10866Y14563D01*
X10868Y14565D01*
X10870Y14568D01*
X10872Y14572D01*
X10874Y14576D01*
X10876Y14582D01*
X10879Y14588D01*
X10881Y14595D01*
X10883Y14603D01*
X10885Y14612D01*
X10886Y14622D01*
X10887Y14633D01*
X10888Y14645D01*
X10888Y14658D01*
Y14880D01*
X10939D01*
Y14657D01*
D02*
G37*
G36*
X11141Y14881D02*
X11146Y14880D01*
X11151Y14880D01*
X11157Y14879D01*
X11164Y14877D01*
X11178Y14874D01*
X11185Y14871D01*
X11192Y14868D01*
X11200Y14865D01*
X11207Y14860D01*
X11213Y14856D01*
X11220Y14850D01*
X11220Y14850D01*
X11221Y14849D01*
X11223Y14847D01*
X11225Y14845D01*
X11227Y14842D01*
X11230Y14838D01*
X11233Y14834D01*
X11236Y14829D01*
X11239Y14824D01*
X11242Y14818D01*
X11247Y14805D01*
X11249Y14798D01*
X11251Y14791D01*
X11252Y14783D01*
X11252Y14774D01*
Y14773D01*
Y14770D01*
X11252Y14766D01*
X11251Y14760D01*
X11250Y14753D01*
X11248Y14745D01*
X11246Y14737D01*
X11243Y14729D01*
X11242Y14728D01*
X11241Y14725D01*
X11239Y14720D01*
X11235Y14715D01*
X11231Y14708D01*
X11225Y14700D01*
X11219Y14691D01*
X11211Y14682D01*
Y14681D01*
X11210Y14681D01*
X11209Y14679D01*
X11207Y14677D01*
X11205Y14675D01*
X11202Y14672D01*
X11198Y14668D01*
X11194Y14664D01*
X11189Y14660D01*
X11184Y14655D01*
X11178Y14649D01*
X11171Y14643D01*
X11164Y14636D01*
X11156Y14630D01*
X11147Y14622D01*
X11138Y14614D01*
X11138Y14614D01*
X11136Y14613D01*
X11134Y14611D01*
X11131Y14609D01*
X11128Y14606D01*
X11124Y14602D01*
X11116Y14595D01*
X11106Y14587D01*
X11097Y14579D01*
X11093Y14575D01*
X11090Y14572D01*
X11086Y14568D01*
X11084Y14566D01*
X11083Y14565D01*
X11082Y14564D01*
X11080Y14561D01*
X11077Y14558D01*
X11074Y14554D01*
X11070Y14550D01*
X11064Y14541D01*
X11253D01*
Y14495D01*
X10998D01*
Y14496D01*
Y14498D01*
Y14501D01*
X10999Y14506D01*
X10999Y14511D01*
X11000Y14516D01*
X11002Y14522D01*
X11004Y14528D01*
Y14528D01*
X11004Y14529D01*
X11005Y14530D01*
X11006Y14532D01*
X11008Y14537D01*
X11011Y14544D01*
X11016Y14552D01*
X11021Y14560D01*
X11027Y14569D01*
X11035Y14579D01*
X11035Y14579D01*
X11036Y14580D01*
X11037Y14581D01*
X11039Y14583D01*
X11044Y14589D01*
X11051Y14596D01*
X11059Y14604D01*
X11070Y14614D01*
X11082Y14625D01*
X11097Y14637D01*
X11097Y14638D01*
X11099Y14640D01*
X11103Y14642D01*
X11107Y14646D01*
X11112Y14650D01*
X11118Y14655D01*
X11124Y14661D01*
X11131Y14667D01*
X11145Y14680D01*
X11159Y14693D01*
X11165Y14700D01*
X11171Y14707D01*
X11177Y14713D01*
X11181Y14719D01*
X11182Y14719D01*
X11182Y14720D01*
X11183Y14722D01*
X11185Y14724D01*
X11186Y14727D01*
X11188Y14730D01*
X11193Y14737D01*
X11197Y14746D01*
X11200Y14755D01*
X11203Y14766D01*
X11204Y14771D01*
Y14776D01*
Y14776D01*
Y14777D01*
Y14778D01*
X11203Y14780D01*
X11203Y14786D01*
X11201Y14792D01*
X11199Y14800D01*
X11195Y14807D01*
X11190Y14815D01*
X11183Y14823D01*
X11182Y14824D01*
X11180Y14826D01*
X11175Y14829D01*
X11169Y14833D01*
X11162Y14836D01*
X11153Y14839D01*
X11142Y14841D01*
X11131Y14842D01*
X11127D01*
X11125Y14842D01*
X11122D01*
X11119Y14841D01*
X11111Y14840D01*
X11103Y14837D01*
X11093Y14834D01*
X11084Y14829D01*
X11076Y14822D01*
X11075Y14821D01*
X11073Y14818D01*
X11070Y14813D01*
X11066Y14807D01*
X11062Y14799D01*
X11059Y14789D01*
X11057Y14778D01*
X11056Y14765D01*
X11007Y14770D01*
Y14771D01*
X11008Y14773D01*
Y14775D01*
X11008Y14779D01*
X11009Y14784D01*
X11010Y14789D01*
X11012Y14795D01*
X11014Y14801D01*
X11018Y14814D01*
X11021Y14821D01*
X11025Y14828D01*
X11029Y14835D01*
X11033Y14841D01*
X11038Y14847D01*
X11044Y14853D01*
X11045Y14853D01*
X11046Y14854D01*
X11048Y14855D01*
X11050Y14857D01*
X11054Y14859D01*
X11058Y14862D01*
X11062Y14864D01*
X11068Y14867D01*
X11074Y14870D01*
X11080Y14872D01*
X11087Y14875D01*
X11095Y14877D01*
X11103Y14879D01*
X11112Y14880D01*
X11122Y14881D01*
X11132Y14881D01*
X11137D01*
X11141Y14881D01*
D02*
G37*
G36*
X23909Y1873D02*
Y1873D01*
Y1871D01*
Y1868D01*
Y1864D01*
X23909Y1859D01*
Y1853D01*
X23908Y1847D01*
X23908Y1840D01*
X23906Y1825D01*
X23904Y1810D01*
X23900Y1795D01*
X23898Y1788D01*
X23896Y1781D01*
Y1781D01*
X23895Y1780D01*
X23894Y1778D01*
X23893Y1776D01*
X23892Y1773D01*
X23890Y1769D01*
X23885Y1762D01*
X23878Y1753D01*
X23870Y1744D01*
X23860Y1734D01*
X23854Y1730D01*
X23848Y1726D01*
X23848D01*
X23847Y1725D01*
X23845Y1724D01*
X23842Y1722D01*
X23839Y1721D01*
X23835Y1719D01*
X23830Y1717D01*
X23824Y1715D01*
X23818Y1713D01*
X23811Y1711D01*
X23804Y1710D01*
X23796Y1708D01*
X23788Y1707D01*
X23779Y1706D01*
X23769Y1705D01*
X23759Y1705D01*
X23754D01*
X23750Y1705D01*
X23745D01*
X23740Y1706D01*
X23734Y1706D01*
X23727Y1707D01*
X23713Y1709D01*
X23699Y1713D01*
X23684Y1717D01*
X23670Y1723D01*
X23670D01*
X23669Y1724D01*
X23667Y1725D01*
X23665Y1727D01*
X23659Y1731D01*
X23651Y1737D01*
X23643Y1744D01*
X23635Y1754D01*
X23628Y1764D01*
X23621Y1777D01*
Y1777D01*
X23621Y1778D01*
X23620Y1780D01*
X23619Y1783D01*
X23618Y1787D01*
X23617Y1791D01*
X23615Y1796D01*
X23614Y1802D01*
X23613Y1809D01*
X23611Y1816D01*
X23610Y1824D01*
X23609Y1832D01*
X23608Y1842D01*
X23607Y1852D01*
X23607Y1862D01*
Y1873D01*
Y2096D01*
X23658D01*
Y1874D01*
Y1873D01*
Y1872D01*
Y1869D01*
Y1866D01*
X23658Y1861D01*
Y1857D01*
X23659Y1851D01*
Y1846D01*
X23660Y1834D01*
X23662Y1821D01*
X23664Y1810D01*
X23665Y1805D01*
X23667Y1800D01*
Y1799D01*
X23667Y1799D01*
X23669Y1796D01*
X23671Y1792D01*
X23674Y1786D01*
X23679Y1781D01*
X23684Y1774D01*
X23691Y1769D01*
X23699Y1763D01*
X23699D01*
X23700Y1763D01*
X23703Y1761D01*
X23708Y1759D01*
X23714Y1757D01*
X23722Y1755D01*
X23732Y1753D01*
X23742Y1751D01*
X23754Y1751D01*
X23760D01*
X23763Y1751D01*
X23768Y1752D01*
X23773Y1752D01*
X23779Y1753D01*
X23785Y1754D01*
X23798Y1757D01*
X23812Y1761D01*
X23818Y1764D01*
X23824Y1768D01*
X23829Y1771D01*
X23834Y1776D01*
X23835Y1776D01*
X23835Y1777D01*
X23836Y1779D01*
X23838Y1781D01*
X23840Y1784D01*
X23842Y1788D01*
X23844Y1792D01*
X23846Y1798D01*
X23849Y1804D01*
X23851Y1811D01*
X23853Y1819D01*
X23855Y1828D01*
X23856Y1838D01*
X23857Y1849D01*
X23858Y1861D01*
X23858Y1874D01*
Y2096D01*
X23909D01*
Y1873D01*
D02*
G37*
G36*
X24153Y1711D02*
X24106D01*
Y2012D01*
X24105Y2011D01*
X24103Y2009D01*
X24099Y2006D01*
X24094Y2002D01*
X24087Y1997D01*
X24079Y1991D01*
X24071Y1985D01*
X24061Y1979D01*
X24060D01*
X24060Y1979D01*
X24058Y1978D01*
X24056Y1977D01*
X24051Y1974D01*
X24044Y1970D01*
X24037Y1966D01*
X24028Y1962D01*
X24020Y1958D01*
X24011Y1955D01*
Y2001D01*
X24012D01*
X24013Y2002D01*
X24015Y2003D01*
X24018Y2004D01*
X24021Y2006D01*
X24025Y2008D01*
X24035Y2013D01*
X24045Y2020D01*
X24057Y2028D01*
X24069Y2036D01*
X24080Y2046D01*
X24081Y2046D01*
X24082Y2047D01*
X24083Y2048D01*
X24085Y2050D01*
X24090Y2055D01*
X24097Y2062D01*
X24103Y2070D01*
X24110Y2079D01*
X24117Y2088D01*
X24122Y2097D01*
X24153D01*
Y1711D01*
D02*
G37*
G36*
X-736Y21970D02*
X-732D01*
X-727Y21969D01*
X-722Y21969D01*
X-710Y21967D01*
X-698Y21964D01*
X-685Y21961D01*
X-672Y21956D01*
X-672D01*
X-671Y21956D01*
X-669Y21955D01*
X-667Y21954D01*
X-661Y21950D01*
X-654Y21946D01*
X-645Y21940D01*
X-637Y21933D01*
X-629Y21925D01*
X-622Y21915D01*
Y21915D01*
X-621Y21914D01*
X-620Y21913D01*
X-619Y21911D01*
X-618Y21908D01*
X-616Y21905D01*
X-613Y21898D01*
X-609Y21889D01*
X-606Y21879D01*
X-604Y21867D01*
X-603Y21855D01*
X-652Y21852D01*
Y21852D01*
Y21853D01*
X-652Y21855D01*
X-653Y21858D01*
X-653Y21861D01*
X-654Y21864D01*
X-657Y21872D01*
X-660Y21881D01*
X-665Y21890D01*
X-671Y21899D01*
X-679Y21906D01*
X-680Y21907D01*
X-681Y21908D01*
X-683Y21909D01*
X-685Y21911D01*
X-688Y21912D01*
X-692Y21914D01*
X-695Y21916D01*
X-700Y21917D01*
X-705Y21919D01*
X-710Y21920D01*
X-716Y21922D01*
X-723Y21923D01*
X-730Y21924D01*
X-737Y21925D01*
X-753D01*
X-757Y21924D01*
X-761Y21924D01*
X-771Y21923D01*
X-782Y21921D01*
X-793Y21918D01*
X-803Y21913D01*
X-808Y21911D01*
X-812Y21908D01*
X-813Y21907D01*
X-816Y21905D01*
X-819Y21901D01*
X-823Y21896D01*
X-827Y21890D01*
X-830Y21883D01*
X-832Y21875D01*
X-833Y21867D01*
Y21866D01*
Y21863D01*
X-832Y21860D01*
X-831Y21855D01*
X-830Y21849D01*
X-827Y21844D01*
X-824Y21838D01*
X-819Y21833D01*
X-818Y21832D01*
X-817Y21831D01*
X-815Y21831D01*
X-813Y21829D01*
X-811Y21828D01*
X-807Y21826D01*
X-804Y21825D01*
X-799Y21823D01*
X-793Y21820D01*
X-787Y21818D01*
X-780Y21816D01*
X-772Y21813D01*
X-763Y21811D01*
X-753Y21808D01*
X-742Y21806D01*
X-742D01*
X-740Y21805D01*
X-736Y21804D01*
X-732Y21803D01*
X-727Y21802D01*
X-721Y21801D01*
X-715Y21799D01*
X-708Y21797D01*
X-694Y21794D01*
X-680Y21790D01*
X-674Y21787D01*
X-667Y21785D01*
X-662Y21783D01*
X-657Y21781D01*
X-657D01*
X-656Y21781D01*
X-654Y21780D01*
X-652Y21778D01*
X-646Y21775D01*
X-638Y21771D01*
X-630Y21765D01*
X-622Y21758D01*
X-614Y21750D01*
X-608Y21742D01*
Y21741D01*
X-607Y21741D01*
X-606Y21739D01*
X-605Y21738D01*
X-603Y21733D01*
X-599Y21726D01*
X-596Y21718D01*
X-594Y21709D01*
X-592Y21699D01*
X-591Y21687D01*
Y21687D01*
Y21686D01*
Y21684D01*
X-592Y21682D01*
Y21679D01*
X-592Y21676D01*
X-593Y21669D01*
X-596Y21660D01*
X-599Y21650D01*
X-603Y21640D01*
X-609Y21630D01*
Y21629D01*
X-610Y21629D01*
X-611Y21627D01*
X-612Y21625D01*
X-617Y21620D01*
X-622Y21614D01*
X-629Y21608D01*
X-638Y21601D01*
X-648Y21594D01*
X-660Y21588D01*
X-660D01*
X-661Y21587D01*
X-663Y21586D01*
X-665Y21585D01*
X-669Y21584D01*
X-672Y21583D01*
X-676Y21582D01*
X-681Y21580D01*
X-692Y21578D01*
X-704Y21575D01*
X-718Y21573D01*
X-733Y21573D01*
X-738D01*
X-742Y21573D01*
X-746D01*
X-752Y21574D01*
X-757Y21574D01*
X-764Y21575D01*
X-777Y21576D01*
X-792Y21579D01*
X-807Y21583D01*
X-821Y21588D01*
X-821D01*
X-822Y21588D01*
X-824Y21589D01*
X-827Y21591D01*
X-829Y21592D01*
X-833Y21594D01*
X-841Y21599D01*
X-850Y21606D01*
X-859Y21614D01*
X-868Y21623D01*
X-876Y21634D01*
Y21634D01*
X-877Y21635D01*
X-878Y21637D01*
X-879Y21639D01*
X-880Y21642D01*
X-882Y21645D01*
X-884Y21649D01*
X-886Y21654D01*
X-890Y21664D01*
X-893Y21676D01*
X-896Y21689D01*
X-897Y21703D01*
X-849Y21707D01*
Y21707D01*
Y21706D01*
X-848Y21704D01*
Y21702D01*
X-847Y21697D01*
X-846Y21690D01*
X-844Y21683D01*
X-841Y21675D01*
X-837Y21667D01*
X-833Y21659D01*
X-833Y21658D01*
X-831Y21656D01*
X-828Y21653D01*
X-824Y21649D01*
X-818Y21644D01*
X-812Y21639D01*
X-804Y21634D01*
X-795Y21629D01*
X-794D01*
X-794Y21629D01*
X-792Y21628D01*
X-790Y21628D01*
X-788Y21627D01*
X-785Y21626D01*
X-777Y21624D01*
X-769Y21622D01*
X-759Y21620D01*
X-748Y21619D01*
X-736Y21618D01*
X-731D01*
X-725Y21619D01*
X-718Y21619D01*
X-711Y21620D01*
X-702Y21622D01*
X-693Y21624D01*
X-685Y21627D01*
X-684D01*
X-684Y21627D01*
X-681Y21628D01*
X-677Y21630D01*
X-672Y21633D01*
X-667Y21636D01*
X-661Y21640D01*
X-656Y21645D01*
X-651Y21650D01*
X-651Y21651D01*
X-650Y21653D01*
X-648Y21656D01*
X-646Y21660D01*
X-644Y21665D01*
X-642Y21671D01*
X-641Y21677D01*
X-640Y21683D01*
Y21684D01*
Y21686D01*
X-641Y21690D01*
X-642Y21694D01*
X-643Y21699D01*
X-645Y21704D01*
X-648Y21710D01*
X-651Y21715D01*
X-652Y21715D01*
X-653Y21717D01*
X-656Y21720D01*
X-659Y21723D01*
X-664Y21726D01*
X-670Y21730D01*
X-677Y21734D01*
X-686Y21737D01*
X-687Y21738D01*
X-689Y21738D01*
X-691Y21739D01*
X-693Y21740D01*
X-696Y21741D01*
X-700Y21742D01*
X-704Y21743D01*
X-709Y21744D01*
X-715Y21746D01*
X-721Y21748D01*
X-728Y21749D01*
X-736Y21751D01*
X-745Y21753D01*
X-754Y21756D01*
X-755D01*
X-757Y21756D01*
X-759Y21757D01*
X-763Y21758D01*
X-767Y21759D01*
X-772Y21760D01*
X-783Y21764D01*
X-795Y21767D01*
X-808Y21772D01*
X-819Y21776D01*
X-824Y21778D01*
X-828Y21780D01*
X-829D01*
X-829Y21781D01*
X-831Y21782D01*
X-833Y21783D01*
X-838Y21786D01*
X-844Y21790D01*
X-850Y21795D01*
X-857Y21801D01*
X-864Y21808D01*
X-869Y21816D01*
Y21816D01*
X-870Y21817D01*
X-871Y21820D01*
X-873Y21824D01*
X-876Y21830D01*
X-878Y21837D01*
X-880Y21845D01*
X-882Y21854D01*
X-882Y21864D01*
Y21864D01*
Y21865D01*
Y21867D01*
X-882Y21869D01*
X-881Y21874D01*
X-880Y21882D01*
X-878Y21890D01*
X-875Y21899D01*
X-871Y21909D01*
X-866Y21918D01*
Y21919D01*
X-865Y21919D01*
X-863Y21922D01*
X-859Y21927D01*
X-854Y21933D01*
X-847Y21939D01*
X-839Y21945D01*
X-829Y21951D01*
X-818Y21957D01*
X-817D01*
X-816Y21957D01*
X-815Y21958D01*
X-812Y21959D01*
X-809Y21960D01*
X-806Y21961D01*
X-802Y21962D01*
X-797Y21964D01*
X-787Y21966D01*
X-775Y21968D01*
X-761Y21970D01*
X-747Y21970D01*
X-740D01*
X-736Y21970D01*
D02*
G37*
G36*
X-363Y21579D02*
X-410D01*
Y21880D01*
X-411Y21879D01*
X-413Y21877D01*
X-417Y21874D01*
X-422Y21870D01*
X-429Y21865D01*
X-437Y21859D01*
X-445Y21853D01*
X-455Y21847D01*
X-456D01*
X-456Y21847D01*
X-458Y21846D01*
X-460Y21845D01*
X-465Y21842D01*
X-472Y21838D01*
X-479Y21834D01*
X-488Y21830D01*
X-496Y21826D01*
X-505Y21823D01*
Y21869D01*
X-504D01*
X-503Y21870D01*
X-501Y21871D01*
X-498Y21872D01*
X-495Y21874D01*
X-491Y21876D01*
X-481Y21881D01*
X-471Y21888D01*
X-459Y21896D01*
X-447Y21904D01*
X-436Y21914D01*
X-435Y21914D01*
X-434Y21915D01*
X-433Y21916D01*
X-431Y21918D01*
X-426Y21923D01*
X-419Y21930D01*
X-413Y21938D01*
X-406Y21947D01*
X-399Y21956D01*
X-394Y21965D01*
X-363D01*
Y21579D01*
D02*
G37*
G36*
X2762Y22160D02*
X2766Y22159D01*
X2771Y22158D01*
X2777Y22157D01*
X2783Y22156D01*
X2789Y22154D01*
X2796Y22151D01*
X2803Y22148D01*
X2811Y22145D01*
X2818Y22140D01*
X2825Y22135D01*
X2832Y22130D01*
X2839Y22123D01*
X2839Y22123D01*
X2840Y22122D01*
X2842Y22120D01*
X2844Y22117D01*
X2847Y22113D01*
X2850Y22109D01*
X2853Y22104D01*
X2856Y22098D01*
X2859Y22092D01*
X2862Y22085D01*
X2865Y22077D01*
X2868Y22069D01*
X2870Y22060D01*
X2872Y22051D01*
X2873Y22041D01*
X2873Y22031D01*
Y22026D01*
X2873Y22022D01*
X2872Y22018D01*
X2872Y22013D01*
X2871Y22007D01*
X2869Y22001D01*
X2866Y21988D01*
X2863Y21981D01*
X2861Y21974D01*
X2857Y21967D01*
X2853Y21960D01*
X2849Y21953D01*
X2843Y21947D01*
X2843Y21946D01*
X2842Y21945D01*
X2840Y21944D01*
X2838Y21941D01*
X2835Y21939D01*
X2831Y21936D01*
X2827Y21933D01*
X2822Y21929D01*
X2817Y21926D01*
X2811Y21923D01*
X2804Y21920D01*
X2797Y21917D01*
X2790Y21914D01*
X2782Y21912D01*
X2774Y21910D01*
X2765Y21909D01*
X2758Y21956D01*
X2759D01*
X2760Y21956D01*
X2762Y21957D01*
X2765Y21957D01*
X2768Y21958D01*
X2772Y21959D01*
X2781Y21962D01*
X2790Y21966D01*
X2800Y21971D01*
X2809Y21976D01*
X2813Y21979D01*
X2817Y21983D01*
X2817Y21984D01*
X2819Y21986D01*
X2822Y21990D01*
X2825Y21996D01*
X2829Y22003D01*
X2831Y22011D01*
X2833Y22021D01*
X2834Y22031D01*
Y22034D01*
X2834Y22036D01*
Y22039D01*
X2833Y22043D01*
X2831Y22050D01*
X2829Y22059D01*
X2825Y22069D01*
X2819Y22078D01*
X2815Y22083D01*
X2811Y22087D01*
X2811Y22088D01*
X2810Y22088D01*
X2809Y22089D01*
X2807Y22091D01*
X2802Y22095D01*
X2795Y22099D01*
X2787Y22103D01*
X2777Y22107D01*
X2766Y22109D01*
X2760Y22110D01*
X2754D01*
X2754D01*
X2753D01*
X2751D01*
X2749Y22110D01*
X2746D01*
X2743Y22109D01*
X2735Y22108D01*
X2727Y22105D01*
X2718Y22101D01*
X2709Y22096D01*
X2705Y22093D01*
X2701Y22089D01*
X2700Y22088D01*
X2697Y22085D01*
X2694Y22080D01*
X2690Y22074D01*
X2686Y22066D01*
X2683Y22057D01*
X2681Y22047D01*
X2680Y22035D01*
Y22029D01*
X2680Y22026D01*
X2681Y22021D01*
X2682Y22015D01*
X2683Y22008D01*
X2685Y22001D01*
X2643Y22007D01*
Y22008D01*
X2644Y22009D01*
X2644Y22012D01*
Y22017D01*
X2644Y22019D01*
X2643Y22025D01*
X2642Y22032D01*
X2640Y22041D01*
X2638Y22050D01*
X2634Y22059D01*
X2629Y22068D01*
Y22069D01*
X2628Y22069D01*
X2626Y22072D01*
X2622Y22076D01*
X2617Y22081D01*
X2610Y22085D01*
X2601Y22089D01*
X2591Y22092D01*
X2586Y22092D01*
X2580Y22093D01*
X2579D01*
X2579D01*
X2575Y22092D01*
X2571Y22092D01*
X2565Y22091D01*
X2558Y22088D01*
X2551Y22085D01*
X2544Y22081D01*
X2537Y22075D01*
X2536Y22074D01*
X2534Y22072D01*
X2532Y22068D01*
X2528Y22063D01*
X2525Y22056D01*
X2522Y22048D01*
X2520Y22040D01*
X2520Y22030D01*
Y22027D01*
X2520Y22025D01*
X2521Y22020D01*
X2522Y22013D01*
X2524Y22006D01*
X2527Y21998D01*
X2531Y21991D01*
X2537Y21983D01*
X2538Y21982D01*
X2540Y21980D01*
X2544Y21977D01*
X2550Y21974D01*
X2557Y21970D01*
X2566Y21966D01*
X2577Y21963D01*
X2589Y21960D01*
X2580Y21913D01*
X2580D01*
X2578Y21914D01*
X2576Y21914D01*
X2572Y21915D01*
X2569Y21916D01*
X2564Y21918D01*
X2559Y21919D01*
X2553Y21921D01*
X2542Y21927D01*
X2530Y21933D01*
X2518Y21942D01*
X2512Y21947D01*
X2507Y21952D01*
X2507Y21953D01*
X2506Y21954D01*
X2505Y21955D01*
X2503Y21958D01*
X2501Y21961D01*
X2499Y21964D01*
X2496Y21969D01*
X2494Y21973D01*
X2492Y21979D01*
X2489Y21984D01*
X2485Y21997D01*
X2482Y22012D01*
X2481Y22020D01*
X2481Y22029D01*
Y22034D01*
X2481Y22037D01*
Y22040D01*
X2482Y22048D01*
X2484Y22057D01*
X2486Y22066D01*
X2490Y22076D01*
X2494Y22086D01*
Y22087D01*
X2495Y22087D01*
X2496Y22089D01*
X2497Y22091D01*
X2500Y22095D01*
X2504Y22101D01*
X2509Y22108D01*
X2516Y22115D01*
X2523Y22121D01*
X2531Y22127D01*
X2532D01*
X2532Y22127D01*
X2535Y22129D01*
X2540Y22131D01*
X2546Y22134D01*
X2554Y22137D01*
X2562Y22139D01*
X2571Y22141D01*
X2581Y22141D01*
X2581D01*
X2582D01*
X2585D01*
X2590Y22141D01*
X2596Y22140D01*
X2603Y22138D01*
X2610Y22136D01*
X2618Y22132D01*
X2626Y22128D01*
X2627Y22127D01*
X2630Y22125D01*
X2633Y22122D01*
X2638Y22118D01*
X2643Y22112D01*
X2649Y22105D01*
X2654Y22097D01*
X2659Y22088D01*
Y22089D01*
X2659Y22090D01*
X2660Y22092D01*
X2660Y22094D01*
X2661Y22097D01*
X2663Y22100D01*
X2666Y22108D01*
X2670Y22116D01*
X2676Y22125D01*
X2683Y22134D01*
X2692Y22141D01*
X2692D01*
X2693Y22142D01*
X2694Y22143D01*
X2696Y22144D01*
X2699Y22146D01*
X2701Y22147D01*
X2709Y22151D01*
X2718Y22154D01*
X2728Y22157D01*
X2740Y22159D01*
X2753Y22160D01*
X2754D01*
X2755D01*
X2758D01*
X2762Y22160D01*
D02*
G37*
G36*
X2867Y21815D02*
X2787Y21764D01*
X2787D01*
X2786Y21763D01*
X2784Y21762D01*
X2782Y21761D01*
X2779Y21759D01*
X2775Y21756D01*
X2768Y21751D01*
X2759Y21745D01*
X2751Y21739D01*
X2742Y21733D01*
X2735Y21727D01*
X2734Y21727D01*
X2732Y21725D01*
X2728Y21722D01*
X2725Y21719D01*
X2720Y21715D01*
X2716Y21710D01*
X2712Y21706D01*
X2709Y21701D01*
X2708Y21701D01*
X2708Y21699D01*
X2706Y21697D01*
X2705Y21694D01*
X2703Y21691D01*
X2701Y21687D01*
X2698Y21678D01*
Y21678D01*
X2698Y21677D01*
Y21675D01*
X2697Y21672D01*
X2697Y21668D01*
Y21663D01*
X2696Y21657D01*
Y21591D01*
X2867D01*
Y21540D01*
X2482D01*
Y21719D01*
X2483Y21724D01*
Y21728D01*
X2483Y21734D01*
X2484Y21740D01*
X2485Y21752D01*
X2487Y21765D01*
X2489Y21778D01*
X2491Y21784D01*
X2493Y21789D01*
Y21789D01*
X2493Y21790D01*
X2494Y21791D01*
X2495Y21793D01*
X2497Y21798D01*
X2501Y21804D01*
X2506Y21811D01*
X2513Y21818D01*
X2521Y21825D01*
X2530Y21832D01*
X2530D01*
X2531Y21832D01*
X2532Y21833D01*
X2534Y21834D01*
X2540Y21837D01*
X2547Y21840D01*
X2555Y21843D01*
X2565Y21845D01*
X2576Y21847D01*
X2588Y21848D01*
X2588D01*
X2590D01*
X2592D01*
X2595Y21847D01*
X2598Y21847D01*
X2602Y21846D01*
X2612Y21844D01*
X2623Y21841D01*
X2634Y21837D01*
X2640Y21834D01*
X2646Y21830D01*
X2651Y21826D01*
X2657Y21821D01*
X2657Y21821D01*
X2658Y21820D01*
X2659Y21818D01*
X2661Y21816D01*
X2663Y21813D01*
X2666Y21810D01*
X2669Y21806D01*
X2672Y21801D01*
X2675Y21796D01*
X2678Y21790D01*
X2681Y21783D01*
X2684Y21775D01*
X2686Y21767D01*
X2689Y21759D01*
X2691Y21749D01*
X2692Y21739D01*
X2693Y21740D01*
X2694Y21743D01*
X2696Y21746D01*
X2698Y21751D01*
X2705Y21761D01*
X2708Y21765D01*
X2712Y21770D01*
Y21770D01*
X2713Y21771D01*
X2715Y21774D01*
X2720Y21778D01*
X2726Y21784D01*
X2733Y21790D01*
X2742Y21797D01*
X2752Y21805D01*
X2763Y21812D01*
X2867Y21879D01*
Y21815D01*
D02*
G37*
G36*
X3188Y20271D02*
X3193Y20271D01*
X3199Y20270D01*
X3205Y20269D01*
X3211Y20268D01*
X3225Y20264D01*
X3232Y20262D01*
X3240Y20259D01*
X3247Y20255D01*
X3254Y20251D01*
X3261Y20246D01*
X3267Y20241D01*
X3268Y20240D01*
X3269Y20239D01*
X3270Y20238D01*
X3272Y20235D01*
X3275Y20232D01*
X3278Y20229D01*
X3280Y20225D01*
X3284Y20220D01*
X3287Y20215D01*
X3289Y20209D01*
X3295Y20196D01*
X3297Y20189D01*
X3298Y20181D01*
X3299Y20173D01*
X3300Y20165D01*
Y20164D01*
Y20161D01*
X3299Y20156D01*
X3299Y20150D01*
X3297Y20144D01*
X3296Y20136D01*
X3293Y20128D01*
X3290Y20119D01*
X3290Y20118D01*
X3288Y20115D01*
X3286Y20111D01*
X3283Y20105D01*
X3278Y20098D01*
X3273Y20090D01*
X3266Y20081D01*
X3259Y20072D01*
Y20072D01*
X3258Y20071D01*
X3256Y20070D01*
X3255Y20068D01*
X3252Y20065D01*
X3249Y20062D01*
X3246Y20059D01*
X3241Y20055D01*
X3237Y20050D01*
X3231Y20045D01*
X3225Y20039D01*
X3219Y20033D01*
X3211Y20027D01*
X3204Y20020D01*
X3195Y20013D01*
X3186Y20005D01*
X3185Y20004D01*
X3184Y20003D01*
X3182Y20001D01*
X3179Y19999D01*
X3176Y19996D01*
X3172Y19993D01*
X3163Y19985D01*
X3154Y19977D01*
X3145Y19969D01*
X3141Y19966D01*
X3137Y19962D01*
X3134Y19959D01*
X3131Y19956D01*
X3131Y19956D01*
X3129Y19954D01*
X3127Y19952D01*
X3124Y19948D01*
X3121Y19945D01*
X3118Y19940D01*
X3111Y19931D01*
X3300D01*
Y19886D01*
X3046D01*
Y19887D01*
Y19889D01*
Y19892D01*
X3046Y19896D01*
X3047Y19901D01*
X3048Y19907D01*
X3049Y19912D01*
X3051Y19918D01*
Y19919D01*
X3052Y19919D01*
X3052Y19921D01*
X3053Y19923D01*
X3055Y19928D01*
X3059Y19934D01*
X3063Y19942D01*
X3068Y19951D01*
X3075Y19960D01*
X3082Y19969D01*
X3083Y19970D01*
X3083Y19970D01*
X3085Y19972D01*
X3086Y19974D01*
X3091Y19979D01*
X3098Y19986D01*
X3107Y19995D01*
X3117Y20005D01*
X3130Y20016D01*
X3144Y20028D01*
X3145Y20028D01*
X3147Y20030D01*
X3150Y20033D01*
X3154Y20036D01*
X3159Y20041D01*
X3165Y20046D01*
X3172Y20051D01*
X3178Y20057D01*
X3192Y20070D01*
X3206Y20084D01*
X3213Y20091D01*
X3219Y20097D01*
X3224Y20103D01*
X3229Y20109D01*
X3229Y20110D01*
X3230Y20111D01*
X3231Y20112D01*
X3232Y20114D01*
X3234Y20117D01*
X3236Y20120D01*
X3240Y20128D01*
X3244Y20136D01*
X3248Y20146D01*
X3250Y20156D01*
X3251Y20161D01*
Y20166D01*
Y20167D01*
Y20168D01*
Y20169D01*
X3251Y20171D01*
X3250Y20176D01*
X3249Y20183D01*
X3246Y20190D01*
X3243Y20198D01*
X3238Y20206D01*
X3231Y20213D01*
X3230Y20214D01*
X3227Y20216D01*
X3223Y20219D01*
X3217Y20223D01*
X3209Y20227D01*
X3200Y20230D01*
X3190Y20232D01*
X3178Y20233D01*
X3175D01*
X3173Y20232D01*
X3170D01*
X3166Y20232D01*
X3159Y20230D01*
X3150Y20228D01*
X3141Y20224D01*
X3132Y20219D01*
X3124Y20212D01*
X3123Y20211D01*
X3121Y20209D01*
X3117Y20204D01*
X3114Y20198D01*
X3110Y20189D01*
X3106Y20180D01*
X3104Y20169D01*
X3103Y20156D01*
X3055Y20161D01*
Y20161D01*
X3055Y20163D01*
Y20166D01*
X3056Y20170D01*
X3057Y20174D01*
X3058Y20179D01*
X3059Y20185D01*
X3061Y20191D01*
X3066Y20205D01*
X3069Y20212D01*
X3072Y20218D01*
X3076Y20225D01*
X3081Y20232D01*
X3086Y20238D01*
X3092Y20243D01*
X3092Y20244D01*
X3093Y20244D01*
X3095Y20246D01*
X3098Y20248D01*
X3101Y20250D01*
X3105Y20252D01*
X3110Y20255D01*
X3115Y20258D01*
X3121Y20260D01*
X3128Y20263D01*
X3135Y20265D01*
X3143Y20267D01*
X3151Y20269D01*
X3160Y20271D01*
X3169Y20271D01*
X3179Y20272D01*
X3185D01*
X3188Y20271D01*
D02*
G37*
G36*
X2868Y20270D02*
X2872D01*
X2878Y20269D01*
X2884Y20269D01*
X2896Y20268D01*
X2909Y20266D01*
X2922Y20263D01*
X2928Y20262D01*
X2933Y20260D01*
X2933D01*
X2934Y20259D01*
X2935Y20259D01*
X2937Y20258D01*
X2942Y20255D01*
X2948Y20251D01*
X2955Y20246D01*
X2962Y20240D01*
X2969Y20232D01*
X2976Y20223D01*
Y20222D01*
X2976Y20222D01*
X2977Y20220D01*
X2978Y20218D01*
X2981Y20213D01*
X2984Y20206D01*
X2987Y20197D01*
X2989Y20187D01*
X2991Y20176D01*
X2992Y20165D01*
Y20164D01*
Y20163D01*
Y20161D01*
X2991Y20158D01*
X2991Y20154D01*
X2990Y20150D01*
X2988Y20141D01*
X2985Y20130D01*
X2981Y20118D01*
X2978Y20113D01*
X2974Y20107D01*
X2970Y20101D01*
X2965Y20096D01*
X2965Y20095D01*
X2964Y20095D01*
X2962Y20093D01*
X2960Y20091D01*
X2957Y20089D01*
X2954Y20087D01*
X2950Y20084D01*
X2945Y20081D01*
X2940Y20078D01*
X2934Y20075D01*
X2927Y20072D01*
X2919Y20069D01*
X2911Y20066D01*
X2903Y20064D01*
X2893Y20062D01*
X2883Y20060D01*
X2884Y20060D01*
X2887Y20059D01*
X2890Y20057D01*
X2895Y20054D01*
X2905Y20048D01*
X2909Y20044D01*
X2914Y20041D01*
X2914D01*
X2915Y20040D01*
X2918Y20037D01*
X2922Y20033D01*
X2928Y20027D01*
X2934Y20020D01*
X2941Y20011D01*
X2949Y20001D01*
X2956Y19990D01*
X3023Y19886D01*
X2959D01*
X2908Y19965D01*
Y19966D01*
X2907Y19967D01*
X2906Y19969D01*
X2905Y19971D01*
X2903Y19974D01*
X2900Y19977D01*
X2895Y19985D01*
X2889Y19993D01*
X2883Y20002D01*
X2877Y20010D01*
X2871Y20018D01*
X2871Y20019D01*
X2869Y20021D01*
X2866Y20024D01*
X2863Y20028D01*
X2859Y20032D01*
X2854Y20037D01*
X2850Y20040D01*
X2845Y20044D01*
X2845Y20044D01*
X2843Y20045D01*
X2841Y20046D01*
X2838Y20048D01*
X2835Y20050D01*
X2831Y20051D01*
X2822Y20054D01*
X2822D01*
X2821Y20055D01*
X2819D01*
X2816Y20055D01*
X2812Y20056D01*
X2807D01*
X2801Y20056D01*
X2735D01*
Y19886D01*
X2684D01*
Y20270D01*
X2863D01*
X2868Y20270D01*
D02*
G37*
G36*
X966Y7944D02*
X936D01*
Y8141D01*
X935Y8141D01*
X934Y8140D01*
X931Y8137D01*
X928Y8135D01*
X924Y8132D01*
X918Y8128D01*
X913Y8124D01*
X906Y8120D01*
X906D01*
X905Y8120D01*
X904Y8119D01*
X903Y8118D01*
X900Y8116D01*
X895Y8114D01*
X890Y8112D01*
X885Y8109D01*
X879Y8106D01*
X874Y8104D01*
Y8134D01*
X874D01*
X875Y8135D01*
X876Y8135D01*
X878Y8136D01*
X880Y8137D01*
X883Y8139D01*
X889Y8142D01*
X896Y8147D01*
X904Y8152D01*
X911Y8157D01*
X919Y8164D01*
X919Y8164D01*
X920Y8164D01*
X921Y8165D01*
X922Y8167D01*
X925Y8170D01*
X930Y8175D01*
X934Y8179D01*
X939Y8185D01*
X943Y8191D01*
X946Y8197D01*
X966D01*
Y7944D01*
D02*
G37*
G36*
X729Y8196D02*
X732D01*
X735Y8196D01*
X739Y8196D01*
X747Y8195D01*
X756Y8194D01*
X764Y8192D01*
X768Y8191D01*
X771Y8190D01*
X772D01*
X772Y8189D01*
X773Y8189D01*
X774Y8188D01*
X778Y8187D01*
X781Y8184D01*
X786Y8181D01*
X791Y8176D01*
X795Y8171D01*
X800Y8165D01*
Y8165D01*
X800Y8165D01*
X801Y8164D01*
X801Y8162D01*
X803Y8159D01*
X805Y8154D01*
X807Y8149D01*
X808Y8142D01*
X810Y8135D01*
X810Y8127D01*
Y8127D01*
Y8126D01*
Y8125D01*
X810Y8123D01*
X809Y8120D01*
X809Y8118D01*
X808Y8112D01*
X806Y8104D01*
X803Y8097D01*
X801Y8093D01*
X799Y8089D01*
X796Y8086D01*
X793Y8082D01*
X792Y8082D01*
X792Y8081D01*
X791Y8080D01*
X789Y8079D01*
X787Y8078D01*
X785Y8076D01*
X782Y8074D01*
X780Y8072D01*
X776Y8070D01*
X772Y8068D01*
X767Y8066D01*
X762Y8064D01*
X757Y8063D01*
X752Y8061D01*
X745Y8060D01*
X739Y8059D01*
X740Y8058D01*
X741Y8058D01*
X743Y8056D01*
X746Y8055D01*
X753Y8051D01*
X756Y8048D01*
X759Y8046D01*
X759D01*
X760Y8045D01*
X761Y8044D01*
X764Y8041D01*
X768Y8037D01*
X772Y8032D01*
X777Y8026D01*
X782Y8020D01*
X787Y8012D01*
X830Y7944D01*
X788D01*
X755Y7996D01*
Y7997D01*
X755Y7997D01*
X754Y7999D01*
X753Y8000D01*
X752Y8002D01*
X750Y8004D01*
X747Y8009D01*
X743Y8015D01*
X739Y8020D01*
X735Y8026D01*
X731Y8031D01*
X731Y8032D01*
X729Y8033D01*
X728Y8035D01*
X725Y8037D01*
X723Y8040D01*
X720Y8043D01*
X717Y8046D01*
X714Y8048D01*
X714Y8048D01*
X713Y8049D01*
X711Y8050D01*
X709Y8051D01*
X707Y8052D01*
X704Y8053D01*
X699Y8055D01*
X699D01*
X698Y8055D01*
X697D01*
X695Y8055D01*
X692Y8056D01*
X689D01*
X685Y8056D01*
X642D01*
Y7944D01*
X608D01*
Y8196D01*
X726D01*
X729Y8196D01*
D02*
G37*
G36*
X1757Y5208D02*
Y5208D01*
Y5206D01*
Y5204D01*
Y5200D01*
X1756Y5196D01*
Y5192D01*
X1756Y5186D01*
X1755Y5181D01*
X1754Y5169D01*
X1752Y5156D01*
X1749Y5144D01*
X1747Y5138D01*
X1745Y5133D01*
Y5133D01*
X1744Y5132D01*
X1744Y5131D01*
X1743Y5129D01*
X1740Y5124D01*
X1736Y5118D01*
X1731Y5112D01*
X1724Y5105D01*
X1717Y5099D01*
X1708Y5093D01*
X1707D01*
X1707Y5092D01*
X1705Y5092D01*
X1703Y5091D01*
X1698Y5088D01*
X1691Y5086D01*
X1682Y5084D01*
X1672Y5081D01*
X1661Y5080D01*
X1648Y5079D01*
X1643D01*
X1640Y5080D01*
X1636Y5080D01*
X1631Y5081D01*
X1625Y5082D01*
X1620Y5083D01*
X1607Y5086D01*
X1601Y5089D01*
X1594Y5092D01*
X1588Y5095D01*
X1582Y5099D01*
X1576Y5103D01*
X1571Y5108D01*
X1570Y5109D01*
X1570Y5110D01*
X1568Y5111D01*
X1567Y5114D01*
X1565Y5117D01*
X1562Y5120D01*
X1560Y5125D01*
X1557Y5130D01*
X1555Y5136D01*
X1553Y5142D01*
X1551Y5149D01*
X1549Y5157D01*
X1547Y5165D01*
X1546Y5174D01*
X1545Y5184D01*
Y5194D01*
X1591Y5201D01*
Y5200D01*
Y5199D01*
Y5197D01*
X1592Y5194D01*
X1592Y5190D01*
X1593Y5186D01*
X1594Y5177D01*
X1596Y5167D01*
X1599Y5157D01*
X1602Y5148D01*
X1605Y5144D01*
X1607Y5141D01*
X1608Y5140D01*
X1610Y5138D01*
X1613Y5136D01*
X1618Y5133D01*
X1624Y5130D01*
X1631Y5127D01*
X1639Y5125D01*
X1648Y5125D01*
X1651D01*
X1655Y5125D01*
X1660Y5126D01*
X1665Y5127D01*
X1670Y5128D01*
X1676Y5130D01*
X1681Y5133D01*
X1682Y5134D01*
X1684Y5135D01*
X1686Y5137D01*
X1689Y5140D01*
X1692Y5143D01*
X1695Y5147D01*
X1698Y5152D01*
X1700Y5157D01*
X1701Y5158D01*
X1701Y5160D01*
X1702Y5164D01*
X1703Y5169D01*
X1704Y5176D01*
X1705Y5184D01*
X1706Y5194D01*
Y5205D01*
Y5470D01*
X1757D01*
Y5208D01*
D02*
G37*
G36*
X1998Y5086D02*
X1951D01*
Y5386D01*
X1950Y5386D01*
X1948Y5384D01*
X1944Y5380D01*
X1939Y5376D01*
X1933Y5371D01*
X1925Y5366D01*
X1916Y5360D01*
X1906Y5354D01*
X1906D01*
X1905Y5353D01*
X1904Y5352D01*
X1902Y5351D01*
X1896Y5348D01*
X1890Y5345D01*
X1882Y5341D01*
X1874Y5337D01*
X1865Y5333D01*
X1857Y5329D01*
Y5375D01*
X1857D01*
X1859Y5376D01*
X1861Y5377D01*
X1863Y5379D01*
X1867Y5380D01*
X1871Y5383D01*
X1880Y5388D01*
X1891Y5394D01*
X1903Y5402D01*
X1914Y5411D01*
X1926Y5420D01*
X1926Y5421D01*
X1927Y5421D01*
X1929Y5423D01*
X1931Y5425D01*
X1936Y5430D01*
X1942Y5437D01*
X1949Y5444D01*
X1956Y5453D01*
X1962Y5462D01*
X1968Y5472D01*
X1998D01*
Y5086D01*
D02*
G37*
G36*
X28980Y4551D02*
X28929D01*
Y4732D01*
X28730D01*
Y4551D01*
X28679D01*
Y4935D01*
X28730D01*
Y4777D01*
X28929D01*
Y4935D01*
X28980D01*
Y4551D01*
D02*
G37*
G36*
X29174Y4936D02*
X29177D01*
X29185Y4935D01*
X29194Y4933D01*
X29203Y4931D01*
X29213Y4928D01*
X29223Y4923D01*
X29224D01*
X29224Y4923D01*
X29226Y4922D01*
X29228Y4921D01*
X29232Y4918D01*
X29238Y4914D01*
X29245Y4908D01*
X29252Y4902D01*
X29258Y4895D01*
X29264Y4886D01*
Y4886D01*
X29264Y4885D01*
X29266Y4882D01*
X29268Y4877D01*
X29271Y4871D01*
X29274Y4864D01*
X29276Y4855D01*
X29278Y4846D01*
X29278Y4837D01*
Y4836D01*
Y4836D01*
Y4833D01*
X29278Y4828D01*
X29277Y4822D01*
X29275Y4815D01*
X29273Y4807D01*
X29269Y4799D01*
X29265Y4791D01*
X29264Y4790D01*
X29262Y4788D01*
X29259Y4784D01*
X29255Y4780D01*
X29249Y4774D01*
X29242Y4769D01*
X29234Y4764D01*
X29225Y4759D01*
X29226D01*
X29227Y4758D01*
X29229Y4758D01*
X29231Y4757D01*
X29234Y4756D01*
X29237Y4755D01*
X29245Y4752D01*
X29253Y4747D01*
X29262Y4741D01*
X29271Y4734D01*
X29278Y4726D01*
Y4725D01*
X29279Y4725D01*
X29280Y4723D01*
X29281Y4721D01*
X29283Y4719D01*
X29284Y4716D01*
X29288Y4709D01*
X29291Y4700D01*
X29294Y4689D01*
X29296Y4678D01*
X29297Y4664D01*
Y4664D01*
Y4662D01*
Y4659D01*
X29297Y4656D01*
X29296Y4651D01*
X29295Y4646D01*
X29294Y4641D01*
X29293Y4635D01*
X29291Y4628D01*
X29288Y4621D01*
X29285Y4614D01*
X29282Y4607D01*
X29277Y4600D01*
X29272Y4592D01*
X29267Y4585D01*
X29260Y4579D01*
X29260Y4578D01*
X29259Y4577D01*
X29257Y4576D01*
X29254Y4573D01*
X29250Y4571D01*
X29246Y4568D01*
X29241Y4565D01*
X29235Y4562D01*
X29229Y4558D01*
X29222Y4555D01*
X29214Y4552D01*
X29206Y4550D01*
X29197Y4547D01*
X29188Y4546D01*
X29178Y4545D01*
X29168Y4544D01*
X29163D01*
X29159Y4545D01*
X29155Y4545D01*
X29150Y4546D01*
X29144Y4547D01*
X29138Y4548D01*
X29125Y4552D01*
X29118Y4554D01*
X29111Y4557D01*
X29104Y4560D01*
X29097Y4564D01*
X29090Y4569D01*
X29084Y4574D01*
X29083Y4575D01*
X29082Y4576D01*
X29081Y4577D01*
X29078Y4580D01*
X29076Y4583D01*
X29073Y4586D01*
X29070Y4591D01*
X29066Y4595D01*
X29063Y4601D01*
X29060Y4607D01*
X29057Y4613D01*
X29054Y4620D01*
X29051Y4628D01*
X29049Y4635D01*
X29047Y4644D01*
X29046Y4653D01*
X29093Y4659D01*
Y4659D01*
X29093Y4657D01*
X29094Y4655D01*
X29094Y4653D01*
X29095Y4649D01*
X29096Y4646D01*
X29099Y4637D01*
X29103Y4627D01*
X29108Y4618D01*
X29113Y4608D01*
X29116Y4604D01*
X29120Y4601D01*
X29121Y4600D01*
X29123Y4598D01*
X29127Y4595D01*
X29133Y4592D01*
X29140Y4589D01*
X29148Y4586D01*
X29158Y4584D01*
X29168Y4583D01*
X29171D01*
X29173Y4584D01*
X29176D01*
X29180Y4584D01*
X29187Y4586D01*
X29196Y4589D01*
X29206Y4593D01*
X29215Y4599D01*
X29220Y4602D01*
X29224Y4606D01*
X29225Y4607D01*
X29225Y4607D01*
X29226Y4609D01*
X29228Y4610D01*
X29232Y4615D01*
X29236Y4622D01*
X29240Y4630D01*
X29244Y4640D01*
X29246Y4651D01*
X29247Y4657D01*
Y4663D01*
Y4664D01*
Y4665D01*
Y4666D01*
X29247Y4669D01*
Y4671D01*
X29246Y4675D01*
X29245Y4682D01*
X29242Y4691D01*
X29238Y4700D01*
X29233Y4708D01*
X29230Y4713D01*
X29226Y4717D01*
X29225Y4718D01*
X29222Y4720D01*
X29217Y4723D01*
X29211Y4727D01*
X29203Y4731D01*
X29194Y4734D01*
X29184Y4737D01*
X29172Y4738D01*
X29166D01*
X29163Y4737D01*
X29158Y4737D01*
X29152Y4736D01*
X29145Y4734D01*
X29138Y4733D01*
X29144Y4774D01*
X29145D01*
X29146Y4774D01*
X29149Y4773D01*
X29154D01*
X29156Y4774D01*
X29162Y4774D01*
X29169Y4775D01*
X29178Y4777D01*
X29187Y4780D01*
X29196Y4784D01*
X29205Y4789D01*
X29206D01*
X29206Y4790D01*
X29209Y4792D01*
X29213Y4796D01*
X29218Y4801D01*
X29222Y4808D01*
X29226Y4816D01*
X29229Y4826D01*
X29229Y4832D01*
X29230Y4838D01*
Y4838D01*
Y4839D01*
X29229Y4842D01*
X29229Y4847D01*
X29228Y4853D01*
X29225Y4859D01*
X29222Y4866D01*
X29218Y4874D01*
X29212Y4880D01*
X29211Y4881D01*
X29209Y4883D01*
X29205Y4886D01*
X29200Y4889D01*
X29193Y4892D01*
X29185Y4895D01*
X29177Y4897D01*
X29167Y4898D01*
X29164D01*
X29162Y4897D01*
X29157Y4897D01*
X29150Y4896D01*
X29143Y4893D01*
X29135Y4890D01*
X29128Y4886D01*
X29120Y4880D01*
X29119Y4879D01*
X29117Y4877D01*
X29114Y4873D01*
X29111Y4867D01*
X29107Y4860D01*
X29103Y4851D01*
X29100Y4841D01*
X29097Y4829D01*
X29050Y4837D01*
Y4838D01*
X29051Y4839D01*
X29051Y4842D01*
X29052Y4845D01*
X29053Y4849D01*
X29055Y4854D01*
X29056Y4859D01*
X29058Y4864D01*
X29064Y4876D01*
X29070Y4888D01*
X29079Y4900D01*
X29084Y4905D01*
X29089Y4910D01*
X29090Y4911D01*
X29091Y4911D01*
X29092Y4913D01*
X29095Y4914D01*
X29098Y4916D01*
X29101Y4919D01*
X29106Y4921D01*
X29110Y4924D01*
X29116Y4926D01*
X29121Y4928D01*
X29134Y4933D01*
X29149Y4936D01*
X29157Y4936D01*
X29166Y4937D01*
X29171D01*
X29174Y4936D01*
D02*
G37*
G36*
X29359Y16303D02*
X29308D01*
Y16484D01*
X29109D01*
Y16303D01*
X29058D01*
Y16688D01*
X29109D01*
Y16530D01*
X29308D01*
Y16688D01*
X29359D01*
Y16303D01*
D02*
G37*
G36*
X29603D02*
X29556D01*
Y16604D01*
X29555Y16603D01*
X29553Y16601D01*
X29549Y16598D01*
X29544Y16594D01*
X29537Y16589D01*
X29529Y16583D01*
X29521Y16577D01*
X29511Y16571D01*
X29510D01*
X29510Y16571D01*
X29508Y16570D01*
X29506Y16569D01*
X29501Y16566D01*
X29494Y16562D01*
X29487Y16558D01*
X29478Y16554D01*
X29470Y16550D01*
X29461Y16547D01*
Y16593D01*
X29462D01*
X29463Y16594D01*
X29465Y16595D01*
X29468Y16596D01*
X29471Y16598D01*
X29475Y16600D01*
X29485Y16605D01*
X29495Y16612D01*
X29507Y16620D01*
X29519Y16628D01*
X29530Y16638D01*
X29531Y16638D01*
X29532Y16639D01*
X29533Y16640D01*
X29535Y16642D01*
X29540Y16647D01*
X29547Y16654D01*
X29553Y16662D01*
X29560Y16671D01*
X29567Y16680D01*
X29572Y16689D01*
X29603D01*
Y16303D01*
D02*
G37*
G36*
X-292Y8197D02*
X-288Y8197D01*
X-285Y8197D01*
X-281Y8196D01*
X-276Y8195D01*
X-267Y8193D01*
X-263Y8191D01*
X-258Y8189D01*
X-253Y8187D01*
X-248Y8184D01*
X-244Y8181D01*
X-240Y8177D01*
X-239Y8177D01*
X-239Y8176D01*
X-238Y8175D01*
X-236Y8174D01*
X-235Y8172D01*
X-233Y8169D01*
X-231Y8167D01*
X-229Y8164D01*
X-227Y8160D01*
X-225Y8156D01*
X-222Y8148D01*
X-220Y8143D01*
X-219Y8138D01*
X-219Y8133D01*
X-218Y8127D01*
Y8127D01*
Y8125D01*
X-219Y8122D01*
X-219Y8118D01*
X-220Y8114D01*
X-221Y8108D01*
X-223Y8103D01*
X-225Y8098D01*
X-225Y8097D01*
X-226Y8095D01*
X-227Y8092D01*
X-230Y8088D01*
X-233Y8084D01*
X-236Y8079D01*
X-240Y8073D01*
X-245Y8067D01*
Y8066D01*
X-246Y8066D01*
X-247Y8065D01*
X-248Y8064D01*
X-250Y8062D01*
X-252Y8060D01*
X-254Y8058D01*
X-257Y8055D01*
X-260Y8052D01*
X-263Y8049D01*
X-267Y8045D01*
X-272Y8041D01*
X-276Y8037D01*
X-281Y8033D01*
X-287Y8028D01*
X-293Y8022D01*
X-293Y8022D01*
X-294Y8022D01*
X-296Y8020D01*
X-298Y8019D01*
X-300Y8017D01*
X-302Y8015D01*
X-308Y8010D01*
X-314Y8004D01*
X-320Y7999D01*
X-323Y7997D01*
X-325Y7995D01*
X-327Y7992D01*
X-329Y7991D01*
X-329Y7990D01*
X-330Y7989D01*
X-332Y7988D01*
X-334Y7985D01*
X-335Y7983D01*
X-338Y7980D01*
X-342Y7974D01*
X-218D01*
Y7944D01*
X-385D01*
Y7945D01*
Y7946D01*
Y7948D01*
X-385Y7951D01*
X-384Y7955D01*
X-384Y7958D01*
X-383Y7962D01*
X-381Y7966D01*
Y7966D01*
X-381Y7966D01*
X-381Y7967D01*
X-380Y7969D01*
X-379Y7972D01*
X-376Y7976D01*
X-374Y7981D01*
X-370Y7987D01*
X-366Y7993D01*
X-361Y7999D01*
X-361Y8000D01*
X-360Y8000D01*
X-359Y8001D01*
X-358Y8002D01*
X-355Y8006D01*
X-351Y8010D01*
X-345Y8016D01*
X-338Y8022D01*
X-330Y8030D01*
X-320Y8038D01*
X-320Y8038D01*
X-319Y8039D01*
X-316Y8041D01*
X-314Y8043D01*
X-311Y8046D01*
X-307Y8049D01*
X-302Y8053D01*
X-298Y8057D01*
X-289Y8065D01*
X-280Y8074D01*
X-275Y8079D01*
X-272Y8083D01*
X-268Y8087D01*
X-265Y8091D01*
X-265Y8091D01*
X-264Y8092D01*
X-264Y8093D01*
X-263Y8094D01*
X-262Y8096D01*
X-260Y8098D01*
X-257Y8103D01*
X-255Y8109D01*
X-253Y8115D01*
X-251Y8122D01*
X-250Y8125D01*
Y8128D01*
Y8129D01*
Y8129D01*
Y8130D01*
X-251Y8131D01*
X-251Y8135D01*
X-252Y8139D01*
X-253Y8144D01*
X-256Y8149D01*
X-259Y8154D01*
X-264Y8159D01*
X-264Y8160D01*
X-266Y8161D01*
X-269Y8163D01*
X-273Y8166D01*
X-278Y8168D01*
X-284Y8170D01*
X-291Y8171D01*
X-298Y8172D01*
X-300D01*
X-302Y8172D01*
X-304D01*
X-306Y8171D01*
X-311Y8170D01*
X-316Y8169D01*
X-323Y8166D01*
X-329Y8163D01*
X-334Y8159D01*
X-334Y8158D01*
X-336Y8156D01*
X-338Y8153D01*
X-340Y8149D01*
X-343Y8144D01*
X-345Y8137D01*
X-347Y8130D01*
X-347Y8122D01*
X-379Y8125D01*
Y8125D01*
X-379Y8126D01*
Y8128D01*
X-378Y8131D01*
X-378Y8134D01*
X-377Y8137D01*
X-376Y8141D01*
X-375Y8145D01*
X-372Y8154D01*
X-370Y8158D01*
X-368Y8163D01*
X-365Y8167D01*
X-362Y8171D01*
X-359Y8175D01*
X-355Y8179D01*
X-355Y8179D01*
X-354Y8180D01*
X-353Y8181D01*
X-351Y8182D01*
X-349Y8183D01*
X-346Y8185D01*
X-343Y8186D01*
X-339Y8188D01*
X-335Y8190D01*
X-331Y8192D01*
X-327Y8193D01*
X-321Y8195D01*
X-316Y8196D01*
X-310Y8197D01*
X-304Y8197D01*
X-297Y8198D01*
X-294D01*
X-292Y8197D01*
D02*
G37*
G36*
X-525Y8196D02*
X-519D01*
X-512Y8196D01*
X-504Y8195D01*
X-497Y8194D01*
X-491Y8193D01*
X-491D01*
X-490Y8192D01*
X-489Y8192D01*
X-487Y8192D01*
X-485Y8191D01*
X-483Y8190D01*
X-478Y8189D01*
X-472Y8186D01*
X-466Y8183D01*
X-460Y8179D01*
X-454Y8175D01*
X-454Y8174D01*
X-453Y8174D01*
X-452Y8173D01*
X-451Y8172D01*
X-449Y8170D01*
X-447Y8168D01*
X-445Y8166D01*
X-443Y8163D01*
X-438Y8157D01*
X-433Y8149D01*
X-428Y8141D01*
X-424Y8132D01*
Y8131D01*
X-424Y8130D01*
X-423Y8129D01*
X-422Y8127D01*
X-422Y8124D01*
X-421Y8122D01*
X-420Y8118D01*
X-419Y8114D01*
X-418Y8110D01*
X-417Y8105D01*
X-416Y8101D01*
X-416Y8095D01*
X-414Y8084D01*
X-414Y8072D01*
Y8071D01*
Y8070D01*
Y8069D01*
Y8067D01*
X-414Y8064D01*
Y8062D01*
X-415Y8058D01*
X-415Y8055D01*
X-416Y8047D01*
X-417Y8038D01*
X-418Y8029D01*
X-421Y8021D01*
Y8021D01*
X-421Y8020D01*
X-421Y8019D01*
X-422Y8017D01*
X-423Y8015D01*
X-423Y8013D01*
X-425Y8008D01*
X-428Y8002D01*
X-431Y7996D01*
X-434Y7990D01*
X-438Y7984D01*
X-438Y7983D01*
X-440Y7982D01*
X-442Y7979D01*
X-445Y7976D01*
X-448Y7972D01*
X-452Y7968D01*
X-457Y7965D01*
X-461Y7961D01*
X-462Y7961D01*
X-463Y7960D01*
X-466Y7958D01*
X-470Y7957D01*
X-474Y7955D01*
X-479Y7952D01*
X-485Y7950D01*
X-491Y7949D01*
X-492D01*
X-492Y7948D01*
X-493D01*
X-494Y7948D01*
X-496Y7948D01*
X-498Y7947D01*
X-503Y7947D01*
X-509Y7946D01*
X-516Y7945D01*
X-523Y7945D01*
X-532Y7944D01*
X-622D01*
Y8197D01*
X-528D01*
X-525Y8196D01*
D02*
G37*
G36*
X5787Y5152D02*
X5590D01*
X5591Y5152D01*
X5592Y5150D01*
X5594Y5148D01*
X5597Y5144D01*
X5600Y5140D01*
X5604Y5135D01*
X5608Y5129D01*
X5612Y5123D01*
Y5123D01*
X5612Y5122D01*
X5613Y5121D01*
X5613Y5120D01*
X5615Y5116D01*
X5617Y5112D01*
X5620Y5107D01*
X5623Y5102D01*
X5625Y5096D01*
X5628Y5090D01*
X5597D01*
Y5091D01*
X5597Y5092D01*
X5596Y5093D01*
X5595Y5095D01*
X5594Y5097D01*
X5593Y5100D01*
X5589Y5106D01*
X5585Y5113D01*
X5580Y5121D01*
X5574Y5128D01*
X5568Y5136D01*
X5568Y5136D01*
X5567Y5137D01*
X5566Y5138D01*
X5565Y5139D01*
X5562Y5142D01*
X5557Y5146D01*
X5552Y5151D01*
X5546Y5155D01*
X5540Y5160D01*
X5534Y5163D01*
Y5183D01*
X5787D01*
Y5152D01*
D02*
G37*
G36*
X5667Y5033D02*
X5670D01*
X5674Y5033D01*
X5677Y5032D01*
X5685Y5032D01*
X5694Y5030D01*
X5702Y5029D01*
X5711Y5026D01*
X5711D01*
X5712Y5026D01*
X5713Y5026D01*
X5715Y5025D01*
X5717Y5024D01*
X5719Y5024D01*
X5724Y5022D01*
X5730Y5020D01*
X5736Y5017D01*
X5742Y5013D01*
X5748Y5009D01*
X5748Y5009D01*
X5750Y5007D01*
X5753Y5005D01*
X5756Y5002D01*
X5760Y4999D01*
X5763Y4995D01*
X5767Y4991D01*
X5771Y4986D01*
X5771Y4985D01*
X5772Y4984D01*
X5774Y4981D01*
X5775Y4978D01*
X5777Y4973D01*
X5780Y4968D01*
X5781Y4962D01*
X5783Y4956D01*
Y4956D01*
X5783Y4955D01*
Y4954D01*
X5784Y4953D01*
X5784Y4951D01*
X5784Y4949D01*
X5785Y4944D01*
X5786Y4938D01*
X5787Y4932D01*
X5787Y4924D01*
X5787Y4916D01*
Y4825D01*
X5535D01*
Y4919D01*
X5535Y4922D01*
Y4928D01*
X5536Y4935D01*
X5537Y4943D01*
X5538Y4950D01*
X5539Y4956D01*
Y4957D01*
X5539Y4957D01*
X5540Y4959D01*
X5540Y4960D01*
X5541Y4962D01*
X5541Y4964D01*
X5543Y4969D01*
X5546Y4975D01*
X5549Y4981D01*
X5553Y4987D01*
X5557Y4993D01*
X5557Y4994D01*
X5558Y4994D01*
X5559Y4995D01*
X5560Y4997D01*
X5562Y4998D01*
X5564Y5000D01*
X5566Y5002D01*
X5569Y5004D01*
X5575Y5009D01*
X5582Y5014D01*
X5591Y5019D01*
X5600Y5023D01*
X5600D01*
X5601Y5023D01*
X5603Y5024D01*
X5605Y5025D01*
X5607Y5025D01*
X5610Y5026D01*
X5614Y5027D01*
X5617Y5028D01*
X5622Y5029D01*
X5626Y5030D01*
X5631Y5031D01*
X5637Y5032D01*
X5648Y5033D01*
X5660Y5033D01*
X5660D01*
X5661D01*
X5663D01*
X5665D01*
X5667Y5033D01*
D02*
G37*
G36*
X2825Y21025D02*
X2830Y21025D01*
X2836Y21024D01*
X2842Y21023D01*
X2849Y21022D01*
X2864Y21019D01*
X2872Y21016D01*
X2881Y21013D01*
X2889Y21010D01*
X2897Y21006D01*
X2905Y21001D01*
X2912Y20996D01*
X2913Y20996D01*
X2914Y20995D01*
X2916Y20993D01*
X2919Y20991D01*
X2922Y20988D01*
X2926Y20984D01*
X2930Y20980D01*
X2934Y20975D01*
X2939Y20969D01*
X2943Y20963D01*
X2948Y20956D01*
X2952Y20949D01*
X2957Y20941D01*
X2961Y20933D01*
X2965Y20923D01*
X2968Y20914D01*
X2918Y20902D01*
Y20902D01*
X2917Y20904D01*
X2916Y20906D01*
X2915Y20909D01*
X2914Y20912D01*
X2912Y20916D01*
X2908Y20925D01*
X2902Y20935D01*
X2896Y20945D01*
X2888Y20955D01*
X2883Y20959D01*
X2879Y20963D01*
X2878D01*
X2878Y20964D01*
X2876Y20965D01*
X2874Y20966D01*
X2872Y20967D01*
X2869Y20969D01*
X2861Y20973D01*
X2852Y20976D01*
X2841Y20979D01*
X2828Y20981D01*
X2814Y20982D01*
X2810D01*
X2807Y20982D01*
X2803D01*
X2799Y20981D01*
X2794Y20980D01*
X2788Y20980D01*
X2777Y20977D01*
X2764Y20973D01*
X2752Y20968D01*
X2746Y20965D01*
X2740Y20961D01*
X2739D01*
X2738Y20960D01*
X2737Y20959D01*
X2735Y20957D01*
X2730Y20952D01*
X2724Y20946D01*
X2717Y20938D01*
X2710Y20928D01*
X2703Y20917D01*
X2698Y20904D01*
Y20903D01*
X2698Y20902D01*
X2697Y20900D01*
X2696Y20898D01*
X2695Y20894D01*
X2694Y20890D01*
X2693Y20886D01*
X2692Y20881D01*
X2690Y20870D01*
X2688Y20857D01*
X2687Y20844D01*
X2686Y20830D01*
Y20829D01*
Y20828D01*
Y20825D01*
Y20822D01*
X2687Y20817D01*
X2687Y20812D01*
Y20807D01*
X2688Y20801D01*
X2690Y20787D01*
X2692Y20773D01*
X2696Y20758D01*
X2700Y20744D01*
Y20744D01*
X2701Y20743D01*
X2702Y20741D01*
X2703Y20738D01*
X2705Y20735D01*
X2706Y20732D01*
X2711Y20724D01*
X2718Y20715D01*
X2725Y20706D01*
X2734Y20697D01*
X2745Y20690D01*
X2745D01*
X2746Y20689D01*
X2748Y20688D01*
X2750Y20687D01*
X2753Y20686D01*
X2756Y20684D01*
X2764Y20681D01*
X2774Y20677D01*
X2785Y20675D01*
X2797Y20673D01*
X2810Y20672D01*
X2814D01*
X2817Y20672D01*
X2821Y20673D01*
X2825Y20673D01*
X2830Y20674D01*
X2835Y20675D01*
X2847Y20678D01*
X2859Y20682D01*
X2865Y20685D01*
X2871Y20688D01*
X2877Y20692D01*
X2883Y20696D01*
X2883Y20697D01*
X2884Y20697D01*
X2886Y20699D01*
X2888Y20701D01*
X2890Y20703D01*
X2893Y20707D01*
X2896Y20710D01*
X2899Y20715D01*
X2902Y20719D01*
X2906Y20725D01*
X2909Y20731D01*
X2912Y20737D01*
X2915Y20745D01*
X2918Y20752D01*
X2921Y20760D01*
X2923Y20769D01*
X2974Y20756D01*
Y20756D01*
X2973Y20754D01*
X2972Y20750D01*
X2971Y20746D01*
X2969Y20741D01*
X2967Y20735D01*
X2964Y20728D01*
X2961Y20721D01*
X2957Y20713D01*
X2953Y20705D01*
X2948Y20698D01*
X2943Y20690D01*
X2937Y20682D01*
X2931Y20674D01*
X2924Y20667D01*
X2916Y20661D01*
X2916Y20660D01*
X2914Y20659D01*
X2912Y20658D01*
X2909Y20656D01*
X2905Y20653D01*
X2900Y20650D01*
X2894Y20648D01*
X2888Y20645D01*
X2881Y20641D01*
X2873Y20639D01*
X2865Y20636D01*
X2856Y20633D01*
X2846Y20631D01*
X2836Y20630D01*
X2826Y20629D01*
X2815Y20628D01*
X2809D01*
X2804Y20629D01*
X2799Y20629D01*
X2793Y20630D01*
X2786Y20630D01*
X2779Y20631D01*
X2763Y20634D01*
X2746Y20639D01*
X2737Y20642D01*
X2729Y20645D01*
X2721Y20649D01*
X2713Y20653D01*
X2713Y20654D01*
X2712Y20654D01*
X2710Y20656D01*
X2707Y20658D01*
X2704Y20661D01*
X2700Y20664D01*
X2696Y20668D01*
X2691Y20672D01*
X2686Y20677D01*
X2682Y20682D01*
X2677Y20688D01*
X2672Y20695D01*
X2667Y20702D01*
X2662Y20710D01*
X2658Y20718D01*
X2654Y20727D01*
Y20727D01*
X2653Y20729D01*
X2652Y20732D01*
X2651Y20735D01*
X2649Y20740D01*
X2647Y20745D01*
X2646Y20751D01*
X2644Y20758D01*
X2642Y20765D01*
X2640Y20773D01*
X2638Y20782D01*
X2637Y20790D01*
X2635Y20810D01*
X2634Y20830D01*
Y20830D01*
Y20832D01*
Y20836D01*
X2634Y20840D01*
Y20845D01*
X2635Y20851D01*
X2636Y20858D01*
X2637Y20865D01*
X2638Y20873D01*
X2639Y20882D01*
X2643Y20899D01*
X2649Y20917D01*
X2652Y20926D01*
X2656Y20934D01*
X2657Y20935D01*
X2657Y20936D01*
X2659Y20939D01*
X2661Y20942D01*
X2663Y20945D01*
X2666Y20950D01*
X2669Y20954D01*
X2673Y20960D01*
X2682Y20971D01*
X2694Y20982D01*
X2707Y20993D01*
X2714Y20998D01*
X2722Y21002D01*
X2722Y21003D01*
X2724Y21003D01*
X2726Y21004D01*
X2729Y21006D01*
X2733Y21008D01*
X2738Y21010D01*
X2743Y21012D01*
X2749Y21014D01*
X2756Y21016D01*
X2763Y21018D01*
X2779Y21022D01*
X2797Y21025D01*
X2806Y21026D01*
X2821D01*
X2825Y21025D01*
D02*
G37*
G36*
X3254Y20969D02*
X3101D01*
X3080Y20865D01*
X3081Y20866D01*
X3082Y20866D01*
X3084Y20868D01*
X3086Y20869D01*
X3089Y20871D01*
X3093Y20873D01*
X3097Y20875D01*
X3102Y20878D01*
X3113Y20882D01*
X3125Y20886D01*
X3139Y20889D01*
X3146Y20889D01*
X3153Y20890D01*
X3158D01*
X3161Y20889D01*
X3165Y20889D01*
X3170Y20888D01*
X3176Y20887D01*
X3182Y20885D01*
X3189Y20884D01*
X3195Y20881D01*
X3202Y20878D01*
X3210Y20875D01*
X3217Y20871D01*
X3224Y20866D01*
X3231Y20861D01*
X3237Y20855D01*
X3238Y20854D01*
X3239Y20853D01*
X3240Y20851D01*
X3243Y20848D01*
X3245Y20845D01*
X3248Y20841D01*
X3252Y20836D01*
X3255Y20830D01*
X3258Y20824D01*
X3261Y20817D01*
X3264Y20810D01*
X3267Y20802D01*
X3269Y20793D01*
X3271Y20784D01*
X3272Y20775D01*
X3272Y20765D01*
Y20764D01*
Y20762D01*
Y20760D01*
X3272Y20756D01*
X3271Y20752D01*
X3271Y20746D01*
X3270Y20740D01*
X3268Y20734D01*
X3265Y20720D01*
X3262Y20712D01*
X3259Y20705D01*
X3256Y20697D01*
X3252Y20690D01*
X3247Y20682D01*
X3242Y20675D01*
X3241Y20674D01*
X3240Y20673D01*
X3238Y20670D01*
X3235Y20668D01*
X3231Y20664D01*
X3227Y20660D01*
X3221Y20656D01*
X3215Y20652D01*
X3208Y20647D01*
X3201Y20643D01*
X3193Y20639D01*
X3184Y20636D01*
X3174Y20633D01*
X3163Y20630D01*
X3152Y20629D01*
X3141Y20628D01*
X3136D01*
X3132Y20629D01*
X3128Y20629D01*
X3122Y20630D01*
X3117Y20631D01*
X3110Y20632D01*
X3097Y20635D01*
X3090Y20638D01*
X3083Y20641D01*
X3075Y20644D01*
X3068Y20648D01*
X3062Y20652D01*
X3055Y20657D01*
X3055Y20658D01*
X3054Y20659D01*
X3052Y20660D01*
X3050Y20663D01*
X3047Y20666D01*
X3045Y20669D01*
X3041Y20673D01*
X3038Y20678D01*
X3035Y20683D01*
X3032Y20689D01*
X3028Y20696D01*
X3026Y20703D01*
X3023Y20710D01*
X3021Y20718D01*
X3019Y20726D01*
X3018Y20735D01*
X3067Y20739D01*
Y20738D01*
X3068Y20737D01*
Y20735D01*
X3068Y20733D01*
X3069Y20730D01*
X3070Y20726D01*
X3072Y20719D01*
X3076Y20710D01*
X3080Y20701D01*
X3086Y20692D01*
X3092Y20685D01*
X3093Y20684D01*
X3096Y20682D01*
X3100Y20679D01*
X3106Y20676D01*
X3113Y20673D01*
X3121Y20670D01*
X3130Y20668D01*
X3141Y20667D01*
X3144D01*
X3147Y20668D01*
X3149Y20668D01*
X3153Y20669D01*
X3161Y20670D01*
X3170Y20673D01*
X3180Y20678D01*
X3185Y20681D01*
X3190Y20684D01*
X3194Y20688D01*
X3199Y20693D01*
X3199Y20693D01*
X3200Y20694D01*
X3201Y20695D01*
X3202Y20697D01*
X3204Y20700D01*
X3206Y20703D01*
X3208Y20707D01*
X3211Y20711D01*
X3215Y20721D01*
X3219Y20732D01*
X3221Y20746D01*
X3222Y20753D01*
Y20761D01*
Y20761D01*
Y20763D01*
Y20765D01*
X3222Y20767D01*
Y20771D01*
X3221Y20775D01*
X3219Y20784D01*
X3217Y20794D01*
X3213Y20805D01*
X3207Y20815D01*
X3204Y20820D01*
X3200Y20825D01*
Y20825D01*
X3199Y20826D01*
X3197Y20827D01*
X3196Y20828D01*
X3191Y20832D01*
X3184Y20837D01*
X3175Y20841D01*
X3165Y20845D01*
X3153Y20847D01*
X3147Y20848D01*
X3136D01*
X3132Y20848D01*
X3126Y20847D01*
X3120Y20846D01*
X3113Y20844D01*
X3106Y20841D01*
X3099Y20837D01*
X3098Y20837D01*
X3096Y20835D01*
X3093Y20833D01*
X3089Y20830D01*
X3084Y20826D01*
X3079Y20821D01*
X3075Y20816D01*
X3071Y20810D01*
X3026Y20817D01*
X3063Y21014D01*
X3254D01*
Y20969D01*
D02*
G37*
G36*
X6688Y5155D02*
X6388D01*
X6388Y5154D01*
X6390Y5152D01*
X6394Y5148D01*
X6398Y5143D01*
X6403Y5137D01*
X6408Y5129D01*
X6414Y5120D01*
X6420Y5110D01*
Y5110D01*
X6421Y5109D01*
X6422Y5108D01*
X6423Y5106D01*
X6426Y5100D01*
X6429Y5094D01*
X6433Y5086D01*
X6437Y5078D01*
X6441Y5069D01*
X6445Y5061D01*
X6399D01*
Y5061D01*
X6398Y5063D01*
X6397Y5065D01*
X6395Y5067D01*
X6394Y5071D01*
X6391Y5075D01*
X6386Y5084D01*
X6380Y5095D01*
X6372Y5107D01*
X6363Y5118D01*
X6354Y5130D01*
X6353Y5130D01*
X6353Y5131D01*
X6351Y5133D01*
X6349Y5135D01*
X6344Y5140D01*
X6337Y5146D01*
X6330Y5153D01*
X6321Y5160D01*
X6312Y5166D01*
X6302Y5172D01*
Y5202D01*
X6688D01*
Y5155D01*
D02*
G37*
G36*
X6569Y4980D02*
X6573Y4979D01*
X6577Y4978D01*
X6582Y4976D01*
X6588Y4974D01*
X6595Y4971D01*
X6602Y4968D01*
X6610Y4964D01*
X6618Y4960D01*
X6625Y4955D01*
X6633Y4950D01*
X6641Y4944D01*
X6649Y4938D01*
X6656Y4931D01*
X6662Y4923D01*
X6663Y4923D01*
X6664Y4921D01*
X6665Y4919D01*
X6667Y4916D01*
X6670Y4912D01*
X6673Y4907D01*
X6675Y4901D01*
X6678Y4895D01*
X6682Y4888D01*
X6684Y4880D01*
X6687Y4872D01*
X6690Y4863D01*
X6692Y4853D01*
X6693Y4843D01*
X6694Y4833D01*
X6695Y4822D01*
Y4816D01*
X6694Y4811D01*
X6694Y4806D01*
X6693Y4800D01*
X6693Y4793D01*
X6692Y4786D01*
X6689Y4770D01*
X6684Y4753D01*
X6681Y4744D01*
X6678Y4736D01*
X6674Y4728D01*
X6670Y4720D01*
X6669Y4720D01*
X6669Y4719D01*
X6667Y4717D01*
X6665Y4714D01*
X6662Y4711D01*
X6659Y4707D01*
X6655Y4703D01*
X6651Y4698D01*
X6646Y4693D01*
X6641Y4689D01*
X6635Y4684D01*
X6628Y4679D01*
X6621Y4674D01*
X6613Y4669D01*
X6605Y4665D01*
X6596Y4661D01*
X6596D01*
X6594Y4660D01*
X6591Y4659D01*
X6588Y4658D01*
X6583Y4656D01*
X6578Y4654D01*
X6572Y4653D01*
X6565Y4651D01*
X6558Y4649D01*
X6550Y4647D01*
X6541Y4645D01*
X6533Y4644D01*
X6513Y4642D01*
X6493Y4641D01*
X6493D01*
X6491D01*
X6487D01*
X6483Y4641D01*
X6478D01*
X6472Y4642D01*
X6465Y4643D01*
X6458Y4644D01*
X6450Y4645D01*
X6441Y4646D01*
X6424Y4650D01*
X6406Y4656D01*
X6397Y4659D01*
X6389Y4663D01*
X6388Y4664D01*
X6387Y4664D01*
X6384Y4666D01*
X6381Y4668D01*
X6378Y4670D01*
X6373Y4673D01*
X6369Y4676D01*
X6363Y4680D01*
X6352Y4689D01*
X6341Y4701D01*
X6330Y4714D01*
X6325Y4721D01*
X6321Y4729D01*
X6320Y4729D01*
X6320Y4731D01*
X6319Y4733D01*
X6317Y4736D01*
X6315Y4740D01*
X6313Y4745D01*
X6311Y4750D01*
X6309Y4756D01*
X6307Y4763D01*
X6305Y4770D01*
X6301Y4786D01*
X6298Y4804D01*
X6297Y4813D01*
Y4828D01*
X6298Y4832D01*
X6298Y4837D01*
X6299Y4843D01*
X6300Y4849D01*
X6301Y4856D01*
X6304Y4871D01*
X6307Y4879D01*
X6310Y4888D01*
X6313Y4896D01*
X6317Y4904D01*
X6322Y4912D01*
X6327Y4919D01*
X6327Y4920D01*
X6328Y4921D01*
X6330Y4923D01*
X6332Y4926D01*
X6335Y4929D01*
X6339Y4933D01*
X6343Y4937D01*
X6348Y4941D01*
X6354Y4946D01*
X6360Y4950D01*
X6367Y4955D01*
X6374Y4959D01*
X6382Y4964D01*
X6390Y4968D01*
X6400Y4972D01*
X6409Y4975D01*
X6421Y4925D01*
X6421D01*
X6419Y4924D01*
X6417Y4923D01*
X6414Y4922D01*
X6411Y4921D01*
X6407Y4919D01*
X6398Y4915D01*
X6388Y4909D01*
X6378Y4903D01*
X6368Y4895D01*
X6364Y4890D01*
X6360Y4886D01*
Y4885D01*
X6359Y4885D01*
X6358Y4883D01*
X6357Y4881D01*
X6356Y4879D01*
X6354Y4876D01*
X6350Y4868D01*
X6347Y4859D01*
X6344Y4848D01*
X6342Y4835D01*
X6341Y4821D01*
Y4817D01*
X6341Y4814D01*
Y4810D01*
X6342Y4806D01*
X6343Y4801D01*
X6343Y4795D01*
X6346Y4784D01*
X6350Y4771D01*
X6355Y4759D01*
X6358Y4753D01*
X6362Y4747D01*
Y4746D01*
X6363Y4745D01*
X6364Y4744D01*
X6366Y4742D01*
X6371Y4737D01*
X6377Y4731D01*
X6385Y4724D01*
X6395Y4717D01*
X6406Y4710D01*
X6419Y4705D01*
X6420D01*
X6421Y4705D01*
X6423Y4704D01*
X6425Y4703D01*
X6429Y4702D01*
X6433Y4701D01*
X6437Y4700D01*
X6442Y4699D01*
X6453Y4697D01*
X6466Y4695D01*
X6479Y4694D01*
X6493Y4693D01*
X6494D01*
X6495D01*
X6498D01*
X6501D01*
X6506Y4694D01*
X6511Y4694D01*
X6516D01*
X6522Y4695D01*
X6536Y4697D01*
X6550Y4699D01*
X6565Y4703D01*
X6579Y4707D01*
X6579D01*
X6580Y4708D01*
X6582Y4709D01*
X6585Y4710D01*
X6588Y4712D01*
X6591Y4713D01*
X6599Y4718D01*
X6608Y4725D01*
X6617Y4732D01*
X6626Y4741D01*
X6633Y4752D01*
Y4752D01*
X6634Y4753D01*
X6635Y4755D01*
X6636Y4757D01*
X6637Y4760D01*
X6639Y4763D01*
X6642Y4771D01*
X6646Y4781D01*
X6648Y4792D01*
X6650Y4804D01*
X6651Y4817D01*
Y4821D01*
X6651Y4824D01*
X6650Y4828D01*
X6650Y4832D01*
X6649Y4837D01*
X6648Y4842D01*
X6645Y4854D01*
X6641Y4866D01*
X6638Y4872D01*
X6635Y4878D01*
X6631Y4884D01*
X6627Y4890D01*
X6626Y4890D01*
X6626Y4891D01*
X6624Y4893D01*
X6622Y4895D01*
X6620Y4897D01*
X6616Y4900D01*
X6613Y4903D01*
X6608Y4906D01*
X6604Y4909D01*
X6598Y4913D01*
X6592Y4916D01*
X6586Y4919D01*
X6578Y4922D01*
X6571Y4925D01*
X6563Y4928D01*
X6554Y4930D01*
X6567Y4981D01*
X6567D01*
X6569Y4980D01*
D02*
G37*
%LPC*%
G36*
X15565Y26202D02*
X15444Y26028D01*
X15565D01*
Y26202D01*
D02*
G37*
G36*
X15958Y24802D02*
X15837Y24628D01*
X15958D01*
Y24802D01*
D02*
G37*
G36*
X15619Y24835D02*
X15490D01*
Y24707D01*
X15607D01*
X15611Y24708D01*
X15619Y24708D01*
X15627Y24709D01*
X15637Y24710D01*
X15645Y24712D01*
X15653Y24714D01*
X15654Y24715D01*
X15657Y24716D01*
X15660Y24717D01*
X15665Y24720D01*
X15669Y24723D01*
X15674Y24727D01*
X15679Y24732D01*
X15683Y24737D01*
X15684Y24738D01*
X15685Y24740D01*
X15687Y24743D01*
X15689Y24748D01*
X15690Y24753D01*
X15692Y24759D01*
X15693Y24765D01*
X15694Y24772D01*
Y24772D01*
Y24773D01*
Y24774D01*
X15693Y24776D01*
X15693Y24781D01*
X15691Y24788D01*
X15689Y24795D01*
X15685Y24802D01*
X15680Y24810D01*
X15674Y24817D01*
X15673Y24818D01*
X15670Y24820D01*
X15665Y24822D01*
X15658Y24826D01*
X15654Y24827D01*
X15650Y24829D01*
X15645Y24831D01*
X15639Y24832D01*
X15633Y24833D01*
X15626Y24834D01*
X15619Y24835D01*
D02*
G37*
G36*
X14269Y26045D02*
X14096D01*
X14269Y25924D01*
Y26045D01*
D02*
G37*
G36*
X29963Y25707D02*
X29842Y25534D01*
X29963D01*
Y25707D01*
D02*
G37*
G36*
X2588Y21795D02*
X2587D01*
X2587D01*
X2585D01*
X2583Y21795D01*
X2578Y21794D01*
X2572Y21793D01*
X2565Y21790D01*
X2557Y21787D01*
X2550Y21782D01*
X2543Y21775D01*
X2542Y21774D01*
X2540Y21771D01*
X2537Y21767D01*
X2534Y21760D01*
X2532Y21756D01*
X2530Y21751D01*
X2529Y21746D01*
X2528Y21740D01*
X2526Y21734D01*
X2526Y21728D01*
X2525Y21720D01*
Y21591D01*
X2652D01*
Y21709D01*
X2652Y21712D01*
X2651Y21720D01*
X2651Y21729D01*
X2649Y21738D01*
X2648Y21747D01*
X2645Y21755D01*
X2645Y21756D01*
X2644Y21758D01*
X2642Y21762D01*
X2640Y21766D01*
X2637Y21771D01*
X2633Y21776D01*
X2628Y21781D01*
X2622Y21785D01*
X2622Y21785D01*
X2619Y21786D01*
X2616Y21788D01*
X2612Y21790D01*
X2607Y21792D01*
X2601Y21794D01*
X2595Y21795D01*
X2588Y21795D01*
D02*
G37*
G36*
X2864Y20228D02*
X2735D01*
Y20100D01*
X2853D01*
X2856Y20101D01*
X2864Y20101D01*
X2873Y20102D01*
X2882Y20103D01*
X2891Y20105D01*
X2899Y20107D01*
X2900Y20108D01*
X2902Y20109D01*
X2906Y20110D01*
X2910Y20113D01*
X2915Y20116D01*
X2920Y20120D01*
X2925Y20125D01*
X2929Y20130D01*
X2929Y20131D01*
X2930Y20133D01*
X2932Y20136D01*
X2934Y20141D01*
X2936Y20146D01*
X2938Y20152D01*
X2939Y20158D01*
X2939Y20165D01*
Y20165D01*
Y20166D01*
Y20167D01*
X2939Y20169D01*
X2938Y20174D01*
X2937Y20181D01*
X2934Y20188D01*
X2931Y20195D01*
X2926Y20203D01*
X2919Y20210D01*
X2918Y20211D01*
X2915Y20213D01*
X2911Y20215D01*
X2904Y20219D01*
X2900Y20220D01*
X2895Y20222D01*
X2890Y20224D01*
X2884Y20225D01*
X2878Y20226D01*
X2872Y20227D01*
X2864Y20228D01*
D02*
G37*
G36*
X726Y8169D02*
X642D01*
Y8085D01*
X719D01*
X721Y8085D01*
X726Y8086D01*
X732Y8086D01*
X738Y8087D01*
X744Y8088D01*
X749Y8090D01*
X750Y8090D01*
X751Y8091D01*
X754Y8092D01*
X757Y8093D01*
X760Y8095D01*
X763Y8098D01*
X766Y8101D01*
X769Y8105D01*
X769Y8105D01*
X770Y8107D01*
X771Y8109D01*
X772Y8112D01*
X773Y8115D01*
X775Y8119D01*
X775Y8123D01*
X776Y8127D01*
Y8128D01*
Y8128D01*
Y8129D01*
X775Y8130D01*
X775Y8134D01*
X774Y8138D01*
X772Y8142D01*
X770Y8147D01*
X767Y8152D01*
X762Y8157D01*
X762Y8157D01*
X760Y8159D01*
X757Y8160D01*
X752Y8163D01*
X750Y8164D01*
X747Y8165D01*
X743Y8166D01*
X740Y8167D01*
X736Y8168D01*
X731Y8168D01*
X726Y8169D01*
D02*
G37*
G36*
X-531Y8167D02*
X-589D01*
Y7974D01*
X-529D01*
X-527Y7975D01*
X-521Y7975D01*
X-515Y7975D01*
X-508Y7976D01*
X-502Y7977D01*
X-496Y7979D01*
X-496D01*
X-496Y7979D01*
X-494Y7980D01*
X-491Y7981D01*
X-488Y7982D01*
X-484Y7984D01*
X-481Y7986D01*
X-477Y7989D01*
X-474Y7992D01*
X-473Y7992D01*
X-472Y7994D01*
X-470Y7997D01*
X-467Y8000D01*
X-464Y8005D01*
X-461Y8010D01*
X-458Y8017D01*
X-455Y8024D01*
Y8024D01*
X-455Y8025D01*
X-455Y8026D01*
X-454Y8027D01*
X-454Y8029D01*
X-453Y8032D01*
X-452Y8034D01*
X-452Y8037D01*
X-451Y8041D01*
X-451Y8044D01*
X-449Y8053D01*
X-449Y8062D01*
X-448Y8072D01*
Y8073D01*
Y8074D01*
Y8076D01*
X-449Y8079D01*
Y8082D01*
X-449Y8086D01*
X-449Y8090D01*
X-450Y8095D01*
X-452Y8104D01*
X-454Y8115D01*
X-457Y8124D01*
X-459Y8129D01*
X-461Y8133D01*
Y8133D01*
X-462Y8134D01*
X-463Y8135D01*
X-464Y8137D01*
X-467Y8140D01*
X-470Y8145D01*
X-475Y8149D01*
X-480Y8154D01*
X-486Y8158D01*
X-490Y8160D01*
X-493Y8162D01*
X-494Y8162D01*
X-494Y8162D01*
X-496Y8163D01*
X-497Y8163D01*
X-499Y8163D01*
X-501Y8164D01*
X-503Y8164D01*
X-506Y8165D01*
X-509Y8165D01*
X-513Y8165D01*
X-517Y8166D01*
X-521Y8166D01*
X-526D01*
X-531Y8167D01*
D02*
G37*
G36*
X5659Y4999D02*
X5659D01*
X5658D01*
X5656D01*
X5653Y4999D01*
X5650D01*
X5646Y4998D01*
X5642Y4998D01*
X5637Y4997D01*
X5627Y4996D01*
X5617Y4993D01*
X5608Y4990D01*
X5603Y4988D01*
X5599Y4986D01*
X5598D01*
X5598Y4985D01*
X5597Y4984D01*
X5595Y4983D01*
X5592Y4980D01*
X5587Y4977D01*
X5582Y4972D01*
X5578Y4967D01*
X5574Y4961D01*
X5572Y4958D01*
X5570Y4954D01*
X5570Y4954D01*
X5570Y4953D01*
X5569Y4952D01*
X5569Y4950D01*
X5569Y4948D01*
X5568Y4946D01*
X5568Y4944D01*
X5567Y4941D01*
X5567Y4938D01*
X5566Y4934D01*
X5566Y4930D01*
X5565Y4926D01*
Y4921D01*
X5565Y4917D01*
Y4858D01*
X5758D01*
Y4918D01*
X5757Y4920D01*
X5757Y4926D01*
X5757Y4932D01*
X5756Y4939D01*
X5755Y4945D01*
X5753Y4951D01*
Y4951D01*
X5753Y4952D01*
X5752Y4953D01*
X5751Y4956D01*
X5750Y4959D01*
X5748Y4963D01*
X5746Y4966D01*
X5743Y4970D01*
X5740Y4974D01*
X5739Y4974D01*
X5738Y4976D01*
X5735Y4978D01*
X5732Y4980D01*
X5727Y4983D01*
X5721Y4986D01*
X5715Y4989D01*
X5708Y4992D01*
X5708D01*
X5707Y4992D01*
X5706Y4993D01*
X5704Y4993D01*
X5702Y4994D01*
X5700Y4994D01*
X5698Y4995D01*
X5695Y4996D01*
X5691Y4996D01*
X5687Y4997D01*
X5679Y4998D01*
X5670Y4999D01*
X5659Y4999D01*
D02*
G37*
%LPD*%
D12*
X22223Y4665D02*
X25651D01*
X22223D02*
Y7618D01*
X25651D01*
Y4665D02*
Y7618D01*
X27118Y-866D02*
Y10244D01*
X30858D01*
Y-866D02*
Y10244D01*
X27118Y-866D02*
X30858D01*
X22223Y531D02*
X25651D01*
X22223D02*
Y3484D01*
X25651D01*
Y531D02*
Y3484D01*
X14636Y25177D02*
X16073D01*
Y26949D01*
X14636D02*
X16073D01*
X14636Y25177D02*
Y26949D01*
D13*
X30787Y-1571D02*
G03*
X31359Y-999I0J572D01*
G01*
X31359Y26866D02*
G03*
X30975Y27250I-384J0D01*
G01*
X-1112Y27254D02*
G03*
X-1575Y26791I0J-463D01*
G01*
X-1575Y-1112D02*
G03*
X-1112Y-1575I463J0D01*
G01*
X31359Y-999D02*
X31359Y26866D01*
X30906Y27254D02*
X30975Y27250D01*
X-1112Y27254D02*
X30906Y27254D01*
X-1113Y-1575D02*
X30787Y-1575D01*
X-1575Y26791D02*
X-1575Y-1112D01*
D17*
X20914Y0D02*
G03*
X20914Y0I-1229J0D01*
G01*
X30757Y25591D02*
G03*
X30757Y25591I-1229J0D01*
G01*
X1229D02*
G03*
X1229Y25591I-1229J0D01*
G01*
Y0D02*
G03*
X1229Y0I-1229J0D01*
G01*
X23091Y-59D02*
Y374D01*
X22028Y-59D02*
X23091D01*
X22028D02*
Y374D01*
X23091D01*
X22894Y4154D02*
Y4587D01*
X21831Y4154D02*
X22894D01*
X21831D02*
Y4587D01*
X22894D01*
X27717Y18839D02*
X30945D01*
X27717D02*
Y23366D01*
X30945Y18839D02*
Y23366D01*
X27717D02*
X30945D01*
X27717Y18720D02*
X30945D01*
Y14193D02*
Y18720D01*
X27717Y14193D02*
Y18720D01*
Y14193D02*
X30945D01*
X-1339Y7362D02*
X5039D01*
Y2992D02*
Y7362D01*
X-1339Y2992D02*
X5039D01*
X-1339D02*
Y7362D01*
X443Y7913D02*
Y8228D01*
X1132D01*
Y7913D02*
Y8228D01*
X443Y7913D02*
X1132D01*
X6280Y4469D02*
Y5531D01*
Y4469D02*
X6713D01*
Y5531D01*
X6280D02*
X6713D01*
X-591Y7972D02*
Y8169D01*
X-276D01*
Y7972D02*
Y8169D01*
X-591Y7972D02*
X-276D01*
X2447Y20295D02*
X3510D01*
X2447Y19862D02*
Y20295D01*
Y19862D02*
X3510D01*
Y20295D01*
X2889Y21323D02*
Y22386D01*
X2456D02*
X2889D01*
X2456Y21323D02*
Y22386D01*
Y21323D02*
X2889D01*
X-3091Y19952D02*
Y23552D01*
X827D01*
Y19952D02*
Y23552D01*
X-3091Y19952D02*
X827D01*
X2447Y20607D02*
X3510D01*
Y21040D01*
X2447D02*
X3510D01*
X2447Y20607D02*
Y21040D01*
X15256Y24469D02*
Y24902D01*
X16319D01*
Y24469D02*
Y24902D01*
X15256Y24469D02*
X16319D01*
X13996Y25335D02*
X14429D01*
X13996D02*
Y26398D01*
X14429D01*
Y25335D02*
Y26398D01*
X20669Y8858D02*
X26083D01*
X20669D02*
Y17717D01*
X26083Y8858D02*
Y17717D01*
X20669D02*
X26083D01*
D57*
X5561Y4789D02*
X5778D01*
X5561D02*
Y5298D01*
X5778D01*
Y4789D02*
Y5298D01*
M02*
