M48
;Layer_Color=9474304
;FILE_FORMAT=2:3
INCH,LZ
;TYPE=PLATED
T01F00S00C0.010
T02F00S00C0.039
T03F00S00C0.051
T04F00S00C0.059
T05F00S00C0.079
;TYPE=NON_PLATED
T06F00S00C0.020
T07F00S00C0.126
%
T01
X-00122Y-02681
X-00071Y-02693
X-00008
X00055
X00118
X00146Y-02508
X00031Y-02402
X-00055Y-02331
X-00134Y-02303
Y-02366
Y-02429
Y-02492
Y-02555
Y-02618
Y-0224
Y-02177
Y-02114
Y-02051
Y-01988
Y-01925
Y-01862
Y-01799
X-00043Y-0178
X-00075Y-01902
X-00067Y-02031
Y-02157
X00075Y-02118
X00067Y-02016
X00098Y-0189
X00138Y-01795
X00118Y-02187
X00087Y-02217
X00146Y-02283
X00232Y-02358
X00358Y-02366
X00488
X00613Y-02341
X00677Y-02295
X00756Y-02315
X0078Y-0224
X00787Y-02134
X00732Y-02134
X00787Y-02073
Y-02047
X00854Y-02039
X00882Y-01929
X00858Y-0185
X00756Y-01846
X00768Y-01898
X00665Y-01902
X00669Y-01992
X00717Y-01953
X00594
X00591Y-0187
X00563Y-01831
X00504Y-01815
X00512Y-01945
X00433Y-01913
X00339Y-01925
X00307Y-01996
X00243Y-01937
X00315Y-0176
X0061Y-0178
X00697Y-01791
X00803Y-01787
X00929Y-01795
X00937Y-01878
X00992Y-01929
X00969Y-01988
X01028Y-02031
X01043Y-02114
X01039Y-02177
X00965Y-02181
X00976Y-02315
X00921Y-02437
X00898
X0087
Y-02465
X00898Y-02469
X00925
X00886Y-02535
X00756Y-02531
X00614Y-02528
X00457Y-02524
X00287Y-0252
X00307Y-02693
X0037
X00433
X00496
X00559
X00622
X00685
X00748
X00811
X00874
X00937
X01
X01063
X01126
X01189
X01252
X01315
X01378
X01441
X01504
X01567
X0163
X01693
X01493Y-02437
X01496Y-02244
X01657Y-0224
X01638Y-01992
X01555Y-01984
Y-01858
X01539Y-01776
X0163Y-0178
X01346Y-01874
X01272Y-01929
X01315Y-01984
X01201Y-01988
X01094Y-01984
X0113Y-01929
X01193Y-01878
X01059
X01075Y-01791
X01252Y-01783
X0122Y-02083
X01114Y-02079
X01205Y-02374
X01243Y-02437
X01114Y-02465
X01024Y-02524
X00843Y-02362
X00639Y-02228
X00614
X00591
X00555Y-02118
X00535Y-02063
X00445Y-02102
X00343Y-02087
X00449Y-0224
X00244Y-02693
X00181
X01303Y-0228
X01843Y-02228
X01969Y-02224
X02Y-02134
X02098Y-02114
Y-02177
Y-0224
Y-02303
Y-02366
Y-02429
Y-02492
Y-02618
X02079Y-02673
X02008Y-02693
X01945
X01882
X01819
X01756
X01743Y-02437
X0178Y-02055
X01925Y-02059
X02098Y-02051
Y-01988
Y-01925
Y-01862
Y-01799
X01993Y-01937
X01743
X01791Y-01618
X01866Y-01606
X01868Y-01687
X02098Y-01673
Y-01736
Y-0161
Y-01547
Y-01484
Y-01421
Y-01358
Y-01295
Y-01232
Y-01169
Y-01106
Y-01043
Y-0098
Y-00917
Y-00854
Y-00791
Y-00728
Y-00665
Y-00602
Y-00539
Y-00476
Y-00413
Y-0035
Y-00287
Y-00224
X01993Y-00437
X01743
X01795Y-0052
X01799Y-00626
X01764Y-00835
X01815Y-0089
X01768Y-00957
X01815Y-01035
X01764Y-01114
X01815Y-01193
X01868Y-01187
X0189Y-01106
X01894Y-00969
X01993Y-00937
X0189Y-00835
Y-01295
X01819Y-01378
X01768Y-0126
X01993Y-01437
X01657Y-01406
X01587Y-01354
X01583Y-01224
X01618Y-01187
X01654Y-01157
X01717Y-01197
Y-01303
Y-01047
X01654Y-00972
X01717Y-00878
X01657Y-00815
X01587Y-00823
X01547Y-00874
X01488Y-00823
X01386Y-00811
X01307
X01283Y-00874
X01193Y-0085
X01118Y-00815
X01102Y-00886
X01047Y-00835
X00992Y-00874
X0087Y-00894
X00811Y-00839
X00657Y-00823
X00622Y-00909
X00559Y-00961
X0052Y-01028
X00362Y-01012
X00339Y-00925
X00287Y-00957
X00224Y-00969
X0022Y-01039
Y-01087
X00394Y-01098
X00437Y-01142
X00378Y-01193
X00433Y-01268
Y-01315
X00358Y-01303
X00366Y-0139
X00303Y-01394
X00256
X00252Y-01319
X00185Y-01264
X00201Y-01602
X00256Y-01579
X00307Y-01614
X00358Y-01583
X00402Y-01618
X00453Y-01583
X00516Y-01591
X00461Y-01657
X00368Y-01687
X00512Y-01732
X00618Y-01687
X00606Y-01646
X00673Y-01689
X00657Y-01578
X00713Y-01394
X00835
X00874Y-01358
X00988Y-01394
X01087
X01102Y-01343
X01151Y-01297
X01126Y-01268
Y-01217
Y-01169
X0115Y-01122
X01157Y-01079
X01102Y-01067
X01067Y-01091
X01063Y-0102
X00921Y-01039
X00906Y-01142
X00917Y-01244
X00831Y-01201
X00823Y-01094
X00843Y-00992
X00677
X00661Y-01079
X00752Y-01295
X00504Y-01382
X00449Y-01398
X00476Y-00846
X00354Y-00835
X00213Y-00823
X00264Y-00598
X00303Y-0063
X00394
X00457Y-00638
X00555Y-00634
X0052Y-00594
X00622Y-00563
X00736
X00756Y-00634
X00854Y-0063
X00831Y-00575
X01Y-00583
X01055Y-00634
X01157Y-00642
X01154Y-00583
X01252Y-0063
X01295Y-00587
X01354Y-0063
X01406Y-00594
X01457Y-0063
X01657Y-00642
X01701Y-00618
Y-00524
X01606Y-0052
X01602Y-00425
X01508
X01496Y-00319
X01594Y-00311
X01689Y-00417
X01402Y-00354
X0139Y-00283
X01476Y-00201
X0122Y-00264
X0126Y-00354
X01243Y-00437
X00993
X00743
X00567Y-00457
X00493Y-00437
X00496Y-00299
X00346Y-00386
X0037Y-00476
X00243Y-00437
X00193Y-00531
X00189Y-00268
X00657Y-00642
X00618Y-00687
X01228Y-0102
X01268Y-01
X0139Y-00957
X01417Y-00878
X01368Y-01187
X01394Y-01248
X01362Y-01327
X01457Y-0137
Y-01394
X01555Y-01579
X01614Y-01618
X01626Y-01689
X01551Y-01677
X01713Y-01701
X01709Y-01602
X01657Y-01571
X01346Y-01697
X0126Y-01614
X01157Y-01578
X0113Y-01689
X01055Y-0165
X00992Y-01594
X00902Y-01654
X01157Y-01405
X01228Y-01295
X01067Y-0124
X00124Y-01236
X00171Y-01188
X00169Y-0113
X00138Y-01059
Y-00972
X00055Y-00903
Y-00878
X-0002Y-00921
X-00134Y-00917
Y-0098
Y-01043
Y-01106
Y-01169
Y-01232
Y-01295
Y-01358
X-00079Y-01365
X-00014Y-01397
X-00134Y-01421
Y-01484
Y-01547
X-00118Y-01575
X-00134Y-0161
Y-01673
Y-01736
X-00024Y-01685
X-00047Y-01583
X00157Y-01578
X00142Y-01646
X00118Y-01687
X00138Y-01713
X00157Y-01405
X00142Y-01327
X-0002Y-01232
Y-01094
X-00134Y-00854
Y-00791
Y-00728
Y-00665
Y-00602
Y-00539
Y-00476
Y-00413
Y-0035
Y-00287
Y-00224
X-00004Y-00382
X-00007Y-00437
X00157Y-00386
Y-00642
X00118Y-00687
X00157Y-00815
X00118Y-00187
X-00134Y-00161
Y-00098
Y-00035
Y00028
X-0013Y00091
X-00106Y00138
X-00043
X0002
X00083
X00146
X00209
X00272
X00335
X00398
X00461
X00524
X00587
X0065
X00713
X00776
X00839
X00902
X00965
X00972Y00106
X01028Y00138
X01091
X01154
X01217
X0128
X01343
X01406
X01469
X01531
X01594
X01657
X0172
X01618Y-00187
X01368
X01303Y-00185
X01366Y-00087
X01268Y-00008
X01146Y-00004
X01039Y00007
X01003Y-00062
X00983Y-00151
X00932Y-00159
X00868Y-00187
X00814Y-00147
X0068Y-00096
X00618Y-00187
X00368
X009Y00006
X00857Y00078
X01086Y-00111
X01118Y-00187
X01185Y-00126
X01868Y-00187
X02098Y-00161
Y-00098
X02102Y-00043
Y00039
X02098Y00091
X02091Y00138
X02035
X01972
X01909
X01846
X01783
T02
X-00079Y-00472
Y-00295
T03
X00014Y-00522
Y-00246
T04
X01906Y-02146
Y-01949
T05
X00177Y-02008
X00413
X00295Y-02193
T06
X00972Y00054
T07
X0Y-02559
X01969
X0Y0
X01969
M30
