M48
;Layer_Color=9474304
;FILE_FORMAT=2:3
INCH,LZ
;TYPE=PLATED
T01F00S00C0.010
T02F00S00C0.039
T03F00S00C0.051
T04F00S00C0.059
T05F00S00C0.079
;TYPE=NON_PLATED
T06F00S00C0.020
T07F00S00C0.126
%
T01
X-00132Y-00127
X00118
Y00373
X-00132
X-00007Y00623
X00243
X00493
X00484Y00654
X00579Y00638
X00638Y00685
X00685Y00614
X00705Y00563
Y00539
X00728
Y00563
X00752
Y00539
X00787Y00673
X00858Y00614
X00921Y00677
X01004Y00614
X01098Y0065
X0111Y0078
X01185
X01307Y0078
X01299Y00728
X01256Y00705
X01295Y00657
X01354Y00661
X01331Y00614
X01398Y00622
X01457Y00626
X01524Y0063
X01563Y00677
X01587Y00728
X01642Y00748
X01646Y00677
X01705Y00685
X01693Y0063
X01614Y00626
X01594Y00457
X01681Y00472
Y00366
X01618Y00373
X01736Y00421
X01685Y00173
X01668Y0008
X01543Y00091
X01493Y00123
X01449Y00157
X01402Y00209
X01358Y00252
X01417Y00311
X01368Y00373
X01339Y00378
X01295Y00319
X01217Y00386
X01118Y00373
X0115Y00457
X01268Y00453
X01243Y00623
X01411Y00683
X01402Y00724
Y0078
X01503Y00732
X01563Y0078
X01705Y00764
X01051Y00756
X00858Y00803
X00567Y00744
X00382Y00807
X00567Y00465
X0065Y00433
X00618Y00373
X00868
X00993Y00123
X01243
X01488Y00236
X01571Y00173
X01618Y-00127
X01368
X01118
X00868
X00618
X00368
X00493Y00123
X00743
X00243
X0178Y00079
X01854Y00102
X01803Y00169
X01843Y0022
X01862Y00295
X01878Y0037
Y00445
X0189Y00504
X01949Y0052
Y00449
X02012Y00457
Y00382
X01945Y00378
X01949Y00303
X02004Y00319
X02083Y00315
X02138Y00331
X0213Y00264
X02079Y00244
X02016Y00224
X01933
X01764Y00287
X01799Y00358
X01811Y00425
X01815Y00508
X01756Y00484
X01894Y00575
X01965Y00606
X02035Y00539
X02146Y00524
X02228Y00528
X02222Y00498
X02165Y00437
X02075Y00394
X0228Y00362
X02346Y00295
Y00228
X0235Y00165
X02429
X02433Y00228
Y00283
X02565Y00292
Y00318
X02628Y00344
X02618Y00373
X02512Y0037
X02555Y00461
X02457Y00457
X02335
X02339Y00524
X02354Y00594
X02429Y00634
X02437Y00717
X02362Y00705
X02409Y00791
X025
X02565Y00761
Y0073
Y00705
Y00679
X02776Y00689
X0276Y00642
X02803
X02787Y00598
Y00551
X0278Y00492
X02788Y00399
X02801Y0035
X02813Y00295
X0274Y00299
X02736Y00362
X02689Y00315
X02693Y00252
X0265Y00276
X02748Y00189
X02787Y00217
X02812Y00136
X02817Y00079
X029Y00075
X0298Y00063
X03024Y00093
X03018Y00185
X03002Y00264
X02943Y00268
X02907Y00244
Y00205
X02939Y00169
X02904Y00299
Y00346
X03006Y00374
X0301Y00469
X02899Y00474
X02927Y00567
X02994Y00571
Y00669
X02986Y00764
X02904Y00748
Y00701
X02907Y00646
X02795Y00744
X0274Y00579
X02657Y00492
X02673Y00453
X02421Y00547
X02256Y00799
X02098Y00756
X01839Y00744
X0178Y00791
X01772Y00697
X02098Y00106
X02169Y00102
X02217Y0011
X02185Y00016
X02118Y-00127
X02368
X02387Y00073
X02496Y00047
X02726Y00079
X02618Y-00127
X02868
X01868
X01858Y00846
X01868Y00873
X01866Y00953
X02122Y00839
X02319Y00843
X02551Y00846
X02618Y00873
X02646Y01051
X02743Y01123
X0278Y01252
X02642Y01268
X02646Y01433
Y01583
X02743Y01623
X02654Y01717
X02524Y01795
X02323
X02142
X02028Y01701
X02024Y01563
X02031Y01445
X02024Y01299
X01868Y01373
X01743Y01623
Y02123
X01993
X02243
X02493
X02743
X02993
X02868Y01873
X02993Y01623
X02868Y01373
X02993Y01123
X02868Y00873
X0172Y00831
X0163Y00827
X01614Y00909
X01657Y00981
Y01154
X01618Y01373
X01512Y01461
X01508Y01606
Y01693
X01457Y01736
X01354
X01256
X01157Y01744
X01055
X01004Y01689
X00993Y01623
X01Y01575
X01008Y01441
X00913Y01402
X00913Y01498
X00835Y01445
X00732
X0078Y01386
X00783Y01516
X00732Y01575
X00783Y01626
X00835Y01583
Y01689
X00858Y01736
X00913Y0172
Y01638
X00732Y01685
X00756Y01736
X00657
X00555Y01744
X00508Y01693
X00493Y01623
X00508Y01583
X00504Y01425
X00642Y01413
X00618Y01373
X00643Y01514
X00638Y01634
X00409Y01657
X00457Y01736
X00406Y01492
X00368Y01373
X00358Y01335
X0026Y01311
X00303Y01217
X00256Y01169
X00205Y01205
X00358Y01161
X00406Y01217
X00457Y0124
X00504Y01177
X0059Y01174
X00657Y01154
X00697Y01193
X00756Y01213
X00807Y01177
X00901Y0117
X00988Y01165
X01157Y01154
Y00981
X0111Y00925
X01106Y00831
X01185Y00839
X01207Y00908
X01303Y00949
X01402Y00941
X01504Y00945
X01512Y00835
X01406Y00831
X01311
X00941Y00835
X00953Y00933
X00752Y00925
X00634Y00921
X00657Y00981
X00508Y00941
X00456Y00965
X00398Y00933
X00368Y00873
X00321Y00882
X00504Y00815
X00559Y00862
X01118Y01373
X01122Y01406
X0113Y01524
X01193Y01469
X01197Y0161
X01114Y01677
X01299Y01673
X01406Y01654
Y01543
X01299Y01531
X01303Y01406
X01406Y01386
X01657Y01744
X01618Y01873
X01657Y01917
X01493Y02123
X01425Y02197
X01386Y02315
X01256Y02311
X01114Y02315
X01098Y02157
X01244Y02161
X01232Y02008
X01157Y01917
X01118Y01873
X01063Y01992
X00925Y01984
X00783Y02
X00743Y02123
X00929Y0215
X00493Y02123
X0037Y02083
X00243Y02123
Y01623
X00618Y01873
X00657Y01917
X01547Y02327
X-00007Y02123
X00157Y01917
X00118Y01873
X00157Y01744
X00055Y01681
Y01656
X-00007Y01623
X00118Y01373
X00157Y01287
X00126Y01236
X00157Y01205
Y01154
Y00981
X-00118Y00984
X-00132Y00873
X-00063Y00839
X-00079Y01195
X-00132Y01373
Y01873
Y02373
X00118
X00368
X00618
X00868
X01118
X01244Y02484
X01378Y02433
X01496Y02421
X01547Y02429
X01566Y02518
X01602Y02587
X01464Y02586
X01421Y02657
X0165Y02469
X01618Y02373
X01868
X02118
X02368
X02618
X02868
T02
X02855Y00119
X02955
Y00219
Y00319
Y00419
Y00519
Y00619
Y00719
X02855
Y00619
Y00519
Y00419
Y00319
Y00219
Y00819
X02955
X-00079Y02087
Y02264
T03
X00014Y02037
Y02313
T04
X02941Y01547
Y01744
Y02012
Y02209
T05
X00177Y00551
X00413
X00295Y00366
T06
X01535Y02634
T07
X0Y0
X01969
X0Y02559
X02953
M30
